G75*
%MOIN*%
%OFA0B0*%
%FSLAX24Y24*%
%IPPOS*%
%LPD*%
%AMOC8*
5,1,8,0,0,1.08239X$1,22.5*
%
%ADD10C,0.0030*%
%ADD11C,0.0051*%
%ADD12C,0.0060*%
%ADD13C,0.0050*%
%ADD14C,0.0080*%
%ADD15C,0.0040*%
%ADD16C,0.0020*%
%ADD17C,0.0000*%
%ADD18C,0.0020*%
%ADD19C,0.0010*%
%ADD20C,0.0160*%
D10*
X011114Y003655D02*
X011427Y003969D01*
X011270Y003969D02*
X011270Y003655D01*
X011427Y003655D02*
X011114Y003969D01*
X011114Y003812D02*
X011427Y003812D01*
X017534Y004786D02*
X017534Y005077D01*
X017631Y004980D01*
X017728Y005077D01*
X017728Y004786D01*
X017829Y004835D02*
X017877Y004786D01*
X017974Y004786D01*
X018023Y004835D01*
X018023Y005028D01*
X017974Y005077D01*
X017877Y005077D01*
X017829Y005028D01*
X017829Y004835D01*
X018124Y005077D02*
X018317Y005077D01*
X018220Y005077D02*
X018220Y004786D01*
X018418Y004835D02*
X018418Y005028D01*
X018467Y005077D01*
X018563Y005077D01*
X018612Y005028D01*
X018612Y004835D01*
X018563Y004786D01*
X018467Y004786D01*
X018418Y004835D01*
X018713Y004883D02*
X018858Y004883D01*
X018906Y004931D01*
X018906Y005028D01*
X018858Y005077D01*
X018713Y005077D01*
X018713Y004786D01*
X018810Y004883D02*
X018906Y004786D01*
X021611Y007406D02*
X021611Y007551D01*
X021659Y007600D01*
X021756Y007600D01*
X021804Y007551D01*
X021804Y007406D01*
X021804Y007503D02*
X021901Y007600D01*
X021853Y007701D02*
X021804Y007701D01*
X021756Y007749D01*
X021756Y007846D01*
X021804Y007894D01*
X021853Y007894D01*
X021901Y007846D01*
X021901Y007749D01*
X021853Y007701D01*
X021756Y007749D02*
X021708Y007701D01*
X021659Y007701D01*
X021611Y007749D01*
X021611Y007846D01*
X021659Y007894D01*
X021708Y007894D01*
X021756Y007846D01*
X021901Y007406D02*
X021611Y007406D01*
X025479Y010849D02*
X025793Y011163D01*
X025793Y011006D02*
X025479Y011006D01*
X025479Y011163D02*
X025793Y010849D01*
X025636Y010849D02*
X025636Y011163D01*
X025826Y011668D02*
X025434Y011668D01*
X025434Y011982D02*
X025826Y011982D01*
X025904Y011903D01*
X025904Y011746D01*
X025826Y011668D01*
X025904Y012128D02*
X025904Y012442D01*
X025904Y012285D02*
X025434Y012285D01*
X025590Y012128D01*
X022809Y011731D02*
X022616Y011731D01*
X022761Y011876D01*
X022761Y011585D01*
X022515Y011585D02*
X022321Y011585D01*
X022418Y011585D02*
X022418Y011876D01*
X022321Y011779D01*
X022220Y011827D02*
X022172Y011876D01*
X022075Y011876D01*
X022026Y011827D01*
X022026Y011634D01*
X022075Y011585D01*
X022172Y011585D01*
X022220Y011634D01*
X026427Y015241D02*
X026427Y015531D01*
X026572Y015531D01*
X026621Y015483D01*
X026621Y015386D01*
X026572Y015338D01*
X026427Y015338D01*
X026524Y015338D02*
X026621Y015241D01*
X026722Y015289D02*
X026770Y015241D01*
X026867Y015241D01*
X026915Y015289D01*
X026915Y015338D01*
X026867Y015386D01*
X026722Y015386D01*
X026722Y015289D01*
X026722Y015386D02*
X026819Y015483D01*
X026915Y015531D01*
X026811Y016649D02*
X026714Y016649D01*
X026666Y016698D01*
X026564Y016649D02*
X026468Y016746D01*
X026516Y016746D02*
X026371Y016746D01*
X026371Y016649D02*
X026371Y016939D01*
X026516Y016939D01*
X026564Y016891D01*
X026564Y016794D01*
X026516Y016746D01*
X026666Y016891D02*
X026714Y016939D01*
X026811Y016939D01*
X026859Y016891D01*
X026859Y016843D01*
X026811Y016794D01*
X026859Y016746D01*
X026859Y016698D01*
X026811Y016649D01*
X026811Y016794D02*
X026762Y016794D01*
X027659Y017752D02*
X027816Y017752D01*
X027894Y017831D01*
X028041Y017752D02*
X028041Y018144D01*
X028120Y018223D01*
X028276Y018223D01*
X028355Y018144D01*
X028355Y017752D01*
X027894Y018223D02*
X027581Y018223D01*
X027894Y018223D02*
X027581Y017909D01*
X027581Y017831D01*
X027659Y017752D01*
X028211Y016974D02*
X028525Y016661D01*
X028525Y016818D02*
X028211Y016818D01*
X028211Y016661D02*
X028525Y016974D01*
X028368Y016974D02*
X028368Y016661D01*
D11*
X008031Y000126D02*
X000492Y000126D01*
X001260Y000126D02*
X001362Y001149D01*
X001385Y001149D02*
X001260Y000126D01*
X001157Y001149D01*
X001134Y001149D02*
X001385Y001149D01*
X001311Y001149D02*
X001260Y000126D01*
X001208Y001149D01*
X001134Y001149D02*
X001260Y000126D01*
X001260Y021622D01*
X001362Y020598D01*
X001385Y020598D02*
X001260Y021622D01*
X001157Y020598D01*
X001134Y020598D02*
X001385Y020598D01*
X001311Y020598D02*
X001260Y021622D01*
X001208Y020598D01*
X001134Y020598D02*
X001260Y021622D01*
X000492Y021622D02*
X008011Y021622D01*
X008011Y022822D01*
X008011Y022055D02*
X009035Y021952D01*
X009035Y021929D02*
X008011Y022055D01*
X009035Y022157D01*
X009035Y022180D02*
X009035Y021929D01*
X009035Y022004D02*
X008011Y022055D01*
X009035Y022106D01*
X009035Y022180D02*
X008011Y022055D01*
X036260Y022055D01*
X035236Y021952D01*
X035236Y021929D02*
X036260Y022055D01*
X035236Y022157D01*
X035236Y022180D02*
X035236Y021929D01*
X035236Y022004D02*
X036260Y022055D01*
X035236Y022106D01*
X035236Y022180D02*
X036260Y022055D01*
X036260Y022822D02*
X036260Y014870D01*
D12*
X032013Y019376D02*
X031513Y019376D01*
X031263Y019626D01*
X031263Y021126D01*
X031513Y021376D01*
X032013Y021376D01*
X032263Y021126D01*
X032263Y019626D01*
X032013Y019376D01*
X031263Y019626D02*
X031013Y019376D01*
X030513Y019376D01*
X030263Y019626D01*
X030263Y021126D01*
X030513Y021376D01*
X031013Y021376D01*
X031263Y021126D01*
X030263Y021126D02*
X030013Y021376D01*
X029513Y021376D01*
X029263Y021126D01*
X029263Y019626D01*
X029513Y019376D01*
X030013Y019376D01*
X030263Y019626D01*
X029263Y019626D02*
X029013Y019376D01*
X028513Y019376D01*
X028263Y019626D01*
X028263Y021126D01*
X028513Y021376D01*
X029013Y021376D01*
X029263Y021126D01*
X028263Y021126D02*
X028013Y021376D01*
X027513Y021376D01*
X027263Y021126D01*
X027263Y019626D01*
X027513Y019376D01*
X028013Y019376D01*
X028263Y019626D01*
X028020Y018968D02*
X028020Y017008D01*
X027360Y017008D01*
X026460Y017008D01*
X026460Y018968D01*
X028020Y018968D01*
X028020Y018838D02*
X028460Y018838D01*
X028460Y018638D01*
X028020Y018638D01*
X028020Y018838D01*
X028020Y018338D02*
X028460Y018338D01*
X028460Y018138D01*
X028020Y018138D01*
X028020Y018338D01*
X028020Y017838D02*
X028460Y017838D01*
X028460Y017638D01*
X028020Y017638D01*
X028020Y017838D01*
X028020Y017338D02*
X028460Y017338D01*
X028460Y017138D01*
X028020Y017138D01*
X028020Y017338D01*
X026460Y017338D02*
X026460Y017138D01*
X026020Y017138D01*
X026020Y017338D01*
X026460Y017338D01*
X026460Y017638D02*
X026020Y017638D01*
X026020Y017838D01*
X026460Y017838D01*
X026460Y017638D01*
X026460Y018138D02*
X026020Y018138D01*
X026020Y018338D01*
X026460Y018338D01*
X026460Y018138D01*
X026460Y018638D02*
X026020Y018638D01*
X026020Y018838D01*
X026460Y018838D01*
X026460Y018638D01*
X026513Y019376D02*
X026263Y019626D01*
X026263Y021126D01*
X026513Y021376D01*
X027013Y021376D01*
X027263Y021126D01*
X026263Y021126D02*
X026013Y021376D01*
X025513Y021376D01*
X025263Y021126D01*
X025263Y019626D01*
X025513Y019376D01*
X026013Y019376D01*
X026263Y019626D01*
X026513Y019376D02*
X027013Y019376D01*
X027263Y019626D01*
X025263Y019626D02*
X025013Y019376D01*
X024513Y019376D01*
X024263Y019626D01*
X024263Y021126D01*
X024513Y021376D01*
X025013Y021376D01*
X025263Y021126D01*
X024263Y021126D02*
X024013Y021376D01*
X023513Y021376D01*
X023263Y021126D01*
X023263Y019626D01*
X023013Y019376D01*
X022513Y019376D01*
X022263Y019626D01*
X022263Y021126D01*
X022513Y021376D01*
X023013Y021376D01*
X023263Y021126D01*
X022263Y021126D02*
X022013Y021376D01*
X021513Y021376D01*
X021263Y021126D01*
X021263Y019626D01*
X021013Y019376D01*
X020513Y019376D01*
X020263Y019626D01*
X020263Y021126D01*
X020513Y021376D01*
X021013Y021376D01*
X021263Y021126D01*
X020263Y021126D02*
X020013Y021376D01*
X019513Y021376D01*
X019263Y021126D01*
X019263Y019626D01*
X019013Y019376D01*
X018513Y019376D01*
X018263Y019626D01*
X018263Y021126D01*
X018513Y021376D01*
X019013Y021376D01*
X019263Y021126D01*
X018263Y021126D02*
X018013Y021376D01*
X017513Y021376D01*
X017263Y021126D01*
X017263Y019626D01*
X017013Y019376D01*
X016513Y019376D01*
X016263Y019626D01*
X016263Y021126D01*
X016513Y021376D01*
X017013Y021376D01*
X017263Y021126D01*
X016263Y021126D02*
X016013Y021376D01*
X015513Y021376D01*
X015263Y021126D01*
X015263Y019626D01*
X015513Y019376D01*
X016013Y019376D01*
X016263Y019626D01*
X015263Y019626D02*
X015013Y019376D01*
X014513Y019376D01*
X014263Y019626D01*
X014263Y021126D01*
X014513Y021376D01*
X015013Y021376D01*
X015263Y021126D01*
X014263Y021126D02*
X014013Y021376D01*
X013513Y021376D01*
X013263Y021126D01*
X013263Y019626D01*
X013513Y019376D01*
X014013Y019376D01*
X014263Y019626D01*
X013263Y019626D02*
X013013Y019376D01*
X012513Y019376D01*
X012263Y019626D01*
X012263Y021126D01*
X012513Y021376D01*
X013013Y021376D01*
X013263Y021126D01*
X012263Y021126D02*
X012013Y021376D01*
X011513Y021376D01*
X011263Y021126D01*
X011263Y019626D01*
X011513Y019376D01*
X012013Y019376D01*
X012263Y019626D01*
X011263Y019626D02*
X011013Y019376D01*
X010513Y019376D01*
X010263Y019626D01*
X010263Y021126D01*
X010513Y021376D01*
X011013Y021376D01*
X011263Y021126D01*
X010263Y021126D02*
X010013Y021376D01*
X009513Y021376D01*
X009263Y021126D01*
X009263Y019626D01*
X009513Y019376D01*
X010013Y019376D01*
X010263Y019626D01*
X010766Y017824D02*
X010766Y017004D01*
X010766Y016004D01*
X010766Y015184D01*
X010768Y015161D01*
X010773Y015138D01*
X010782Y015116D01*
X010795Y015096D01*
X010810Y015078D01*
X010828Y015063D01*
X010848Y015050D01*
X010870Y015041D01*
X010893Y015036D01*
X010916Y015034D01*
X010766Y016004D02*
X010810Y016006D01*
X010853Y016012D01*
X010895Y016021D01*
X010937Y016034D01*
X010977Y016051D01*
X011016Y016071D01*
X011053Y016094D01*
X011087Y016121D01*
X011120Y016150D01*
X011149Y016183D01*
X011176Y016217D01*
X011199Y016254D01*
X011219Y016293D01*
X011236Y016333D01*
X011249Y016375D01*
X011258Y016417D01*
X011264Y016460D01*
X011266Y016504D01*
X011264Y016548D01*
X011258Y016591D01*
X011249Y016633D01*
X011236Y016675D01*
X011219Y016715D01*
X011199Y016754D01*
X011176Y016791D01*
X011149Y016825D01*
X011120Y016858D01*
X011087Y016887D01*
X011053Y016914D01*
X011016Y016937D01*
X010977Y016957D01*
X010937Y016974D01*
X010895Y016987D01*
X010853Y016996D01*
X010810Y017002D01*
X010766Y017004D01*
X010766Y017824D02*
X010768Y017847D01*
X010773Y017870D01*
X010782Y017892D01*
X010795Y017912D01*
X010810Y017930D01*
X010828Y017945D01*
X010848Y017958D01*
X010870Y017967D01*
X010893Y017972D01*
X010916Y017974D01*
X015736Y017974D02*
X015759Y017972D01*
X015782Y017967D01*
X015804Y017958D01*
X015824Y017945D01*
X015842Y017930D01*
X015857Y017912D01*
X015870Y017892D01*
X015879Y017870D01*
X015884Y017847D01*
X015886Y017824D01*
X015886Y015184D01*
X015884Y015161D01*
X015879Y015138D01*
X015870Y015116D01*
X015857Y015096D01*
X015842Y015078D01*
X015824Y015063D01*
X015804Y015050D01*
X015782Y015041D01*
X015759Y015036D01*
X015736Y015034D01*
X019507Y014869D02*
X019507Y017509D01*
X019509Y017532D01*
X019514Y017555D01*
X019523Y017577D01*
X019536Y017597D01*
X019551Y017615D01*
X019569Y017630D01*
X019589Y017643D01*
X019611Y017652D01*
X019634Y017657D01*
X019657Y017659D01*
X019513Y019376D02*
X019263Y019626D01*
X019513Y019376D02*
X020013Y019376D01*
X020263Y019626D01*
X021263Y019626D02*
X021513Y019376D01*
X022013Y019376D01*
X022263Y019626D01*
X023263Y019626D02*
X023513Y019376D01*
X024013Y019376D01*
X024263Y019626D01*
X024477Y017659D02*
X024500Y017657D01*
X024523Y017652D01*
X024545Y017643D01*
X024565Y017630D01*
X024583Y017615D01*
X024598Y017597D01*
X024611Y017577D01*
X024620Y017555D01*
X024625Y017532D01*
X024627Y017509D01*
X024627Y016689D01*
X024627Y015689D01*
X024627Y014869D01*
X024625Y014846D01*
X024620Y014823D01*
X024611Y014801D01*
X024598Y014781D01*
X024583Y014763D01*
X024565Y014748D01*
X024545Y014735D01*
X024523Y014726D01*
X024500Y014721D01*
X024477Y014719D01*
X024627Y015689D02*
X024583Y015691D01*
X024540Y015697D01*
X024498Y015706D01*
X024456Y015719D01*
X024416Y015736D01*
X024377Y015756D01*
X024340Y015779D01*
X024306Y015806D01*
X024273Y015835D01*
X024244Y015868D01*
X024217Y015902D01*
X024194Y015939D01*
X024174Y015978D01*
X024157Y016018D01*
X024144Y016060D01*
X024135Y016102D01*
X024129Y016145D01*
X024127Y016189D01*
X024129Y016233D01*
X024135Y016276D01*
X024144Y016318D01*
X024157Y016360D01*
X024174Y016400D01*
X024194Y016439D01*
X024217Y016476D01*
X024244Y016510D01*
X024273Y016543D01*
X024306Y016572D01*
X024340Y016599D01*
X024377Y016622D01*
X024416Y016642D01*
X024456Y016659D01*
X024498Y016672D01*
X024540Y016681D01*
X024583Y016687D01*
X024627Y016689D01*
X025926Y013314D02*
X025926Y012884D01*
X026046Y012884D01*
X026046Y013314D01*
X025926Y013314D01*
X026166Y013314D02*
X026166Y012884D01*
X026286Y012884D01*
X026286Y013314D01*
X026166Y013314D01*
X026416Y013314D02*
X026426Y012884D01*
X026546Y012884D01*
X026536Y013314D01*
X026416Y013314D01*
X026666Y013314D02*
X026666Y012884D01*
X026786Y012884D01*
X026786Y013314D01*
X026666Y013314D01*
X026916Y013314D02*
X026926Y012884D01*
X027046Y012884D01*
X027036Y013314D01*
X026916Y013314D01*
X027166Y013314D02*
X027166Y012884D01*
X027286Y012884D01*
X027286Y013314D01*
X027166Y013314D01*
X027416Y013314D02*
X027426Y012884D01*
X027546Y012884D01*
X027536Y013314D01*
X027416Y013314D01*
X027666Y013314D02*
X027666Y012884D01*
X027786Y012884D01*
X027786Y013314D01*
X027666Y013314D01*
X027916Y013314D02*
X027926Y012884D01*
X028046Y012884D01*
X028036Y013314D01*
X027916Y013314D01*
X028166Y013314D02*
X028166Y012884D01*
X028286Y012884D01*
X028286Y013314D01*
X028166Y013314D01*
X028826Y012884D02*
X025386Y012884D01*
X025386Y011974D01*
X025386Y011304D01*
X028826Y011304D01*
X028826Y012884D01*
X028286Y011304D02*
X028286Y010874D01*
X028166Y010874D01*
X028166Y011304D01*
X028286Y011304D01*
X028046Y011304D02*
X028046Y010874D01*
X027926Y010874D01*
X027926Y011304D01*
X028046Y011304D01*
X027786Y011304D02*
X027796Y010874D01*
X027676Y010874D01*
X027666Y011304D01*
X027786Y011304D01*
X027546Y011304D02*
X027546Y010874D01*
X027426Y010874D01*
X027426Y011304D01*
X027546Y011304D01*
X027286Y011304D02*
X027296Y010874D01*
X027176Y010874D01*
X027166Y011304D01*
X027286Y011304D01*
X027046Y011304D02*
X027046Y010874D01*
X026926Y010874D01*
X026926Y011304D01*
X027046Y011304D01*
X026786Y011304D02*
X026796Y010874D01*
X026676Y010874D01*
X026666Y011304D01*
X026786Y011304D01*
X026546Y011304D02*
X026546Y010874D01*
X026426Y010874D01*
X026426Y011304D01*
X026546Y011304D01*
X026286Y011304D02*
X026296Y010874D01*
X026176Y010874D01*
X026166Y011304D01*
X026286Y011304D01*
X026046Y011304D02*
X026046Y010874D01*
X025926Y010874D01*
X025926Y011304D01*
X026046Y011304D01*
X019657Y014719D02*
X019634Y014721D01*
X019611Y014726D01*
X019589Y014735D01*
X019569Y014748D01*
X019551Y014763D01*
X019536Y014781D01*
X019523Y014801D01*
X019514Y014823D01*
X019509Y014846D01*
X019507Y014869D01*
X015394Y011190D02*
X014574Y011190D01*
X013574Y011190D01*
X012754Y011190D01*
X012731Y011188D01*
X012708Y011183D01*
X012686Y011174D01*
X012666Y011161D01*
X012648Y011146D01*
X012633Y011128D01*
X012620Y011108D01*
X012611Y011086D01*
X012606Y011063D01*
X012604Y011040D01*
X013574Y011190D02*
X013576Y011146D01*
X013582Y011103D01*
X013591Y011061D01*
X013604Y011019D01*
X013621Y010979D01*
X013641Y010940D01*
X013664Y010903D01*
X013691Y010869D01*
X013720Y010836D01*
X013753Y010807D01*
X013787Y010780D01*
X013824Y010757D01*
X013863Y010737D01*
X013903Y010720D01*
X013945Y010707D01*
X013987Y010698D01*
X014030Y010692D01*
X014074Y010690D01*
X014118Y010692D01*
X014161Y010698D01*
X014203Y010707D01*
X014245Y010720D01*
X014285Y010737D01*
X014324Y010757D01*
X014361Y010780D01*
X014395Y010807D01*
X014428Y010836D01*
X014457Y010869D01*
X014484Y010903D01*
X014507Y010940D01*
X014527Y010979D01*
X014544Y011019D01*
X014557Y011061D01*
X014566Y011103D01*
X014572Y011146D01*
X014574Y011190D01*
X015394Y011190D02*
X015417Y011188D01*
X015440Y011183D01*
X015462Y011174D01*
X015482Y011161D01*
X015500Y011146D01*
X015515Y011128D01*
X015528Y011108D01*
X015537Y011086D01*
X015542Y011063D01*
X015544Y011040D01*
X015544Y006220D02*
X015542Y006197D01*
X015537Y006174D01*
X015528Y006152D01*
X015515Y006132D01*
X015500Y006114D01*
X015482Y006099D01*
X015462Y006086D01*
X015440Y006077D01*
X015417Y006072D01*
X015394Y006070D01*
X012754Y006070D01*
X012731Y006072D01*
X012708Y006077D01*
X012686Y006086D01*
X012666Y006099D01*
X012648Y006114D01*
X012633Y006132D01*
X012620Y006152D01*
X012611Y006174D01*
X012606Y006197D01*
X012604Y006220D01*
X012421Y005460D02*
X011201Y005460D01*
X011201Y004240D01*
X012421Y004240D01*
X012421Y005460D01*
X012421Y005210D02*
X012421Y005090D01*
X012421Y005010D02*
X012421Y004890D01*
X012421Y004810D02*
X012421Y004690D01*
X012421Y004610D02*
X012421Y004490D01*
X012171Y004240D02*
X012051Y004240D01*
X011971Y004240D02*
X011851Y004240D01*
X011771Y004240D02*
X011651Y004240D01*
X011701Y004240D02*
X011201Y004740D01*
X011201Y004690D02*
X011201Y004810D01*
X011201Y004890D02*
X011201Y005010D01*
X011201Y005090D02*
X011201Y005210D01*
X011451Y005460D02*
X011571Y005460D01*
X011651Y005460D02*
X011771Y005460D01*
X011851Y005460D02*
X011971Y005460D01*
X012051Y005460D02*
X012171Y005460D01*
X011201Y004610D02*
X011201Y004490D01*
X011451Y004240D02*
X011571Y004240D01*
X011513Y002376D02*
X012013Y002376D01*
X012263Y002126D01*
X012263Y000626D01*
X012513Y000376D01*
X013013Y000376D01*
X013263Y000626D01*
X013263Y002126D01*
X013513Y002376D01*
X014013Y002376D01*
X014263Y002126D01*
X014263Y000626D01*
X014513Y000376D01*
X015013Y000376D01*
X015263Y000626D01*
X015263Y002126D01*
X015513Y002376D01*
X016013Y002376D01*
X016263Y002126D01*
X016263Y000626D01*
X016013Y000376D01*
X015513Y000376D01*
X015263Y000626D01*
X014263Y000626D02*
X014013Y000376D01*
X013513Y000376D01*
X013263Y000626D01*
X012263Y000626D02*
X012013Y000376D01*
X011513Y000376D01*
X011263Y000626D01*
X011263Y002126D01*
X011513Y002376D01*
X011263Y002126D02*
X011013Y002376D01*
X010513Y002376D01*
X010263Y002126D01*
X010263Y000626D01*
X010513Y000376D01*
X011013Y000376D01*
X011263Y000626D01*
X010263Y000626D02*
X010013Y000376D01*
X009513Y000376D01*
X009263Y000626D01*
X009263Y002126D01*
X009513Y002376D01*
X010013Y002376D01*
X010263Y002126D01*
X012263Y002126D02*
X012513Y002376D01*
X013013Y002376D01*
X013263Y002126D01*
X014263Y002126D02*
X014513Y002376D01*
X015013Y002376D01*
X015263Y002126D01*
X016263Y002126D02*
X016513Y002376D01*
X017013Y002376D01*
X017263Y002126D01*
X017263Y000626D01*
X017013Y000376D01*
X016513Y000376D01*
X016263Y000626D01*
X017263Y000626D02*
X017513Y000376D01*
X018013Y000376D01*
X018263Y000626D01*
X018263Y002126D01*
X018513Y002376D01*
X019013Y002376D01*
X019263Y002126D01*
X019263Y000626D01*
X019013Y000376D01*
X018513Y000376D01*
X018263Y000626D01*
X019263Y000626D02*
X019513Y000376D01*
X020013Y000376D01*
X020263Y000626D01*
X020263Y002126D01*
X020513Y002376D01*
X021013Y002376D01*
X021263Y002126D01*
X021263Y000626D01*
X021013Y000376D01*
X020513Y000376D01*
X020263Y000626D01*
X021263Y000626D02*
X021513Y000376D01*
X022013Y000376D01*
X022263Y000626D01*
X022263Y002126D01*
X022513Y002376D01*
X023013Y002376D01*
X023263Y002126D01*
X023263Y000626D01*
X023013Y000376D01*
X022513Y000376D01*
X022263Y000626D01*
X023263Y000626D02*
X023513Y000376D01*
X024013Y000376D01*
X024263Y000626D01*
X024263Y002126D01*
X024513Y002376D01*
X025013Y002376D01*
X025263Y002126D01*
X025513Y002376D01*
X026013Y002376D01*
X026263Y002126D01*
X026513Y002376D01*
X027013Y002376D01*
X027263Y002126D01*
X027513Y002376D01*
X028013Y002376D01*
X028263Y002126D01*
X028513Y002376D01*
X029013Y002376D01*
X029263Y002126D01*
X029513Y002376D01*
X030013Y002376D01*
X030263Y002126D01*
X030513Y002376D01*
X031013Y002376D01*
X031263Y002126D01*
X031513Y002376D01*
X032013Y002376D01*
X032263Y002126D01*
X032263Y000626D01*
X032013Y000376D01*
X031513Y000376D01*
X031263Y000626D01*
X031263Y002126D01*
X030263Y002126D02*
X030263Y000626D01*
X030513Y000376D01*
X031013Y000376D01*
X031263Y000626D01*
X030263Y000626D02*
X030013Y000376D01*
X029513Y000376D01*
X029263Y000626D01*
X029263Y002126D01*
X028263Y002126D02*
X028263Y000626D01*
X028513Y000376D01*
X029013Y000376D01*
X029263Y000626D01*
X028263Y000626D02*
X028013Y000376D01*
X027513Y000376D01*
X027263Y000626D01*
X027263Y002126D01*
X026263Y002126D02*
X026263Y000626D01*
X026513Y000376D01*
X027013Y000376D01*
X027263Y000626D01*
X026263Y000626D02*
X026013Y000376D01*
X025513Y000376D01*
X025263Y000626D01*
X025263Y002126D01*
X024263Y002126D02*
X024013Y002376D01*
X023513Y002376D01*
X023263Y002126D01*
X022263Y002126D02*
X022013Y002376D01*
X021513Y002376D01*
X021263Y002126D01*
X020263Y002126D02*
X020013Y002376D01*
X019513Y002376D01*
X019263Y002126D01*
X018263Y002126D02*
X018013Y002376D01*
X017513Y002376D01*
X017263Y002126D01*
X024263Y000626D02*
X024513Y000376D01*
X025013Y000376D01*
X025263Y000626D01*
X001003Y010033D02*
X000897Y009927D01*
X001003Y010033D02*
X001003Y010247D01*
X000897Y010354D01*
X000683Y010354D01*
X000576Y010247D01*
X000576Y010140D01*
X000683Y009927D01*
X000363Y009927D01*
X000363Y010354D01*
X000683Y010571D02*
X000683Y010998D01*
X000897Y011216D02*
X000897Y011323D01*
X001003Y011323D01*
X001003Y011216D01*
X000897Y011216D01*
X000897Y011538D02*
X000683Y011538D01*
X000683Y011858D01*
X000790Y011965D01*
X000897Y011965D01*
X001003Y011858D01*
X001003Y011645D01*
X000897Y011538D01*
X000683Y011538D02*
X000470Y011752D01*
X000363Y011965D01*
X000363Y010892D02*
X000683Y010571D01*
X001003Y010892D02*
X000363Y010892D01*
X017263Y019626D02*
X017513Y019376D01*
X018013Y019376D01*
X018263Y019626D01*
X020909Y022311D02*
X020909Y022418D01*
X021336Y022845D01*
X021336Y022951D01*
X020909Y022951D01*
X021554Y022738D02*
X021767Y022951D01*
X021767Y022311D01*
X021554Y022311D02*
X021981Y022311D01*
X022198Y022311D02*
X022305Y022311D01*
X022305Y022418D01*
X022198Y022418D01*
X022198Y022311D01*
X022521Y022311D02*
X022521Y022418D01*
X022948Y022845D01*
X022948Y022951D01*
X022521Y022951D01*
X023165Y022951D02*
X023165Y022631D01*
X023379Y022738D01*
X023485Y022738D01*
X023592Y022631D01*
X023592Y022418D01*
X023485Y022311D01*
X023272Y022311D01*
X023165Y022418D01*
X023165Y022951D02*
X023592Y022951D01*
D13*
X031263Y021626D02*
X008013Y021626D01*
X008013Y016626D01*
X010151Y016271D02*
X010151Y016121D01*
X010226Y016046D01*
X010226Y015886D02*
X010151Y015811D01*
X010151Y015661D01*
X010226Y015585D01*
X010526Y015585D01*
X010601Y015661D01*
X010601Y015811D01*
X010526Y015886D01*
X010601Y016046D02*
X010301Y016346D01*
X010226Y016346D01*
X010151Y016271D01*
X010601Y016346D02*
X010601Y016046D01*
X010601Y015429D02*
X010601Y015279D01*
X010601Y015354D02*
X010151Y015354D01*
X010151Y015279D02*
X010151Y015429D01*
X010263Y014376D02*
X010263Y007376D01*
X010261Y007283D01*
X010255Y007190D01*
X010246Y007098D01*
X010232Y007006D01*
X010215Y006914D01*
X010194Y006824D01*
X010169Y006734D01*
X010141Y006645D01*
X010109Y006558D01*
X010073Y006472D01*
X010034Y006388D01*
X009992Y006305D01*
X009946Y006224D01*
X009897Y006145D01*
X009844Y006069D01*
X009789Y005994D01*
X009730Y005922D01*
X009668Y005852D01*
X009604Y005785D01*
X009537Y005721D01*
X009467Y005659D01*
X009395Y005600D01*
X009320Y005545D01*
X009244Y005492D01*
X009165Y005443D01*
X009084Y005397D01*
X009001Y005355D01*
X008917Y005316D01*
X008831Y005280D01*
X008744Y005248D01*
X008655Y005220D01*
X008565Y005195D01*
X008475Y005174D01*
X008383Y005157D01*
X008291Y005143D01*
X008199Y005134D01*
X008106Y005128D01*
X008013Y005126D01*
X008013Y000126D01*
X031263Y000126D01*
X031403Y000128D01*
X031543Y000134D01*
X031683Y000144D01*
X031823Y000157D01*
X031962Y000175D01*
X032101Y000197D01*
X032238Y000222D01*
X032376Y000251D01*
X032512Y000284D01*
X032647Y000321D01*
X032781Y000362D01*
X032914Y000407D01*
X033046Y000455D01*
X033176Y000507D01*
X033305Y000562D01*
X033432Y000621D01*
X033558Y000684D01*
X033682Y000750D01*
X033803Y000819D01*
X033923Y000892D01*
X034041Y000969D01*
X034156Y001048D01*
X034270Y001131D01*
X034380Y001217D01*
X034489Y001306D01*
X034595Y001398D01*
X034698Y001493D01*
X034799Y001590D01*
X034896Y001691D01*
X034991Y001794D01*
X035083Y001900D01*
X035172Y002009D01*
X035258Y002119D01*
X035341Y002233D01*
X035420Y002348D01*
X035497Y002466D01*
X035570Y002586D01*
X035639Y002707D01*
X035705Y002831D01*
X035768Y002957D01*
X035827Y003084D01*
X035882Y003213D01*
X035934Y003343D01*
X035982Y003475D01*
X036027Y003608D01*
X036068Y003742D01*
X036105Y003877D01*
X036138Y004013D01*
X036167Y004151D01*
X036192Y004288D01*
X036214Y004427D01*
X036232Y004566D01*
X036245Y004706D01*
X036255Y004846D01*
X036261Y004986D01*
X036263Y005126D01*
X036263Y016626D01*
X036261Y016766D01*
X036255Y016906D01*
X036245Y017046D01*
X036232Y017186D01*
X036214Y017325D01*
X036192Y017464D01*
X036167Y017601D01*
X036138Y017739D01*
X036105Y017875D01*
X036068Y018010D01*
X036027Y018144D01*
X035982Y018277D01*
X035934Y018409D01*
X035882Y018539D01*
X035827Y018668D01*
X035768Y018795D01*
X035705Y018921D01*
X035639Y019045D01*
X035570Y019166D01*
X035497Y019286D01*
X035420Y019404D01*
X035341Y019519D01*
X035258Y019633D01*
X035172Y019743D01*
X035083Y019852D01*
X034991Y019958D01*
X034896Y020061D01*
X034799Y020162D01*
X034698Y020259D01*
X034595Y020354D01*
X034489Y020446D01*
X034380Y020535D01*
X034270Y020621D01*
X034156Y020704D01*
X034041Y020783D01*
X033923Y020860D01*
X033803Y020933D01*
X033682Y021002D01*
X033558Y021068D01*
X033432Y021131D01*
X033305Y021190D01*
X033176Y021245D01*
X033046Y021297D01*
X032914Y021345D01*
X032781Y021390D01*
X032647Y021431D01*
X032512Y021468D01*
X032376Y021501D01*
X032238Y021530D01*
X032101Y021555D01*
X031962Y021577D01*
X031823Y021595D01*
X031683Y021608D01*
X031543Y021618D01*
X031403Y021624D01*
X031263Y021626D01*
X025242Y017228D02*
X025167Y017303D01*
X025091Y017303D01*
X025016Y017228D01*
X025016Y017153D01*
X025016Y017228D02*
X024941Y017303D01*
X024866Y017303D01*
X024791Y017228D01*
X024791Y017078D01*
X024866Y017003D01*
X024866Y016843D02*
X024791Y016768D01*
X024791Y016618D01*
X024866Y016543D01*
X025167Y016543D01*
X025242Y016618D01*
X025242Y016768D01*
X025167Y016843D01*
X025167Y017003D02*
X025242Y017078D01*
X025242Y017228D01*
X025242Y016386D02*
X025242Y016236D01*
X025242Y016311D02*
X024791Y016311D01*
X024791Y016236D02*
X024791Y016386D01*
X018624Y017697D02*
X018624Y013947D01*
X017124Y013947D01*
X017124Y017697D01*
X018624Y017697D01*
X013767Y011805D02*
X013767Y011355D01*
X013617Y011355D02*
X013917Y011355D01*
X013617Y011655D02*
X013767Y011805D01*
X013457Y011730D02*
X013382Y011805D01*
X013231Y011805D01*
X013156Y011730D01*
X013156Y011430D01*
X013231Y011355D01*
X013382Y011355D01*
X013457Y011430D01*
X013000Y011355D02*
X012849Y011355D01*
X012925Y011355D02*
X012925Y011805D01*
X013000Y011805D02*
X012849Y011805D01*
X010263Y014376D02*
X010261Y014469D01*
X010255Y014562D01*
X010246Y014654D01*
X010232Y014746D01*
X010215Y014838D01*
X010194Y014928D01*
X010169Y015018D01*
X010141Y015107D01*
X010109Y015194D01*
X010073Y015280D01*
X010034Y015364D01*
X009992Y015447D01*
X009946Y015528D01*
X009897Y015607D01*
X009844Y015683D01*
X009789Y015758D01*
X009730Y015830D01*
X009668Y015900D01*
X009604Y015967D01*
X009537Y016031D01*
X009467Y016093D01*
X009395Y016152D01*
X009320Y016207D01*
X009244Y016260D01*
X009165Y016309D01*
X009084Y016355D01*
X009001Y016397D01*
X008917Y016436D01*
X008831Y016472D01*
X008744Y016504D01*
X008655Y016532D01*
X008565Y016557D01*
X008475Y016578D01*
X008383Y016595D01*
X008291Y016609D01*
X008199Y016618D01*
X008106Y016624D01*
X008013Y016626D01*
X024157Y008858D02*
X024157Y007067D01*
X026952Y007067D01*
X026952Y008858D01*
X024157Y008858D01*
X024198Y006040D02*
X024108Y006040D01*
X024063Y005995D01*
X023948Y005995D02*
X023903Y006040D01*
X023813Y006040D01*
X023768Y005995D01*
X023948Y005995D02*
X023948Y005950D01*
X023768Y005769D01*
X023948Y005769D01*
X024063Y005769D02*
X024243Y005950D01*
X024243Y005995D01*
X024198Y006040D01*
X024357Y005995D02*
X024402Y006040D01*
X024492Y006040D01*
X024537Y005995D01*
X024357Y005815D01*
X024402Y005769D01*
X024492Y005769D01*
X024537Y005815D01*
X024537Y005995D01*
X024357Y005995D02*
X024357Y005815D01*
X024243Y005769D02*
X024063Y005769D01*
D14*
X023543Y005644D02*
X023543Y005944D01*
X023443Y005944D01*
X023543Y005944D02*
X023543Y006244D01*
X025543Y006244D01*
X025543Y005944D01*
X025643Y005944D01*
X025543Y005944D02*
X025543Y005644D01*
X023543Y005644D01*
X022992Y006897D02*
X022441Y006897D01*
X022441Y007409D01*
X022992Y007409D01*
X022441Y007409D02*
X022283Y007409D01*
X022287Y007783D02*
X022838Y007783D01*
X022838Y008295D01*
X022287Y008295D01*
X022838Y008295D02*
X022996Y008295D01*
X022984Y008630D02*
X022433Y008630D01*
X022433Y009141D01*
X022984Y009141D01*
X022988Y009504D02*
X022830Y009504D01*
X022830Y010015D01*
X022279Y010015D01*
X022279Y009504D02*
X022830Y009504D01*
X022433Y009141D02*
X022275Y009141D01*
X022275Y008630D02*
X022433Y008630D01*
X022838Y007783D02*
X022996Y007783D01*
X022441Y006897D02*
X022283Y006897D01*
X020637Y005248D02*
X020637Y002807D01*
X028118Y002807D01*
X028118Y005248D01*
X020637Y005248D01*
X019165Y005381D02*
X018496Y005381D01*
X017902Y005476D02*
X017902Y006498D01*
X017748Y006602D02*
X017275Y006602D01*
X017118Y006464D01*
X017118Y005500D01*
X017275Y005381D01*
X017748Y005381D01*
X017275Y005381D01*
X018496Y006622D02*
X019165Y006622D01*
X019165Y005381D01*
X020319Y009063D02*
X016972Y009063D01*
X016972Y011031D01*
X020319Y011031D01*
X020319Y009063D01*
X022830Y010015D02*
X022988Y010015D01*
X019957Y010747D02*
X019959Y010765D01*
X019965Y010783D01*
X019974Y010799D01*
X019986Y010812D01*
X020001Y010823D01*
X020018Y010831D01*
X020036Y010835D01*
X020054Y010835D01*
X020072Y010831D01*
X020089Y010823D01*
X020104Y010812D01*
X020116Y010799D01*
X020125Y010783D01*
X020131Y010765D01*
X020133Y010747D01*
X020131Y010729D01*
X020125Y010711D01*
X020116Y010695D01*
X020104Y010682D01*
X020089Y010671D01*
X020072Y010663D01*
X020054Y010659D01*
X020036Y010659D01*
X020018Y010663D01*
X020001Y010671D01*
X019986Y010682D01*
X019974Y010695D01*
X019965Y010711D01*
X019959Y010729D01*
X019957Y010747D01*
X031933Y014045D02*
X031933Y016206D01*
X033204Y015126D02*
X033206Y015173D01*
X033212Y015219D01*
X033222Y015265D01*
X033235Y015310D01*
X033252Y015353D01*
X033273Y015395D01*
X033297Y015435D01*
X033325Y015473D01*
X033356Y015509D01*
X033389Y015541D01*
X033425Y015571D01*
X033463Y015598D01*
X033504Y015621D01*
X033546Y015641D01*
X033590Y015658D01*
X033635Y015670D01*
X033681Y015679D01*
X033728Y015684D01*
X033775Y015685D01*
X033821Y015682D01*
X033868Y015675D01*
X033913Y015664D01*
X033958Y015650D01*
X034001Y015632D01*
X034042Y015610D01*
X034082Y015585D01*
X034119Y015557D01*
X034154Y015525D01*
X034186Y015491D01*
X034215Y015455D01*
X034241Y015416D01*
X034264Y015375D01*
X034283Y015332D01*
X034298Y015288D01*
X034310Y015242D01*
X034318Y015196D01*
X034322Y015149D01*
X034322Y015103D01*
X034318Y015056D01*
X034310Y015010D01*
X034298Y014964D01*
X034283Y014920D01*
X034264Y014877D01*
X034241Y014836D01*
X034215Y014797D01*
X034186Y014761D01*
X034154Y014727D01*
X034119Y014695D01*
X034082Y014667D01*
X034043Y014642D01*
X034001Y014620D01*
X033958Y014602D01*
X033913Y014588D01*
X033868Y014577D01*
X033821Y014570D01*
X033775Y014567D01*
X033728Y014568D01*
X033681Y014573D01*
X033635Y014582D01*
X033590Y014594D01*
X033546Y014611D01*
X033504Y014631D01*
X033463Y014654D01*
X033425Y014681D01*
X033389Y014711D01*
X033356Y014743D01*
X033325Y014779D01*
X033297Y014817D01*
X033273Y014857D01*
X033252Y014899D01*
X033235Y014942D01*
X033222Y014987D01*
X033212Y015033D01*
X033206Y015079D01*
X033204Y015126D01*
X034433Y013295D02*
X035594Y013295D01*
X035594Y016956D01*
X034433Y016956D01*
D15*
X035783Y016839D02*
X036243Y016839D01*
X036243Y016992D02*
X036243Y016685D01*
X036243Y016532D02*
X035783Y016225D01*
X035783Y016532D02*
X036243Y016225D01*
X035937Y016685D02*
X035783Y016839D01*
X023393Y011724D02*
X023393Y011417D01*
X023086Y011724D01*
X023009Y011724D01*
X022933Y011647D01*
X022933Y011494D01*
X023009Y011417D01*
X022933Y011110D02*
X023393Y011110D01*
X023393Y011263D02*
X023393Y010956D01*
X023316Y010803D02*
X023393Y010726D01*
X023393Y010573D01*
X023316Y010496D01*
X023009Y010496D01*
X022933Y010573D01*
X022933Y010726D01*
X023009Y010803D01*
X023086Y010956D02*
X022933Y011110D01*
X019515Y006358D02*
X019515Y006051D01*
X019208Y006358D01*
X019131Y006358D01*
X019055Y006282D01*
X019055Y006128D01*
X019131Y006051D01*
X019131Y005898D02*
X019208Y005898D01*
X019285Y005821D01*
X019362Y005898D01*
X019438Y005898D01*
X019515Y005821D01*
X019515Y005668D01*
X019438Y005591D01*
X019438Y005437D02*
X019515Y005361D01*
X019515Y005207D01*
X019438Y005131D01*
X019131Y005131D01*
X019055Y005207D01*
X019055Y005361D01*
X019131Y005437D01*
X019131Y005591D02*
X019055Y005668D01*
X019055Y005821D01*
X019131Y005898D01*
X019285Y005821D02*
X019285Y005744D01*
X013467Y003794D02*
X013467Y003717D01*
X013160Y003411D01*
X013160Y003334D01*
X013006Y003334D02*
X012853Y003487D01*
X012929Y003487D02*
X012699Y003487D01*
X012699Y003334D02*
X012699Y003794D01*
X012929Y003794D01*
X013006Y003717D01*
X013006Y003564D01*
X012929Y003487D01*
X013160Y003794D02*
X013467Y003794D01*
X013362Y002666D02*
X013208Y002666D01*
X013132Y002589D01*
X012978Y002589D02*
X012978Y002436D01*
X012901Y002359D01*
X012671Y002359D01*
X012671Y002205D02*
X012671Y002666D01*
X012901Y002666D01*
X012978Y002589D01*
X012825Y002359D02*
X012978Y002205D01*
X013132Y002205D02*
X013439Y002512D01*
X013439Y002589D01*
X013362Y002666D01*
X013439Y002205D02*
X013132Y002205D01*
X010972Y004029D02*
X010665Y003722D01*
X010665Y003646D01*
X010511Y003646D02*
X010204Y003646D01*
X010511Y003953D01*
X010511Y004029D01*
X010434Y004106D01*
X010281Y004106D01*
X010204Y004029D01*
X010051Y004029D02*
X009974Y004106D01*
X009821Y004106D01*
X009744Y004029D01*
X009744Y003953D01*
X009821Y003876D01*
X009974Y003876D01*
X010051Y003799D01*
X010051Y003722D01*
X009974Y003646D01*
X009821Y003646D01*
X009744Y003722D01*
X009590Y003722D02*
X009590Y004106D01*
X009283Y004106D02*
X009283Y003722D01*
X009360Y003646D01*
X009514Y003646D01*
X009590Y003722D01*
X009897Y003569D02*
X009897Y004183D01*
X010665Y004106D02*
X010972Y004106D01*
X010972Y004029D01*
X009897Y018569D02*
X009897Y019183D01*
X009821Y019106D02*
X009974Y019106D01*
X010051Y019029D01*
X010204Y019029D02*
X010281Y019106D01*
X010434Y019106D01*
X010511Y019029D01*
X010511Y018953D01*
X010204Y018646D01*
X010511Y018646D01*
X010665Y018646D02*
X010665Y018722D01*
X010972Y019029D01*
X010972Y019106D01*
X010665Y019106D01*
X010051Y018799D02*
X009974Y018876D01*
X009821Y018876D01*
X009744Y018953D01*
X009744Y019029D01*
X009821Y019106D01*
X009590Y019106D02*
X009590Y018722D01*
X009514Y018646D01*
X009360Y018646D01*
X009283Y018722D01*
X009283Y019106D01*
X009744Y018722D02*
X009821Y018646D01*
X009974Y018646D01*
X010051Y018722D01*
X010051Y018799D01*
D16*
X029960Y016708D02*
X029960Y015311D01*
X031574Y015311D01*
X031574Y016708D01*
X029960Y016708D01*
D17*
X027360Y017008D02*
X027357Y017029D01*
X027351Y017049D01*
X027341Y017067D01*
X027329Y017084D01*
X027313Y017098D01*
X027296Y017109D01*
X027276Y017117D01*
X027256Y017122D01*
X027235Y017123D01*
X027214Y017120D01*
X027194Y017114D01*
X027176Y017104D01*
X027159Y017092D01*
X027145Y017076D01*
X027134Y017059D01*
X027126Y017039D01*
X027121Y017019D01*
X027120Y016998D01*
X025376Y012214D02*
X025397Y012213D01*
X025417Y012208D01*
X025437Y012200D01*
X025454Y012189D01*
X025470Y012175D01*
X025482Y012158D01*
X025492Y012140D01*
X025498Y012120D01*
X025501Y012099D01*
X025500Y012078D01*
X025495Y012058D01*
X025487Y012038D01*
X025476Y012021D01*
X025462Y012005D01*
X025445Y011993D01*
X025427Y011983D01*
X025407Y011977D01*
X025386Y011974D01*
X020716Y004815D02*
X020718Y004838D01*
X020724Y004861D01*
X020734Y004882D01*
X020747Y004902D01*
X020763Y004919D01*
X020782Y004933D01*
X020803Y004943D01*
X020825Y004950D01*
X020848Y004953D01*
X020872Y004952D01*
X020894Y004947D01*
X020916Y004938D01*
X020936Y004926D01*
X020954Y004910D01*
X020968Y004892D01*
X020980Y004872D01*
X020988Y004850D01*
X020992Y004827D01*
X020992Y004803D01*
X020988Y004780D01*
X020980Y004758D01*
X020968Y004738D01*
X020954Y004720D01*
X020936Y004704D01*
X020916Y004692D01*
X020894Y004683D01*
X020872Y004678D01*
X020848Y004677D01*
X020825Y004680D01*
X020803Y004687D01*
X020782Y004697D01*
X020763Y004711D01*
X020747Y004728D01*
X020734Y004748D01*
X020724Y004769D01*
X020718Y004792D01*
X020716Y004815D01*
X024083Y004027D02*
X024085Y004061D01*
X024091Y004095D01*
X024101Y004128D01*
X024114Y004159D01*
X024132Y004189D01*
X024152Y004217D01*
X024176Y004242D01*
X024202Y004264D01*
X024230Y004282D01*
X024261Y004298D01*
X024293Y004310D01*
X024327Y004318D01*
X024361Y004322D01*
X024395Y004322D01*
X024429Y004318D01*
X024463Y004310D01*
X024495Y004298D01*
X024525Y004282D01*
X024554Y004264D01*
X024580Y004242D01*
X024604Y004217D01*
X024624Y004189D01*
X024642Y004159D01*
X024655Y004128D01*
X024665Y004095D01*
X024671Y004061D01*
X024673Y004027D01*
X024671Y003993D01*
X024665Y003959D01*
X024655Y003926D01*
X024642Y003895D01*
X024624Y003865D01*
X024604Y003837D01*
X024580Y003812D01*
X024554Y003790D01*
X024526Y003772D01*
X024495Y003756D01*
X024463Y003744D01*
X024429Y003736D01*
X024395Y003732D01*
X024361Y003732D01*
X024327Y003736D01*
X024293Y003744D01*
X024261Y003756D01*
X024230Y003772D01*
X024202Y003790D01*
X024176Y003812D01*
X024152Y003837D01*
X024132Y003865D01*
X024114Y003895D01*
X024101Y003926D01*
X024091Y003959D01*
X024085Y003993D01*
X024083Y004027D01*
D18*
X021064Y007345D02*
X021101Y007381D01*
X021101Y007455D01*
X021064Y007491D01*
X021101Y007566D02*
X021101Y007712D01*
X021101Y007639D02*
X020880Y007639D01*
X020954Y007566D01*
X020917Y007491D02*
X020880Y007455D01*
X020880Y007381D01*
X020917Y007345D01*
X021064Y007345D01*
X021064Y007787D02*
X021027Y007787D01*
X020990Y007823D01*
X020990Y007897D01*
X021027Y007933D01*
X021064Y007933D01*
X021101Y007897D01*
X021101Y007823D01*
X021064Y007787D01*
X020990Y007823D02*
X020954Y007787D01*
X020917Y007787D01*
X020880Y007823D01*
X020880Y007897D01*
X020917Y007933D01*
X020954Y007933D01*
X020990Y007897D01*
X024546Y008880D02*
X024582Y008844D01*
X024656Y008844D01*
X024692Y008880D01*
X024767Y008844D02*
X024913Y008990D01*
X024913Y009027D01*
X024877Y009064D01*
X024803Y009064D01*
X024767Y009027D01*
X024692Y009027D02*
X024656Y009064D01*
X024582Y009064D01*
X024546Y009027D01*
X024546Y008880D01*
X024767Y008844D02*
X024913Y008844D01*
X024988Y008880D02*
X025024Y008844D01*
X025098Y008844D01*
X025134Y008880D01*
X025134Y009027D01*
X025098Y009064D01*
X025024Y009064D01*
X024988Y009027D01*
X024988Y008990D01*
X025024Y008954D01*
X025134Y008954D01*
X025119Y009710D02*
X024972Y009710D01*
X025045Y009710D02*
X025045Y009930D01*
X024972Y009857D01*
X024824Y009930D02*
X024824Y009710D01*
X024751Y009710D02*
X024898Y009710D01*
X024751Y009857D02*
X024824Y009930D01*
X024677Y009893D02*
X024640Y009930D01*
X024566Y009930D01*
X024530Y009893D01*
X024530Y009746D01*
X024566Y009710D01*
X024640Y009710D01*
X024677Y009746D01*
X026323Y009716D02*
X026359Y009680D01*
X026433Y009680D01*
X026469Y009716D01*
X026544Y009716D02*
X026580Y009680D01*
X026654Y009680D01*
X026690Y009716D01*
X026690Y009753D01*
X026654Y009790D01*
X026544Y009790D01*
X026544Y009716D01*
X026544Y009790D02*
X026617Y009863D01*
X026690Y009900D01*
X026469Y009863D02*
X026433Y009900D01*
X026359Y009900D01*
X026323Y009863D01*
X026323Y009716D01*
X026359Y010428D02*
X026433Y010428D01*
X026469Y010464D01*
X026544Y010464D02*
X026580Y010428D01*
X026654Y010428D01*
X026690Y010464D01*
X026690Y010538D01*
X026654Y010575D01*
X026617Y010575D01*
X026544Y010538D01*
X026544Y010648D01*
X026690Y010648D01*
X026469Y010611D02*
X026433Y010648D01*
X026359Y010648D01*
X026323Y010611D01*
X026323Y010464D01*
X026359Y010428D01*
X025301Y012814D02*
X025081Y012814D01*
X025081Y012924D01*
X025118Y012960D01*
X025191Y012960D01*
X025228Y012924D01*
X025228Y012814D01*
X025228Y012887D02*
X025301Y012960D01*
X025265Y013035D02*
X025301Y013071D01*
X025301Y013145D01*
X025265Y013181D01*
X025191Y013181D01*
X025155Y013145D01*
X025155Y013108D01*
X025191Y013035D01*
X025081Y013035D01*
X025081Y013181D01*
X025066Y013615D02*
X025140Y013615D01*
X025177Y013652D01*
X025251Y013615D02*
X025398Y013615D01*
X025324Y013615D02*
X025324Y013835D01*
X025251Y013762D01*
X025177Y013799D02*
X025140Y013835D01*
X025066Y013835D01*
X025030Y013799D01*
X025030Y013652D01*
X025066Y013615D01*
X025472Y013652D02*
X025508Y013615D01*
X025582Y013615D01*
X025619Y013652D01*
X025619Y013689D01*
X025582Y013725D01*
X025472Y013725D01*
X025472Y013652D01*
X025472Y013725D02*
X025545Y013799D01*
X025619Y013835D01*
X027189Y014283D02*
X027226Y014247D01*
X027299Y014247D01*
X027336Y014283D01*
X027410Y014357D02*
X027520Y014467D01*
X027520Y014247D01*
X027557Y014357D02*
X027410Y014357D01*
X027336Y014430D02*
X027299Y014467D01*
X027226Y014467D01*
X027189Y014430D01*
X027189Y014283D01*
X027118Y015156D02*
X027154Y015193D01*
X027118Y015156D02*
X027044Y015156D01*
X027008Y015193D01*
X027008Y015340D01*
X027044Y015376D01*
X027118Y015376D01*
X027154Y015340D01*
X027229Y015340D02*
X027265Y015376D01*
X027339Y015376D01*
X027375Y015340D01*
X027375Y015303D01*
X027339Y015266D01*
X027375Y015229D01*
X027375Y015193D01*
X027339Y015156D01*
X027265Y015156D01*
X027229Y015193D01*
X027302Y015266D02*
X027339Y015266D01*
X025793Y015227D02*
X025793Y015153D01*
X025757Y015117D01*
X025683Y015117D01*
X025647Y015153D01*
X025647Y015227D02*
X025720Y015263D01*
X025757Y015263D01*
X025793Y015227D01*
X025793Y015337D02*
X025647Y015337D01*
X025647Y015227D01*
X025572Y015117D02*
X025426Y015117D01*
X025499Y015117D02*
X025499Y015337D01*
X025426Y015263D01*
X025351Y015300D02*
X025315Y015337D01*
X025241Y015337D01*
X025205Y015300D01*
X025205Y015153D01*
X025241Y015117D01*
X025315Y015117D01*
X025351Y015153D01*
X025374Y015758D02*
X025374Y015979D01*
X025264Y015869D01*
X025411Y015869D01*
X025190Y015869D02*
X025153Y015832D01*
X025043Y015832D01*
X025117Y015832D02*
X025190Y015758D01*
X025190Y015869D02*
X025190Y015942D01*
X025153Y015979D01*
X025043Y015979D01*
X025043Y015758D01*
X025452Y016246D02*
X025599Y016246D01*
X025636Y016283D01*
X025636Y016356D01*
X025599Y016393D01*
X025636Y016467D02*
X025489Y016614D01*
X025452Y016614D01*
X025416Y016577D01*
X025416Y016504D01*
X025452Y016467D01*
X025452Y016393D02*
X025416Y016356D01*
X025416Y016283D01*
X025452Y016246D01*
X025636Y016467D02*
X025636Y016614D01*
X025599Y016688D02*
X025636Y016725D01*
X025636Y016798D01*
X025599Y016835D01*
X025563Y016835D01*
X025526Y016798D01*
X025526Y016688D01*
X025599Y016688D01*
X025526Y016688D02*
X025452Y016762D01*
X025416Y016835D01*
X024617Y017519D02*
X019517Y017519D01*
X015876Y015174D02*
X010776Y015174D01*
X012744Y011180D02*
X012744Y006080D01*
X012952Y005099D02*
X012916Y005063D01*
X012916Y004916D01*
X012952Y004879D01*
X013026Y004879D01*
X013062Y004916D01*
X013137Y004879D02*
X013283Y004879D01*
X013210Y004879D02*
X013210Y005099D01*
X013137Y005026D01*
X013062Y005063D02*
X013026Y005099D01*
X012952Y005099D01*
X013358Y005063D02*
X013358Y005026D01*
X013394Y004989D01*
X013504Y004989D01*
X013504Y004916D02*
X013504Y005063D01*
X013468Y005099D01*
X013394Y005099D01*
X013358Y005063D01*
X013358Y004916D02*
X013394Y004879D01*
X013468Y004879D01*
X013504Y004916D01*
X013448Y004458D02*
X013485Y004421D01*
X013338Y004274D01*
X013375Y004237D01*
X013448Y004237D01*
X013485Y004274D01*
X013485Y004421D01*
X013448Y004458D02*
X013375Y004458D01*
X013338Y004421D01*
X013338Y004274D01*
X013264Y004237D02*
X013117Y004237D01*
X013264Y004384D01*
X013264Y004421D01*
X013227Y004458D01*
X013154Y004458D01*
X013117Y004421D01*
X013043Y004421D02*
X013006Y004458D01*
X012933Y004458D01*
X012896Y004421D01*
X012896Y004274D01*
X012933Y004237D01*
X013006Y004237D01*
X013043Y004274D01*
X011441Y003837D02*
X011441Y003787D01*
X011391Y003737D01*
X011441Y003686D01*
X011441Y003636D01*
X011391Y003586D01*
X011291Y003586D01*
X011241Y003636D01*
X011147Y003636D02*
X011147Y003887D01*
X011241Y003837D02*
X011291Y003887D01*
X011391Y003887D01*
X011441Y003837D01*
X011391Y003737D02*
X011341Y003737D01*
X011147Y003636D02*
X011097Y003586D01*
X010997Y003586D01*
X010947Y003636D01*
X010947Y003887D01*
X010296Y003897D02*
X010259Y003934D01*
X010186Y003934D01*
X010149Y003897D01*
X010075Y003897D02*
X010038Y003934D01*
X009965Y003934D01*
X009928Y003897D01*
X009854Y003897D02*
X009817Y003934D01*
X009744Y003934D01*
X009707Y003897D01*
X009707Y003750D01*
X009744Y003714D01*
X009817Y003714D01*
X009854Y003750D01*
X009928Y003714D02*
X010075Y003860D01*
X010075Y003897D01*
X010075Y003714D02*
X009928Y003714D01*
X010149Y003714D02*
X010296Y003860D01*
X010296Y003897D01*
X010296Y003714D02*
X010149Y003714D01*
X010186Y003206D02*
X010259Y003206D01*
X010296Y003169D01*
X010296Y003132D01*
X010259Y003095D01*
X010296Y003059D01*
X010296Y003022D01*
X010259Y002985D01*
X010186Y002985D01*
X010149Y003022D01*
X010075Y002985D02*
X009928Y002985D01*
X010075Y003132D01*
X010075Y003169D01*
X010038Y003206D01*
X009965Y003206D01*
X009928Y003169D01*
X009854Y003169D02*
X009817Y003206D01*
X009744Y003206D01*
X009707Y003169D01*
X009707Y003022D01*
X009744Y002985D01*
X009817Y002985D01*
X009854Y003022D01*
X010149Y003169D02*
X010186Y003206D01*
X010222Y003095D02*
X010259Y003095D01*
X011182Y003105D02*
X011402Y003105D01*
X011402Y003032D02*
X011402Y003179D01*
X011402Y003253D02*
X011366Y003253D01*
X011219Y003400D01*
X011182Y003400D01*
X011182Y003253D01*
X011182Y003105D02*
X011255Y003032D01*
X011219Y002958D02*
X011182Y002921D01*
X011182Y002847D01*
X011219Y002811D01*
X011366Y002811D01*
X011402Y002847D01*
X011402Y002921D01*
X011366Y002958D01*
X010335Y004698D02*
X010188Y004698D01*
X010262Y004698D02*
X010262Y004918D01*
X010188Y004845D01*
X010114Y004845D02*
X010114Y004881D01*
X010077Y004918D01*
X010004Y004918D01*
X009967Y004881D01*
X009893Y004881D02*
X009856Y004918D01*
X009783Y004918D01*
X009746Y004881D01*
X009746Y004735D01*
X009783Y004698D01*
X009856Y004698D01*
X009893Y004735D01*
X009967Y004698D02*
X010114Y004845D01*
X010114Y004698D02*
X009967Y004698D01*
X017986Y011869D02*
X018023Y011832D01*
X018097Y011832D01*
X018133Y011869D01*
X018207Y011832D02*
X018354Y011979D01*
X018354Y012015D01*
X018318Y012052D01*
X018244Y012052D01*
X018207Y012015D01*
X018133Y012015D02*
X018097Y012052D01*
X018023Y012052D01*
X017986Y012015D01*
X017986Y011869D01*
X018207Y011832D02*
X018354Y011832D01*
X018428Y011942D02*
X018575Y011942D01*
X018539Y012052D02*
X018428Y011942D01*
X018539Y011832D02*
X018539Y012052D01*
X019568Y013278D02*
X019641Y013278D01*
X019678Y013315D01*
X019752Y013278D02*
X019899Y013425D01*
X019899Y013462D01*
X019862Y013498D01*
X019789Y013498D01*
X019752Y013462D01*
X019678Y013462D02*
X019641Y013498D01*
X019568Y013498D01*
X019531Y013462D01*
X019531Y013315D01*
X019568Y013278D01*
X019752Y013278D02*
X019899Y013278D01*
X019973Y013315D02*
X020010Y013278D01*
X020083Y013278D01*
X020120Y013315D01*
X020120Y013352D01*
X020083Y013388D01*
X020010Y013388D01*
X019973Y013425D01*
X019973Y013462D01*
X020010Y013498D01*
X020083Y013498D01*
X020120Y013462D01*
X020120Y013425D01*
X020083Y013388D01*
X020010Y013388D02*
X019973Y013352D01*
X019973Y013315D01*
X018341Y013855D02*
X018194Y013709D01*
X018194Y013672D01*
X018120Y013672D02*
X017973Y013672D01*
X018120Y013819D01*
X018120Y013855D01*
X018083Y013892D01*
X018009Y013892D01*
X017973Y013855D01*
X017899Y013855D02*
X017862Y013892D01*
X017788Y013892D01*
X017752Y013855D01*
X017752Y013709D01*
X017788Y013672D01*
X017862Y013672D01*
X017899Y013709D01*
X018194Y013892D02*
X018341Y013892D01*
X018341Y013855D01*
X021164Y011881D02*
X021200Y011918D01*
X021274Y011918D01*
X021310Y011881D01*
X021385Y011845D02*
X021458Y011918D01*
X021458Y011698D01*
X021385Y011698D02*
X021531Y011698D01*
X021606Y011735D02*
X021642Y011698D01*
X021716Y011698D01*
X021752Y011735D01*
X021752Y011771D01*
X021716Y011808D01*
X021679Y011808D01*
X021716Y011808D02*
X021752Y011845D01*
X021752Y011881D01*
X021716Y011918D01*
X021642Y011918D01*
X021606Y011881D01*
X021310Y011735D02*
X021274Y011698D01*
X021200Y011698D01*
X021164Y011735D01*
X021164Y011881D01*
X028813Y014014D02*
X028813Y014125D01*
X028850Y014161D01*
X028924Y014161D01*
X028960Y014125D01*
X028960Y014014D01*
X029034Y014014D02*
X028813Y014014D01*
X028960Y014088D02*
X029034Y014161D01*
X029034Y014235D02*
X029034Y014382D01*
X029034Y014309D02*
X028813Y014309D01*
X028887Y014235D01*
X030437Y014649D02*
X030474Y014613D01*
X030547Y014613D01*
X030584Y014649D01*
X030658Y014649D02*
X030658Y014686D01*
X030695Y014723D01*
X030768Y014723D01*
X030805Y014686D01*
X030805Y014649D01*
X030768Y014613D01*
X030695Y014613D01*
X030658Y014649D01*
X030695Y014723D02*
X030658Y014760D01*
X030658Y014796D01*
X030695Y014833D01*
X030768Y014833D01*
X030805Y014796D01*
X030805Y014760D01*
X030768Y014723D01*
X030584Y014796D02*
X030547Y014833D01*
X030474Y014833D01*
X030437Y014796D01*
X030437Y014649D01*
X029796Y015782D02*
X029833Y015819D01*
X029833Y015892D01*
X029796Y015929D01*
X029796Y016003D02*
X029833Y016003D01*
X029796Y016003D02*
X029649Y016150D01*
X029613Y016150D01*
X029613Y016003D01*
X029649Y015929D02*
X029613Y015892D01*
X029613Y015819D01*
X029649Y015782D01*
X029796Y015782D01*
X029177Y017905D02*
X029213Y017942D01*
X029213Y018015D01*
X029177Y018052D01*
X029213Y018126D02*
X029213Y018273D01*
X029213Y018200D02*
X028993Y018200D01*
X029067Y018126D01*
X029030Y018052D02*
X028993Y018015D01*
X028993Y017942D01*
X029030Y017905D01*
X029177Y017905D01*
X029177Y018347D02*
X029030Y018494D01*
X029177Y018494D01*
X029213Y018457D01*
X029213Y018384D01*
X029177Y018347D01*
X029030Y018347D01*
X028993Y018384D01*
X028993Y018457D01*
X029030Y018494D01*
X030424Y018254D02*
X030497Y018180D01*
X030460Y018106D02*
X030424Y018069D01*
X030424Y017996D01*
X030460Y017959D01*
X030607Y017959D01*
X030644Y017996D01*
X030644Y018069D01*
X030607Y018106D01*
X030644Y018180D02*
X030644Y018327D01*
X030644Y018254D02*
X030424Y018254D01*
X031168Y018279D02*
X031168Y018205D01*
X031204Y018169D01*
X031204Y018094D02*
X031168Y018058D01*
X031168Y017984D01*
X031204Y017948D01*
X031351Y017948D01*
X031388Y017984D01*
X031388Y018058D01*
X031351Y018094D01*
X031388Y018169D02*
X031241Y018315D01*
X031204Y018315D01*
X031168Y018279D01*
X031388Y018315D02*
X031388Y018169D01*
X024820Y018171D02*
X024820Y018024D01*
X024673Y018171D01*
X024636Y018171D01*
X024599Y018134D01*
X024599Y018061D01*
X024636Y018024D01*
X024636Y017950D02*
X024599Y017913D01*
X024599Y017840D01*
X024636Y017803D01*
X024783Y017803D01*
X024820Y017840D01*
X024820Y017913D01*
X024783Y017950D01*
X024783Y018245D02*
X024820Y018282D01*
X024820Y018355D01*
X024783Y018392D01*
X024709Y018392D01*
X024673Y018355D01*
X024673Y018318D01*
X024709Y018245D01*
X024599Y018245D01*
X024599Y018392D01*
D19*
X021694Y010141D02*
X021694Y009991D01*
X021644Y009991D02*
X021744Y009991D01*
X021644Y010091D02*
X021694Y010141D01*
X021597Y010116D02*
X021597Y010091D01*
X021572Y010066D01*
X021597Y010041D01*
X021597Y010016D01*
X021572Y009991D01*
X021522Y009991D01*
X021497Y010016D01*
X021450Y010016D02*
X021425Y009991D01*
X021375Y009991D01*
X021350Y010016D01*
X021350Y010116D01*
X021375Y010141D01*
X021425Y010141D01*
X021450Y010116D01*
X021497Y010116D02*
X021522Y010141D01*
X021572Y010141D01*
X021597Y010116D01*
X021572Y010066D02*
X021547Y010066D01*
X022285Y009441D02*
X022360Y009441D01*
X022385Y009416D01*
X022385Y009315D01*
X022360Y009290D01*
X022285Y009290D01*
X022285Y009441D01*
X022432Y009416D02*
X022457Y009441D01*
X022507Y009441D01*
X022532Y009416D01*
X022532Y009391D01*
X022507Y009365D01*
X022532Y009340D01*
X022532Y009315D01*
X022507Y009290D01*
X022457Y009290D01*
X022432Y009315D01*
X022482Y009365D02*
X022507Y009365D01*
X022694Y009355D02*
X022694Y009204D01*
X022769Y009204D01*
X022794Y009229D01*
X022794Y009330D01*
X022769Y009355D01*
X022694Y009355D01*
X022841Y009280D02*
X022916Y009355D01*
X022916Y009204D01*
X022941Y009280D02*
X022841Y009280D01*
X022490Y007708D02*
X022490Y007558D01*
X022440Y007558D02*
X022540Y007558D01*
X022440Y007658D02*
X022490Y007708D01*
X022393Y007683D02*
X022368Y007708D01*
X022292Y007708D01*
X022292Y007558D01*
X022368Y007558D01*
X022393Y007583D01*
X022393Y007683D01*
X022702Y007634D02*
X022777Y007634D01*
X022802Y007609D01*
X022802Y007509D01*
X022777Y007484D01*
X022702Y007484D01*
X022702Y007634D01*
X022849Y007609D02*
X022874Y007634D01*
X022924Y007634D01*
X022949Y007609D01*
X022949Y007584D01*
X022849Y007484D01*
X022949Y007484D01*
X023548Y006600D02*
X023623Y006600D01*
X023648Y006575D01*
X023648Y006525D01*
X023623Y006500D01*
X023548Y006500D01*
X023598Y006500D02*
X023648Y006449D01*
X023695Y006475D02*
X023720Y006449D01*
X023770Y006449D01*
X023795Y006475D01*
X023795Y006575D01*
X023770Y006600D01*
X023720Y006600D01*
X023695Y006575D01*
X023695Y006550D01*
X023720Y006525D01*
X023795Y006525D01*
X023548Y006449D02*
X023548Y006600D01*
X020078Y009392D02*
X020078Y009542D01*
X020003Y009467D01*
X020103Y009467D01*
X019956Y009417D02*
X019956Y009542D01*
X019856Y009542D02*
X019856Y009417D01*
X019881Y009392D01*
X019931Y009392D01*
X019956Y009417D01*
X017545Y008125D02*
X017445Y008025D01*
X017470Y008000D01*
X017520Y008000D01*
X017545Y008025D01*
X017545Y008125D01*
X017520Y008150D01*
X017470Y008150D01*
X017445Y008125D01*
X017445Y008025D01*
X017398Y008025D02*
X017373Y008000D01*
X017323Y008000D01*
X017298Y008025D01*
X017251Y008025D02*
X017226Y008000D01*
X017176Y008000D01*
X017151Y008025D01*
X017151Y008125D01*
X017176Y008150D01*
X017226Y008150D01*
X017251Y008125D01*
X017298Y008125D02*
X017323Y008150D01*
X017373Y008150D01*
X017398Y008125D01*
X017398Y008100D01*
X017373Y008075D01*
X017398Y008050D01*
X017398Y008025D01*
X017373Y008075D02*
X017348Y008075D01*
D20*
X017496Y007732D02*
X017496Y007708D01*
X021437Y010409D02*
X021437Y010433D01*
M02*
