%
M48
M72
T01C0.0118
T02C0.0120
T03C0.0276
T04C0.0300
T05C0.0354
T06C0.0394
T07C0.0440
T08C0.0591
T09C0.0600
T10C0.0850
%
T01
X12401Y5874
X14606Y5322
X14606Y4240
X15216Y3334
X12756Y3748
X14291Y7724
X14153Y8885
X14606Y9279
X14842Y10401
X15216Y10696
X16693Y11641
X15905Y12527
X16594Y13019
X17323Y13807
X16319Y14417
X17400Y14947
X18326Y14633
X19271Y14948
X18366Y15204
X20610Y17389
X22716Y17389
X25551Y18256
X29724Y15106
X25571Y11228
X25728Y9515
X24626Y7763
X20590Y6779
X16909Y9535
X17047Y10086
X15216Y11878
X18641Y12881
T02
X19063Y12046
X20183Y10926
X19783Y9806
X18743Y9166
X17383Y10126
X16663Y10126
X17063Y9166
X16823Y8206
X16823Y7566
X16823Y7166
X16823Y6766
X18183Y7726
X18903Y7646
X19863Y6286
X21143Y9166
X25143Y10846
X26983Y12366
X27623Y11886
X26583Y13726
X26183Y14286
X26503Y15246
X26983Y15326
X26103Y16126
X24583Y16686
X24263Y17166
X25463Y18686
X26183Y19086
X26903Y18686
X26903Y17806
X22983Y19086
X20903Y19006
X17383Y19326
X13223Y15886
X12583Y15639
X11863Y15966
X10503Y16148
X10183Y16606
X11543Y17326
X14583Y15726
X14023Y15166
X13623Y15166
X15143Y13886
X15143Y13246
X13303Y11246
X14023Y10606
X12983Y9006
X12983Y8366
X13143Y7406
X13543Y7406
X13863Y6846
X12743Y5726
X12423Y4206
X11463Y9806
X11143Y10606
X22183Y12606
X24743Y14046
X24823Y14526
X24583Y14846
X30023Y14286
T03
X20854Y4815
X21385Y4515
X21378Y3527
X26799Y4027
X27378Y4527
X27370Y3515
T04
X33763Y15126
T05
X26043Y5944
X23043Y5944
T06
X9763Y876
X10763Y876
X11763Y876
X12763Y876
X13763Y876
X14763Y876
X15763Y876
X16763Y876
X17763Y876
X18763Y876
X19763Y876
X20763Y876
X21763Y876
X22763Y876
X23763Y876
X24763Y876
X25763Y876
X26763Y876
X27763Y876
X28763Y876
X29763Y876
X30763Y876
X31763Y876
X31763Y1876
X30763Y1876
X29763Y1876
X28763Y1876
X27763Y1876
X26763Y1876
X25763Y1876
X24763Y1876
X23763Y1876
X22763Y1876
X21763Y1876
X20763Y1876
X19763Y1876
X18763Y1876
X17763Y1876
X16763Y1876
X15763Y1876
X14763Y1876
X13763Y1876
X12763Y1876
X11763Y1876
X10763Y1876
X9763Y1876
X9763Y19876
X10763Y19876
X11763Y19876
X12763Y19876
X13763Y19876
X14763Y19876
X15763Y19876
X16763Y19876
X17763Y19876
X18763Y19876
X19763Y19876
X20763Y19876
X21763Y19876
X22763Y19876
X23763Y19876
X24763Y19876
X25763Y19876
X26763Y19876
X27763Y19876
X28763Y19876
X29763Y19876
X30763Y19876
X31763Y19876
X31763Y20876
X30763Y20876
X29763Y20876
X28763Y20876
X27763Y20876
X26763Y20876
X25763Y20876
X24763Y20876
X23763Y20876
X22763Y20876
X21763Y20876
X20763Y20876
X19763Y20876
X18763Y20876
X17763Y20876
X16763Y20876
X15763Y20876
X14763Y20876
X13763Y20876
X12763Y20876
X11763Y20876
X10763Y20876
X9763Y20876
T07
X17787Y3850
X18787Y3850
T08
X24378Y4027
T09
X33763Y13451
X33763Y16801
T10
X32523Y16801
X32523Y13451
M30
