G75*
%MOIN*%
%OFA0B0*%
%FSLAX24Y24*%
%IPPOS*%
%LPD*%
%AMOC8*
5,1,8,0,0,1.08239X$1,22.5*
%
%ADD10C,0.0680*%
%ADD11C,0.1080*%
%ADD12C,0.1330*%
%ADD13C,0.0820*%
%ADD14R,0.0674X0.0674*%
%ADD15C,0.0674*%
%ADD16C,0.0820*%
%ADD17C,0.0556*%
%ADD18C,0.0671*%
%ADD19C,0.0356*%
%ADD20C,0.0360*%
%ADD21C,0.0358*%
D10*
X033763Y015126D03*
D11*
X033763Y013451D03*
X033763Y016801D03*
D12*
X032523Y016801D03*
X032523Y013451D03*
D13*
X018787Y004220D02*
X018787Y003480D01*
X017787Y003480D02*
X017787Y004220D01*
D14*
X009763Y000876D03*
X009763Y019876D03*
D15*
X010763Y019876D03*
X011763Y019876D03*
X012763Y019876D03*
X013763Y019876D03*
X014763Y019876D03*
X015763Y019876D03*
X016763Y019876D03*
X017763Y019876D03*
X018763Y019876D03*
X019763Y019876D03*
X020763Y019876D03*
X021763Y019876D03*
X022763Y019876D03*
X023763Y019876D03*
X024763Y019876D03*
X025763Y019876D03*
X026763Y019876D03*
X027763Y019876D03*
X028763Y019876D03*
X029763Y019876D03*
X030763Y019876D03*
X031763Y019876D03*
X031763Y020876D03*
X030763Y020876D03*
X029763Y020876D03*
X028763Y020876D03*
X027763Y020876D03*
X026763Y020876D03*
X025763Y020876D03*
X024763Y020876D03*
X023763Y020876D03*
X022763Y020876D03*
X021763Y020876D03*
X020763Y020876D03*
X019763Y020876D03*
X018763Y020876D03*
X017763Y020876D03*
X016763Y020876D03*
X015763Y020876D03*
X014763Y020876D03*
X013763Y020876D03*
X012763Y020876D03*
X011763Y020876D03*
X010763Y020876D03*
X009763Y020876D03*
X009763Y001876D03*
X010763Y001876D03*
X011763Y001876D03*
X012763Y001876D03*
X013763Y001876D03*
X014763Y001876D03*
X015763Y001876D03*
X016763Y001876D03*
X017763Y001876D03*
X018763Y001876D03*
X019763Y001876D03*
X020763Y001876D03*
X021763Y001876D03*
X022763Y001876D03*
X023763Y001876D03*
X024763Y001876D03*
X025763Y001876D03*
X026763Y001876D03*
X027763Y001876D03*
X028763Y001876D03*
X029763Y001876D03*
X030763Y001876D03*
X031763Y001876D03*
X031763Y000876D03*
X030763Y000876D03*
X029763Y000876D03*
X028763Y000876D03*
X027763Y000876D03*
X026763Y000876D03*
X025763Y000876D03*
X024763Y000876D03*
X023763Y000876D03*
X022763Y000876D03*
X021763Y000876D03*
X020763Y000876D03*
X019763Y000876D03*
X018763Y000876D03*
X017763Y000876D03*
X016763Y000876D03*
X015763Y000876D03*
X014763Y000876D03*
X013763Y000876D03*
X012763Y000876D03*
X011763Y000876D03*
X010763Y000876D03*
D16*
X023043Y005944D03*
X026043Y005944D03*
D17*
X027378Y004527D03*
X026799Y004027D03*
X027370Y003515D03*
X021378Y003527D03*
X021385Y004515D03*
D18*
X024378Y004027D03*
D19*
X020854Y004815D03*
D20*
X019863Y006286D03*
X018903Y007646D03*
X018183Y007726D03*
X016823Y007566D03*
X016823Y007166D03*
X016823Y006766D03*
X016823Y008206D03*
X017063Y009166D03*
X017383Y010126D03*
X016663Y010126D03*
X018743Y009166D03*
X019783Y009806D03*
X021143Y009166D03*
X020183Y010926D03*
X019063Y012046D03*
X022183Y012606D03*
X024743Y014046D03*
X024823Y014526D03*
X024583Y014846D03*
X026183Y014286D03*
X026583Y013726D03*
X026983Y012366D03*
X027623Y011886D03*
X025143Y010846D03*
X030023Y014286D03*
X026983Y015326D03*
X026503Y015246D03*
X026103Y016126D03*
X024583Y016686D03*
X024263Y017166D03*
X025463Y018686D03*
X026183Y019086D03*
X026903Y018686D03*
X026903Y017806D03*
X022983Y019086D03*
X020903Y019006D03*
X017383Y019326D03*
X013223Y015886D03*
X012583Y015639D03*
X011863Y015966D03*
X010503Y016148D03*
X010183Y016606D03*
X011543Y017326D03*
X014583Y015726D03*
X014023Y015166D03*
X013623Y015166D03*
X015143Y013886D03*
X015143Y013246D03*
X013303Y011246D03*
X014023Y010606D03*
X012983Y009006D03*
X012983Y008366D03*
X013143Y007406D03*
X013543Y007406D03*
X013863Y006846D03*
X012743Y005726D03*
X012423Y004206D03*
X011463Y009806D03*
X011143Y010606D03*
D21*
X014153Y008885D03*
X014606Y009279D03*
X014842Y010401D03*
X015216Y010696D03*
X016693Y011641D03*
X015905Y012527D03*
X016594Y013019D03*
X017323Y013807D03*
X016319Y014417D03*
X017400Y014947D03*
X018326Y014633D03*
X019271Y014948D03*
X018366Y015204D03*
X020610Y017389D03*
X022716Y017389D03*
X025551Y018256D03*
X029724Y015106D03*
X025571Y011228D03*
X025728Y009515D03*
X024626Y007763D03*
X020590Y006779D03*
X016909Y009535D03*
X017047Y010086D03*
X015216Y011878D03*
X018641Y012881D03*
X014291Y007724D03*
X012401Y005874D03*
X014606Y005322D03*
X014606Y004240D03*
X015216Y003334D03*
X012756Y003748D03*
M02*
