G04 Layer_Color=8421504*
%FSLAX23Y23*%
%MOIN*%
G70*
G01*
G75*
%ADD11R,0.059X0.059*%
%ADD12R,0.037X0.039*%
%ADD13R,0.045X0.057*%
%ADD14R,0.045X0.071*%
%ADD15R,0.039X0.037*%
%ADD16R,0.039X0.035*%
%ADD17R,0.057X0.045*%
%ADD18R,0.059X0.059*%
%ADD19R,0.035X0.039*%
%ADD20R,0.018X0.059*%
%ADD21R,0.018X0.035*%
%ADD22O,0.018X0.057*%
%ADD23R,0.023X0.024*%
%ADD24R,0.073X0.018*%
%ADD25R,0.089X0.071*%
%ADD26R,0.043X0.022*%
%ADD27R,0.061X0.022*%
%ADD28R,0.051X0.051*%
%ADD29R,0.063X0.035*%
%ADD30R,0.043X0.024*%
%ADD31R,0.193X0.063*%
%ADD32R,0.093X0.028*%
%ADD33R,0.067X0.106*%
%ADD34R,0.035X0.051*%
%ADD35R,0.035X0.075*%
%ADD36R,0.061X0.087*%
%ADD37R,0.059X0.213*%
%ADD38R,0.013X0.013*%
%ADD39R,0.024X0.061*%
%ADD40R,0.100X0.065*%
%ADD41R,0.069X0.069*%
%ADD42O,0.031X0.012*%
%ADD43O,0.012X0.031*%
%ADD44R,0.071X0.045*%
%ADD45R,0.031X0.031*%
D11*
X2320Y-633D02*
D03*
Y-711D02*
D03*
X1568Y692D02*
D03*
Y770D02*
D03*
X2832Y1073D02*
D03*
Y995D02*
D03*
D12*
X1141Y1581D02*
D03*
X1203D02*
D03*
X1419Y1272D02*
D03*
X1481D02*
D03*
X2070Y683D02*
D03*
X2132D02*
D03*
X2073Y540D02*
D03*
X2135D02*
D03*
X2073Y473D02*
D03*
X2135D02*
D03*
X2070Y336D02*
D03*
X2132D02*
D03*
X2440Y1820D02*
D03*
X2378D02*
D03*
X2881Y1817D02*
D03*
X2819D02*
D03*
X2321Y1410D02*
D03*
X2383D02*
D03*
X2321Y1474D02*
D03*
X2383D02*
D03*
X2686Y1332D02*
D03*
X2748D02*
D03*
X2186Y1412D02*
D03*
X2249D02*
D03*
X2186Y1475D02*
D03*
X2249D02*
D03*
X2093Y1410D02*
D03*
X2030D02*
D03*
X1898Y1314D02*
D03*
X1961D02*
D03*
X802Y1763D02*
D03*
X740D02*
D03*
X802Y1649D02*
D03*
X740D02*
D03*
X3146Y780D02*
D03*
X3209D02*
D03*
X3159Y361D02*
D03*
X3221D02*
D03*
X2999Y439D02*
D03*
X2937D02*
D03*
X1607Y546D02*
D03*
X1545D02*
D03*
X1607Y464D02*
D03*
X1545D02*
D03*
X994Y1343D02*
D03*
X932D02*
D03*
X994Y1278D02*
D03*
X932D02*
D03*
X994Y1213D02*
D03*
X932D02*
D03*
X994Y1148D02*
D03*
X932D02*
D03*
X2054Y1676D02*
D03*
X1991D02*
D03*
D13*
X1852Y1004D02*
D03*
X1923D02*
D03*
X1663Y1249D02*
D03*
X1593D02*
D03*
X2820Y1332D02*
D03*
X2890D02*
D03*
D14*
X2875Y548D02*
D03*
X2989D02*
D03*
D15*
X1311Y1327D02*
D03*
Y1389D02*
D03*
X2294Y762D02*
D03*
Y825D02*
D03*
X2209Y762D02*
D03*
Y825D02*
D03*
X1811Y689D02*
D03*
Y751D02*
D03*
X2074Y942D02*
D03*
Y1005D02*
D03*
X2010D02*
D03*
Y942D02*
D03*
X2445Y1474D02*
D03*
Y1411D02*
D03*
X2503Y1201D02*
D03*
Y1263D02*
D03*
X2566Y1200D02*
D03*
Y1138D02*
D03*
X2037Y1251D02*
D03*
Y1188D02*
D03*
X1975D02*
D03*
Y1251D02*
D03*
X1318Y1693D02*
D03*
Y1756D02*
D03*
X1239Y1648D02*
D03*
Y1711D02*
D03*
X1031Y1699D02*
D03*
Y1636D02*
D03*
X454Y1704D02*
D03*
Y1642D02*
D03*
X1172Y1081D02*
D03*
Y1019D02*
D03*
X1251Y1083D02*
D03*
Y1020D02*
D03*
X1089Y1083D02*
D03*
Y1020D02*
D03*
X3333Y552D02*
D03*
Y489D02*
D03*
X1874Y751D02*
D03*
Y689D02*
D03*
X1749Y751D02*
D03*
Y689D02*
D03*
X1266Y1456D02*
D03*
Y1518D02*
D03*
X2946Y-215D02*
D03*
Y-152D02*
D03*
D16*
X1190Y1455D02*
D03*
Y1393D02*
D03*
X2006Y685D02*
D03*
Y623D02*
D03*
X2005Y335D02*
D03*
Y397D02*
D03*
X2210Y634D02*
D03*
Y697D02*
D03*
X2294Y634D02*
D03*
Y697D02*
D03*
X2365Y964D02*
D03*
Y901D02*
D03*
X2138Y964D02*
D03*
Y901D02*
D03*
X2882Y1727D02*
D03*
Y1665D02*
D03*
D17*
X1418Y1201D02*
D03*
Y1131D02*
D03*
X2294Y897D02*
D03*
Y968D02*
D03*
X2210Y897D02*
D03*
Y968D02*
D03*
X2359Y1566D02*
D03*
Y1637D02*
D03*
X2320Y-485D02*
D03*
Y-415D02*
D03*
X1673Y759D02*
D03*
Y689D02*
D03*
D18*
X1609Y321D02*
D03*
X1687D02*
D03*
X2047Y791D02*
D03*
X2126D02*
D03*
X2375Y788D02*
D03*
X2453D02*
D03*
X2198Y1589D02*
D03*
X2276D02*
D03*
X1029Y1434D02*
D03*
X1107D02*
D03*
X1561Y1076D02*
D03*
X1639D02*
D03*
X1167Y717D02*
D03*
X1245D02*
D03*
D19*
X2221Y556D02*
D03*
X2283D02*
D03*
X2529Y1343D02*
D03*
X2466D02*
D03*
X1812Y1517D02*
D03*
X1875D02*
D03*
Y1578D02*
D03*
X1812D02*
D03*
X187Y1814D02*
D03*
X124D02*
D03*
X187Y1883D02*
D03*
X124D02*
D03*
X187Y1951D02*
D03*
X124D02*
D03*
X2961Y-750D02*
D03*
X2898D02*
D03*
X2540Y1033D02*
D03*
X2602D02*
D03*
X2540Y967D02*
D03*
X2602D02*
D03*
X1608Y610D02*
D03*
X1670D02*
D03*
X1608Y400D02*
D03*
X1670D02*
D03*
X1170Y801D02*
D03*
X1108D02*
D03*
X187Y2019D02*
D03*
X124D02*
D03*
D20*
X2511Y1844D02*
D03*
X2537D02*
D03*
X2562D02*
D03*
X2588D02*
D03*
X2613D02*
D03*
X2639D02*
D03*
X2665D02*
D03*
X2690D02*
D03*
X2716D02*
D03*
X2741D02*
D03*
Y1616D02*
D03*
X2716D02*
D03*
X2690D02*
D03*
X2665D02*
D03*
X2639D02*
D03*
X2613D02*
D03*
X2588D02*
D03*
X2562D02*
D03*
X2537D02*
D03*
X2511D02*
D03*
X2950Y1842D02*
D03*
X2975D02*
D03*
X3001D02*
D03*
X3027D02*
D03*
X3052D02*
D03*
X3078D02*
D03*
X3103D02*
D03*
X3129D02*
D03*
X3155D02*
D03*
X3180D02*
D03*
Y1614D02*
D03*
X3155D02*
D03*
X3129D02*
D03*
X3103D02*
D03*
X3078D02*
D03*
X3052D02*
D03*
X3027D02*
D03*
X3001D02*
D03*
X2975D02*
D03*
X2950D02*
D03*
D21*
X2884Y1256D02*
D03*
X2910Y1174D02*
D03*
X2858D02*
D03*
D22*
X2365Y1334D02*
D03*
X2340D02*
D03*
X2315D02*
D03*
X2290D02*
D03*
X2265D02*
D03*
X2239D02*
D03*
X2214D02*
D03*
X2189D02*
D03*
X2164D02*
D03*
X2139D02*
D03*
X2365Y1120D02*
D03*
X2340D02*
D03*
X2315D02*
D03*
X2290D02*
D03*
X2265D02*
D03*
X2239D02*
D03*
X2214D02*
D03*
X2189D02*
D03*
X2164D02*
D03*
X2139D02*
D03*
D23*
X1962Y1365D02*
D03*
X1925D02*
D03*
D24*
X1408Y1346D02*
D03*
Y1372D02*
D03*
Y1397D02*
D03*
Y1423D02*
D03*
Y1448D02*
D03*
Y1474D02*
D03*
Y1500D02*
D03*
Y1525D02*
D03*
Y1551D02*
D03*
Y1576D02*
D03*
Y1602D02*
D03*
Y1628D02*
D03*
Y1653D02*
D03*
Y1679D02*
D03*
X1684D02*
D03*
Y1653D02*
D03*
Y1628D02*
D03*
Y1602D02*
D03*
Y1576D02*
D03*
Y1551D02*
D03*
Y1525D02*
D03*
Y1500D02*
D03*
Y1474D02*
D03*
Y1448D02*
D03*
Y1423D02*
D03*
Y1397D02*
D03*
Y1372D02*
D03*
Y1346D02*
D03*
D25*
X1135Y1778D02*
D03*
Y1664D02*
D03*
X928Y1762D02*
D03*
Y1648D02*
D03*
X668Y-420D02*
D03*
Y-534D02*
D03*
D26*
X623Y1673D02*
D03*
Y1636D02*
D03*
Y1598D02*
D03*
X517D02*
D03*
Y1636D02*
D03*
Y1673D02*
D03*
X2064Y1541D02*
D03*
Y1578D02*
D03*
Y1616D02*
D03*
X1958D02*
D03*
Y1578D02*
D03*
Y1541D02*
D03*
D27*
X601Y1990D02*
D03*
Y1940D02*
D03*
Y1890D02*
D03*
Y1840D02*
D03*
X301D02*
D03*
Y1890D02*
D03*
Y1940D02*
D03*
Y1990D02*
D03*
D28*
X2460Y-475D02*
D03*
D29*
X2556Y-420D02*
D03*
Y-530D02*
D03*
D30*
X2764Y-152D02*
D03*
Y-189D02*
D03*
Y-227D02*
D03*
X2866D02*
D03*
Y-152D02*
D03*
D31*
X3280Y1159D02*
D03*
Y1493D02*
D03*
D32*
X3342Y1326D02*
D03*
D33*
X3043Y1230D02*
D03*
D34*
X2984Y1332D02*
D03*
X3102D02*
D03*
D35*
X3043Y1321D02*
D03*
D36*
X2944Y912D02*
D03*
Y1073D02*
D03*
X3104Y1073D02*
D03*
Y912D02*
D03*
D37*
X2787Y725D02*
D03*
X2991D02*
D03*
D38*
X3209Y455D02*
D03*
X3111Y436D02*
D03*
X3091D02*
D03*
X3130D02*
D03*
X3170D02*
D03*
X3189D02*
D03*
X3209D02*
D03*
X3229D02*
D03*
X3071D02*
D03*
X3091Y455D02*
D03*
X3170Y534D02*
D03*
X3111D02*
D03*
X3170Y554D02*
D03*
X3229Y691D02*
D03*
X3209D02*
D03*
X3189D02*
D03*
X3170D02*
D03*
X3150D02*
D03*
X3130D02*
D03*
X3111D02*
D03*
X3091D02*
D03*
X3071D02*
D03*
D39*
X1924Y611D02*
D03*
X1874D02*
D03*
X1824D02*
D03*
X1774D02*
D03*
X1924Y399D02*
D03*
X1874D02*
D03*
X1824D02*
D03*
X1774D02*
D03*
D40*
X1431Y406D02*
D03*
Y506D02*
D03*
Y606D02*
D03*
X956D02*
D03*
Y506D02*
D03*
Y406D02*
D03*
D41*
X1180Y1256D02*
D03*
D42*
X1121Y1226D02*
D03*
Y1246D02*
D03*
Y1266D02*
D03*
Y1285D02*
D03*
X1239D02*
D03*
Y1266D02*
D03*
Y1246D02*
D03*
Y1226D02*
D03*
D43*
X1150Y1315D02*
D03*
X1170D02*
D03*
X1190D02*
D03*
X1210D02*
D03*
Y1197D02*
D03*
X1190D02*
D03*
X1170D02*
D03*
X1150D02*
D03*
D44*
X832Y-536D02*
D03*
Y-418D02*
D03*
D45*
X3088Y-750D02*
D03*
X3025D02*
D03*
M02*
