G04 Layer_Color=65535*
%FSLAX23Y23*%
%MOIN*%
G70*
G01*
G75*
%ADD30C,0.010*%
%ADD52C,0.012*%
%ADD53C,0.010*%
%ADD54C,0.008*%
%ADD55C,0.007*%
%ADD56C,0.006*%
%ADD57C,0.004*%
%ADD58C,0.005*%
D30*
X1001Y1791D02*
X1020Y1811D01*
Y1791D02*
Y2086D01*
X804Y1791D02*
X1020D01*
X804D02*
Y2086D01*
X1020D01*
X555Y3008D02*
X572D01*
X563D01*
Y3058D01*
X555Y3050D01*
X597Y3008D02*
Y3016D01*
X605D01*
Y3008D01*
X597D01*
X638Y3050D02*
X647Y3058D01*
X663D01*
X672Y3050D01*
Y3016D01*
X663Y3008D01*
X647D01*
X638Y3016D01*
Y3050D01*
X357Y3154D02*
Y3204D01*
X374Y3187D01*
X390Y3204D01*
Y3154D01*
X407Y3187D02*
Y3162D01*
X415Y3154D01*
X440D01*
Y3187D01*
X457D02*
Y3154D01*
Y3171D01*
X465Y3179D01*
X474Y3187D01*
X482D01*
X524Y3137D02*
X532D01*
X540Y3146D01*
Y3187D01*
X515D01*
X507Y3179D01*
Y3162D01*
X515Y3154D01*
X540D01*
X582D02*
X565D01*
X557Y3162D01*
Y3179D01*
X565Y3187D01*
X582D01*
X590Y3179D01*
Y3171D01*
X557D01*
X607Y3154D02*
Y3187D01*
X632D01*
X640Y3179D01*
Y3154D01*
X707D02*
Y3204D01*
X724Y3187D01*
X740Y3204D01*
Y3154D01*
X757D02*
X774D01*
X765D01*
Y3187D01*
X757D01*
X799Y3154D02*
Y3187D01*
X824D01*
X832Y3179D01*
Y3154D01*
X849D02*
X865D01*
X857D01*
Y3187D01*
X849D01*
D52*
X426Y144D02*
G03*
X426Y144I-6J0D01*
G01*
X364Y2784D02*
G03*
X364Y2784I-6J0D01*
G01*
X236Y2324D02*
G03*
X236Y2324I-6J0D01*
G01*
Y1801D02*
G03*
X236Y1801I-6J0D01*
G01*
D53*
X923Y2497D02*
G03*
X923Y2497I-5J0D01*
G01*
X659Y2238D02*
G03*
X659Y2238I-5J0D01*
G01*
X902Y2774D02*
G03*
X902Y2774I-5J0D01*
G01*
X596Y2602D02*
G03*
X596Y2602I-5J0D01*
G01*
X378Y547D02*
G03*
X378Y547I-5J0D01*
G01*
D54*
X809Y449D02*
G03*
X796Y411I-18J-15D01*
G01*
X806Y449D02*
G03*
X796Y413I-16J-15D01*
G01*
X490Y43D02*
X510Y24D01*
X570D01*
X590Y43D01*
Y104D01*
X570Y124D02*
X590Y104D01*
X510Y124D02*
X570D01*
X490Y104D02*
X510Y124D01*
X390Y43D02*
Y104D01*
Y43D02*
X410Y24D01*
X470D01*
X490Y43D01*
Y104D01*
X470Y124D02*
X490Y104D01*
X410Y124D02*
X470D01*
X390Y104D02*
X410Y124D01*
X238Y2694D02*
X258Y2714D01*
X238Y2634D02*
Y2694D01*
Y2634D02*
X258Y2614D01*
X318D01*
X338Y2634D01*
Y2694D01*
X318Y2714D02*
X338Y2694D01*
X258Y2814D02*
X318D01*
X238Y2794D02*
X258Y2814D01*
X238Y2734D02*
Y2794D01*
Y2734D02*
X258Y2714D01*
X318D01*
X338Y2734D01*
Y2794D01*
X318Y2814D02*
X338Y2794D01*
X110Y2234D02*
X129Y2254D01*
X110Y2173D02*
Y2234D01*
Y2173D02*
X129Y2154D01*
X190D01*
X210Y2173D01*
Y2234D01*
X190Y2254D02*
X210Y2234D01*
X129Y2354D02*
X190D01*
X110Y2334D02*
X129Y2354D01*
X110Y2273D02*
Y2334D01*
Y2273D02*
X129Y2254D01*
X190D01*
X210Y2273D01*
Y2334D01*
X190Y2354D02*
X210Y2334D01*
X110Y1711D02*
X129Y1731D01*
X110Y1651D02*
Y1711D01*
Y1651D02*
X129Y1631D01*
X190D01*
X210Y1651D01*
Y1711D01*
X190Y1731D02*
X210Y1711D01*
X129Y1831D02*
X190D01*
X110Y1811D02*
X129Y1831D01*
X110Y1751D02*
Y1811D01*
Y1751D02*
X129Y1731D01*
X190D01*
X210Y1751D01*
Y1811D01*
X190Y1831D02*
X210Y1811D01*
X312Y294D02*
X390D01*
X667Y-68D02*
Y294D01*
X312Y-68D02*
X667D01*
X312D02*
Y294D01*
Y74D02*
X667D01*
X312Y58D02*
X667D01*
X481Y-38D02*
X497D01*
X489Y-68D02*
X497Y-38D01*
X481D02*
X489Y-68D01*
X439Y294D02*
X540D01*
X589D02*
X667D01*
X795Y203D02*
X849D01*
X592Y2198D02*
X710D01*
X592Y2001D02*
X710D01*
X809Y2263D02*
X820D01*
X809Y2472D02*
X820D01*
X912Y2263D02*
X923D01*
X912Y2472D02*
X923D01*
X809Y2263D02*
Y2472D01*
X923Y2263D02*
Y2472D01*
X752Y2472D02*
X763D01*
X752Y2263D02*
X763D01*
X649Y2472D02*
X660D01*
X649Y2263D02*
X660D01*
X763D02*
Y2472D01*
X649Y2263D02*
Y2472D01*
X894Y2642D02*
Y2740D01*
X716Y2642D02*
Y2740D01*
X850Y2642D02*
X894D01*
X716D02*
X760D01*
X1459Y2575D02*
Y2949D01*
X1394Y2575D02*
Y2717D01*
X1572Y2666D02*
X1587Y2657D01*
Y2655D02*
X1595Y2640D01*
X1601D01*
X1609Y2655D01*
X1617Y2640D01*
X1623D01*
X1631Y2655D01*
X1639Y2640D01*
X1645D01*
X1653Y2655D01*
X1661Y2640D01*
X1667D01*
X1675Y2655D01*
X1683Y2640D01*
X1689D01*
X1697Y2655D01*
X1705Y2640D01*
X1711D01*
X1719Y2655D01*
X1728Y2640D01*
X1733D01*
X1741Y2655D01*
Y2867D01*
X1733Y2884D02*
X1741Y2867D01*
X1728Y2884D02*
X1733D01*
X1719Y2869D02*
X1728Y2884D01*
X1711D02*
X1719Y2869D01*
X1705Y2884D02*
X1711D01*
X1697Y2869D02*
X1705Y2884D01*
X1689D02*
X1697Y2869D01*
X1683Y2884D02*
X1689D01*
X1675Y2869D02*
X1683Y2884D01*
X1667D02*
X1675Y2869D01*
X1661Y2884D02*
X1667D01*
X1653Y2869D02*
X1661Y2884D01*
X1645D02*
X1653Y2869D01*
X1639Y2884D02*
X1645D01*
X1631Y2869D02*
X1639Y2884D01*
X1623D02*
X1631Y2869D01*
X1617Y2884D02*
X1623D01*
X1609Y2869D02*
X1617Y2884D01*
X1601D02*
X1609Y2869D01*
X1595Y2884D02*
X1601D01*
X1587Y2869D02*
X1595Y2884D01*
X1587Y2655D02*
Y2869D01*
X1572Y2859D02*
X1587Y2867D01*
X1572Y2666D02*
Y2859D01*
X1459Y2666D02*
X1572D01*
X1741Y2657D02*
X1769D01*
Y2867D01*
X1741D02*
X1769D01*
X1459Y2859D02*
X1572D01*
X1595Y2640D02*
X1617Y2884D01*
X1601Y2640D02*
X1623Y2884D01*
X1609Y2655D02*
X1631Y2869D01*
X1587Y2655D02*
X1609Y2869D01*
X1587Y2657D02*
X1595Y2884D01*
X1587Y2655D02*
X1601Y2884D01*
X1617Y2640D02*
X1639Y2884D01*
X1623Y2640D02*
X1645Y2884D01*
X1631Y2655D02*
X1653Y2869D01*
X1639Y2640D02*
X1661Y2884D01*
X1645Y2640D02*
X1667Y2884D01*
X1653Y2655D02*
X1675Y2869D01*
X1661Y2640D02*
X1683Y2884D01*
X1667Y2640D02*
X1689Y2884D01*
X1675Y2655D02*
X1697Y2869D01*
X1683Y2640D02*
X1705Y2884D01*
X1689Y2640D02*
X1711Y2884D01*
X1697Y2655D02*
X1719Y2869D01*
X1705Y2640D02*
X1728Y2884D01*
X1711Y2640D02*
X1733Y2884D01*
X1719Y2655D02*
X1741Y2867D01*
X1728Y2640D02*
X1741Y2867D01*
X1733Y2640D02*
X1741Y2867D01*
X1394Y2575D02*
X1459D01*
X1394Y2949D02*
X1459D01*
X1394Y2807D02*
Y2949D01*
X756Y399D02*
X796D01*
X781Y453D02*
X796Y439D01*
X771Y443D02*
X796Y418D01*
X807Y525D02*
X859D01*
X756Y399D02*
Y463D01*
X870Y399D02*
X910D01*
Y463D01*
X1231Y1459D02*
Y1505D01*
X1332Y588D02*
Y1414D01*
X73D02*
X1332D01*
X73Y588D02*
Y1414D01*
Y588D02*
X1332D01*
X617Y2745D02*
Y2792D01*
X567Y2409D02*
X621D01*
X685Y2640D02*
Y2662D01*
X607D02*
X685D01*
X607Y2640D02*
Y2662D01*
Y2640D02*
X685D01*
X674Y1888D02*
X714D01*
X674Y1958D02*
X714D01*
X501Y425D02*
Y469D01*
X438Y425D02*
Y469D01*
X371Y380D02*
Y526D01*
X253Y380D02*
Y526D01*
X11Y2581D02*
Y2723D01*
X-54Y2581D02*
X11D01*
X-54Y2955D02*
X11D01*
X-336Y2663D02*
X-328Y2890D01*
X-336Y2663D02*
X-323Y2890D01*
X-336Y2663D02*
X-314Y2875D01*
X-328Y2646D02*
X-306Y2890D01*
X-323Y2646D02*
X-300Y2890D01*
X-314Y2661D02*
X-292Y2875D01*
X-306Y2646D02*
X-284Y2890D01*
X-300Y2646D02*
X-278Y2890D01*
X-292Y2661D02*
X-270Y2875D01*
X-284Y2646D02*
X-262Y2890D01*
X-278Y2646D02*
X-256Y2890D01*
X-270Y2661D02*
X-248Y2875D01*
X-262Y2646D02*
X-240Y2890D01*
X-256Y2646D02*
X-234Y2890D01*
X-248Y2661D02*
X-226Y2875D01*
X-240Y2646D02*
X-218Y2890D01*
X-234Y2646D02*
X-212Y2890D01*
X-196Y2646D02*
X-182Y2875D01*
X-190Y2646D02*
X-182Y2873D01*
X-204Y2661D02*
X-182Y2875D01*
X-226Y2661D02*
X-204Y2875D01*
X-218Y2646D02*
X-196Y2890D01*
X-212Y2646D02*
X-190Y2890D01*
X-167Y2671D02*
X-54D01*
X-364Y2663D02*
X-336D01*
X-364D02*
Y2873D01*
X-336D01*
X-167Y2864D02*
X-54D01*
X-167Y2671D02*
Y2864D01*
X-182Y2663D02*
X-167Y2671D01*
X-182Y2661D02*
Y2875D01*
X-190Y2646D02*
X-182Y2661D01*
X-196Y2646D02*
X-190D01*
X-204Y2661D02*
X-196Y2646D01*
X-212D02*
X-204Y2661D01*
X-218Y2646D02*
X-212D01*
X-226Y2661D02*
X-218Y2646D01*
X-234D02*
X-226Y2661D01*
X-240Y2646D02*
X-234D01*
X-248Y2661D02*
X-240Y2646D01*
X-256D02*
X-248Y2661D01*
X-262Y2646D02*
X-256D01*
X-270Y2661D02*
X-262Y2646D01*
X-278D02*
X-270Y2661D01*
X-284Y2646D02*
X-278D01*
X-292Y2661D02*
X-284Y2646D01*
X-300D02*
X-292Y2661D01*
X-306Y2646D02*
X-300D01*
X-314Y2661D02*
X-306Y2646D01*
X-323D02*
X-314Y2661D01*
X-328Y2646D02*
X-323D01*
X-336Y2663D02*
X-328Y2646D01*
X-336Y2663D02*
Y2875D01*
X-328Y2890D01*
X-323D01*
X-314Y2875D01*
X-306Y2890D01*
X-300D01*
X-292Y2875D01*
X-284Y2890D01*
X-278D01*
X-270Y2875D01*
X-262Y2890D01*
X-256D01*
X-248Y2875D01*
X-240Y2890D01*
X-234D01*
X-226Y2875D01*
X-218Y2890D01*
X-212D01*
X-204Y2875D01*
X-196Y2890D01*
X-190D01*
X-182Y2875D01*
Y2873D02*
X-167Y2864D01*
X11Y2813D02*
Y2955D01*
X-54Y2581D02*
Y2955D01*
X11Y2067D02*
Y2209D01*
X-54Y2067D02*
X11D01*
X-54Y2441D02*
X11D01*
X-336Y2149D02*
X-328Y2376D01*
X-336Y2149D02*
X-323Y2376D01*
X-336Y2149D02*
X-314Y2361D01*
X-328Y2132D02*
X-306Y2376D01*
X-323Y2132D02*
X-300Y2376D01*
X-314Y2147D02*
X-292Y2361D01*
X-306Y2132D02*
X-284Y2376D01*
X-300Y2132D02*
X-278Y2376D01*
X-292Y2147D02*
X-270Y2361D01*
X-284Y2132D02*
X-262Y2376D01*
X-278Y2132D02*
X-256Y2376D01*
X-270Y2147D02*
X-248Y2361D01*
X-262Y2132D02*
X-240Y2376D01*
X-256Y2132D02*
X-234Y2376D01*
X-248Y2147D02*
X-226Y2361D01*
X-240Y2132D02*
X-218Y2376D01*
X-234Y2132D02*
X-212Y2376D01*
X-196Y2132D02*
X-182Y2361D01*
X-190Y2132D02*
X-182Y2359D01*
X-204Y2147D02*
X-182Y2361D01*
X-226Y2147D02*
X-204Y2361D01*
X-218Y2132D02*
X-196Y2376D01*
X-212Y2132D02*
X-190Y2376D01*
X-167Y2157D02*
X-54D01*
X-364Y2149D02*
X-336D01*
X-364D02*
Y2359D01*
X-336D01*
X-167Y2350D02*
X-54D01*
X-167Y2157D02*
Y2350D01*
X-182Y2149D02*
X-167Y2157D01*
X-182Y2147D02*
Y2361D01*
X-190Y2132D02*
X-182Y2147D01*
X-196Y2132D02*
X-190D01*
X-204Y2147D02*
X-196Y2132D01*
X-212D02*
X-204Y2147D01*
X-218Y2132D02*
X-212D01*
X-226Y2147D02*
X-218Y2132D01*
X-234D02*
X-226Y2147D01*
X-240Y2132D02*
X-234D01*
X-248Y2147D02*
X-240Y2132D01*
X-256D02*
X-248Y2147D01*
X-262Y2132D02*
X-256D01*
X-270Y2147D02*
X-262Y2132D01*
X-278D02*
X-270Y2147D01*
X-284Y2132D02*
X-278D01*
X-292Y2147D02*
X-284Y2132D01*
X-300D02*
X-292Y2147D01*
X-306Y2132D02*
X-300D01*
X-314Y2147D02*
X-306Y2132D01*
X-323D02*
X-314Y2147D01*
X-328Y2132D02*
X-323D01*
X-336Y2149D02*
X-328Y2132D01*
X-336Y2149D02*
Y2361D01*
X-328Y2376D01*
X-323D01*
X-314Y2361D01*
X-306Y2376D01*
X-300D01*
X-292Y2361D01*
X-284Y2376D01*
X-278D01*
X-270Y2361D01*
X-262Y2376D01*
X-256D01*
X-248Y2361D01*
X-240Y2376D01*
X-234D01*
X-226Y2361D01*
X-218Y2376D01*
X-212D01*
X-204Y2361D01*
X-196Y2376D01*
X-190D01*
X-182Y2361D01*
Y2359D02*
X-167Y2350D01*
X11Y2299D02*
Y2441D01*
X-54Y2067D02*
Y2441D01*
X11Y1544D02*
Y1686D01*
X-54Y1544D02*
X11D01*
X-54Y1918D02*
X11D01*
X-336Y1626D02*
X-328Y1853D01*
X-336Y1626D02*
X-323Y1853D01*
X-336Y1626D02*
X-314Y1838D01*
X-328Y1609D02*
X-306Y1853D01*
X-323Y1609D02*
X-300Y1853D01*
X-314Y1624D02*
X-292Y1838D01*
X-306Y1609D02*
X-284Y1853D01*
X-300Y1609D02*
X-278Y1853D01*
X-292Y1624D02*
X-270Y1838D01*
X-284Y1609D02*
X-262Y1853D01*
X-278Y1609D02*
X-256Y1853D01*
X-270Y1624D02*
X-248Y1838D01*
X-262Y1609D02*
X-240Y1853D01*
X-256Y1609D02*
X-234Y1853D01*
X-248Y1624D02*
X-226Y1838D01*
X-240Y1609D02*
X-218Y1853D01*
X-234Y1609D02*
X-212Y1853D01*
X-196Y1609D02*
X-182Y1838D01*
X-190Y1609D02*
X-182Y1836D01*
X-204Y1624D02*
X-182Y1838D01*
X-226Y1624D02*
X-204Y1838D01*
X-218Y1609D02*
X-196Y1853D01*
X-212Y1609D02*
X-190Y1853D01*
X-167Y1634D02*
X-54D01*
X-364Y1626D02*
X-336D01*
X-364D02*
Y1836D01*
X-336D01*
X-167Y1827D02*
X-54D01*
X-167Y1634D02*
Y1827D01*
X-182Y1626D02*
X-167Y1634D01*
X-182Y1624D02*
Y1838D01*
X-190Y1609D02*
X-182Y1624D01*
X-196Y1609D02*
X-190D01*
X-204Y1624D02*
X-196Y1609D01*
X-212D02*
X-204Y1624D01*
X-218Y1609D02*
X-212D01*
X-226Y1624D02*
X-218Y1609D01*
X-234D02*
X-226Y1624D01*
X-240Y1609D02*
X-234D01*
X-248Y1624D02*
X-240Y1609D01*
X-256D02*
X-248Y1624D01*
X-262Y1609D02*
X-256D01*
X-270Y1624D02*
X-262Y1609D01*
X-278D02*
X-270Y1624D01*
X-284Y1609D02*
X-278D01*
X-292Y1624D02*
X-284Y1609D01*
X-300D02*
X-292Y1624D01*
X-306Y1609D02*
X-300D01*
X-314Y1624D02*
X-306Y1609D01*
X-323D02*
X-314Y1624D01*
X-328Y1609D02*
X-323D01*
X-336Y1626D02*
X-328Y1609D01*
X-336Y1626D02*
Y1838D01*
X-328Y1853D01*
X-323D01*
X-314Y1838D01*
X-306Y1853D01*
X-300D01*
X-292Y1838D01*
X-284Y1853D01*
X-278D01*
X-270Y1838D01*
X-262Y1853D01*
X-256D01*
X-248Y1838D01*
X-240Y1853D01*
X-234D01*
X-226Y1838D01*
X-218Y1853D01*
X-212D01*
X-204Y1838D01*
X-196Y1853D01*
X-190D01*
X-182Y1838D01*
Y1836D02*
X-167Y1827D01*
X11Y1776D02*
Y1918D01*
X-54Y1544D02*
Y1918D01*
X906Y1453D02*
Y1507D01*
X964Y203D02*
X1018D01*
D55*
X349Y151D02*
X336D01*
X343D01*
Y120D01*
X336Y114D01*
X330D01*
X324Y120D01*
X386Y151D02*
X373Y145D01*
X361Y132D01*
Y120D01*
X367Y114D01*
X380D01*
X386Y120D01*
Y126D01*
X380Y132D01*
X361D01*
X284Y2597D02*
X271D01*
X277D01*
Y2566D01*
X271Y2560D01*
X265D01*
X259Y2566D01*
X296D02*
X302Y2560D01*
X314D01*
X321Y2566D01*
Y2591D01*
X314Y2597D01*
X302D01*
X296Y2591D01*
Y2585D01*
X302Y2578D01*
X321D01*
X57Y2200D02*
X44D01*
X50D01*
Y2169D01*
X44Y2163D01*
X38D01*
X32Y2169D01*
X69Y2194D02*
X75Y2200D01*
X87D01*
X94Y2194D01*
Y2188D01*
X87Y2181D01*
X94Y2175D01*
Y2169D01*
X87Y2163D01*
X75D01*
X69Y2169D01*
Y2175D01*
X75Y2181D01*
X69Y2188D01*
Y2194D01*
X75Y2181D02*
X87D01*
X57Y1670D02*
X44D01*
X50D01*
Y1639D01*
X44Y1633D01*
X38D01*
X32Y1639D01*
X69Y1670D02*
X94D01*
Y1664D01*
X69Y1639D01*
Y1633D01*
X770Y349D02*
X794D01*
X782D01*
Y312D01*
X807D02*
Y349D01*
X825D01*
X831Y343D01*
Y330D01*
X825Y324D01*
X807D01*
X862Y312D02*
Y349D01*
X844Y330D01*
X868D01*
X770Y89D02*
X795D01*
X783Y102D02*
Y77D01*
X832Y108D02*
X807D01*
Y89D01*
X820Y96D01*
X826D01*
X832Y89D01*
Y77D01*
X826Y71D01*
X814D01*
X807Y77D01*
X844Y108D02*
Y83D01*
X857Y71D01*
X869Y83D01*
Y108D01*
X840Y1578D02*
X865D01*
X852D01*
Y1541D01*
X877D02*
Y1578D01*
X895D01*
X902Y1572D01*
Y1559D01*
X895Y1553D01*
X877D01*
X914Y1572D02*
X920Y1578D01*
X932D01*
X939Y1572D01*
Y1566D01*
X932Y1559D01*
X926D01*
X932D01*
X939Y1553D01*
Y1547D01*
X932Y1541D01*
X920D01*
X914Y1547D01*
X55Y2541D02*
X42D01*
X48D01*
Y2510D01*
X42Y2504D01*
X36D01*
X30Y2510D01*
X85Y2504D02*
Y2541D01*
X67Y2522D01*
X92D01*
X55Y2026D02*
X42D01*
X48D01*
Y1995D01*
X42Y1989D01*
X36D01*
X30Y1995D01*
X67Y2020D02*
X73Y2026D01*
X85D01*
X92Y2020D01*
Y2014D01*
X85Y2007D01*
X79D01*
X85D01*
X92Y2001D01*
Y1995D01*
X85Y1989D01*
X73D01*
X67Y1995D01*
X53Y1504D02*
X40D01*
X46D01*
Y1473D01*
X40Y1467D01*
X34D01*
X28Y1473D01*
X90Y1467D02*
X65D01*
X90Y1492D01*
Y1498D01*
X83Y1504D01*
X71D01*
X65Y1498D01*
X946Y348D02*
X971D01*
X958D01*
Y311D01*
X983D02*
Y348D01*
X1001D01*
X1008Y342D01*
Y329D01*
X1001Y323D01*
X983D01*
X1020Y311D02*
X1032D01*
X1026D01*
Y348D01*
X1020Y342D01*
X487Y2885D02*
X480Y2891D01*
X468D01*
X462Y2885D01*
Y2860D01*
X468Y2854D01*
X480D01*
X487Y2860D01*
X499Y2891D02*
X524D01*
Y2885D01*
X499Y2860D01*
Y2854D01*
X695Y1770D02*
X688Y1776D01*
X676D01*
X670Y1770D01*
Y1745D01*
X676Y1739D01*
X688D01*
X695Y1745D01*
X707Y1739D02*
X719D01*
X713D01*
Y1776D01*
X707Y1770D01*
X1092Y1807D02*
X1085Y1813D01*
X1073D01*
X1067Y1807D01*
Y1783D01*
X1073Y1776D01*
X1085D01*
X1092Y1783D01*
X1129Y1776D02*
X1104D01*
X1129Y1801D01*
Y1807D01*
X1122Y1813D01*
X1110D01*
X1104Y1807D01*
X1043Y2169D02*
X1036Y2175D01*
X1024D01*
X1018Y2169D01*
Y2144D01*
X1024Y2138D01*
X1036D01*
X1043Y2144D01*
X1055Y2169D02*
X1061Y2175D01*
X1073D01*
X1080Y2169D01*
Y2163D01*
X1073Y2156D01*
X1067D01*
X1073D01*
X1080Y2150D01*
Y2144D01*
X1073Y2138D01*
X1061D01*
X1055Y2144D01*
X458Y2108D02*
X451Y2114D01*
X439D01*
X433Y2108D01*
Y2083D01*
X439Y2077D01*
X451D01*
X458Y2083D01*
X488Y2077D02*
Y2114D01*
X470Y2095D01*
X495D01*
X969Y1691D02*
X962Y1697D01*
X950D01*
X944Y1691D01*
Y1666D01*
X950Y1660D01*
X962D01*
X969Y1666D01*
X1006Y1697D02*
X981D01*
Y1678D01*
X993Y1685D01*
X999D01*
X1006Y1678D01*
Y1666D01*
X999Y1660D01*
X987D01*
X981Y1666D01*
X1185Y1593D02*
X1178Y1599D01*
X1166D01*
X1160Y1593D01*
Y1568D01*
X1166Y1562D01*
X1178D01*
X1185Y1568D01*
X1222Y1599D02*
X1197D01*
Y1580D01*
X1209Y1587D01*
X1215D01*
X1222Y1580D01*
Y1568D01*
X1215Y1562D01*
X1203D01*
X1197Y1568D01*
X1234Y1593D02*
X1240Y1599D01*
X1252D01*
X1259Y1593D01*
Y1587D01*
X1252Y1580D01*
X1246D01*
X1252D01*
X1259Y1574D01*
Y1568D01*
X1252Y1562D01*
X1240D01*
X1234Y1568D01*
X561Y447D02*
X555Y453D01*
X542D01*
X536Y447D01*
Y422D01*
X542Y416D01*
X555D01*
X561Y422D01*
X598Y453D02*
X573D01*
Y434D01*
X586Y441D01*
X592D01*
X598Y434D01*
Y422D01*
X592Y416D01*
X579D01*
X573Y422D01*
X629Y416D02*
Y453D01*
X610Y434D01*
X635D01*
X948Y2288D02*
Y2251D01*
X966D01*
X973Y2257D01*
Y2282D01*
X966Y2288D01*
X948D01*
X985Y2251D02*
X997D01*
X991D01*
Y2288D01*
X985Y2282D01*
X569Y2270D02*
Y2233D01*
X587D01*
X594Y2239D01*
Y2264D01*
X587Y2270D01*
X569D01*
X631Y2233D02*
X606D01*
X631Y2258D01*
Y2264D01*
X624Y2270D01*
X612D01*
X606Y2264D01*
X509Y2603D02*
Y2566D01*
X527D01*
X534Y2572D01*
Y2597D01*
X527Y2603D01*
X509D01*
X546Y2597D02*
X552Y2603D01*
X564D01*
X571Y2597D01*
Y2591D01*
X564Y2584D01*
X558D01*
X564D01*
X571Y2578D01*
Y2572D01*
X564Y2566D01*
X552D01*
X546Y2572D01*
X1060Y2086D02*
X1072D01*
X1066D01*
Y2049D01*
X1060D01*
X1072D01*
X1115Y2080D02*
X1109Y2086D01*
X1097D01*
X1091Y2080D01*
Y2055D01*
X1097Y2049D01*
X1109D01*
X1115Y2055D01*
X1128Y2049D02*
X1140D01*
X1134D01*
Y2086D01*
X1128Y2080D01*
X759Y2896D02*
X771D01*
X765D01*
Y2859D01*
X759D01*
X771D01*
X814Y2889D02*
X808Y2896D01*
X796D01*
X790Y2889D01*
Y2865D01*
X796Y2859D01*
X808D01*
X814Y2865D01*
X851Y2859D02*
X827D01*
X851Y2883D01*
Y2889D01*
X845Y2896D01*
X833D01*
X827Y2889D01*
X1107Y557D02*
X1119D01*
X1113D01*
Y520D01*
X1107D01*
X1119D01*
X1162Y551D02*
X1156Y557D01*
X1144D01*
X1138Y551D01*
Y526D01*
X1144Y520D01*
X1156D01*
X1162Y526D01*
X1175Y520D02*
X1187D01*
X1181D01*
Y557D01*
X1175Y551D01*
X1206D02*
X1212Y557D01*
X1224D01*
X1230Y551D01*
Y526D01*
X1224Y520D01*
X1212D01*
X1206Y526D01*
Y551D01*
X1340Y3023D02*
X1327D01*
X1333D01*
Y2992D01*
X1327Y2986D01*
X1321D01*
X1315Y2992D01*
X1352Y2986D02*
X1364D01*
X1358D01*
Y3023D01*
X1352Y3017D01*
X596Y2902D02*
Y2865D01*
X621D01*
X633D02*
X646D01*
X639D01*
Y2902D01*
X633Y2896D01*
X682Y420D02*
Y457D01*
X700D01*
X707Y451D01*
Y438D01*
X700Y432D01*
X682D01*
X719Y420D02*
X731D01*
X725D01*
Y457D01*
X719Y451D01*
X531Y1912D02*
Y1949D01*
X549D01*
X556Y1943D01*
Y1930D01*
X549Y1924D01*
X531D01*
X543D02*
X556Y1912D01*
X568D02*
X580D01*
X574D01*
Y1949D01*
X568Y1943D01*
X402Y2402D02*
X427D01*
X414D01*
Y2365D01*
X439D02*
Y2402D01*
X457D01*
X464Y2396D01*
Y2383D01*
X457Y2377D01*
X439D01*
X501Y2365D02*
X476D01*
X501Y2389D01*
Y2396D01*
X494Y2402D01*
X482D01*
X476Y2396D01*
X146Y450D02*
X139Y456D01*
X127D01*
X121Y450D01*
Y425D01*
X127Y419D01*
X139D01*
X146Y425D01*
X183Y456D02*
X158D01*
Y437D01*
X170Y444D01*
X176D01*
X183Y437D01*
Y425D01*
X176Y419D01*
X164D01*
X158Y425D01*
X220Y456D02*
X195D01*
Y437D01*
X207Y444D01*
X213D01*
X220Y437D01*
Y425D01*
X213Y419D01*
X201D01*
X195Y425D01*
X256Y285D02*
X243D01*
X249D01*
Y254D01*
X243Y248D01*
X237D01*
X231Y254D01*
X293Y285D02*
X268D01*
Y266D01*
X280Y273D01*
X286D01*
X293Y266D01*
Y254D01*
X286Y248D01*
X274D01*
X268Y254D01*
X314Y2946D02*
Y2971D01*
X320D01*
X326Y2964D01*
Y2946D01*
Y2964D01*
X332Y2971D01*
X338Y2964D01*
Y2946D01*
X351Y2971D02*
Y2952D01*
X357Y2946D01*
X375D01*
Y2971D01*
X388D02*
Y2946D01*
Y2958D01*
X394Y2964D01*
X400Y2971D01*
X406D01*
X437Y2934D02*
X443D01*
X449Y2940D01*
Y2971D01*
X431D01*
X425Y2964D01*
Y2952D01*
X431Y2946D01*
X449D01*
X480D02*
X468D01*
X462Y2952D01*
Y2964D01*
X468Y2971D01*
X480D01*
X486Y2964D01*
Y2958D01*
X462D01*
X499Y2946D02*
Y2971D01*
X517D01*
X523Y2964D01*
Y2946D01*
X554Y2958D02*
Y2964D01*
X548D01*
Y2958D01*
X554D01*
X560Y2964D01*
Y2977D01*
X554Y2983D01*
X542D01*
X536Y2977D01*
Y2952D01*
X542Y2946D01*
X560D01*
X591D02*
X579D01*
X573Y2952D01*
Y2964D01*
X579Y2971D01*
X591D01*
X597Y2964D01*
Y2958D01*
X573D01*
X634Y2971D02*
X616D01*
X610Y2964D01*
Y2952D01*
X616Y2946D01*
X634D01*
X647Y2983D02*
Y2946D01*
Y2964D01*
X653Y2971D01*
X665D01*
X671Y2964D01*
Y2946D01*
X690D02*
X702D01*
X708Y2952D01*
Y2964D01*
X702Y2971D01*
X690D01*
X684Y2964D01*
Y2952D01*
X690Y2946D01*
X721Y2934D02*
Y2971D01*
X739D01*
X745Y2964D01*
Y2952D01*
X739Y2946D01*
X721D01*
X776D02*
X764D01*
X758Y2952D01*
Y2964D01*
X764Y2971D01*
X776D01*
X782Y2964D01*
Y2958D01*
X758D01*
X795Y2946D02*
Y2971D01*
X813D01*
X819Y2964D01*
Y2946D01*
X832D02*
Y2952D01*
X838D01*
Y2946D01*
X832D01*
X869D02*
X881D01*
X887Y2952D01*
Y2964D01*
X881Y2971D01*
X869D01*
X862Y2964D01*
Y2952D01*
X869Y2946D01*
X899Y2971D02*
Y2946D01*
Y2958D01*
X906Y2964D01*
X912Y2971D01*
X918D01*
X949Y2934D02*
X955D01*
X961Y2940D01*
Y2971D01*
X943D01*
X936Y2964D01*
Y2952D01*
X943Y2946D01*
X961D01*
X463Y3120D02*
Y3083D01*
Y3101D01*
X488D01*
Y3120D01*
Y3083D01*
X500Y3120D02*
Y3095D01*
X512Y3083D01*
X525Y3095D01*
Y3120D01*
X537Y3101D02*
X562D01*
X549Y3114D02*
Y3089D01*
X574Y3083D02*
Y3120D01*
X592D01*
X599Y3114D01*
Y3101D01*
X592Y3095D01*
X574D01*
X611Y3108D02*
Y3089D01*
X617Y3083D01*
X636D01*
Y3108D01*
X648Y3083D02*
X660D01*
X654D01*
Y3120D01*
X648D01*
X679Y3083D02*
X697D01*
X703Y3089D01*
X697Y3095D01*
X685D01*
X679Y3101D01*
X685Y3108D01*
X703D01*
X734Y3083D02*
X722D01*
X716Y3089D01*
Y3101D01*
X722Y3108D01*
X734D01*
X740Y3101D01*
Y3095D01*
X716D01*
X753Y3108D02*
Y3083D01*
Y3095D01*
X759Y3101D01*
X765Y3108D01*
X771D01*
X259Y2903D02*
X247D01*
X241Y2897D01*
Y2872D01*
X247Y2866D01*
X259D01*
X266Y2872D01*
Y2897D01*
X259Y2903D01*
X278Y2891D02*
Y2872D01*
X284Y2866D01*
X303D01*
Y2891D01*
X321Y2897D02*
Y2891D01*
X315D01*
X327D01*
X321D01*
Y2872D01*
X327Y2866D01*
X346Y2854D02*
Y2891D01*
X364D01*
X370Y2884D01*
Y2872D01*
X364Y2866D01*
X346D01*
X383Y2891D02*
Y2872D01*
X389Y2866D01*
X407D01*
Y2891D01*
X426Y2897D02*
Y2891D01*
X420D01*
X432D01*
X426D01*
Y2872D01*
X432Y2866D01*
X962Y2695D02*
X987D01*
X974D01*
Y2658D01*
X999Y2683D02*
Y2658D01*
Y2670D01*
X1005Y2676D01*
X1011Y2683D01*
X1017D01*
X1042D02*
X1054D01*
X1061Y2676D01*
Y2658D01*
X1042D01*
X1036Y2664D01*
X1042Y2670D01*
X1061D01*
X1073Y2658D02*
Y2683D01*
X1091D01*
X1098Y2676D01*
Y2658D01*
X1110D02*
X1128D01*
X1135Y2664D01*
X1128Y2670D01*
X1116D01*
X1110Y2676D01*
X1116Y2683D01*
X1135D01*
X1172Y2695D02*
Y2658D01*
X1153D01*
X1147Y2664D01*
Y2676D01*
X1153Y2683D01*
X1172D01*
X1184D02*
Y2664D01*
X1190Y2658D01*
X1209D01*
Y2683D01*
X1246D02*
X1227D01*
X1221Y2676D01*
Y2664D01*
X1227Y2658D01*
X1246D01*
X1276D02*
X1264D01*
X1258Y2664D01*
Y2676D01*
X1264Y2683D01*
X1276D01*
X1283Y2676D01*
Y2670D01*
X1258D01*
X1295Y2683D02*
Y2658D01*
Y2670D01*
X1301Y2676D01*
X1307Y2683D01*
X1313D01*
X296Y1550D02*
X259D01*
Y1568D01*
X265Y1575D01*
X278D01*
X284Y1568D01*
Y1550D01*
X271Y1587D02*
X290D01*
X296Y1593D01*
Y1612D01*
X271D01*
X296Y1624D02*
Y1636D01*
Y1630D01*
X259D01*
Y1624D01*
X296Y1655D02*
Y1673D01*
X290Y1679D01*
X284Y1673D01*
Y1661D01*
X278Y1655D01*
X271Y1661D01*
Y1679D01*
X296Y1710D02*
Y1698D01*
X290Y1692D01*
X278D01*
X271Y1698D01*
Y1710D01*
X278Y1716D01*
X284D01*
Y1692D01*
X302Y1729D02*
Y1753D01*
X259Y1766D02*
X296D01*
X278D01*
Y1790D01*
X259D01*
X296D01*
Y1803D02*
Y1815D01*
Y1809D01*
X271D01*
Y1803D01*
X308Y1846D02*
Y1852D01*
X302Y1858D01*
X271D01*
Y1840D01*
X278Y1834D01*
X290D01*
X296Y1840D01*
Y1858D01*
X259Y1871D02*
X296D01*
X278D01*
X271Y1877D01*
Y1889D01*
X278Y1895D01*
X296D01*
X295Y2076D02*
X258D01*
Y2095D01*
X264Y2101D01*
X276D01*
X283Y2095D01*
Y2076D01*
X270Y2113D02*
X289D01*
X295Y2119D01*
Y2138D01*
X270D01*
X295Y2150D02*
Y2163D01*
Y2156D01*
X258D01*
Y2150D01*
X295Y2181D02*
Y2200D01*
X289Y2206D01*
X283Y2200D01*
Y2187D01*
X276Y2181D01*
X270Y2187D01*
Y2206D01*
X295Y2237D02*
Y2224D01*
X289Y2218D01*
X276D01*
X270Y2224D01*
Y2237D01*
X276Y2243D01*
X283D01*
Y2218D01*
X301Y2255D02*
Y2280D01*
X258Y2292D02*
X295D01*
Y2317D01*
Y2335D02*
Y2348D01*
X289Y2354D01*
X276D01*
X270Y2348D01*
Y2335D01*
X276Y2329D01*
X289D01*
X295Y2335D01*
X270Y2366D02*
X289D01*
X295Y2372D01*
X289Y2378D01*
X295Y2385D01*
X289Y2391D01*
X270D01*
X968Y100D02*
X961Y106D01*
X949D01*
X943Y100D01*
Y75D01*
X949Y69D01*
X961D01*
X968Y75D01*
Y87D01*
X955D01*
X980Y69D02*
Y106D01*
X1005Y69D01*
Y106D01*
X1017D02*
Y69D01*
X1035D01*
X1042Y75D01*
Y100D01*
X1035Y106D01*
X1017D01*
X623Y1495D02*
Y1458D01*
Y1476D01*
X648D01*
Y1495D01*
Y1458D01*
X660Y1495D02*
Y1470D01*
X672Y1458D01*
X685Y1470D01*
Y1495D01*
X715D02*
X703D01*
X697Y1489D01*
Y1464D01*
X703Y1458D01*
X715D01*
X722Y1464D01*
Y1489D01*
X715Y1495D01*
X734D02*
Y1464D01*
X740Y1458D01*
X752D01*
X759Y1464D01*
Y1495D01*
X771D02*
X796D01*
X783D01*
Y1458D01*
X504Y326D02*
X529D01*
X516Y339D02*
Y314D01*
X566Y345D02*
X541D01*
Y326D01*
X553Y333D01*
X559D01*
X566Y326D01*
Y314D01*
X559Y308D01*
X547D01*
X541Y314D01*
X578Y345D02*
Y320D01*
X590Y308D01*
X603Y320D01*
Y345D01*
X391Y338D02*
X384Y344D01*
X372D01*
X366Y338D01*
Y313D01*
X372Y307D01*
X384D01*
X391Y313D01*
Y325D01*
X378D01*
X403Y307D02*
Y344D01*
X428Y307D01*
Y344D01*
X440D02*
Y307D01*
X458D01*
X465Y313D01*
Y338D01*
X458Y344D01*
X440D01*
D56*
X505Y198D02*
Y200D01*
X507Y204D01*
X509Y205D01*
X512Y207D01*
X520D01*
X524Y205D01*
X525Y204D01*
X527Y200D01*
Y196D01*
X525Y192D01*
X522Y187D01*
X503Y168D01*
X529D01*
X441Y197D02*
X445Y199D01*
X450Y204D01*
Y165D01*
D57*
X1043Y2063D02*
X1031D01*
Y2069D01*
X1033Y2071D01*
X1037D01*
X1039Y2069D01*
Y2063D01*
X997Y2100D02*
Y2104D01*
Y2102D01*
X985D01*
X987Y2100D01*
X997Y1773D02*
Y1777D01*
Y1775D01*
X985D01*
X987Y1773D01*
X1043Y1807D02*
X1035D01*
X1031Y1811D01*
X1035Y1814D01*
X1043D01*
X1037D01*
Y1807D01*
D58*
X289Y1253D02*
X315D01*
X301Y1234D01*
X308D01*
X313Y1232D01*
X315Y1230D01*
X318Y1222D01*
Y1218D01*
X315Y1211D01*
X311Y1206D01*
X303Y1203D01*
X296D01*
X289Y1206D01*
X287Y1208D01*
X284Y1213D01*
X188Y1240D02*
Y1243D01*
X191Y1248D01*
X193Y1250D01*
X198Y1252D01*
X207D01*
X212Y1250D01*
X215Y1248D01*
X217Y1243D01*
Y1238D01*
X215Y1233D01*
X210Y1226D01*
X186Y1202D01*
X219D01*
X871Y804D02*
X875Y806D01*
X882Y813D01*
Y763D01*
X936Y806D02*
X933Y811D01*
X926Y813D01*
X922D01*
X914Y811D01*
X910Y804D01*
X907Y792D01*
Y780D01*
X910Y770D01*
X914Y766D01*
X922Y763D01*
X924D01*
X931Y766D01*
X936Y770D01*
X938Y777D01*
Y780D01*
X936Y787D01*
X931Y792D01*
X924Y794D01*
X922D01*
X914Y792D01*
X910Y787D01*
X907Y780D01*
X966Y803D02*
X971Y805D01*
X978Y812D01*
Y762D01*
X1031Y812D02*
X1007D01*
X1005Y791D01*
X1007Y793D01*
X1015Y796D01*
X1022D01*
X1029Y793D01*
X1034Y788D01*
X1036Y781D01*
Y777D01*
X1034Y769D01*
X1029Y765D01*
X1022Y762D01*
X1015D01*
X1007Y765D01*
X1005Y767D01*
X1003Y772D01*
X796Y1245D02*
X789Y1243D01*
X786Y1238D01*
Y1233D01*
X789Y1229D01*
X793Y1226D01*
X803Y1224D01*
X810Y1221D01*
X815Y1217D01*
X817Y1212D01*
Y1205D01*
X815Y1200D01*
X813Y1198D01*
X805Y1195D01*
X796D01*
X789Y1198D01*
X786Y1200D01*
X784Y1205D01*
Y1212D01*
X786Y1217D01*
X791Y1221D01*
X798Y1224D01*
X808Y1226D01*
X813Y1229D01*
X815Y1233D01*
Y1238D01*
X813Y1243D01*
X805Y1245D01*
X796D01*
X916Y1232D02*
X914Y1224D01*
X909Y1220D01*
X902Y1217D01*
X900D01*
X892Y1220D01*
X888Y1224D01*
X885Y1232D01*
Y1234D01*
X888Y1241D01*
X892Y1246D01*
X900Y1248D01*
X902D01*
X909Y1246D01*
X914Y1241D01*
X916Y1232D01*
Y1220D01*
X914Y1208D01*
X909Y1201D01*
X902Y1198D01*
X897D01*
X890Y1201D01*
X888Y1205D01*
X971Y1239D02*
X976Y1241D01*
X983Y1248D01*
Y1198D01*
X1022Y1248D02*
X1015Y1246D01*
X1010Y1239D01*
X1008Y1227D01*
Y1220D01*
X1010Y1208D01*
X1015Y1201D01*
X1022Y1198D01*
X1027D01*
X1034Y1201D01*
X1039Y1208D01*
X1041Y1220D01*
Y1227D01*
X1039Y1239D01*
X1034Y1246D01*
X1027Y1248D01*
X1022D01*
X1167Y1239D02*
X1172Y1241D01*
X1179Y1248D01*
Y1198D01*
X1206Y1236D02*
Y1239D01*
X1208Y1243D01*
X1211Y1246D01*
X1215Y1248D01*
X1225D01*
X1230Y1246D01*
X1232Y1243D01*
X1234Y1239D01*
Y1234D01*
X1232Y1229D01*
X1227Y1222D01*
X1204Y1198D01*
X1237D01*
X1170Y795D02*
X1175Y797D01*
X1182Y804D01*
Y754D01*
X1211Y804D02*
X1237D01*
X1223Y785D01*
X1230D01*
X1235Y783D01*
X1237Y781D01*
X1240Y773D01*
Y769D01*
X1237Y761D01*
X1233Y757D01*
X1225Y754D01*
X1218D01*
X1211Y757D01*
X1209Y759D01*
X1206Y764D01*
X768Y802D02*
X773Y804D01*
X780Y811D01*
Y761D01*
X838Y811D02*
X814Y761D01*
X805Y811D02*
X838D01*
X274Y798D02*
Y801D01*
X276Y805D01*
X278Y808D01*
X283Y810D01*
X293D01*
X297Y808D01*
X300Y805D01*
X302Y801D01*
Y796D01*
X300Y791D01*
X295Y784D01*
X271Y760D01*
X305D01*
X318Y798D02*
Y801D01*
X320Y805D01*
X323Y808D01*
X328Y810D01*
X337D01*
X342Y808D01*
X344Y805D01*
X347Y801D01*
Y796D01*
X344Y791D01*
X339Y784D01*
X316Y760D01*
X349D01*
X160Y801D02*
Y804D01*
X163Y808D01*
X165Y811D01*
X170Y813D01*
X179D01*
X184Y811D01*
X187Y808D01*
X189Y804D01*
Y799D01*
X187Y794D01*
X182Y787D01*
X158Y763D01*
X191D01*
X207Y813D02*
X233D01*
X219Y794D01*
X226D01*
X231Y792D01*
X233Y789D01*
X236Y782D01*
Y777D01*
X233Y770D01*
X229Y766D01*
X222Y763D01*
X214D01*
X207Y766D01*
X205Y768D01*
X203Y773D01*
M02*
