G04 Layer_Physical_Order=1*
G04 Layer_Color=255*
%FSLAX23Y23*%
%MOIN*%
G70*
G01*
G75*
%ADD10R,0.059X0.059*%
%ADD11R,0.037X0.039*%
%ADD12R,0.039X0.037*%
%ADD13R,0.013X0.013*%
%ADD14R,0.059X0.213*%
%ADD15R,0.061X0.087*%
%ADD16R,0.035X0.051*%
%ADD17R,0.035X0.075*%
%ADD18R,0.067X0.106*%
%ADD19R,0.193X0.063*%
%ADD20R,0.093X0.028*%
%ADD21R,0.035X0.063*%
%ADD22R,0.051X0.051*%
%ADD23R,0.045X0.057*%
%ADD24R,0.018X0.035*%
%ADD25R,0.045X0.071*%
%ADD26R,0.071X0.045*%
%ADD27R,0.089X0.071*%
%ADD28R,0.059X0.059*%
%ADD29C,0.025*%
%ADD30C,0.010*%
%ADD31C,0.050*%
%ADD32C,0.030*%
%ADD33C,0.020*%
%ADD34C,0.012*%
%ADD35C,0.015*%
%ADD36C,0.035*%
%ADD37C,0.080*%
%ADD38C,0.067*%
%ADD39C,0.075*%
%ADD40C,0.063*%
%ADD41C,0.177*%
%ADD42C,0.021*%
%ADD43C,0.035*%
G36*
X1391Y2970D02*
X1386Y2969D01*
X1386Y2969D01*
X1289D01*
Y2929D01*
Y2890D01*
X1386D01*
X1386Y2890D01*
X1391Y2888D01*
Y2806D01*
X1268D01*
Y2798D01*
X912D01*
Y2824D01*
X816D01*
Y2800D01*
X794D01*
Y2824D01*
X705D01*
Y2827D01*
X529D01*
Y2818D01*
X399D01*
Y2804D01*
X337D01*
X333Y2809D01*
X323Y2817D01*
X312Y2823D01*
X300Y2827D01*
X288Y2828D01*
X276Y2827D01*
X264Y2823D01*
X253Y2817D01*
X243Y2809D01*
X239Y2804D01*
X137D01*
Y2812D01*
X11D01*
Y3239D01*
X1391D01*
Y2970D01*
D02*
G37*
G36*
X399Y2718D02*
X529D01*
Y2710D01*
X607D01*
Y2645D01*
X685D01*
Y2710D01*
X705D01*
Y2713D01*
X766D01*
Y2607D01*
X821D01*
Y2522D01*
X805D01*
Y2494D01*
X767D01*
Y2522D01*
X645D01*
Y2508D01*
X534D01*
Y2389D01*
Y2310D01*
X654D01*
Y2375D01*
X767D01*
Y2403D01*
X805D01*
Y2375D01*
X927D01*
Y2522D01*
X911D01*
Y2713D01*
X912D01*
Y2726D01*
X1268D01*
Y2718D01*
X1391D01*
Y2636D01*
X1386Y2634D01*
X1386Y2634D01*
X1289D01*
Y2595D01*
Y2555D01*
X1386D01*
X1386Y2555D01*
X1391Y2554D01*
Y11D01*
X11D01*
Y1711D01*
X113D01*
Y1720D01*
X134D01*
X136Y1715D01*
X130Y1711D01*
X123Y1702D01*
X119Y1692D01*
X119Y1689D01*
X160D01*
X200D01*
X200Y1692D01*
X196Y1702D01*
X189Y1711D01*
X184Y1715D01*
X185Y1720D01*
X470D01*
X474Y1714D01*
X482Y1709D01*
X491Y1707D01*
X500Y1709D01*
X508Y1714D01*
X513Y1722D01*
X515Y1731D01*
X513Y1740D01*
X508Y1748D01*
X500Y1753D01*
X491Y1755D01*
X482Y1753D01*
X474Y1748D01*
X470Y1742D01*
X188D01*
X185Y1745D01*
X186Y1751D01*
X188Y1753D01*
X194Y1761D01*
X198Y1771D01*
X199Y1781D01*
X198Y1791D01*
X194Y1801D01*
X188Y1809D01*
X180Y1815D01*
X170Y1819D01*
X160Y1821D01*
X149Y1819D01*
X140Y1815D01*
X131Y1809D01*
X125Y1801D01*
X121Y1791D01*
X120Y1781D01*
X121Y1771D01*
X125Y1761D01*
X131Y1753D01*
X139Y1747D01*
X138Y1744D01*
X138Y1742D01*
X113D01*
Y1751D01*
X11D01*
Y2234D01*
X113D01*
Y2243D01*
X134D01*
X136Y2238D01*
X130Y2233D01*
X123Y2225D01*
X119Y2215D01*
X119Y2211D01*
X160D01*
X200D01*
X200Y2215D01*
X196Y2225D01*
X189Y2233D01*
X183Y2238D01*
X185Y2243D01*
X330D01*
X449Y2124D01*
Y1968D01*
X443Y1964D01*
X438Y1956D01*
X436Y1947D01*
X438Y1938D01*
X443Y1930D01*
X451Y1925D01*
X460Y1923D01*
X469Y1925D01*
X477Y1930D01*
X482Y1938D01*
X484Y1947D01*
X482Y1956D01*
X477Y1964D01*
X471Y1968D01*
Y2129D01*
X471Y2129D01*
X470Y2133D01*
X468Y2137D01*
X343Y2262D01*
X339Y2264D01*
X335Y2265D01*
X335Y2265D01*
X182D01*
X181Y2270D01*
X188Y2276D01*
X194Y2284D01*
X198Y2293D01*
X199Y2304D01*
X198Y2314D01*
X194Y2324D01*
X188Y2332D01*
X180Y2338D01*
X170Y2342D01*
X160Y2344D01*
X149Y2342D01*
X140Y2338D01*
X131Y2332D01*
X125Y2324D01*
X121Y2314D01*
X120Y2304D01*
X121Y2293D01*
X125Y2284D01*
X131Y2276D01*
X139Y2270D01*
X137Y2265D01*
X113D01*
Y2274D01*
X11D01*
Y2724D01*
X137D01*
Y2732D01*
X233D01*
X235Y2729D01*
X243Y2719D01*
X253Y2711D01*
X264Y2705D01*
X265Y2705D01*
X266Y2699D01*
X258Y2694D01*
X252Y2685D01*
X248Y2675D01*
X247Y2671D01*
X288D01*
X329D01*
X328Y2675D01*
X324Y2685D01*
X318Y2694D01*
X310Y2699D01*
X311Y2705D01*
X312Y2705D01*
X323Y2711D01*
X333Y2719D01*
X341Y2729D01*
X343Y2732D01*
X399D01*
Y2718D01*
D02*
G37*
%LPC*%
G36*
X1270Y3206D02*
Y3118D01*
X1358D01*
X1357Y3129D01*
X1352Y3147D01*
X1343Y3164D01*
X1331Y3179D01*
X1316Y3191D01*
X1299Y3200D01*
X1281Y3205D01*
X1270Y3206D01*
D02*
G37*
G36*
X1255D02*
X1243Y3205D01*
X1225Y3200D01*
X1208Y3191D01*
X1193Y3179D01*
X1181Y3164D01*
X1172Y3147D01*
X1167Y3129D01*
X1166Y3118D01*
X1255D01*
Y3206D01*
D02*
G37*
G36*
X147D02*
Y3118D01*
X236D01*
X235Y3129D01*
X230Y3147D01*
X221Y3164D01*
X209Y3179D01*
X194Y3191D01*
X177Y3200D01*
X159Y3205D01*
X147Y3206D01*
D02*
G37*
G36*
X132D02*
X121Y3205D01*
X103Y3200D01*
X86Y3191D01*
X71Y3179D01*
X59Y3164D01*
X50Y3147D01*
X45Y3129D01*
X44Y3118D01*
X132D01*
Y3206D01*
D02*
G37*
G36*
X1358Y3102D02*
X1270D01*
Y3014D01*
X1281Y3015D01*
X1299Y3020D01*
X1316Y3029D01*
X1331Y3041D01*
X1343Y3056D01*
X1352Y3073D01*
X1357Y3091D01*
X1358Y3102D01*
D02*
G37*
G36*
X1255D02*
X1166D01*
X1167Y3091D01*
X1172Y3073D01*
X1181Y3056D01*
X1193Y3041D01*
X1208Y3029D01*
X1225Y3020D01*
X1243Y3015D01*
X1255Y3014D01*
Y3102D01*
D02*
G37*
G36*
X236D02*
X147D01*
Y3014D01*
X159Y3015D01*
X177Y3020D01*
X194Y3029D01*
X209Y3041D01*
X221Y3056D01*
X230Y3073D01*
X235Y3091D01*
X236Y3102D01*
D02*
G37*
G36*
X132D02*
X44D01*
X45Y3091D01*
X50Y3073D01*
X59Y3056D01*
X71Y3041D01*
X86Y3029D01*
X103Y3020D01*
X121Y3015D01*
X132Y3014D01*
Y3102D01*
D02*
G37*
G36*
X227Y2975D02*
X131D01*
Y2943D01*
X227D01*
Y2975D01*
D02*
G37*
G36*
X116D02*
X19D01*
Y2943D01*
X116D01*
Y2975D01*
D02*
G37*
G36*
X1274Y2969D02*
X1178D01*
Y2937D01*
X1274D01*
Y2969D01*
D02*
G37*
G36*
X227Y2928D02*
X131D01*
Y2896D01*
X227D01*
Y2928D01*
D02*
G37*
G36*
X116D02*
X19D01*
Y2896D01*
X116D01*
Y2928D01*
D02*
G37*
G36*
X1274Y2922D02*
X1178D01*
Y2890D01*
X1274D01*
Y2922D01*
D02*
G37*
G36*
X329Y2657D02*
X296D01*
Y2623D01*
X299Y2624D01*
X309Y2628D01*
X318Y2634D01*
X324Y2643D01*
X328Y2653D01*
X329Y2657D01*
D02*
G37*
G36*
X280D02*
X247D01*
X248Y2653D01*
X252Y2643D01*
X258Y2634D01*
X267Y2628D01*
X277Y2624D01*
X280Y2623D01*
Y2657D01*
D02*
G37*
G36*
X688Y2635D02*
X679D01*
Y2617D01*
X688D01*
Y2635D01*
D02*
G37*
G36*
X637D02*
X628D01*
Y2617D01*
X637D01*
Y2635D01*
D02*
G37*
G36*
X664D02*
X655D01*
Y2617D01*
X664D01*
Y2635D01*
D02*
G37*
G36*
X613D02*
X604D01*
Y2617D01*
X613D01*
Y2635D01*
D02*
G37*
G36*
X227Y2640D02*
X131D01*
Y2608D01*
X227D01*
Y2640D01*
D02*
G37*
G36*
X116D02*
X19D01*
Y2608D01*
X116D01*
Y2640D01*
D02*
G37*
G36*
X1274Y2634D02*
X1178D01*
Y2602D01*
X1274D01*
Y2634D01*
D02*
G37*
G36*
X688Y2602D02*
X679D01*
Y2584D01*
X688D01*
Y2602D01*
D02*
G37*
G36*
X664D02*
X655D01*
Y2584D01*
X664D01*
Y2602D01*
D02*
G37*
G36*
X637D02*
X628D01*
Y2584D01*
X637D01*
Y2602D01*
D02*
G37*
G36*
X613D02*
X604D01*
Y2584D01*
X613D01*
Y2602D01*
D02*
G37*
G36*
X227Y2593D02*
X131D01*
Y2561D01*
X227D01*
Y2593D01*
D02*
G37*
G36*
X116D02*
X19D01*
Y2561D01*
X116D01*
Y2593D01*
D02*
G37*
G36*
X1274Y2587D02*
X1178D01*
Y2555D01*
X1274D01*
Y2587D01*
D02*
G37*
G36*
X227Y2461D02*
X131D01*
Y2429D01*
X227D01*
Y2461D01*
D02*
G37*
G36*
X116D02*
X19D01*
Y2429D01*
X116D01*
Y2461D01*
D02*
G37*
G36*
X227Y2414D02*
X131D01*
Y2382D01*
X227D01*
Y2414D01*
D02*
G37*
G36*
X116D02*
X19D01*
Y2382D01*
X116D01*
Y2414D01*
D02*
G37*
G36*
X743Y2336D02*
X669D01*
Y2237D01*
X743D01*
Y2267D01*
X767D01*
X770Y2266D01*
X776Y2267D01*
X782Y2271D01*
X786Y2276D01*
X787Y2283D01*
X786Y2289D01*
X782Y2295D01*
X776Y2298D01*
X770Y2300D01*
X767Y2299D01*
X743D01*
Y2336D01*
D02*
G37*
G36*
X903Y2336D02*
X829D01*
Y2237D01*
X849D01*
Y2229D01*
X848Y2226D01*
X849Y2220D01*
X853Y2214D01*
X859Y2210D01*
X865Y2209D01*
X871Y2210D01*
X877Y2214D01*
X881Y2220D01*
X882Y2226D01*
X881Y2228D01*
Y2237D01*
X903D01*
Y2336D01*
D02*
G37*
G36*
X200Y2196D02*
X167D01*
Y2163D01*
X170Y2163D01*
X181Y2168D01*
X189Y2174D01*
X196Y2183D01*
X200Y2193D01*
X200Y2196D01*
D02*
G37*
G36*
X152D02*
X119D01*
X119Y2193D01*
X123Y2183D01*
X130Y2174D01*
X139Y2168D01*
X149Y2163D01*
X152Y2163D01*
Y2196D01*
D02*
G37*
G36*
X998Y2183D02*
X979D01*
Y2163D01*
X998D01*
Y2183D01*
D02*
G37*
G36*
X964D02*
X945D01*
Y2163D01*
X964D01*
Y2183D01*
D02*
G37*
G36*
X998Y2148D02*
X979D01*
Y2127D01*
X998D01*
Y2148D01*
D02*
G37*
G36*
X964D02*
X945D01*
Y2127D01*
X964D01*
Y2148D01*
D02*
G37*
G36*
X586Y2214D02*
X556D01*
Y2107D01*
X586D01*
Y2214D01*
D02*
G37*
G36*
X541D02*
X511D01*
Y2107D01*
X541D01*
Y2214D01*
D02*
G37*
G36*
X789Y2212D02*
X718D01*
Y1988D01*
X720D01*
Y1923D01*
X721Y1915D01*
X722Y1911D01*
Y1882D01*
X780D01*
Y1911D01*
X781Y1915D01*
X782Y1923D01*
Y1988D01*
X789D01*
Y2134D01*
X803Y2148D01*
X867D01*
X880Y2136D01*
Y2127D01*
X881Y2118D01*
X887Y2111D01*
X888Y2110D01*
X889Y2105D01*
X884Y2100D01*
X883Y2099D01*
X878Y2098D01*
X877Y2098D01*
X866Y2109D01*
X866Y2110D01*
X865Y2116D01*
X861Y2122D01*
X855Y2125D01*
X849Y2127D01*
X843Y2125D01*
X837Y2122D01*
X837Y2122D01*
X831D01*
X830Y2123D01*
X824Y2127D01*
X818Y2128D01*
X812Y2127D01*
X806Y2123D01*
X802Y2118D01*
X801Y2111D01*
X802Y2105D01*
X806Y2099D01*
X812Y2096D01*
X818Y2094D01*
X818Y2094D01*
X825Y2087D01*
X823Y2083D01*
X817D01*
Y2071D01*
X833D01*
Y2066D01*
X838D01*
Y2050D01*
X850D01*
Y2054D01*
X915D01*
Y2050D01*
X927D01*
Y2066D01*
Y2083D01*
X915D01*
Y2079D01*
X904D01*
Y2088D01*
X911Y2096D01*
X911Y2096D01*
X914Y2099D01*
X915Y2104D01*
Y2107D01*
X920Y2111D01*
X926Y2118D01*
X927Y2127D01*
Y2129D01*
X933D01*
Y2181D01*
X902D01*
X894Y2189D01*
X886Y2194D01*
X877Y2196D01*
X877Y2196D01*
X793D01*
X793Y2196D01*
X789Y2199D01*
Y2212D01*
D02*
G37*
G36*
X227Y2126D02*
X131D01*
Y2094D01*
X227D01*
Y2126D01*
D02*
G37*
G36*
X116D02*
X19D01*
Y2094D01*
X116D01*
Y2126D01*
D02*
G37*
G36*
X1007Y2083D02*
X996D01*
Y2071D01*
X1007D01*
Y2083D01*
D02*
G37*
G36*
Y2061D02*
X996D01*
Y2050D01*
X1007D01*
Y2061D01*
D02*
G37*
G36*
X986Y2083D02*
X976D01*
Y2066D01*
Y2050D01*
X986D01*
Y2066D01*
Y2083D01*
D02*
G37*
G36*
X966D02*
X956D01*
Y2066D01*
Y2050D01*
X966D01*
Y2066D01*
Y2083D01*
D02*
G37*
G36*
X946D02*
X937D01*
Y2066D01*
Y2050D01*
X946D01*
Y2066D01*
Y2083D01*
D02*
G37*
G36*
X828Y2061D02*
X817D01*
Y2050D01*
X828D01*
Y2061D01*
D02*
G37*
G36*
X227Y2079D02*
X131D01*
Y2047D01*
X227D01*
Y2079D01*
D02*
G37*
G36*
X116D02*
X19D01*
Y2047D01*
X116D01*
Y2079D01*
D02*
G37*
G36*
X541Y2092D02*
X511D01*
Y1986D01*
X541D01*
Y2092D01*
D02*
G37*
G36*
X1095Y1994D02*
X1088Y1993D01*
X1082Y1989D01*
X1078Y1982D01*
X1076Y1975D01*
Y1951D01*
X1069D01*
Y1934D01*
X990D01*
X985Y1933D01*
X980Y1930D01*
X973Y1923D01*
X944D01*
Y1941D01*
X919D01*
Y1897D01*
X937D01*
X938Y1896D01*
X943Y1895D01*
X979D01*
X984Y1896D01*
X989Y1899D01*
X996Y1906D01*
X1069D01*
Y1902D01*
X1121D01*
Y1951D01*
X1114D01*
Y1975D01*
X1113Y1982D01*
X1109Y1989D01*
X1102Y1993D01*
X1095Y1994D01*
D02*
G37*
G36*
X889Y1925D02*
X878D01*
Y1914D01*
X889D01*
Y1925D01*
D02*
G37*
G36*
X868D02*
X856D01*
Y1914D01*
X868D01*
Y1925D01*
D02*
G37*
G36*
X227Y1938D02*
X131D01*
Y1906D01*
X227D01*
Y1938D01*
D02*
G37*
G36*
X116D02*
X19D01*
Y1906D01*
X116D01*
Y1938D01*
D02*
G37*
G36*
X1123Y1890D02*
X1102D01*
Y1871D01*
X1123D01*
Y1890D01*
D02*
G37*
G36*
X1087D02*
X1067D01*
Y1871D01*
X1087D01*
Y1890D01*
D02*
G37*
G36*
X227Y1891D02*
X131D01*
Y1859D01*
X227D01*
Y1891D01*
D02*
G37*
G36*
X116D02*
X19D01*
Y1859D01*
X116D01*
Y1891D01*
D02*
G37*
G36*
X1123Y1856D02*
X1102D01*
Y1837D01*
X1123D01*
Y1856D01*
D02*
G37*
G36*
X1087D02*
X1067D01*
Y1837D01*
X1087D01*
Y1856D01*
D02*
G37*
G36*
X987Y1847D02*
X976D01*
Y1830D01*
X966D01*
Y1847D01*
X955D01*
Y1827D01*
X937D01*
Y1811D01*
Y1794D01*
X946D01*
Y1811D01*
X956D01*
Y1794D01*
X966D01*
Y1811D01*
X976D01*
Y1794D01*
X986D01*
Y1811D01*
X991D01*
Y1816D01*
X1007D01*
Y1827D01*
X987D01*
Y1847D01*
D02*
G37*
G36*
X889Y1904D02*
X873D01*
X856D01*
Y1894D01*
X856Y1893D01*
X856Y1888D01*
X852Y1885D01*
X847Y1877D01*
X845Y1868D01*
X847Y1859D01*
X852Y1852D01*
X851Y1847D01*
X837D01*
Y1835D01*
X853D01*
Y1825D01*
X837D01*
Y1823D01*
X823D01*
X821Y1823D01*
X786D01*
Y1840D01*
X737D01*
Y1789D01*
X748D01*
Y1776D01*
X746Y1774D01*
X745Y1768D01*
X746Y1762D01*
X750Y1756D01*
X756Y1752D01*
X762Y1751D01*
X768Y1752D01*
X774Y1756D01*
X778Y1762D01*
X779Y1768D01*
X778Y1774D01*
X775Y1778D01*
Y1789D01*
X786D01*
Y1796D01*
X821D01*
X826Y1797D01*
X828Y1798D01*
X844D01*
Y1781D01*
X791Y1728D01*
X784Y1729D01*
X775Y1727D01*
X767Y1722D01*
X762Y1714D01*
X760Y1705D01*
X762Y1696D01*
X767Y1688D01*
X775Y1683D01*
X784Y1681D01*
X793Y1683D01*
X801Y1688D01*
X806Y1696D01*
X808Y1705D01*
X807Y1712D01*
X863Y1768D01*
X863Y1768D01*
X866Y1772D01*
X867Y1776D01*
X867Y1776D01*
Y1798D01*
X877D01*
X878Y1797D01*
X880Y1793D01*
X879Y1789D01*
Y1788D01*
X880Y1783D01*
X883Y1779D01*
X897Y1765D01*
X896Y1762D01*
X896D01*
Y1710D01*
X907D01*
Y1696D01*
X904Y1692D01*
X903Y1686D01*
X904Y1680D01*
X908Y1674D01*
X914Y1670D01*
X920Y1669D01*
X926Y1670D01*
X932Y1674D01*
X936Y1680D01*
X937Y1686D01*
X936Y1692D01*
X934Y1694D01*
Y1710D01*
X945D01*
Y1762D01*
X934D01*
X933Y1766D01*
X930Y1771D01*
X907Y1794D01*
X905Y1798D01*
Y1823D01*
X884D01*
Y1850D01*
X886Y1851D01*
X891Y1859D01*
X893Y1868D01*
X891Y1877D01*
X886Y1885D01*
X882Y1888D01*
X883Y1893D01*
X889D01*
Y1904D01*
D02*
G37*
G36*
X725Y1842D02*
X706D01*
Y1822D01*
X725D01*
Y1842D01*
D02*
G37*
G36*
X927Y1827D02*
X915D01*
Y1816D01*
X927D01*
Y1827D01*
D02*
G37*
G36*
X1007Y1806D02*
X996D01*
Y1794D01*
X1007D01*
Y1806D01*
D02*
G37*
G36*
X927D02*
X915D01*
Y1794D01*
X927D01*
Y1806D01*
D02*
G37*
G36*
X725Y1807D02*
X706D01*
Y1787D01*
X725D01*
Y1807D01*
D02*
G37*
G36*
X1010Y1764D02*
X991D01*
Y1743D01*
X1010D01*
Y1764D01*
D02*
G37*
G36*
X976D02*
X957D01*
Y1743D01*
X976D01*
Y1764D01*
D02*
G37*
G36*
X1010Y1729D02*
X991D01*
Y1708D01*
X1010D01*
Y1729D01*
D02*
G37*
G36*
X976D02*
X957D01*
Y1708D01*
X976D01*
Y1729D01*
D02*
G37*
G36*
X152Y1673D02*
X119D01*
X119Y1670D01*
X123Y1660D01*
X130Y1651D01*
X139Y1645D01*
X149Y1641D01*
X152Y1640D01*
Y1673D01*
D02*
G37*
G36*
X200D02*
X167D01*
Y1640D01*
X170Y1641D01*
X181Y1645D01*
X189Y1651D01*
X196Y1660D01*
X200Y1670D01*
X200Y1673D01*
D02*
G37*
G36*
X227Y1603D02*
X131D01*
Y1571D01*
X227D01*
Y1603D01*
D02*
G37*
G36*
X116D02*
X19D01*
Y1571D01*
X116D01*
Y1603D01*
D02*
G37*
G36*
X227Y1556D02*
X131D01*
Y1524D01*
X227D01*
Y1556D01*
D02*
G37*
G36*
X116D02*
X19D01*
Y1524D01*
X116D01*
Y1556D01*
D02*
G37*
G36*
X1297Y1519D02*
X1274D01*
Y1490D01*
X1297D01*
Y1519D01*
D02*
G37*
G36*
Y1474D02*
X1274D01*
Y1445D01*
X1297D01*
Y1474D01*
D02*
G37*
G36*
X1010Y1340D02*
Y1309D01*
X1041D01*
X1041Y1311D01*
X1037Y1321D01*
X1031Y1329D01*
X1022Y1336D01*
X1013Y1339D01*
X1010Y1340D01*
D02*
G37*
G36*
X995D02*
X992Y1339D01*
X983Y1336D01*
X974Y1329D01*
X968Y1321D01*
X964Y1311D01*
X964Y1309D01*
X995D01*
Y1340D01*
D02*
G37*
G36*
X310D02*
Y1309D01*
X341D01*
X341Y1311D01*
X337Y1321D01*
X331Y1329D01*
X322Y1336D01*
X313Y1339D01*
X310Y1340D01*
D02*
G37*
G36*
X210D02*
Y1309D01*
X241D01*
X241Y1311D01*
X237Y1321D01*
X231Y1329D01*
X222Y1336D01*
X213Y1339D01*
X210Y1340D01*
D02*
G37*
G36*
X295D02*
X292Y1339D01*
X283Y1336D01*
X274Y1329D01*
X268Y1321D01*
X264Y1311D01*
X264Y1309D01*
X295D01*
Y1340D01*
D02*
G37*
G36*
X195D02*
X192Y1339D01*
X183Y1336D01*
X174Y1329D01*
X168Y1321D01*
X164Y1311D01*
X164Y1309D01*
X195D01*
Y1340D01*
D02*
G37*
G36*
X341Y1293D02*
X310D01*
Y1262D01*
X313Y1263D01*
X322Y1266D01*
X331Y1273D01*
X337Y1281D01*
X341Y1291D01*
X341Y1293D01*
D02*
G37*
G36*
X241D02*
X210D01*
Y1262D01*
X213Y1263D01*
X222Y1266D01*
X231Y1273D01*
X237Y1281D01*
X241Y1291D01*
X241Y1293D01*
D02*
G37*
G36*
X995Y1293D02*
X964D01*
X964Y1291D01*
X968Y1281D01*
X974Y1273D01*
X983Y1266D01*
X992Y1263D01*
X995Y1262D01*
Y1293D01*
D02*
G37*
G36*
X1041D02*
X1010D01*
Y1262D01*
X1013Y1263D01*
X1022Y1266D01*
X1031Y1273D01*
X1037Y1281D01*
X1041Y1291D01*
X1041Y1293D01*
D02*
G37*
G36*
X295Y1293D02*
X264D01*
X264Y1291D01*
X268Y1281D01*
X274Y1273D01*
X283Y1266D01*
X292Y1263D01*
X295Y1262D01*
Y1293D01*
D02*
G37*
G36*
X195D02*
X164D01*
X164Y1291D01*
X168Y1281D01*
X174Y1273D01*
X183Y1266D01*
X192Y1263D01*
X195Y1262D01*
Y1293D01*
D02*
G37*
G36*
X1010Y740D02*
Y709D01*
X1041D01*
X1041Y711D01*
X1037Y721D01*
X1031Y729D01*
X1022Y735D01*
X1013Y739D01*
X1010Y740D01*
D02*
G37*
G36*
X995D02*
X992Y739D01*
X983Y735D01*
X974Y729D01*
X968Y721D01*
X964Y711D01*
X964Y709D01*
X995D01*
Y740D01*
D02*
G37*
G36*
X1041Y693D02*
X1010D01*
Y662D01*
X1013Y663D01*
X1022Y666D01*
X1031Y673D01*
X1037Y681D01*
X1041Y691D01*
X1041Y693D01*
D02*
G37*
G36*
X995D02*
X964D01*
X964Y691D01*
X968Y681D01*
X974Y673D01*
X983Y666D01*
X992Y663D01*
X995Y662D01*
Y693D01*
D02*
G37*
G36*
X586Y2092D02*
X556D01*
Y1986D01*
X579D01*
Y1853D01*
X584D01*
Y1611D01*
X586Y1598D01*
X591Y1587D01*
X598Y1577D01*
X729Y1446D01*
X739Y1439D01*
X751Y1434D01*
X763Y1432D01*
X802D01*
Y1415D01*
X1010D01*
Y1431D01*
X1091D01*
Y1337D01*
X1092Y1323D01*
X1096Y1309D01*
X1103Y1296D01*
X1113Y1284D01*
X1127Y1270D01*
Y1225D01*
Y1166D01*
Y1100D01*
Y935D01*
Y701D01*
X1129Y686D01*
X1133Y672D01*
X1140Y659D01*
X1149Y648D01*
X1161Y638D01*
X1174Y631D01*
X1188Y627D01*
X1202Y626D01*
X1217Y627D01*
X1231Y631D01*
X1244Y638D01*
X1256Y648D01*
X1265Y659D01*
X1272Y672D01*
X1276Y686D01*
X1278Y701D01*
Y935D01*
Y1100D01*
Y1166D01*
Y1225D01*
Y1301D01*
X1276Y1316D01*
X1272Y1330D01*
X1265Y1343D01*
X1256Y1354D01*
X1241Y1369D01*
Y1418D01*
X1253D01*
Y1445D01*
X1259D01*
Y1482D01*
Y1519D01*
X1253D01*
Y1546D01*
X1201D01*
X1195Y1549D01*
X1181Y1553D01*
X1166Y1554D01*
X1151Y1553D01*
X1137Y1549D01*
X1124Y1542D01*
X1113Y1532D01*
X1108Y1527D01*
X1010D01*
Y1545D01*
X802D01*
Y1528D01*
X783D01*
X680Y1631D01*
Y1787D01*
X691D01*
Y1814D01*
Y1842D01*
X680D01*
Y1853D01*
X695D01*
Y1993D01*
X586D01*
Y2092D01*
D02*
G37*
G36*
X804Y546D02*
X785D01*
Y514D01*
X804D01*
Y546D01*
D02*
G37*
G36*
X770D02*
X752D01*
Y514D01*
X770D01*
Y546D01*
D02*
G37*
G36*
X902Y1339D02*
X893Y1338D01*
X884Y1334D01*
X876Y1328D01*
X870Y1320D01*
X866Y1311D01*
X865Y1301D01*
X866Y1291D01*
X870Y1282D01*
X871Y1280D01*
Y722D01*
X870Y720D01*
X866Y711D01*
X865Y701D01*
X866Y691D01*
X870Y682D01*
X876Y674D01*
X884Y668D01*
X884Y668D01*
Y544D01*
X864D01*
Y469D01*
X912D01*
Y504D01*
X916Y508D01*
X920Y514D01*
X921Y521D01*
Y668D01*
X921Y668D01*
X929Y674D01*
X935Y682D01*
X939Y691D01*
X940Y701D01*
X939Y711D01*
X935Y720D01*
X934Y722D01*
Y1280D01*
X935Y1282D01*
X939Y1291D01*
X940Y1301D01*
X939Y1311D01*
X935Y1320D01*
X929Y1328D01*
X921Y1334D01*
X912Y1338D01*
X902Y1339D01*
D02*
G37*
G36*
X804Y499D02*
X785D01*
Y467D01*
X804D01*
Y499D01*
D02*
G37*
G36*
X770D02*
X752D01*
Y467D01*
X770D01*
Y499D01*
D02*
G37*
G36*
X302Y747D02*
X202D01*
X190Y746D01*
X179Y741D01*
X170Y734D01*
X162Y724D01*
X158Y713D01*
X156Y701D01*
X158Y689D01*
X162Y678D01*
X170Y668D01*
X179Y661D01*
X190Y656D01*
X202Y655D01*
X256D01*
Y520D01*
X256Y520D01*
X258Y508D01*
X262Y497D01*
Y469D01*
X292D01*
X300Y465D01*
X312Y464D01*
X451D01*
X457Y461D01*
X469Y460D01*
X481Y461D01*
X492Y466D01*
X502Y473D01*
X505Y477D01*
X511D01*
Y486D01*
X514Y494D01*
X516Y506D01*
X514Y518D01*
X511Y526D01*
Y535D01*
X505D01*
X502Y539D01*
X498Y543D01*
X488Y550D01*
X477Y555D01*
X471Y556D01*
X465Y556D01*
X465Y556D01*
X349D01*
Y701D01*
X347Y713D01*
X343Y724D01*
X335Y734D01*
X326Y741D01*
X314Y746D01*
X302Y747D01*
D02*
G37*
G36*
X365Y439D02*
X320D01*
Y403D01*
X365D01*
Y439D01*
D02*
G37*
G36*
X305D02*
X260D01*
Y403D01*
X305D01*
Y439D01*
D02*
G37*
G36*
X513Y419D02*
X477D01*
Y395D01*
X513D01*
Y419D01*
D02*
G37*
G36*
X462D02*
X426D01*
Y395D01*
X462D01*
Y419D01*
D02*
G37*
G36*
X802Y1339D02*
X793Y1338D01*
X784Y1334D01*
X776Y1328D01*
X770Y1320D01*
X766Y1311D01*
X765Y1301D01*
X766Y1291D01*
X770Y1282D01*
X771Y1280D01*
Y722D01*
X770Y720D01*
X766Y711D01*
X765Y701D01*
X766Y691D01*
X770Y682D01*
X776Y674D01*
X784Y668D01*
X784Y668D01*
Y631D01*
X785Y623D01*
X789Y617D01*
X814Y592D01*
Y443D01*
X801D01*
Y380D01*
X865D01*
Y443D01*
X852D01*
Y600D01*
X850Y607D01*
X846Y613D01*
X821Y638D01*
Y668D01*
X821Y668D01*
X829Y674D01*
X835Y682D01*
X839Y691D01*
X840Y701D01*
X839Y711D01*
X835Y720D01*
X834Y722D01*
Y1280D01*
X835Y1282D01*
X839Y1291D01*
X840Y1301D01*
X839Y1311D01*
X835Y1320D01*
X829Y1328D01*
X821Y1334D01*
X812Y1338D01*
X802Y1339D01*
D02*
G37*
G36*
X513Y380D02*
X477D01*
Y357D01*
X513D01*
Y380D01*
D02*
G37*
G36*
X462D02*
X426D01*
Y357D01*
X462D01*
Y380D01*
D02*
G37*
G36*
X365Y388D02*
X320D01*
Y352D01*
X365D01*
Y388D01*
D02*
G37*
G36*
X305D02*
X260D01*
Y352D01*
X305D01*
Y388D01*
D02*
G37*
G36*
X422Y292D02*
Y255D01*
X459D01*
X459Y259D01*
X454Y270D01*
X447Y279D01*
X437Y287D01*
X426Y291D01*
X422Y292D01*
D02*
G37*
G36*
X407D02*
X403Y291D01*
X391Y287D01*
X382Y279D01*
X375Y270D01*
X370Y259D01*
X370Y255D01*
X407D01*
Y292D01*
D02*
G37*
G36*
X1029Y280D02*
X998D01*
Y250D01*
X1029D01*
Y280D01*
D02*
G37*
G36*
X984D02*
X953D01*
Y250D01*
X984D01*
Y280D01*
D02*
G37*
G36*
X459Y240D02*
X422D01*
Y202D01*
X426Y203D01*
X437Y207D01*
X447Y215D01*
X454Y224D01*
X459Y235D01*
X459Y240D01*
D02*
G37*
G36*
X407D02*
X370D01*
X370Y235D01*
X375Y224D01*
X382Y215D01*
X391Y207D01*
X403Y203D01*
X407Y202D01*
Y240D01*
D02*
G37*
G36*
X991Y242D02*
D01*
Y235D01*
X953D01*
Y206D01*
X953Y205D01*
Y201D01*
X953Y200D01*
Y171D01*
X991D01*
Y164D01*
D01*
Y171D01*
X1029D01*
Y200D01*
X1029Y201D01*
Y205D01*
X1029Y206D01*
Y235D01*
X991D01*
Y242D01*
D02*
G37*
G36*
X1270Y236D02*
Y147D01*
X1358D01*
X1357Y159D01*
X1352Y177D01*
X1343Y194D01*
X1331Y209D01*
X1316Y221D01*
X1299Y230D01*
X1281Y235D01*
X1270Y236D01*
D02*
G37*
G36*
X1255D02*
X1243Y235D01*
X1225Y230D01*
X1208Y221D01*
X1193Y209D01*
X1181Y194D01*
X1172Y177D01*
X1167Y159D01*
X1166Y147D01*
X1255D01*
Y236D01*
D02*
G37*
G36*
X147D02*
Y147D01*
X236D01*
X235Y159D01*
X230Y177D01*
X221Y194D01*
X209Y209D01*
X194Y221D01*
X177Y230D01*
X159Y235D01*
X147Y236D01*
D02*
G37*
G36*
X132D02*
X121Y235D01*
X103Y230D01*
X86Y221D01*
X71Y209D01*
X59Y194D01*
X50Y177D01*
X45Y159D01*
X44Y147D01*
X132D01*
Y236D01*
D02*
G37*
G36*
X564Y291D02*
X553Y289D01*
X542Y285D01*
X533Y278D01*
X526Y269D01*
X522Y258D01*
X521Y247D01*
X522Y236D01*
X526Y225D01*
X533Y216D01*
X537Y213D01*
Y113D01*
X530Y112D01*
X520Y108D01*
X512Y102D01*
X506Y94D01*
X502Y84D01*
X500Y74D01*
X502Y63D01*
X506Y54D01*
X512Y46D01*
X520Y39D01*
X530Y35D01*
X540Y34D01*
X550Y35D01*
X560Y39D01*
X568Y46D01*
X574Y54D01*
X578Y63D01*
X580Y74D01*
X578Y84D01*
X575Y93D01*
Y205D01*
X576Y205D01*
X586Y209D01*
X595Y216D01*
X602Y225D01*
X605Y232D01*
X786D01*
Y207D01*
X803D01*
Y199D01*
X786D01*
Y128D01*
X858D01*
Y199D01*
X841D01*
Y207D01*
X858D01*
Y278D01*
X786D01*
Y270D01*
X602D01*
X595Y278D01*
X586Y285D01*
X576Y289D01*
X564Y291D01*
D02*
G37*
G36*
X1029Y156D02*
X998D01*
Y126D01*
X1029D01*
Y156D01*
D02*
G37*
G36*
X984D02*
X953D01*
Y126D01*
X984D01*
Y156D01*
D02*
G37*
G36*
X447Y115D02*
Y81D01*
X481D01*
X480Y85D01*
X476Y95D01*
X470Y103D01*
X461Y110D01*
X451Y114D01*
X447Y115D01*
D02*
G37*
G36*
X433D02*
X429Y114D01*
X419Y110D01*
X410Y103D01*
X404Y95D01*
X400Y85D01*
X399Y81D01*
X433D01*
Y115D01*
D02*
G37*
G36*
X1358Y132D02*
X1270D01*
Y44D01*
X1281Y45D01*
X1299Y50D01*
X1316Y59D01*
X1331Y71D01*
X1343Y86D01*
X1352Y103D01*
X1357Y121D01*
X1358Y132D01*
D02*
G37*
G36*
X1255D02*
X1166D01*
X1167Y121D01*
X1172Y103D01*
X1181Y86D01*
X1193Y71D01*
X1208Y59D01*
X1225Y50D01*
X1243Y45D01*
X1255Y44D01*
Y132D01*
D02*
G37*
G36*
X236D02*
X147D01*
Y44D01*
X159Y45D01*
X177Y50D01*
X194Y59D01*
X209Y71D01*
X221Y86D01*
X230Y103D01*
X235Y121D01*
X236Y132D01*
D02*
G37*
G36*
X132D02*
X44D01*
X45Y121D01*
X50Y103D01*
X59Y86D01*
X71Y71D01*
X86Y59D01*
X103Y50D01*
X121Y45D01*
X132Y44D01*
Y132D01*
D02*
G37*
G36*
X481Y66D02*
X447D01*
Y33D01*
X451Y33D01*
X461Y38D01*
X470Y44D01*
X476Y53D01*
X480Y63D01*
X481Y66D01*
D02*
G37*
G36*
X433D02*
X399D01*
X400Y63D01*
X404Y53D01*
X410Y44D01*
X419Y38D01*
X429Y33D01*
X433Y33D01*
Y66D01*
D02*
G37*
%LPD*%
D10*
X822Y164D02*
D03*
Y242D02*
D03*
X594Y2370D02*
D03*
Y2448D02*
D03*
X991Y242D02*
D03*
Y164D02*
D03*
D11*
X510Y2768D02*
D03*
X448D02*
D03*
X699Y1814D02*
D03*
X761D02*
D03*
X983Y1736D02*
D03*
X921D02*
D03*
X971Y2155D02*
D03*
X908D02*
D03*
D12*
X1095Y1864D02*
D03*
Y1927D02*
D03*
D13*
X833Y2066D02*
D03*
X853D02*
D03*
X873D02*
D03*
X892D02*
D03*
X912D02*
D03*
X932D02*
D03*
X951D02*
D03*
X971D02*
D03*
X991D02*
D03*
X932Y1929D02*
D03*
X873Y1909D02*
D03*
X932D02*
D03*
X853Y1830D02*
D03*
X833Y1811D02*
D03*
X991D02*
D03*
X971D02*
D03*
X951D02*
D03*
X932D02*
D03*
X892D02*
D03*
X853D02*
D03*
X873D02*
D03*
X971Y1830D02*
D03*
D14*
X753Y2100D02*
D03*
X549D02*
D03*
D15*
X866Y2287D02*
D03*
Y2448D02*
D03*
X706Y2448D02*
D03*
Y2287D02*
D03*
D16*
X864Y2768D02*
D03*
X746D02*
D03*
D17*
X805Y2757D02*
D03*
D18*
Y2666D02*
D03*
D19*
X1282Y2929D02*
D03*
Y2595D02*
D03*
X123Y2935D02*
D03*
Y2601D02*
D03*
Y2421D02*
D03*
Y2087D02*
D03*
Y1898D02*
D03*
Y1564D02*
D03*
D20*
X1344Y2762D02*
D03*
X61Y2768D02*
D03*
Y2254D02*
D03*
Y1731D02*
D03*
D21*
X888Y507D02*
D03*
X778D02*
D03*
D22*
X833Y411D02*
D03*
D23*
X1266Y1482D02*
D03*
X1196D02*
D03*
X652Y2768D02*
D03*
X582D02*
D03*
D24*
X620Y2610D02*
D03*
X672D02*
D03*
X646Y2692D02*
D03*
D25*
X751Y1923D02*
D03*
X637D02*
D03*
D26*
X469Y388D02*
D03*
Y506D02*
D03*
D27*
X312Y510D02*
D03*
Y396D02*
D03*
D28*
X867Y1480D02*
D03*
X945D02*
D03*
D29*
X539Y71D02*
Y74D01*
X556Y90D01*
Y251D01*
X822Y164D02*
Y242D01*
X813Y251D02*
X822Y242D01*
X556Y251D02*
X813D01*
X751Y2098D02*
X753Y2100D01*
X867Y1480D02*
X868Y1479D01*
X763Y1480D02*
X867D01*
X632Y1611D02*
X763Y1480D01*
X632Y1923D02*
X637D01*
X868Y1479D02*
X1166D01*
X632Y1611D02*
Y1923D01*
X902Y521D02*
Y701D01*
X888Y507D02*
X902Y521D01*
X802Y631D02*
Y701D01*
Y631D02*
X833Y600D01*
Y411D02*
Y600D01*
X1095Y1927D02*
Y1975D01*
X1095Y1927D02*
X1095Y1927D01*
D30*
X145Y2299D02*
X159Y2284D01*
Y2266D02*
Y2284D01*
Y2266D02*
X171Y2254D01*
X179Y1731D02*
X491D01*
X61D02*
X179D01*
X145Y1765D02*
X179Y1731D01*
X145Y1765D02*
Y1784D01*
X171Y2254D02*
X335D01*
X61D02*
X171D01*
X943Y1909D02*
X943Y1909D01*
X932Y1909D02*
X943D01*
X821Y1809D02*
X832D01*
X833Y1811D01*
X893Y1789D02*
Y1810D01*
X892Y1811D02*
X893Y1810D01*
X818Y2111D02*
X840Y2088D01*
X841D01*
X818Y2111D02*
Y2111D01*
X904Y2104D02*
Y2127D01*
X892Y2093D02*
X904Y2104D01*
X841Y2088D02*
X853Y2076D01*
Y2066D02*
Y2076D01*
X849Y2110D02*
X873Y2086D01*
Y2066D02*
Y2086D01*
X892Y2066D02*
Y2093D01*
X335Y2254D02*
X460Y2129D01*
Y1947D02*
Y2129D01*
X869Y1868D02*
X873Y1864D01*
Y1811D02*
Y1864D01*
X784Y1705D02*
X855Y1776D01*
Y1808D01*
X853Y1811D02*
X855Y1808D01*
D31*
X902Y701D02*
Y1301D01*
X802Y701D02*
Y1301D01*
X202Y1294D02*
Y1301D01*
X751Y1923D02*
Y2098D01*
D32*
X594Y2448D02*
X866D01*
X594Y2370D02*
Y2448D01*
X594Y2448D01*
X866D02*
Y2766D01*
D33*
X865Y2226D02*
Y2286D01*
X710Y2283D02*
X770D01*
X865Y2226D02*
X865Y2226D01*
D34*
X870Y2762D02*
X1344D01*
X511Y2768D02*
X582D01*
X652D02*
X746D01*
X864D02*
X866Y2766D01*
X870Y2762D01*
X61Y2768D02*
X448D01*
X646Y2692D02*
Y2762D01*
X652Y2768D01*
D35*
X979Y1909D02*
X990Y1920D01*
X943Y1909D02*
X979D01*
X921Y1687D02*
Y1736D01*
X920Y1686D02*
X921Y1687D01*
Y1736D02*
Y1761D01*
X893Y1788D02*
X921Y1761D01*
X893Y1788D02*
Y1789D01*
X761Y1769D02*
X762Y1768D01*
X761Y1769D02*
Y1809D01*
Y1814D01*
Y1809D02*
X821D01*
X990Y1920D02*
X1095D01*
D36*
X753Y2132D02*
X793Y2172D01*
X877D01*
X753Y2100D02*
Y2132D01*
X904Y2127D02*
Y2146D01*
X877Y2172D02*
X904Y2146D01*
D37*
X1166Y1337D02*
X1202Y1301D01*
X1166Y1337D02*
Y1479D01*
X1202Y701D02*
Y935D01*
Y1100D01*
Y1166D01*
Y1225D01*
Y1301D01*
X302Y520D02*
Y701D01*
Y520D02*
X312Y510D01*
X465D01*
X469Y506D01*
X202Y701D02*
X302D01*
D38*
X440Y74D02*
D03*
X540D02*
D03*
X288Y2764D02*
D03*
Y2664D02*
D03*
X160Y2304D02*
D03*
Y2204D02*
D03*
Y1781D02*
D03*
Y1681D02*
D03*
D39*
X564Y247D02*
D03*
X414D02*
D03*
D40*
X802Y1301D02*
D03*
X202D02*
D03*
X302D02*
D03*
X902D02*
D03*
X1002D02*
D03*
X202Y701D02*
D03*
X302D02*
D03*
X802D02*
D03*
X902D02*
D03*
X1002D02*
D03*
X1202Y1301D02*
D03*
Y701D02*
D03*
D41*
X140Y140D02*
D03*
X1262D02*
D03*
Y3110D02*
D03*
X140D02*
D03*
D42*
X1339Y3027D02*
D03*
Y2227D02*
D03*
Y1827D02*
D03*
Y1427D02*
D03*
Y1027D02*
D03*
Y627D02*
D03*
Y227D02*
D03*
X1139Y3027D02*
D03*
Y2627D02*
D03*
X1239Y2427D02*
D03*
X1139Y2227D02*
D03*
X1239Y2027D02*
D03*
X1139Y1827D02*
D03*
X1239Y1627D02*
D03*
X1139Y627D02*
D03*
X1239Y427D02*
D03*
X1139Y227D02*
D03*
X939Y3027D02*
D03*
X1039Y2427D02*
D03*
X939Y2227D02*
D03*
X1039Y2027D02*
D03*
Y1627D02*
D03*
Y1227D02*
D03*
Y827D02*
D03*
X939Y627D02*
D03*
X1039Y427D02*
D03*
X939Y227D02*
D03*
X739Y3027D02*
D03*
Y2627D02*
D03*
Y2227D02*
D03*
X839Y2027D02*
D03*
Y1627D02*
D03*
X739Y1427D02*
D03*
Y1027D02*
D03*
Y627D02*
D03*
X539Y3027D02*
D03*
Y2627D02*
D03*
Y2227D02*
D03*
X639Y2027D02*
D03*
X539Y1827D02*
D03*
Y1427D02*
D03*
X639Y1227D02*
D03*
X539Y1027D02*
D03*
X639Y827D02*
D03*
X539Y627D02*
D03*
X639Y427D02*
D03*
X339Y3027D02*
D03*
Y2627D02*
D03*
X439Y2427D02*
D03*
X339Y1827D02*
D03*
X439Y1627D02*
D03*
X339Y1427D02*
D03*
X439Y1227D02*
D03*
X339Y1027D02*
D03*
X439Y827D02*
D03*
X339Y227D02*
D03*
X239Y2427D02*
D03*
Y2027D02*
D03*
Y1627D02*
D03*
X139Y1427D02*
D03*
X239Y1227D02*
D03*
X139Y1027D02*
D03*
X239Y827D02*
D03*
X139Y627D02*
D03*
X239Y427D02*
D03*
X292Y2838D02*
D03*
X261D02*
D03*
X231Y2829D02*
D03*
X203Y2815D02*
D03*
X172D02*
D03*
X141D02*
D03*
X111Y2822D02*
D03*
X80Y2823D02*
D03*
X49D02*
D03*
X45Y2713D02*
D03*
X76D02*
D03*
X107D02*
D03*
X137Y2721D02*
D03*
X168D02*
D03*
X199D02*
D03*
X228Y2710D02*
D03*
X347Y2711D02*
D03*
X376Y2721D02*
D03*
X406Y2714D02*
D03*
X437Y2707D02*
D03*
X468Y2708D02*
D03*
X474Y2828D02*
D03*
X443Y2829D02*
D03*
X412Y2825D02*
D03*
X383Y2815D02*
D03*
X352Y2818D02*
D03*
X327Y2837D02*
D03*
X770Y2283D02*
D03*
X920Y1686D02*
D03*
X762Y1768D02*
D03*
X865Y2226D02*
D03*
X849Y2110D02*
D03*
X818Y2111D02*
D03*
X1095Y1975D02*
D03*
X892Y2833D02*
D03*
X917Y2815D02*
D03*
X947Y2809D02*
D03*
X978D02*
D03*
X1009D02*
D03*
X1040D02*
D03*
X1071D02*
D03*
X1102D02*
D03*
X1133D02*
D03*
X1164D02*
D03*
X1195D02*
D03*
X1226D02*
D03*
X1257D02*
D03*
X1288Y2815D02*
D03*
X1319Y2817D02*
D03*
X1350D02*
D03*
X1366Y2707D02*
D03*
X1335D02*
D03*
X1304D02*
D03*
X1274Y2715D02*
D03*
X1243D02*
D03*
X1212D02*
D03*
X1181D02*
D03*
X1150D02*
D03*
X1119D02*
D03*
X1088D02*
D03*
X1057D02*
D03*
X1026D02*
D03*
X995D02*
D03*
X964D02*
D03*
X933D02*
D03*
X922Y2686D02*
D03*
Y2655D02*
D03*
Y2624D02*
D03*
Y2593D02*
D03*
Y2562D02*
D03*
Y2531D02*
D03*
X936Y2503D02*
D03*
X937Y2472D02*
D03*
Y2441D02*
D03*
Y2410D02*
D03*
X929Y2380D02*
D03*
X902Y2365D02*
D03*
X871Y2364D02*
D03*
X840D02*
D03*
X810Y2373D02*
D03*
X786Y2392D02*
D03*
X761Y2373D02*
D03*
X732Y2364D02*
D03*
X701D02*
D03*
X670Y2365D02*
D03*
X648Y2308D02*
D03*
X618Y2299D02*
D03*
X587D02*
D03*
X556Y2300D02*
D03*
X530Y2318D02*
D03*
X524Y2348D02*
D03*
Y2379D02*
D03*
X525Y2410D02*
D03*
X524Y2441D02*
D03*
Y2472D02*
D03*
X532Y2502D02*
D03*
X558Y2518D02*
D03*
X589Y2519D02*
D03*
X620D02*
D03*
X651Y2524D02*
D03*
X681Y2532D02*
D03*
X712D02*
D03*
X743Y2532D02*
D03*
X769Y2515D02*
D03*
X800Y2512D02*
D03*
X810Y2541D02*
D03*
Y2572D02*
D03*
X814Y2819D02*
D03*
X841Y2834D02*
D03*
X686Y2836D02*
D03*
X716Y2833D02*
D03*
X747Y2835D02*
D03*
X778Y2832D02*
D03*
X739Y2702D02*
D03*
X708Y2707D02*
D03*
X696Y2679D02*
D03*
X686Y2649D02*
D03*
X603Y2653D02*
D03*
X596Y2683D02*
D03*
X638Y2838D02*
D03*
X559Y2699D02*
D03*
X529Y2707D02*
D03*
X498D02*
D03*
X508Y2829D02*
D03*
X538Y2832D02*
D03*
X569Y2838D02*
D03*
X600D02*
D03*
D43*
X460Y1947D02*
D03*
X869Y1868D02*
D03*
X491Y1731D02*
D03*
X784Y1705D02*
D03*
M02*
