G04 Layer_Color=8388736*
%FSLAX23Y23*%
%MOIN*%
G70*
G01*
G75*
%ADD59R,0.067X0.067*%
%ADD60R,0.045X0.047*%
%ADD61R,0.047X0.045*%
%ADD62R,0.019X0.019*%
%ADD63R,0.067X0.221*%
%ADD64R,0.069X0.095*%
%ADD65R,0.043X0.059*%
%ADD66R,0.043X0.083*%
%ADD67R,0.075X0.114*%
%ADD68R,0.201X0.071*%
%ADD69R,0.101X0.036*%
%ADD70R,0.043X0.071*%
%ADD71R,0.059X0.059*%
%ADD72R,0.053X0.065*%
%ADD73R,0.026X0.043*%
%ADD74R,0.053X0.079*%
%ADD75R,0.079X0.053*%
%ADD76R,0.097X0.079*%
%ADD77R,0.067X0.067*%
%ADD78C,0.075*%
%ADD79C,0.083*%
%ADD80C,0.071*%
%ADD81C,0.185*%
%ADD82C,0.029*%
%ADD83C,0.043*%
D59*
X822Y164D02*
D03*
Y242D02*
D03*
X594Y2370D02*
D03*
Y2448D02*
D03*
X991Y242D02*
D03*
Y164D02*
D03*
D60*
X510Y2768D02*
D03*
X448D02*
D03*
X699Y1814D02*
D03*
X761D02*
D03*
X983Y1736D02*
D03*
X921D02*
D03*
X971Y2155D02*
D03*
X908D02*
D03*
D61*
X1095Y1864D02*
D03*
Y1927D02*
D03*
D62*
X833Y2066D02*
D03*
X853D02*
D03*
X873D02*
D03*
X892D02*
D03*
X912D02*
D03*
X932D02*
D03*
X951D02*
D03*
X971D02*
D03*
X991D02*
D03*
X932Y1929D02*
D03*
X873Y1909D02*
D03*
X932D02*
D03*
X853Y1830D02*
D03*
X833Y1811D02*
D03*
X991D02*
D03*
X971D02*
D03*
X951D02*
D03*
X932D02*
D03*
X892D02*
D03*
X853D02*
D03*
X873D02*
D03*
X971Y1830D02*
D03*
D63*
X753Y2100D02*
D03*
X549D02*
D03*
D64*
X866Y2287D02*
D03*
Y2448D02*
D03*
X706Y2448D02*
D03*
Y2287D02*
D03*
D65*
X864Y2768D02*
D03*
X746D02*
D03*
D66*
X805Y2757D02*
D03*
D67*
Y2666D02*
D03*
D68*
X1282Y2929D02*
D03*
Y2595D02*
D03*
X123Y2935D02*
D03*
Y2601D02*
D03*
Y2421D02*
D03*
Y2087D02*
D03*
Y1898D02*
D03*
Y1564D02*
D03*
D69*
X1344Y2762D02*
D03*
X61Y2768D02*
D03*
Y2254D02*
D03*
Y1731D02*
D03*
D70*
X888Y507D02*
D03*
X778D02*
D03*
D71*
X833Y411D02*
D03*
D72*
X1266Y1482D02*
D03*
X1196D02*
D03*
X652Y2768D02*
D03*
X582D02*
D03*
D73*
X620Y2610D02*
D03*
X672D02*
D03*
X646Y2692D02*
D03*
D74*
X751Y1923D02*
D03*
X637D02*
D03*
D75*
X469Y388D02*
D03*
Y506D02*
D03*
D76*
X312Y510D02*
D03*
Y396D02*
D03*
D77*
X867Y1480D02*
D03*
X945D02*
D03*
D78*
X440Y74D02*
D03*
X540D02*
D03*
X288Y2764D02*
D03*
Y2664D02*
D03*
X160Y2304D02*
D03*
Y2204D02*
D03*
Y1781D02*
D03*
Y1681D02*
D03*
D79*
X564Y247D02*
D03*
X414D02*
D03*
D80*
X802Y1301D02*
D03*
X202D02*
D03*
X302D02*
D03*
X902D02*
D03*
X1002D02*
D03*
X202Y701D02*
D03*
X302D02*
D03*
X802D02*
D03*
X902D02*
D03*
X1002D02*
D03*
X1202Y1301D02*
D03*
Y701D02*
D03*
D81*
X140Y140D02*
D03*
X1262D02*
D03*
Y3110D02*
D03*
X140D02*
D03*
D82*
X1339Y3027D02*
D03*
Y2227D02*
D03*
Y1827D02*
D03*
Y1427D02*
D03*
Y1027D02*
D03*
Y627D02*
D03*
Y227D02*
D03*
X1139Y3027D02*
D03*
Y2627D02*
D03*
X1239Y2427D02*
D03*
X1139Y2227D02*
D03*
X1239Y2027D02*
D03*
X1139Y1827D02*
D03*
X1239Y1627D02*
D03*
X1139Y627D02*
D03*
X1239Y427D02*
D03*
X1139Y227D02*
D03*
X939Y3027D02*
D03*
X1039Y2427D02*
D03*
X939Y2227D02*
D03*
X1039Y2027D02*
D03*
Y1627D02*
D03*
Y1227D02*
D03*
Y827D02*
D03*
X939Y627D02*
D03*
X1039Y427D02*
D03*
X939Y227D02*
D03*
X739Y3027D02*
D03*
Y2627D02*
D03*
Y2227D02*
D03*
X839Y2027D02*
D03*
Y1627D02*
D03*
X739Y1427D02*
D03*
Y1027D02*
D03*
Y627D02*
D03*
X539Y3027D02*
D03*
Y2627D02*
D03*
Y2227D02*
D03*
X639Y2027D02*
D03*
X539Y1827D02*
D03*
Y1427D02*
D03*
X639Y1227D02*
D03*
X539Y1027D02*
D03*
X639Y827D02*
D03*
X539Y627D02*
D03*
X639Y427D02*
D03*
X339Y3027D02*
D03*
Y2627D02*
D03*
X439Y2427D02*
D03*
X339Y1827D02*
D03*
X439Y1627D02*
D03*
X339Y1427D02*
D03*
X439Y1227D02*
D03*
X339Y1027D02*
D03*
X439Y827D02*
D03*
X339Y227D02*
D03*
X239Y2427D02*
D03*
Y2027D02*
D03*
Y1627D02*
D03*
X139Y1427D02*
D03*
X239Y1227D02*
D03*
X139Y1027D02*
D03*
X239Y827D02*
D03*
X139Y627D02*
D03*
X239Y427D02*
D03*
X292Y2838D02*
D03*
X261D02*
D03*
X231Y2829D02*
D03*
X203Y2815D02*
D03*
X172D02*
D03*
X141D02*
D03*
X111Y2822D02*
D03*
X80Y2823D02*
D03*
X49D02*
D03*
X45Y2713D02*
D03*
X76D02*
D03*
X107D02*
D03*
X137Y2721D02*
D03*
X168D02*
D03*
X199D02*
D03*
X228Y2710D02*
D03*
X347Y2711D02*
D03*
X376Y2721D02*
D03*
X406Y2714D02*
D03*
X437Y2707D02*
D03*
X468Y2708D02*
D03*
X474Y2828D02*
D03*
X443Y2829D02*
D03*
X412Y2825D02*
D03*
X383Y2815D02*
D03*
X352Y2818D02*
D03*
X327Y2837D02*
D03*
X770Y2283D02*
D03*
X920Y1686D02*
D03*
X762Y1768D02*
D03*
X865Y2226D02*
D03*
X849Y2110D02*
D03*
X818Y2111D02*
D03*
X1095Y1975D02*
D03*
X892Y2833D02*
D03*
X917Y2815D02*
D03*
X947Y2809D02*
D03*
X978D02*
D03*
X1009D02*
D03*
X1040D02*
D03*
X1071D02*
D03*
X1102D02*
D03*
X1133D02*
D03*
X1164D02*
D03*
X1195D02*
D03*
X1226D02*
D03*
X1257D02*
D03*
X1288Y2815D02*
D03*
X1319Y2817D02*
D03*
X1350D02*
D03*
X1366Y2707D02*
D03*
X1335D02*
D03*
X1304D02*
D03*
X1274Y2715D02*
D03*
X1243D02*
D03*
X1212D02*
D03*
X1181D02*
D03*
X1150D02*
D03*
X1119D02*
D03*
X1088D02*
D03*
X1057D02*
D03*
X1026D02*
D03*
X995D02*
D03*
X964D02*
D03*
X933D02*
D03*
X922Y2686D02*
D03*
Y2655D02*
D03*
Y2624D02*
D03*
Y2593D02*
D03*
Y2562D02*
D03*
Y2531D02*
D03*
X936Y2503D02*
D03*
X937Y2472D02*
D03*
Y2441D02*
D03*
Y2410D02*
D03*
X929Y2380D02*
D03*
X902Y2365D02*
D03*
X871Y2364D02*
D03*
X840D02*
D03*
X810Y2373D02*
D03*
X786Y2392D02*
D03*
X761Y2373D02*
D03*
X732Y2364D02*
D03*
X701D02*
D03*
X670Y2365D02*
D03*
X648Y2308D02*
D03*
X618Y2299D02*
D03*
X587D02*
D03*
X556Y2300D02*
D03*
X530Y2318D02*
D03*
X524Y2348D02*
D03*
Y2379D02*
D03*
X525Y2410D02*
D03*
X524Y2441D02*
D03*
Y2472D02*
D03*
X532Y2502D02*
D03*
X558Y2518D02*
D03*
X589Y2519D02*
D03*
X620D02*
D03*
X651Y2524D02*
D03*
X681Y2532D02*
D03*
X712D02*
D03*
X743Y2532D02*
D03*
X769Y2515D02*
D03*
X800Y2512D02*
D03*
X810Y2541D02*
D03*
Y2572D02*
D03*
X814Y2819D02*
D03*
X841Y2834D02*
D03*
X686Y2836D02*
D03*
X716Y2833D02*
D03*
X747Y2835D02*
D03*
X778Y2832D02*
D03*
X739Y2702D02*
D03*
X708Y2707D02*
D03*
X696Y2679D02*
D03*
X686Y2649D02*
D03*
X603Y2653D02*
D03*
X596Y2683D02*
D03*
X638Y2838D02*
D03*
X559Y2699D02*
D03*
X529Y2707D02*
D03*
X498D02*
D03*
X508Y2829D02*
D03*
X538Y2832D02*
D03*
X569Y2838D02*
D03*
X600D02*
D03*
D83*
X460Y1947D02*
D03*
X869Y1868D02*
D03*
X491Y1731D02*
D03*
X784Y1705D02*
D03*
M02*
