G04 Layer_Physical_Order=4*
G04 Layer_Color=16711680*
%FSLAX23Y23*%
%MOIN*%
G70*
G01*
G75*
%ADD10C,0.012*%
%ADD31R,0.193X0.063*%
%ADD47C,0.025*%
%ADD48C,0.015*%
%ADD49C,0.035*%
%ADD51C,0.020*%
%ADD59C,0.063*%
%ADD60C,0.067*%
%ADD61C,0.040*%
%ADD62C,0.075*%
%ADD63C,0.021*%
%ADD64C,0.035*%
G36*
X2943Y2137D02*
X2985Y2132D01*
X3027Y2122D01*
X3067Y2109D01*
X3107Y2093D01*
X3144Y2073D01*
X3180Y2051D01*
X3214Y2025D01*
X3246Y1996D01*
X3275Y1964D01*
X3301Y1930D01*
X3323Y1894D01*
X3343Y1857D01*
X3359Y1817D01*
X3372Y1777D01*
X3382Y1735D01*
X3387Y1693D01*
X3389Y1651D01*
X3389Y1650D01*
Y1534D01*
X3384Y1533D01*
X3384Y1533D01*
X3287D01*
Y1493D01*
Y1454D01*
X3384D01*
X3384Y1454D01*
X3389Y1452D01*
Y1200D01*
X3384Y1198D01*
X3384Y1198D01*
X3287D01*
Y1159D01*
Y1119D01*
X3384D01*
X3384Y1119D01*
X3389Y1118D01*
Y-400D01*
X3389Y-401D01*
X3387Y-443D01*
X3382Y-485D01*
X3372Y-527D01*
X3359Y-567D01*
X3343Y-607D01*
X3323Y-644D01*
X3301Y-680D01*
X3275Y-714D01*
X3246Y-746D01*
X3214Y-775D01*
X3180Y-801D01*
X3144Y-823D01*
X3107Y-843D01*
X3067Y-859D01*
X3027Y-872D01*
X2985Y-882D01*
X2943Y-887D01*
X2901Y-889D01*
X2900Y-889D01*
X250D01*
X250Y-889D01*
X223Y-887D01*
X197Y-883D01*
X171Y-875D01*
X146Y-865D01*
X123Y-852D01*
X101Y-837D01*
X81Y-819D01*
X63Y-799D01*
X48Y-777D01*
X35Y-754D01*
X25Y-729D01*
X17Y-703D01*
X13Y-677D01*
X11Y-650D01*
X11Y-650D01*
Y829D01*
X850D01*
X854Y830D01*
X858Y832D01*
X860Y836D01*
X861Y840D01*
Y1510D01*
X860Y1514D01*
X858Y1518D01*
X854Y1520D01*
X850Y1521D01*
X11D01*
Y1900D01*
X11Y1900D01*
X13Y1927D01*
X17Y1953D01*
X25Y1979D01*
X35Y2004D01*
X48Y2027D01*
X63Y2049D01*
X81Y2069D01*
X101Y2087D01*
X123Y2102D01*
X146Y2115D01*
X171Y2125D01*
X197Y2133D01*
X223Y2137D01*
X250Y2139D01*
X250Y2139D01*
X2900D01*
X2901Y2139D01*
X2943Y2137D01*
D02*
G37*
%LPC*%
G36*
X782Y2116D02*
Y2082D01*
X816D01*
X815Y2086D01*
X811Y2096D01*
X805Y2105D01*
X796Y2111D01*
X786Y2115D01*
X782Y2116D01*
D02*
G37*
G36*
X767D02*
X764Y2115D01*
X754Y2111D01*
X745Y2105D01*
X739Y2096D01*
X735Y2086D01*
X734Y2082D01*
X767D01*
Y2116D01*
D02*
G37*
G36*
X1975Y2115D02*
X1965Y2113D01*
X1955Y2109D01*
X1947Y2103D01*
X1941Y2095D01*
X1937Y2085D01*
X1935Y2075D01*
X1937Y2065D01*
X1941Y2055D01*
X1947Y2047D01*
X1955Y2041D01*
X1965Y2037D01*
X1975Y2035D01*
X1985Y2037D01*
X1995Y2041D01*
X2003Y2047D01*
X2009Y2055D01*
X2013Y2065D01*
X2015Y2075D01*
X2013Y2085D01*
X2009Y2095D01*
X2003Y2103D01*
X1995Y2109D01*
X1985Y2113D01*
X1975Y2115D01*
D02*
G37*
G36*
X1875D02*
X1865Y2113D01*
X1855Y2109D01*
X1847Y2103D01*
X1841Y2095D01*
X1837Y2085D01*
X1835Y2075D01*
X1837Y2065D01*
X1841Y2055D01*
X1847Y2047D01*
X1855Y2041D01*
X1865Y2037D01*
X1875Y2035D01*
X1885Y2037D01*
X1895Y2041D01*
X1903Y2047D01*
X1909Y2055D01*
X1913Y2065D01*
X1915Y2075D01*
X1913Y2085D01*
X1909Y2095D01*
X1903Y2103D01*
X1895Y2109D01*
X1885Y2113D01*
X1875Y2115D01*
D02*
G37*
G36*
X1775D02*
X1765Y2113D01*
X1755Y2109D01*
X1747Y2103D01*
X1741Y2095D01*
X1737Y2085D01*
X1735Y2075D01*
X1737Y2065D01*
X1741Y2055D01*
X1747Y2047D01*
X1755Y2041D01*
X1765Y2037D01*
X1775Y2035D01*
X1785Y2037D01*
X1795Y2041D01*
X1803Y2047D01*
X1809Y2055D01*
X1813Y2065D01*
X1815Y2075D01*
X1813Y2085D01*
X1809Y2095D01*
X1803Y2103D01*
X1795Y2109D01*
X1785Y2113D01*
X1775Y2115D01*
D02*
G37*
G36*
X1675D02*
X1665Y2113D01*
X1655Y2109D01*
X1647Y2103D01*
X1641Y2095D01*
X1637Y2085D01*
X1635Y2075D01*
X1637Y2065D01*
X1641Y2055D01*
X1647Y2047D01*
X1655Y2041D01*
X1665Y2037D01*
X1675Y2035D01*
X1685Y2037D01*
X1695Y2041D01*
X1703Y2047D01*
X1709Y2055D01*
X1713Y2065D01*
X1715Y2075D01*
X1713Y2085D01*
X1709Y2095D01*
X1703Y2103D01*
X1695Y2109D01*
X1685Y2113D01*
X1675Y2115D01*
D02*
G37*
G36*
X1575D02*
X1565Y2113D01*
X1555Y2109D01*
X1547Y2103D01*
X1541Y2095D01*
X1537Y2085D01*
X1535Y2075D01*
X1537Y2065D01*
X1541Y2055D01*
X1547Y2047D01*
X1555Y2041D01*
X1565Y2037D01*
X1575Y2035D01*
X1585Y2037D01*
X1595Y2041D01*
X1603Y2047D01*
X1609Y2055D01*
X1613Y2065D01*
X1615Y2075D01*
X1613Y2085D01*
X1609Y2095D01*
X1603Y2103D01*
X1595Y2109D01*
X1585Y2113D01*
X1575Y2115D01*
D02*
G37*
G36*
X1475D02*
X1465Y2113D01*
X1455Y2109D01*
X1447Y2103D01*
X1441Y2095D01*
X1437Y2085D01*
X1435Y2075D01*
X1437Y2065D01*
X1441Y2055D01*
X1447Y2047D01*
X1455Y2041D01*
X1465Y2037D01*
X1475Y2035D01*
X1485Y2037D01*
X1495Y2041D01*
X1503Y2047D01*
X1509Y2055D01*
X1513Y2065D01*
X1515Y2075D01*
X1513Y2085D01*
X1509Y2095D01*
X1503Y2103D01*
X1495Y2109D01*
X1485Y2113D01*
X1475Y2115D01*
D02*
G37*
G36*
X1375D02*
X1365Y2113D01*
X1355Y2109D01*
X1347Y2103D01*
X1341Y2095D01*
X1337Y2085D01*
X1335Y2075D01*
X1337Y2065D01*
X1341Y2055D01*
X1347Y2047D01*
X1355Y2041D01*
X1365Y2037D01*
X1375Y2035D01*
X1385Y2037D01*
X1395Y2041D01*
X1403Y2047D01*
X1409Y2055D01*
X1413Y2065D01*
X1415Y2075D01*
X1413Y2085D01*
X1409Y2095D01*
X1403Y2103D01*
X1395Y2109D01*
X1385Y2113D01*
X1375Y2115D01*
D02*
G37*
G36*
X1275D02*
X1265Y2113D01*
X1255Y2109D01*
X1247Y2103D01*
X1241Y2095D01*
X1237Y2085D01*
X1235Y2075D01*
X1237Y2065D01*
X1241Y2055D01*
X1247Y2047D01*
X1255Y2041D01*
X1265Y2037D01*
X1275Y2035D01*
X1285Y2037D01*
X1295Y2041D01*
X1303Y2047D01*
X1309Y2055D01*
X1313Y2065D01*
X1315Y2075D01*
X1313Y2085D01*
X1309Y2095D01*
X1303Y2103D01*
X1295Y2109D01*
X1285Y2113D01*
X1275Y2115D01*
D02*
G37*
G36*
X1175D02*
X1165Y2113D01*
X1155Y2109D01*
X1147Y2103D01*
X1141Y2095D01*
X1137Y2085D01*
X1135Y2075D01*
X1137Y2065D01*
X1141Y2055D01*
X1147Y2047D01*
X1155Y2041D01*
X1165Y2037D01*
X1175Y2035D01*
X1185Y2037D01*
X1195Y2041D01*
X1203Y2047D01*
X1209Y2055D01*
X1213Y2065D01*
X1215Y2075D01*
X1213Y2085D01*
X1209Y2095D01*
X1203Y2103D01*
X1195Y2109D01*
X1185Y2113D01*
X1175Y2115D01*
D02*
G37*
G36*
X1075D02*
X1065Y2113D01*
X1055Y2109D01*
X1047Y2103D01*
X1041Y2095D01*
X1037Y2085D01*
X1035Y2075D01*
X1037Y2065D01*
X1041Y2055D01*
X1047Y2047D01*
X1055Y2041D01*
X1065Y2037D01*
X1075Y2035D01*
X1085Y2037D01*
X1095Y2041D01*
X1103Y2047D01*
X1109Y2055D01*
X1113Y2065D01*
X1115Y2075D01*
X1113Y2085D01*
X1109Y2095D01*
X1103Y2103D01*
X1095Y2109D01*
X1085Y2113D01*
X1075Y2115D01*
D02*
G37*
G36*
X975D02*
X965Y2113D01*
X955Y2109D01*
X947Y2103D01*
X941Y2095D01*
X937Y2085D01*
X935Y2075D01*
X937Y2065D01*
X941Y2055D01*
X947Y2047D01*
X955Y2041D01*
X965Y2037D01*
X975Y2035D01*
X985Y2037D01*
X995Y2041D01*
X1003Y2047D01*
X1009Y2055D01*
X1013Y2065D01*
X1015Y2075D01*
X1013Y2085D01*
X1009Y2095D01*
X1003Y2103D01*
X995Y2109D01*
X985Y2113D01*
X975Y2115D01*
D02*
G37*
G36*
X875D02*
X865Y2113D01*
X855Y2109D01*
X847Y2103D01*
X841Y2095D01*
X837Y2085D01*
X835Y2075D01*
X837Y2065D01*
X841Y2055D01*
X847Y2047D01*
X855Y2041D01*
X865Y2037D01*
X875Y2035D01*
X885Y2037D01*
X895Y2041D01*
X903Y2047D01*
X909Y2055D01*
X913Y2065D01*
X915Y2075D01*
X913Y2085D01*
X909Y2095D01*
X903Y2103D01*
X895Y2109D01*
X885Y2113D01*
X875Y2115D01*
D02*
G37*
G36*
X767Y2068D02*
X734D01*
X735Y2064D01*
X739Y2054D01*
X745Y2045D01*
X754Y2039D01*
X764Y2035D01*
X767Y2034D01*
Y2068D01*
D02*
G37*
G36*
X816D02*
X782D01*
Y2034D01*
X786Y2035D01*
X796Y2039D01*
X805Y2045D01*
X811Y2054D01*
X815Y2064D01*
X816Y2068D01*
D02*
G37*
G36*
X2975Y2116D02*
X2965Y2114D01*
X2955Y2110D01*
X2947Y2104D01*
X2941Y2096D01*
X2937Y2086D01*
X2935Y2076D01*
X2937Y2066D01*
X2941Y2056D01*
X2947Y2048D01*
X2955Y2042D01*
X2965Y2038D01*
X2975Y2036D01*
X2985Y2038D01*
X2991Y2040D01*
X3037Y1994D01*
X3038Y1994D01*
X3036Y1989D01*
X3012D01*
X3009Y1995D01*
X3003Y2003D01*
X2995Y2009D01*
X2985Y2013D01*
X2975Y2015D01*
X2965Y2013D01*
X2955Y2009D01*
X2947Y2003D01*
X2945Y2001D01*
X2940Y2002D01*
Y2024D01*
X2939Y2029D01*
X2936Y2034D01*
X2911Y2059D01*
X2913Y2065D01*
X2915Y2075D01*
X2913Y2085D01*
X2909Y2095D01*
X2903Y2103D01*
X2895Y2109D01*
X2885Y2113D01*
X2875Y2115D01*
X2865Y2113D01*
X2855Y2109D01*
X2847Y2103D01*
X2841Y2095D01*
X2837Y2085D01*
X2835Y2075D01*
X2837Y2065D01*
X2841Y2055D01*
X2847Y2047D01*
X2855Y2041D01*
X2865Y2037D01*
X2875Y2035D01*
X2885Y2037D01*
X2891Y2039D01*
X2912Y2018D01*
Y1999D01*
X2907Y1998D01*
X2903Y2003D01*
X2895Y2009D01*
X2885Y2013D01*
X2875Y2015D01*
X2865Y2013D01*
X2855Y2009D01*
X2847Y2003D01*
X2844Y1999D01*
X2839Y2001D01*
Y2025D01*
X2839Y2025D01*
X2838Y2030D01*
X2835Y2035D01*
X2811Y2059D01*
X2813Y2065D01*
X2815Y2075D01*
X2813Y2085D01*
X2809Y2095D01*
X2803Y2103D01*
X2795Y2109D01*
X2785Y2113D01*
X2775Y2115D01*
X2765Y2113D01*
X2755Y2109D01*
X2747Y2103D01*
X2741Y2095D01*
X2737Y2085D01*
X2735Y2075D01*
X2737Y2065D01*
X2741Y2055D01*
X2747Y2047D01*
X2755Y2041D01*
X2765Y2037D01*
X2775Y2035D01*
X2785Y2037D01*
X2791Y2039D01*
X2811Y2019D01*
Y2001D01*
X2806Y1999D01*
X2803Y2003D01*
X2795Y2009D01*
X2785Y2013D01*
X2775Y2015D01*
X2765Y2013D01*
X2755Y2009D01*
X2747Y2003D01*
X2745Y2000D01*
X2740Y2002D01*
Y2024D01*
X2739Y2029D01*
X2736Y2034D01*
X2736Y2034D01*
X2711Y2059D01*
X2713Y2065D01*
X2715Y2075D01*
X2713Y2085D01*
X2709Y2095D01*
X2703Y2103D01*
X2695Y2109D01*
X2685Y2113D01*
X2675Y2115D01*
X2665Y2113D01*
X2655Y2109D01*
X2647Y2103D01*
X2641Y2095D01*
X2637Y2085D01*
X2635Y2075D01*
X2637Y2065D01*
X2641Y2055D01*
X2647Y2047D01*
X2655Y2041D01*
X2665Y2037D01*
X2675Y2035D01*
X2685Y2037D01*
X2691Y2039D01*
X2712Y2018D01*
Y2000D01*
X2707Y1998D01*
X2703Y2003D01*
X2695Y2009D01*
X2685Y2013D01*
X2675Y2015D01*
X2665Y2013D01*
X2655Y2009D01*
X2647Y2003D01*
X2645Y2000D01*
X2640Y2002D01*
Y2007D01*
X2639Y2012D01*
X2636Y2017D01*
X2636Y2017D01*
X2618Y2035D01*
X2613Y2038D01*
X2608Y2039D01*
X2601D01*
X2599Y2044D01*
X2603Y2047D01*
X2609Y2055D01*
X2613Y2065D01*
X2615Y2075D01*
X2613Y2085D01*
X2609Y2095D01*
X2603Y2103D01*
X2595Y2109D01*
X2585Y2113D01*
X2575Y2115D01*
X2565Y2113D01*
X2555Y2109D01*
X2547Y2103D01*
X2541Y2095D01*
X2537Y2085D01*
X2535Y2075D01*
X2537Y2065D01*
X2541Y2055D01*
X2547Y2047D01*
X2551Y2044D01*
X2549Y2039D01*
X2501D01*
X2499Y2044D01*
X2503Y2047D01*
X2509Y2055D01*
X2513Y2065D01*
X2515Y2075D01*
X2513Y2085D01*
X2509Y2095D01*
X2503Y2103D01*
X2495Y2109D01*
X2485Y2113D01*
X2475Y2115D01*
X2465Y2113D01*
X2455Y2109D01*
X2447Y2103D01*
X2441Y2095D01*
X2437Y2085D01*
X2435Y2075D01*
X2437Y2065D01*
X2441Y2055D01*
X2447Y2047D01*
X2451Y2044D01*
X2449Y2039D01*
X2401D01*
X2399Y2044D01*
X2403Y2047D01*
X2409Y2055D01*
X2413Y2065D01*
X2415Y2075D01*
X2413Y2085D01*
X2409Y2095D01*
X2403Y2103D01*
X2395Y2109D01*
X2385Y2113D01*
X2375Y2115D01*
X2365Y2113D01*
X2355Y2109D01*
X2347Y2103D01*
X2341Y2095D01*
X2337Y2085D01*
X2335Y2075D01*
X2337Y2065D01*
X2341Y2055D01*
X2347Y2047D01*
X2351Y2044D01*
X2349Y2039D01*
X2301D01*
X2299Y2044D01*
X2303Y2047D01*
X2309Y2055D01*
X2313Y2065D01*
X2315Y2075D01*
X2313Y2085D01*
X2309Y2095D01*
X2303Y2103D01*
X2295Y2109D01*
X2285Y2113D01*
X2275Y2115D01*
X2265Y2113D01*
X2255Y2109D01*
X2247Y2103D01*
X2241Y2095D01*
X2237Y2085D01*
X2235Y2075D01*
X2237Y2065D01*
X2241Y2055D01*
X2247Y2047D01*
X2251Y2044D01*
X2249Y2039D01*
X2241D01*
X2214Y2066D01*
X2215Y2075D01*
X2213Y2085D01*
X2209Y2095D01*
X2203Y2103D01*
X2195Y2109D01*
X2185Y2113D01*
X2175Y2115D01*
X2165Y2113D01*
X2155Y2109D01*
X2147Y2103D01*
X2141Y2095D01*
X2137Y2085D01*
X2135Y2075D01*
X2137Y2065D01*
X2141Y2055D01*
X2147Y2047D01*
X2149Y2045D01*
X2147Y2041D01*
X2129D01*
X2111Y2059D01*
X2113Y2065D01*
X2115Y2075D01*
X2113Y2085D01*
X2109Y2095D01*
X2103Y2103D01*
X2095Y2109D01*
X2085Y2113D01*
X2075Y2115D01*
X2065Y2113D01*
X2055Y2109D01*
X2047Y2103D01*
X2041Y2095D01*
X2037Y2085D01*
X2035Y2075D01*
X2037Y2065D01*
X2041Y2055D01*
X2047Y2047D01*
X2055Y2041D01*
X2065Y2037D01*
X2075Y2035D01*
X2085Y2037D01*
X2091Y2039D01*
X2113Y2017D01*
X2113Y2017D01*
X2118Y2014D01*
X2123Y2013D01*
X2123Y2013D01*
X2152D01*
X2153Y2008D01*
X2147Y2003D01*
X2141Y1995D01*
X2137Y1985D01*
X2135Y1975D01*
X2137Y1965D01*
X2141Y1955D01*
X2147Y1947D01*
X2155Y1941D01*
X2165Y1937D01*
X2175Y1935D01*
X2179Y1936D01*
X2244Y1871D01*
X2248Y1868D01*
X2254Y1867D01*
X2374D01*
X2380Y1868D01*
X2384Y1871D01*
X2419Y1905D01*
X2482D01*
X2484Y1900D01*
X2436Y1852D01*
X2218D01*
X2111Y1959D01*
X2113Y1965D01*
X2115Y1975D01*
X2113Y1985D01*
X2109Y1995D01*
X2103Y2003D01*
X2095Y2009D01*
X2085Y2013D01*
X2075Y2015D01*
X2065Y2013D01*
X2055Y2009D01*
X2047Y2003D01*
X2041Y1995D01*
X2037Y1985D01*
X2035Y1975D01*
X2037Y1965D01*
X2041Y1955D01*
X2047Y1947D01*
X2055Y1941D01*
X2065Y1937D01*
X2075Y1935D01*
X2085Y1937D01*
X2091Y1939D01*
X2202Y1828D01*
X2202Y1828D01*
X2207Y1825D01*
X2212Y1824D01*
X2212Y1824D01*
X2441D01*
X2447Y1825D01*
X2451Y1828D01*
X2504Y1881D01*
X2543D01*
X2546Y1879D01*
X2552Y1878D01*
X2558Y1879D01*
X2564Y1883D01*
X2566Y1886D01*
X2571Y1887D01*
X2572Y1887D01*
X2577Y1883D01*
X2583Y1882D01*
X2589Y1883D01*
X2595Y1887D01*
X2599Y1893D01*
X2600Y1899D01*
X2599Y1905D01*
X2595Y1911D01*
X2589Y1915D01*
X2586Y1915D01*
X2573Y1929D01*
X2570Y1931D01*
X2571Y1936D01*
X2575Y1935D01*
X2585Y1937D01*
X2595Y1941D01*
X2603Y1947D01*
X2607Y1952D01*
X2612Y1950D01*
Y1939D01*
X2610Y1936D01*
X2609Y1930D01*
X2610Y1924D01*
X2614Y1918D01*
X2620Y1914D01*
X2626Y1913D01*
X2632Y1914D01*
X2638Y1918D01*
X2642Y1924D01*
X2643Y1930D01*
X2642Y1936D01*
X2640Y1939D01*
Y1948D01*
X2645Y1950D01*
X2647Y1947D01*
X2655Y1941D01*
X2661Y1938D01*
Y1898D01*
X2662Y1893D01*
X2665Y1889D01*
X2744Y1810D01*
X2743Y1806D01*
X2742Y1805D01*
X2737Y1801D01*
X2733Y1796D01*
X2733Y1793D01*
X2723Y1783D01*
X2706D01*
X2706Y1783D01*
X2701Y1782D01*
X2696Y1779D01*
X2656Y1738D01*
X2650Y1739D01*
X2649Y1741D01*
X2583Y1807D01*
X2578Y1810D01*
X2573Y1811D01*
X1693D01*
X1688Y1810D01*
X1683Y1807D01*
X1496Y1619D01*
X1493Y1615D01*
X1492Y1610D01*
Y1415D01*
X1090D01*
X882Y1623D01*
X877Y1626D01*
X872Y1627D01*
X691D01*
X688Y1629D01*
X682Y1630D01*
X676Y1629D01*
X670Y1625D01*
X666Y1619D01*
X665Y1613D01*
X666Y1607D01*
X670Y1601D01*
X676Y1597D01*
X682Y1596D01*
X688Y1597D01*
X691Y1599D01*
X866D01*
X1074Y1391D01*
X1079Y1388D01*
X1084Y1387D01*
X1084Y1387D01*
X1500D01*
X1545Y1342D01*
X1545Y1342D01*
X1549Y1339D01*
X1555Y1338D01*
X1555Y1338D01*
X1606D01*
X1609Y1336D01*
X1615Y1335D01*
X1621Y1336D01*
X1627Y1340D01*
X1631Y1346D01*
X1632Y1352D01*
X1631Y1358D01*
X1627Y1364D01*
X1621Y1368D01*
X1615Y1369D01*
X1609Y1368D01*
X1606Y1366D01*
X1560D01*
X1519Y1407D01*
Y1431D01*
X1524Y1432D01*
X1527Y1428D01*
X1564Y1391D01*
X1565Y1385D01*
X1569Y1379D01*
X1575Y1375D01*
X1581Y1374D01*
X1587Y1375D01*
X1593Y1379D01*
X1597Y1385D01*
X1598Y1391D01*
X1597Y1397D01*
X1593Y1403D01*
X1587Y1407D01*
X1587Y1407D01*
X1568Y1426D01*
X1570Y1431D01*
X1570Y1432D01*
X1576Y1435D01*
X1579Y1440D01*
X1584Y1441D01*
X1591Y1435D01*
X1591Y1432D01*
X1595Y1426D01*
X1601Y1422D01*
X1607Y1421D01*
X1613Y1422D01*
X1619Y1426D01*
X1623Y1432D01*
X1624Y1438D01*
X1623Y1444D01*
X1619Y1450D01*
X1613Y1454D01*
X1610Y1454D01*
X1600Y1465D01*
Y1485D01*
X1604Y1488D01*
X1605Y1487D01*
X1611Y1486D01*
X1617Y1487D01*
X1623Y1491D01*
X1627Y1497D01*
X1628Y1503D01*
X1627Y1509D01*
X1625Y1512D01*
Y1562D01*
X1752Y1690D01*
X2099D01*
X2101Y1685D01*
X2100Y1684D01*
X2096Y1679D01*
X2095Y1672D01*
X2096Y1666D01*
X2100Y1660D01*
X2106Y1657D01*
X2112Y1656D01*
X2118Y1657D01*
X2124Y1660D01*
X2128Y1666D01*
X2129Y1672D01*
X2128Y1679D01*
X2124Y1684D01*
X2123Y1685D01*
X2125Y1690D01*
X2511D01*
X2520Y1681D01*
X2521Y1678D01*
X2525Y1672D01*
X2530Y1668D01*
X2537Y1667D01*
X2541Y1668D01*
X2544Y1667D01*
X2546Y1665D01*
X2547Y1661D01*
X2551Y1655D01*
X2556Y1651D01*
X2562Y1650D01*
X2569Y1651D01*
X2574Y1655D01*
X2578Y1661D01*
X2579Y1667D01*
X2578Y1673D01*
X2576Y1676D01*
Y1691D01*
X2581Y1693D01*
X2582Y1692D01*
X2588Y1691D01*
X2592Y1692D01*
X2597Y1689D01*
X2598Y1685D01*
X2597Y1684D01*
X2596Y1678D01*
X2597Y1672D01*
X2601Y1666D01*
X2607Y1662D01*
X2613Y1661D01*
X2619Y1662D01*
X2625Y1666D01*
X2629Y1672D01*
X2630Y1678D01*
X2629Y1684D01*
X2628Y1685D01*
X2628Y1686D01*
X2632Y1689D01*
X2639Y1688D01*
X2644Y1689D01*
X2649Y1686D01*
Y1635D01*
X2628Y1614D01*
X2177D01*
X2169Y1622D01*
X2164Y1625D01*
X2159Y1626D01*
X1952D01*
X1934Y1643D01*
X1933Y1646D01*
X1930Y1652D01*
X1924Y1656D01*
X1918Y1657D01*
X1911Y1656D01*
X1906Y1652D01*
X1902Y1646D01*
X1901Y1640D01*
X1902Y1634D01*
X1906Y1628D01*
X1911Y1624D01*
X1915Y1624D01*
X1936Y1602D01*
X1941Y1599D01*
X1946Y1598D01*
X1946Y1598D01*
X1991D01*
X1994Y1594D01*
X1993Y1593D01*
X1992Y1587D01*
X1993Y1581D01*
X1997Y1575D01*
X2002Y1572D01*
X2002Y1569D01*
X2002Y1567D01*
X1997Y1563D01*
X1993Y1558D01*
X1992Y1551D01*
X1993Y1545D01*
X1997Y1540D01*
X1998Y1539D01*
X1997Y1534D01*
X1985D01*
X1856Y1663D01*
X1851Y1666D01*
X1846Y1667D01*
X1762D01*
X1759Y1668D01*
X1753Y1670D01*
X1747Y1668D01*
X1741Y1665D01*
X1737Y1659D01*
X1736Y1653D01*
X1737Y1646D01*
X1741Y1641D01*
X1747Y1637D01*
X1750Y1637D01*
X1753Y1635D01*
X1754Y1631D01*
X1753Y1628D01*
X1754Y1623D01*
X1751Y1619D01*
X1750Y1618D01*
X1749Y1619D01*
X1742Y1617D01*
X1737Y1614D01*
X1733Y1608D01*
X1732Y1602D01*
X1733Y1595D01*
X1737Y1590D01*
X1742Y1586D01*
X1749Y1585D01*
X1752Y1586D01*
X1755Y1581D01*
X1753Y1579D01*
X1752Y1573D01*
X1752Y1572D01*
X1748Y1567D01*
X1746Y1568D01*
X1740Y1567D01*
X1734Y1563D01*
X1730Y1557D01*
X1729Y1551D01*
X1730Y1545D01*
X1734Y1539D01*
X1740Y1535D01*
X1746Y1534D01*
X1751Y1535D01*
X1752Y1535D01*
X1754Y1530D01*
X1753Y1529D01*
X1752Y1523D01*
X1752Y1520D01*
X1748Y1516D01*
X1746Y1516D01*
X1739Y1515D01*
X1734Y1511D01*
X1730Y1506D01*
X1729Y1500D01*
X1730Y1493D01*
X1734Y1488D01*
X1736Y1486D01*
X1738Y1480D01*
X1737Y1478D01*
X1736Y1472D01*
X1737Y1466D01*
X1741Y1460D01*
X1747Y1456D01*
X1750Y1456D01*
X1782Y1425D01*
X1782Y1425D01*
X1786Y1422D01*
X1791Y1420D01*
X1851D01*
X1908Y1363D01*
X1913Y1360D01*
X1918Y1359D01*
X2042D01*
X2088Y1313D01*
X2092Y1310D01*
X2097Y1309D01*
X2097Y1309D01*
X2425D01*
X2428Y1304D01*
X2427Y1303D01*
X2426Y1300D01*
X2416Y1290D01*
X2319D01*
X2316Y1292D01*
X2310Y1293D01*
X2304Y1292D01*
X2298Y1288D01*
X2294Y1282D01*
X2293Y1276D01*
X2294Y1270D01*
X2298Y1264D01*
X2304Y1260D01*
X2310Y1259D01*
X2316Y1260D01*
X2319Y1262D01*
X2422D01*
X2427Y1263D01*
X2432Y1266D01*
X2446Y1280D01*
X2449Y1281D01*
X2454Y1285D01*
X2458Y1290D01*
X2459Y1296D01*
X2458Y1303D01*
X2457Y1304D01*
X2460Y1309D01*
X3026D01*
X3031Y1310D01*
X3035Y1313D01*
X3164Y1442D01*
X3167Y1446D01*
X3168Y1451D01*
Y1556D01*
X3170Y1559D01*
X3171Y1565D01*
X3170Y1571D01*
X3166Y1577D01*
X3160Y1581D01*
X3154Y1582D01*
X3148Y1581D01*
X3142Y1577D01*
X3138Y1571D01*
X3137Y1566D01*
X3137Y1565D01*
X3133Y1562D01*
X3129Y1563D01*
X3126Y1562D01*
X3121Y1565D01*
X3121Y1566D01*
X3120Y1571D01*
X3116Y1577D01*
X3111Y1581D01*
X3104Y1582D01*
X3098Y1581D01*
X3092Y1577D01*
X3089Y1571D01*
X3087Y1565D01*
X3087Y1564D01*
X3086Y1563D01*
X3083Y1561D01*
X3078Y1562D01*
X3073Y1561D01*
X3069Y1564D01*
X3069Y1565D01*
X3069Y1565D01*
X3068Y1571D01*
X3064Y1577D01*
X3058Y1581D01*
X3052Y1582D01*
X3046Y1581D01*
X3040Y1577D01*
X3036Y1571D01*
X3035Y1565D01*
X3035Y1565D01*
X3031Y1561D01*
X3027Y1562D01*
X3024Y1561D01*
X3020Y1561D01*
X3018Y1565D01*
X3018Y1567D01*
X3014Y1573D01*
X3008Y1577D01*
X3002Y1578D01*
X2996Y1577D01*
X2990Y1573D01*
X2986Y1567D01*
X2985Y1567D01*
X2981Y1568D01*
X2975Y1569D01*
X2969Y1568D01*
X2963Y1564D01*
X2959Y1558D01*
X2959Y1555D01*
X2937Y1534D01*
X2669D01*
X2667Y1539D01*
X2727Y1598D01*
X2727Y1598D01*
X2730Y1603D01*
X2731Y1608D01*
X2731Y1608D01*
Y1737D01*
X2732Y1739D01*
X2733Y1745D01*
X2732Y1751D01*
X2731Y1752D01*
X2733Y1755D01*
X2734Y1757D01*
X2738Y1759D01*
X2752Y1773D01*
X2755Y1774D01*
X2761Y1778D01*
X2764Y1783D01*
X2765Y1783D01*
X2769Y1785D01*
X2790Y1764D01*
X2795Y1761D01*
X2800Y1760D01*
X2815D01*
X2818Y1755D01*
X2815Y1751D01*
X2814Y1745D01*
X2815Y1739D01*
X2819Y1733D01*
X2825Y1729D01*
X2831Y1728D01*
X2837Y1729D01*
X2843Y1733D01*
X2847Y1739D01*
X2848Y1745D01*
X2847Y1751D01*
X2847Y1751D01*
X2849Y1757D01*
X2851Y1757D01*
X2911Y1698D01*
X2915Y1695D01*
X2920Y1694D01*
X3012D01*
X3014Y1691D01*
X3022Y1686D01*
X3031Y1684D01*
X3040Y1686D01*
X3048Y1691D01*
X3053Y1699D01*
X3053Y1700D01*
X3058D01*
X3059Y1697D01*
X3064Y1689D01*
X3072Y1684D01*
X3081Y1682D01*
X3090Y1684D01*
X3098Y1689D01*
X3102Y1694D01*
X3103Y1695D01*
X3107Y1694D01*
X3112Y1687D01*
X3120Y1682D01*
X3129Y1680D01*
X3138Y1682D01*
X3146Y1687D01*
X3151Y1695D01*
X3153Y1704D01*
X3152Y1709D01*
X3156Y1712D01*
X3158Y1711D01*
X3167Y1709D01*
X3176Y1711D01*
X3184Y1716D01*
X3189Y1724D01*
X3191Y1733D01*
X3189Y1742D01*
X3184Y1750D01*
X3178Y1754D01*
X3179Y1759D01*
X3179Y1760D01*
X3187Y1765D01*
X3192Y1772D01*
X3194Y1782D01*
X3192Y1791D01*
X3187Y1799D01*
X3179Y1804D01*
X3170Y1806D01*
X3166Y1805D01*
X3132Y1839D01*
X3128Y1842D01*
X3123Y1843D01*
X3003D01*
X2921Y1925D01*
X2921Y1927D01*
X2927Y1929D01*
X2959Y1896D01*
X2964Y1893D01*
X2969Y1892D01*
X3075D01*
X3075Y1892D01*
X3083Y1887D01*
X3092Y1885D01*
X3101Y1887D01*
X3109Y1892D01*
X3114Y1900D01*
X3116Y1909D01*
X3114Y1918D01*
X3109Y1926D01*
X3101Y1931D01*
X3092Y1933D01*
X3083Y1931D01*
X3075Y1926D01*
X3071Y1920D01*
X2974D01*
X2962Y1932D01*
X2965Y1936D01*
X2965Y1937D01*
X2975Y1935D01*
X2985Y1937D01*
X2995Y1941D01*
X3003Y1947D01*
X3009Y1955D01*
X3012Y1961D01*
X3097D01*
X3113Y1945D01*
X3112Y1941D01*
X3114Y1932D01*
X3119Y1924D01*
X3127Y1919D01*
X3136Y1917D01*
X3145Y1919D01*
X3153Y1924D01*
X3158Y1932D01*
X3160Y1941D01*
X3158Y1951D01*
X3157Y1952D01*
X3161Y1955D01*
X3166Y1950D01*
X3165Y1945D01*
X3167Y1936D01*
X3172Y1928D01*
X3180Y1923D01*
X3189Y1921D01*
X3198Y1923D01*
X3206Y1928D01*
X3211Y1936D01*
X3213Y1945D01*
X3211Y1954D01*
X3206Y1962D01*
X3198Y1967D01*
X3189Y1969D01*
X3187Y1968D01*
X3141Y2014D01*
X3137Y2017D01*
X3132Y2018D01*
X3053D01*
X3011Y2060D01*
X3013Y2066D01*
X3015Y2076D01*
X3013Y2086D01*
X3009Y2096D01*
X3003Y2104D01*
X2995Y2110D01*
X2985Y2114D01*
X2975Y2116D01*
D02*
G37*
G36*
X782Y2016D02*
Y1982D01*
X816D01*
X815Y1986D01*
X811Y1996D01*
X805Y2005D01*
X796Y2011D01*
X786Y2015D01*
X782Y2016D01*
D02*
G37*
G36*
X767D02*
X764Y2015D01*
X754Y2011D01*
X745Y2005D01*
X739Y1996D01*
X735Y1986D01*
X734Y1982D01*
X767D01*
Y2016D01*
D02*
G37*
G36*
X1975Y2015D02*
X1965Y2013D01*
X1955Y2009D01*
X1947Y2003D01*
X1941Y1995D01*
X1937Y1985D01*
X1935Y1975D01*
X1937Y1965D01*
X1941Y1955D01*
X1947Y1947D01*
X1955Y1941D01*
X1965Y1937D01*
X1975Y1935D01*
X1985Y1937D01*
X1995Y1941D01*
X2003Y1947D01*
X2009Y1955D01*
X2013Y1965D01*
X2015Y1975D01*
X2013Y1985D01*
X2009Y1995D01*
X2003Y2003D01*
X1995Y2009D01*
X1985Y2013D01*
X1975Y2015D01*
D02*
G37*
G36*
X1875D02*
X1865Y2013D01*
X1855Y2009D01*
X1847Y2003D01*
X1841Y1995D01*
X1837Y1985D01*
X1835Y1975D01*
X1837Y1965D01*
X1841Y1955D01*
X1847Y1947D01*
X1855Y1941D01*
X1865Y1937D01*
X1875Y1935D01*
X1885Y1937D01*
X1895Y1941D01*
X1903Y1947D01*
X1909Y1955D01*
X1913Y1965D01*
X1915Y1975D01*
X1913Y1985D01*
X1909Y1995D01*
X1903Y2003D01*
X1895Y2009D01*
X1885Y2013D01*
X1875Y2015D01*
D02*
G37*
G36*
X1775D02*
X1765Y2013D01*
X1755Y2009D01*
X1747Y2003D01*
X1741Y1995D01*
X1737Y1985D01*
X1735Y1975D01*
X1737Y1965D01*
X1741Y1955D01*
X1747Y1947D01*
X1755Y1941D01*
X1765Y1937D01*
X1775Y1935D01*
X1785Y1937D01*
X1795Y1941D01*
X1803Y1947D01*
X1809Y1955D01*
X1813Y1965D01*
X1815Y1975D01*
X1813Y1985D01*
X1809Y1995D01*
X1803Y2003D01*
X1795Y2009D01*
X1785Y2013D01*
X1775Y2015D01*
D02*
G37*
G36*
X1675D02*
X1665Y2013D01*
X1655Y2009D01*
X1647Y2003D01*
X1641Y1995D01*
X1637Y1985D01*
X1635Y1975D01*
X1637Y1965D01*
X1641Y1955D01*
X1647Y1947D01*
X1655Y1941D01*
X1665Y1937D01*
X1675Y1935D01*
X1685Y1937D01*
X1695Y1941D01*
X1703Y1947D01*
X1709Y1955D01*
X1713Y1965D01*
X1715Y1975D01*
X1713Y1985D01*
X1709Y1995D01*
X1703Y2003D01*
X1695Y2009D01*
X1685Y2013D01*
X1675Y2015D01*
D02*
G37*
G36*
X1575D02*
X1565Y2013D01*
X1555Y2009D01*
X1547Y2003D01*
X1541Y1995D01*
X1537Y1985D01*
X1535Y1975D01*
X1537Y1965D01*
X1541Y1955D01*
X1547Y1947D01*
X1555Y1941D01*
X1565Y1937D01*
X1575Y1935D01*
X1585Y1937D01*
X1595Y1941D01*
X1603Y1947D01*
X1609Y1955D01*
X1613Y1965D01*
X1615Y1975D01*
X1613Y1985D01*
X1609Y1995D01*
X1603Y2003D01*
X1595Y2009D01*
X1585Y2013D01*
X1575Y2015D01*
D02*
G37*
G36*
X1475D02*
X1465Y2013D01*
X1455Y2009D01*
X1447Y2003D01*
X1441Y1995D01*
X1437Y1985D01*
X1435Y1975D01*
X1437Y1965D01*
X1441Y1955D01*
X1447Y1947D01*
X1455Y1941D01*
X1465Y1937D01*
X1475Y1935D01*
X1485Y1937D01*
X1495Y1941D01*
X1503Y1947D01*
X1509Y1955D01*
X1513Y1965D01*
X1515Y1975D01*
X1513Y1985D01*
X1509Y1995D01*
X1503Y2003D01*
X1495Y2009D01*
X1485Y2013D01*
X1475Y2015D01*
D02*
G37*
G36*
X1375D02*
X1365Y2013D01*
X1355Y2009D01*
X1347Y2003D01*
X1341Y1995D01*
X1337Y1985D01*
X1335Y1975D01*
X1337Y1965D01*
X1341Y1955D01*
X1347Y1947D01*
X1355Y1941D01*
X1365Y1937D01*
X1375Y1935D01*
X1385Y1937D01*
X1395Y1941D01*
X1403Y1947D01*
X1409Y1955D01*
X1413Y1965D01*
X1415Y1975D01*
X1413Y1985D01*
X1409Y1995D01*
X1403Y2003D01*
X1395Y2009D01*
X1385Y2013D01*
X1375Y2015D01*
D02*
G37*
G36*
X1275D02*
X1265Y2013D01*
X1255Y2009D01*
X1247Y2003D01*
X1241Y1995D01*
X1237Y1985D01*
X1235Y1975D01*
X1237Y1965D01*
X1241Y1955D01*
X1247Y1947D01*
X1255Y1941D01*
X1265Y1937D01*
X1275Y1935D01*
X1285Y1937D01*
X1295Y1941D01*
X1303Y1947D01*
X1309Y1955D01*
X1313Y1965D01*
X1315Y1975D01*
X1313Y1985D01*
X1309Y1995D01*
X1303Y2003D01*
X1295Y2009D01*
X1285Y2013D01*
X1275Y2015D01*
D02*
G37*
G36*
X1175D02*
X1165Y2013D01*
X1155Y2009D01*
X1147Y2003D01*
X1141Y1995D01*
X1137Y1985D01*
X1135Y1975D01*
X1137Y1965D01*
X1141Y1955D01*
X1147Y1947D01*
X1155Y1941D01*
X1165Y1937D01*
X1175Y1935D01*
X1185Y1937D01*
X1195Y1941D01*
X1203Y1947D01*
X1209Y1955D01*
X1213Y1965D01*
X1215Y1975D01*
X1213Y1985D01*
X1209Y1995D01*
X1203Y2003D01*
X1195Y2009D01*
X1185Y2013D01*
X1175Y2015D01*
D02*
G37*
G36*
X1075D02*
X1065Y2013D01*
X1055Y2009D01*
X1047Y2003D01*
X1041Y1995D01*
X1037Y1985D01*
X1035Y1975D01*
X1037Y1965D01*
X1041Y1955D01*
X1047Y1947D01*
X1055Y1941D01*
X1065Y1937D01*
X1075Y1935D01*
X1085Y1937D01*
X1095Y1941D01*
X1103Y1947D01*
X1109Y1955D01*
X1113Y1965D01*
X1115Y1975D01*
X1113Y1985D01*
X1109Y1995D01*
X1103Y2003D01*
X1095Y2009D01*
X1085Y2013D01*
X1075Y2015D01*
D02*
G37*
G36*
X975D02*
X965Y2013D01*
X955Y2009D01*
X947Y2003D01*
X941Y1995D01*
X937Y1985D01*
X935Y1975D01*
X937Y1965D01*
X941Y1955D01*
X947Y1947D01*
X955Y1941D01*
X965Y1937D01*
X975Y1935D01*
X985Y1937D01*
X995Y1941D01*
X1003Y1947D01*
X1009Y1955D01*
X1013Y1965D01*
X1015Y1975D01*
X1013Y1985D01*
X1009Y1995D01*
X1003Y2003D01*
X995Y2009D01*
X985Y2013D01*
X975Y2015D01*
D02*
G37*
G36*
X875D02*
X865Y2013D01*
X855Y2009D01*
X847Y2003D01*
X841Y1995D01*
X837Y1985D01*
X835Y1975D01*
X837Y1965D01*
X841Y1955D01*
X847Y1947D01*
X855Y1941D01*
X865Y1937D01*
X875Y1935D01*
X885Y1937D01*
X895Y1941D01*
X903Y1947D01*
X909Y1955D01*
X913Y1965D01*
X915Y1975D01*
X913Y1985D01*
X909Y1995D01*
X903Y2003D01*
X895Y2009D01*
X885Y2013D01*
X875Y2015D01*
D02*
G37*
G36*
X767Y1967D02*
X734D01*
X735Y1964D01*
X739Y1954D01*
X745Y1945D01*
X754Y1939D01*
X764Y1935D01*
X767Y1934D01*
Y1967D01*
D02*
G37*
G36*
X816D02*
X782D01*
Y1934D01*
X786Y1935D01*
X796Y1939D01*
X805Y1945D01*
X811Y1954D01*
X815Y1964D01*
X816Y1967D01*
D02*
G37*
G36*
X2424Y1891D02*
X2418Y1890D01*
X2412Y1886D01*
X2409Y1880D01*
X2407Y1874D01*
X2409Y1868D01*
X2412Y1862D01*
X2418Y1858D01*
X2424Y1857D01*
X2431Y1858D01*
X2436Y1862D01*
X2440Y1868D01*
X2441Y1874D01*
X2440Y1880D01*
X2436Y1886D01*
X2431Y1890D01*
X2424Y1891D01*
D02*
G37*
G36*
X1431Y1834D02*
X1425Y1831D01*
X1419Y1827D01*
X1415Y1821D01*
X1412Y1814D01*
X1431D01*
Y1834D01*
D02*
G37*
G36*
X1446Y1834D02*
Y1807D01*
Y1780D01*
X1453Y1783D01*
X1459Y1787D01*
X1462Y1791D01*
X1467Y1792D01*
X1468Y1791D01*
X1470Y1788D01*
X1476Y1784D01*
X1482Y1782D01*
X1489Y1781D01*
X1496Y1782D01*
X1502Y1784D01*
X1508Y1788D01*
X1511Y1793D01*
X1514Y1794D01*
X1517Y1793D01*
X1520Y1788D01*
X1526Y1784D01*
X1532Y1782D01*
X1539Y1781D01*
X1546Y1782D01*
X1552Y1784D01*
X1558Y1788D01*
X1562Y1794D01*
X1564Y1800D01*
X1565Y1807D01*
X1564Y1814D01*
X1562Y1820D01*
X1558Y1826D01*
X1552Y1830D01*
X1546Y1832D01*
X1539Y1833D01*
X1532Y1832D01*
X1526Y1830D01*
X1520Y1826D01*
X1517Y1821D01*
X1514Y1820D01*
X1511Y1821D01*
X1508Y1826D01*
X1502Y1830D01*
X1496Y1832D01*
X1489Y1833D01*
X1482Y1832D01*
X1476Y1830D01*
X1470Y1826D01*
X1468Y1823D01*
X1467Y1822D01*
X1462Y1823D01*
X1459Y1827D01*
X1453Y1831D01*
X1446Y1834D01*
D02*
G37*
G36*
X1431Y1799D02*
X1412D01*
X1415Y1793D01*
X1419Y1787D01*
X1425Y1783D01*
X1431Y1780D01*
Y1799D01*
D02*
G37*
G36*
X2664Y1811D02*
X2658Y1810D01*
X2652Y1806D01*
X2648Y1800D01*
X2647Y1794D01*
X2648Y1788D01*
X2652Y1782D01*
X2658Y1778D01*
X2664Y1777D01*
X2670Y1778D01*
X2676Y1782D01*
X2680Y1788D01*
X2681Y1794D01*
X2680Y1800D01*
X2676Y1806D01*
X2670Y1810D01*
X2664Y1811D01*
D02*
G37*
G36*
X139Y1769D02*
X133Y1768D01*
X127Y1764D01*
X123Y1758D01*
X122Y1752D01*
X123Y1746D01*
X127Y1740D01*
X133Y1736D01*
X139Y1735D01*
X145Y1736D01*
X151Y1740D01*
X155Y1746D01*
X156Y1752D01*
X155Y1758D01*
X151Y1764D01*
X145Y1768D01*
X139Y1769D01*
D02*
G37*
G36*
X454Y1763D02*
X448Y1762D01*
X442Y1758D01*
X438Y1752D01*
X437Y1746D01*
X438Y1740D01*
X442Y1734D01*
X448Y1730D01*
X454Y1729D01*
X460Y1730D01*
X466Y1734D01*
X470Y1740D01*
X471Y1746D01*
X470Y1752D01*
X466Y1758D01*
X460Y1762D01*
X454Y1763D01*
D02*
G37*
G36*
X405Y1721D02*
X399Y1720D01*
X393Y1716D01*
X389Y1711D01*
X388Y1704D01*
X389Y1698D01*
X393Y1693D01*
X399Y1689D01*
X405Y1688D01*
X411Y1689D01*
X417Y1693D01*
X421Y1698D01*
X422Y1704D01*
X421Y1711D01*
X417Y1716D01*
X411Y1720D01*
X405Y1721D01*
D02*
G37*
G36*
X2777Y1681D02*
X2771Y1680D01*
X2765Y1676D01*
X2761Y1671D01*
X2760Y1665D01*
X2761Y1658D01*
X2765Y1653D01*
X2771Y1649D01*
X2777Y1648D01*
X2783Y1649D01*
X2789Y1653D01*
X2793Y1658D01*
X2794Y1665D01*
X2793Y1671D01*
X2789Y1676D01*
X2783Y1680D01*
X2777Y1681D01*
D02*
G37*
G36*
X2297Y1667D02*
X2290Y1666D01*
X2285Y1662D01*
X2281Y1656D01*
X2280Y1650D01*
X2281Y1644D01*
X2285Y1638D01*
X2290Y1634D01*
X2297Y1633D01*
X2303Y1634D01*
X2309Y1638D01*
X2312Y1644D01*
X2313Y1650D01*
X2312Y1656D01*
X2309Y1662D01*
X2303Y1666D01*
X2297Y1667D01*
D02*
G37*
G36*
X2415Y1666D02*
X2409Y1665D01*
X2403Y1661D01*
X2399Y1656D01*
X2398Y1649D01*
X2399Y1643D01*
X2403Y1637D01*
X2409Y1634D01*
X2415Y1632D01*
X2421Y1634D01*
X2427Y1637D01*
X2431Y1643D01*
X2432Y1649D01*
X2431Y1656D01*
X2427Y1661D01*
X2421Y1665D01*
X2415Y1666D01*
D02*
G37*
G36*
X1326Y1666D02*
X1320Y1665D01*
X1314Y1661D01*
X1310Y1655D01*
X1309Y1649D01*
X1310Y1643D01*
X1314Y1637D01*
X1320Y1633D01*
X1326Y1632D01*
X1332Y1633D01*
X1338Y1637D01*
X1342Y1643D01*
X1343Y1649D01*
X1342Y1655D01*
X1338Y1661D01*
X1332Y1665D01*
X1326Y1666D01*
D02*
G37*
G36*
X1033Y1762D02*
X1027Y1761D01*
X1021Y1757D01*
X1017Y1751D01*
X1016Y1745D01*
X1017Y1739D01*
X1021Y1733D01*
X1027Y1729D01*
X1030Y1729D01*
X1147Y1611D01*
X1145Y1607D01*
X1144Y1607D01*
X1041D01*
X1038Y1609D01*
X1032Y1610D01*
X1026Y1609D01*
X1020Y1605D01*
X1016Y1599D01*
X1015Y1593D01*
X1016Y1587D01*
X1020Y1581D01*
X1026Y1577D01*
X1032Y1576D01*
X1038Y1577D01*
X1041Y1579D01*
X1138D01*
X1172Y1545D01*
X1177Y1542D01*
X1182Y1541D01*
X1318D01*
X1323Y1537D01*
X1323Y1534D01*
X1327Y1528D01*
X1333Y1524D01*
X1339Y1523D01*
X1345Y1524D01*
X1351Y1528D01*
X1355Y1534D01*
X1356Y1540D01*
X1355Y1546D01*
X1351Y1552D01*
X1345Y1556D01*
X1345Y1556D01*
Y1561D01*
X1349Y1561D01*
X1355Y1565D01*
X1359Y1571D01*
X1360Y1577D01*
X1359Y1583D01*
X1355Y1589D01*
X1349Y1593D01*
X1343Y1594D01*
X1337Y1593D01*
X1334Y1591D01*
X1207D01*
X1049Y1748D01*
X1049Y1751D01*
X1045Y1757D01*
X1039Y1761D01*
X1033Y1762D01*
D02*
G37*
G36*
X2800Y1630D02*
X2794Y1628D01*
X2788Y1625D01*
X2784Y1619D01*
X2783Y1613D01*
X2784Y1606D01*
X2788Y1601D01*
X2794Y1597D01*
X2800Y1596D01*
X2806Y1597D01*
X2812Y1601D01*
X2813Y1603D01*
X2817Y1602D01*
X2818Y1602D01*
X2819Y1596D01*
X2823Y1590D01*
X2829Y1586D01*
X2835Y1585D01*
X2840Y1586D01*
X2843Y1584D01*
X2844Y1582D01*
X2844Y1578D01*
X2845Y1572D01*
X2848Y1567D01*
X2854Y1563D01*
X2860Y1562D01*
X2867Y1563D01*
X2872Y1567D01*
X2876Y1572D01*
X2877Y1578D01*
X2876Y1585D01*
X2872Y1590D01*
X2867Y1594D01*
X2860Y1595D01*
X2855Y1594D01*
X2852Y1597D01*
X2851Y1598D01*
X2852Y1602D01*
X2851Y1608D01*
X2847Y1614D01*
X2841Y1618D01*
X2835Y1619D01*
X2829Y1618D01*
X2823Y1614D01*
X2822Y1612D01*
X2818Y1613D01*
X2817Y1613D01*
X2816Y1619D01*
X2812Y1625D01*
X2806Y1628D01*
X2800Y1630D01*
D02*
G37*
G36*
X3272Y1533D02*
X3176D01*
Y1501D01*
X3272D01*
Y1533D01*
D02*
G37*
G36*
Y1486D02*
X3176D01*
Y1454D01*
X3272D01*
Y1486D01*
D02*
G37*
G36*
X955Y1402D02*
X948Y1401D01*
X943Y1397D01*
X939Y1391D01*
X938Y1385D01*
X939Y1379D01*
X943Y1373D01*
X948Y1369D01*
X955Y1368D01*
X961Y1369D01*
X966Y1373D01*
X970Y1379D01*
X971Y1385D01*
X970Y1391D01*
X966Y1397D01*
X961Y1401D01*
X955Y1402D01*
D02*
G37*
G36*
X1273Y1360D02*
X1267Y1359D01*
X1261Y1355D01*
X1257Y1349D01*
X1256Y1343D01*
X1257Y1337D01*
X1261Y1331D01*
X1267Y1327D01*
X1273Y1326D01*
X1279Y1327D01*
X1285Y1331D01*
X1289Y1337D01*
X1290Y1343D01*
X1289Y1349D01*
X1285Y1355D01*
X1279Y1359D01*
X1273Y1360D01*
D02*
G37*
G36*
X1570Y1324D02*
X1564Y1323D01*
X1558Y1319D01*
X1554Y1314D01*
X1553Y1308D01*
X1551Y1307D01*
X1548Y1306D01*
X1545Y1308D01*
X1539Y1309D01*
X1533Y1308D01*
X1527Y1304D01*
X1523Y1298D01*
X1522Y1292D01*
X1523Y1286D01*
X1527Y1280D01*
X1533Y1276D01*
X1539Y1275D01*
X1545Y1276D01*
X1551Y1280D01*
X1555Y1286D01*
X1556Y1291D01*
X1558Y1293D01*
X1561Y1294D01*
X1564Y1292D01*
X1570Y1291D01*
X1576Y1292D01*
X1582Y1296D01*
X1586Y1301D01*
X1587Y1308D01*
X1586Y1314D01*
X1582Y1319D01*
X1576Y1323D01*
X1570Y1324D01*
D02*
G37*
G36*
X1663Y1322D02*
X1657Y1321D01*
X1651Y1317D01*
X1647Y1312D01*
X1646Y1305D01*
X1647Y1299D01*
X1651Y1293D01*
X1657Y1290D01*
X1663Y1288D01*
X1669Y1290D01*
X1675Y1293D01*
X1679Y1299D01*
X1680Y1305D01*
X1679Y1312D01*
X1675Y1317D01*
X1669Y1321D01*
X1663Y1322D01*
D02*
G37*
G36*
X1722Y1267D02*
X1715Y1266D01*
X1710Y1262D01*
X1706Y1256D01*
X1705Y1250D01*
X1706Y1244D01*
X1710Y1238D01*
X1715Y1234D01*
X1722Y1233D01*
X1728Y1234D01*
X1734Y1238D01*
X1737Y1244D01*
X1739Y1250D01*
X1737Y1256D01*
X1734Y1262D01*
X1728Y1266D01*
X1722Y1267D01*
D02*
G37*
G36*
X1534Y1252D02*
X1528Y1251D01*
X1522Y1247D01*
X1518Y1242D01*
X1517Y1235D01*
X1518Y1229D01*
X1522Y1223D01*
X1528Y1220D01*
X1534Y1218D01*
X1540Y1220D01*
X1546Y1223D01*
X1550Y1229D01*
X1551Y1235D01*
X1550Y1242D01*
X1546Y1247D01*
X1540Y1251D01*
X1534Y1252D01*
D02*
G37*
G36*
X1034Y1278D02*
X1028Y1277D01*
X1022Y1273D01*
X1018Y1267D01*
X1017Y1261D01*
X1018Y1255D01*
X1022Y1249D01*
Y1246D01*
X1018Y1240D01*
X1017Y1234D01*
X1018Y1228D01*
X1022Y1222D01*
X1028Y1218D01*
X1034Y1217D01*
X1040Y1218D01*
X1046Y1222D01*
X1050Y1228D01*
X1051Y1234D01*
X1050Y1240D01*
X1046Y1246D01*
Y1249D01*
X1050Y1255D01*
X1051Y1261D01*
X1050Y1267D01*
X1046Y1273D01*
X1040Y1277D01*
X1034Y1278D01*
D02*
G37*
G36*
X1883Y1216D02*
Y1196D01*
X1903D01*
X1900Y1203D01*
X1895Y1209D01*
X1889Y1213D01*
X1883Y1216D01*
D02*
G37*
G36*
X1868Y1216D02*
X1861Y1213D01*
X1855Y1209D01*
X1851Y1203D01*
X1848Y1196D01*
X1868D01*
Y1216D01*
D02*
G37*
G36*
X1569Y1216D02*
X1563Y1214D01*
X1557Y1211D01*
X1553Y1205D01*
X1552Y1199D01*
X1553Y1192D01*
X1557Y1187D01*
X1563Y1183D01*
X1569Y1182D01*
X1575Y1183D01*
X1581Y1187D01*
X1585Y1192D01*
X1586Y1199D01*
X1585Y1205D01*
X1581Y1211D01*
X1575Y1214D01*
X1569Y1216D01*
D02*
G37*
G36*
X2764Y1240D02*
X2722D01*
X2717Y1239D01*
X2712Y1236D01*
X2680Y1204D01*
X2677Y1199D01*
X2676Y1194D01*
Y1139D01*
X2671Y1136D01*
X2669Y1138D01*
X2663Y1139D01*
X2656Y1138D01*
X2651Y1134D01*
X2647Y1129D01*
X2646Y1122D01*
X2647Y1116D01*
X2651Y1111D01*
X2651Y1110D01*
Y801D01*
X2228Y378D01*
X2225Y373D01*
X2224Y368D01*
Y314D01*
X2174Y264D01*
X2050D01*
X2045Y263D01*
X2040Y260D01*
X1991Y211D01*
X1985Y213D01*
X1975Y215D01*
X1965Y213D01*
X1955Y209D01*
X1947Y203D01*
X1941Y195D01*
X1937Y185D01*
X1935Y175D01*
X1937Y165D01*
X1941Y155D01*
X1947Y147D01*
X1955Y141D01*
X1965Y137D01*
X1975Y135D01*
X1985Y137D01*
X1995Y141D01*
X2003Y147D01*
X2009Y155D01*
X2013Y165D01*
X2015Y175D01*
X2013Y185D01*
X2011Y191D01*
X2056Y236D01*
X2110D01*
X2112Y232D01*
X2091Y211D01*
X2085Y213D01*
X2075Y215D01*
X2065Y213D01*
X2055Y209D01*
X2047Y203D01*
X2041Y195D01*
X2037Y185D01*
X2035Y175D01*
X2037Y165D01*
X2041Y155D01*
X2047Y147D01*
X2055Y141D01*
X2065Y137D01*
X2075Y135D01*
X2085Y137D01*
X2095Y141D01*
X2103Y147D01*
X2109Y155D01*
X2113Y165D01*
X2115Y175D01*
X2113Y185D01*
X2111Y191D01*
X2135Y215D01*
X2156D01*
X2157Y210D01*
X2155Y209D01*
X2147Y203D01*
X2141Y195D01*
X2137Y185D01*
X2135Y175D01*
X2137Y165D01*
X2141Y155D01*
X2147Y147D01*
X2155Y141D01*
X2165Y137D01*
X2175Y135D01*
X2185Y137D01*
X2195Y141D01*
X2203Y147D01*
X2209Y155D01*
X2213Y165D01*
X2215Y175D01*
X2213Y185D01*
X2211Y191D01*
X2305Y286D01*
X2305Y286D01*
X2307Y289D01*
X2312Y287D01*
Y200D01*
X2307Y198D01*
X2303Y203D01*
X2295Y209D01*
X2285Y213D01*
X2275Y215D01*
X2265Y213D01*
X2255Y209D01*
X2247Y203D01*
X2241Y195D01*
X2237Y185D01*
X2235Y175D01*
X2237Y165D01*
X2241Y155D01*
X2247Y147D01*
X2255Y141D01*
X2265Y137D01*
X2275Y135D01*
X2285Y137D01*
X2295Y141D01*
X2303Y147D01*
X2307Y152D01*
X2312Y150D01*
Y132D01*
X2291Y111D01*
X2285Y113D01*
X2275Y115D01*
X2265Y113D01*
X2255Y109D01*
X2247Y103D01*
X2241Y95D01*
X2237Y85D01*
X2235Y75D01*
X2237Y65D01*
X2241Y55D01*
X2247Y47D01*
X2255Y41D01*
X2265Y37D01*
X2275Y35D01*
X2285Y37D01*
X2295Y41D01*
X2303Y47D01*
X2309Y55D01*
X2313Y65D01*
X2315Y75D01*
X2313Y85D01*
X2311Y91D01*
X2336Y116D01*
X2336Y116D01*
X2339Y121D01*
X2340Y126D01*
Y148D01*
X2345Y150D01*
X2347Y147D01*
X2355Y141D01*
X2365Y137D01*
X2375Y135D01*
X2385Y137D01*
X2395Y141D01*
X2403Y147D01*
X2409Y155D01*
X2413Y165D01*
X2415Y175D01*
X2413Y185D01*
X2409Y195D01*
X2403Y203D01*
X2395Y209D01*
X2385Y213D01*
X2375Y215D01*
X2365Y213D01*
X2355Y209D01*
X2347Y203D01*
X2345Y200D01*
X2340Y202D01*
Y326D01*
X2764Y750D01*
X2767Y755D01*
X2768Y760D01*
Y868D01*
X2773Y871D01*
X2774Y870D01*
X2780Y869D01*
X2786Y870D01*
X2792Y874D01*
X2796Y880D01*
X2797Y886D01*
X2796Y892D01*
X2794Y895D01*
Y1128D01*
X2796Y1129D01*
X2800Y1135D01*
X2801Y1141D01*
X2800Y1147D01*
X2796Y1153D01*
X2790Y1157D01*
X2784Y1158D01*
X2778Y1157D01*
X2773Y1153D01*
X2770Y1154D01*
X2768Y1155D01*
Y1170D01*
X2770Y1172D01*
X2771Y1179D01*
X2770Y1185D01*
X2766Y1191D01*
X2760Y1194D01*
X2754Y1196D01*
X2748Y1194D01*
X2742Y1191D01*
X2740Y1187D01*
X2737Y1187D01*
X2734Y1188D01*
X2731Y1193D01*
X2725Y1197D01*
X2720Y1198D01*
X2719Y1201D01*
X2718Y1203D01*
X2728Y1212D01*
X2758D01*
X2775Y1195D01*
X2776Y1192D01*
X2780Y1186D01*
X2785Y1183D01*
X2791Y1181D01*
X2798Y1183D01*
X2803Y1186D01*
X2807Y1192D01*
X2808Y1198D01*
X2807Y1205D01*
X2803Y1210D01*
X2798Y1214D01*
X2795Y1214D01*
X2774Y1236D01*
X2769Y1239D01*
X2764Y1240D01*
D02*
G37*
G36*
X1663Y1207D02*
X1657Y1206D01*
X1652Y1202D01*
X1648Y1197D01*
X1647Y1190D01*
X1648Y1184D01*
X1652Y1178D01*
X1657Y1175D01*
X1663Y1173D01*
X1670Y1175D01*
X1675Y1178D01*
X1679Y1184D01*
X1680Y1190D01*
X1679Y1197D01*
X1675Y1202D01*
X1670Y1206D01*
X1663Y1207D01*
D02*
G37*
G36*
X3272Y1198D02*
X3176D01*
Y1166D01*
X3272D01*
Y1198D01*
D02*
G37*
G36*
X1234Y1183D02*
X1228Y1182D01*
X1222Y1178D01*
X1218Y1173D01*
X1217Y1166D01*
X1218Y1160D01*
X1222Y1154D01*
X1228Y1151D01*
X1234Y1149D01*
X1240Y1151D01*
X1246Y1154D01*
X1250Y1160D01*
X1251Y1166D01*
X1250Y1173D01*
X1246Y1178D01*
X1240Y1182D01*
X1234Y1183D01*
D02*
G37*
G36*
X1365Y1169D02*
X1359Y1168D01*
X1353Y1164D01*
X1349Y1158D01*
X1348Y1152D01*
X1349Y1146D01*
X1353Y1140D01*
X1359Y1136D01*
X1365Y1135D01*
X1371Y1136D01*
X1377Y1140D01*
X1381Y1146D01*
X1382Y1152D01*
X1381Y1158D01*
X1377Y1164D01*
X1371Y1168D01*
X1365Y1169D01*
D02*
G37*
G36*
X3272Y1151D02*
X3176D01*
Y1119D01*
X3272D01*
Y1151D01*
D02*
G37*
G36*
X958Y1117D02*
X952Y1116D01*
X946Y1112D01*
X942Y1106D01*
X941Y1100D01*
X942Y1094D01*
X946Y1088D01*
X952Y1084D01*
X958Y1083D01*
X964Y1084D01*
X970Y1088D01*
X974Y1094D01*
X975Y1100D01*
X974Y1106D01*
X970Y1112D01*
X964Y1116D01*
X958Y1117D01*
D02*
G37*
G36*
X2603Y1103D02*
X2596Y1102D01*
X2591Y1098D01*
X2587Y1092D01*
X2586Y1086D01*
X2587Y1080D01*
X2591Y1074D01*
X2596Y1070D01*
X2603Y1069D01*
X2609Y1070D01*
X2615Y1074D01*
X2618Y1080D01*
X2620Y1086D01*
X2618Y1092D01*
X2615Y1098D01*
X2609Y1102D01*
X2603Y1103D01*
D02*
G37*
G36*
X1903Y1181D02*
X1875D01*
X1848D01*
X1851Y1175D01*
X1855Y1169D01*
X1860Y1166D01*
X1860Y1161D01*
X1860Y1160D01*
X1857Y1158D01*
X1853Y1152D01*
X1850Y1146D01*
X1849Y1139D01*
X1850Y1132D01*
X1853Y1126D01*
X1857Y1120D01*
X1861Y1117D01*
X1862Y1114D01*
X1861Y1111D01*
X1857Y1108D01*
X1853Y1102D01*
X1850Y1096D01*
X1849Y1089D01*
X1850Y1082D01*
X1853Y1076D01*
X1857Y1070D01*
X1862Y1066D01*
X1869Y1064D01*
X1875Y1063D01*
X1882Y1064D01*
X1888Y1066D01*
X1894Y1070D01*
X1898Y1076D01*
X1901Y1082D01*
X1902Y1089D01*
X1901Y1096D01*
X1898Y1102D01*
X1894Y1108D01*
X1889Y1111D01*
X1889Y1114D01*
X1889Y1117D01*
X1894Y1120D01*
X1898Y1126D01*
X1901Y1132D01*
X1902Y1139D01*
X1901Y1146D01*
X1898Y1152D01*
X1894Y1158D01*
X1891Y1160D01*
X1891Y1161D01*
X1891Y1166D01*
X1895Y1169D01*
X1900Y1175D01*
X1903Y1181D01*
D02*
G37*
G36*
X1834Y1076D02*
X1828Y1075D01*
X1822Y1071D01*
X1818Y1065D01*
X1817Y1059D01*
X1818Y1053D01*
X1822Y1047D01*
X1828Y1043D01*
X1834Y1042D01*
X1840Y1043D01*
X1846Y1047D01*
X1850Y1053D01*
X1851Y1059D01*
X1850Y1065D01*
X1846Y1071D01*
X1840Y1075D01*
X1834Y1076D01*
D02*
G37*
G36*
X1038Y1031D02*
X1032Y1030D01*
X1026Y1026D01*
X1022Y1020D01*
X1021Y1014D01*
X1022Y1008D01*
X1026Y1002D01*
X1032Y998D01*
X1038Y997D01*
X1044Y998D01*
X1050Y1002D01*
X1054Y1008D01*
X1055Y1014D01*
X1054Y1020D01*
X1050Y1026D01*
X1044Y1030D01*
X1038Y1031D01*
D02*
G37*
G36*
X1800Y1021D02*
X1794Y1020D01*
X1788Y1016D01*
X1784Y1010D01*
X1783Y1004D01*
X1784Y998D01*
X1788Y992D01*
X1794Y988D01*
X1800Y987D01*
X1806Y988D01*
X1812Y992D01*
X1816Y998D01*
X1817Y1004D01*
X1816Y1010D01*
X1812Y1016D01*
X1806Y1020D01*
X1800Y1021D01*
D02*
G37*
G36*
X1852Y963D02*
X1846Y962D01*
X1840Y958D01*
X1836Y952D01*
X1835Y946D01*
X1836Y940D01*
X1840Y934D01*
X1846Y930D01*
X1852Y929D01*
X1858Y930D01*
X1864Y934D01*
X1868Y940D01*
X1869Y946D01*
X1868Y952D01*
X1864Y958D01*
X1858Y962D01*
X1852Y963D01*
D02*
G37*
G36*
X1674Y855D02*
X1668Y854D01*
X1662Y850D01*
X1658Y844D01*
X1657Y838D01*
X1658Y832D01*
X1662Y826D01*
X1668Y822D01*
X1674Y821D01*
X1680Y822D01*
X1686Y826D01*
X1690Y832D01*
X1691Y838D01*
X1690Y844D01*
X1686Y850D01*
X1680Y854D01*
X1674Y855D01*
D02*
G37*
G36*
X1740Y841D02*
X1734Y840D01*
X1728Y836D01*
X1724Y830D01*
X1723Y824D01*
X1724Y818D01*
X1728Y812D01*
X1734Y808D01*
X1740Y807D01*
X1746Y808D01*
X1752Y812D01*
X1756Y818D01*
X1757Y824D01*
X1756Y830D01*
X1752Y836D01*
X1746Y840D01*
X1740Y841D01*
D02*
G37*
G36*
X1625Y840D02*
X1619Y839D01*
X1613Y835D01*
X1609Y829D01*
X1608Y823D01*
X1609Y817D01*
X1613Y811D01*
X1619Y807D01*
X1625Y806D01*
X1631Y807D01*
X1637Y811D01*
X1641Y817D01*
X1642Y823D01*
X1641Y829D01*
X1637Y835D01*
X1631Y839D01*
X1625Y840D01*
D02*
G37*
G36*
X3008Y925D02*
X3002Y923D01*
X2996Y920D01*
X2992Y914D01*
X2991Y908D01*
X2992Y901D01*
X2996Y896D01*
X2998Y895D01*
X3040Y853D01*
Y739D01*
X3039Y736D01*
X3040Y730D01*
X3044Y724D01*
X3050Y721D01*
X3056Y719D01*
X3062Y721D01*
X3068Y724D01*
X3068Y725D01*
X3074D01*
X3075Y723D01*
X3081Y719D01*
X3087Y718D01*
X3093Y719D01*
X3099Y723D01*
X3103Y729D01*
X3104Y735D01*
X3103Y738D01*
Y833D01*
X3105Y834D01*
X3109Y835D01*
X3115Y839D01*
X3119Y845D01*
X3120Y851D01*
X3119Y857D01*
X3115Y863D01*
X3109Y867D01*
X3103Y868D01*
X3100Y867D01*
X3098D01*
X3092Y866D01*
X3086Y863D01*
X3077Y853D01*
X3072Y855D01*
Y860D01*
X3071Y866D01*
X3068Y871D01*
X3021Y918D01*
X3020Y920D01*
X3014Y923D01*
X3008Y925D01*
D02*
G37*
G36*
X1964Y683D02*
X1958Y682D01*
X1953Y678D01*
X1762D01*
X1757Y677D01*
X1753Y675D01*
X1753Y675D01*
X1737Y659D01*
X1732Y658D01*
X1726Y654D01*
X1722Y648D01*
X1721Y642D01*
X1722Y636D01*
X1726Y630D01*
X1732Y626D01*
X1738Y625D01*
X1744Y626D01*
X1750Y630D01*
X1754Y636D01*
X1755Y641D01*
X1767Y654D01*
X1953D01*
X1958Y650D01*
X1964Y649D01*
X1970Y650D01*
X1976Y654D01*
X1980Y660D01*
X1981Y666D01*
X1980Y672D01*
X1976Y678D01*
X1970Y682D01*
X1964Y683D01*
D02*
G37*
G36*
X3333Y617D02*
X3327Y616D01*
X3321Y612D01*
X3318Y607D01*
X3316Y600D01*
X3318Y594D01*
X3321Y588D01*
X3327Y585D01*
X3333Y583D01*
X3340Y585D01*
X3345Y588D01*
X3349Y594D01*
X3350Y600D01*
X3349Y607D01*
X3345Y612D01*
X3340Y616D01*
X3333Y617D01*
D02*
G37*
G36*
X2025Y556D02*
X2019Y555D01*
X2013Y551D01*
X2009Y545D01*
X2008Y540D01*
X1948Y479D01*
X1945Y479D01*
X1939Y475D01*
X1935Y469D01*
X1934Y463D01*
X1935Y457D01*
X1939Y451D01*
X1945Y447D01*
X1951Y446D01*
X1957Y447D01*
X1963Y451D01*
X1967Y457D01*
X1968Y463D01*
X1968Y464D01*
X2026Y522D01*
X2031Y523D01*
X2037Y527D01*
X2041Y533D01*
X2042Y539D01*
X2041Y545D01*
X2037Y551D01*
X2031Y555D01*
X2025Y556D01*
D02*
G37*
G36*
X2855Y530D02*
X2841Y528D01*
X2829Y523D01*
X2818Y514D01*
X2809Y503D01*
X2804Y491D01*
X2802Y477D01*
X2804Y463D01*
X2809Y451D01*
X2818Y440D01*
X2829Y431D01*
X2841Y426D01*
X2855Y424D01*
X2869Y426D01*
X2881Y431D01*
X2892Y440D01*
X2901Y451D01*
X2906Y463D01*
X2908Y477D01*
X2906Y491D01*
X2901Y503D01*
X2892Y514D01*
X2881Y523D01*
X2869Y528D01*
X2855Y530D01*
D02*
G37*
G36*
X3000Y410D02*
X2994Y409D01*
X2988Y405D01*
X2984Y399D01*
X2983Y393D01*
X2984Y387D01*
X2988Y381D01*
X2994Y377D01*
X3000Y376D01*
X3006Y377D01*
X3012Y381D01*
X3016Y387D01*
X3017Y393D01*
X3016Y399D01*
X3012Y405D01*
X3006Y409D01*
X3000Y410D01*
D02*
G37*
G36*
X1952Y343D02*
X1946Y342D01*
X1941Y338D01*
X1864D01*
X1859Y342D01*
X1853Y343D01*
X1847Y342D01*
X1841Y338D01*
X1837Y332D01*
X1836Y326D01*
X1837Y320D01*
X1841Y314D01*
X1847Y310D01*
X1853Y309D01*
X1859Y310D01*
X1864Y314D01*
X1941D01*
X1946Y310D01*
X1952Y309D01*
X1958Y310D01*
X1964Y314D01*
X1968Y320D01*
X1969Y326D01*
X1968Y332D01*
X1964Y338D01*
X1958Y342D01*
X1952Y343D01*
D02*
G37*
G36*
X3158Y328D02*
X3152Y327D01*
X3146Y323D01*
X3142Y317D01*
X3141Y311D01*
X3142Y305D01*
X3146Y299D01*
X3152Y295D01*
X3158Y294D01*
X3164Y295D01*
X3170Y299D01*
X3174Y305D01*
X3175Y311D01*
X3174Y317D01*
X3170Y323D01*
X3164Y327D01*
X3158Y328D01*
D02*
G37*
G36*
X2982Y217D02*
Y183D01*
X3016D01*
X3015Y187D01*
X3011Y197D01*
X3005Y206D01*
X2996Y212D01*
X2986Y216D01*
X2982Y217D01*
D02*
G37*
G36*
X2967D02*
X2964Y216D01*
X2954Y212D01*
X2945Y206D01*
X2939Y197D01*
X2935Y187D01*
X2934Y183D01*
X2967D01*
Y217D01*
D02*
G37*
G36*
X2882Y216D02*
Y183D01*
X2916D01*
X2915Y186D01*
X2911Y196D01*
X2905Y205D01*
X2896Y211D01*
X2886Y215D01*
X2882Y216D01*
D02*
G37*
G36*
X782D02*
Y183D01*
X816D01*
X815Y186D01*
X811Y196D01*
X805Y205D01*
X796Y211D01*
X786Y215D01*
X782Y216D01*
D02*
G37*
G36*
X767D02*
X764Y215D01*
X754Y211D01*
X745Y205D01*
X739Y196D01*
X735Y186D01*
X734Y183D01*
X767D01*
Y216D01*
D02*
G37*
G36*
X2867D02*
X2864Y215D01*
X2854Y211D01*
X2845Y205D01*
X2839Y196D01*
X2835Y186D01*
X2834Y183D01*
X2867D01*
Y216D01*
D02*
G37*
G36*
X2775Y215D02*
X2765Y213D01*
X2755Y209D01*
X2747Y203D01*
X2741Y195D01*
X2737Y185D01*
X2735Y175D01*
X2737Y165D01*
X2741Y155D01*
X2747Y147D01*
X2755Y141D01*
X2765Y137D01*
X2775Y135D01*
X2785Y137D01*
X2795Y141D01*
X2803Y147D01*
X2809Y155D01*
X2813Y165D01*
X2815Y175D01*
X2813Y185D01*
X2809Y195D01*
X2803Y203D01*
X2795Y209D01*
X2785Y213D01*
X2775Y215D01*
D02*
G37*
G36*
X2675D02*
X2665Y213D01*
X2655Y209D01*
X2647Y203D01*
X2641Y195D01*
X2637Y185D01*
X2635Y175D01*
X2637Y165D01*
X2641Y155D01*
X2647Y147D01*
X2655Y141D01*
X2665Y137D01*
X2675Y135D01*
X2685Y137D01*
X2695Y141D01*
X2703Y147D01*
X2709Y155D01*
X2713Y165D01*
X2715Y175D01*
X2713Y185D01*
X2709Y195D01*
X2703Y203D01*
X2695Y209D01*
X2685Y213D01*
X2675Y215D01*
D02*
G37*
G36*
X2575D02*
X2565Y213D01*
X2555Y209D01*
X2547Y203D01*
X2541Y195D01*
X2537Y185D01*
X2535Y175D01*
X2537Y165D01*
X2541Y155D01*
X2547Y147D01*
X2555Y141D01*
X2565Y137D01*
X2575Y135D01*
X2585Y137D01*
X2595Y141D01*
X2603Y147D01*
X2609Y155D01*
X2613Y165D01*
X2615Y175D01*
X2613Y185D01*
X2609Y195D01*
X2603Y203D01*
X2595Y209D01*
X2585Y213D01*
X2575Y215D01*
D02*
G37*
G36*
X2475D02*
X2465Y213D01*
X2455Y209D01*
X2447Y203D01*
X2441Y195D01*
X2437Y185D01*
X2435Y175D01*
X2437Y165D01*
X2441Y155D01*
X2447Y147D01*
X2455Y141D01*
X2465Y137D01*
X2475Y135D01*
X2485Y137D01*
X2495Y141D01*
X2503Y147D01*
X2509Y155D01*
X2513Y165D01*
X2515Y175D01*
X2513Y185D01*
X2509Y195D01*
X2503Y203D01*
X2495Y209D01*
X2485Y213D01*
X2475Y215D01*
D02*
G37*
G36*
X1875D02*
X1865Y213D01*
X1855Y209D01*
X1847Y203D01*
X1841Y195D01*
X1837Y185D01*
X1835Y175D01*
X1837Y165D01*
X1841Y155D01*
X1847Y147D01*
X1855Y141D01*
X1865Y137D01*
X1875Y135D01*
X1885Y137D01*
X1895Y141D01*
X1903Y147D01*
X1909Y155D01*
X1913Y165D01*
X1915Y175D01*
X1913Y185D01*
X1909Y195D01*
X1903Y203D01*
X1895Y209D01*
X1885Y213D01*
X1875Y215D01*
D02*
G37*
G36*
X1775D02*
X1765Y213D01*
X1755Y209D01*
X1747Y203D01*
X1741Y195D01*
X1737Y185D01*
X1735Y175D01*
X1737Y165D01*
X1741Y155D01*
X1747Y147D01*
X1755Y141D01*
X1765Y137D01*
X1775Y135D01*
X1785Y137D01*
X1795Y141D01*
X1803Y147D01*
X1809Y155D01*
X1813Y165D01*
X1815Y175D01*
X1813Y185D01*
X1809Y195D01*
X1803Y203D01*
X1795Y209D01*
X1785Y213D01*
X1775Y215D01*
D02*
G37*
G36*
X1675D02*
X1665Y213D01*
X1655Y209D01*
X1647Y203D01*
X1641Y195D01*
X1637Y185D01*
X1635Y175D01*
X1637Y165D01*
X1641Y155D01*
X1647Y147D01*
X1655Y141D01*
X1665Y137D01*
X1675Y135D01*
X1685Y137D01*
X1695Y141D01*
X1703Y147D01*
X1709Y155D01*
X1713Y165D01*
X1715Y175D01*
X1713Y185D01*
X1709Y195D01*
X1703Y203D01*
X1695Y209D01*
X1685Y213D01*
X1675Y215D01*
D02*
G37*
G36*
X1575D02*
X1565Y213D01*
X1555Y209D01*
X1547Y203D01*
X1541Y195D01*
X1537Y185D01*
X1535Y175D01*
X1537Y165D01*
X1541Y155D01*
X1547Y147D01*
X1555Y141D01*
X1565Y137D01*
X1575Y135D01*
X1585Y137D01*
X1595Y141D01*
X1603Y147D01*
X1609Y155D01*
X1613Y165D01*
X1615Y175D01*
X1613Y185D01*
X1609Y195D01*
X1603Y203D01*
X1595Y209D01*
X1585Y213D01*
X1575Y215D01*
D02*
G37*
G36*
X1475D02*
X1465Y213D01*
X1455Y209D01*
X1447Y203D01*
X1441Y195D01*
X1437Y185D01*
X1435Y175D01*
X1437Y165D01*
X1441Y155D01*
X1447Y147D01*
X1455Y141D01*
X1465Y137D01*
X1475Y135D01*
X1485Y137D01*
X1495Y141D01*
X1503Y147D01*
X1509Y155D01*
X1513Y165D01*
X1515Y175D01*
X1513Y185D01*
X1509Y195D01*
X1503Y203D01*
X1495Y209D01*
X1485Y213D01*
X1475Y215D01*
D02*
G37*
G36*
X1375D02*
X1365Y213D01*
X1355Y209D01*
X1347Y203D01*
X1341Y195D01*
X1337Y185D01*
X1335Y175D01*
X1337Y165D01*
X1341Y155D01*
X1347Y147D01*
X1355Y141D01*
X1365Y137D01*
X1375Y135D01*
X1385Y137D01*
X1395Y141D01*
X1403Y147D01*
X1409Y155D01*
X1413Y165D01*
X1415Y175D01*
X1413Y185D01*
X1409Y195D01*
X1403Y203D01*
X1395Y209D01*
X1385Y213D01*
X1375Y215D01*
D02*
G37*
G36*
X1275D02*
X1265Y213D01*
X1255Y209D01*
X1247Y203D01*
X1241Y195D01*
X1237Y185D01*
X1235Y175D01*
X1237Y165D01*
X1241Y155D01*
X1247Y147D01*
X1255Y141D01*
X1265Y137D01*
X1275Y135D01*
X1285Y137D01*
X1295Y141D01*
X1303Y147D01*
X1309Y155D01*
X1313Y165D01*
X1315Y175D01*
X1313Y185D01*
X1309Y195D01*
X1303Y203D01*
X1295Y209D01*
X1285Y213D01*
X1275Y215D01*
D02*
G37*
G36*
X1175D02*
X1165Y213D01*
X1155Y209D01*
X1147Y203D01*
X1141Y195D01*
X1137Y185D01*
X1135Y175D01*
X1137Y165D01*
X1141Y155D01*
X1147Y147D01*
X1155Y141D01*
X1165Y137D01*
X1175Y135D01*
X1185Y137D01*
X1195Y141D01*
X1203Y147D01*
X1209Y155D01*
X1213Y165D01*
X1215Y175D01*
X1213Y185D01*
X1209Y195D01*
X1203Y203D01*
X1195Y209D01*
X1185Y213D01*
X1175Y215D01*
D02*
G37*
G36*
X975D02*
X965Y213D01*
X955Y209D01*
X947Y203D01*
X941Y195D01*
X937Y185D01*
X935Y175D01*
X937Y165D01*
X941Y155D01*
X947Y147D01*
X955Y141D01*
X965Y137D01*
X975Y135D01*
X985Y137D01*
X995Y141D01*
X1003Y147D01*
X1009Y155D01*
X1013Y165D01*
X1015Y175D01*
X1013Y185D01*
X1009Y195D01*
X1003Y203D01*
X995Y209D01*
X985Y213D01*
X975Y215D01*
D02*
G37*
G36*
X875D02*
X865Y213D01*
X855Y209D01*
X847Y203D01*
X841Y195D01*
X837Y185D01*
X835Y175D01*
X837Y165D01*
X841Y155D01*
X847Y147D01*
X855Y141D01*
X865Y137D01*
X875Y135D01*
X885Y137D01*
X895Y141D01*
X903Y147D01*
X909Y155D01*
X913Y165D01*
X915Y175D01*
X913Y185D01*
X909Y195D01*
X903Y203D01*
X895Y209D01*
X885Y213D01*
X875Y215D01*
D02*
G37*
G36*
X2967Y168D02*
X2934D01*
X2935Y165D01*
X2939Y155D01*
X2945Y146D01*
X2954Y140D01*
X2964Y136D01*
X2967Y135D01*
Y168D01*
D02*
G37*
G36*
X3016D02*
X2982D01*
Y135D01*
X2986Y136D01*
X2996Y140D01*
X3005Y146D01*
X3011Y155D01*
X3015Y165D01*
X3016Y168D01*
D02*
G37*
G36*
X767Y168D02*
X734D01*
X735Y164D01*
X739Y154D01*
X745Y145D01*
X754Y139D01*
X764Y135D01*
X767Y134D01*
Y168D01*
D02*
G37*
G36*
X2916D02*
X2882D01*
Y134D01*
X2886Y135D01*
X2896Y139D01*
X2905Y145D01*
X2911Y154D01*
X2915Y164D01*
X2916Y168D01*
D02*
G37*
G36*
X2867D02*
X2834D01*
X2835Y164D01*
X2839Y154D01*
X2845Y145D01*
X2854Y139D01*
X2864Y135D01*
X2867Y134D01*
Y168D01*
D02*
G37*
G36*
X816D02*
X782D01*
Y134D01*
X786Y135D01*
X796Y139D01*
X805Y145D01*
X811Y154D01*
X815Y164D01*
X816Y168D01*
D02*
G37*
G36*
X2882Y116D02*
Y83D01*
X2916D01*
X2915Y86D01*
X2911Y96D01*
X2905Y105D01*
X2896Y111D01*
X2886Y115D01*
X2882Y116D01*
D02*
G37*
G36*
X2982D02*
Y83D01*
X3016D01*
X3015Y86D01*
X3011Y96D01*
X3005Y105D01*
X2996Y111D01*
X2986Y115D01*
X2982Y116D01*
D02*
G37*
G36*
X782D02*
Y83D01*
X816D01*
X815Y86D01*
X811Y96D01*
X805Y105D01*
X796Y111D01*
X786Y115D01*
X782Y116D01*
D02*
G37*
G36*
X2967D02*
X2964Y115D01*
X2954Y111D01*
X2945Y105D01*
X2939Y96D01*
X2935Y86D01*
X2934Y83D01*
X2967D01*
Y116D01*
D02*
G37*
G36*
X767D02*
X764Y115D01*
X754Y111D01*
X745Y105D01*
X739Y96D01*
X735Y86D01*
X734Y83D01*
X767D01*
Y116D01*
D02*
G37*
G36*
X2867D02*
X2864Y115D01*
X2854Y111D01*
X2845Y105D01*
X2839Y96D01*
X2835Y86D01*
X2834Y83D01*
X2867D01*
Y116D01*
D02*
G37*
G36*
X2775Y115D02*
X2765Y113D01*
X2755Y109D01*
X2747Y103D01*
X2741Y95D01*
X2737Y85D01*
X2735Y75D01*
X2737Y65D01*
X2741Y55D01*
X2747Y47D01*
X2755Y41D01*
X2765Y37D01*
X2775Y35D01*
X2785Y37D01*
X2795Y41D01*
X2803Y47D01*
X2809Y55D01*
X2813Y65D01*
X2815Y75D01*
X2813Y85D01*
X2809Y95D01*
X2803Y103D01*
X2795Y109D01*
X2785Y113D01*
X2775Y115D01*
D02*
G37*
G36*
X2675D02*
X2665Y113D01*
X2655Y109D01*
X2647Y103D01*
X2641Y95D01*
X2637Y85D01*
X2635Y75D01*
X2637Y65D01*
X2641Y55D01*
X2647Y47D01*
X2655Y41D01*
X2665Y37D01*
X2675Y35D01*
X2685Y37D01*
X2695Y41D01*
X2703Y47D01*
X2709Y55D01*
X2713Y65D01*
X2715Y75D01*
X2713Y85D01*
X2709Y95D01*
X2703Y103D01*
X2695Y109D01*
X2685Y113D01*
X2675Y115D01*
D02*
G37*
G36*
X2575D02*
X2565Y113D01*
X2555Y109D01*
X2547Y103D01*
X2541Y95D01*
X2537Y85D01*
X2535Y75D01*
X2537Y65D01*
X2541Y55D01*
X2547Y47D01*
X2555Y41D01*
X2565Y37D01*
X2575Y35D01*
X2585Y37D01*
X2595Y41D01*
X2603Y47D01*
X2609Y55D01*
X2613Y65D01*
X2615Y75D01*
X2613Y85D01*
X2609Y95D01*
X2603Y103D01*
X2595Y109D01*
X2585Y113D01*
X2575Y115D01*
D02*
G37*
G36*
X2475D02*
X2465Y113D01*
X2455Y109D01*
X2447Y103D01*
X2441Y95D01*
X2437Y85D01*
X2435Y75D01*
X2437Y65D01*
X2441Y55D01*
X2447Y47D01*
X2455Y41D01*
X2465Y37D01*
X2475Y35D01*
X2485Y37D01*
X2495Y41D01*
X2503Y47D01*
X2509Y55D01*
X2513Y65D01*
X2515Y75D01*
X2513Y85D01*
X2509Y95D01*
X2503Y103D01*
X2495Y109D01*
X2485Y113D01*
X2475Y115D01*
D02*
G37*
G36*
X2375D02*
X2365Y113D01*
X2355Y109D01*
X2347Y103D01*
X2341Y95D01*
X2337Y85D01*
X2335Y75D01*
X2337Y65D01*
X2341Y55D01*
X2347Y47D01*
X2355Y41D01*
X2365Y37D01*
X2375Y35D01*
X2385Y37D01*
X2395Y41D01*
X2403Y47D01*
X2409Y55D01*
X2413Y65D01*
X2415Y75D01*
X2413Y85D01*
X2409Y95D01*
X2403Y103D01*
X2395Y109D01*
X2385Y113D01*
X2375Y115D01*
D02*
G37*
G36*
X2075D02*
X2065Y113D01*
X2055Y109D01*
X2047Y103D01*
X2041Y95D01*
X2037Y85D01*
X2035Y75D01*
X2037Y65D01*
X2041Y55D01*
X2047Y47D01*
X2055Y41D01*
X2065Y37D01*
X2075Y35D01*
X2085Y37D01*
X2095Y41D01*
X2103Y47D01*
X2109Y55D01*
X2113Y65D01*
X2115Y75D01*
X2113Y85D01*
X2109Y95D01*
X2103Y103D01*
X2095Y109D01*
X2085Y113D01*
X2075Y115D01*
D02*
G37*
G36*
X1875D02*
X1865Y113D01*
X1855Y109D01*
X1847Y103D01*
X1841Y95D01*
X1837Y85D01*
X1835Y75D01*
X1837Y65D01*
X1841Y55D01*
X1847Y47D01*
X1855Y41D01*
X1865Y37D01*
X1875Y35D01*
X1885Y37D01*
X1895Y41D01*
X1903Y47D01*
X1909Y55D01*
X1913Y65D01*
X1915Y75D01*
X1913Y85D01*
X1909Y95D01*
X1903Y103D01*
X1895Y109D01*
X1885Y113D01*
X1875Y115D01*
D02*
G37*
G36*
X1775D02*
X1765Y113D01*
X1755Y109D01*
X1747Y103D01*
X1741Y95D01*
X1737Y85D01*
X1735Y75D01*
X1737Y65D01*
X1741Y55D01*
X1747Y47D01*
X1755Y41D01*
X1765Y37D01*
X1775Y35D01*
X1785Y37D01*
X1795Y41D01*
X1803Y47D01*
X1809Y55D01*
X1813Y65D01*
X1815Y75D01*
X1813Y85D01*
X1809Y95D01*
X1803Y103D01*
X1795Y109D01*
X1785Y113D01*
X1775Y115D01*
D02*
G37*
G36*
X1675D02*
X1665Y113D01*
X1655Y109D01*
X1647Y103D01*
X1641Y95D01*
X1637Y85D01*
X1635Y75D01*
X1637Y65D01*
X1641Y55D01*
X1647Y47D01*
X1655Y41D01*
X1665Y37D01*
X1675Y35D01*
X1685Y37D01*
X1695Y41D01*
X1703Y47D01*
X1709Y55D01*
X1713Y65D01*
X1715Y75D01*
X1713Y85D01*
X1709Y95D01*
X1703Y103D01*
X1695Y109D01*
X1685Y113D01*
X1675Y115D01*
D02*
G37*
G36*
X1575D02*
X1565Y113D01*
X1555Y109D01*
X1547Y103D01*
X1541Y95D01*
X1537Y85D01*
X1535Y75D01*
X1537Y65D01*
X1541Y55D01*
X1547Y47D01*
X1555Y41D01*
X1565Y37D01*
X1575Y35D01*
X1585Y37D01*
X1595Y41D01*
X1603Y47D01*
X1609Y55D01*
X1613Y65D01*
X1615Y75D01*
X1613Y85D01*
X1609Y95D01*
X1603Y103D01*
X1595Y109D01*
X1585Y113D01*
X1575Y115D01*
D02*
G37*
G36*
X1475D02*
X1465Y113D01*
X1455Y109D01*
X1447Y103D01*
X1441Y95D01*
X1437Y85D01*
X1435Y75D01*
X1437Y65D01*
X1441Y55D01*
X1447Y47D01*
X1455Y41D01*
X1465Y37D01*
X1475Y35D01*
X1485Y37D01*
X1495Y41D01*
X1503Y47D01*
X1509Y55D01*
X1513Y65D01*
X1515Y75D01*
X1513Y85D01*
X1509Y95D01*
X1503Y103D01*
X1495Y109D01*
X1485Y113D01*
X1475Y115D01*
D02*
G37*
G36*
X1375D02*
X1365Y113D01*
X1355Y109D01*
X1347Y103D01*
X1341Y95D01*
X1337Y85D01*
X1335Y75D01*
X1337Y65D01*
X1341Y55D01*
X1347Y47D01*
X1355Y41D01*
X1365Y37D01*
X1375Y35D01*
X1385Y37D01*
X1395Y41D01*
X1403Y47D01*
X1409Y55D01*
X1413Y65D01*
X1415Y75D01*
X1413Y85D01*
X1409Y95D01*
X1403Y103D01*
X1395Y109D01*
X1385Y113D01*
X1375Y115D01*
D02*
G37*
G36*
X1275D02*
X1265Y113D01*
X1255Y109D01*
X1247Y103D01*
X1241Y95D01*
X1237Y85D01*
X1235Y75D01*
X1237Y65D01*
X1241Y55D01*
X1247Y47D01*
X1255Y41D01*
X1265Y37D01*
X1275Y35D01*
X1285Y37D01*
X1295Y41D01*
X1303Y47D01*
X1309Y55D01*
X1313Y65D01*
X1315Y75D01*
X1313Y85D01*
X1309Y95D01*
X1303Y103D01*
X1295Y109D01*
X1285Y113D01*
X1275Y115D01*
D02*
G37*
G36*
X1175D02*
X1165Y113D01*
X1155Y109D01*
X1147Y103D01*
X1141Y95D01*
X1137Y85D01*
X1135Y75D01*
X1137Y65D01*
X1141Y55D01*
X1147Y47D01*
X1155Y41D01*
X1165Y37D01*
X1175Y35D01*
X1185Y37D01*
X1195Y41D01*
X1203Y47D01*
X1209Y55D01*
X1213Y65D01*
X1215Y75D01*
X1213Y85D01*
X1209Y95D01*
X1203Y103D01*
X1195Y109D01*
X1185Y113D01*
X1175Y115D01*
D02*
G37*
G36*
X1075Y215D02*
X1065Y213D01*
X1055Y209D01*
X1047Y203D01*
X1041Y195D01*
X1037Y185D01*
X1035Y175D01*
X1037Y165D01*
X1041Y155D01*
X1047Y147D01*
X1055Y141D01*
X1061Y138D01*
Y112D01*
X1055Y109D01*
X1047Y103D01*
X1041Y95D01*
X1037Y85D01*
X1035Y75D01*
X1037Y65D01*
X1041Y55D01*
X1047Y47D01*
X1055Y41D01*
X1065Y37D01*
X1075Y35D01*
X1085Y37D01*
X1095Y41D01*
X1103Y47D01*
X1109Y55D01*
X1113Y65D01*
X1115Y75D01*
X1113Y85D01*
X1109Y95D01*
X1103Y103D01*
X1095Y109D01*
X1089Y112D01*
Y138D01*
X1095Y141D01*
X1103Y147D01*
X1109Y155D01*
X1113Y165D01*
X1115Y175D01*
X1113Y185D01*
X1109Y195D01*
X1103Y203D01*
X1095Y209D01*
X1085Y213D01*
X1075Y215D01*
D02*
G37*
G36*
X975Y115D02*
X965Y113D01*
X955Y109D01*
X947Y103D01*
X941Y95D01*
X937Y85D01*
X935Y75D01*
X937Y65D01*
X941Y55D01*
X947Y47D01*
X955Y41D01*
X965Y37D01*
X975Y35D01*
X985Y37D01*
X995Y41D01*
X1003Y47D01*
X1009Y55D01*
X1013Y65D01*
X1015Y75D01*
X1013Y85D01*
X1009Y95D01*
X1003Y103D01*
X995Y109D01*
X985Y113D01*
X975Y115D01*
D02*
G37*
G36*
X875D02*
X865Y113D01*
X855Y109D01*
X847Y103D01*
X841Y95D01*
X837Y85D01*
X835Y75D01*
X837Y65D01*
X841Y55D01*
X847Y47D01*
X855Y41D01*
X865Y37D01*
X875Y35D01*
X885Y37D01*
X895Y41D01*
X903Y47D01*
X909Y55D01*
X913Y65D01*
X915Y75D01*
X913Y85D01*
X909Y95D01*
X903Y103D01*
X895Y109D01*
X885Y113D01*
X875Y115D01*
D02*
G37*
G36*
X2967Y68D02*
X2934D01*
X2935Y64D01*
X2939Y54D01*
X2945Y45D01*
X2954Y39D01*
X2964Y35D01*
X2967Y34D01*
Y68D01*
D02*
G37*
G36*
X767D02*
X734D01*
X735Y64D01*
X739Y54D01*
X745Y45D01*
X754Y39D01*
X764Y35D01*
X767Y34D01*
Y68D01*
D02*
G37*
G36*
X2916D02*
X2882D01*
Y34D01*
X2886Y35D01*
X2896Y39D01*
X2905Y45D01*
X2911Y54D01*
X2915Y64D01*
X2916Y68D01*
D02*
G37*
G36*
X2867D02*
X2834D01*
X2835Y64D01*
X2839Y54D01*
X2845Y45D01*
X2854Y39D01*
X2864Y35D01*
X2867Y34D01*
Y68D01*
D02*
G37*
G36*
X3016D02*
X2982D01*
Y34D01*
X2986Y35D01*
X2996Y39D01*
X3005Y45D01*
X3011Y54D01*
X3015Y64D01*
X3016Y68D01*
D02*
G37*
G36*
X816D02*
X782D01*
Y34D01*
X786Y35D01*
X796Y39D01*
X805Y45D01*
X811Y54D01*
X815Y64D01*
X816Y68D01*
D02*
G37*
G36*
X2948Y-91D02*
X2942Y-92D01*
X2936Y-96D01*
X2933Y-102D01*
X2931Y-108D01*
X2933Y-114D01*
X2936Y-120D01*
X2942Y-124D01*
X2948Y-125D01*
X2954Y-124D01*
X2960Y-120D01*
X2964Y-114D01*
X2965Y-108D01*
X2964Y-102D01*
X2960Y-96D01*
X2954Y-92D01*
X2948Y-91D01*
D02*
G37*
G36*
X3001Y-122D02*
X2994Y-123D01*
X2989Y-127D01*
X2985Y-133D01*
X2984Y-139D01*
X2985Y-145D01*
X2989Y-151D01*
X2994Y-155D01*
X3001Y-156D01*
X3007Y-155D01*
X3012Y-151D01*
X3016Y-145D01*
X3017Y-139D01*
X3016Y-133D01*
X3012Y-127D01*
X3007Y-123D01*
X3001Y-122D01*
D02*
G37*
G36*
X1868Y-143D02*
Y-175D01*
X1899D01*
X1899Y-172D01*
X1895Y-162D01*
X1889Y-154D01*
X1880Y-147D01*
X1871Y-144D01*
X1868Y-143D01*
D02*
G37*
G36*
X1168D02*
Y-175D01*
X1199D01*
X1199Y-172D01*
X1195Y-162D01*
X1189Y-154D01*
X1180Y-147D01*
X1171Y-144D01*
X1168Y-143D01*
D02*
G37*
G36*
X1068D02*
Y-175D01*
X1099D01*
X1099Y-172D01*
X1095Y-162D01*
X1089Y-154D01*
X1080Y-147D01*
X1071Y-144D01*
X1068Y-143D01*
D02*
G37*
G36*
X1853D02*
X1850Y-144D01*
X1841Y-147D01*
X1832Y-154D01*
X1826Y-162D01*
X1822Y-172D01*
X1822Y-175D01*
X1853D01*
Y-143D01*
D02*
G37*
G36*
X1153D02*
X1150Y-144D01*
X1141Y-147D01*
X1132Y-154D01*
X1126Y-162D01*
X1122Y-172D01*
X1122Y-175D01*
X1153D01*
Y-143D01*
D02*
G37*
G36*
X1053D02*
X1050Y-144D01*
X1041Y-147D01*
X1032Y-154D01*
X1026Y-162D01*
X1022Y-172D01*
X1022Y-175D01*
X1053D01*
Y-143D01*
D02*
G37*
G36*
X1760Y-144D02*
X1751Y-145D01*
X1742Y-149D01*
X1734Y-155D01*
X1728Y-163D01*
X1724Y-172D01*
X1723Y-182D01*
X1724Y-192D01*
X1728Y-201D01*
X1734Y-209D01*
X1742Y-215D01*
X1751Y-219D01*
X1760Y-220D01*
X1770Y-219D01*
X1779Y-215D01*
X1787Y-209D01*
X1793Y-201D01*
X1797Y-192D01*
X1798Y-182D01*
X1797Y-172D01*
X1793Y-163D01*
X1787Y-155D01*
X1779Y-149D01*
X1770Y-145D01*
X1760Y-144D01*
D02*
G37*
G36*
X1660D02*
X1651Y-145D01*
X1642Y-149D01*
X1634Y-155D01*
X1628Y-163D01*
X1624Y-172D01*
X1623Y-182D01*
X1624Y-192D01*
X1628Y-201D01*
X1634Y-209D01*
X1642Y-215D01*
X1651Y-219D01*
X1660Y-220D01*
X1670Y-219D01*
X1679Y-215D01*
X1687Y-209D01*
X1693Y-201D01*
X1697Y-192D01*
X1698Y-182D01*
X1697Y-172D01*
X1693Y-163D01*
X1687Y-155D01*
X1679Y-149D01*
X1670Y-145D01*
X1660Y-144D01*
D02*
G37*
G36*
X1899Y-190D02*
X1868D01*
Y-221D01*
X1871Y-220D01*
X1880Y-216D01*
X1889Y-210D01*
X1895Y-202D01*
X1899Y-192D01*
X1899Y-190D01*
D02*
G37*
G36*
X1199D02*
X1168D01*
Y-221D01*
X1171Y-220D01*
X1180Y-216D01*
X1189Y-210D01*
X1195Y-202D01*
X1199Y-192D01*
X1199Y-190D01*
D02*
G37*
G36*
X1099D02*
X1068D01*
Y-221D01*
X1071Y-220D01*
X1080Y-216D01*
X1089Y-210D01*
X1095Y-202D01*
X1099Y-192D01*
X1099Y-190D01*
D02*
G37*
G36*
X1853D02*
X1822D01*
X1822Y-192D01*
X1826Y-202D01*
X1832Y-210D01*
X1841Y-216D01*
X1850Y-220D01*
X1853Y-221D01*
Y-190D01*
D02*
G37*
G36*
X1153D02*
X1122D01*
X1122Y-192D01*
X1126Y-202D01*
X1132Y-210D01*
X1141Y-216D01*
X1150Y-220D01*
X1153Y-221D01*
Y-190D01*
D02*
G37*
G36*
X1053D02*
X1022D01*
X1022Y-192D01*
X1026Y-202D01*
X1032Y-210D01*
X1041Y-216D01*
X1050Y-220D01*
X1053Y-221D01*
Y-190D01*
D02*
G37*
G36*
X2175Y115D02*
X2165Y113D01*
X2155Y109D01*
X2147Y103D01*
X2141Y95D01*
X2137Y85D01*
X2135Y75D01*
X2137Y65D01*
X2141Y55D01*
X2147Y47D01*
X2155Y41D01*
X2165Y37D01*
X2175Y35D01*
X2180Y36D01*
X2280Y-64D01*
X2280Y-64D01*
X2288Y-69D01*
X2297Y-71D01*
X2297Y-71D01*
X2988D01*
X3109Y-192D01*
X3108Y-201D01*
X3110Y-212D01*
X3114Y-223D01*
X3121Y-232D01*
X3130Y-239D01*
X3141Y-243D01*
X3152Y-245D01*
X3163Y-243D01*
X3174Y-239D01*
X3183Y-232D01*
X3190Y-223D01*
X3194Y-212D01*
X3196Y-201D01*
X3194Y-190D01*
X3190Y-179D01*
X3183Y-170D01*
X3174Y-163D01*
X3163Y-159D01*
X3152Y-157D01*
X3143Y-158D01*
X3015Y-30D01*
X3007Y-25D01*
X2998Y-23D01*
X2998Y-23D01*
X2307D01*
X2214Y70D01*
X2215Y75D01*
X2213Y85D01*
X2209Y95D01*
X2203Y103D01*
X2195Y109D01*
X2185Y113D01*
X2175Y115D01*
D02*
G37*
G36*
X1975D02*
X1965Y113D01*
X1955Y109D01*
X1947Y103D01*
X1941Y95D01*
X1937Y85D01*
X1935Y75D01*
X1937Y65D01*
X1941Y55D01*
X1947Y47D01*
X1955Y41D01*
X1965Y37D01*
X1975Y35D01*
X1980Y36D01*
X2143Y-127D01*
X2151Y-132D01*
X2160Y-134D01*
X2391D01*
X2625Y-368D01*
X2625Y-368D01*
X2633Y-373D01*
X2642Y-375D01*
X2642Y-375D01*
X3116D01*
X3121Y-382D01*
X3130Y-389D01*
X3141Y-393D01*
X3152Y-395D01*
X3163Y-393D01*
X3174Y-389D01*
X3183Y-382D01*
X3190Y-373D01*
X3194Y-362D01*
X3196Y-351D01*
X3194Y-340D01*
X3190Y-329D01*
X3183Y-320D01*
X3174Y-313D01*
X3163Y-309D01*
X3152Y-307D01*
X3141Y-309D01*
X3130Y-313D01*
X3121Y-320D01*
X3116Y-327D01*
X2652D01*
X2418Y-93D01*
X2410Y-88D01*
X2401Y-86D01*
X2401Y-86D01*
X2170D01*
X2014Y70D01*
X2015Y75D01*
X2013Y85D01*
X2009Y95D01*
X2003Y103D01*
X1995Y109D01*
X1985Y113D01*
X1975Y115D01*
D02*
G37*
G36*
X2248Y-440D02*
X2236Y-441D01*
X2225Y-446D01*
X2216Y-453D01*
X2211Y-459D01*
X2206D01*
X2201Y-453D01*
X2192Y-446D01*
X2181Y-441D01*
X2169Y-440D01*
X2157Y-441D01*
X2146Y-446D01*
X2137Y-453D01*
X2129Y-462D01*
X2125Y-474D01*
X2123Y-485D01*
X2125Y-497D01*
X2129Y-508D01*
X2137Y-518D01*
X2146Y-525D01*
X2157Y-530D01*
X2169Y-531D01*
X2181Y-530D01*
X2192Y-525D01*
X2201Y-518D01*
X2206Y-512D01*
X2211D01*
X2216Y-518D01*
X2225Y-525D01*
X2236Y-530D01*
X2248Y-531D01*
X2260Y-530D01*
X2271Y-525D01*
X2280Y-518D01*
X2288Y-508D01*
X2292Y-497D01*
X2294Y-485D01*
X2292Y-474D01*
X2288Y-462D01*
X2280Y-453D01*
X2271Y-446D01*
X2260Y-441D01*
X2248Y-440D01*
D02*
G37*
G36*
X3159Y-456D02*
Y-493D01*
X3197D01*
X3196Y-489D01*
X3192Y-478D01*
X3184Y-469D01*
X3175Y-461D01*
X3164Y-457D01*
X3159Y-456D01*
D02*
G37*
G36*
X3145D02*
X3140Y-457D01*
X3129Y-461D01*
X3120Y-469D01*
X3112Y-478D01*
X3108Y-489D01*
X3107Y-493D01*
X3145D01*
Y-456D01*
D02*
G37*
G36*
X738Y-505D02*
X732Y-506D01*
X726Y-510D01*
X722Y-516D01*
X721Y-522D01*
X722Y-528D01*
X726Y-534D01*
X732Y-538D01*
X738Y-539D01*
X744Y-538D01*
X750Y-534D01*
X754Y-528D01*
X755Y-522D01*
X754Y-516D01*
X750Y-510D01*
X744Y-506D01*
X738Y-505D01*
D02*
G37*
G36*
X3197Y-508D02*
X3159D01*
Y-546D01*
X3164Y-545D01*
X3175Y-541D01*
X3184Y-533D01*
X3192Y-524D01*
X3196Y-513D01*
X3197Y-508D01*
D02*
G37*
G36*
X3145D02*
X3107D01*
X3108Y-513D01*
X3112Y-524D01*
X3120Y-533D01*
X3129Y-541D01*
X3140Y-545D01*
X3145Y-546D01*
Y-508D01*
D02*
G37*
G36*
X775Y-526D02*
X769Y-528D01*
X763Y-531D01*
X759Y-537D01*
X758Y-543D01*
X759Y-550D01*
X763Y-555D01*
X769Y-559D01*
X775Y-560D01*
X781Y-559D01*
X787Y-555D01*
X791Y-550D01*
X792Y-543D01*
X791Y-537D01*
X787Y-531D01*
X781Y-528D01*
X775Y-526D01*
D02*
G37*
G36*
X2060Y-115D02*
X2047Y-116D01*
X2035Y-120D01*
X2023Y-126D01*
X2013Y-135D01*
X2005Y-145D01*
X1999Y-156D01*
X1995Y-169D01*
X1994Y-182D01*
X1995Y-195D01*
X1999Y-208D01*
X2005Y-219D01*
X2013Y-229D01*
X2021Y-235D01*
X2016Y-246D01*
X2015Y-258D01*
X2016Y-270D01*
X2021Y-281D01*
X2026Y-287D01*
X2021Y-294D01*
X2016Y-305D01*
X2015Y-317D01*
X2016Y-329D01*
X2021Y-340D01*
X2026Y-346D01*
X2028Y-350D01*
X2026Y-354D01*
X2021Y-360D01*
X2016Y-371D01*
X2015Y-383D01*
X2016Y-395D01*
X2021Y-406D01*
X2028Y-415D01*
X2032Y-419D01*
Y-424D01*
X2027Y-428D01*
X2020Y-437D01*
X2015Y-448D01*
X2014Y-460D01*
X2015Y-472D01*
X2020Y-483D01*
X2027Y-492D01*
X2037Y-500D01*
X2041Y-502D01*
Y-507D01*
X2038Y-508D01*
X2028Y-516D01*
X2021Y-525D01*
X2016Y-536D01*
X2015Y-548D01*
X2016Y-560D01*
X2021Y-571D01*
X2028Y-580D01*
X2038Y-588D01*
X2049Y-592D01*
X2060Y-594D01*
X2072Y-592D01*
X2083Y-588D01*
X2093Y-580D01*
X2100Y-571D01*
X2105Y-560D01*
X2106Y-548D01*
X2105Y-536D01*
X2100Y-525D01*
X2093Y-516D01*
X2083Y-508D01*
X2079Y-506D01*
Y-501D01*
X2083Y-500D01*
X2092Y-492D01*
X2099Y-483D01*
X2104Y-472D01*
X2106Y-460D01*
X2104Y-448D01*
X2099Y-437D01*
X2092Y-428D01*
X2088Y-424D01*
Y-419D01*
X2093Y-415D01*
X2100Y-406D01*
X2105Y-395D01*
X2106Y-383D01*
X2105Y-371D01*
X2100Y-360D01*
X2095Y-354D01*
X2093Y-350D01*
X2095Y-346D01*
X2100Y-340D01*
X2105Y-329D01*
X2106Y-317D01*
X2105Y-305D01*
X2100Y-294D01*
X2095Y-287D01*
X2100Y-281D01*
X2105Y-270D01*
X2106Y-258D01*
X2105Y-246D01*
X2100Y-235D01*
X2108Y-229D01*
X2116Y-219D01*
X2122Y-208D01*
X2126Y-195D01*
X2127Y-182D01*
X2126Y-169D01*
X2122Y-156D01*
X2116Y-145D01*
X2108Y-135D01*
X2098Y-126D01*
X2086Y-120D01*
X2074Y-116D01*
X2060Y-115D01*
D02*
G37*
G36*
X1868Y-743D02*
Y-775D01*
X1899D01*
X1899Y-772D01*
X1895Y-762D01*
X1889Y-754D01*
X1880Y-748D01*
X1871Y-744D01*
X1868Y-743D01*
D02*
G37*
G36*
X1853D02*
X1850Y-744D01*
X1841Y-748D01*
X1832Y-754D01*
X1826Y-762D01*
X1822Y-772D01*
X1822Y-775D01*
X1853D01*
Y-743D01*
D02*
G37*
G36*
X2470Y-567D02*
X2463Y-569D01*
X2457Y-573D01*
X2453Y-579D01*
X2452Y-582D01*
X2426Y-608D01*
X1815D01*
X1808Y-610D01*
X1802Y-614D01*
X1670Y-745D01*
X1670Y-745D01*
X1660Y-744D01*
X1651Y-745D01*
X1642Y-749D01*
X1634Y-755D01*
X1628Y-763D01*
X1624Y-772D01*
X1623Y-782D01*
X1624Y-792D01*
X1628Y-801D01*
X1634Y-809D01*
X1642Y-815D01*
X1651Y-819D01*
X1660Y-820D01*
X1670Y-819D01*
X1679Y-815D01*
X1687Y-809D01*
X1693Y-801D01*
X1697Y-792D01*
X1698Y-782D01*
X1697Y-772D01*
X1697Y-772D01*
X1823Y-646D01*
X1838D01*
X1840Y-651D01*
X1747Y-744D01*
X1745Y-748D01*
X1742Y-749D01*
X1734Y-755D01*
X1728Y-763D01*
X1724Y-772D01*
X1723Y-782D01*
X1724Y-792D01*
X1728Y-801D01*
X1734Y-809D01*
X1742Y-815D01*
X1751Y-819D01*
X1760Y-820D01*
X1770Y-819D01*
X1779Y-815D01*
X1787Y-809D01*
X1793Y-801D01*
X1797Y-792D01*
X1798Y-782D01*
X1797Y-772D01*
X1793Y-763D01*
X1788Y-757D01*
X1866Y-679D01*
X2522D01*
X2529Y-677D01*
X2535Y-673D01*
X2569Y-640D01*
X2573Y-634D01*
X2574Y-627D01*
Y-600D01*
X2573Y-593D01*
X2569Y-587D01*
X2563Y-583D01*
X2555Y-581D01*
X2548Y-583D01*
X2542Y-587D01*
X2538Y-593D01*
X2536Y-600D01*
Y-619D01*
X2514Y-641D01*
X2454D01*
X2452Y-636D01*
X2483Y-604D01*
X2487Y-598D01*
X2489Y-591D01*
Y-586D01*
X2487Y-579D01*
X2483Y-573D01*
X2477Y-569D01*
X2470Y-567D01*
D02*
G37*
G36*
X1160Y-744D02*
X1151Y-745D01*
X1142Y-749D01*
X1134Y-755D01*
X1128Y-763D01*
X1124Y-772D01*
X1123Y-782D01*
X1124Y-792D01*
X1128Y-801D01*
X1134Y-809D01*
X1142Y-815D01*
X1151Y-819D01*
X1160Y-820D01*
X1170Y-819D01*
X1179Y-815D01*
X1187Y-809D01*
X1193Y-801D01*
X1197Y-792D01*
X1198Y-782D01*
X1197Y-772D01*
X1193Y-763D01*
X1187Y-755D01*
X1179Y-749D01*
X1170Y-745D01*
X1160Y-744D01*
D02*
G37*
G36*
X1060D02*
X1051Y-745D01*
X1042Y-749D01*
X1034Y-755D01*
X1028Y-763D01*
X1024Y-772D01*
X1023Y-782D01*
X1024Y-792D01*
X1028Y-801D01*
X1034Y-809D01*
X1042Y-815D01*
X1051Y-819D01*
X1060Y-820D01*
X1070Y-819D01*
X1079Y-815D01*
X1087Y-809D01*
X1093Y-801D01*
X1097Y-792D01*
X1098Y-782D01*
X1097Y-772D01*
X1093Y-763D01*
X1087Y-755D01*
X1079Y-749D01*
X1070Y-745D01*
X1060Y-744D01*
D02*
G37*
G36*
X1899Y-789D02*
X1868D01*
Y-821D01*
X1871Y-820D01*
X1880Y-817D01*
X1889Y-810D01*
X1895Y-802D01*
X1899Y-792D01*
X1899Y-789D01*
D02*
G37*
G36*
X1853D02*
X1822D01*
X1822Y-792D01*
X1826Y-802D01*
X1832Y-810D01*
X1841Y-817D01*
X1850Y-820D01*
X1853Y-821D01*
Y-789D01*
D02*
G37*
G36*
X2060Y-715D02*
X2047Y-716D01*
X2035Y-720D01*
X2023Y-726D01*
X2013Y-735D01*
X2005Y-745D01*
X1999Y-756D01*
X1995Y-769D01*
X1994Y-782D01*
X1995Y-795D01*
X1999Y-808D01*
X2005Y-819D01*
X2013Y-829D01*
X2023Y-838D01*
X2035Y-844D01*
X2047Y-848D01*
X2060Y-849D01*
X2074Y-848D01*
X2086Y-844D01*
X2098Y-838D01*
X2108Y-829D01*
X2116Y-819D01*
X2122Y-808D01*
X2126Y-795D01*
X2127Y-782D01*
X2126Y-769D01*
X2122Y-756D01*
X2116Y-745D01*
X2108Y-735D01*
X2098Y-726D01*
X2086Y-720D01*
X2074Y-716D01*
X2060Y-715D01*
D02*
G37*
%LPD*%
G36*
X3020Y1421D02*
X3021Y1417D01*
X2983Y1379D01*
X2154D01*
X2115Y1418D01*
X2117Y1422D01*
X3019D01*
X3020Y1421D01*
D02*
G37*
D10*
X1762Y666D02*
X1964D01*
X1738Y642D02*
X1762Y666D01*
X1853Y326D02*
X1952D01*
X1951Y463D02*
Y465D01*
X2025Y539D01*
D31*
X3280Y1159D02*
D03*
Y1493D02*
D03*
D47*
X2470Y-591D02*
Y-586D01*
X2555Y-627D02*
Y-600D01*
X2522Y-660D02*
X2555Y-627D01*
X1858Y-660D02*
X2522D01*
X1760Y-758D02*
X1858Y-660D01*
X1760Y-782D02*
Y-758D01*
X1660Y-782D02*
X1815Y-627D01*
X2434D01*
X2470Y-591D01*
D48*
X2189Y229D02*
X2262Y302D01*
X2129Y229D02*
X2189D01*
X2075Y175D02*
X2129Y229D01*
X2180Y250D02*
X2238Y308D01*
X2050Y250D02*
X2180D01*
X1975Y175D02*
X2050Y250D01*
X2262Y302D02*
Y351D01*
X2238Y308D02*
Y368D01*
X3026Y1323D02*
X3154Y1451D01*
X2047Y1373D02*
X2097Y1323D01*
X3004Y1344D02*
X3127Y1467D01*
X2123Y1360D02*
X2139Y1344D01*
X2988Y1365D02*
X3104Y1481D01*
X1075Y75D02*
X1075Y75D01*
Y175D01*
X3189Y1945D02*
Y1947D01*
X3132Y2004D02*
X3189Y1947D01*
X3047Y2004D02*
X3132D01*
X2975Y2076D02*
X3047Y2004D01*
X3102Y1975D02*
X3136Y1941D01*
X2975Y1975D02*
X3102D01*
X3089Y1906D02*
X3092Y1909D01*
X2969Y1906D02*
X3089D01*
X2926Y1949D02*
X2969Y1906D01*
X2905Y1921D02*
X2998Y1829D01*
X2905Y1921D02*
Y1945D01*
X2875Y1975D02*
X2905Y1945D01*
X2926Y1949D02*
Y2024D01*
X2875Y2075D02*
X2926Y2024D01*
X3123Y1829D02*
X3170Y1782D01*
X2998Y1829D02*
X3123D01*
X3106Y1794D02*
X3167Y1733D01*
X2979Y1794D02*
X3106D01*
X2933Y1840D02*
X2979Y1794D01*
X2906Y1822D02*
X2964Y1764D01*
X3069D01*
X2874Y1802D02*
X2937Y1739D01*
X3048D01*
X2933Y1840D02*
Y1858D01*
X2881Y1910D02*
X2933Y1858D01*
X2856Y1910D02*
X2881D01*
X2825Y1941D02*
X2856Y1910D01*
X2825Y1941D02*
Y2025D01*
X2775Y2075D02*
X2825Y2025D01*
X2871Y1847D02*
X2897Y1822D01*
X2830Y1847D02*
X2871D01*
X2775Y1902D02*
X2830Y1847D01*
X3069Y1764D02*
X3129Y1704D01*
X3048Y1739D02*
X3081Y1706D01*
X2920Y1708D02*
X3031D01*
X2855Y1773D02*
X2920Y1708D01*
X2897Y1822D02*
X2906D01*
X2820Y1802D02*
X2874D01*
X2726Y1896D02*
X2820Y1802D01*
X2800Y1773D02*
X2855D01*
X2675Y1898D02*
X2800Y1773D01*
X2775Y1902D02*
Y1975D01*
X2675Y1898D02*
Y1975D01*
X2726Y1896D02*
Y2024D01*
X2675Y2075D02*
X2726Y2024D01*
X1537Y1437D02*
X1581Y1393D01*
X1537Y1437D02*
Y1603D01*
X1607Y1438D02*
Y1438D01*
X1611Y1503D02*
Y1568D01*
X2663Y1122D02*
X2665Y1120D01*
Y795D02*
Y1120D01*
X2690Y779D02*
Y1194D01*
X2262Y351D02*
X2690Y779D01*
X2718Y766D02*
Y1180D01*
X2754Y760D02*
Y1179D01*
X2780Y1137D02*
X2784Y1141D01*
X2780Y886D02*
Y1137D01*
X2295Y343D02*
X2718Y766D01*
X2238Y368D02*
X2665Y795D01*
X2326Y332D02*
X2754Y760D01*
X2175Y175D02*
X2295Y295D01*
Y343D01*
X2718Y1180D02*
X2719Y1181D01*
X2764Y1226D02*
X2791Y1198D01*
X2722Y1226D02*
X2764D01*
X2690Y1194D02*
X2722Y1226D01*
X2326Y126D02*
Y332D01*
X2275Y75D02*
X2326Y126D01*
X2202Y2027D02*
X2224Y2005D01*
X2123Y2027D02*
X2202D01*
X2075Y2075D02*
X2123Y2027D01*
X2175Y2075D02*
X2185D01*
X2235Y2025D01*
X2608D01*
X2626Y2007D01*
Y1930D02*
Y2007D01*
X2374Y1880D02*
X2413Y1919D01*
X2254Y1880D02*
X2374D01*
X2175Y1959D02*
X2254Y1880D01*
X2175Y1959D02*
Y1975D01*
X2224Y1959D02*
Y2005D01*
Y1959D02*
X2279Y1904D01*
X2413Y1919D02*
X2563D01*
X2583Y1899D01*
X2075Y1975D02*
X2212Y1838D01*
X2441D01*
X2499Y1895D01*
X2552D01*
X2663Y1726D02*
X2706Y1769D01*
X2663Y1629D02*
Y1726D01*
X2634Y1600D02*
X2663Y1629D01*
X2693Y1711D02*
Y1714D01*
X2690Y1708D02*
X2693Y1711D01*
X2717Y1608D02*
Y1744D01*
X2716Y1745D02*
X2717Y1744D01*
X2706Y1769D02*
X2728D01*
X2749Y1790D01*
X2690Y1616D02*
Y1708D01*
X1918Y1373D02*
X2047D01*
X1846Y1653D02*
X1979Y1520D01*
X1841Y1628D02*
X1970Y1499D01*
X1838Y1602D02*
X1962Y1478D01*
X1837Y1573D02*
X1953Y1457D01*
X1829Y1551D02*
X1944Y1436D01*
X1827Y1523D02*
X1935Y1415D01*
X1821Y1500D02*
X1927Y1394D01*
X1857Y1434D02*
X1918Y1373D01*
X1791Y1434D02*
X1857D01*
X1779Y1500D02*
X1821D01*
X1769Y1523D02*
X1827D01*
X1781Y1551D02*
X1829D01*
X1769Y1573D02*
X1837D01*
X1749Y1602D02*
X1838D01*
X1770Y1628D02*
X1841D01*
X1753Y1653D02*
X1846D01*
X2639Y1705D02*
Y1731D01*
X2573Y1797D02*
X2639Y1731D01*
X2612Y1679D02*
Y1721D01*
X2564Y1769D02*
X2612Y1721D01*
X1703Y1769D02*
X2564D01*
X2588Y1708D02*
Y1715D01*
X2557Y1746D02*
X2588Y1715D01*
X1717Y1746D02*
X2557D01*
X1693Y1797D02*
X2573D01*
X1506Y1610D02*
X1693Y1797D01*
X1537Y1603D02*
X1703Y1769D01*
X1564Y1593D02*
X1717Y1746D01*
X2562Y1667D02*
Y1699D01*
X2612Y1679D02*
X2613Y1678D01*
X1506Y1401D02*
Y1610D01*
X1564Y1447D02*
Y1593D01*
X1586Y1459D02*
Y1580D01*
X1555Y1352D02*
X1615D01*
X1506Y1401D02*
X1555Y1352D01*
X1581Y1391D02*
Y1393D01*
X1586Y1459D02*
X1607Y1438D01*
X1753Y1472D02*
X1754D01*
X1791Y1434D01*
X1779Y1499D02*
X1779Y1500D01*
X1746Y1499D02*
X1779D01*
X3154Y1451D02*
Y1565D01*
X3127Y1467D02*
Y1544D01*
X3129Y1546D01*
X3104Y1481D02*
Y1565D01*
X3078Y1494D02*
Y1545D01*
X3052Y1512D02*
Y1565D01*
X1746Y1500D02*
X1746Y1499D01*
X1748Y1549D02*
X1779D01*
X1781Y1551D01*
X1746D02*
X1748Y1549D01*
X1770Y1628D02*
X1770Y1628D01*
X3027Y1526D02*
Y1545D01*
X3002Y1541D02*
Y1561D01*
X1084Y1401D02*
X1506D01*
X872Y1613D02*
X1084Y1401D01*
X682Y1613D02*
X872D01*
X1032Y1593D02*
X1144D01*
X1182Y1555D01*
X1324D01*
X1339Y1540D01*
X1201Y1577D02*
X1343D01*
X1033Y1745D02*
X1201Y1577D01*
X1918Y1640D02*
X1946Y1612D01*
X2422Y1276D02*
X2442Y1296D01*
X2310Y1276D02*
X2422D01*
X2097Y1323D02*
X3026D01*
X2139Y1344D02*
X3004D01*
X2148Y1365D02*
X2988D01*
X2109Y1360D02*
X2123D01*
X3020Y1436D02*
X3078Y1494D01*
X2997Y1457D02*
X3052Y1512D01*
X2979Y1478D02*
X3027Y1526D01*
X2960Y1499D02*
X3002Y1541D01*
X2943Y1520D02*
X2975Y1552D01*
X1927Y1394D02*
X2076D01*
X2109Y1360D01*
X1935Y1415D02*
X2098D01*
X2148Y1365D01*
X1944Y1436D02*
X3020D01*
X1953Y1457D02*
X2997D01*
X1962Y1478D02*
X2979D01*
X1970Y1499D02*
X2960D01*
X1979Y1520D02*
X2943D01*
X2171Y1600D02*
X2634D01*
X2159Y1612D02*
X2171Y1600D01*
X2653Y1544D02*
X2717Y1608D01*
X2009Y1551D02*
X2016Y1544D01*
X2647Y1573D02*
X2690Y1616D01*
X2009Y1587D02*
X2023Y1573D01*
X2016Y1544D02*
X2653D01*
X2023Y1573D02*
X2647D01*
X1946Y1612D02*
X2159D01*
X1730Y1724D02*
X2538D01*
X1746Y1703D02*
X2517D01*
X1611Y1568D02*
X1746Y1703D01*
X2517D02*
X2537Y1684D01*
X1586Y1580D02*
X1730Y1724D01*
X2538D02*
X2562Y1699D01*
D49*
X2998Y-47D02*
X3152Y-201D01*
X2297Y-47D02*
X2998D01*
X2175Y75D02*
X2297Y-47D01*
X1975Y75D02*
X2160Y-110D01*
X2401D01*
X2642Y-351D01*
X3152D01*
D51*
X3056Y736D02*
Y860D01*
X3087Y735D02*
Y840D01*
X3098Y851D02*
X3103D01*
X3008Y908D02*
X3056Y860D01*
X3087Y840D02*
X3098Y851D01*
D59*
X2060Y-782D02*
D03*
Y-182D02*
D03*
X1860Y-782D02*
D03*
X1760D02*
D03*
X1660D02*
D03*
X1160D02*
D03*
X1060D02*
D03*
X1860Y-182D02*
D03*
X1760D02*
D03*
X1160D02*
D03*
X1060D02*
D03*
X1660D02*
D03*
D60*
X775Y1975D02*
D03*
X875D02*
D03*
X975D02*
D03*
X1075D02*
D03*
X1175D02*
D03*
X1275D02*
D03*
X1375D02*
D03*
X1475D02*
D03*
X1575D02*
D03*
X1675D02*
D03*
X1775D02*
D03*
X1875D02*
D03*
X1975D02*
D03*
X2075D02*
D03*
X2175D02*
D03*
X2275D02*
D03*
X2375D02*
D03*
X2475D02*
D03*
X2575D02*
D03*
X2675D02*
D03*
X2775D02*
D03*
X2875D02*
D03*
X2975D02*
D03*
X775Y2075D02*
D03*
X875D02*
D03*
X975D02*
D03*
X1075D02*
D03*
X1175D02*
D03*
X1275D02*
D03*
X1375D02*
D03*
X1475D02*
D03*
X1575D02*
D03*
X1675D02*
D03*
X1775D02*
D03*
X1875D02*
D03*
X1975D02*
D03*
X2075D02*
D03*
X2175D02*
D03*
X2275D02*
D03*
X2375D02*
D03*
X2475D02*
D03*
X2575D02*
D03*
X2675D02*
D03*
X2775D02*
D03*
X2875D02*
D03*
X2975Y2076D02*
D03*
X775Y75D02*
D03*
X875D02*
D03*
X975D02*
D03*
X1075D02*
D03*
X1175D02*
D03*
X1275D02*
D03*
X1375D02*
D03*
X1475D02*
D03*
X1575D02*
D03*
X1675D02*
D03*
X1775D02*
D03*
X1875D02*
D03*
X1975D02*
D03*
X2075D02*
D03*
X2175D02*
D03*
X2275D02*
D03*
X2375D02*
D03*
X2475D02*
D03*
X2575D02*
D03*
X2675D02*
D03*
X2775D02*
D03*
X2875D02*
D03*
X2975D02*
D03*
X775Y175D02*
D03*
X875D02*
D03*
X975D02*
D03*
X1075D02*
D03*
X1175D02*
D03*
X1275D02*
D03*
X1375D02*
D03*
X1475D02*
D03*
X1575D02*
D03*
X1675D02*
D03*
X1775D02*
D03*
X1875D02*
D03*
X1975D02*
D03*
X2075D02*
D03*
X2175D02*
D03*
X2275D02*
D03*
X2375D02*
D03*
X2475D02*
D03*
X2575D02*
D03*
X2675D02*
D03*
X2775D02*
D03*
X2875D02*
D03*
X2975Y176D02*
D03*
D61*
X1875Y1189D02*
D03*
Y1089D02*
D03*
Y1139D02*
D03*
X1439Y1807D02*
D03*
X1539D02*
D03*
X1489D02*
D03*
D62*
X3152Y-351D02*
D03*
Y-201D02*
D03*
Y-501D02*
D03*
D63*
X2470Y-586D02*
D03*
X3188Y1563D02*
D03*
Y1063D02*
D03*
Y63D02*
D03*
X3063Y-187D02*
D03*
X3188Y-437D02*
D03*
X3063Y-687D02*
D03*
X2938Y1563D02*
D03*
X2813Y313D02*
D03*
Y-187D02*
D03*
X2938Y-437D02*
D03*
X2813Y-687D02*
D03*
X2563Y813D02*
D03*
X2688Y563D02*
D03*
X2563Y313D02*
D03*
Y-187D02*
D03*
X2688Y-437D02*
D03*
X2563Y-687D02*
D03*
X2313Y-187D02*
D03*
X1813Y1313D02*
D03*
X1938Y1063D02*
D03*
X1813Y813D02*
D03*
X1938Y-437D02*
D03*
X1688Y1063D02*
D03*
X1563Y-187D02*
D03*
Y-687D02*
D03*
X1313Y1813D02*
D03*
X1438Y1063D02*
D03*
X1313Y813D02*
D03*
Y313D02*
D03*
Y-187D02*
D03*
X1438Y-437D02*
D03*
X1313Y-687D02*
D03*
X1063Y1813D02*
D03*
Y813D02*
D03*
X1188Y563D02*
D03*
X1063Y313D02*
D03*
X1188Y-437D02*
D03*
X1063Y-687D02*
D03*
X813Y1813D02*
D03*
X938Y1063D02*
D03*
X813Y813D02*
D03*
Y313D02*
D03*
X938Y-437D02*
D03*
X813Y-687D02*
D03*
X563Y1813D02*
D03*
X688Y1563D02*
D03*
X563Y813D02*
D03*
X688Y563D02*
D03*
X563Y313D02*
D03*
X688Y63D02*
D03*
X563Y-187D02*
D03*
Y-687D02*
D03*
X438Y1563D02*
D03*
X313Y813D02*
D03*
X438Y563D02*
D03*
X313Y313D02*
D03*
X438Y63D02*
D03*
X313Y-187D02*
D03*
Y-687D02*
D03*
X63Y1813D02*
D03*
X188Y1563D02*
D03*
X63Y813D02*
D03*
X188Y563D02*
D03*
X63Y313D02*
D03*
X188Y63D02*
D03*
X63Y-187D02*
D03*
X188Y-437D02*
D03*
X63Y-687D02*
D03*
X943Y677D02*
D03*
X912Y677D02*
D03*
X1123Y972D02*
D03*
X1124Y941D02*
D03*
Y910D02*
D03*
Y879D02*
D03*
X1123Y848D02*
D03*
X1099Y760D02*
D03*
X1074Y740D02*
D03*
X1053Y719D02*
D03*
X1031Y697D02*
D03*
X1005Y679D02*
D03*
X974D02*
D03*
X882Y671D02*
D03*
X866Y645D02*
D03*
X865Y614D02*
D03*
Y583D02*
D03*
X870Y553D02*
D03*
X1042Y556D02*
D03*
X1053Y585D02*
D03*
X1074Y607D02*
D03*
X1096Y629D02*
D03*
X1118Y651D02*
D03*
X1149Y647D02*
D03*
X1180D02*
D03*
X1211Y647D02*
D03*
X1242Y647D02*
D03*
X1273D02*
D03*
X1302Y657D02*
D03*
X1315Y685D02*
D03*
X1316Y716D02*
D03*
X1316Y747D02*
D03*
X1303Y776D02*
D03*
X1275Y787D02*
D03*
X1244D02*
D03*
X1229Y815D02*
D03*
X1221Y845D02*
D03*
X1219Y876D02*
D03*
Y907D02*
D03*
Y938D02*
D03*
Y969D02*
D03*
X1538Y314D02*
D03*
X1539Y283D02*
D03*
X1557Y257D02*
D03*
X1587Y251D02*
D03*
X1618D02*
D03*
X1649Y252D02*
D03*
X1680Y251D02*
D03*
X1711D02*
D03*
X1741Y259D02*
D03*
X1661Y504D02*
D03*
X1353Y468D02*
D03*
X1340Y440D02*
D03*
X1340Y409D02*
D03*
Y378D02*
D03*
X1349Y348D02*
D03*
X1376Y333D02*
D03*
X1407Y333D02*
D03*
X1438D02*
D03*
X1469D02*
D03*
X1500Y338D02*
D03*
X1519Y362D02*
D03*
X1535Y388D02*
D03*
X1458Y679D02*
D03*
X1427D02*
D03*
X1396D02*
D03*
X1365Y676D02*
D03*
X1343Y654D02*
D03*
X1340Y623D02*
D03*
Y592D02*
D03*
X1342Y561D02*
D03*
X1355Y534D02*
D03*
X1549Y608D02*
D03*
X1527Y630D02*
D03*
X1491Y678D02*
D03*
X1742Y464D02*
D03*
X1713Y451D02*
D03*
X1684Y461D02*
D03*
X1756Y314D02*
D03*
X1778Y292D02*
D03*
X1807Y280D02*
D03*
X1838Y277D02*
D03*
X1869Y277D02*
D03*
X1900Y279D02*
D03*
X1931D02*
D03*
X1962Y276D02*
D03*
X1993Y276D02*
D03*
X2024D02*
D03*
X2055Y275D02*
D03*
X1821Y450D02*
D03*
X1796Y469D02*
D03*
X1949Y720D02*
D03*
X1919Y713D02*
D03*
X1676Y549D02*
D03*
X1707Y554D02*
D03*
X1737Y549D02*
D03*
X1767Y540D02*
D03*
X1798Y542D02*
D03*
X1966Y615D02*
D03*
X1954Y580D02*
D03*
X1979Y562D02*
D03*
X1913Y497D02*
D03*
X1998Y442D02*
D03*
X2087Y608D02*
D03*
X2066Y630D02*
D03*
X2085Y412D02*
D03*
X2082Y381D02*
D03*
X2082Y291D02*
D03*
X2109Y276D02*
D03*
X2140Y275D02*
D03*
X2171Y281D02*
D03*
X2190Y305D02*
D03*
X2192Y336D02*
D03*
X2190Y367D02*
D03*
X2180Y396D02*
D03*
X2187Y426D02*
D03*
X2218Y430D02*
D03*
X2242Y448D02*
D03*
X2264Y470D02*
D03*
X2286Y492D02*
D03*
X2316Y499D02*
D03*
X2338Y521D02*
D03*
X2342Y552D02*
D03*
X2341Y583D02*
D03*
X2354Y611D02*
D03*
X2037Y862D02*
D03*
X2006Y860D02*
D03*
X1982Y841D02*
D03*
X1976Y810D02*
D03*
Y779D02*
D03*
X1979Y748D02*
D03*
X2001Y726D02*
D03*
X2038Y725D02*
D03*
X2075D02*
D03*
X2346Y655D02*
D03*
X2355Y685D02*
D03*
X2361Y715D02*
D03*
X2391Y718D02*
D03*
X2422Y718D02*
D03*
X2453Y718D02*
D03*
X2484Y718D02*
D03*
X2513Y731D02*
D03*
X2524Y760D02*
D03*
Y791D02*
D03*
X2523Y822D02*
D03*
X2509Y849D02*
D03*
X2479Y859D02*
D03*
X2448D02*
D03*
X2078Y900D02*
D03*
X2081Y869D02*
D03*
X2410Y851D02*
D03*
X2423Y897D02*
D03*
X2424Y935D02*
D03*
X2426Y966D02*
D03*
X2271Y1178D02*
D03*
X2233Y1178D02*
D03*
X2616Y1149D02*
D03*
X2662Y1164D02*
D03*
X2775Y1266D02*
D03*
X2734Y1269D02*
D03*
X2628Y1250D02*
D03*
X2623Y1292D02*
D03*
X2622Y1395D02*
D03*
X2668D02*
D03*
X2703Y1402D02*
D03*
X2735Y1390D02*
D03*
X2772Y1395D02*
D03*
X2809Y1394D02*
D03*
X2300Y1246D02*
D03*
X2313Y1218D02*
D03*
X2333Y1193D02*
D03*
X2357Y1174D02*
D03*
X2385Y1161D02*
D03*
X2415Y1154D02*
D03*
X2446Y1153D02*
D03*
X2475Y1142D02*
D03*
X2506Y1141D02*
D03*
X2599Y1258D02*
D03*
X2568Y1260D02*
D03*
X2446Y1248D02*
D03*
X2876Y1402D02*
D03*
X2846Y1395D02*
D03*
X2834Y1247D02*
D03*
X2841Y1217D02*
D03*
X2924Y1213D02*
D03*
X2934Y1243D02*
D03*
X2946Y1271D02*
D03*
X2977Y1266D02*
D03*
X2985Y1399D02*
D03*
X2954Y1397D02*
D03*
X2924Y1400D02*
D03*
X3333Y600D02*
D03*
X1467Y1556D02*
D03*
X3056Y736D02*
D03*
X3087Y735D02*
D03*
X3103Y851D02*
D03*
X2777Y1665D02*
D03*
X1564Y1447D02*
D03*
X1607Y1438D02*
D03*
X1611Y1503D02*
D03*
X3000Y393D02*
D03*
X2663Y1122D02*
D03*
X2784Y1141D02*
D03*
X2780Y886D02*
D03*
X2791Y1198D02*
D03*
X2719Y1181D02*
D03*
X2860Y1578D02*
D03*
X2835Y1602D02*
D03*
X2800Y1613D02*
D03*
X2754Y1179D02*
D03*
X2626Y1930D02*
D03*
X2279Y1904D02*
D03*
X2583Y1899D02*
D03*
X2552Y1895D02*
D03*
X2415Y1649D02*
D03*
X2297Y1650D02*
D03*
X2555Y-600D02*
D03*
X2693Y1714D02*
D03*
X2716Y1745D02*
D03*
X2749Y1790D02*
D03*
X2009Y1587D02*
D03*
X2664Y1794D02*
D03*
X2009Y1551D02*
D03*
X1625Y823D02*
D03*
X1740Y824D02*
D03*
X1674Y838D02*
D03*
X2639Y1705D02*
D03*
X2588Y1708D02*
D03*
X2613Y1678D02*
D03*
X2562Y1667D02*
D03*
X1581Y1391D02*
D03*
X2537Y1684D02*
D03*
X1753Y1472D02*
D03*
X1812Y1472D02*
D03*
X1769Y1523D02*
D03*
X3154Y1565D02*
D03*
X3129Y1546D02*
D03*
X3104Y1565D02*
D03*
X3078Y1545D02*
D03*
X3052Y1565D02*
D03*
X1746Y1500D02*
D03*
X1746Y1551D02*
D03*
X1749Y1602D02*
D03*
X1753Y1653D02*
D03*
X1770Y1628D02*
D03*
X1769Y1573D02*
D03*
X3027Y1545D02*
D03*
X3002Y1561D02*
D03*
X2975Y1552D02*
D03*
X1615Y1352D02*
D03*
X682Y1613D02*
D03*
X2424Y1874D02*
D03*
X1539Y1292D02*
D03*
X454Y1746D02*
D03*
X405Y1704D02*
D03*
X779Y-430D02*
D03*
X737Y-408D02*
D03*
X2961Y-258D02*
D03*
X3002Y-215D02*
D03*
X2703Y-227D02*
D03*
X2764Y-273D02*
D03*
X3309Y-252D02*
D03*
X2399Y-384D02*
D03*
X2309Y-344D02*
D03*
X2559Y-351D02*
D03*
X2169Y-485D02*
D03*
X2248D02*
D03*
X2060Y-460D02*
D03*
X2060Y-383D02*
D03*
Y-317D02*
D03*
Y-258D02*
D03*
Y-548D02*
D03*
X775Y-543D02*
D03*
X738Y-522D02*
D03*
X2948Y-108D02*
D03*
X3001Y-139D02*
D03*
X1234Y1166D02*
D03*
X1038Y1014D02*
D03*
X958Y1100D02*
D03*
X955Y1385D02*
D03*
X1034Y1261D02*
D03*
Y1234D02*
D03*
X1663Y1305D02*
D03*
X1663Y1190D02*
D03*
X1722Y1250D02*
D03*
X1834Y1059D02*
D03*
X1800Y1004D02*
D03*
X1852Y946D02*
D03*
X2603Y1086D02*
D03*
X3158Y311D02*
D03*
X2831Y1745D02*
D03*
X2863Y1872D02*
D03*
X139Y1752D02*
D03*
X1365Y1152D02*
D03*
X1273Y1343D02*
D03*
X1326Y1649D02*
D03*
X1569Y1199D02*
D03*
X1570Y1308D02*
D03*
X1534Y1235D02*
D03*
X1738Y642D02*
D03*
X1952Y326D02*
D03*
X1853D02*
D03*
X1964Y666D02*
D03*
X1032Y1593D02*
D03*
X1339Y1540D02*
D03*
X1343Y1577D02*
D03*
X1033Y1745D02*
D03*
X1951Y463D02*
D03*
X2025Y539D02*
D03*
X3008Y908D02*
D03*
X1918Y1640D02*
D03*
X2442Y1296D02*
D03*
X2310Y1276D02*
D03*
X2415Y1250D02*
D03*
X2112Y1672D02*
D03*
D64*
X3189Y1945D02*
D03*
X3136Y1941D02*
D03*
X3092Y1909D02*
D03*
X3170Y1782D02*
D03*
X3167Y1733D02*
D03*
X3129Y1704D02*
D03*
X3081Y1706D02*
D03*
X3031Y1708D02*
D03*
X2855Y477D02*
D03*
M02*
