G04 Layer_Physical_Order=1*
G04 Layer_Color=255*
%FSLAX23Y23*%
%MOIN*%
G70*
G01*
G75*
%ADD10C,0.012*%
%ADD11R,0.059X0.059*%
%ADD12R,0.037X0.039*%
%ADD13R,0.045X0.057*%
%ADD14R,0.045X0.071*%
%ADD15R,0.039X0.037*%
%ADD16R,0.039X0.035*%
%ADD17R,0.057X0.045*%
%ADD18R,0.059X0.059*%
%ADD19R,0.035X0.039*%
%ADD20R,0.018X0.059*%
%ADD21R,0.018X0.035*%
%ADD22O,0.018X0.057*%
%ADD23R,0.023X0.024*%
%ADD24R,0.073X0.018*%
%ADD25R,0.089X0.071*%
%ADD26R,0.043X0.022*%
%ADD27R,0.061X0.022*%
%ADD28R,0.051X0.051*%
%ADD29R,0.063X0.035*%
%ADD30R,0.043X0.024*%
%ADD31R,0.193X0.063*%
%ADD32R,0.093X0.028*%
%ADD33R,0.067X0.106*%
%ADD34R,0.035X0.051*%
%ADD35R,0.035X0.075*%
%ADD36R,0.061X0.087*%
%ADD37R,0.059X0.213*%
%ADD38R,0.013X0.013*%
%ADD39R,0.024X0.061*%
%ADD40R,0.100X0.065*%
%ADD41R,0.069X0.069*%
%ADD42O,0.031X0.012*%
%ADD43O,0.012X0.031*%
%ADD44R,0.071X0.045*%
%ADD45R,0.031X0.031*%
%ADD46C,0.050*%
%ADD47C,0.025*%
%ADD48C,0.015*%
%ADD49C,0.035*%
%ADD50C,0.010*%
%ADD51C,0.020*%
%ADD52C,0.080*%
%ADD53C,0.013*%
%ADD54C,0.030*%
%ADD55R,0.060X0.023*%
%ADD56R,0.033X0.023*%
%ADD57R,0.084X0.046*%
%ADD58R,0.033X0.126*%
%ADD59C,0.063*%
%ADD60C,0.067*%
%ADD61C,0.040*%
%ADD62C,0.075*%
%ADD63C,0.021*%
%ADD64C,0.035*%
G36*
X2943Y2137D02*
X2985Y2132D01*
X3027Y2122D01*
X3067Y2109D01*
X3107Y2093D01*
X3144Y2073D01*
X3180Y2051D01*
X3214Y2025D01*
X3246Y1996D01*
X3275Y1964D01*
X3301Y1930D01*
X3323Y1894D01*
X3343Y1857D01*
X3359Y1817D01*
X3372Y1777D01*
X3382Y1735D01*
X3387Y1693D01*
X3389Y1651D01*
X3389Y1650D01*
Y1534D01*
X3384Y1533D01*
X3384Y1533D01*
X3287D01*
Y1493D01*
Y1454D01*
X3384D01*
X3384Y1454D01*
X3389Y1452D01*
Y1360D01*
X3276D01*
Y1352D01*
X3140D01*
Y1378D01*
X3064D01*
Y1364D01*
X3022D01*
Y1378D01*
X2946D01*
Y1359D01*
X2933D01*
Y1381D01*
X2777D01*
Y1372D01*
X2647D01*
Y1292D01*
X2659D01*
Y1260D01*
X2659D01*
X2658Y1251D01*
X2655Y1244D01*
X2650Y1238D01*
X2644Y1233D01*
X2636Y1229D01*
X2628Y1228D01*
Y1228D01*
X2606D01*
Y1239D01*
X2543D01*
Y1239D01*
X2529D01*
Y1288D01*
X2529D01*
X2527Y1292D01*
X2539Y1304D01*
X2542Y1309D01*
X2543Y1314D01*
Y1318D01*
X2553D01*
Y1369D01*
X2505D01*
Y1318D01*
X2507D01*
X2509Y1313D01*
X2493Y1298D01*
X2490Y1293D01*
X2489Y1288D01*
X2477D01*
Y1239D01*
X2463D01*
Y1227D01*
X2430D01*
X2429Y1227D01*
X2417Y1228D01*
X2405Y1232D01*
X2395Y1237D01*
X2385Y1245D01*
X2377Y1255D01*
X2371Y1266D01*
X2368Y1278D01*
X2367Y1290D01*
X2367Y1290D01*
Y1300D01*
X2371Y1301D01*
X2376Y1304D01*
X2379Y1309D01*
X2381Y1315D01*
Y1321D01*
X2392D01*
X2397Y1322D01*
X2401Y1325D01*
X2438Y1361D01*
X2442Y1359D01*
Y1339D01*
X2433Y1330D01*
X2430Y1325D01*
X2429Y1320D01*
Y1306D01*
X2427Y1303D01*
X2425Y1296D01*
X2427Y1290D01*
X2430Y1285D01*
X2436Y1281D01*
X2442Y1280D01*
X2449Y1281D01*
X2454Y1285D01*
X2458Y1290D01*
X2459Y1296D01*
X2458Y1303D01*
X2456Y1306D01*
Y1314D01*
X2460Y1318D01*
X2490D01*
Y1369D01*
X2453D01*
X2451Y1374D01*
X2455Y1378D01*
X2458Y1382D01*
X2458Y1386D01*
X2471D01*
Y1435D01*
X2419D01*
Y1386D01*
X2419D01*
X2421Y1383D01*
X2386Y1348D01*
X2381D01*
Y1354D01*
X2379Y1360D01*
X2376Y1365D01*
X2371Y1368D01*
X2365Y1369D01*
X2360Y1368D01*
X2356Y1366D01*
X2353Y1365D01*
X2349Y1366D01*
X2346Y1368D01*
X2340Y1369D01*
X2334Y1368D01*
X2334Y1368D01*
X2329Y1370D01*
Y1385D01*
X2345D01*
Y1436D01*
X2334D01*
Y1448D01*
X2345D01*
Y1500D01*
X2334D01*
Y1528D01*
X2344Y1538D01*
X2394D01*
Y1595D01*
X2325D01*
Y1557D01*
X2311Y1543D01*
X2308Y1539D01*
X2307Y1534D01*
Y1500D01*
X2296D01*
Y1455D01*
X2291Y1453D01*
X2274Y1469D01*
Y1500D01*
X2225D01*
Y1449D01*
X2256D01*
X2263Y1442D01*
X2261Y1437D01*
X2225D01*
Y1388D01*
X2220Y1386D01*
X2211Y1394D01*
Y1437D01*
X2175D01*
X2173Y1442D01*
X2180Y1449D01*
X2211D01*
Y1500D01*
X2162D01*
Y1469D01*
X2136Y1444D01*
X2133Y1440D01*
X2132Y1434D01*
Y1394D01*
X2133Y1389D01*
X2136Y1385D01*
X2147Y1374D01*
X2147Y1367D01*
X2146Y1367D01*
X2144Y1368D01*
X2139Y1369D01*
X2136Y1369D01*
X2118Y1387D01*
Y1436D01*
X2107D01*
Y1488D01*
X2106Y1494D01*
X2103Y1498D01*
X2081Y1520D01*
X2083Y1524D01*
X2092D01*
Y1539D01*
X2161D01*
X2166Y1540D01*
X2171Y1543D01*
X2182Y1554D01*
X2233D01*
Y1576D01*
X2241D01*
Y1554D01*
X2312D01*
Y1625D01*
X2241D01*
Y1603D01*
X2233D01*
Y1625D01*
X2162D01*
Y1573D01*
X2155Y1567D01*
X2094D01*
Y1571D01*
X2064D01*
X2035D01*
Y1560D01*
X2035D01*
X2037Y1558D01*
Y1524D01*
X2041D01*
X2042Y1521D01*
X2045Y1517D01*
X2079Y1483D01*
Y1436D01*
X2068D01*
Y1385D01*
X2081D01*
X2083Y1382D01*
X2123Y1342D01*
Y1315D01*
X2125Y1309D01*
X2128Y1304D01*
X2133Y1301D01*
X2139Y1299D01*
X2144Y1301D01*
X2149Y1304D01*
X2154Y1301D01*
X2156Y1299D01*
Y1334D01*
X2171D01*
Y1299D01*
X2174Y1301D01*
X2178Y1304D01*
X2183Y1301D01*
X2189Y1299D01*
X2195Y1301D01*
X2198Y1303D01*
X2202Y1304D01*
X2205Y1303D01*
X2208Y1301D01*
X2214Y1299D01*
X2220Y1301D01*
X2225Y1304D01*
X2229Y1301D01*
X2232Y1299D01*
Y1334D01*
X2247D01*
Y1299D01*
X2250Y1301D01*
X2254Y1304D01*
X2259Y1301D01*
X2265Y1299D01*
X2270Y1301D01*
X2271Y1301D01*
X2276Y1298D01*
Y1296D01*
X2277Y1291D01*
X2280Y1286D01*
X2294Y1273D01*
X2294Y1270D01*
X2298Y1264D01*
X2304Y1260D01*
X2310Y1259D01*
X2316Y1260D01*
X2318Y1260D01*
X2319Y1254D01*
X2326Y1237D01*
X2336Y1222D01*
X2348Y1208D01*
X2361Y1196D01*
X2377Y1187D01*
X2394Y1180D01*
X2411Y1175D01*
X2430Y1174D01*
Y1174D01*
X2463D01*
Y1162D01*
X2526D01*
Y1162D01*
X2538D01*
Y1145D01*
X2566D01*
X2594D01*
Y1162D01*
X2606D01*
Y1176D01*
X2628D01*
Y1175D01*
X2644Y1177D01*
X2660Y1182D01*
X2675Y1190D01*
X2687Y1200D01*
X2698Y1213D01*
X2706Y1227D01*
X2710Y1243D01*
X2712Y1260D01*
X2712D01*
Y1292D01*
X2777D01*
Y1284D01*
X2855D01*
Y1219D01*
X2913D01*
Y1249D01*
X2913Y1250D01*
X2916Y1256D01*
X2917Y1263D01*
Y1284D01*
X2933D01*
Y1306D01*
X2946D01*
Y1287D01*
X3004D01*
Y1171D01*
X3069D01*
Y1137D01*
X3053D01*
Y1109D01*
X2995D01*
Y1137D01*
X2893D01*
Y1109D01*
X2882D01*
Y1123D01*
X2796D01*
X2794Y1128D01*
X2796Y1129D01*
X2800Y1135D01*
X2801Y1141D01*
X2800Y1147D01*
X2796Y1153D01*
X2790Y1157D01*
X2784Y1158D01*
X2778Y1157D01*
X2772Y1153D01*
X2768Y1147D01*
X2767Y1141D01*
X2768Y1135D01*
X2772Y1129D01*
X2778Y1125D01*
X2778Y1125D01*
X2782Y1123D01*
X2782Y1119D01*
Y1024D01*
Y945D01*
X2882D01*
Y1024D01*
Y1038D01*
X2893D01*
Y1010D01*
X2995D01*
Y1038D01*
X3053D01*
Y1010D01*
X3155D01*
Y1137D01*
X3139D01*
Y1287D01*
X3140D01*
Y1300D01*
X3276D01*
Y1292D01*
X3389D01*
Y1200D01*
X3384Y1198D01*
X3384Y1198D01*
X3287D01*
Y1159D01*
Y1119D01*
X3384D01*
X3384Y1119D01*
X3389Y1118D01*
Y-400D01*
X3389Y-401D01*
X3387Y-443D01*
X3382Y-485D01*
X3372Y-527D01*
X3359Y-567D01*
X3343Y-607D01*
X3323Y-644D01*
X3301Y-680D01*
X3275Y-714D01*
X3246Y-746D01*
X3214Y-775D01*
X3180Y-801D01*
X3144Y-823D01*
X3107Y-843D01*
X3067Y-859D01*
X3027Y-872D01*
X2985Y-882D01*
X2943Y-887D01*
X2901Y-889D01*
X2900Y-889D01*
X250D01*
X250Y-889D01*
X223Y-887D01*
X197Y-883D01*
X171Y-875D01*
X146Y-865D01*
X123Y-852D01*
X101Y-837D01*
X81Y-819D01*
X63Y-799D01*
X48Y-777D01*
X35Y-754D01*
X25Y-729D01*
X17Y-703D01*
X13Y-677D01*
X11Y-650D01*
X11Y-650D01*
Y829D01*
X850D01*
X854Y830D01*
X858Y832D01*
X860Y836D01*
X861Y840D01*
Y1510D01*
X860Y1514D01*
X858Y1518D01*
X854Y1520D01*
X850Y1521D01*
X11D01*
Y1900D01*
X11Y1900D01*
X13Y1927D01*
X17Y1953D01*
X25Y1979D01*
X35Y2004D01*
X48Y2027D01*
X63Y2049D01*
X81Y2069D01*
X101Y2087D01*
X123Y2102D01*
X146Y2115D01*
X171Y2125D01*
X197Y2133D01*
X223Y2137D01*
X250Y2139D01*
X250Y2139D01*
X2900D01*
X2901Y2139D01*
X2943Y2137D01*
D02*
G37*
%LPC*%
G36*
X782Y2116D02*
Y2082D01*
X816D01*
X815Y2086D01*
X811Y2096D01*
X805Y2105D01*
X796Y2111D01*
X786Y2115D01*
X782Y2116D01*
D02*
G37*
G36*
X767D02*
X764Y2115D01*
X754Y2111D01*
X745Y2105D01*
X739Y2096D01*
X735Y2086D01*
X734Y2082D01*
X767D01*
Y2116D01*
D02*
G37*
G36*
X2975Y2116D02*
X2965Y2114D01*
X2955Y2110D01*
X2947Y2104D01*
X2941Y2096D01*
X2937Y2086D01*
X2935Y2076D01*
X2937Y2066D01*
X2941Y2056D01*
X2947Y2048D01*
X2955Y2042D01*
X2965Y2038D01*
X2975Y2036D01*
X2985Y2038D01*
X2995Y2042D01*
X3003Y2048D01*
X3009Y2056D01*
X3013Y2066D01*
X3015Y2076D01*
X3013Y2086D01*
X3009Y2096D01*
X3003Y2104D01*
X2995Y2110D01*
X2985Y2114D01*
X2975Y2116D01*
D02*
G37*
G36*
X2875Y2115D02*
X2865Y2113D01*
X2855Y2109D01*
X2847Y2103D01*
X2841Y2095D01*
X2837Y2085D01*
X2835Y2075D01*
X2837Y2065D01*
X2841Y2055D01*
X2847Y2047D01*
X2855Y2041D01*
X2865Y2037D01*
X2875Y2035D01*
X2885Y2037D01*
X2895Y2041D01*
X2903Y2047D01*
X2909Y2055D01*
X2913Y2065D01*
X2915Y2075D01*
X2913Y2085D01*
X2909Y2095D01*
X2903Y2103D01*
X2895Y2109D01*
X2885Y2113D01*
X2875Y2115D01*
D02*
G37*
G36*
X2775D02*
X2765Y2113D01*
X2755Y2109D01*
X2747Y2103D01*
X2741Y2095D01*
X2737Y2085D01*
X2735Y2075D01*
X2737Y2065D01*
X2741Y2055D01*
X2747Y2047D01*
X2755Y2041D01*
X2765Y2037D01*
X2775Y2035D01*
X2785Y2037D01*
X2795Y2041D01*
X2803Y2047D01*
X2809Y2055D01*
X2813Y2065D01*
X2815Y2075D01*
X2813Y2085D01*
X2809Y2095D01*
X2803Y2103D01*
X2795Y2109D01*
X2785Y2113D01*
X2775Y2115D01*
D02*
G37*
G36*
X2675D02*
X2665Y2113D01*
X2655Y2109D01*
X2647Y2103D01*
X2641Y2095D01*
X2637Y2085D01*
X2635Y2075D01*
X2637Y2065D01*
X2641Y2055D01*
X2647Y2047D01*
X2655Y2041D01*
X2665Y2037D01*
X2675Y2035D01*
X2685Y2037D01*
X2695Y2041D01*
X2703Y2047D01*
X2709Y2055D01*
X2713Y2065D01*
X2715Y2075D01*
X2713Y2085D01*
X2709Y2095D01*
X2703Y2103D01*
X2695Y2109D01*
X2685Y2113D01*
X2675Y2115D01*
D02*
G37*
G36*
X2575D02*
X2565Y2113D01*
X2555Y2109D01*
X2547Y2103D01*
X2541Y2095D01*
X2537Y2085D01*
X2535Y2075D01*
X2537Y2065D01*
X2541Y2055D01*
X2547Y2047D01*
X2555Y2041D01*
X2565Y2037D01*
X2575Y2035D01*
X2585Y2037D01*
X2595Y2041D01*
X2603Y2047D01*
X2609Y2055D01*
X2613Y2065D01*
X2615Y2075D01*
X2613Y2085D01*
X2609Y2095D01*
X2603Y2103D01*
X2595Y2109D01*
X2585Y2113D01*
X2575Y2115D01*
D02*
G37*
G36*
X2475D02*
X2465Y2113D01*
X2455Y2109D01*
X2447Y2103D01*
X2441Y2095D01*
X2437Y2085D01*
X2435Y2075D01*
X2437Y2065D01*
X2441Y2055D01*
X2447Y2047D01*
X2455Y2041D01*
X2465Y2037D01*
X2475Y2035D01*
X2485Y2037D01*
X2495Y2041D01*
X2503Y2047D01*
X2509Y2055D01*
X2513Y2065D01*
X2515Y2075D01*
X2513Y2085D01*
X2509Y2095D01*
X2503Y2103D01*
X2495Y2109D01*
X2485Y2113D01*
X2475Y2115D01*
D02*
G37*
G36*
X2375D02*
X2365Y2113D01*
X2355Y2109D01*
X2347Y2103D01*
X2341Y2095D01*
X2337Y2085D01*
X2335Y2075D01*
X2337Y2065D01*
X2341Y2055D01*
X2347Y2047D01*
X2355Y2041D01*
X2365Y2037D01*
X2375Y2035D01*
X2385Y2037D01*
X2395Y2041D01*
X2403Y2047D01*
X2409Y2055D01*
X2413Y2065D01*
X2415Y2075D01*
X2413Y2085D01*
X2409Y2095D01*
X2403Y2103D01*
X2395Y2109D01*
X2385Y2113D01*
X2375Y2115D01*
D02*
G37*
G36*
X2275D02*
X2265Y2113D01*
X2255Y2109D01*
X2247Y2103D01*
X2241Y2095D01*
X2237Y2085D01*
X2235Y2075D01*
X2237Y2065D01*
X2241Y2055D01*
X2247Y2047D01*
X2255Y2041D01*
X2265Y2037D01*
X2275Y2035D01*
X2285Y2037D01*
X2295Y2041D01*
X2303Y2047D01*
X2309Y2055D01*
X2313Y2065D01*
X2315Y2075D01*
X2313Y2085D01*
X2309Y2095D01*
X2303Y2103D01*
X2295Y2109D01*
X2285Y2113D01*
X2275Y2115D01*
D02*
G37*
G36*
X2175D02*
X2165Y2113D01*
X2155Y2109D01*
X2147Y2103D01*
X2141Y2095D01*
X2137Y2085D01*
X2135Y2075D01*
X2137Y2065D01*
X2141Y2055D01*
X2147Y2047D01*
X2155Y2041D01*
X2165Y2037D01*
X2175Y2035D01*
X2185Y2037D01*
X2195Y2041D01*
X2203Y2047D01*
X2209Y2055D01*
X2213Y2065D01*
X2215Y2075D01*
X2213Y2085D01*
X2209Y2095D01*
X2203Y2103D01*
X2195Y2109D01*
X2185Y2113D01*
X2175Y2115D01*
D02*
G37*
G36*
X2075D02*
X2065Y2113D01*
X2055Y2109D01*
X2047Y2103D01*
X2041Y2095D01*
X2037Y2085D01*
X2035Y2075D01*
X2037Y2065D01*
X2041Y2055D01*
X2047Y2047D01*
X2055Y2041D01*
X2065Y2037D01*
X2075Y2035D01*
X2085Y2037D01*
X2095Y2041D01*
X2103Y2047D01*
X2109Y2055D01*
X2113Y2065D01*
X2115Y2075D01*
X2113Y2085D01*
X2109Y2095D01*
X2103Y2103D01*
X2095Y2109D01*
X2085Y2113D01*
X2075Y2115D01*
D02*
G37*
G36*
X1975D02*
X1965Y2113D01*
X1955Y2109D01*
X1947Y2103D01*
X1941Y2095D01*
X1937Y2085D01*
X1935Y2075D01*
X1937Y2065D01*
X1941Y2055D01*
X1947Y2047D01*
X1955Y2041D01*
X1965Y2037D01*
X1975Y2035D01*
X1985Y2037D01*
X1995Y2041D01*
X2003Y2047D01*
X2009Y2055D01*
X2013Y2065D01*
X2015Y2075D01*
X2013Y2085D01*
X2009Y2095D01*
X2003Y2103D01*
X1995Y2109D01*
X1985Y2113D01*
X1975Y2115D01*
D02*
G37*
G36*
X1875D02*
X1865Y2113D01*
X1855Y2109D01*
X1847Y2103D01*
X1841Y2095D01*
X1837Y2085D01*
X1835Y2075D01*
X1837Y2065D01*
X1841Y2055D01*
X1847Y2047D01*
X1855Y2041D01*
X1865Y2037D01*
X1875Y2035D01*
X1885Y2037D01*
X1895Y2041D01*
X1903Y2047D01*
X1909Y2055D01*
X1913Y2065D01*
X1915Y2075D01*
X1913Y2085D01*
X1909Y2095D01*
X1903Y2103D01*
X1895Y2109D01*
X1885Y2113D01*
X1875Y2115D01*
D02*
G37*
G36*
X1775D02*
X1765Y2113D01*
X1755Y2109D01*
X1747Y2103D01*
X1741Y2095D01*
X1737Y2085D01*
X1735Y2075D01*
X1737Y2065D01*
X1741Y2055D01*
X1747Y2047D01*
X1755Y2041D01*
X1765Y2037D01*
X1775Y2035D01*
X1785Y2037D01*
X1795Y2041D01*
X1803Y2047D01*
X1809Y2055D01*
X1813Y2065D01*
X1815Y2075D01*
X1813Y2085D01*
X1809Y2095D01*
X1803Y2103D01*
X1795Y2109D01*
X1785Y2113D01*
X1775Y2115D01*
D02*
G37*
G36*
X1675D02*
X1665Y2113D01*
X1655Y2109D01*
X1647Y2103D01*
X1641Y2095D01*
X1637Y2085D01*
X1635Y2075D01*
X1637Y2065D01*
X1641Y2055D01*
X1647Y2047D01*
X1655Y2041D01*
X1665Y2037D01*
X1675Y2035D01*
X1685Y2037D01*
X1695Y2041D01*
X1703Y2047D01*
X1709Y2055D01*
X1713Y2065D01*
X1715Y2075D01*
X1713Y2085D01*
X1709Y2095D01*
X1703Y2103D01*
X1695Y2109D01*
X1685Y2113D01*
X1675Y2115D01*
D02*
G37*
G36*
X1575D02*
X1565Y2113D01*
X1555Y2109D01*
X1547Y2103D01*
X1541Y2095D01*
X1537Y2085D01*
X1535Y2075D01*
X1537Y2065D01*
X1541Y2055D01*
X1547Y2047D01*
X1555Y2041D01*
X1565Y2037D01*
X1575Y2035D01*
X1585Y2037D01*
X1595Y2041D01*
X1603Y2047D01*
X1609Y2055D01*
X1613Y2065D01*
X1615Y2075D01*
X1613Y2085D01*
X1609Y2095D01*
X1603Y2103D01*
X1595Y2109D01*
X1585Y2113D01*
X1575Y2115D01*
D02*
G37*
G36*
X1475D02*
X1465Y2113D01*
X1455Y2109D01*
X1447Y2103D01*
X1441Y2095D01*
X1437Y2085D01*
X1435Y2075D01*
X1437Y2065D01*
X1441Y2055D01*
X1447Y2047D01*
X1455Y2041D01*
X1465Y2037D01*
X1475Y2035D01*
X1485Y2037D01*
X1495Y2041D01*
X1503Y2047D01*
X1509Y2055D01*
X1513Y2065D01*
X1515Y2075D01*
X1513Y2085D01*
X1509Y2095D01*
X1503Y2103D01*
X1495Y2109D01*
X1485Y2113D01*
X1475Y2115D01*
D02*
G37*
G36*
X1375D02*
X1365Y2113D01*
X1355Y2109D01*
X1347Y2103D01*
X1341Y2095D01*
X1337Y2085D01*
X1335Y2075D01*
X1337Y2065D01*
X1341Y2055D01*
X1347Y2047D01*
X1355Y2041D01*
X1365Y2037D01*
X1375Y2035D01*
X1385Y2037D01*
X1395Y2041D01*
X1403Y2047D01*
X1409Y2055D01*
X1413Y2065D01*
X1415Y2075D01*
X1413Y2085D01*
X1409Y2095D01*
X1403Y2103D01*
X1395Y2109D01*
X1385Y2113D01*
X1375Y2115D01*
D02*
G37*
G36*
X1275D02*
X1265Y2113D01*
X1255Y2109D01*
X1247Y2103D01*
X1241Y2095D01*
X1237Y2085D01*
X1235Y2075D01*
X1237Y2065D01*
X1241Y2055D01*
X1247Y2047D01*
X1255Y2041D01*
X1265Y2037D01*
X1275Y2035D01*
X1285Y2037D01*
X1295Y2041D01*
X1303Y2047D01*
X1309Y2055D01*
X1313Y2065D01*
X1315Y2075D01*
X1313Y2085D01*
X1309Y2095D01*
X1303Y2103D01*
X1295Y2109D01*
X1285Y2113D01*
X1275Y2115D01*
D02*
G37*
G36*
X1175D02*
X1165Y2113D01*
X1155Y2109D01*
X1147Y2103D01*
X1141Y2095D01*
X1137Y2085D01*
X1135Y2075D01*
X1137Y2065D01*
X1141Y2055D01*
X1147Y2047D01*
X1155Y2041D01*
X1165Y2037D01*
X1175Y2035D01*
X1185Y2037D01*
X1195Y2041D01*
X1203Y2047D01*
X1209Y2055D01*
X1213Y2065D01*
X1215Y2075D01*
X1213Y2085D01*
X1209Y2095D01*
X1203Y2103D01*
X1195Y2109D01*
X1185Y2113D01*
X1175Y2115D01*
D02*
G37*
G36*
X1075D02*
X1065Y2113D01*
X1055Y2109D01*
X1047Y2103D01*
X1041Y2095D01*
X1037Y2085D01*
X1035Y2075D01*
X1037Y2065D01*
X1041Y2055D01*
X1047Y2047D01*
X1055Y2041D01*
X1065Y2037D01*
X1075Y2035D01*
X1085Y2037D01*
X1095Y2041D01*
X1103Y2047D01*
X1109Y2055D01*
X1113Y2065D01*
X1115Y2075D01*
X1113Y2085D01*
X1109Y2095D01*
X1103Y2103D01*
X1095Y2109D01*
X1085Y2113D01*
X1075Y2115D01*
D02*
G37*
G36*
X975D02*
X965Y2113D01*
X955Y2109D01*
X947Y2103D01*
X941Y2095D01*
X937Y2085D01*
X935Y2075D01*
X937Y2065D01*
X941Y2055D01*
X947Y2047D01*
X955Y2041D01*
X965Y2037D01*
X975Y2035D01*
X985Y2037D01*
X995Y2041D01*
X1003Y2047D01*
X1009Y2055D01*
X1013Y2065D01*
X1015Y2075D01*
X1013Y2085D01*
X1009Y2095D01*
X1003Y2103D01*
X995Y2109D01*
X985Y2113D01*
X975Y2115D01*
D02*
G37*
G36*
X875D02*
X865Y2113D01*
X855Y2109D01*
X847Y2103D01*
X841Y2095D01*
X837Y2085D01*
X835Y2075D01*
X837Y2065D01*
X841Y2055D01*
X847Y2047D01*
X855Y2041D01*
X865Y2037D01*
X875Y2035D01*
X885Y2037D01*
X895Y2041D01*
X903Y2047D01*
X909Y2055D01*
X913Y2065D01*
X915Y2075D01*
X913Y2085D01*
X909Y2095D01*
X903Y2103D01*
X895Y2109D01*
X885Y2113D01*
X875Y2115D01*
D02*
G37*
G36*
X767Y2068D02*
X734D01*
X735Y2064D01*
X739Y2054D01*
X745Y2045D01*
X754Y2039D01*
X764Y2035D01*
X767Y2034D01*
Y2068D01*
D02*
G37*
G36*
X816D02*
X782D01*
Y2034D01*
X786Y2035D01*
X796Y2039D01*
X805Y2045D01*
X811Y2054D01*
X815Y2064D01*
X816Y2068D01*
D02*
G37*
G36*
X782Y2016D02*
Y1982D01*
X816D01*
X815Y1986D01*
X811Y1996D01*
X805Y2005D01*
X796Y2011D01*
X786Y2015D01*
X782Y2016D01*
D02*
G37*
G36*
X767D02*
X764Y2015D01*
X754Y2011D01*
X745Y2005D01*
X739Y1996D01*
X735Y1986D01*
X734Y1982D01*
X767D01*
Y2016D01*
D02*
G37*
G36*
X210Y2045D02*
X163D01*
Y1994D01*
X193D01*
X205Y1982D01*
X203Y1977D01*
X163D01*
Y1925D01*
X210D01*
Y1937D01*
X221D01*
X228Y1930D01*
X233Y1927D01*
X238Y1926D01*
X265D01*
Y1923D01*
X338D01*
Y1957D01*
X265D01*
Y1954D01*
X244D01*
X237Y1961D01*
X232Y1964D01*
X227Y1965D01*
X210D01*
Y1972D01*
X215Y1976D01*
X216Y1976D01*
X265D01*
Y1973D01*
X338D01*
Y2007D01*
X265D01*
Y2004D01*
X222D01*
X210Y2015D01*
Y2045D01*
D02*
G37*
G36*
X2575Y2015D02*
X2565Y2013D01*
X2555Y2009D01*
X2547Y2003D01*
X2541Y1995D01*
X2537Y1985D01*
X2535Y1975D01*
X2537Y1965D01*
X2541Y1955D01*
X2547Y1947D01*
X2553Y1942D01*
X2552Y1937D01*
X2546D01*
X2546Y1937D01*
X2541Y1936D01*
X2536Y1933D01*
X2536Y1933D01*
X2522Y1918D01*
X2288D01*
X2285Y1920D01*
X2279Y1921D01*
X2272Y1920D01*
X2267Y1916D01*
X2263Y1911D01*
X2262Y1904D01*
X2263Y1898D01*
X2267Y1892D01*
X2272Y1889D01*
X2279Y1888D01*
X2285Y1889D01*
X2288Y1891D01*
X2410D01*
X2412Y1887D01*
X2412Y1886D01*
X2409Y1880D01*
X2407Y1874D01*
X2409Y1868D01*
X2412Y1862D01*
X2418Y1858D01*
X2421Y1858D01*
X2428Y1851D01*
X2427Y1846D01*
X2416D01*
Y1794D01*
X2465D01*
Y1805D01*
X2486D01*
X2491Y1806D01*
X2492Y1807D01*
X2496Y1809D01*
X2496Y1809D01*
X2496Y1809D01*
X2523D01*
Y1756D01*
X2524Y1751D01*
X2526Y1748D01*
X2501Y1724D01*
X2498Y1719D01*
X2497Y1714D01*
Y1651D01*
X2496D01*
Y1580D01*
X2651D01*
Y1559D01*
X2652Y1554D01*
X2655Y1549D01*
X2695Y1509D01*
X2699Y1506D01*
X2704Y1505D01*
X2801D01*
X2806Y1506D01*
X2811Y1509D01*
X2864Y1562D01*
X2867Y1563D01*
X2872Y1567D01*
X2876Y1572D01*
X2877Y1578D01*
X2876Y1585D01*
X2872Y1590D01*
X2867Y1594D01*
X2860Y1595D01*
X2855Y1594D01*
X2852Y1597D01*
X2851Y1598D01*
X2852Y1602D01*
X2851Y1608D01*
X2847Y1614D01*
X2841Y1618D01*
X2835Y1619D01*
X2829Y1618D01*
X2823Y1614D01*
X2822Y1612D01*
X2818Y1613D01*
X2817Y1613D01*
X2816Y1619D01*
X2812Y1625D01*
X2806Y1628D01*
X2800Y1630D01*
X2794Y1628D01*
X2788Y1625D01*
X2784Y1619D01*
X2784Y1616D01*
X2765Y1597D01*
X2760Y1599D01*
Y1601D01*
X2741D01*
Y1631D01*
X2760D01*
Y1651D01*
X2768D01*
X2771Y1649D01*
X2777Y1648D01*
X2783Y1649D01*
X2786Y1651D01*
X2856D01*
Y1641D01*
X2903D01*
X2935Y1609D01*
Y1578D01*
X2961D01*
Y1561D01*
X2959Y1558D01*
X2958Y1552D01*
X2959Y1546D01*
X2963Y1540D01*
X2969Y1536D01*
X2975Y1535D01*
X2981Y1536D01*
X2987Y1540D01*
X2991Y1546D01*
X2992Y1546D01*
X2996Y1545D01*
X3002Y1544D01*
X3005Y1545D01*
X3009Y1545D01*
X3011Y1541D01*
X3011Y1539D01*
X3015Y1533D01*
X3021Y1529D01*
X3027Y1528D01*
X3033Y1529D01*
X3039Y1533D01*
X3043Y1539D01*
X3044Y1545D01*
X3044Y1545D01*
X3048Y1549D01*
X3052Y1548D01*
X3057Y1549D01*
X3060Y1546D01*
X3061Y1545D01*
X3061Y1545D01*
X3062Y1539D01*
X3066Y1533D01*
X3071Y1529D01*
X3078Y1528D01*
X3084Y1529D01*
X3090Y1533D01*
X3093Y1539D01*
X3095Y1545D01*
X3094Y1546D01*
X3096Y1547D01*
X3099Y1549D01*
X3104Y1548D01*
X3108Y1549D01*
X3112Y1546D01*
X3112Y1545D01*
X3114Y1540D01*
X3117Y1534D01*
X3123Y1530D01*
X3129Y1529D01*
X3136Y1530D01*
X3141Y1534D01*
X3145Y1540D01*
X3146Y1545D01*
X3146Y1546D01*
X3150Y1549D01*
X3154Y1548D01*
X3160Y1549D01*
X3166Y1553D01*
X3170Y1559D01*
X3171Y1565D01*
X3170Y1571D01*
X3170Y1571D01*
X3172Y1576D01*
X3173D01*
Y1614D01*
Y1651D01*
X3163D01*
Y1649D01*
X2964D01*
Y1741D01*
X2982Y1759D01*
X2987Y1757D01*
Y1737D01*
X2988Y1732D01*
X2991Y1728D01*
X3007Y1711D01*
X3007Y1708D01*
X3009Y1699D01*
X3014Y1691D01*
X3022Y1686D01*
X3031Y1684D01*
X3040Y1686D01*
X3048Y1691D01*
X3053Y1699D01*
X3053Y1700D01*
X3058D01*
X3059Y1697D01*
X3064Y1689D01*
X3072Y1684D01*
X3081Y1682D01*
X3090Y1684D01*
X3098Y1689D01*
X3102Y1694D01*
X3103Y1695D01*
X3107Y1694D01*
X3112Y1687D01*
X3120Y1682D01*
X3129Y1680D01*
X3138Y1682D01*
X3146Y1687D01*
X3151Y1695D01*
X3153Y1704D01*
X3152Y1709D01*
X3156Y1712D01*
X3158Y1711D01*
X3167Y1709D01*
X3176Y1711D01*
X3184Y1716D01*
X3189Y1724D01*
X3191Y1733D01*
X3189Y1742D01*
X3184Y1750D01*
X3178Y1754D01*
X3179Y1759D01*
X3179Y1760D01*
X3187Y1765D01*
X3192Y1772D01*
X3194Y1782D01*
X3192Y1791D01*
X3187Y1799D01*
X3182Y1802D01*
X3184Y1807D01*
X3195D01*
Y1838D01*
X3199Y1841D01*
X3202Y1846D01*
X3203Y1851D01*
X3203Y1851D01*
Y1926D01*
X3206Y1928D01*
X3211Y1936D01*
X3213Y1945D01*
X3211Y1954D01*
X3206Y1962D01*
X3198Y1967D01*
X3189Y1969D01*
X3180Y1967D01*
X3172Y1962D01*
X3167Y1954D01*
X3165Y1945D01*
X3166Y1939D01*
X3162Y1937D01*
X3159Y1939D01*
X3160Y1941D01*
X3158Y1951D01*
X3153Y1958D01*
X3145Y1964D01*
X3136Y1965D01*
X3127Y1964D01*
X3119Y1958D01*
X3114Y1951D01*
X3112Y1941D01*
X3114Y1932D01*
X3119Y1924D01*
X3127Y1919D01*
X3136Y1917D01*
X3136Y1917D01*
X3141Y1913D01*
Y1897D01*
X3136Y1895D01*
X3114Y1917D01*
X3114Y1918D01*
X3109Y1926D01*
X3101Y1931D01*
X3092Y1933D01*
X3083Y1931D01*
X3075Y1926D01*
X3070Y1918D01*
X3068Y1909D01*
X3070Y1900D01*
X3075Y1892D01*
X3083Y1887D01*
X3092Y1885D01*
X3101Y1887D01*
X3104Y1889D01*
X3110Y1882D01*
X3108Y1878D01*
X2935D01*
Y1847D01*
X2919Y1831D01*
X2906D01*
Y1843D01*
X2895D01*
Y1854D01*
X2894Y1859D01*
X2891Y1863D01*
X2891Y1863D01*
X2879Y1875D01*
X2879Y1878D01*
X2875Y1884D01*
X2869Y1888D01*
X2863Y1889D01*
X2857Y1888D01*
X2851Y1884D01*
X2847Y1878D01*
X2846Y1872D01*
X2847Y1866D01*
X2851Y1860D01*
X2857Y1856D01*
X2860Y1856D01*
X2868Y1848D01*
Y1843D01*
X2857D01*
Y1791D01*
X2906D01*
Y1803D01*
X2925D01*
X2930Y1804D01*
X2931Y1805D01*
X2935Y1807D01*
X2935Y1807D01*
X2935Y1807D01*
X2962D01*
Y1778D01*
X2940Y1756D01*
X2937Y1752D01*
X2936Y1746D01*
Y1654D01*
X2931Y1652D01*
X2909Y1674D01*
X2908Y1675D01*
Y1688D01*
X2856D01*
Y1678D01*
X2786D01*
X2783Y1680D01*
X2777Y1681D01*
X2771Y1680D01*
X2768Y1678D01*
X2714D01*
X2699Y1694D01*
X2700Y1699D01*
X2702Y1700D01*
X2721D01*
X2727Y1701D01*
X2731Y1704D01*
X2751Y1724D01*
X2754Y1729D01*
X2755Y1734D01*
X2755Y1734D01*
Y1762D01*
X2755Y1762D01*
X2754Y1767D01*
X2753Y1768D01*
X2755Y1774D01*
X2761Y1778D01*
X2764Y1783D01*
X2766Y1790D01*
X2764Y1796D01*
X2763Y1799D01*
Y1837D01*
X2762Y1842D01*
X2759Y1846D01*
X2756Y1849D01*
Y1880D01*
X2653D01*
Y1917D01*
X2653Y1917D01*
X2652Y1922D01*
X2649Y1927D01*
X2649Y1927D01*
X2642Y1933D01*
X2642Y1936D01*
X2638Y1942D01*
X2632Y1946D01*
X2626Y1947D01*
X2620Y1946D01*
X2614Y1942D01*
X2610Y1936D01*
X2610Y1933D01*
X2604Y1931D01*
X2603Y1933D01*
X2598Y1936D01*
X2597Y1936D01*
X2596Y1938D01*
X2596Y1941D01*
X2603Y1947D01*
X2609Y1955D01*
X2613Y1965D01*
X2615Y1975D01*
X2613Y1985D01*
X2609Y1995D01*
X2603Y2003D01*
X2595Y2009D01*
X2585Y2013D01*
X2575Y2015D01*
D02*
G37*
G36*
X2975D02*
X2965Y2013D01*
X2955Y2009D01*
X2947Y2003D01*
X2941Y1995D01*
X2937Y1985D01*
X2935Y1975D01*
X2937Y1965D01*
X2941Y1955D01*
X2947Y1947D01*
X2955Y1941D01*
X2965Y1937D01*
X2975Y1935D01*
X2985Y1937D01*
X2995Y1941D01*
X3003Y1947D01*
X3009Y1955D01*
X3013Y1965D01*
X3015Y1975D01*
X3013Y1985D01*
X3009Y1995D01*
X3003Y2003D01*
X2995Y2009D01*
X2985Y2013D01*
X2975Y2015D01*
D02*
G37*
G36*
X2875D02*
X2865Y2013D01*
X2855Y2009D01*
X2847Y2003D01*
X2841Y1995D01*
X2837Y1985D01*
X2835Y1975D01*
X2837Y1965D01*
X2841Y1955D01*
X2847Y1947D01*
X2855Y1941D01*
X2865Y1937D01*
X2875Y1935D01*
X2885Y1937D01*
X2895Y1941D01*
X2903Y1947D01*
X2909Y1955D01*
X2913Y1965D01*
X2915Y1975D01*
X2913Y1985D01*
X2909Y1995D01*
X2903Y2003D01*
X2895Y2009D01*
X2885Y2013D01*
X2875Y2015D01*
D02*
G37*
G36*
X2775D02*
X2765Y2013D01*
X2755Y2009D01*
X2747Y2003D01*
X2741Y1995D01*
X2737Y1985D01*
X2735Y1975D01*
X2737Y1965D01*
X2741Y1955D01*
X2747Y1947D01*
X2755Y1941D01*
X2765Y1937D01*
X2775Y1935D01*
X2785Y1937D01*
X2795Y1941D01*
X2803Y1947D01*
X2809Y1955D01*
X2813Y1965D01*
X2815Y1975D01*
X2813Y1985D01*
X2809Y1995D01*
X2803Y2003D01*
X2795Y2009D01*
X2785Y2013D01*
X2775Y2015D01*
D02*
G37*
G36*
X2675D02*
X2665Y2013D01*
X2655Y2009D01*
X2647Y2003D01*
X2641Y1995D01*
X2637Y1985D01*
X2635Y1975D01*
X2637Y1965D01*
X2641Y1955D01*
X2647Y1947D01*
X2655Y1941D01*
X2665Y1937D01*
X2675Y1935D01*
X2685Y1937D01*
X2695Y1941D01*
X2703Y1947D01*
X2709Y1955D01*
X2713Y1965D01*
X2715Y1975D01*
X2713Y1985D01*
X2709Y1995D01*
X2703Y2003D01*
X2695Y2009D01*
X2685Y2013D01*
X2675Y2015D01*
D02*
G37*
G36*
X2475D02*
X2465Y2013D01*
X2455Y2009D01*
X2447Y2003D01*
X2441Y1995D01*
X2437Y1985D01*
X2435Y1975D01*
X2437Y1965D01*
X2441Y1955D01*
X2447Y1947D01*
X2455Y1941D01*
X2465Y1937D01*
X2475Y1935D01*
X2485Y1937D01*
X2495Y1941D01*
X2503Y1947D01*
X2509Y1955D01*
X2513Y1965D01*
X2515Y1975D01*
X2513Y1985D01*
X2509Y1995D01*
X2503Y2003D01*
X2495Y2009D01*
X2485Y2013D01*
X2475Y2015D01*
D02*
G37*
G36*
X2375D02*
X2365Y2013D01*
X2355Y2009D01*
X2347Y2003D01*
X2341Y1995D01*
X2337Y1985D01*
X2335Y1975D01*
X2337Y1965D01*
X2341Y1955D01*
X2347Y1947D01*
X2355Y1941D01*
X2365Y1937D01*
X2375Y1935D01*
X2385Y1937D01*
X2395Y1941D01*
X2403Y1947D01*
X2409Y1955D01*
X2413Y1965D01*
X2415Y1975D01*
X2413Y1985D01*
X2409Y1995D01*
X2403Y2003D01*
X2395Y2009D01*
X2385Y2013D01*
X2375Y2015D01*
D02*
G37*
G36*
X2275D02*
X2265Y2013D01*
X2255Y2009D01*
X2247Y2003D01*
X2241Y1995D01*
X2237Y1985D01*
X2235Y1975D01*
X2237Y1965D01*
X2241Y1955D01*
X2247Y1947D01*
X2255Y1941D01*
X2265Y1937D01*
X2275Y1935D01*
X2285Y1937D01*
X2295Y1941D01*
X2303Y1947D01*
X2309Y1955D01*
X2313Y1965D01*
X2315Y1975D01*
X2313Y1985D01*
X2309Y1995D01*
X2303Y2003D01*
X2295Y2009D01*
X2285Y2013D01*
X2275Y2015D01*
D02*
G37*
G36*
X2175D02*
X2165Y2013D01*
X2155Y2009D01*
X2147Y2003D01*
X2141Y1995D01*
X2137Y1985D01*
X2135Y1975D01*
X2137Y1965D01*
X2141Y1955D01*
X2147Y1947D01*
X2155Y1941D01*
X2165Y1937D01*
X2175Y1935D01*
X2185Y1937D01*
X2195Y1941D01*
X2203Y1947D01*
X2209Y1955D01*
X2213Y1965D01*
X2215Y1975D01*
X2213Y1985D01*
X2209Y1995D01*
X2203Y2003D01*
X2195Y2009D01*
X2185Y2013D01*
X2175Y2015D01*
D02*
G37*
G36*
X2075D02*
X2065Y2013D01*
X2055Y2009D01*
X2047Y2003D01*
X2041Y1995D01*
X2037Y1985D01*
X2035Y1975D01*
X2037Y1965D01*
X2041Y1955D01*
X2047Y1947D01*
X2055Y1941D01*
X2065Y1937D01*
X2075Y1935D01*
X2085Y1937D01*
X2095Y1941D01*
X2103Y1947D01*
X2109Y1955D01*
X2113Y1965D01*
X2115Y1975D01*
X2113Y1985D01*
X2109Y1995D01*
X2103Y2003D01*
X2095Y2009D01*
X2085Y2013D01*
X2075Y2015D01*
D02*
G37*
G36*
X1975D02*
X1965Y2013D01*
X1955Y2009D01*
X1947Y2003D01*
X1941Y1995D01*
X1937Y1985D01*
X1935Y1975D01*
X1937Y1965D01*
X1941Y1955D01*
X1947Y1947D01*
X1955Y1941D01*
X1965Y1937D01*
X1975Y1935D01*
X1985Y1937D01*
X1995Y1941D01*
X2003Y1947D01*
X2009Y1955D01*
X2013Y1965D01*
X2015Y1975D01*
X2013Y1985D01*
X2009Y1995D01*
X2003Y2003D01*
X1995Y2009D01*
X1985Y2013D01*
X1975Y2015D01*
D02*
G37*
G36*
X1875D02*
X1865Y2013D01*
X1855Y2009D01*
X1847Y2003D01*
X1841Y1995D01*
X1837Y1985D01*
X1835Y1975D01*
X1837Y1965D01*
X1841Y1955D01*
X1847Y1947D01*
X1855Y1941D01*
X1865Y1937D01*
X1875Y1935D01*
X1885Y1937D01*
X1895Y1941D01*
X1903Y1947D01*
X1909Y1955D01*
X1913Y1965D01*
X1915Y1975D01*
X1913Y1985D01*
X1909Y1995D01*
X1903Y2003D01*
X1895Y2009D01*
X1885Y2013D01*
X1875Y2015D01*
D02*
G37*
G36*
X1775D02*
X1765Y2013D01*
X1755Y2009D01*
X1747Y2003D01*
X1741Y1995D01*
X1737Y1985D01*
X1735Y1975D01*
X1737Y1965D01*
X1741Y1955D01*
X1747Y1947D01*
X1755Y1941D01*
X1765Y1937D01*
X1775Y1935D01*
X1785Y1937D01*
X1795Y1941D01*
X1803Y1947D01*
X1809Y1955D01*
X1813Y1965D01*
X1815Y1975D01*
X1813Y1985D01*
X1809Y1995D01*
X1803Y2003D01*
X1795Y2009D01*
X1785Y2013D01*
X1775Y2015D01*
D02*
G37*
G36*
X1675D02*
X1665Y2013D01*
X1655Y2009D01*
X1647Y2003D01*
X1641Y1995D01*
X1637Y1985D01*
X1635Y1975D01*
X1637Y1965D01*
X1641Y1955D01*
X1647Y1947D01*
X1655Y1941D01*
X1665Y1937D01*
X1675Y1935D01*
X1685Y1937D01*
X1695Y1941D01*
X1703Y1947D01*
X1709Y1955D01*
X1713Y1965D01*
X1715Y1975D01*
X1713Y1985D01*
X1709Y1995D01*
X1703Y2003D01*
X1695Y2009D01*
X1685Y2013D01*
X1675Y2015D01*
D02*
G37*
G36*
X1575D02*
X1565Y2013D01*
X1555Y2009D01*
X1547Y2003D01*
X1541Y1995D01*
X1537Y1985D01*
X1535Y1975D01*
X1537Y1965D01*
X1541Y1955D01*
X1547Y1947D01*
X1555Y1941D01*
X1565Y1937D01*
X1575Y1935D01*
X1585Y1937D01*
X1595Y1941D01*
X1603Y1947D01*
X1609Y1955D01*
X1613Y1965D01*
X1615Y1975D01*
X1613Y1985D01*
X1609Y1995D01*
X1603Y2003D01*
X1595Y2009D01*
X1585Y2013D01*
X1575Y2015D01*
D02*
G37*
G36*
X1475D02*
X1465Y2013D01*
X1455Y2009D01*
X1447Y2003D01*
X1441Y1995D01*
X1437Y1985D01*
X1435Y1975D01*
X1437Y1965D01*
X1441Y1955D01*
X1447Y1947D01*
X1455Y1941D01*
X1465Y1937D01*
X1475Y1935D01*
X1485Y1937D01*
X1495Y1941D01*
X1503Y1947D01*
X1509Y1955D01*
X1513Y1965D01*
X1515Y1975D01*
X1513Y1985D01*
X1509Y1995D01*
X1503Y2003D01*
X1495Y2009D01*
X1485Y2013D01*
X1475Y2015D01*
D02*
G37*
G36*
X1375D02*
X1365Y2013D01*
X1355Y2009D01*
X1347Y2003D01*
X1341Y1995D01*
X1337Y1985D01*
X1335Y1975D01*
X1337Y1965D01*
X1341Y1955D01*
X1347Y1947D01*
X1355Y1941D01*
X1365Y1937D01*
X1375Y1935D01*
X1385Y1937D01*
X1395Y1941D01*
X1403Y1947D01*
X1409Y1955D01*
X1413Y1965D01*
X1415Y1975D01*
X1413Y1985D01*
X1409Y1995D01*
X1403Y2003D01*
X1395Y2009D01*
X1385Y2013D01*
X1375Y2015D01*
D02*
G37*
G36*
X1275D02*
X1265Y2013D01*
X1255Y2009D01*
X1247Y2003D01*
X1241Y1995D01*
X1237Y1985D01*
X1235Y1975D01*
X1237Y1965D01*
X1241Y1955D01*
X1247Y1947D01*
X1255Y1941D01*
X1265Y1937D01*
X1275Y1935D01*
X1285Y1937D01*
X1295Y1941D01*
X1303Y1947D01*
X1309Y1955D01*
X1313Y1965D01*
X1315Y1975D01*
X1313Y1985D01*
X1309Y1995D01*
X1303Y2003D01*
X1295Y2009D01*
X1285Y2013D01*
X1275Y2015D01*
D02*
G37*
G36*
X1175D02*
X1165Y2013D01*
X1155Y2009D01*
X1147Y2003D01*
X1141Y1995D01*
X1137Y1985D01*
X1135Y1975D01*
X1137Y1965D01*
X1141Y1955D01*
X1147Y1947D01*
X1155Y1941D01*
X1165Y1937D01*
X1175Y1935D01*
X1185Y1937D01*
X1195Y1941D01*
X1203Y1947D01*
X1209Y1955D01*
X1213Y1965D01*
X1215Y1975D01*
X1213Y1985D01*
X1209Y1995D01*
X1203Y2003D01*
X1195Y2009D01*
X1185Y2013D01*
X1175Y2015D01*
D02*
G37*
G36*
X1075D02*
X1065Y2013D01*
X1055Y2009D01*
X1047Y2003D01*
X1041Y1995D01*
X1037Y1985D01*
X1035Y1975D01*
X1037Y1965D01*
X1041Y1955D01*
X1047Y1947D01*
X1055Y1941D01*
X1065Y1937D01*
X1075Y1935D01*
X1085Y1937D01*
X1095Y1941D01*
X1103Y1947D01*
X1109Y1955D01*
X1113Y1965D01*
X1115Y1975D01*
X1113Y1985D01*
X1109Y1995D01*
X1103Y2003D01*
X1095Y2009D01*
X1085Y2013D01*
X1075Y2015D01*
D02*
G37*
G36*
X975D02*
X965Y2013D01*
X955Y2009D01*
X947Y2003D01*
X941Y1995D01*
X937Y1985D01*
X935Y1975D01*
X937Y1965D01*
X941Y1955D01*
X947Y1947D01*
X955Y1941D01*
X965Y1937D01*
X975Y1935D01*
X985Y1937D01*
X995Y1941D01*
X1003Y1947D01*
X1009Y1955D01*
X1013Y1965D01*
X1015Y1975D01*
X1013Y1985D01*
X1009Y1995D01*
X1003Y2003D01*
X995Y2009D01*
X985Y2013D01*
X975Y2015D01*
D02*
G37*
G36*
X875D02*
X865Y2013D01*
X855Y2009D01*
X847Y2003D01*
X841Y1995D01*
X837Y1985D01*
X835Y1975D01*
X837Y1965D01*
X841Y1955D01*
X847Y1947D01*
X855Y1941D01*
X865Y1937D01*
X875Y1935D01*
X885Y1937D01*
X895Y1941D01*
X903Y1947D01*
X909Y1955D01*
X913Y1965D01*
X915Y1975D01*
X913Y1985D01*
X909Y1995D01*
X903Y2003D01*
X895Y2009D01*
X885Y2013D01*
X875Y2015D01*
D02*
G37*
G36*
X767Y1967D02*
X734D01*
X735Y1964D01*
X739Y1954D01*
X745Y1945D01*
X754Y1939D01*
X764Y1935D01*
X767Y1934D01*
Y1967D01*
D02*
G37*
G36*
X816D02*
X782D01*
Y1934D01*
X786Y1935D01*
X796Y1939D01*
X805Y1945D01*
X811Y1954D01*
X815Y1964D01*
X816Y1967D01*
D02*
G37*
G36*
X210Y1908D02*
X163D01*
Y1857D01*
X205D01*
X205Y1856D01*
X206Y1852D01*
X202Y1850D01*
X193Y1840D01*
X163D01*
Y1789D01*
X210D01*
Y1819D01*
X218Y1826D01*
X265D01*
Y1823D01*
X338D01*
Y1857D01*
X265D01*
Y1854D01*
X214D01*
X211Y1856D01*
X210Y1858D01*
Y1869D01*
X233D01*
X238Y1870D01*
X242Y1873D01*
X246Y1876D01*
X265D01*
Y1873D01*
X338D01*
Y1907D01*
X265D01*
Y1904D01*
X240D01*
X240Y1904D01*
X235Y1903D01*
X230Y1900D01*
X227Y1896D01*
X210D01*
Y1908D01*
D02*
G37*
G36*
X2404Y1848D02*
X2385D01*
Y1827D01*
X2404D01*
Y1848D01*
D02*
G37*
G36*
X2370D02*
X2351D01*
Y1827D01*
X2370D01*
Y1848D01*
D02*
G37*
G36*
X2845Y1845D02*
X2826D01*
Y1824D01*
X2845D01*
Y1845D01*
D02*
G37*
G36*
X2811D02*
X2792D01*
Y1824D01*
X2811D01*
Y1845D01*
D02*
G37*
G36*
X637Y2007D02*
X564D01*
Y1973D01*
X587D01*
Y1957D01*
X564D01*
Y1923D01*
X587D01*
Y1907D01*
X564D01*
Y1873D01*
X587D01*
Y1857D01*
X564D01*
Y1854D01*
X445D01*
X440Y1853D01*
X435Y1850D01*
X349Y1764D01*
X346Y1759D01*
X345Y1754D01*
Y1636D01*
X346Y1630D01*
X349Y1626D01*
X387Y1588D01*
X391Y1585D01*
X396Y1584D01*
X396Y1584D01*
X489D01*
Y1581D01*
X545D01*
Y1613D01*
X547Y1617D01*
X547Y1619D01*
Y1628D01*
X487D01*
Y1619D01*
X487Y1617D01*
X487Y1617D01*
X487Y1617D01*
X486Y1617D01*
X482Y1620D01*
Y1634D01*
X454D01*
X426D01*
Y1617D01*
X426Y1615D01*
X423Y1612D01*
X402D01*
X373Y1641D01*
Y1748D01*
X451Y1826D01*
X564D01*
Y1823D01*
X637D01*
Y1857D01*
X614D01*
Y1873D01*
X637D01*
Y1907D01*
X614D01*
Y1923D01*
X637D01*
Y1957D01*
X614D01*
Y1973D01*
X637D01*
Y2007D01*
D02*
G37*
G36*
X1431Y1834D02*
X1425Y1831D01*
X1419Y1827D01*
X1415Y1821D01*
X1412Y1814D01*
X1431D01*
Y1834D01*
D02*
G37*
G36*
X2404Y1812D02*
X2385D01*
Y1792D01*
X2404D01*
Y1812D01*
D02*
G37*
G36*
X2370D02*
X2351D01*
Y1792D01*
X2370D01*
Y1812D01*
D02*
G37*
G36*
X2845Y1809D02*
X2826D01*
Y1789D01*
X2845D01*
Y1809D01*
D02*
G37*
G36*
X2811D02*
X2792D01*
Y1789D01*
X2811D01*
Y1809D01*
D02*
G37*
G36*
X1187Y1821D02*
X1143D01*
Y1785D01*
X1187D01*
Y1821D01*
D02*
G37*
G36*
X1128D02*
X1083D01*
Y1785D01*
X1128D01*
Y1821D01*
D02*
G37*
G36*
X1431Y1799D02*
X1412D01*
X1415Y1793D01*
X1419Y1787D01*
X1425Y1783D01*
X1431Y1780D01*
Y1799D01*
D02*
G37*
G36*
X978Y1804D02*
X878D01*
Y1776D01*
X827D01*
Y1789D01*
X778D01*
Y1738D01*
X827D01*
Y1749D01*
X878D01*
Y1721D01*
X978D01*
Y1726D01*
X983Y1727D01*
X1005Y1705D01*
Y1674D01*
X1057D01*
Y1724D01*
X1047D01*
Y1736D01*
X1049Y1739D01*
X1050Y1745D01*
X1049Y1751D01*
X1045Y1757D01*
X1039Y1761D01*
X1033Y1762D01*
X1027Y1761D01*
X1021Y1757D01*
X1017Y1751D01*
X1016Y1745D01*
X1016Y1744D01*
X1013Y1738D01*
X1012Y1738D01*
X978Y1771D01*
Y1804D01*
D02*
G37*
G36*
X766Y1791D02*
X747D01*
Y1771D01*
X766D01*
Y1791D01*
D02*
G37*
G36*
X732D02*
X713D01*
Y1771D01*
X732D01*
Y1791D01*
D02*
G37*
G36*
X1346Y1783D02*
X1326D01*
Y1763D01*
X1346D01*
Y1783D01*
D02*
G37*
G36*
X1311D02*
X1290D01*
Y1763D01*
X1311D01*
Y1783D01*
D02*
G37*
G36*
X766Y1756D02*
X747D01*
Y1736D01*
X766D01*
Y1756D01*
D02*
G37*
G36*
X732D02*
X713D01*
Y1736D01*
X732D01*
Y1756D01*
D02*
G37*
G36*
X147Y2045D02*
X100D01*
Y1994D01*
X110D01*
Y1977D01*
X100D01*
Y1925D01*
X110D01*
Y1908D01*
X100D01*
Y1857D01*
X110D01*
Y1840D01*
X100D01*
Y1789D01*
X110D01*
Y1767D01*
X111Y1762D01*
X114Y1758D01*
X123Y1749D01*
X123Y1746D01*
X127Y1740D01*
X133Y1736D01*
X139Y1735D01*
X145Y1736D01*
X151Y1740D01*
X155Y1746D01*
X156Y1752D01*
X155Y1758D01*
X151Y1764D01*
X145Y1768D01*
X142Y1768D01*
X137Y1773D01*
Y1789D01*
X147D01*
Y1840D01*
X137D01*
Y1857D01*
X147D01*
Y1908D01*
X137D01*
Y1925D01*
X147D01*
Y1977D01*
X137D01*
Y1994D01*
X147D01*
Y2045D01*
D02*
G37*
G36*
X1187Y1770D02*
X1143D01*
Y1735D01*
X1187D01*
Y1770D01*
D02*
G37*
G36*
X1128D02*
X1083D01*
Y1735D01*
X1128D01*
Y1770D01*
D02*
G37*
G36*
X1346Y1748D02*
X1326D01*
Y1729D01*
X1346D01*
Y1748D01*
D02*
G37*
G36*
X1311D02*
X1290D01*
Y1729D01*
X1311D01*
Y1748D01*
D02*
G37*
G36*
X454Y1763D02*
X448Y1762D01*
X442Y1758D01*
X438Y1752D01*
X437Y1746D01*
X438Y1740D01*
X440Y1737D01*
Y1729D01*
X428D01*
Y1718D01*
X414D01*
X411Y1720D01*
X405Y1721D01*
X399Y1720D01*
X393Y1716D01*
X389Y1711D01*
X388Y1704D01*
X389Y1698D01*
X393Y1693D01*
X399Y1689D01*
X405Y1688D01*
X411Y1689D01*
X414Y1691D01*
X428D01*
Y1680D01*
X480D01*
Y1684D01*
X484Y1686D01*
X489Y1681D01*
Y1659D01*
X487Y1654D01*
X487Y1652D01*
Y1643D01*
X547D01*
Y1654D01*
X545Y1659D01*
Y1690D01*
X519D01*
X495Y1714D01*
X491Y1717D01*
X485Y1718D01*
X480D01*
Y1729D01*
X468D01*
Y1737D01*
X470Y1740D01*
X471Y1746D01*
X470Y1752D01*
X466Y1758D01*
X460Y1762D01*
X454Y1763D01*
D02*
G37*
G36*
X1267Y1737D02*
X1247D01*
Y1718D01*
X1267D01*
Y1737D01*
D02*
G37*
G36*
X1232D02*
X1211D01*
Y1718D01*
X1232D01*
Y1737D01*
D02*
G37*
G36*
X2831Y1762D02*
X2825Y1761D01*
X2819Y1757D01*
X2815Y1751D01*
X2814Y1745D01*
X2815Y1739D01*
X2819Y1733D01*
X2825Y1729D01*
X2828Y1729D01*
X2839Y1718D01*
X2839Y1718D01*
X2843Y1715D01*
X2849Y1714D01*
X2849Y1714D01*
X2856D01*
Y1704D01*
X2908D01*
Y1751D01*
X2856D01*
Y1746D01*
X2851Y1744D01*
X2847Y1748D01*
X2847Y1751D01*
X2843Y1757D01*
X2837Y1761D01*
X2831Y1762D01*
D02*
G37*
G36*
X1267Y1703D02*
X1247D01*
Y1684D01*
X1267D01*
Y1703D01*
D02*
G37*
G36*
X1232D02*
X1211D01*
Y1684D01*
X1232D01*
Y1703D01*
D02*
G37*
G36*
X2018Y1704D02*
X1999D01*
Y1684D01*
X2018D01*
Y1704D01*
D02*
G37*
G36*
X1984D02*
X1965D01*
Y1684D01*
X1984D01*
Y1704D01*
D02*
G37*
G36*
X978Y1690D02*
X878D01*
Y1662D01*
X827D01*
Y1675D01*
X778D01*
Y1624D01*
X827D01*
Y1634D01*
X878D01*
Y1607D01*
X978D01*
Y1622D01*
X1005D01*
Y1611D01*
X1018D01*
Y1602D01*
X1016Y1599D01*
X1015Y1593D01*
X1016Y1587D01*
X1020Y1581D01*
X1026Y1577D01*
X1032Y1576D01*
X1038Y1577D01*
X1044Y1581D01*
X1048Y1587D01*
X1049Y1593D01*
X1048Y1599D01*
X1046Y1602D01*
Y1611D01*
X1057D01*
Y1661D01*
X1005D01*
Y1650D01*
X978D01*
Y1690D01*
D02*
G37*
G36*
X766Y1677D02*
X747D01*
Y1657D01*
X766D01*
Y1677D01*
D02*
G37*
G36*
X732D02*
X713D01*
Y1657D01*
X732D01*
Y1677D01*
D02*
G37*
G36*
X2079Y1702D02*
X2030D01*
Y1651D01*
X2051D01*
Y1633D01*
X2037D01*
Y1601D01*
X2035Y1597D01*
X2035Y1595D01*
Y1586D01*
X2064D01*
X2094D01*
Y1597D01*
X2092Y1601D01*
Y1633D01*
X2078D01*
Y1651D01*
X2079D01*
Y1659D01*
X2103D01*
X2106Y1657D01*
X2112Y1656D01*
X2118Y1657D01*
X2124Y1660D01*
X2128Y1666D01*
X2129Y1672D01*
X2128Y1679D01*
X2124Y1684D01*
X2118Y1688D01*
X2112Y1689D01*
X2106Y1688D01*
X2103Y1686D01*
X2079D01*
Y1702D01*
D02*
G37*
G36*
X482Y1668D02*
X461D01*
Y1649D01*
X482D01*
Y1668D01*
D02*
G37*
G36*
X447D02*
X426D01*
Y1649D01*
X447D01*
Y1668D01*
D02*
G37*
G36*
X2018Y1669D02*
X1999D01*
Y1649D01*
X2018D01*
Y1669D01*
D02*
G37*
G36*
X1984D02*
X1965D01*
Y1649D01*
X1984D01*
Y1669D01*
D02*
G37*
G36*
X1446Y1834D02*
Y1807D01*
Y1780D01*
X1453Y1783D01*
X1459Y1787D01*
X1462Y1791D01*
X1467Y1792D01*
X1468Y1791D01*
X1470Y1788D01*
X1475Y1785D01*
Y1656D01*
X1461Y1641D01*
X1453D01*
Y1646D01*
X1408D01*
Y1661D01*
X1453D01*
Y1670D01*
X1451D01*
Y1694D01*
X1413D01*
X1404Y1703D01*
X1399Y1706D01*
X1394Y1707D01*
X1344D01*
Y1718D01*
X1292D01*
Y1668D01*
X1304D01*
Y1657D01*
X1305Y1652D01*
X1308Y1647D01*
X1310Y1646D01*
X1310Y1643D01*
X1311Y1641D01*
X1308Y1638D01*
X1288Y1657D01*
X1284Y1660D01*
X1278Y1661D01*
X1265D01*
Y1672D01*
X1213D01*
Y1661D01*
X1185D01*
Y1705D01*
X1085D01*
Y1622D01*
X1185D01*
Y1634D01*
X1213D01*
Y1623D01*
X1265D01*
Y1634D01*
X1273D01*
X1314Y1592D01*
X1314Y1592D01*
X1319Y1589D01*
X1324Y1588D01*
X1325D01*
X1327Y1584D01*
X1327Y1583D01*
X1326Y1577D01*
X1327Y1571D01*
X1331Y1565D01*
X1337Y1561D01*
X1337Y1561D01*
Y1556D01*
X1333Y1556D01*
X1327Y1552D01*
X1325Y1548D01*
X1320Y1550D01*
Y1553D01*
X1320Y1553D01*
X1319Y1558D01*
X1316Y1563D01*
X1316Y1563D01*
X1287Y1591D01*
X1283Y1594D01*
X1278Y1595D01*
X1228D01*
Y1607D01*
X1179D01*
Y1556D01*
X1228D01*
Y1568D01*
X1272D01*
X1289Y1550D01*
X1287Y1545D01*
X1273D01*
Y1518D01*
X1266D01*
Y1511D01*
X1238D01*
Y1494D01*
X1226D01*
Y1493D01*
X1150D01*
Y1484D01*
X979D01*
Y1384D01*
X1120D01*
X1130Y1374D01*
X1136Y1370D01*
X1142Y1367D01*
X1149Y1366D01*
X1150D01*
Y1355D01*
X1163D01*
Y1337D01*
X1159Y1334D01*
X1157Y1335D01*
X1155Y1336D01*
X1150Y1337D01*
X1146Y1336D01*
X1142Y1333D01*
X1139Y1329D01*
X1138Y1325D01*
Y1305D01*
X1139Y1301D01*
X1139Y1300D01*
X1135Y1297D01*
X1135Y1297D01*
X1131Y1298D01*
X1111D01*
X1106Y1297D01*
X1103Y1294D01*
X1100Y1290D01*
X1099Y1287D01*
X1096Y1285D01*
X1094Y1285D01*
X1027Y1352D01*
X1023Y1354D01*
X1019Y1355D01*
Y1369D01*
X970D01*
Y1329D01*
X965Y1327D01*
X956Y1336D01*
Y1364D01*
X964Y1372D01*
X966Y1373D01*
X970Y1379D01*
X971Y1385D01*
X970Y1391D01*
X966Y1397D01*
X961Y1401D01*
X955Y1402D01*
X948Y1401D01*
X943Y1397D01*
X941Y1395D01*
X920Y1373D01*
X917Y1369D01*
X907D01*
Y1317D01*
X936D01*
X943Y1310D01*
X941Y1306D01*
X939D01*
Y1285D01*
X958D01*
Y1288D01*
X963Y1290D01*
X970Y1283D01*
Y1252D01*
X997D01*
X1004Y1245D01*
X997Y1239D01*
X970D01*
Y1206D01*
X963Y1199D01*
X958Y1201D01*
Y1205D01*
X939D01*
Y1185D01*
X943D01*
X945Y1181D01*
X938Y1174D01*
X907D01*
Y1122D01*
X916D01*
X916Y1120D01*
X920Y1115D01*
X945Y1090D01*
X946Y1088D01*
X952Y1084D01*
X958Y1083D01*
X964Y1084D01*
X970Y1088D01*
X974Y1094D01*
X975Y1100D01*
X974Y1106D01*
X970Y1112D01*
X968Y1113D01*
X956Y1125D01*
Y1153D01*
X965Y1162D01*
X970Y1160D01*
Y1122D01*
X1019D01*
Y1135D01*
X1028D01*
X1028Y1135D01*
X1033Y1136D01*
X1037Y1139D01*
X1112Y1214D01*
X1121D01*
X1123Y1214D01*
X1131D01*
X1135Y1215D01*
X1135Y1215D01*
X1139Y1211D01*
X1139Y1211D01*
X1138Y1207D01*
Y1199D01*
X1138Y1197D01*
Y1178D01*
X1081Y1120D01*
X1078Y1116D01*
X1077Y1111D01*
X1074Y1108D01*
X1064D01*
Y1059D01*
X1115D01*
Y1108D01*
X1110D01*
X1108Y1113D01*
X1139Y1143D01*
X1144Y1142D01*
Y1120D01*
X1133D01*
Y1043D01*
Y980D01*
X1145D01*
Y841D01*
X1133D01*
Y829D01*
X1115D01*
Y801D01*
Y773D01*
X1133D01*
Y767D01*
X1117D01*
Y743D01*
X1111Y742D01*
X1104Y740D01*
X1099Y736D01*
X1022Y658D01*
X886D01*
Y554D01*
X1026D01*
Y588D01*
X1112Y675D01*
X1117Y673D01*
Y667D01*
X1295D01*
Y767D01*
X1208D01*
Y841D01*
X1198D01*
Y980D01*
X1212D01*
Y1043D01*
Y1120D01*
X1197D01*
Y1140D01*
X1201Y1142D01*
X1231Y1113D01*
X1229Y1108D01*
X1225D01*
Y1059D01*
X1277D01*
Y1108D01*
X1268D01*
X1263Y1110D01*
X1263Y1115D01*
X1260Y1119D01*
X1260Y1119D01*
X1234Y1145D01*
X1236Y1150D01*
X1240Y1151D01*
X1246Y1154D01*
X1250Y1160D01*
X1251Y1166D01*
X1250Y1173D01*
X1246Y1178D01*
X1240Y1182D01*
X1235Y1183D01*
X1222Y1196D01*
Y1209D01*
X1227Y1213D01*
X1229Y1212D01*
X1232D01*
Y1226D01*
X1239D01*
Y1234D01*
X1261D01*
X1259Y1236D01*
X1260Y1241D01*
X1261Y1246D01*
X1260Y1251D01*
X1257Y1255D01*
Y1257D01*
X1260Y1261D01*
X1261Y1266D01*
X1260Y1270D01*
X1259Y1272D01*
X1258Y1276D01*
X1259Y1279D01*
X1260Y1281D01*
X1261Y1285D01*
X1260Y1290D01*
X1257Y1294D01*
X1254Y1297D01*
X1249Y1298D01*
X1229D01*
X1225Y1297D01*
X1225Y1297D01*
X1221Y1300D01*
X1221Y1301D01*
X1222Y1305D01*
Y1325D01*
X1221Y1329D01*
X1218Y1333D01*
X1216Y1335D01*
Y1355D01*
X1230D01*
Y1417D01*
X1279D01*
X1283Y1416D01*
Y1397D01*
X1311D01*
Y1389D01*
X1319D01*
Y1363D01*
X1335D01*
Y1351D01*
X1287D01*
X1285Y1355D01*
X1279Y1359D01*
X1273Y1360D01*
X1267Y1359D01*
X1261Y1355D01*
X1257Y1349D01*
X1256Y1343D01*
X1257Y1337D01*
X1261Y1331D01*
X1267Y1327D01*
X1270Y1327D01*
X1280Y1317D01*
X1284Y1314D01*
X1285Y1314D01*
Y1302D01*
X1337D01*
Y1314D01*
X1340Y1317D01*
X1359Y1335D01*
X1359Y1335D01*
X1361Y1338D01*
X1366Y1337D01*
Y1331D01*
X1404D01*
X1405Y1330D01*
Y1297D01*
X1394D01*
Y1246D01*
X1404D01*
Y1230D01*
X1383D01*
Y1173D01*
X1453D01*
Y1230D01*
X1432D01*
Y1246D01*
X1443D01*
Y1297D01*
X1432D01*
Y1331D01*
X1451D01*
Y1355D01*
X1453D01*
Y1364D01*
X1408D01*
Y1379D01*
X1453D01*
Y1388D01*
X1451D01*
Y1406D01*
X1453D01*
Y1415D01*
X1408D01*
Y1430D01*
X1453D01*
Y1435D01*
X1459D01*
X1465Y1436D01*
X1469Y1439D01*
X1523Y1493D01*
X1523Y1493D01*
X1526Y1497D01*
X1527Y1502D01*
Y1602D01*
X1526Y1607D01*
X1523Y1612D01*
X1519Y1615D01*
X1516Y1615D01*
X1514Y1620D01*
X1549Y1655D01*
X1552Y1660D01*
X1553Y1665D01*
X1553Y1665D01*
Y1785D01*
X1558Y1788D01*
X1562Y1794D01*
X1564Y1800D01*
X1565Y1807D01*
X1564Y1814D01*
X1562Y1820D01*
X1558Y1826D01*
X1552Y1830D01*
X1546Y1832D01*
X1539Y1833D01*
X1532Y1832D01*
X1526Y1830D01*
X1520Y1826D01*
X1517Y1821D01*
X1514Y1820D01*
X1511Y1821D01*
X1508Y1826D01*
X1502Y1830D01*
X1496Y1832D01*
X1489Y1833D01*
X1482Y1832D01*
X1476Y1830D01*
X1470Y1826D01*
X1468Y1823D01*
X1467Y1822D01*
X1462Y1823D01*
X1459Y1827D01*
X1453Y1831D01*
X1446Y1834D01*
D02*
G37*
G36*
X766Y1642D02*
X747D01*
Y1622D01*
X766D01*
Y1642D01*
D02*
G37*
G36*
X732D02*
X713D01*
Y1622D01*
X732D01*
Y1642D01*
D02*
G37*
G36*
X3197Y1651D02*
X3188D01*
Y1621D01*
X3197D01*
Y1651D01*
D02*
G37*
G36*
X1726Y1694D02*
X1641D01*
Y1664D01*
Y1638D01*
Y1613D01*
Y1587D01*
Y1561D01*
Y1536D01*
Y1510D01*
Y1462D01*
X1636D01*
X1625Y1474D01*
Y1494D01*
X1627Y1497D01*
X1628Y1503D01*
X1627Y1509D01*
X1623Y1515D01*
X1617Y1519D01*
X1611Y1520D01*
X1605Y1519D01*
X1599Y1515D01*
X1595Y1509D01*
X1594Y1503D01*
X1595Y1497D01*
X1597Y1494D01*
Y1468D01*
X1598Y1463D01*
X1601Y1459D01*
X1601Y1457D01*
X1600Y1453D01*
X1595Y1450D01*
X1592Y1445D01*
X1587Y1444D01*
X1580Y1450D01*
X1580Y1453D01*
X1576Y1459D01*
X1570Y1463D01*
X1564Y1464D01*
X1558Y1463D01*
X1552Y1459D01*
X1548Y1453D01*
X1547Y1447D01*
X1548Y1441D01*
X1552Y1435D01*
X1558Y1432D01*
X1561Y1431D01*
X1579Y1413D01*
X1577Y1407D01*
X1575Y1407D01*
X1569Y1403D01*
X1565Y1397D01*
X1564Y1391D01*
X1565Y1385D01*
X1569Y1379D01*
X1575Y1375D01*
X1578Y1375D01*
X1586Y1366D01*
X1591Y1363D01*
X1596Y1362D01*
X1596D01*
X1599Y1357D01*
X1598Y1352D01*
X1599Y1347D01*
X1596Y1343D01*
X1596Y1342D01*
X1517D01*
X1512Y1341D01*
X1511Y1336D01*
Y1303D01*
X1508Y1299D01*
X1506Y1299D01*
X1489D01*
Y1272D01*
Y1244D01*
X1506D01*
X1508Y1244D01*
X1511Y1240D01*
Y1210D01*
Y1187D01*
X1512Y1183D01*
X1517Y1181D01*
X1610D01*
X1615Y1183D01*
X1616Y1187D01*
Y1210D01*
X1619Y1214D01*
X1621D01*
Y1284D01*
X1610D01*
X1607Y1289D01*
X1607Y1290D01*
Y1332D01*
X1611Y1335D01*
X1612Y1335D01*
X1616Y1333D01*
X1621Y1332D01*
X1621Y1332D01*
X1641D01*
Y1331D01*
X1726D01*
Y1357D01*
Y1382D01*
Y1408D01*
Y1434D01*
Y1460D01*
X1741D01*
X1741Y1460D01*
X1747Y1456D01*
X1753Y1455D01*
X1759Y1456D01*
X1765Y1460D01*
X1769Y1466D01*
X1770Y1472D01*
X1769Y1478D01*
X1765Y1484D01*
X1762Y1486D01*
X1761Y1492D01*
X1761Y1493D01*
X1763Y1500D01*
X1762Y1502D01*
X1766Y1507D01*
X1769Y1506D01*
X1775Y1507D01*
X1781Y1511D01*
X1784Y1516D01*
X1789Y1515D01*
X1789Y1515D01*
Y1492D01*
X1796D01*
Y1476D01*
X1795Y1472D01*
X1796Y1465D01*
X1800Y1460D01*
X1806Y1456D01*
X1812Y1455D01*
X1818Y1456D01*
X1824Y1460D01*
X1828Y1465D01*
X1829Y1472D01*
X1829Y1473D01*
Y1492D01*
X1836D01*
Y1543D01*
X1789D01*
Y1531D01*
X1789Y1531D01*
X1784Y1530D01*
X1781Y1535D01*
X1775Y1539D01*
X1769Y1540D01*
X1764Y1539D01*
X1764D01*
X1761Y1544D01*
X1762Y1545D01*
X1763Y1551D01*
X1763Y1552D01*
X1767Y1557D01*
X1769Y1556D01*
X1775Y1557D01*
X1781Y1561D01*
X1782Y1562D01*
X1787Y1561D01*
Y1551D01*
X1805D01*
Y1578D01*
Y1606D01*
X1787D01*
Y1585D01*
X1782Y1584D01*
X1781Y1585D01*
X1775Y1589D01*
X1769Y1590D01*
X1768Y1590D01*
X1767Y1590D01*
X1764Y1594D01*
X1764Y1595D01*
X1766Y1602D01*
X1765Y1607D01*
X1768Y1610D01*
X1769Y1611D01*
X1770Y1611D01*
X1776Y1612D01*
X1782Y1616D01*
X1786Y1621D01*
X1787Y1628D01*
X1786Y1634D01*
X1782Y1639D01*
X1776Y1643D01*
X1773Y1644D01*
X1770Y1646D01*
X1769Y1649D01*
X1770Y1653D01*
X1769Y1659D01*
X1765Y1665D01*
X1759Y1668D01*
X1753Y1670D01*
X1747Y1668D01*
X1744Y1667D01*
X1726D01*
Y1694D01*
D02*
G37*
G36*
X2346Y1669D02*
X2297D01*
X2289Y1667D01*
X2283Y1663D01*
X2279Y1657D01*
X2278Y1650D01*
X2279Y1643D01*
X2283Y1637D01*
X2289Y1633D01*
X2297Y1631D01*
X2325D01*
Y1609D01*
X2394D01*
Y1630D01*
X2415D01*
X2422Y1632D01*
X2428Y1636D01*
X2432Y1642D01*
X2434Y1649D01*
X2432Y1656D01*
X2428Y1663D01*
X2422Y1667D01*
X2415Y1668D01*
X2371D01*
X2364Y1667D01*
X2363Y1666D01*
X2356D01*
X2354Y1667D01*
X2346Y1669D01*
D02*
G37*
G36*
X651Y1690D02*
X595D01*
Y1657D01*
X595Y1656D01*
Y1652D01*
X595Y1651D01*
Y1621D01*
X593Y1617D01*
X593Y1615D01*
Y1606D01*
X653D01*
X653Y1616D01*
X657Y1618D01*
X666Y1610D01*
X666Y1607D01*
X670Y1601D01*
X676Y1597D01*
X682Y1596D01*
X688Y1597D01*
X694Y1601D01*
X698Y1607D01*
X699Y1613D01*
X698Y1619D01*
X694Y1625D01*
X688Y1629D01*
X685Y1629D01*
X669Y1645D01*
X665Y1648D01*
X659Y1649D01*
X654D01*
X651Y1652D01*
Y1656D01*
X651Y1657D01*
Y1690D01*
D02*
G37*
G36*
X1918Y1657D02*
X1911Y1656D01*
X1906Y1652D01*
X1902Y1646D01*
X1901Y1640D01*
X1902Y1634D01*
X1906Y1628D01*
X1911Y1624D01*
X1915Y1624D01*
X1931Y1608D01*
Y1600D01*
X1931Y1599D01*
Y1595D01*
X1926Y1592D01*
X1899D01*
Y1604D01*
X1852D01*
Y1553D01*
X1899D01*
Y1565D01*
X1927D01*
X1931Y1562D01*
Y1558D01*
X1931D01*
X1931Y1557D01*
Y1535D01*
X1927Y1531D01*
X1899D01*
Y1543D01*
X1852D01*
Y1492D01*
X1899D01*
Y1504D01*
X1933D01*
X1938Y1505D01*
X1942Y1508D01*
X1959Y1524D01*
X1986D01*
Y1539D01*
X1998D01*
X2003Y1536D01*
X2009Y1535D01*
X2015Y1536D01*
X2021Y1540D01*
X2025Y1545D01*
X2026Y1551D01*
X2025Y1558D01*
X2021Y1563D01*
X2016Y1567D01*
X2016Y1569D01*
X2016Y1572D01*
X2021Y1575D01*
X2025Y1581D01*
X2026Y1587D01*
X2025Y1593D01*
X2021Y1599D01*
X2015Y1603D01*
X2009Y1604D01*
X2003Y1603D01*
X1997Y1599D01*
X1993Y1593D01*
X1993Y1593D01*
X1988Y1593D01*
X1986Y1595D01*
Y1599D01*
X1986Y1600D01*
Y1633D01*
X1945D01*
X1934Y1643D01*
X1933Y1646D01*
X1930Y1652D01*
X1924Y1656D01*
X1918Y1657D01*
D02*
G37*
G36*
X1167Y1609D02*
X1148D01*
Y1589D01*
X1167D01*
Y1609D01*
D02*
G37*
G36*
X1133D02*
X1114D01*
Y1589D01*
X1133D01*
Y1609D01*
D02*
G37*
G36*
X1838Y1606D02*
X1820D01*
Y1586D01*
X1838D01*
Y1606D01*
D02*
G37*
G36*
X653Y1591D02*
X631D01*
Y1579D01*
X653D01*
Y1591D01*
D02*
G37*
G36*
X616D02*
X593D01*
Y1579D01*
X616D01*
Y1591D01*
D02*
G37*
G36*
X3197Y1606D02*
X3188D01*
Y1576D01*
X3197D01*
Y1606D01*
D02*
G37*
G36*
X1167Y1574D02*
X1148D01*
Y1554D01*
X1167D01*
Y1574D01*
D02*
G37*
G36*
X1133D02*
X1114D01*
Y1554D01*
X1133D01*
Y1574D01*
D02*
G37*
G36*
X1838Y1571D02*
X1820D01*
Y1551D01*
X1838D01*
Y1571D01*
D02*
G37*
G36*
X1258Y1545D02*
X1238D01*
Y1526D01*
X1258D01*
Y1545D01*
D02*
G37*
G36*
X3272Y1533D02*
X3176D01*
Y1501D01*
X3272D01*
Y1533D01*
D02*
G37*
G36*
X2410Y1502D02*
X2391D01*
Y1482D01*
X2410D01*
Y1502D01*
D02*
G37*
G36*
X2376D02*
X2357D01*
Y1482D01*
X2376D01*
Y1502D01*
D02*
G37*
G36*
X2473Y1500D02*
X2452D01*
Y1481D01*
X2473D01*
Y1500D01*
D02*
G37*
G36*
X2437D02*
X2417D01*
Y1481D01*
X2437D01*
Y1500D01*
D02*
G37*
G36*
X3272Y1486D02*
X3176D01*
Y1454D01*
X3272D01*
Y1486D01*
D02*
G37*
G36*
X2473Y1466D02*
X2452D01*
Y1447D01*
X2473D01*
Y1466D01*
D02*
G37*
G36*
X2437D02*
X2417D01*
Y1447D01*
X2437D01*
Y1466D01*
D02*
G37*
G36*
X2410Y1467D02*
X2391D01*
Y1446D01*
X2410D01*
Y1467D01*
D02*
G37*
G36*
X2376D02*
X2357D01*
Y1446D01*
X2376D01*
Y1467D01*
D02*
G37*
G36*
X2057Y1438D02*
X2037D01*
Y1418D01*
X2057D01*
Y1438D01*
D02*
G37*
G36*
X2022D02*
X2003D01*
Y1418D01*
X2022D01*
Y1438D01*
D02*
G37*
G36*
X2410D02*
X2391D01*
Y1418D01*
X2410D01*
Y1438D01*
D02*
G37*
G36*
X2376D02*
X2357D01*
Y1418D01*
X2376D01*
Y1438D01*
D02*
G37*
G36*
X2410Y1403D02*
X2391D01*
Y1383D01*
X2410D01*
Y1403D01*
D02*
G37*
G36*
X2376D02*
X2357D01*
Y1383D01*
X2376D01*
Y1403D01*
D02*
G37*
G36*
X2057Y1403D02*
X2037D01*
Y1383D01*
X2057D01*
Y1403D01*
D02*
G37*
G36*
X2022D02*
X2003D01*
Y1383D01*
X2022D01*
Y1403D01*
D02*
G37*
G36*
X1917Y1386D02*
X1905D01*
Y1373D01*
X1917D01*
Y1386D01*
D02*
G37*
G36*
X1304Y1382D02*
X1283D01*
Y1363D01*
X1304D01*
Y1382D01*
D02*
G37*
G36*
X1925Y1307D02*
X1906D01*
Y1287D01*
X1925D01*
Y1307D01*
D02*
G37*
G36*
X1891D02*
X1872D01*
Y1287D01*
X1891D01*
Y1307D01*
D02*
G37*
G36*
X924Y1306D02*
X905D01*
Y1285D01*
X924D01*
Y1306D01*
D02*
G37*
G36*
X1474Y1299D02*
X1455D01*
Y1279D01*
X1474D01*
Y1299D01*
D02*
G37*
G36*
X2029Y1278D02*
X2009D01*
Y1258D01*
X2029D01*
Y1278D01*
D02*
G37*
G36*
X2002D02*
X1982D01*
Y1258D01*
X2002D01*
Y1278D01*
D02*
G37*
G36*
X1967D02*
X1947D01*
Y1258D01*
X1967D01*
Y1278D01*
D02*
G37*
G36*
X958Y1270D02*
X939D01*
Y1250D01*
X958D01*
Y1270D01*
D02*
G37*
G36*
X924D02*
X905D01*
Y1250D01*
X924D01*
Y1270D01*
D02*
G37*
G36*
X1474Y1264D02*
X1455D01*
Y1244D01*
X1474D01*
Y1264D01*
D02*
G37*
G36*
X2064Y1243D02*
X2044D01*
Y1224D01*
X2064D01*
Y1243D01*
D02*
G37*
G36*
X2029D02*
X2009D01*
Y1224D01*
X2029D01*
Y1243D01*
D02*
G37*
G36*
X2002Y1243D02*
X1982D01*
Y1224D01*
X2002D01*
Y1243D01*
D02*
G37*
G36*
X1967D02*
X1947D01*
Y1224D01*
X1967D01*
Y1243D01*
D02*
G37*
G36*
X958Y1241D02*
X939D01*
Y1220D01*
X958D01*
Y1241D01*
D02*
G37*
G36*
X924D02*
X905D01*
Y1220D01*
X924D01*
Y1241D01*
D02*
G37*
G36*
X1261Y1219D02*
X1247D01*
Y1212D01*
X1249D01*
X1254Y1213D01*
X1259Y1216D01*
X1261Y1219D01*
D02*
G37*
G36*
X1883Y1216D02*
Y1196D01*
X1903D01*
X1900Y1203D01*
X1895Y1209D01*
X1889Y1213D01*
X1883Y1216D01*
D02*
G37*
G36*
X1868Y1216D02*
X1861Y1213D01*
X1855Y1209D01*
X1851Y1203D01*
X1848Y1196D01*
X1868D01*
Y1216D01*
D02*
G37*
G36*
X924Y1205D02*
X905D01*
Y1185D01*
X924D01*
Y1205D01*
D02*
G37*
G36*
X2791Y1215D02*
X2785Y1214D01*
X2780Y1210D01*
X2776Y1205D01*
X2775Y1198D01*
X2776Y1192D01*
X2780Y1186D01*
X2785Y1183D01*
X2791Y1181D01*
X2798Y1183D01*
X2803Y1186D01*
X2807Y1192D01*
X2808Y1198D01*
X2807Y1205D01*
X2803Y1210D01*
X2798Y1214D01*
X2791Y1215D01*
D02*
G37*
G36*
X2926Y1199D02*
X2917D01*
Y1181D01*
X2926D01*
Y1199D01*
D02*
G37*
G36*
X2902D02*
X2893D01*
Y1181D01*
X2902D01*
Y1199D01*
D02*
G37*
G36*
X2875D02*
X2866D01*
Y1181D01*
X2875D01*
Y1199D01*
D02*
G37*
G36*
X2851D02*
X2842D01*
Y1181D01*
X2851D01*
Y1199D01*
D02*
G37*
G36*
X1663Y1322D02*
X1657Y1321D01*
X1651Y1317D01*
X1647Y1312D01*
X1646Y1305D01*
X1647Y1300D01*
Y1284D01*
X1635D01*
Y1214D01*
X1647D01*
Y1193D01*
X1647Y1190D01*
X1648Y1184D01*
X1652Y1178D01*
X1657Y1175D01*
X1663Y1173D01*
X1670Y1175D01*
X1675Y1178D01*
X1679Y1184D01*
X1680Y1190D01*
X1680Y1193D01*
Y1214D01*
X1692D01*
Y1233D01*
X1721D01*
X1727Y1234D01*
X1728Y1234D01*
X1728Y1234D01*
X1734Y1238D01*
X1737Y1244D01*
X1739Y1250D01*
X1737Y1256D01*
X1734Y1262D01*
X1728Y1266D01*
X1722Y1267D01*
X1715Y1266D01*
X1715Y1265D01*
X1692D01*
Y1284D01*
X1680D01*
Y1305D01*
X1680Y1305D01*
X1680Y1305D01*
X1679Y1312D01*
X1675Y1317D01*
X1669Y1321D01*
X1663Y1322D01*
D02*
G37*
G36*
X1944Y1386D02*
X1940Y1386D01*
X1932D01*
Y1365D01*
X1925D01*
Y1358D01*
X1905D01*
Y1347D01*
X1905Y1345D01*
X1902Y1342D01*
X1872D01*
Y1322D01*
X1898D01*
X1925D01*
Y1340D01*
X1925Y1342D01*
X1929Y1345D01*
X1939Y1345D01*
X1943Y1340D01*
X1943Y1340D01*
X1937D01*
Y1289D01*
X1986D01*
Y1301D01*
X2041D01*
X2059Y1282D01*
X2057Y1278D01*
X2044D01*
Y1258D01*
X2064D01*
Y1271D01*
X2069Y1272D01*
X2150Y1191D01*
Y1171D01*
X2145Y1169D01*
X2117Y1198D01*
X2112Y1201D01*
X2107Y1202D01*
X2062D01*
Y1213D01*
X2011D01*
Y1202D01*
X2000D01*
Y1213D01*
X1949D01*
Y1163D01*
X2000D01*
Y1174D01*
X2011D01*
Y1163D01*
X2062D01*
Y1174D01*
X2101D01*
X2125Y1151D01*
Y1146D01*
X2125Y1145D01*
X2123Y1139D01*
Y1100D01*
X2125Y1094D01*
X2128Y1089D01*
X2133Y1086D01*
X2139Y1085D01*
X2144Y1086D01*
X2148Y1088D01*
X2151Y1089D01*
X2155Y1088D01*
X2158Y1086D01*
X2164Y1085D01*
X2168Y1086D01*
X2171Y1081D01*
X2167Y1078D01*
X2022D01*
X1951Y1149D01*
X1946Y1152D01*
X1941Y1153D01*
X1898D01*
X1894Y1158D01*
X1891Y1160D01*
X1891Y1161D01*
X1891Y1166D01*
X1895Y1169D01*
X1900Y1175D01*
X1903Y1181D01*
X1875D01*
X1848D01*
X1851Y1175D01*
X1855Y1169D01*
X1860Y1166D01*
X1860Y1161D01*
X1860Y1160D01*
X1857Y1158D01*
X1853Y1152D01*
X1850Y1146D01*
X1849Y1139D01*
X1850Y1132D01*
X1853Y1126D01*
X1857Y1120D01*
X1861Y1117D01*
X1862Y1114D01*
X1861Y1111D01*
X1857Y1108D01*
X1853Y1102D01*
X1850Y1096D01*
X1849Y1089D01*
X1850Y1082D01*
X1853Y1076D01*
X1857Y1070D01*
X1862Y1066D01*
X1869Y1064D01*
X1875Y1063D01*
X1882Y1064D01*
X1888Y1066D01*
X1894Y1070D01*
X1898Y1076D01*
X1901Y1082D01*
X1902Y1089D01*
X1901Y1096D01*
X1898Y1102D01*
X1894Y1108D01*
X1889Y1111D01*
X1889Y1114D01*
X1889Y1117D01*
X1894Y1120D01*
X1898Y1125D01*
X1935D01*
X2006Y1054D01*
X2011Y1051D01*
X2016Y1050D01*
X2172D01*
X2174Y1047D01*
X2174Y1045D01*
X2147Y1019D01*
X2099D01*
Y1030D01*
X2048D01*
Y1019D01*
X2035D01*
Y1030D01*
X1984D01*
Y1019D01*
X1952D01*
Y1039D01*
X1894D01*
Y969D01*
X1952D01*
Y991D01*
X1984D01*
Y980D01*
X2035D01*
Y991D01*
X2048D01*
Y980D01*
X2099D01*
Y969D01*
X2081D01*
Y942D01*
Y915D01*
X2099D01*
Y863D01*
X2161D01*
Y854D01*
X2170D01*
Y841D01*
X1997D01*
Y742D01*
X2136D01*
X2141Y738D01*
X2148Y735D01*
X2155Y734D01*
X2170D01*
Y723D01*
X2165Y723D01*
X2094D01*
Y709D01*
X2045D01*
Y695D01*
X2032D01*
Y709D01*
X1980D01*
Y697D01*
X1979Y697D01*
X1975Y694D01*
X1975Y694D01*
X1963Y683D01*
X1958Y682D01*
X1952Y678D01*
X1948Y672D01*
X1947Y666D01*
X1948Y660D01*
X1952Y654D01*
X1958Y650D01*
X1964Y649D01*
X1970Y650D01*
X1976Y654D01*
X1978Y657D01*
X1978Y658D01*
X1978Y658D01*
X1980Y660D01*
X1980Y661D01*
Y661D01*
X1985Y662D01*
X2032D01*
Y671D01*
X2045D01*
Y657D01*
X2094D01*
Y643D01*
X2106D01*
Y580D01*
X2097D01*
Y566D01*
X2080D01*
X2032Y614D01*
Y646D01*
X1980D01*
Y599D01*
X2012D01*
X2048Y563D01*
Y552D01*
X2035D01*
X2031Y555D01*
X2025Y556D01*
X2019Y555D01*
X2013Y551D01*
X2009Y545D01*
X2008Y539D01*
X2009Y533D01*
X2013Y527D01*
X2019Y523D01*
X2025Y522D01*
X2031Y523D01*
X2037Y527D01*
X2037Y528D01*
X2048D01*
Y514D01*
X2097D01*
Y499D01*
X2048D01*
Y485D01*
X2017D01*
X1936Y566D01*
Y575D01*
X1942D01*
Y648D01*
X1906D01*
Y575D01*
X1912D01*
Y561D01*
X1913Y556D01*
X1915Y552D01*
X2003Y464D01*
X2007Y462D01*
X2012Y461D01*
X2012Y461D01*
X2043D01*
X2046Y456D01*
X2011Y421D01*
X1979D01*
Y374D01*
X2031D01*
Y406D01*
X2072Y447D01*
X2097D01*
Y433D01*
X2106D01*
Y376D01*
X2094D01*
Y362D01*
X2045D01*
Y348D01*
X2031D01*
Y358D01*
X1979D01*
Y347D01*
X1961D01*
X1956Y346D01*
X1952Y343D01*
X1952Y343D01*
X1951Y343D01*
X1946Y342D01*
X1940Y338D01*
X1936Y332D01*
X1935Y326D01*
X1936Y320D01*
X1940Y314D01*
X1946Y310D01*
X1952Y309D01*
X1958Y310D01*
X1964Y314D01*
X1968Y320D01*
X1968Y322D01*
X1979D01*
Y311D01*
X2031D01*
Y324D01*
X2045D01*
Y310D01*
X2094D01*
Y296D01*
X2171D01*
Y376D01*
X2159D01*
Y433D01*
X2174D01*
Y447D01*
X2200D01*
X2207Y448D01*
X2213Y450D01*
X2219Y454D01*
X2281Y517D01*
X2321D01*
Y596D01*
X2326Y596D01*
X2334D01*
Y659D01*
Y723D01*
Y734D01*
X2348D01*
X2355Y735D01*
X2362Y738D01*
X2363Y739D01*
X2503D01*
Y838D01*
X2334D01*
Y854D01*
X2343D01*
Y863D01*
X2405D01*
Y926D01*
Y997D01*
X2410Y1002D01*
X2412Y1002D01*
X2456Y957D01*
X2461Y954D01*
X2466Y953D01*
X2516D01*
Y941D01*
X2563D01*
Y993D01*
X2516D01*
Y981D01*
X2472D01*
X2419Y1034D01*
X2415Y1036D01*
X2415Y1039D01*
X2416Y1041D01*
X2424D01*
X2442Y1023D01*
X2446Y1020D01*
X2452Y1019D01*
X2516D01*
Y1007D01*
X2563D01*
Y1059D01*
X2516D01*
Y1047D01*
X2457D01*
X2439Y1065D01*
X2435Y1068D01*
X2430Y1069D01*
X2382D01*
X2371Y1079D01*
X2373Y1085D01*
X2378Y1088D01*
X2381Y1093D01*
X2383Y1100D01*
Y1112D01*
X2365D01*
Y1120D01*
X2358D01*
Y1155D01*
X2355Y1153D01*
X2351Y1150D01*
X2346Y1153D01*
X2340Y1155D01*
X2334Y1153D01*
X2329Y1150D01*
X2326D01*
X2321Y1153D01*
X2315Y1155D01*
X2309Y1153D01*
X2304Y1150D01*
X2300Y1153D01*
X2297Y1155D01*
Y1120D01*
X2283D01*
X2282Y1120D01*
Y1155D01*
X2280Y1153D01*
X2275Y1150D01*
X2270Y1153D01*
X2265Y1155D01*
X2259Y1153D01*
X2255Y1151D01*
X2252Y1150D01*
X2249Y1151D01*
X2245Y1153D01*
X2239Y1155D01*
X2234Y1153D01*
X2229Y1150D01*
X2225D01*
X2220Y1153D01*
X2214Y1155D01*
X2208Y1153D01*
X2205Y1151D01*
X2202Y1150D01*
X2198Y1151D01*
X2195Y1153D01*
X2189Y1155D01*
X2183Y1153D01*
X2183Y1153D01*
X2178Y1156D01*
Y1197D01*
X2178Y1197D01*
X2177Y1202D01*
X2174Y1207D01*
X2056Y1324D01*
X2052Y1327D01*
X2047Y1328D01*
X1986D01*
Y1340D01*
X1976D01*
Y1347D01*
X1979D01*
Y1384D01*
X1948D01*
X1944Y1386D01*
D02*
G37*
G36*
X3272Y1198D02*
X3176D01*
Y1166D01*
X3272D01*
Y1198D01*
D02*
G37*
G36*
X2719Y1198D02*
X2713Y1197D01*
X2707Y1193D01*
X2703Y1187D01*
X2702Y1181D01*
X2703Y1175D01*
X2707Y1169D01*
X2713Y1165D01*
X2719Y1164D01*
X2725Y1165D01*
X2731Y1169D01*
X2733Y1173D01*
X2736Y1172D01*
X2739Y1172D01*
X2742Y1167D01*
X2748Y1163D01*
X2754Y1162D01*
X2760Y1163D01*
X2766Y1167D01*
X2770Y1172D01*
X2771Y1179D01*
X2770Y1185D01*
X2766Y1191D01*
X2760Y1194D01*
X2754Y1196D01*
X2748Y1194D01*
X2742Y1191D01*
X2740Y1187D01*
X2737Y1187D01*
X2734Y1188D01*
X2731Y1193D01*
X2725Y1197D01*
X2719Y1198D01*
D02*
G37*
G36*
X2926Y1166D02*
X2917D01*
Y1148D01*
X2926D01*
Y1166D01*
D02*
G37*
G36*
X2902D02*
X2893D01*
Y1148D01*
X2902D01*
Y1166D01*
D02*
G37*
G36*
X2875Y1166D02*
X2866D01*
Y1148D01*
X2875D01*
Y1166D01*
D02*
G37*
G36*
X2851D02*
X2842D01*
Y1148D01*
X2851D01*
Y1166D01*
D02*
G37*
G36*
X2373Y1155D02*
Y1127D01*
X2383D01*
Y1139D01*
X2381Y1146D01*
X2378Y1152D01*
X2373Y1155D01*
D02*
G37*
G36*
X3272Y1151D02*
X3176D01*
Y1119D01*
X3272D01*
Y1151D01*
D02*
G37*
G36*
X2594Y1130D02*
X2573D01*
Y1111D01*
X2594D01*
Y1130D01*
D02*
G37*
G36*
X2559D02*
X2538D01*
Y1111D01*
X2559D01*
Y1130D01*
D02*
G37*
G36*
X2663Y1139D02*
X2656Y1138D01*
X2651Y1134D01*
X2647Y1129D01*
X2646Y1122D01*
X2647Y1116D01*
X2651Y1111D01*
X2656Y1107D01*
X2663Y1106D01*
X2669Y1107D01*
X2674Y1111D01*
X2678Y1116D01*
X2679Y1122D01*
X2678Y1129D01*
X2674Y1134D01*
X2669Y1138D01*
X2663Y1139D01*
D02*
G37*
G36*
X1365Y1169D02*
X1359Y1168D01*
X1353Y1164D01*
X1349Y1158D01*
X1348Y1152D01*
X1349Y1146D01*
X1353Y1140D01*
X1359Y1136D01*
X1362Y1136D01*
X1377Y1121D01*
X1381Y1118D01*
X1383Y1117D01*
Y1102D01*
X1453D01*
Y1159D01*
X1383D01*
X1383Y1159D01*
X1379Y1161D01*
X1377Y1164D01*
X1371Y1168D01*
X1365Y1169D01*
D02*
G37*
G36*
X1647Y1114D02*
Y1084D01*
X1677D01*
Y1114D01*
X1647D01*
D02*
G37*
G36*
X1553D02*
X1523D01*
Y1084D01*
X1553D01*
Y1114D01*
D02*
G37*
G36*
X1677Y1069D02*
X1647D01*
Y1038D01*
X1677D01*
Y1069D01*
D02*
G37*
G36*
X1553D02*
X1523D01*
Y1038D01*
X1553D01*
Y1069D01*
D02*
G37*
G36*
X1602Y1114D02*
X1598D01*
X1597Y1114D01*
X1568D01*
Y1076D01*
Y1038D01*
X1597D01*
X1598Y1038D01*
X1602D01*
X1603Y1038D01*
X1632D01*
Y1076D01*
Y1114D01*
X1603D01*
X1602Y1114D01*
D02*
G37*
G36*
X1279Y1047D02*
X1258D01*
Y1028D01*
X1279D01*
Y1047D01*
D02*
G37*
G36*
X1243D02*
X1223D01*
Y1028D01*
X1243D01*
Y1047D01*
D02*
G37*
G36*
X1834Y1076D02*
X1828Y1075D01*
X1822Y1071D01*
X1818Y1065D01*
X1817Y1059D01*
X1818Y1053D01*
X1822Y1047D01*
X1824Y1046D01*
X1827Y1043D01*
X1825Y1039D01*
X1823D01*
Y1020D01*
X1803D01*
X1800Y1021D01*
X1794Y1020D01*
X1788Y1016D01*
X1784Y1010D01*
X1783Y1004D01*
X1784Y998D01*
X1788Y992D01*
X1794Y988D01*
X1800Y987D01*
X1802Y988D01*
X1823D01*
Y969D01*
X1836D01*
Y949D01*
X1835Y946D01*
X1836Y940D01*
X1840Y934D01*
X1846Y930D01*
X1852Y929D01*
X1858Y930D01*
X1864Y934D01*
X1868Y940D01*
X1869Y946D01*
X1868Y948D01*
Y969D01*
X1881D01*
Y1039D01*
X1868D01*
Y1041D01*
X1867Y1047D01*
X1864Y1052D01*
X1847Y1069D01*
X1846Y1071D01*
X1840Y1075D01*
X1834Y1076D01*
D02*
G37*
G36*
X1115Y1045D02*
X1064D01*
Y1037D01*
X1044D01*
X1038Y1035D01*
X1033Y1032D01*
X1028Y1027D01*
X1026Y1026D01*
X1022Y1020D01*
X1021Y1014D01*
X1022Y1008D01*
X1026Y1002D01*
X1032Y998D01*
X1038Y997D01*
X1044Y998D01*
X1050Y1002D01*
X1051Y1004D01*
X1064D01*
Y996D01*
X1115D01*
Y1045D01*
D02*
G37*
G36*
X1279Y1013D02*
X1258D01*
Y994D01*
X1279D01*
Y1013D01*
D02*
G37*
G36*
X1243D02*
X1223D01*
Y994D01*
X1243D01*
Y1013D01*
D02*
G37*
G36*
X2066Y969D02*
X2046D01*
Y949D01*
X2066D01*
Y969D01*
D02*
G37*
G36*
X2037D02*
X2017D01*
Y949D01*
X2037D01*
Y969D01*
D02*
G37*
G36*
X2002D02*
X1982D01*
Y949D01*
X2002D01*
Y969D01*
D02*
G37*
G36*
X2603Y1103D02*
X2596Y1102D01*
X2591Y1098D01*
X2587Y1092D01*
X2586Y1086D01*
X2586Y1085D01*
Y1059D01*
X2579D01*
Y1007D01*
X2586D01*
Y993D01*
X2579D01*
Y941D01*
X2626D01*
Y993D01*
X2619D01*
Y1007D01*
X2626D01*
Y1059D01*
X2619D01*
Y1082D01*
X2620Y1086D01*
X2618Y1092D01*
X2615Y1098D01*
X2609Y1102D01*
X2603Y1103D01*
D02*
G37*
G36*
X2066Y934D02*
X2046D01*
Y915D01*
X2066D01*
Y934D01*
D02*
G37*
G36*
X2037Y934D02*
X2017D01*
Y915D01*
X2037D01*
Y934D01*
D02*
G37*
G36*
X2002D02*
X1982D01*
Y915D01*
X2002D01*
Y934D01*
D02*
G37*
G36*
X2981Y961D02*
X2907D01*
Y862D01*
X2981D01*
Y892D01*
X3005D01*
X3008Y891D01*
X3014Y892D01*
X3020Y896D01*
X3024Y901D01*
X3025Y908D01*
X3024Y914D01*
X3020Y920D01*
X3014Y923D01*
X3008Y925D01*
X3005Y924D01*
X2981D01*
Y961D01*
D02*
G37*
G36*
X3141Y961D02*
X3067D01*
Y862D01*
X3087D01*
Y854D01*
X3086Y851D01*
X3087Y845D01*
X3091Y839D01*
X3097Y835D01*
X3103Y834D01*
X3109Y835D01*
X3115Y839D01*
X3119Y845D01*
X3120Y851D01*
X3119Y853D01*
Y862D01*
X3141D01*
Y961D01*
D02*
G37*
G36*
X1674Y857D02*
X1667Y855D01*
X1661Y851D01*
X1660Y851D01*
X1656Y844D01*
X1654Y837D01*
Y812D01*
X1650Y810D01*
X1644Y815D01*
Y823D01*
X1642Y830D01*
X1638Y836D01*
X1632Y840D01*
X1625Y842D01*
X1618Y840D01*
X1612Y836D01*
X1608Y830D01*
X1606Y823D01*
Y820D01*
X1518D01*
Y721D01*
Y642D01*
X1570D01*
Y586D01*
X1542D01*
X1503Y625D01*
X1500Y627D01*
Y658D01*
X1360D01*
Y554D01*
X1500D01*
X1506Y547D01*
Y509D01*
X1506Y505D01*
X1506Y501D01*
Y463D01*
X1504Y461D01*
X1500Y458D01*
Y458D01*
X1500Y458D01*
X1360D01*
Y354D01*
X1500D01*
Y384D01*
X1505Y387D01*
X1542Y424D01*
X1570D01*
Y371D01*
X1559D01*
Y271D01*
X1737D01*
Y371D01*
X1697D01*
X1694Y374D01*
X1694Y376D01*
Y386D01*
X1756D01*
Y362D01*
X1762D01*
X1763Y358D01*
X1765Y354D01*
X1801Y318D01*
X1805Y316D01*
X1810Y315D01*
X1810Y315D01*
X1841D01*
X1841Y314D01*
X1847Y310D01*
X1853Y309D01*
X1859Y310D01*
X1865Y314D01*
X1869Y320D01*
X1870Y326D01*
X1869Y332D01*
X1865Y338D01*
X1859Y342D01*
X1853Y343D01*
X1847Y342D01*
X1843Y339D01*
X1815D01*
X1792Y363D01*
Y435D01*
X1756D01*
Y411D01*
X1694D01*
Y426D01*
X1651D01*
X1647Y426D01*
X1646Y430D01*
Y501D01*
X1646Y505D01*
X1646Y509D01*
Y580D01*
X1647Y584D01*
X1650Y584D01*
X1694D01*
Y599D01*
X1756D01*
Y575D01*
X1792D01*
Y648D01*
X1756D01*
X1752Y650D01*
X1750Y654D01*
X1744Y658D01*
X1738Y659D01*
X1732Y658D01*
X1726Y654D01*
X1722Y648D01*
X1721Y642D01*
X1722Y636D01*
X1726Y630D01*
X1728Y629D01*
X1727Y624D01*
X1694D01*
Y636D01*
X1647Y636D01*
X1645Y640D01*
Y650D01*
X1634D01*
Y652D01*
X1633Y659D01*
X1630Y665D01*
X1626Y671D01*
X1618Y679D01*
Y721D01*
Y782D01*
X1622Y784D01*
X1639Y767D01*
Y731D01*
X1708D01*
Y767D01*
X1716Y776D01*
X1721Y774D01*
Y759D01*
X1741D01*
Y778D01*
X1726D01*
X1724Y783D01*
X1747Y807D01*
X1747Y807D01*
X1753Y811D01*
X1757Y817D01*
X1759Y824D01*
X1757Y831D01*
X1753Y837D01*
X1747Y841D01*
X1740Y843D01*
X1738D01*
X1731Y841D01*
X1724Y837D01*
X1697Y810D01*
X1692Y812D01*
Y834D01*
X1693Y838D01*
X1691Y845D01*
X1687Y851D01*
X1681Y855D01*
X1674Y857D01*
D02*
G37*
G36*
X1100Y829D02*
X1082D01*
Y808D01*
X1100D01*
Y829D01*
D02*
G37*
G36*
X3236Y808D02*
X3217D01*
Y788D01*
X3236D01*
Y808D01*
D02*
G37*
G36*
X3202D02*
X3183D01*
Y788D01*
X3202D01*
Y808D01*
D02*
G37*
G36*
X1100Y794D02*
X1082D01*
Y773D01*
X1100D01*
Y794D01*
D02*
G37*
G36*
X1902Y778D02*
X1882D01*
Y759D01*
X1902D01*
Y778D01*
D02*
G37*
G36*
X1839D02*
X1819D01*
Y759D01*
X1839D01*
Y778D01*
D02*
G37*
G36*
X1804D02*
X1784D01*
Y759D01*
X1804D01*
Y778D01*
D02*
G37*
G36*
X1867D02*
X1846D01*
Y759D01*
X1867D01*
Y778D01*
D02*
G37*
G36*
X1777Y778D02*
X1756D01*
Y759D01*
X1777D01*
Y778D01*
D02*
G37*
G36*
X3236Y773D02*
X3217D01*
Y752D01*
X3236D01*
Y773D01*
D02*
G37*
G36*
X3202D02*
X3183D01*
Y752D01*
X3202D01*
Y773D01*
D02*
G37*
G36*
X2824Y839D02*
X2794D01*
Y732D01*
X2824D01*
Y839D01*
D02*
G37*
G36*
X2780Y903D02*
X2774Y902D01*
X2768Y898D01*
X2764Y892D01*
X2764Y889D01*
X2714Y840D01*
X2711Y835D01*
X2710Y830D01*
Y202D01*
X2705Y200D01*
X2703Y203D01*
X2695Y209D01*
X2685Y213D01*
X2675Y215D01*
X2665Y213D01*
X2655Y209D01*
X2647Y203D01*
X2641Y195D01*
X2637Y185D01*
X2635Y175D01*
X2637Y165D01*
X2641Y155D01*
X2647Y147D01*
X2655Y141D01*
X2665Y137D01*
X2675Y135D01*
X2685Y137D01*
X2695Y141D01*
X2703Y147D01*
X2705Y150D01*
X2710Y148D01*
Y102D01*
X2705Y100D01*
X2703Y103D01*
X2695Y109D01*
X2685Y113D01*
X2675Y115D01*
X2665Y113D01*
X2655Y109D01*
X2647Y103D01*
X2641Y95D01*
X2637Y85D01*
X2635Y75D01*
X2637Y65D01*
X2641Y55D01*
X2647Y47D01*
X2655Y41D01*
X2665Y37D01*
X2675Y35D01*
X2685Y37D01*
X2695Y41D01*
X2703Y47D01*
X2705Y50D01*
X2710Y48D01*
Y26D01*
X2696Y12D01*
X2158D01*
X2111Y59D01*
X2113Y65D01*
X2115Y75D01*
X2113Y85D01*
X2109Y95D01*
X2103Y103D01*
X2095Y109D01*
X2085Y113D01*
X2075Y115D01*
X2065Y113D01*
X2055Y109D01*
X2047Y103D01*
X2041Y95D01*
X2037Y85D01*
X2035Y75D01*
X2037Y65D01*
X2041Y55D01*
X2047Y47D01*
X2055Y41D01*
X2065Y37D01*
X2075Y35D01*
X2085Y37D01*
X2091Y39D01*
X2142Y-12D01*
X2142Y-12D01*
X2147Y-15D01*
X2152Y-16D01*
X2688D01*
Y-161D01*
X2689Y-166D01*
X2692Y-171D01*
X2721Y-199D01*
X2725Y-202D01*
X2730Y-203D01*
X2731D01*
X2734Y-207D01*
Y-219D01*
X2793D01*
Y-207D01*
X2791D01*
Y-175D01*
X2791Y-172D01*
X2791Y-167D01*
Y-134D01*
X2736D01*
X2736Y-168D01*
X2732Y-171D01*
X2731Y-171D01*
X2716Y-155D01*
Y-8D01*
X2734Y10D01*
X2737Y15D01*
X2738Y20D01*
Y50D01*
X2743Y52D01*
X2747Y47D01*
X2755Y41D01*
X2765Y37D01*
X2775Y35D01*
X2785Y37D01*
X2795Y41D01*
X2803Y47D01*
X2809Y55D01*
X2813Y65D01*
X2815Y75D01*
X2813Y85D01*
X2811Y91D01*
X2838Y118D01*
X2838Y118D01*
X2841Y123D01*
X2842Y128D01*
Y142D01*
X2847Y144D01*
X2854Y139D01*
X2864Y135D01*
X2867Y134D01*
Y175D01*
Y216D01*
X2864Y215D01*
X2854Y211D01*
X2847Y206D01*
X2842Y208D01*
Y215D01*
X2890Y263D01*
X3001D01*
X3006Y264D01*
X3011Y267D01*
X3121Y377D01*
X3124Y382D01*
X3125Y387D01*
X3124Y392D01*
X3124Y394D01*
X3130Y395D01*
X3135Y390D01*
X3134Y387D01*
X3134D01*
Y335D01*
X3145D01*
Y321D01*
X3142Y317D01*
X3141Y311D01*
X3142Y305D01*
X3146Y299D01*
X3152Y295D01*
X3158Y294D01*
X3164Y295D01*
X3170Y299D01*
X3174Y305D01*
X3175Y311D01*
X3174Y317D01*
X3172Y319D01*
Y335D01*
X3183D01*
Y387D01*
X3172D01*
X3171Y391D01*
X3168Y396D01*
X3145Y419D01*
X3143Y423D01*
Y448D01*
X3107D01*
Y450D01*
X3091D01*
X3075D01*
Y448D01*
X3061D01*
X3059Y448D01*
X3024D01*
Y465D01*
X2975D01*
Y414D01*
X2986D01*
Y401D01*
X2984Y399D01*
X2983Y393D01*
X2984Y387D01*
X2988Y381D01*
X2994Y377D01*
X3000Y376D01*
X3006Y377D01*
X3012Y381D01*
X3016Y387D01*
X3017Y393D01*
X3016Y399D01*
X3013Y403D01*
Y414D01*
X3024D01*
Y421D01*
X3059D01*
X3064Y422D01*
X3066Y423D01*
X3080D01*
Y415D01*
X2987Y322D01*
X2865D01*
X2860Y321D01*
X2856Y318D01*
X2765Y228D01*
X2762Y223D01*
X2761Y218D01*
Y212D01*
X2755Y209D01*
X2747Y203D01*
X2743Y198D01*
X2738Y200D01*
Y824D01*
X2744Y831D01*
X2749Y829D01*
Y732D01*
X2779D01*
Y839D01*
X2759D01*
X2757Y844D01*
X2783Y870D01*
X2786Y870D01*
X2792Y874D01*
X2796Y880D01*
X2797Y886D01*
X2796Y892D01*
X2792Y898D01*
X2786Y902D01*
X2780Y903D01*
D02*
G37*
G36*
X1902Y744D02*
X1882D01*
Y725D01*
X1902D01*
Y744D01*
D02*
G37*
G36*
X1867D02*
X1846D01*
Y725D01*
X1867D01*
Y744D01*
D02*
G37*
G36*
X1839D02*
X1819D01*
Y725D01*
X1839D01*
Y744D01*
D02*
G37*
G36*
X1804D02*
X1784D01*
Y725D01*
X1804D01*
Y744D01*
D02*
G37*
G36*
X1777Y744D02*
X1756D01*
Y725D01*
X1777D01*
Y744D01*
D02*
G37*
G36*
X1741D02*
X1721D01*
Y725D01*
X1741D01*
Y744D01*
D02*
G37*
G36*
X3027Y837D02*
X2956D01*
Y613D01*
X2958D01*
Y548D01*
X2959Y540D01*
X2960Y536D01*
Y507D01*
X3018D01*
Y536D01*
X3019Y540D01*
X3020Y548D01*
Y613D01*
X3027D01*
Y759D01*
X3041Y773D01*
X3105D01*
X3118Y761D01*
Y752D01*
X3119Y743D01*
X3125Y736D01*
X3126Y735D01*
X3127Y730D01*
X3122Y725D01*
X3121Y724D01*
X3116Y723D01*
X3115Y723D01*
X3104Y734D01*
X3104Y735D01*
X3103Y741D01*
X3099Y747D01*
X3093Y751D01*
X3087Y752D01*
X3081Y751D01*
X3075Y747D01*
X3075Y747D01*
X3069D01*
X3068Y748D01*
X3062Y752D01*
X3056Y753D01*
X3050Y752D01*
X3044Y748D01*
X3040Y743D01*
X3039Y736D01*
X3040Y730D01*
X3044Y724D01*
X3050Y721D01*
X3056Y719D01*
X3056Y719D01*
X3063Y712D01*
X3061Y708D01*
X3055D01*
Y696D01*
X3071D01*
Y691D01*
X3076D01*
Y675D01*
X3088D01*
Y679D01*
X3153D01*
Y675D01*
X3165D01*
Y691D01*
Y708D01*
X3153D01*
Y704D01*
X3142D01*
Y713D01*
X3149Y721D01*
X3149Y721D01*
X3152Y724D01*
X3153Y729D01*
Y732D01*
X3158Y736D01*
X3164Y743D01*
X3165Y752D01*
Y754D01*
X3171D01*
Y806D01*
X3140D01*
X3132Y814D01*
X3124Y819D01*
X3115Y821D01*
X3115Y821D01*
X3031D01*
X3031Y821D01*
X3027Y824D01*
Y837D01*
D02*
G37*
G36*
X3245Y708D02*
X3234D01*
Y696D01*
X3245D01*
Y708D01*
D02*
G37*
G36*
Y686D02*
X3234D01*
Y675D01*
X3245D01*
Y686D01*
D02*
G37*
G36*
X3224Y708D02*
X3214D01*
Y691D01*
Y675D01*
X3224D01*
Y691D01*
Y708D01*
D02*
G37*
G36*
X3204D02*
X3194D01*
Y691D01*
Y675D01*
X3204D01*
Y691D01*
Y708D01*
D02*
G37*
G36*
X3184D02*
X3175D01*
Y691D01*
Y675D01*
X3184D01*
Y691D01*
Y708D01*
D02*
G37*
G36*
X3066Y686D02*
X3055D01*
Y675D01*
X3066D01*
Y686D01*
D02*
G37*
G36*
X2779Y717D02*
X2749D01*
Y611D01*
X2779D01*
Y717D01*
D02*
G37*
G36*
X3333Y617D02*
X3327Y616D01*
X3321Y612D01*
X3318Y607D01*
X3316Y600D01*
X3318Y594D01*
X3319Y591D01*
Y576D01*
X3307D01*
Y559D01*
X3228D01*
X3223Y558D01*
X3218Y555D01*
X3211Y548D01*
X3182D01*
Y566D01*
X3157D01*
Y522D01*
X3175D01*
X3176Y521D01*
X3181Y520D01*
X3217D01*
X3222Y521D01*
X3227Y524D01*
X3234Y531D01*
X3307D01*
Y527D01*
X3359D01*
Y576D01*
X3347D01*
Y591D01*
X3349Y594D01*
X3350Y600D01*
X3349Y607D01*
X3345Y612D01*
X3340Y616D01*
X3333Y617D01*
D02*
G37*
G36*
X3127Y550D02*
X3116D01*
Y539D01*
X3127D01*
Y550D01*
D02*
G37*
G36*
X3106D02*
X3094D01*
Y539D01*
X3106D01*
Y550D01*
D02*
G37*
G36*
X3127Y529D02*
X3116D01*
Y518D01*
X3127D01*
Y529D01*
D02*
G37*
G36*
X3106D02*
X3094D01*
Y518D01*
X3106D01*
Y529D01*
D02*
G37*
G36*
X1488Y546D02*
X1438D01*
Y513D01*
X1488D01*
Y546D01*
D02*
G37*
G36*
X1423D02*
X1372D01*
Y513D01*
X1423D01*
Y546D01*
D02*
G37*
G36*
X3361Y515D02*
X3341D01*
Y496D01*
X3361D01*
Y515D01*
D02*
G37*
G36*
X3326D02*
X3305D01*
Y496D01*
X3326D01*
Y515D01*
D02*
G37*
G36*
X1012Y544D02*
X900D01*
Y468D01*
X1012D01*
Y544D01*
D02*
G37*
G36*
X1488Y498D02*
X1438D01*
Y466D01*
X1488D01*
Y498D01*
D02*
G37*
G36*
X1423D02*
X1372D01*
Y466D01*
X1423D01*
Y498D01*
D02*
G37*
G36*
X3361Y481D02*
X3341D01*
Y462D01*
X3361D01*
Y481D01*
D02*
G37*
G36*
X3326D02*
X3305D01*
Y462D01*
X3326D01*
Y481D01*
D02*
G37*
G36*
X3107Y472D02*
X3096D01*
Y460D01*
X3107D01*
Y472D01*
D02*
G37*
G36*
X3086D02*
X3075D01*
Y460D01*
X3086D01*
Y472D01*
D02*
G37*
G36*
X3225D02*
X3214D01*
Y455D01*
X3204D01*
Y472D01*
X3193D01*
Y452D01*
X3175D01*
Y436D01*
Y419D01*
X3184D01*
Y436D01*
X3194D01*
Y419D01*
X3204D01*
Y436D01*
X3214D01*
Y419D01*
X3224D01*
Y436D01*
X3229D01*
Y441D01*
X3245D01*
Y452D01*
X3225D01*
Y472D01*
D02*
G37*
G36*
X2963Y467D02*
X2944D01*
Y447D01*
X2963D01*
Y467D01*
D02*
G37*
G36*
X3165Y452D02*
X3153D01*
Y441D01*
X3165D01*
Y452D01*
D02*
G37*
G36*
X1951Y480D02*
X1945Y479D01*
X1939Y475D01*
X1935Y469D01*
X1934Y464D01*
X1915Y445D01*
X1913Y441D01*
X1912Y436D01*
Y435D01*
X1906D01*
Y362D01*
X1942D01*
Y435D01*
X1942Y435D01*
X1942D01*
X1945Y439D01*
X1952Y446D01*
X1957Y447D01*
X1963Y451D01*
X1967Y457D01*
X1968Y463D01*
X1967Y469D01*
X1963Y475D01*
X1957Y479D01*
X1951Y480D01*
D02*
G37*
G36*
X3245Y431D02*
X3234D01*
Y419D01*
X3245D01*
Y431D01*
D02*
G37*
G36*
X3165D02*
X3153D01*
Y419D01*
X3165D01*
Y431D01*
D02*
G37*
G36*
X1013Y446D02*
X963D01*
Y414D01*
X1013D01*
Y446D01*
D02*
G37*
G36*
X948D02*
X897D01*
Y414D01*
X948D01*
Y446D01*
D02*
G37*
G36*
X2963Y432D02*
X2944D01*
Y412D01*
X2963D01*
Y432D01*
D02*
G37*
G36*
X2824Y717D02*
X2794D01*
Y611D01*
X2817D01*
Y565D01*
X2816Y560D01*
X2815Y548D01*
Y526D01*
X2812Y524D01*
X2805Y515D01*
X2799Y504D01*
X2796Y493D01*
X2795Y481D01*
Y477D01*
X2796Y465D01*
X2799Y454D01*
X2805Y444D01*
X2812Y434D01*
X2822Y427D01*
X2832Y421D01*
X2843Y418D01*
X2855Y417D01*
X2867Y418D01*
X2878Y421D01*
X2888Y427D01*
X2898Y434D01*
X2905Y443D01*
X2906Y443D01*
X2910Y442D01*
Y412D01*
X2929D01*
Y439D01*
Y470D01*
X2927Y472D01*
X2930Y478D01*
X2933D01*
Y484D01*
X2934Y489D01*
X2935Y501D01*
Y548D01*
X2934Y560D01*
X2933Y565D01*
Y618D01*
X2824D01*
Y717D01*
D02*
G37*
G36*
X1844Y437D02*
X1832D01*
Y406D01*
X1844D01*
Y437D01*
D02*
G37*
G36*
X1816D02*
X1804D01*
Y406D01*
X1816D01*
Y437D01*
D02*
G37*
G36*
X3248Y389D02*
X3229D01*
Y368D01*
X3248D01*
Y389D01*
D02*
G37*
G36*
X3214D02*
X3195D01*
Y368D01*
X3214D01*
Y389D01*
D02*
G37*
G36*
X1013Y398D02*
X963D01*
Y366D01*
X1013D01*
Y398D01*
D02*
G37*
G36*
X948D02*
X897D01*
Y366D01*
X948D01*
Y398D01*
D02*
G37*
G36*
X1708Y717D02*
X1639D01*
Y660D01*
X1708D01*
Y675D01*
X1723D01*
Y664D01*
X1775D01*
Y675D01*
X1786D01*
Y664D01*
X1797D01*
Y659D01*
X1798Y654D01*
X1801Y649D01*
X1806Y644D01*
Y575D01*
X1817D01*
X1860Y531D01*
Y435D01*
X1856D01*
Y362D01*
X1892D01*
Y435D01*
X1888D01*
Y537D01*
X1888Y537D01*
X1887Y542D01*
X1884Y547D01*
X1861Y570D01*
X1863Y575D01*
X1892D01*
Y648D01*
X1888D01*
Y664D01*
X1900D01*
Y713D01*
X1848D01*
Y664D01*
X1860D01*
Y648D01*
X1856D01*
Y581D01*
X1851Y579D01*
X1842Y589D01*
Y648D01*
X1837D01*
X1837Y651D01*
X1834Y656D01*
X1830Y659D01*
X1832Y664D01*
X1837D01*
Y713D01*
X1786D01*
Y702D01*
X1775D01*
Y713D01*
X1723D01*
Y702D01*
X1708D01*
Y717D01*
D02*
G37*
G36*
X1844Y391D02*
X1832D01*
Y360D01*
X1844D01*
Y391D01*
D02*
G37*
G36*
X1816D02*
X1804D01*
Y360D01*
X1816D01*
Y391D01*
D02*
G37*
G36*
X3248Y354D02*
X3229D01*
Y333D01*
X3248D01*
Y354D01*
D02*
G37*
G36*
X3214D02*
X3195D01*
Y333D01*
X3214D01*
Y354D01*
D02*
G37*
G36*
X2982Y217D02*
Y183D01*
X3016D01*
X3015Y187D01*
X3011Y197D01*
X3005Y206D01*
X2996Y212D01*
X2986Y216D01*
X2982Y217D01*
D02*
G37*
G36*
X2967D02*
X2964Y216D01*
X2954Y212D01*
X2945Y206D01*
X2939Y197D01*
X2935Y187D01*
X2934Y183D01*
X2967D01*
Y217D01*
D02*
G37*
G36*
X2882Y216D02*
Y183D01*
X2916D01*
X2915Y186D01*
X2911Y196D01*
X2905Y205D01*
X2896Y211D01*
X2886Y215D01*
X2882Y216D01*
D02*
G37*
G36*
X782D02*
Y183D01*
X816D01*
X815Y186D01*
X811Y196D01*
X805Y205D01*
X796Y211D01*
X786Y215D01*
X782Y216D01*
D02*
G37*
G36*
X767D02*
X764Y215D01*
X754Y211D01*
X745Y205D01*
X739Y196D01*
X735Y186D01*
X734Y183D01*
X767D01*
Y216D01*
D02*
G37*
G36*
X2575Y215D02*
X2565Y213D01*
X2555Y209D01*
X2547Y203D01*
X2541Y195D01*
X2537Y185D01*
X2535Y175D01*
X2537Y165D01*
X2541Y155D01*
X2547Y147D01*
X2555Y141D01*
X2565Y137D01*
X2575Y135D01*
X2585Y137D01*
X2595Y141D01*
X2603Y147D01*
X2609Y155D01*
X2613Y165D01*
X2615Y175D01*
X2613Y185D01*
X2609Y195D01*
X2603Y203D01*
X2595Y209D01*
X2585Y213D01*
X2575Y215D01*
D02*
G37*
G36*
X2475D02*
X2465Y213D01*
X2455Y209D01*
X2447Y203D01*
X2441Y195D01*
X2437Y185D01*
X2435Y175D01*
X2437Y165D01*
X2441Y155D01*
X2447Y147D01*
X2455Y141D01*
X2465Y137D01*
X2475Y135D01*
X2485Y137D01*
X2495Y141D01*
X2503Y147D01*
X2509Y155D01*
X2513Y165D01*
X2515Y175D01*
X2513Y185D01*
X2509Y195D01*
X2503Y203D01*
X2495Y209D01*
X2485Y213D01*
X2475Y215D01*
D02*
G37*
G36*
X2375D02*
X2365Y213D01*
X2355Y209D01*
X2347Y203D01*
X2341Y195D01*
X2337Y185D01*
X2335Y175D01*
X2337Y165D01*
X2341Y155D01*
X2347Y147D01*
X2355Y141D01*
X2365Y137D01*
X2375Y135D01*
X2385Y137D01*
X2395Y141D01*
X2403Y147D01*
X2409Y155D01*
X2413Y165D01*
X2415Y175D01*
X2413Y185D01*
X2409Y195D01*
X2403Y203D01*
X2395Y209D01*
X2385Y213D01*
X2375Y215D01*
D02*
G37*
G36*
X2275D02*
X2265Y213D01*
X2255Y209D01*
X2247Y203D01*
X2241Y195D01*
X2237Y185D01*
X2235Y175D01*
X2237Y165D01*
X2241Y155D01*
X2247Y147D01*
X2255Y141D01*
X2265Y137D01*
X2275Y135D01*
X2285Y137D01*
X2295Y141D01*
X2303Y147D01*
X2309Y155D01*
X2313Y165D01*
X2315Y175D01*
X2313Y185D01*
X2309Y195D01*
X2303Y203D01*
X2295Y209D01*
X2285Y213D01*
X2275Y215D01*
D02*
G37*
G36*
X2175D02*
X2165Y213D01*
X2155Y209D01*
X2147Y203D01*
X2141Y195D01*
X2137Y185D01*
X2135Y175D01*
X2137Y165D01*
X2141Y155D01*
X2147Y147D01*
X2155Y141D01*
X2165Y137D01*
X2175Y135D01*
X2185Y137D01*
X2195Y141D01*
X2203Y147D01*
X2209Y155D01*
X2213Y165D01*
X2215Y175D01*
X2213Y185D01*
X2209Y195D01*
X2203Y203D01*
X2195Y209D01*
X2185Y213D01*
X2175Y215D01*
D02*
G37*
G36*
X2075D02*
X2065Y213D01*
X2055Y209D01*
X2047Y203D01*
X2041Y195D01*
X2037Y185D01*
X2035Y175D01*
X2037Y165D01*
X2041Y155D01*
X2047Y147D01*
X2055Y141D01*
X2065Y137D01*
X2075Y135D01*
X2085Y137D01*
X2095Y141D01*
X2103Y147D01*
X2109Y155D01*
X2113Y165D01*
X2115Y175D01*
X2113Y185D01*
X2109Y195D01*
X2103Y203D01*
X2095Y209D01*
X2085Y213D01*
X2075Y215D01*
D02*
G37*
G36*
X1975D02*
X1965Y213D01*
X1955Y209D01*
X1947Y203D01*
X1941Y195D01*
X1937Y185D01*
X1935Y175D01*
X1937Y165D01*
X1941Y155D01*
X1947Y147D01*
X1955Y141D01*
X1965Y137D01*
X1975Y135D01*
X1985Y137D01*
X1995Y141D01*
X2003Y147D01*
X2009Y155D01*
X2013Y165D01*
X2015Y175D01*
X2013Y185D01*
X2009Y195D01*
X2003Y203D01*
X1995Y209D01*
X1985Y213D01*
X1975Y215D01*
D02*
G37*
G36*
X1875D02*
X1865Y213D01*
X1855Y209D01*
X1847Y203D01*
X1841Y195D01*
X1837Y185D01*
X1835Y175D01*
X1837Y165D01*
X1841Y155D01*
X1847Y147D01*
X1855Y141D01*
X1865Y137D01*
X1875Y135D01*
X1885Y137D01*
X1895Y141D01*
X1903Y147D01*
X1909Y155D01*
X1913Y165D01*
X1915Y175D01*
X1913Y185D01*
X1909Y195D01*
X1903Y203D01*
X1895Y209D01*
X1885Y213D01*
X1875Y215D01*
D02*
G37*
G36*
X1775D02*
X1765Y213D01*
X1755Y209D01*
X1747Y203D01*
X1741Y195D01*
X1737Y185D01*
X1735Y175D01*
X1737Y165D01*
X1741Y155D01*
X1747Y147D01*
X1755Y141D01*
X1765Y137D01*
X1775Y135D01*
X1785Y137D01*
X1795Y141D01*
X1803Y147D01*
X1809Y155D01*
X1813Y165D01*
X1815Y175D01*
X1813Y185D01*
X1809Y195D01*
X1803Y203D01*
X1795Y209D01*
X1785Y213D01*
X1775Y215D01*
D02*
G37*
G36*
X1675D02*
X1665Y213D01*
X1655Y209D01*
X1647Y203D01*
X1641Y195D01*
X1637Y185D01*
X1635Y175D01*
X1637Y165D01*
X1641Y155D01*
X1647Y147D01*
X1655Y141D01*
X1665Y137D01*
X1675Y135D01*
X1685Y137D01*
X1695Y141D01*
X1703Y147D01*
X1709Y155D01*
X1713Y165D01*
X1715Y175D01*
X1713Y185D01*
X1709Y195D01*
X1703Y203D01*
X1695Y209D01*
X1685Y213D01*
X1675Y215D01*
D02*
G37*
G36*
X1575D02*
X1565Y213D01*
X1555Y209D01*
X1547Y203D01*
X1541Y195D01*
X1537Y185D01*
X1535Y175D01*
X1537Y165D01*
X1541Y155D01*
X1547Y147D01*
X1555Y141D01*
X1565Y137D01*
X1575Y135D01*
X1585Y137D01*
X1595Y141D01*
X1603Y147D01*
X1609Y155D01*
X1613Y165D01*
X1615Y175D01*
X1613Y185D01*
X1609Y195D01*
X1603Y203D01*
X1595Y209D01*
X1585Y213D01*
X1575Y215D01*
D02*
G37*
G36*
X1475D02*
X1465Y213D01*
X1455Y209D01*
X1447Y203D01*
X1441Y195D01*
X1437Y185D01*
X1435Y175D01*
X1437Y165D01*
X1441Y155D01*
X1447Y147D01*
X1455Y141D01*
X1465Y137D01*
X1475Y135D01*
X1485Y137D01*
X1495Y141D01*
X1503Y147D01*
X1509Y155D01*
X1513Y165D01*
X1515Y175D01*
X1513Y185D01*
X1509Y195D01*
X1503Y203D01*
X1495Y209D01*
X1485Y213D01*
X1475Y215D01*
D02*
G37*
G36*
X1375D02*
X1365Y213D01*
X1355Y209D01*
X1347Y203D01*
X1341Y195D01*
X1337Y185D01*
X1335Y175D01*
X1337Y165D01*
X1341Y155D01*
X1347Y147D01*
X1355Y141D01*
X1365Y137D01*
X1375Y135D01*
X1385Y137D01*
X1395Y141D01*
X1403Y147D01*
X1409Y155D01*
X1413Y165D01*
X1415Y175D01*
X1413Y185D01*
X1409Y195D01*
X1403Y203D01*
X1395Y209D01*
X1385Y213D01*
X1375Y215D01*
D02*
G37*
G36*
X1275D02*
X1265Y213D01*
X1255Y209D01*
X1247Y203D01*
X1241Y195D01*
X1237Y185D01*
X1235Y175D01*
X1237Y165D01*
X1241Y155D01*
X1247Y147D01*
X1255Y141D01*
X1265Y137D01*
X1275Y135D01*
X1285Y137D01*
X1295Y141D01*
X1303Y147D01*
X1309Y155D01*
X1313Y165D01*
X1315Y175D01*
X1313Y185D01*
X1309Y195D01*
X1303Y203D01*
X1295Y209D01*
X1285Y213D01*
X1275Y215D01*
D02*
G37*
G36*
X1175D02*
X1165Y213D01*
X1155Y209D01*
X1147Y203D01*
X1141Y195D01*
X1137Y185D01*
X1135Y175D01*
X1137Y165D01*
X1141Y155D01*
X1147Y147D01*
X1155Y141D01*
X1165Y137D01*
X1175Y135D01*
X1185Y137D01*
X1195Y141D01*
X1203Y147D01*
X1209Y155D01*
X1213Y165D01*
X1215Y175D01*
X1213Y185D01*
X1209Y195D01*
X1203Y203D01*
X1195Y209D01*
X1185Y213D01*
X1175Y215D01*
D02*
G37*
G36*
X1075D02*
X1065Y213D01*
X1055Y209D01*
X1047Y203D01*
X1041Y195D01*
X1037Y185D01*
X1035Y175D01*
X1037Y165D01*
X1041Y155D01*
X1047Y147D01*
X1055Y141D01*
X1065Y137D01*
X1075Y135D01*
X1085Y137D01*
X1095Y141D01*
X1103Y147D01*
X1109Y155D01*
X1113Y165D01*
X1115Y175D01*
X1113Y185D01*
X1109Y195D01*
X1103Y203D01*
X1095Y209D01*
X1085Y213D01*
X1075Y215D01*
D02*
G37*
G36*
X975D02*
X965Y213D01*
X955Y209D01*
X947Y203D01*
X941Y195D01*
X937Y185D01*
X935Y175D01*
X937Y165D01*
X941Y155D01*
X947Y147D01*
X955Y141D01*
X965Y137D01*
X975Y135D01*
X985Y137D01*
X995Y141D01*
X1003Y147D01*
X1009Y155D01*
X1013Y165D01*
X1015Y175D01*
X1013Y185D01*
X1009Y195D01*
X1003Y203D01*
X995Y209D01*
X985Y213D01*
X975Y215D01*
D02*
G37*
G36*
X875D02*
X865Y213D01*
X855Y209D01*
X847Y203D01*
X841Y195D01*
X837Y185D01*
X835Y175D01*
X837Y165D01*
X841Y155D01*
X847Y147D01*
X855Y141D01*
X865Y137D01*
X875Y135D01*
X885Y137D01*
X895Y141D01*
X903Y147D01*
X909Y155D01*
X913Y165D01*
X915Y175D01*
X913Y185D01*
X909Y195D01*
X903Y203D01*
X895Y209D01*
X885Y213D01*
X875Y215D01*
D02*
G37*
G36*
X2967Y168D02*
X2934D01*
X2935Y165D01*
X2939Y155D01*
X2945Y146D01*
X2954Y140D01*
X2964Y136D01*
X2967Y135D01*
Y168D01*
D02*
G37*
G36*
X3016D02*
X2982D01*
Y135D01*
X2986Y136D01*
X2996Y140D01*
X3005Y146D01*
X3011Y155D01*
X3015Y165D01*
X3016Y168D01*
D02*
G37*
G36*
X767Y168D02*
X734D01*
X735Y164D01*
X739Y154D01*
X745Y145D01*
X754Y139D01*
X764Y135D01*
X767Y134D01*
Y168D01*
D02*
G37*
G36*
X2916D02*
X2882D01*
Y134D01*
X2886Y135D01*
X2896Y139D01*
X2905Y145D01*
X2911Y154D01*
X2915Y164D01*
X2916Y168D01*
D02*
G37*
G36*
X816D02*
X782D01*
Y134D01*
X786Y135D01*
X796Y139D01*
X805Y145D01*
X811Y154D01*
X815Y164D01*
X816Y168D01*
D02*
G37*
G36*
X2882Y116D02*
Y83D01*
X2916D01*
X2915Y86D01*
X2911Y96D01*
X2905Y105D01*
X2896Y111D01*
X2886Y115D01*
X2882Y116D01*
D02*
G37*
G36*
X2982D02*
Y83D01*
X3016D01*
X3015Y86D01*
X3011Y96D01*
X3005Y105D01*
X2996Y111D01*
X2986Y115D01*
X2982Y116D01*
D02*
G37*
G36*
X782D02*
Y83D01*
X816D01*
X815Y86D01*
X811Y96D01*
X805Y105D01*
X796Y111D01*
X786Y115D01*
X782Y116D01*
D02*
G37*
G36*
X2967D02*
X2964Y115D01*
X2954Y111D01*
X2945Y105D01*
X2939Y96D01*
X2935Y86D01*
X2934Y83D01*
X2967D01*
Y116D01*
D02*
G37*
G36*
X767D02*
X764Y115D01*
X754Y111D01*
X745Y105D01*
X739Y96D01*
X735Y86D01*
X734Y83D01*
X767D01*
Y116D01*
D02*
G37*
G36*
X2867D02*
X2864Y115D01*
X2854Y111D01*
X2845Y105D01*
X2839Y96D01*
X2835Y86D01*
X2834Y83D01*
X2867D01*
Y116D01*
D02*
G37*
G36*
X2575Y115D02*
X2565Y113D01*
X2555Y109D01*
X2547Y103D01*
X2541Y95D01*
X2537Y85D01*
X2535Y75D01*
X2537Y65D01*
X2541Y55D01*
X2547Y47D01*
X2555Y41D01*
X2565Y37D01*
X2575Y35D01*
X2585Y37D01*
X2595Y41D01*
X2603Y47D01*
X2609Y55D01*
X2613Y65D01*
X2615Y75D01*
X2613Y85D01*
X2609Y95D01*
X2603Y103D01*
X2595Y109D01*
X2585Y113D01*
X2575Y115D01*
D02*
G37*
G36*
X2475D02*
X2465Y113D01*
X2455Y109D01*
X2447Y103D01*
X2441Y95D01*
X2437Y85D01*
X2435Y75D01*
X2437Y65D01*
X2441Y55D01*
X2447Y47D01*
X2455Y41D01*
X2465Y37D01*
X2475Y35D01*
X2485Y37D01*
X2495Y41D01*
X2503Y47D01*
X2509Y55D01*
X2513Y65D01*
X2515Y75D01*
X2513Y85D01*
X2509Y95D01*
X2503Y103D01*
X2495Y109D01*
X2485Y113D01*
X2475Y115D01*
D02*
G37*
G36*
X2375D02*
X2365Y113D01*
X2355Y109D01*
X2347Y103D01*
X2341Y95D01*
X2337Y85D01*
X2335Y75D01*
X2337Y65D01*
X2341Y55D01*
X2347Y47D01*
X2355Y41D01*
X2365Y37D01*
X2375Y35D01*
X2385Y37D01*
X2395Y41D01*
X2403Y47D01*
X2409Y55D01*
X2413Y65D01*
X2415Y75D01*
X2413Y85D01*
X2409Y95D01*
X2403Y103D01*
X2395Y109D01*
X2385Y113D01*
X2375Y115D01*
D02*
G37*
G36*
X2275D02*
X2265Y113D01*
X2255Y109D01*
X2247Y103D01*
X2241Y95D01*
X2237Y85D01*
X2235Y75D01*
X2237Y65D01*
X2241Y55D01*
X2247Y47D01*
X2255Y41D01*
X2265Y37D01*
X2275Y35D01*
X2285Y37D01*
X2295Y41D01*
X2303Y47D01*
X2309Y55D01*
X2313Y65D01*
X2315Y75D01*
X2313Y85D01*
X2309Y95D01*
X2303Y103D01*
X2295Y109D01*
X2285Y113D01*
X2275Y115D01*
D02*
G37*
G36*
X2175D02*
X2165Y113D01*
X2155Y109D01*
X2147Y103D01*
X2141Y95D01*
X2137Y85D01*
X2135Y75D01*
X2137Y65D01*
X2141Y55D01*
X2147Y47D01*
X2155Y41D01*
X2165Y37D01*
X2175Y35D01*
X2185Y37D01*
X2195Y41D01*
X2203Y47D01*
X2209Y55D01*
X2213Y65D01*
X2215Y75D01*
X2213Y85D01*
X2209Y95D01*
X2203Y103D01*
X2195Y109D01*
X2185Y113D01*
X2175Y115D01*
D02*
G37*
G36*
X1975D02*
X1965Y113D01*
X1955Y109D01*
X1947Y103D01*
X1941Y95D01*
X1937Y85D01*
X1935Y75D01*
X1937Y65D01*
X1941Y55D01*
X1947Y47D01*
X1955Y41D01*
X1965Y37D01*
X1975Y35D01*
X1985Y37D01*
X1995Y41D01*
X2003Y47D01*
X2009Y55D01*
X2013Y65D01*
X2015Y75D01*
X2013Y85D01*
X2009Y95D01*
X2003Y103D01*
X1995Y109D01*
X1985Y113D01*
X1975Y115D01*
D02*
G37*
G36*
X1875D02*
X1865Y113D01*
X1855Y109D01*
X1847Y103D01*
X1841Y95D01*
X1837Y85D01*
X1835Y75D01*
X1837Y65D01*
X1841Y55D01*
X1847Y47D01*
X1855Y41D01*
X1865Y37D01*
X1875Y35D01*
X1885Y37D01*
X1895Y41D01*
X1903Y47D01*
X1909Y55D01*
X1913Y65D01*
X1915Y75D01*
X1913Y85D01*
X1909Y95D01*
X1903Y103D01*
X1895Y109D01*
X1885Y113D01*
X1875Y115D01*
D02*
G37*
G36*
X1775D02*
X1765Y113D01*
X1755Y109D01*
X1747Y103D01*
X1741Y95D01*
X1737Y85D01*
X1735Y75D01*
X1737Y65D01*
X1741Y55D01*
X1747Y47D01*
X1755Y41D01*
X1765Y37D01*
X1775Y35D01*
X1785Y37D01*
X1795Y41D01*
X1803Y47D01*
X1809Y55D01*
X1813Y65D01*
X1815Y75D01*
X1813Y85D01*
X1809Y95D01*
X1803Y103D01*
X1795Y109D01*
X1785Y113D01*
X1775Y115D01*
D02*
G37*
G36*
X1675D02*
X1665Y113D01*
X1655Y109D01*
X1647Y103D01*
X1641Y95D01*
X1637Y85D01*
X1635Y75D01*
X1637Y65D01*
X1641Y55D01*
X1647Y47D01*
X1655Y41D01*
X1665Y37D01*
X1675Y35D01*
X1685Y37D01*
X1695Y41D01*
X1703Y47D01*
X1709Y55D01*
X1713Y65D01*
X1715Y75D01*
X1713Y85D01*
X1709Y95D01*
X1703Y103D01*
X1695Y109D01*
X1685Y113D01*
X1675Y115D01*
D02*
G37*
G36*
X1575D02*
X1565Y113D01*
X1555Y109D01*
X1547Y103D01*
X1541Y95D01*
X1537Y85D01*
X1535Y75D01*
X1537Y65D01*
X1541Y55D01*
X1547Y47D01*
X1555Y41D01*
X1565Y37D01*
X1575Y35D01*
X1585Y37D01*
X1595Y41D01*
X1603Y47D01*
X1609Y55D01*
X1613Y65D01*
X1615Y75D01*
X1613Y85D01*
X1609Y95D01*
X1603Y103D01*
X1595Y109D01*
X1585Y113D01*
X1575Y115D01*
D02*
G37*
G36*
X1475D02*
X1465Y113D01*
X1455Y109D01*
X1447Y103D01*
X1441Y95D01*
X1437Y85D01*
X1435Y75D01*
X1437Y65D01*
X1441Y55D01*
X1447Y47D01*
X1455Y41D01*
X1465Y37D01*
X1475Y35D01*
X1485Y37D01*
X1495Y41D01*
X1503Y47D01*
X1509Y55D01*
X1513Y65D01*
X1515Y75D01*
X1513Y85D01*
X1509Y95D01*
X1503Y103D01*
X1495Y109D01*
X1485Y113D01*
X1475Y115D01*
D02*
G37*
G36*
X1375D02*
X1365Y113D01*
X1355Y109D01*
X1347Y103D01*
X1341Y95D01*
X1337Y85D01*
X1335Y75D01*
X1337Y65D01*
X1341Y55D01*
X1347Y47D01*
X1355Y41D01*
X1365Y37D01*
X1375Y35D01*
X1385Y37D01*
X1395Y41D01*
X1403Y47D01*
X1409Y55D01*
X1413Y65D01*
X1415Y75D01*
X1413Y85D01*
X1409Y95D01*
X1403Y103D01*
X1395Y109D01*
X1385Y113D01*
X1375Y115D01*
D02*
G37*
G36*
X1275D02*
X1265Y113D01*
X1255Y109D01*
X1247Y103D01*
X1241Y95D01*
X1237Y85D01*
X1235Y75D01*
X1237Y65D01*
X1241Y55D01*
X1247Y47D01*
X1255Y41D01*
X1265Y37D01*
X1275Y35D01*
X1285Y37D01*
X1295Y41D01*
X1303Y47D01*
X1309Y55D01*
X1313Y65D01*
X1315Y75D01*
X1313Y85D01*
X1309Y95D01*
X1303Y103D01*
X1295Y109D01*
X1285Y113D01*
X1275Y115D01*
D02*
G37*
G36*
X1175D02*
X1165Y113D01*
X1155Y109D01*
X1147Y103D01*
X1141Y95D01*
X1137Y85D01*
X1135Y75D01*
X1137Y65D01*
X1141Y55D01*
X1147Y47D01*
X1155Y41D01*
X1165Y37D01*
X1175Y35D01*
X1185Y37D01*
X1195Y41D01*
X1203Y47D01*
X1209Y55D01*
X1213Y65D01*
X1215Y75D01*
X1213Y85D01*
X1209Y95D01*
X1203Y103D01*
X1195Y109D01*
X1185Y113D01*
X1175Y115D01*
D02*
G37*
G36*
X1075D02*
X1065Y113D01*
X1055Y109D01*
X1047Y103D01*
X1041Y95D01*
X1037Y85D01*
X1035Y75D01*
X1037Y65D01*
X1041Y55D01*
X1047Y47D01*
X1055Y41D01*
X1065Y37D01*
X1075Y35D01*
X1085Y37D01*
X1095Y41D01*
X1103Y47D01*
X1109Y55D01*
X1113Y65D01*
X1115Y75D01*
X1113Y85D01*
X1109Y95D01*
X1103Y103D01*
X1095Y109D01*
X1085Y113D01*
X1075Y115D01*
D02*
G37*
G36*
X975D02*
X965Y113D01*
X955Y109D01*
X947Y103D01*
X941Y95D01*
X937Y85D01*
X935Y75D01*
X937Y65D01*
X941Y55D01*
X947Y47D01*
X955Y41D01*
X965Y37D01*
X975Y35D01*
X985Y37D01*
X995Y41D01*
X1003Y47D01*
X1009Y55D01*
X1013Y65D01*
X1015Y75D01*
X1013Y85D01*
X1009Y95D01*
X1003Y103D01*
X995Y109D01*
X985Y113D01*
X975Y115D01*
D02*
G37*
G36*
X875D02*
X865Y113D01*
X855Y109D01*
X847Y103D01*
X841Y95D01*
X837Y85D01*
X835Y75D01*
X837Y65D01*
X841Y55D01*
X847Y47D01*
X855Y41D01*
X865Y37D01*
X875Y35D01*
X885Y37D01*
X895Y41D01*
X903Y47D01*
X909Y55D01*
X913Y65D01*
X915Y75D01*
X913Y85D01*
X909Y95D01*
X903Y103D01*
X895Y109D01*
X885Y113D01*
X875Y115D01*
D02*
G37*
G36*
X2967Y68D02*
X2934D01*
X2935Y64D01*
X2939Y54D01*
X2945Y45D01*
X2954Y39D01*
X2964Y35D01*
X2967Y34D01*
Y68D01*
D02*
G37*
G36*
X767D02*
X734D01*
X735Y64D01*
X739Y54D01*
X745Y45D01*
X754Y39D01*
X764Y35D01*
X767Y34D01*
Y68D01*
D02*
G37*
G36*
X2916D02*
X2882D01*
Y34D01*
X2886Y35D01*
X2896Y39D01*
X2905Y45D01*
X2911Y54D01*
X2915Y64D01*
X2916Y68D01*
D02*
G37*
G36*
X2867D02*
X2834D01*
X2835Y64D01*
X2839Y54D01*
X2845Y45D01*
X2854Y39D01*
X2864Y35D01*
X2867Y34D01*
Y68D01*
D02*
G37*
G36*
X3016D02*
X2982D01*
Y34D01*
X2986Y35D01*
X2996Y39D01*
X3005Y45D01*
X3011Y54D01*
X3015Y64D01*
X3016Y68D01*
D02*
G37*
G36*
X816D02*
X782D01*
Y34D01*
X786Y35D01*
X796Y39D01*
X805Y45D01*
X811Y54D01*
X815Y64D01*
X816Y68D01*
D02*
G37*
G36*
X2948Y-91D02*
X2942Y-92D01*
X2936Y-96D01*
X2933Y-102D01*
X2931Y-108D01*
X2932Y-113D01*
Y-127D01*
X2920D01*
Y-138D01*
X2894D01*
Y-134D01*
X2839D01*
Y-170D01*
X2894D01*
Y-166D01*
X2920D01*
Y-177D01*
X2972D01*
Y-166D01*
X2988D01*
X2993Y-165D01*
X2997Y-162D01*
X3004Y-155D01*
X3007Y-155D01*
X3012Y-151D01*
X3016Y-145D01*
X3017Y-139D01*
X3016Y-133D01*
X3012Y-127D01*
X3007Y-123D01*
X3001Y-122D01*
X2994Y-123D01*
X2989Y-127D01*
X2985Y-133D01*
X2984Y-136D01*
X2982Y-138D01*
X2972D01*
Y-127D01*
X2960D01*
Y-120D01*
X2960Y-120D01*
X2964Y-114D01*
X2965Y-108D01*
X2964Y-102D01*
X2960Y-96D01*
X2954Y-92D01*
X2948Y-91D01*
D02*
G37*
G36*
X1868Y-143D02*
Y-175D01*
X1899D01*
X1899Y-172D01*
X1895Y-162D01*
X1889Y-154D01*
X1880Y-147D01*
X1871Y-144D01*
X1868Y-143D01*
D02*
G37*
G36*
X1168D02*
Y-175D01*
X1199D01*
X1199Y-172D01*
X1195Y-162D01*
X1189Y-154D01*
X1180Y-147D01*
X1171Y-144D01*
X1168Y-143D01*
D02*
G37*
G36*
X1068D02*
Y-175D01*
X1099D01*
X1099Y-172D01*
X1095Y-162D01*
X1089Y-154D01*
X1080Y-147D01*
X1071Y-144D01*
X1068Y-143D01*
D02*
G37*
G36*
X1853D02*
X1850Y-144D01*
X1841Y-147D01*
X1832Y-154D01*
X1826Y-162D01*
X1822Y-172D01*
X1822Y-175D01*
X1853D01*
Y-143D01*
D02*
G37*
G36*
X1153D02*
X1150Y-144D01*
X1141Y-147D01*
X1132Y-154D01*
X1126Y-162D01*
X1122Y-172D01*
X1122Y-175D01*
X1153D01*
Y-143D01*
D02*
G37*
G36*
X1053D02*
X1050Y-144D01*
X1041Y-147D01*
X1032Y-154D01*
X1026Y-162D01*
X1022Y-172D01*
X1022Y-175D01*
X1053D01*
Y-143D01*
D02*
G37*
G36*
X2974Y-188D02*
X2953D01*
Y-207D01*
X2974D01*
Y-188D01*
D02*
G37*
G36*
X2938D02*
X2918D01*
Y-207D01*
X2938D01*
Y-188D01*
D02*
G37*
G36*
X1899Y-190D02*
X1868D01*
Y-221D01*
X1871Y-220D01*
X1880Y-216D01*
X1889Y-210D01*
X1895Y-202D01*
X1899Y-192D01*
X1899Y-190D01*
D02*
G37*
G36*
X1199D02*
X1168D01*
Y-221D01*
X1171Y-220D01*
X1180Y-216D01*
X1189Y-210D01*
X1195Y-202D01*
X1199Y-192D01*
X1199Y-190D01*
D02*
G37*
G36*
X1099D02*
X1068D01*
Y-221D01*
X1071Y-220D01*
X1080Y-216D01*
X1089Y-210D01*
X1095Y-202D01*
X1099Y-192D01*
X1099Y-190D01*
D02*
G37*
G36*
X1853D02*
X1822D01*
X1822Y-192D01*
X1826Y-202D01*
X1832Y-210D01*
X1841Y-216D01*
X1850Y-220D01*
X1853Y-221D01*
Y-190D01*
D02*
G37*
G36*
X1153D02*
X1122D01*
X1122Y-192D01*
X1126Y-202D01*
X1132Y-210D01*
X1141Y-216D01*
X1150Y-220D01*
X1153Y-221D01*
Y-190D01*
D02*
G37*
G36*
X1053D02*
X1022D01*
X1022Y-192D01*
X1026Y-202D01*
X1032Y-210D01*
X1041Y-216D01*
X1050Y-220D01*
X1053Y-221D01*
Y-190D01*
D02*
G37*
G36*
X2974Y-222D02*
X2953D01*
Y-242D01*
X2974D01*
Y-222D01*
D02*
G37*
G36*
X2938D02*
X2918D01*
Y-242D01*
X2938D01*
Y-222D01*
D02*
G37*
G36*
X3152Y-157D02*
X3141Y-159D01*
X3130Y-163D01*
X3121Y-170D01*
X3114Y-179D01*
X3110Y-190D01*
X3108Y-201D01*
X3110Y-212D01*
X3114Y-223D01*
X3121Y-232D01*
X3130Y-239D01*
X3141Y-243D01*
X3152Y-245D01*
X3163Y-243D01*
X3174Y-239D01*
X3183Y-232D01*
X3190Y-223D01*
X3194Y-212D01*
X3196Y-201D01*
X3194Y-190D01*
X3190Y-179D01*
X3183Y-170D01*
X3174Y-163D01*
X3163Y-159D01*
X3152Y-157D01*
D02*
G37*
G36*
X2793Y-234D02*
X2771D01*
Y-247D01*
X2793D01*
Y-234D01*
D02*
G37*
G36*
X2756D02*
X2734D01*
Y-247D01*
X2756D01*
Y-234D01*
D02*
G37*
G36*
X3152Y-307D02*
X3141Y-309D01*
X3130Y-313D01*
X3121Y-320D01*
X3114Y-329D01*
X3110Y-340D01*
X3108Y-351D01*
X3110Y-362D01*
X3114Y-373D01*
X3121Y-382D01*
X3130Y-389D01*
X3141Y-393D01*
X3152Y-395D01*
X3163Y-393D01*
X3174Y-389D01*
X3183Y-382D01*
X3190Y-373D01*
X3194Y-362D01*
X3196Y-351D01*
X3194Y-340D01*
X3190Y-329D01*
X3183Y-320D01*
X3174Y-313D01*
X3163Y-309D01*
X3152Y-307D01*
D02*
G37*
G36*
X2357Y-384D02*
X2328D01*
Y-407D01*
X2357D01*
Y-384D01*
D02*
G37*
G36*
X2312D02*
X2283D01*
Y-407D01*
X2312D01*
Y-384D01*
D02*
G37*
G36*
X875Y-387D02*
X840D01*
Y-410D01*
X875D01*
Y-387D01*
D02*
G37*
G36*
X825D02*
X789D01*
Y-410D01*
X825D01*
Y-387D01*
D02*
G37*
G36*
X2595Y-394D02*
X2563D01*
Y-412D01*
X2595D01*
Y-394D01*
D02*
G37*
G36*
X2548D02*
X2516D01*
Y-412D01*
X2548D01*
Y-394D01*
D02*
G37*
G36*
X720Y-376D02*
X675D01*
Y-412D01*
X720D01*
Y-376D01*
D02*
G37*
G36*
X660D02*
X616D01*
Y-412D01*
X660D01*
Y-376D01*
D02*
G37*
G36*
X2595Y-427D02*
X2563D01*
Y-446D01*
X2595D01*
Y-427D01*
D02*
G37*
G36*
X2548D02*
X2516D01*
Y-446D01*
X2548D01*
Y-427D01*
D02*
G37*
G36*
X875Y-425D02*
X840D01*
Y-449D01*
X875D01*
Y-425D01*
D02*
G37*
G36*
X825D02*
X789D01*
Y-449D01*
X825D01*
Y-425D01*
D02*
G37*
G36*
X720Y-427D02*
X675D01*
Y-463D01*
X720D01*
Y-427D01*
D02*
G37*
G36*
X660D02*
X616D01*
Y-463D01*
X660D01*
Y-427D01*
D02*
G37*
G36*
X3159Y-456D02*
Y-493D01*
X3197D01*
X3196Y-489D01*
X3192Y-478D01*
X3184Y-469D01*
X3175Y-461D01*
X3164Y-457D01*
X3159Y-456D01*
D02*
G37*
G36*
X3145D02*
X3140Y-457D01*
X3129Y-461D01*
X3120Y-469D01*
X3112Y-478D01*
X3108Y-489D01*
X3107Y-493D01*
X3145D01*
Y-456D01*
D02*
G37*
G36*
X3197Y-508D02*
X3159D01*
Y-546D01*
X3164Y-545D01*
X3175Y-541D01*
X3184Y-533D01*
X3192Y-524D01*
X3196Y-513D01*
X3197Y-508D01*
D02*
G37*
G36*
X3145D02*
X3107D01*
X3108Y-513D01*
X3112Y-524D01*
X3120Y-533D01*
X3129Y-541D01*
X3140Y-545D01*
X3145Y-546D01*
Y-508D01*
D02*
G37*
G36*
X2492Y-443D02*
X2429D01*
Y-507D01*
X2451D01*
Y-586D01*
X2453Y-593D01*
X2457Y-599D01*
X2463Y-603D01*
X2470Y-605D01*
X2477Y-603D01*
X2483Y-599D01*
X2487Y-593D01*
X2489Y-586D01*
Y-507D01*
X2492D01*
Y-443D01*
D02*
G37*
G36*
X2593Y-506D02*
X2518D01*
Y-554D01*
X2536D01*
Y-600D01*
X2538Y-607D01*
X2542Y-613D01*
X2548Y-617D01*
X2555Y-619D01*
X2563Y-617D01*
X2569Y-613D01*
X2573Y-607D01*
X2574Y-600D01*
Y-554D01*
X2593D01*
Y-506D01*
D02*
G37*
G36*
X3111Y-726D02*
X3095D01*
Y-743D01*
X3111D01*
Y-726D01*
D02*
G37*
G36*
X3080D02*
X3064D01*
Y-743D01*
X3080D01*
Y-726D01*
D02*
G37*
G36*
X2984Y-724D02*
X2937D01*
Y-776D01*
X2984D01*
Y-764D01*
X3003D01*
Y-772D01*
X3046D01*
Y-728D01*
X3003D01*
Y-736D01*
X2984D01*
Y-724D01*
D02*
G37*
G36*
X3111Y-757D02*
X3095D01*
Y-774D01*
X3111D01*
Y-757D01*
D02*
G37*
G36*
X3080D02*
X3064D01*
Y-774D01*
X3080D01*
Y-757D01*
D02*
G37*
G36*
X1868Y-743D02*
Y-775D01*
X1899D01*
X1899Y-772D01*
X1895Y-762D01*
X1889Y-754D01*
X1880Y-748D01*
X1871Y-744D01*
X1868Y-743D01*
D02*
G37*
G36*
X1853D02*
X1850Y-744D01*
X1841Y-748D01*
X1832Y-754D01*
X1826Y-762D01*
X1822Y-772D01*
X1822Y-775D01*
X1853D01*
Y-743D01*
D02*
G37*
G36*
X2894Y-209D02*
X2839D01*
Y-245D01*
X2861D01*
X2881Y-265D01*
Y-724D01*
X2874D01*
Y-776D01*
X2921D01*
Y-724D01*
X2914D01*
Y-258D01*
X2913Y-252D01*
X2909Y-247D01*
X2894Y-231D01*
Y-209D01*
D02*
G37*
G36*
X2060Y-107D02*
X2046Y-108D01*
X2032Y-112D01*
X2019Y-119D01*
X2007Y-129D01*
X1998Y-140D01*
X1991Y-153D01*
X1987Y-167D01*
X1985Y-182D01*
Y-782D01*
X1987Y-797D01*
X1991Y-811D01*
X1998Y-824D01*
X2007Y-835D01*
X2019Y-845D01*
X2032Y-852D01*
X2046Y-856D01*
X2060Y-857D01*
X2075Y-856D01*
X2089Y-852D01*
X2102Y-845D01*
X2114Y-835D01*
X2123Y-824D01*
X2130Y-811D01*
X2134Y-797D01*
X2136Y-782D01*
Y-546D01*
X2260D01*
Y-568D01*
X2255D01*
Y-697D01*
Y-776D01*
X2385D01*
Y-697D01*
Y-568D01*
X2380D01*
Y-543D01*
X2384D01*
Y-428D01*
X2357D01*
Y-422D01*
X2283D01*
Y-425D01*
X2136D01*
Y-182D01*
X2134Y-167D01*
X2130Y-153D01*
X2123Y-140D01*
X2114Y-129D01*
X2102Y-119D01*
X2089Y-112D01*
X2075Y-108D01*
X2060Y-107D01*
D02*
G37*
G36*
X1760Y-144D02*
X1751Y-145D01*
X1742Y-149D01*
X1734Y-155D01*
X1728Y-163D01*
X1724Y-172D01*
X1723Y-182D01*
X1724Y-192D01*
X1728Y-201D01*
X1729Y-203D01*
Y-761D01*
X1728Y-763D01*
X1724Y-772D01*
X1723Y-782D01*
X1724Y-792D01*
X1728Y-801D01*
X1734Y-809D01*
X1742Y-815D01*
X1751Y-819D01*
X1760Y-820D01*
X1770Y-819D01*
X1779Y-815D01*
X1787Y-809D01*
X1793Y-801D01*
X1797Y-792D01*
X1798Y-782D01*
X1797Y-772D01*
X1793Y-763D01*
X1792Y-761D01*
Y-203D01*
X1793Y-201D01*
X1797Y-192D01*
X1798Y-182D01*
X1797Y-172D01*
X1793Y-163D01*
X1787Y-155D01*
X1779Y-149D01*
X1770Y-145D01*
X1760Y-144D01*
D02*
G37*
G36*
X1660D02*
X1651Y-145D01*
X1642Y-149D01*
X1634Y-155D01*
X1628Y-163D01*
X1624Y-172D01*
X1623Y-182D01*
X1624Y-192D01*
X1628Y-201D01*
X1629Y-203D01*
Y-761D01*
X1628Y-763D01*
X1624Y-772D01*
X1623Y-782D01*
X1624Y-792D01*
X1628Y-801D01*
X1634Y-809D01*
X1642Y-815D01*
X1651Y-819D01*
X1660Y-820D01*
X1670Y-819D01*
X1679Y-815D01*
X1687Y-809D01*
X1693Y-801D01*
X1697Y-792D01*
X1698Y-782D01*
X1697Y-772D01*
X1693Y-763D01*
X1692Y-761D01*
Y-203D01*
X1693Y-201D01*
X1697Y-192D01*
X1698Y-182D01*
X1697Y-172D01*
X1693Y-163D01*
X1687Y-155D01*
X1679Y-149D01*
X1670Y-145D01*
X1660Y-144D01*
D02*
G37*
G36*
X718Y-493D02*
X618D01*
Y-576D01*
X718D01*
Y-565D01*
X800D01*
X810Y-576D01*
X810Y-576D01*
X1024Y-789D01*
X1024Y-792D01*
X1028Y-801D01*
X1034Y-809D01*
X1042Y-815D01*
X1051Y-819D01*
X1060Y-820D01*
X1070Y-819D01*
X1079Y-815D01*
X1081Y-813D01*
X1140D01*
X1142Y-815D01*
X1151Y-819D01*
X1160Y-820D01*
X1170Y-819D01*
X1179Y-815D01*
X1187Y-809D01*
X1193Y-801D01*
X1197Y-792D01*
X1198Y-782D01*
X1197Y-772D01*
X1193Y-763D01*
X1187Y-755D01*
X1179Y-749D01*
X1170Y-745D01*
X1160Y-744D01*
X1151Y-745D01*
X1142Y-749D01*
X1140Y-751D01*
X1081D01*
X1079Y-749D01*
X1070Y-745D01*
X1068Y-745D01*
X873Y-551D01*
Y-507D01*
X844D01*
X840Y-506D01*
X832Y-505D01*
X825Y-506D01*
X821Y-504D01*
X817Y-503D01*
X813Y-503D01*
X813Y-503D01*
X718D01*
Y-493D01*
D02*
G37*
G36*
X1899Y-789D02*
X1868D01*
Y-821D01*
X1871Y-820D01*
X1880Y-817D01*
X1889Y-810D01*
X1895Y-802D01*
X1899Y-792D01*
X1899Y-789D01*
D02*
G37*
G36*
X1853D02*
X1822D01*
X1822Y-792D01*
X1826Y-802D01*
X1832Y-810D01*
X1841Y-817D01*
X1850Y-820D01*
X1853Y-821D01*
Y-789D01*
D02*
G37*
%LPD*%
G36*
X1500Y1508D02*
X1469Y1478D01*
X1465Y1480D01*
Y1503D01*
X1451D01*
Y1510D01*
Y1559D01*
X1453D01*
Y1569D01*
X1408D01*
Y1584D01*
X1453D01*
Y1588D01*
X1500D01*
Y1508D01*
D02*
G37*
D10*
X2340Y1290D02*
G03*
X2430Y1200I89J0D01*
G01*
X2628Y1202D02*
G03*
X2686Y1260I0J58D01*
G01*
X1327Y1474D02*
X1408D01*
X1308Y1456D02*
X1327Y1474D01*
X1266Y1456D02*
X1308D01*
X2430Y1200D02*
X2566D01*
X2340Y1290D02*
Y1334D01*
X2568Y1202D02*
X2628D01*
X2686Y1260D02*
Y1332D01*
X1609Y321D02*
X1687D01*
X1609D02*
Y399D01*
X1608Y400D02*
X1609Y399D01*
X1607Y400D02*
X1608Y400D01*
X1607Y400D02*
Y464D01*
Y546D02*
X1608Y546D01*
Y610D01*
Y652D01*
X1568Y692D02*
X1608Y652D01*
X1568Y692D02*
Y770D01*
X1118Y717D02*
X1167D01*
X1761Y619D02*
X1769Y611D01*
X1738Y642D02*
X1746Y634D01*
X1672Y611D02*
X1769D01*
X1746Y634D02*
X1761Y619D01*
X1769Y611D02*
X1774D01*
X1961Y335D02*
X2005D01*
X1952Y326D02*
X1961Y335D01*
X1852Y327D02*
X1853Y326D01*
X1810Y327D02*
X1852D01*
X1774Y363D02*
X1810Y327D01*
X1774Y363D02*
Y399D01*
X1983Y685D02*
X2006D01*
X1964Y666D02*
X1983Y685D01*
X1670Y610D02*
X1672Y611D01*
X1167Y717D02*
X1245D01*
X1266Y1455D02*
X1266Y1456D01*
X1190Y1455D02*
X1266D01*
X1029Y1434D02*
X1107D01*
X1149Y1393D01*
X1190D01*
Y1315D02*
Y1393D01*
X1170Y1084D02*
Y1197D01*
Y1084D02*
X1172Y1081D01*
X1171Y1018D02*
X1172Y1019D01*
X1171Y801D02*
Y1018D01*
X1170Y721D02*
Y801D01*
X1167Y717D02*
X1170Y721D01*
X1007Y606D02*
X1118Y717D01*
X956Y606D02*
X1007D01*
X1431Y406D02*
X1486D01*
X1545Y464D01*
X1431Y606D02*
X1485D01*
X1545Y546D01*
X1670Y400D02*
X1672Y399D01*
X1774D01*
X1924D02*
Y436D01*
X1951Y463D01*
X2025Y539D02*
X2026Y540D01*
X2073D01*
X1924Y561D02*
Y611D01*
Y561D02*
X2012Y473D01*
X2073D01*
X2005Y397D02*
X2073Y465D01*
Y473D01*
X2006Y623D02*
X2073Y556D01*
Y540D02*
Y556D01*
X2006Y685D02*
X2008Y683D01*
X2070D01*
X2005Y335D02*
X2006Y336D01*
X2070D01*
X2132Y470D02*
X2135Y473D01*
X2132Y336D02*
Y470D01*
Y543D02*
X2135Y540D01*
X2132Y543D02*
Y683D01*
X2135Y473D02*
X2200D01*
X2283Y556D01*
X2135Y540D02*
X2204D01*
X2221Y556D01*
X2283D02*
Y623D01*
X2294Y634D01*
X2221Y556D02*
Y623D01*
X2210Y634D02*
X2221Y623D01*
X2209Y825D02*
X2210Y825D01*
Y897D01*
X2294Y825D02*
Y897D01*
X2298Y901D01*
X2365D01*
X2205D02*
X2210Y897D01*
X2138Y901D02*
X2205D01*
X2294Y968D02*
Y1041D01*
X2298Y964D02*
X2365D01*
X2294Y968D02*
X2298Y964D01*
X2265Y1070D02*
X2294Y1041D01*
X2265Y1070D02*
Y1101D01*
X2138Y964D02*
X2142Y968D01*
X2210D01*
Y999D01*
X2239Y1028D01*
Y1120D01*
X2749Y1332D02*
X2820D01*
X2884Y1256D02*
X2890Y1263D01*
Y1332D01*
X2984D01*
X3108Y1326D02*
X3342D01*
D11*
X2320Y-633D02*
D03*
Y-711D02*
D03*
X1568Y692D02*
D03*
Y770D02*
D03*
X2832Y1073D02*
D03*
Y995D02*
D03*
D12*
X1141Y1581D02*
D03*
X1203D02*
D03*
X1419Y1272D02*
D03*
X1481D02*
D03*
X2070Y683D02*
D03*
X2132D02*
D03*
X2073Y540D02*
D03*
X2135D02*
D03*
X2073Y473D02*
D03*
X2135D02*
D03*
X2070Y336D02*
D03*
X2132D02*
D03*
X2440Y1820D02*
D03*
X2378D02*
D03*
X2881Y1817D02*
D03*
X2819D02*
D03*
X2321Y1410D02*
D03*
X2383D02*
D03*
X2321Y1474D02*
D03*
X2383D02*
D03*
X2686Y1332D02*
D03*
X2748D02*
D03*
X2186Y1412D02*
D03*
X2249D02*
D03*
X2186Y1475D02*
D03*
X2249D02*
D03*
X2093Y1410D02*
D03*
X2030D02*
D03*
X1898Y1314D02*
D03*
X1961D02*
D03*
X802Y1763D02*
D03*
X740D02*
D03*
X802Y1649D02*
D03*
X740D02*
D03*
X3146Y780D02*
D03*
X3209D02*
D03*
X3159Y361D02*
D03*
X3221D02*
D03*
X2999Y439D02*
D03*
X2937D02*
D03*
X1607Y546D02*
D03*
X1545D02*
D03*
X1607Y464D02*
D03*
X1545D02*
D03*
X994Y1343D02*
D03*
X932D02*
D03*
X994Y1278D02*
D03*
X932D02*
D03*
X994Y1213D02*
D03*
X932D02*
D03*
X994Y1148D02*
D03*
X932D02*
D03*
X2054Y1676D02*
D03*
X1991D02*
D03*
D13*
X1852Y1004D02*
D03*
X1923D02*
D03*
X1663Y1249D02*
D03*
X1593D02*
D03*
X2820Y1332D02*
D03*
X2890D02*
D03*
D14*
X2875Y548D02*
D03*
X2989D02*
D03*
D15*
X1311Y1327D02*
D03*
Y1389D02*
D03*
X2294Y762D02*
D03*
Y825D02*
D03*
X2209Y762D02*
D03*
Y825D02*
D03*
X1811Y689D02*
D03*
Y751D02*
D03*
X2074Y942D02*
D03*
Y1005D02*
D03*
X2010D02*
D03*
Y942D02*
D03*
X2445Y1474D02*
D03*
Y1411D02*
D03*
X2503Y1201D02*
D03*
Y1263D02*
D03*
X2566Y1200D02*
D03*
Y1138D02*
D03*
X2037Y1251D02*
D03*
Y1188D02*
D03*
X1975D02*
D03*
Y1251D02*
D03*
X1318Y1693D02*
D03*
Y1756D02*
D03*
X1239Y1648D02*
D03*
Y1711D02*
D03*
X1031Y1699D02*
D03*
Y1636D02*
D03*
X454Y1704D02*
D03*
Y1642D02*
D03*
X1172Y1081D02*
D03*
Y1019D02*
D03*
X1251Y1083D02*
D03*
Y1020D02*
D03*
X1089Y1083D02*
D03*
Y1020D02*
D03*
X3333Y552D02*
D03*
Y489D02*
D03*
X1874Y751D02*
D03*
Y689D02*
D03*
X1749Y751D02*
D03*
Y689D02*
D03*
X1266Y1456D02*
D03*
Y1518D02*
D03*
X2946Y-215D02*
D03*
Y-152D02*
D03*
D16*
X1190Y1455D02*
D03*
Y1393D02*
D03*
X2006Y685D02*
D03*
Y623D02*
D03*
X2005Y335D02*
D03*
Y397D02*
D03*
X2210Y634D02*
D03*
Y697D02*
D03*
X2294Y634D02*
D03*
Y697D02*
D03*
X2365Y964D02*
D03*
Y901D02*
D03*
X2138Y964D02*
D03*
Y901D02*
D03*
X2882Y1727D02*
D03*
Y1665D02*
D03*
D17*
X1418Y1201D02*
D03*
Y1131D02*
D03*
X2294Y897D02*
D03*
Y968D02*
D03*
X2210Y897D02*
D03*
Y968D02*
D03*
X2359Y1566D02*
D03*
Y1637D02*
D03*
X2320Y-485D02*
D03*
Y-415D02*
D03*
X1673Y759D02*
D03*
Y689D02*
D03*
D18*
X1609Y321D02*
D03*
X1687D02*
D03*
X2047Y791D02*
D03*
X2126D02*
D03*
X2375Y788D02*
D03*
X2453D02*
D03*
X2198Y1589D02*
D03*
X2276D02*
D03*
X1029Y1434D02*
D03*
X1107D02*
D03*
X1561Y1076D02*
D03*
X1639D02*
D03*
X1167Y717D02*
D03*
X1245D02*
D03*
D19*
X2221Y556D02*
D03*
X2283D02*
D03*
X2529Y1343D02*
D03*
X2466D02*
D03*
X1812Y1517D02*
D03*
X1875D02*
D03*
Y1578D02*
D03*
X1812D02*
D03*
X187Y1814D02*
D03*
X124D02*
D03*
X187Y1883D02*
D03*
X124D02*
D03*
X187Y1951D02*
D03*
X124D02*
D03*
X2961Y-750D02*
D03*
X2898D02*
D03*
X2540Y1033D02*
D03*
X2602D02*
D03*
X2540Y967D02*
D03*
X2602D02*
D03*
X1608Y610D02*
D03*
X1670D02*
D03*
X1608Y400D02*
D03*
X1670D02*
D03*
X1170Y801D02*
D03*
X1108D02*
D03*
X187Y2019D02*
D03*
X124D02*
D03*
D20*
X2511Y1844D02*
D03*
X2537D02*
D03*
X2562D02*
D03*
X2588D02*
D03*
X2613D02*
D03*
X2639D02*
D03*
X2665D02*
D03*
X2690D02*
D03*
X2716D02*
D03*
X2741D02*
D03*
Y1616D02*
D03*
X2716D02*
D03*
X2690D02*
D03*
X2665D02*
D03*
X2639D02*
D03*
X2613D02*
D03*
X2588D02*
D03*
X2562D02*
D03*
X2537D02*
D03*
X2511D02*
D03*
X2950Y1842D02*
D03*
X2975D02*
D03*
X3001D02*
D03*
X3027D02*
D03*
X3052D02*
D03*
X3078D02*
D03*
X3103D02*
D03*
X3129D02*
D03*
X3155D02*
D03*
X3180D02*
D03*
Y1614D02*
D03*
X3155D02*
D03*
X3129D02*
D03*
X3103D02*
D03*
X3078D02*
D03*
X3052D02*
D03*
X3027D02*
D03*
X3001D02*
D03*
X2975D02*
D03*
X2950D02*
D03*
D21*
X2884Y1256D02*
D03*
X2910Y1174D02*
D03*
X2858D02*
D03*
D22*
X2365Y1334D02*
D03*
X2340D02*
D03*
X2315D02*
D03*
X2290D02*
D03*
X2265D02*
D03*
X2239D02*
D03*
X2214D02*
D03*
X2189D02*
D03*
X2164D02*
D03*
X2139D02*
D03*
X2365Y1120D02*
D03*
X2340D02*
D03*
X2315D02*
D03*
X2290D02*
D03*
X2265D02*
D03*
X2239D02*
D03*
X2214D02*
D03*
X2189D02*
D03*
X2164D02*
D03*
X2139D02*
D03*
D23*
X1962Y1365D02*
D03*
X1925D02*
D03*
D24*
X1408Y1346D02*
D03*
Y1372D02*
D03*
Y1397D02*
D03*
Y1423D02*
D03*
Y1448D02*
D03*
Y1474D02*
D03*
Y1500D02*
D03*
Y1525D02*
D03*
Y1551D02*
D03*
Y1576D02*
D03*
Y1602D02*
D03*
Y1628D02*
D03*
Y1653D02*
D03*
Y1679D02*
D03*
X1684D02*
D03*
Y1653D02*
D03*
Y1628D02*
D03*
Y1602D02*
D03*
Y1576D02*
D03*
Y1551D02*
D03*
Y1525D02*
D03*
Y1500D02*
D03*
Y1474D02*
D03*
Y1448D02*
D03*
Y1423D02*
D03*
Y1397D02*
D03*
Y1372D02*
D03*
Y1346D02*
D03*
D25*
X1135Y1778D02*
D03*
Y1664D02*
D03*
X928Y1762D02*
D03*
Y1648D02*
D03*
X668Y-420D02*
D03*
Y-534D02*
D03*
D26*
X623Y1673D02*
D03*
Y1636D02*
D03*
Y1598D02*
D03*
X517D02*
D03*
Y1636D02*
D03*
Y1673D02*
D03*
X2064Y1541D02*
D03*
Y1578D02*
D03*
Y1616D02*
D03*
X1958D02*
D03*
Y1578D02*
D03*
Y1541D02*
D03*
D27*
X601Y1990D02*
D03*
Y1940D02*
D03*
Y1890D02*
D03*
Y1840D02*
D03*
X301D02*
D03*
Y1890D02*
D03*
Y1940D02*
D03*
Y1990D02*
D03*
D28*
X2460Y-475D02*
D03*
D29*
X2556Y-420D02*
D03*
Y-530D02*
D03*
D30*
X2764Y-152D02*
D03*
Y-189D02*
D03*
Y-227D02*
D03*
X2866D02*
D03*
Y-152D02*
D03*
D31*
X3280Y1159D02*
D03*
Y1493D02*
D03*
D32*
X3342Y1326D02*
D03*
D33*
X3043Y1230D02*
D03*
D34*
X2984Y1332D02*
D03*
X3102D02*
D03*
D35*
X3043Y1321D02*
D03*
D36*
X2944Y912D02*
D03*
Y1073D02*
D03*
X3104Y1073D02*
D03*
Y912D02*
D03*
D37*
X2787Y725D02*
D03*
X2991D02*
D03*
D38*
X3209Y455D02*
D03*
X3111Y436D02*
D03*
X3091D02*
D03*
X3130D02*
D03*
X3170D02*
D03*
X3189D02*
D03*
X3209D02*
D03*
X3229D02*
D03*
X3071D02*
D03*
X3091Y455D02*
D03*
X3170Y534D02*
D03*
X3111D02*
D03*
X3170Y554D02*
D03*
X3229Y691D02*
D03*
X3209D02*
D03*
X3189D02*
D03*
X3170D02*
D03*
X3150D02*
D03*
X3130D02*
D03*
X3111D02*
D03*
X3091D02*
D03*
X3071D02*
D03*
D39*
X1924Y611D02*
D03*
X1874D02*
D03*
X1824D02*
D03*
X1774D02*
D03*
X1924Y399D02*
D03*
X1874D02*
D03*
X1824D02*
D03*
X1774D02*
D03*
D40*
X1431Y406D02*
D03*
Y506D02*
D03*
Y606D02*
D03*
X956D02*
D03*
Y506D02*
D03*
Y406D02*
D03*
D41*
X1180Y1256D02*
D03*
D42*
X1121Y1226D02*
D03*
Y1246D02*
D03*
Y1266D02*
D03*
Y1285D02*
D03*
X1239D02*
D03*
Y1266D02*
D03*
Y1246D02*
D03*
Y1226D02*
D03*
D43*
X1150Y1315D02*
D03*
X1170D02*
D03*
X1190D02*
D03*
X1210D02*
D03*
Y1197D02*
D03*
X1190D02*
D03*
X1170D02*
D03*
X1150D02*
D03*
D44*
X832Y-536D02*
D03*
Y-418D02*
D03*
D45*
X3088Y-750D02*
D03*
X3025D02*
D03*
D46*
X2248Y-485D02*
X2320D01*
X2169D02*
X2248D01*
X2060D02*
X2169D01*
X2320Y-633D02*
Y-485D01*
Y-711D02*
Y-633D01*
X2989Y548D02*
Y723D01*
X2855Y477D02*
Y481D01*
X2875Y501D01*
Y548D01*
X1060Y-189D02*
Y-182D01*
Y-782D02*
X1160D01*
X1760D02*
Y-182D01*
X1660Y-782D02*
Y-182D01*
X813Y-534D02*
X832Y-554D01*
Y-536D01*
X668Y-534D02*
X813D01*
X832Y-554D02*
X1060Y-782D01*
D47*
X2470Y-586D02*
Y-485D01*
X2989Y723D02*
X2991Y725D01*
X2371Y1649D02*
X2415D01*
X2359Y1637D02*
X2371Y1649D01*
X2297Y1650D02*
X2346D01*
X2359Y1637D01*
X2555Y-531D02*
X2556Y-530D01*
X2555Y-600D02*
Y-531D01*
X1625Y808D02*
Y823D01*
Y808D02*
X1673Y759D01*
X1738Y824D02*
X1740D01*
X1673Y759D02*
X1738Y824D01*
X1673Y837D02*
X1674Y838D01*
X1673Y759D02*
Y837D01*
X2460Y-475D02*
X2470Y-485D01*
D48*
X3333Y545D02*
Y600D01*
X3228Y545D02*
X3333D01*
X1408Y1602D02*
X1513D01*
Y1502D02*
Y1602D01*
X1459Y1448D02*
X1513Y1502D01*
X3180Y1842D02*
X3189Y1851D01*
Y1945D01*
X3155Y1842D02*
Y1923D01*
X3136Y1941D02*
X3155Y1923D01*
X3129Y1842D02*
Y1883D01*
X3103Y1909D02*
X3129Y1883D01*
X3092Y1909D02*
X3103D01*
X3103Y1810D02*
Y1842D01*
Y1810D02*
X3132Y1782D01*
X3170D01*
X3078Y1801D02*
X3145Y1733D01*
X3078Y1801D02*
Y1842D01*
X3052Y1790D02*
X3129Y1713D01*
X3052Y1790D02*
Y1842D01*
X3027Y1760D02*
Y1842D01*
Y1760D02*
X3081Y1706D01*
X3145Y1733D02*
X3167D01*
X3001Y1737D02*
Y1842D01*
Y1737D02*
X3031Y1708D01*
X2975Y1772D02*
Y1842D01*
X2950Y1746D02*
X2975Y1772D01*
X3129Y1704D02*
Y1713D01*
X2950Y1614D02*
Y1746D01*
X1614Y1397D02*
X1684D01*
X1564Y1447D02*
X1614Y1397D01*
X1607Y1438D02*
X1607D01*
X1631Y1448D02*
X1684D01*
X1611Y1468D02*
X1631Y1448D01*
X1611Y1468D02*
Y1503D01*
X2999Y434D02*
X3059D01*
X2999D02*
Y439D01*
Y394D02*
Y434D01*
Y394D02*
X3000Y393D01*
X2152Y-2D02*
X2702D01*
X2075Y75D02*
X2152Y-2D01*
X2724Y830D02*
X2780Y886D01*
X2724Y20D02*
Y830D01*
X2702Y-2D02*
X2724Y20D01*
X2702Y-161D02*
Y-2D01*
Y-161D02*
X2730Y-189D01*
X2764D01*
X2793Y1665D02*
X2882D01*
X2709D02*
X2793D01*
X2801Y1519D02*
X2860Y1578D01*
X2704Y1519D02*
X2801D01*
X2665Y1559D02*
X2704Y1519D01*
X2715Y1543D02*
X2776D01*
X2690Y1567D02*
X2715Y1543D01*
X2776D02*
X2835Y1602D01*
X2665Y1559D02*
Y1616D01*
X2690Y1567D02*
Y1616D01*
X2753Y1566D02*
X2800Y1613D01*
X2726Y1566D02*
X2753D01*
X2716Y1576D02*
X2726Y1566D01*
X2716Y1576D02*
Y1616D01*
X2992Y308D02*
X3091Y407D01*
X2865Y308D02*
X2992D01*
X2775Y218D02*
X2865Y308D01*
X3001Y277D02*
X3111Y387D01*
X2884Y277D02*
X3001D01*
X2828Y221D02*
X2884Y277D01*
X2626Y1930D02*
X2639Y1917D01*
Y1844D02*
Y1917D01*
X2593Y1923D02*
X2610Y1906D01*
Y1847D02*
Y1906D01*
X2279Y1904D02*
X2527D01*
X2546Y1923D01*
X2593D01*
X2610Y1847D02*
X2613Y1844D01*
X2583Y1899D02*
X2588Y1894D01*
Y1844D02*
Y1894D01*
X2562Y1844D02*
Y1885D01*
X2552Y1895D02*
X2562Y1885D01*
X2537Y1756D02*
X2545Y1748D01*
X2537Y1756D02*
Y1844D01*
X2511Y1616D02*
Y1714D01*
X2545Y1748D01*
X2646D01*
X2669Y1724D01*
Y1704D02*
Y1724D01*
Y1704D02*
X2709Y1665D01*
X2721Y1714D02*
X2741Y1734D01*
X2693Y1714D02*
X2721D01*
X2741Y1734D02*
Y1762D01*
X2690Y1771D02*
X2716Y1745D01*
X2716Y1787D02*
X2741Y1762D01*
X2749Y1790D02*
Y1837D01*
X2741Y1844D02*
X2749Y1837D01*
X2716Y1787D02*
Y1844D01*
X2000Y1578D02*
X2009Y1587D01*
X1968Y1578D02*
X2000D01*
X2664Y1794D02*
X2665Y1795D01*
Y1844D01*
X2690Y1771D02*
Y1844D01*
X1968Y1553D02*
X2008D01*
X2009Y1551D01*
X2639Y1616D02*
Y1705D01*
X2613Y1616D02*
Y1678D01*
X2588Y1616D02*
Y1708D01*
X2613Y1678D02*
X2613Y1678D01*
X2562Y1667D02*
X2562Y1667D01*
X1596Y1376D02*
X1625D01*
X1581Y1391D02*
X1596Y1376D01*
X1625D02*
X1629Y1372D01*
X1684D01*
X2537Y1616D02*
Y1684D01*
X2588Y1616D02*
X2588Y1616D01*
X1607Y1438D02*
X1623Y1423D01*
X1684D01*
X2562Y1616D02*
Y1667D01*
X1684Y1474D02*
X1751D01*
X1753Y1472D01*
X1767Y1525D02*
X1769Y1523D01*
X3154Y1565D02*
X3155Y1566D01*
Y1614D01*
X3129Y1546D02*
Y1614D01*
X3129Y1614D02*
X3129Y1614D01*
X3103Y1566D02*
X3104Y1565D01*
X3078Y1545D02*
Y1614D01*
X3052Y1565D02*
X3052Y1565D01*
X1684Y1500D02*
X1746D01*
X1684Y1525D02*
X1767D01*
X3103Y1566D02*
Y1614D01*
X1746Y1551D02*
X1746Y1551D01*
X1684Y1551D02*
X1746D01*
X1684Y1576D02*
X1766D01*
X1769Y1573D01*
X1684Y1602D02*
X1749D01*
X1684Y1628D02*
X1770D01*
X1753Y1653D02*
X1753Y1653D01*
X3052Y1565D02*
Y1614D01*
X3027D02*
X3027Y1613D01*
Y1545D02*
Y1613D01*
X3002Y1561D02*
Y1613D01*
X2975Y1552D02*
Y1613D01*
X3001Y1614D02*
X3002Y1613D01*
X2975Y1613D02*
X2975Y1614D01*
X1684Y1653D02*
X1753D01*
X1621Y1346D02*
X1684D01*
X1615Y1352D02*
X1621Y1346D01*
X659Y1636D02*
X682Y1613D01*
X623Y1636D02*
X659D01*
X2443Y1819D02*
Y1856D01*
X2424Y1874D02*
X2443Y1856D01*
Y1819D02*
X2486D01*
X2511Y1844D01*
X1933Y1517D02*
X1968Y1553D01*
X1875Y1517D02*
X1933D01*
X1875Y1578D02*
X1968D01*
X1539Y1281D02*
Y1292D01*
Y1281D02*
X1571Y1249D01*
X454Y1704D02*
Y1746D01*
X405Y1704D02*
X454D01*
X396Y1598D02*
X517D01*
X359Y1636D02*
X396Y1598D01*
X485Y1704D02*
X517Y1673D01*
X454Y1704D02*
X485D01*
X359Y1636D02*
Y1754D01*
X445Y1840D01*
X601D01*
X2946Y-110D02*
X2948Y-108D01*
X2946Y-152D02*
Y-110D01*
X2988Y-152D02*
X3001Y-139D01*
X2946Y-152D02*
X2988D01*
X932Y1341D02*
X994Y1278D01*
X932Y1341D02*
Y1343D01*
X994Y1211D02*
Y1213D01*
X932Y1148D02*
X994Y1211D01*
X3131Y413D02*
Y414D01*
Y413D02*
X3159Y386D01*
Y361D02*
Y386D01*
X3158Y311D02*
X3159Y312D01*
Y361D01*
X3181Y534D02*
X3217D01*
X3228Y545D01*
X2899Y1665D02*
X2950Y1614D01*
X2882Y1665D02*
X2899D01*
X2831Y1745D02*
X2849Y1727D01*
X2882D01*
X2925Y1817D02*
X2950Y1842D01*
X2881Y1817D02*
X2925D01*
X2863Y1872D02*
X2881Y1854D01*
Y1817D02*
Y1854D01*
X124Y1951D02*
Y2019D01*
Y1883D02*
Y1951D01*
Y1814D02*
Y1883D01*
Y1767D02*
X139Y1752D01*
X124Y1767D02*
Y1814D01*
X1365Y1152D02*
X1386Y1131D01*
X1418D01*
X1408Y1346D02*
X1419Y1336D01*
Y1272D02*
Y1336D01*
X1418Y1271D02*
X1419Y1272D01*
X1418Y1201D02*
Y1271D01*
X1362Y1397D02*
X1408D01*
X1349Y1384D02*
X1362Y1397D01*
X1349Y1345D02*
Y1384D01*
X1331Y1327D02*
X1349Y1345D01*
X1311Y1327D02*
X1331D01*
X1273Y1343D02*
X1289Y1327D01*
X1311D01*
X1394Y1693D02*
X1408Y1679D01*
X1318Y1693D02*
X1394D01*
X1318Y1657D02*
X1326Y1649D01*
X1318Y1657D02*
Y1693D01*
X1569Y1199D02*
X1593Y1222D01*
Y1249D01*
X1570Y1308D02*
X1593Y1285D01*
Y1249D02*
Y1285D01*
X1571Y1249D02*
X1593D01*
X2828Y128D02*
Y221D01*
X2775Y75D02*
X2828Y128D01*
X2775Y175D02*
Y218D01*
X2961Y-750D02*
X3025D01*
X2866Y-152D02*
X2866Y-152D01*
X2946D01*
X2321Y1534D02*
X2348Y1561D01*
X2321Y1474D02*
Y1534D01*
Y1410D02*
Y1474D01*
X2315Y1405D02*
X2321Y1410D01*
X2315Y1334D02*
Y1405D01*
X2287Y1383D02*
X2290Y1380D01*
Y1334D02*
Y1380D01*
X2287Y1383D02*
Y1437D01*
X2445Y1388D02*
Y1411D01*
X2392Y1334D02*
X2445Y1388D01*
X2365Y1334D02*
X2392D01*
X2376Y1055D02*
X2430D01*
X2340Y1091D02*
X2376Y1055D01*
X2340Y1091D02*
Y1120D01*
X1874Y399D02*
Y537D01*
X1824Y587D02*
X1874Y537D01*
X1824Y587D02*
Y611D01*
X1673Y689D02*
X1673Y689D01*
X1749D01*
X1749Y689D01*
X1811D01*
Y659D02*
Y689D01*
Y659D02*
X1824Y646D01*
Y611D02*
Y646D01*
X1874Y611D02*
Y689D01*
X2265Y1334D02*
Y1372D01*
X2249Y1388D02*
X2265Y1372D01*
X2249Y1388D02*
Y1412D01*
Y1475D02*
X2287Y1437D01*
X601Y1940D02*
Y1990D01*
Y1890D02*
Y1940D01*
Y1840D02*
Y1890D01*
X240D02*
X301D01*
X233Y1883D02*
X240Y1890D01*
X187Y1883D02*
X233D01*
X238Y1940D02*
X301D01*
X227Y1951D02*
X238Y1940D01*
X187Y1951D02*
X227D01*
X212Y1840D02*
X301D01*
X187Y1814D02*
X212Y1840D01*
X216Y1990D02*
X301D01*
X187Y2019D02*
X216Y1990D01*
X1278Y1581D02*
X1306Y1553D01*
Y1527D02*
Y1553D01*
Y1527D02*
X1333Y1500D01*
X1408D01*
X802Y1649D02*
X803Y1648D01*
X928D01*
X940Y1636D01*
X1031D01*
X1032Y1635D01*
Y1593D02*
Y1635D01*
X1339Y1540D02*
X1354Y1525D01*
X1408D01*
X1369Y1551D02*
X1408D01*
X1343Y1577D02*
X1369Y1551D01*
X1324Y1602D02*
X1408D01*
X802Y1763D02*
X803Y1762D01*
X928D01*
X967D01*
X1031Y1699D01*
X1033Y1701D01*
Y1745D01*
X1408Y1448D02*
X1459D01*
X1203Y1581D02*
X1278D01*
X1135Y1664D02*
X1151Y1648D01*
X1239D01*
X1278D01*
X1324Y1602D01*
X1476D02*
X1539Y1665D01*
Y1807D01*
X1489Y1650D02*
Y1807D01*
X1467Y1628D02*
X1489Y1650D01*
X1408Y1628D02*
X1467D01*
X1875Y1139D02*
X1941D01*
X2016Y1064D01*
X2173D01*
X2189Y1080D01*
Y1120D01*
X2209Y698D02*
X2210Y697D01*
X2209Y698D02*
Y762D01*
X2294Y697D02*
Y762D01*
X2375Y788D02*
X2453D01*
X2348Y762D02*
X2375Y788D01*
X2294Y762D02*
X2348D01*
X2047Y791D02*
X2126D01*
X2155Y762D01*
X2209D01*
X2430Y1055D02*
X2452Y1033D01*
X2540D01*
X2409Y1024D02*
X2466Y967D01*
X2375Y1024D02*
X2409D01*
X2315Y1084D02*
X2375Y1024D01*
X2466Y967D02*
X2540D01*
X2315Y1084D02*
Y1120D01*
X2153Y1005D02*
X2214Y1066D01*
X1923Y1004D02*
X1924Y1005D01*
X2010D01*
X2074D01*
X2153D01*
X2214Y1066D02*
Y1120D01*
X1962Y1315D02*
Y1365D01*
X1961Y1314D02*
X1962Y1315D01*
X1961Y1314D02*
X2047D01*
X2037Y1188D02*
X2107D01*
X2047Y1314D02*
X2164Y1197D01*
X2107Y1188D02*
X2139Y1156D01*
Y1120D02*
Y1156D01*
X2093Y1392D02*
X2139Y1346D01*
Y1334D02*
Y1346D01*
X2171Y1378D02*
X2189Y1360D01*
X2162Y1378D02*
X2171D01*
X2146Y1394D02*
X2162Y1378D01*
X2146Y1394D02*
Y1434D01*
X2093Y1392D02*
Y1410D01*
X2164Y1120D02*
Y1197D01*
X1975Y1188D02*
X2037D01*
X2198Y1589D02*
X2276D01*
X2093Y1410D02*
Y1488D01*
X2055Y1527D02*
X2093Y1488D01*
X2055Y1527D02*
Y1553D01*
X2290Y1296D02*
Y1334D01*
X2442Y1320D02*
X2466Y1343D01*
X2529Y1314D02*
Y1343D01*
X2503Y1288D02*
X2529Y1314D01*
X2503Y1263D02*
Y1288D01*
X2146Y1434D02*
X2186Y1475D01*
X2189Y1334D02*
Y1360D01*
X2186Y1400D02*
X2214Y1372D01*
Y1334D02*
Y1372D01*
X2186Y1400D02*
Y1412D01*
X1942Y1616D02*
X1958D01*
X1918Y1640D02*
X1942Y1616D01*
X2064D02*
Y1666D01*
X2442Y1296D02*
Y1320D01*
X2290Y1296D02*
X2310Y1276D01*
X2055Y1553D02*
X2161D01*
X2198Y1589D01*
X2058Y1672D02*
X2064Y1666D01*
X2058Y1672D02*
X2112D01*
D49*
X3115Y797D02*
X3142Y771D01*
Y752D02*
Y771D01*
X2991Y725D02*
Y757D01*
X3031Y797D02*
X3115D01*
X2991Y757D02*
X3031Y797D01*
D50*
X3130Y691D02*
Y718D01*
X3111Y691D02*
Y711D01*
X3087Y735D02*
X3111Y711D01*
X3091Y691D02*
Y701D01*
X3079Y713D02*
X3091Y701D01*
X3130Y718D02*
X3142Y729D01*
Y752D01*
X3056Y736D02*
Y736D01*
X3078Y713D02*
X3079D01*
X3056Y736D02*
X3078Y713D01*
X3130Y436D02*
X3131Y435D01*
Y414D02*
Y435D01*
X3111Y387D02*
Y436D01*
X3070Y434D02*
X3071Y436D01*
X3059Y434D02*
X3070D01*
X3170Y534D02*
X3181D01*
X3181Y534D01*
X3091Y407D02*
Y436D01*
D51*
X3103Y851D02*
X3103Y851D01*
X1812Y1472D02*
X1812Y1472D01*
Y1517D01*
X1663Y1249D02*
X1721D01*
X1722Y1250D01*
X1038Y1014D02*
X1044Y1020D01*
X1089D01*
X994Y1278D02*
X1026Y1246D01*
X994Y1213D02*
X1025Y1243D01*
X932Y1126D02*
X958Y1100D01*
X932Y1126D02*
Y1148D01*
Y1362D02*
X955Y1385D01*
X932Y1343D02*
Y1362D01*
X1019Y1278D02*
X1034Y1263D01*
X994Y1278D02*
X1019D01*
X1034Y1261D02*
Y1263D01*
Y1246D02*
X1069D01*
X1013Y1213D02*
X1034Y1234D01*
X994Y1213D02*
X1013D01*
X1663Y1305D02*
X1663Y1305D01*
Y1249D02*
Y1305D01*
Y1190D02*
Y1249D01*
X1834Y1059D02*
X1852Y1041D01*
Y1004D02*
Y1041D01*
X1800Y1004D02*
X1800Y1004D01*
X1852D01*
X1852Y946D02*
X1852Y946D01*
Y1004D01*
X2602Y1033D02*
Y1086D01*
Y967D02*
Y1033D01*
Y1086D02*
X2603Y1086D01*
X2948Y908D02*
X3008D01*
X3103Y851D02*
Y911D01*
X2898Y-750D02*
Y-258D01*
X2866Y-227D02*
X2898Y-258D01*
D52*
X2060Y-782D02*
Y-182D01*
D53*
X1210Y1191D02*
X1234Y1166D01*
X1210Y1191D02*
Y1197D01*
X1170Y1246D02*
X1180Y1256D01*
X1121Y1246D02*
X1170D01*
X1187Y1249D02*
X1210Y1226D01*
X1180Y1256D02*
X1187Y1249D01*
X1210Y1213D02*
Y1226D01*
X1187Y1235D02*
Y1249D01*
Y1235D02*
X1210Y1213D01*
Y1197D02*
Y1213D01*
X1028Y1148D02*
X1106Y1226D01*
X994Y1148D02*
X1028D01*
X1106Y1226D02*
X1121D01*
X1069Y1246D02*
X1121D01*
X1251Y1083D02*
Y1110D01*
X1190Y1171D02*
X1251Y1110D01*
X1190Y1171D02*
Y1197D01*
X1150Y1172D02*
Y1197D01*
X1089Y1111D02*
X1150Y1172D01*
X1089Y1083D02*
Y1111D01*
X1095Y1266D02*
X1121D01*
X1018Y1343D02*
X1095Y1266D01*
X994Y1343D02*
X1018D01*
D54*
X3104Y1073D02*
Y1330D01*
X2832Y1073D02*
X2832Y1073D01*
X2832Y995D02*
Y1073D01*
X2832Y1073D02*
X3104D01*
D55*
X1580Y1199D02*
D03*
D56*
X1534D02*
D03*
D57*
X1559Y1313D02*
D03*
D58*
X1533Y1273D02*
D03*
D59*
X2060Y-782D02*
D03*
Y-182D02*
D03*
X1860Y-782D02*
D03*
X1760D02*
D03*
X1660D02*
D03*
X1160D02*
D03*
X1060D02*
D03*
X1860Y-182D02*
D03*
X1760D02*
D03*
X1160D02*
D03*
X1060D02*
D03*
X1660D02*
D03*
D60*
X775Y1975D02*
D03*
X875D02*
D03*
X975D02*
D03*
X1075D02*
D03*
X1175D02*
D03*
X1275D02*
D03*
X1375D02*
D03*
X1475D02*
D03*
X1575D02*
D03*
X1675D02*
D03*
X1775D02*
D03*
X1875D02*
D03*
X1975D02*
D03*
X2075D02*
D03*
X2175D02*
D03*
X2275D02*
D03*
X2375D02*
D03*
X2475D02*
D03*
X2575D02*
D03*
X2675D02*
D03*
X2775D02*
D03*
X2875D02*
D03*
X2975D02*
D03*
X775Y2075D02*
D03*
X875D02*
D03*
X975D02*
D03*
X1075D02*
D03*
X1175D02*
D03*
X1275D02*
D03*
X1375D02*
D03*
X1475D02*
D03*
X1575D02*
D03*
X1675D02*
D03*
X1775D02*
D03*
X1875D02*
D03*
X1975D02*
D03*
X2075D02*
D03*
X2175D02*
D03*
X2275D02*
D03*
X2375D02*
D03*
X2475D02*
D03*
X2575D02*
D03*
X2675D02*
D03*
X2775D02*
D03*
X2875D02*
D03*
X2975Y2076D02*
D03*
X775Y75D02*
D03*
X875D02*
D03*
X975D02*
D03*
X1075D02*
D03*
X1175D02*
D03*
X1275D02*
D03*
X1375D02*
D03*
X1475D02*
D03*
X1575D02*
D03*
X1675D02*
D03*
X1775D02*
D03*
X1875D02*
D03*
X1975D02*
D03*
X2075D02*
D03*
X2175D02*
D03*
X2275D02*
D03*
X2375D02*
D03*
X2475D02*
D03*
X2575D02*
D03*
X2675D02*
D03*
X2775D02*
D03*
X2875D02*
D03*
X2975D02*
D03*
X775Y175D02*
D03*
X875D02*
D03*
X975D02*
D03*
X1075D02*
D03*
X1175D02*
D03*
X1275D02*
D03*
X1375D02*
D03*
X1475D02*
D03*
X1575D02*
D03*
X1675D02*
D03*
X1775D02*
D03*
X1875D02*
D03*
X1975D02*
D03*
X2075D02*
D03*
X2175D02*
D03*
X2275D02*
D03*
X2375D02*
D03*
X2475D02*
D03*
X2575D02*
D03*
X2675D02*
D03*
X2775D02*
D03*
X2875D02*
D03*
X2975Y176D02*
D03*
D61*
X1875Y1189D02*
D03*
Y1089D02*
D03*
Y1139D02*
D03*
X1439Y1807D02*
D03*
X1539D02*
D03*
X1489D02*
D03*
D62*
X3152Y-351D02*
D03*
Y-201D02*
D03*
Y-501D02*
D03*
D63*
X2470Y-586D02*
D03*
X3188Y1563D02*
D03*
Y1063D02*
D03*
Y63D02*
D03*
X3063Y-187D02*
D03*
X3188Y-437D02*
D03*
X3063Y-687D02*
D03*
X2938Y1563D02*
D03*
X2813Y313D02*
D03*
Y-187D02*
D03*
X2938Y-437D02*
D03*
X2813Y-687D02*
D03*
X2563Y813D02*
D03*
X2688Y563D02*
D03*
X2563Y313D02*
D03*
Y-187D02*
D03*
X2688Y-437D02*
D03*
X2563Y-687D02*
D03*
X2313Y-187D02*
D03*
X1813Y1313D02*
D03*
X1938Y1063D02*
D03*
X1813Y813D02*
D03*
X1938Y-437D02*
D03*
X1688Y1063D02*
D03*
X1563Y-187D02*
D03*
Y-687D02*
D03*
X1313Y1813D02*
D03*
X1438Y1063D02*
D03*
X1313Y813D02*
D03*
Y313D02*
D03*
Y-187D02*
D03*
X1438Y-437D02*
D03*
X1313Y-687D02*
D03*
X1063Y1813D02*
D03*
Y813D02*
D03*
X1188Y563D02*
D03*
X1063Y313D02*
D03*
X1188Y-437D02*
D03*
X1063Y-687D02*
D03*
X813Y1813D02*
D03*
X938Y1063D02*
D03*
X813Y813D02*
D03*
Y313D02*
D03*
X938Y-437D02*
D03*
X813Y-687D02*
D03*
X563Y1813D02*
D03*
X688Y1563D02*
D03*
X563Y813D02*
D03*
X688Y563D02*
D03*
X563Y313D02*
D03*
X688Y63D02*
D03*
X563Y-187D02*
D03*
Y-687D02*
D03*
X438Y1563D02*
D03*
X313Y813D02*
D03*
X438Y563D02*
D03*
X313Y313D02*
D03*
X438Y63D02*
D03*
X313Y-187D02*
D03*
Y-687D02*
D03*
X63Y1813D02*
D03*
X188Y1563D02*
D03*
X63Y813D02*
D03*
X188Y563D02*
D03*
X63Y313D02*
D03*
X188Y63D02*
D03*
X63Y-187D02*
D03*
X188Y-437D02*
D03*
X63Y-687D02*
D03*
X943Y677D02*
D03*
X912Y677D02*
D03*
X1123Y972D02*
D03*
X1124Y941D02*
D03*
Y910D02*
D03*
Y879D02*
D03*
X1123Y848D02*
D03*
X1099Y760D02*
D03*
X1074Y740D02*
D03*
X1053Y719D02*
D03*
X1031Y697D02*
D03*
X1005Y679D02*
D03*
X974D02*
D03*
X882Y671D02*
D03*
X866Y645D02*
D03*
X865Y614D02*
D03*
Y583D02*
D03*
X870Y553D02*
D03*
X1042Y556D02*
D03*
X1053Y585D02*
D03*
X1074Y607D02*
D03*
X1096Y629D02*
D03*
X1118Y651D02*
D03*
X1149Y647D02*
D03*
X1180D02*
D03*
X1211Y647D02*
D03*
X1242Y647D02*
D03*
X1273D02*
D03*
X1302Y657D02*
D03*
X1315Y685D02*
D03*
X1316Y716D02*
D03*
X1316Y747D02*
D03*
X1303Y776D02*
D03*
X1275Y787D02*
D03*
X1244D02*
D03*
X1229Y815D02*
D03*
X1221Y845D02*
D03*
X1219Y876D02*
D03*
Y907D02*
D03*
Y938D02*
D03*
Y969D02*
D03*
X1538Y314D02*
D03*
X1539Y283D02*
D03*
X1557Y257D02*
D03*
X1587Y251D02*
D03*
X1618D02*
D03*
X1649Y252D02*
D03*
X1680Y251D02*
D03*
X1711D02*
D03*
X1741Y259D02*
D03*
X1661Y504D02*
D03*
X1353Y468D02*
D03*
X1340Y440D02*
D03*
X1340Y409D02*
D03*
Y378D02*
D03*
X1349Y348D02*
D03*
X1376Y333D02*
D03*
X1407Y333D02*
D03*
X1438D02*
D03*
X1469D02*
D03*
X1500Y338D02*
D03*
X1519Y362D02*
D03*
X1535Y388D02*
D03*
X1458Y679D02*
D03*
X1427D02*
D03*
X1396D02*
D03*
X1365Y676D02*
D03*
X1343Y654D02*
D03*
X1340Y623D02*
D03*
Y592D02*
D03*
X1342Y561D02*
D03*
X1355Y534D02*
D03*
X1549Y608D02*
D03*
X1527Y630D02*
D03*
X1491Y678D02*
D03*
X1742Y464D02*
D03*
X1713Y451D02*
D03*
X1684Y461D02*
D03*
X1756Y314D02*
D03*
X1778Y292D02*
D03*
X1807Y280D02*
D03*
X1838Y277D02*
D03*
X1869Y277D02*
D03*
X1900Y279D02*
D03*
X1931D02*
D03*
X1962Y276D02*
D03*
X1993Y276D02*
D03*
X2024D02*
D03*
X2055Y275D02*
D03*
X1821Y450D02*
D03*
X1796Y469D02*
D03*
X1949Y720D02*
D03*
X1919Y713D02*
D03*
X1676Y549D02*
D03*
X1707Y554D02*
D03*
X1737Y549D02*
D03*
X1767Y540D02*
D03*
X1798Y542D02*
D03*
X1966Y615D02*
D03*
X1954Y580D02*
D03*
X1979Y562D02*
D03*
X1913Y497D02*
D03*
X1998Y442D02*
D03*
X2087Y608D02*
D03*
X2066Y630D02*
D03*
X2085Y412D02*
D03*
X2082Y381D02*
D03*
X2082Y291D02*
D03*
X2109Y276D02*
D03*
X2140Y275D02*
D03*
X2171Y281D02*
D03*
X2190Y305D02*
D03*
X2192Y336D02*
D03*
X2190Y367D02*
D03*
X2180Y396D02*
D03*
X2187Y426D02*
D03*
X2218Y430D02*
D03*
X2242Y448D02*
D03*
X2264Y470D02*
D03*
X2286Y492D02*
D03*
X2316Y499D02*
D03*
X2338Y521D02*
D03*
X2342Y552D02*
D03*
X2341Y583D02*
D03*
X2354Y611D02*
D03*
X2037Y862D02*
D03*
X2006Y860D02*
D03*
X1982Y841D02*
D03*
X1976Y810D02*
D03*
Y779D02*
D03*
X1979Y748D02*
D03*
X2001Y726D02*
D03*
X2038Y725D02*
D03*
X2075D02*
D03*
X2346Y655D02*
D03*
X2355Y685D02*
D03*
X2361Y715D02*
D03*
X2391Y718D02*
D03*
X2422Y718D02*
D03*
X2453Y718D02*
D03*
X2484Y718D02*
D03*
X2513Y731D02*
D03*
X2524Y760D02*
D03*
Y791D02*
D03*
X2523Y822D02*
D03*
X2509Y849D02*
D03*
X2479Y859D02*
D03*
X2448D02*
D03*
X2078Y900D02*
D03*
X2081Y869D02*
D03*
X2410Y851D02*
D03*
X2423Y897D02*
D03*
X2424Y935D02*
D03*
X2426Y966D02*
D03*
X2271Y1178D02*
D03*
X2233Y1178D02*
D03*
X2616Y1149D02*
D03*
X2662Y1164D02*
D03*
X2775Y1266D02*
D03*
X2734Y1269D02*
D03*
X2628Y1250D02*
D03*
X2623Y1292D02*
D03*
X2622Y1395D02*
D03*
X2668D02*
D03*
X2703Y1402D02*
D03*
X2735Y1390D02*
D03*
X2772Y1395D02*
D03*
X2809Y1394D02*
D03*
X2300Y1246D02*
D03*
X2313Y1218D02*
D03*
X2333Y1193D02*
D03*
X2357Y1174D02*
D03*
X2385Y1161D02*
D03*
X2415Y1154D02*
D03*
X2446Y1153D02*
D03*
X2475Y1142D02*
D03*
X2506Y1141D02*
D03*
X2599Y1258D02*
D03*
X2568Y1260D02*
D03*
X2446Y1248D02*
D03*
X2876Y1402D02*
D03*
X2846Y1395D02*
D03*
X2834Y1247D02*
D03*
X2841Y1217D02*
D03*
X2924Y1213D02*
D03*
X2934Y1243D02*
D03*
X2946Y1271D02*
D03*
X2977Y1266D02*
D03*
X2985Y1399D02*
D03*
X2954Y1397D02*
D03*
X2924Y1400D02*
D03*
X3333Y600D02*
D03*
X1467Y1556D02*
D03*
X3056Y736D02*
D03*
X3087Y735D02*
D03*
X3103Y851D02*
D03*
X2777Y1665D02*
D03*
X1564Y1447D02*
D03*
X1607Y1438D02*
D03*
X1611Y1503D02*
D03*
X3000Y393D02*
D03*
X2663Y1122D02*
D03*
X2784Y1141D02*
D03*
X2780Y886D02*
D03*
X2791Y1198D02*
D03*
X2719Y1181D02*
D03*
X2860Y1578D02*
D03*
X2835Y1602D02*
D03*
X2800Y1613D02*
D03*
X2754Y1179D02*
D03*
X2626Y1930D02*
D03*
X2279Y1904D02*
D03*
X2583Y1899D02*
D03*
X2552Y1895D02*
D03*
X2415Y1649D02*
D03*
X2297Y1650D02*
D03*
X2555Y-600D02*
D03*
X2693Y1714D02*
D03*
X2716Y1745D02*
D03*
X2749Y1790D02*
D03*
X2009Y1587D02*
D03*
X2664Y1794D02*
D03*
X2009Y1551D02*
D03*
X1625Y823D02*
D03*
X1740Y824D02*
D03*
X1674Y838D02*
D03*
X2639Y1705D02*
D03*
X2588Y1708D02*
D03*
X2613Y1678D02*
D03*
X2562Y1667D02*
D03*
X1581Y1391D02*
D03*
X2537Y1684D02*
D03*
X1753Y1472D02*
D03*
X1812Y1472D02*
D03*
X1769Y1523D02*
D03*
X3154Y1565D02*
D03*
X3129Y1546D02*
D03*
X3104Y1565D02*
D03*
X3078Y1545D02*
D03*
X3052Y1565D02*
D03*
X1746Y1500D02*
D03*
X1746Y1551D02*
D03*
X1749Y1602D02*
D03*
X1753Y1653D02*
D03*
X1770Y1628D02*
D03*
X1769Y1573D02*
D03*
X3027Y1545D02*
D03*
X3002Y1561D02*
D03*
X2975Y1552D02*
D03*
X1615Y1352D02*
D03*
X682Y1613D02*
D03*
X2424Y1874D02*
D03*
X1539Y1292D02*
D03*
X454Y1746D02*
D03*
X405Y1704D02*
D03*
X779Y-430D02*
D03*
X737Y-408D02*
D03*
X2961Y-258D02*
D03*
X3002Y-215D02*
D03*
X2703Y-227D02*
D03*
X2764Y-273D02*
D03*
X3309Y-252D02*
D03*
X2399Y-384D02*
D03*
X2309Y-344D02*
D03*
X2559Y-351D02*
D03*
X2169Y-485D02*
D03*
X2248D02*
D03*
X2060Y-460D02*
D03*
X2060Y-383D02*
D03*
Y-317D02*
D03*
Y-258D02*
D03*
Y-548D02*
D03*
X775Y-543D02*
D03*
X738Y-522D02*
D03*
X2948Y-108D02*
D03*
X3001Y-139D02*
D03*
X1234Y1166D02*
D03*
X1038Y1014D02*
D03*
X958Y1100D02*
D03*
X955Y1385D02*
D03*
X1034Y1261D02*
D03*
Y1234D02*
D03*
X1663Y1305D02*
D03*
X1663Y1190D02*
D03*
X1722Y1250D02*
D03*
X1834Y1059D02*
D03*
X1800Y1004D02*
D03*
X1852Y946D02*
D03*
X2603Y1086D02*
D03*
X3158Y311D02*
D03*
X2831Y1745D02*
D03*
X2863Y1872D02*
D03*
X139Y1752D02*
D03*
X1365Y1152D02*
D03*
X1273Y1343D02*
D03*
X1326Y1649D02*
D03*
X1569Y1199D02*
D03*
X1570Y1308D02*
D03*
X1534Y1235D02*
D03*
X1738Y642D02*
D03*
X1952Y326D02*
D03*
X1853D02*
D03*
X1964Y666D02*
D03*
X1032Y1593D02*
D03*
X1339Y1540D02*
D03*
X1343Y1577D02*
D03*
X1033Y1745D02*
D03*
X1951Y463D02*
D03*
X2025Y539D02*
D03*
X3008Y908D02*
D03*
X1918Y1640D02*
D03*
X2442Y1296D02*
D03*
X2310Y1276D02*
D03*
X2415Y1250D02*
D03*
X2112Y1672D02*
D03*
D64*
X3189Y1945D02*
D03*
X3136Y1941D02*
D03*
X3092Y1909D02*
D03*
X3170Y1782D02*
D03*
X3167Y1733D02*
D03*
X3129Y1704D02*
D03*
X3081Y1706D02*
D03*
X3031Y1708D02*
D03*
X2855Y477D02*
D03*
M02*
