G75*
%MOIN*%
%OFA0B0*%
%FSLAX24Y24*%
%IPPOS*%
%LPD*%
%AMOC8*
5,1,8,0,0,1.08239X$1,22.5*
%
%ADD10C,0.0051*%
%ADD11C,0.0060*%
%ADD12C,0.0050*%
%ADD13C,0.0020*%
%ADD14C,0.0000*%
D10*
X000492Y000126D02*
X008031Y000126D01*
X001385Y001149D02*
X001260Y000126D01*
X001362Y001149D01*
X001385Y001149D02*
X001134Y001149D01*
X001260Y000126D01*
X001157Y001149D01*
X001208Y001149D02*
X001260Y000126D01*
X001311Y001149D01*
X001260Y000126D02*
X001260Y021622D01*
X001362Y020598D01*
X001385Y020598D02*
X001260Y021622D01*
X001157Y020598D01*
X001134Y020598D02*
X001385Y020598D01*
X001311Y020598D02*
X001260Y021622D01*
X001208Y020598D01*
X001134Y020598D02*
X001260Y021622D01*
X000492Y021622D02*
X008011Y021622D01*
X008011Y022822D01*
X008011Y022055D02*
X009035Y021952D01*
X009035Y021929D02*
X008011Y022055D01*
X009035Y022157D01*
X009035Y022180D02*
X009035Y021929D01*
X009035Y022004D02*
X008011Y022055D01*
X009035Y022106D01*
X009035Y022180D02*
X008011Y022055D01*
X036260Y022055D01*
X035236Y021952D01*
X035236Y021929D02*
X036260Y022055D01*
X035236Y022157D01*
X035236Y022180D02*
X035236Y021929D01*
X035236Y022004D02*
X036260Y022055D01*
X035236Y022106D01*
X035236Y022180D02*
X036260Y022055D01*
X036260Y022822D02*
X036260Y014870D01*
D11*
X023592Y022418D02*
X023485Y022311D01*
X023272Y022311D01*
X023165Y022418D01*
X023165Y022631D02*
X023379Y022738D01*
X023485Y022738D01*
X023592Y022631D01*
X023592Y022418D01*
X023165Y022631D02*
X023165Y022951D01*
X023592Y022951D01*
X022948Y022951D02*
X022948Y022845D01*
X022521Y022418D01*
X022521Y022311D01*
X022305Y022311D02*
X022198Y022311D01*
X022198Y022418D01*
X022305Y022418D01*
X022305Y022311D01*
X021981Y022311D02*
X021554Y022311D01*
X021767Y022311D02*
X021767Y022951D01*
X021554Y022738D01*
X021336Y022845D02*
X021336Y022951D01*
X020909Y022951D01*
X021336Y022845D02*
X020909Y022418D01*
X020909Y022311D01*
X022521Y022951D02*
X022948Y022951D01*
X001003Y011858D02*
X001003Y011645D01*
X000897Y011538D01*
X000683Y011538D01*
X000683Y011858D01*
X000790Y011965D01*
X000897Y011965D01*
X001003Y011858D01*
X000683Y011538D02*
X000470Y011752D01*
X000363Y011965D01*
X000897Y011323D02*
X001003Y011323D01*
X001003Y011216D01*
X000897Y011216D01*
X000897Y011323D01*
X000683Y010998D02*
X000683Y010571D01*
X000363Y010892D01*
X001003Y010892D01*
X000897Y010354D02*
X000683Y010354D01*
X000576Y010247D01*
X000576Y010140D01*
X000683Y009927D01*
X000363Y009927D01*
X000363Y010354D01*
X000897Y010354D02*
X001003Y010247D01*
X001003Y010033D01*
X000897Y009927D01*
D12*
X008013Y005126D02*
X008106Y005128D01*
X008199Y005134D01*
X008291Y005143D01*
X008383Y005157D01*
X008475Y005174D01*
X008565Y005195D01*
X008655Y005220D01*
X008744Y005248D01*
X008831Y005280D01*
X008917Y005316D01*
X009001Y005355D01*
X009084Y005397D01*
X009165Y005443D01*
X009244Y005492D01*
X009320Y005545D01*
X009395Y005600D01*
X009467Y005659D01*
X009537Y005721D01*
X009604Y005785D01*
X009668Y005852D01*
X009730Y005922D01*
X009789Y005994D01*
X009844Y006069D01*
X009897Y006145D01*
X009946Y006224D01*
X009992Y006305D01*
X010034Y006388D01*
X010073Y006472D01*
X010109Y006558D01*
X010141Y006645D01*
X010169Y006734D01*
X010194Y006824D01*
X010215Y006914D01*
X010232Y007006D01*
X010246Y007098D01*
X010255Y007190D01*
X010261Y007283D01*
X010263Y007376D01*
X010263Y014376D01*
X010261Y014469D01*
X010255Y014562D01*
X010246Y014654D01*
X010232Y014746D01*
X010215Y014838D01*
X010194Y014928D01*
X010169Y015018D01*
X010141Y015107D01*
X010109Y015194D01*
X010073Y015280D01*
X010034Y015364D01*
X009992Y015447D01*
X009946Y015528D01*
X009897Y015607D01*
X009844Y015683D01*
X009789Y015758D01*
X009730Y015830D01*
X009668Y015900D01*
X009604Y015967D01*
X009537Y016031D01*
X009467Y016093D01*
X009395Y016152D01*
X009320Y016207D01*
X009244Y016260D01*
X009165Y016309D01*
X009084Y016355D01*
X009001Y016397D01*
X008917Y016436D01*
X008831Y016472D01*
X008744Y016504D01*
X008655Y016532D01*
X008565Y016557D01*
X008475Y016578D01*
X008383Y016595D01*
X008291Y016609D01*
X008199Y016618D01*
X008106Y016624D01*
X008013Y016626D01*
X008013Y021626D01*
X031263Y021626D01*
X031403Y021624D01*
X031543Y021618D01*
X031683Y021608D01*
X031823Y021595D01*
X031962Y021577D01*
X032101Y021555D01*
X032238Y021530D01*
X032376Y021501D01*
X032512Y021468D01*
X032647Y021431D01*
X032781Y021390D01*
X032914Y021345D01*
X033046Y021297D01*
X033176Y021245D01*
X033305Y021190D01*
X033432Y021131D01*
X033558Y021068D01*
X033682Y021002D01*
X033803Y020933D01*
X033923Y020860D01*
X034041Y020783D01*
X034156Y020704D01*
X034270Y020621D01*
X034380Y020535D01*
X034489Y020446D01*
X034595Y020354D01*
X034698Y020259D01*
X034799Y020162D01*
X034896Y020061D01*
X034991Y019958D01*
X035083Y019852D01*
X035172Y019743D01*
X035258Y019633D01*
X035341Y019519D01*
X035420Y019404D01*
X035497Y019286D01*
X035570Y019166D01*
X035639Y019045D01*
X035705Y018921D01*
X035768Y018795D01*
X035827Y018668D01*
X035882Y018539D01*
X035934Y018409D01*
X035982Y018277D01*
X036027Y018144D01*
X036068Y018010D01*
X036105Y017875D01*
X036138Y017739D01*
X036167Y017601D01*
X036192Y017464D01*
X036214Y017325D01*
X036232Y017186D01*
X036245Y017046D01*
X036255Y016906D01*
X036261Y016766D01*
X036263Y016626D01*
X036263Y005126D01*
X036261Y004986D01*
X036255Y004846D01*
X036245Y004706D01*
X036232Y004566D01*
X036214Y004427D01*
X036192Y004288D01*
X036167Y004151D01*
X036138Y004013D01*
X036105Y003877D01*
X036068Y003742D01*
X036027Y003608D01*
X035982Y003475D01*
X035934Y003343D01*
X035882Y003213D01*
X035827Y003084D01*
X035768Y002957D01*
X035705Y002831D01*
X035639Y002707D01*
X035570Y002586D01*
X035497Y002466D01*
X035420Y002348D01*
X035341Y002233D01*
X035258Y002119D01*
X035172Y002009D01*
X035083Y001900D01*
X034991Y001794D01*
X034896Y001691D01*
X034799Y001590D01*
X034698Y001493D01*
X034595Y001398D01*
X034489Y001306D01*
X034380Y001217D01*
X034270Y001131D01*
X034156Y001048D01*
X034041Y000969D01*
X033923Y000892D01*
X033803Y000819D01*
X033682Y000750D01*
X033558Y000684D01*
X033432Y000621D01*
X033305Y000562D01*
X033176Y000507D01*
X033046Y000455D01*
X032914Y000407D01*
X032781Y000362D01*
X032647Y000321D01*
X032512Y000284D01*
X032376Y000251D01*
X032238Y000222D01*
X032101Y000197D01*
X031962Y000175D01*
X031823Y000157D01*
X031683Y000144D01*
X031543Y000134D01*
X031403Y000128D01*
X031263Y000126D01*
X008013Y000126D01*
X008013Y005126D01*
X017124Y013947D02*
X017124Y017697D01*
X018624Y017697D01*
X018624Y013947D01*
X017124Y013947D01*
X024157Y008858D02*
X026952Y008858D01*
X026952Y007067D01*
X024157Y007067D01*
X024157Y008858D01*
D13*
X029960Y015311D02*
X031574Y015311D01*
X031574Y016708D01*
X029960Y016708D01*
X029960Y015311D01*
D14*
X020716Y004815D02*
X020718Y004838D01*
X020724Y004861D01*
X020734Y004882D01*
X020747Y004902D01*
X020763Y004919D01*
X020782Y004933D01*
X020803Y004943D01*
X020825Y004950D01*
X020848Y004953D01*
X020872Y004952D01*
X020894Y004947D01*
X020916Y004938D01*
X020936Y004926D01*
X020954Y004910D01*
X020968Y004892D01*
X020980Y004872D01*
X020988Y004850D01*
X020992Y004827D01*
X020992Y004803D01*
X020988Y004780D01*
X020980Y004758D01*
X020968Y004738D01*
X020954Y004720D01*
X020936Y004704D01*
X020916Y004692D01*
X020894Y004683D01*
X020872Y004678D01*
X020848Y004677D01*
X020825Y004680D01*
X020803Y004687D01*
X020782Y004697D01*
X020763Y004711D01*
X020747Y004728D01*
X020734Y004748D01*
X020724Y004769D01*
X020718Y004792D01*
X020716Y004815D01*
X024083Y004027D02*
X024085Y004061D01*
X024091Y004095D01*
X024101Y004128D01*
X024114Y004159D01*
X024132Y004189D01*
X024152Y004217D01*
X024176Y004242D01*
X024202Y004264D01*
X024230Y004282D01*
X024261Y004298D01*
X024293Y004310D01*
X024327Y004318D01*
X024361Y004322D01*
X024395Y004322D01*
X024429Y004318D01*
X024463Y004310D01*
X024495Y004298D01*
X024525Y004282D01*
X024554Y004264D01*
X024580Y004242D01*
X024604Y004217D01*
X024624Y004189D01*
X024642Y004159D01*
X024655Y004128D01*
X024665Y004095D01*
X024671Y004061D01*
X024673Y004027D01*
X024671Y003993D01*
X024665Y003959D01*
X024655Y003926D01*
X024642Y003895D01*
X024624Y003865D01*
X024604Y003837D01*
X024580Y003812D01*
X024554Y003790D01*
X024526Y003772D01*
X024495Y003756D01*
X024463Y003744D01*
X024429Y003736D01*
X024395Y003732D01*
X024361Y003732D01*
X024327Y003736D01*
X024293Y003744D01*
X024261Y003756D01*
X024230Y003772D01*
X024202Y003790D01*
X024176Y003812D01*
X024152Y003837D01*
X024132Y003865D01*
X024114Y003895D01*
X024101Y003926D01*
X024091Y003959D01*
X024085Y003993D01*
X024083Y004027D01*
M02*
