G75*
%MOIN*%
%OFA0B0*%
%FSLAX24Y24*%
%IPPOS*%
%LPD*%
%AMOC8*
5,1,8,0,0,1.08239X$1,22.5*
%
%ADD10R,0.0530X0.0245*%
%ADD11C,0.0680*%
%ADD12C,0.1080*%
%ADD13C,0.1330*%
%ADD14R,0.0651X0.0651*%
%ADD15R,0.0277X0.0198*%
%ADD16R,0.0220X0.0940*%
%ADD17R,0.0434X0.0356*%
%ADD18R,0.0356X0.0434*%
%ADD19R,0.0860X0.0300*%
%ADD20R,0.0789X0.0926*%
%ADD21R,0.0926X0.0789*%
%ADD22R,0.0200X0.0400*%
%ADD23R,0.0400X0.0200*%
%ADD24R,0.0810X0.0810*%
%ADD25R,0.0198X0.0198*%
%ADD26R,0.0328X0.0407*%
%ADD27R,0.0217X0.0630*%
%ADD28R,0.0552X0.1064*%
%ADD29C,0.0820*%
%ADD30R,0.0674X0.0674*%
%ADD31C,0.0674*%
%ADD32C,0.0820*%
%ADD33C,0.0556*%
%ADD34C,0.0671*%
%ADD35C,0.0356*%
%ADD36R,0.0880X0.0340*%
%ADD37R,0.0340X0.0880*%
%ADD38C,0.0360*%
%ADD39C,0.0358*%
D10*
X016899Y014197D03*
X016899Y014447D03*
X016899Y014697D03*
X016899Y014947D03*
X016899Y015197D03*
X016899Y015447D03*
X016899Y015697D03*
X016899Y015947D03*
X016899Y016197D03*
X016899Y016447D03*
X016899Y016697D03*
X016899Y016947D03*
X016899Y017197D03*
X016899Y017447D03*
X018849Y017447D03*
X018849Y017197D03*
X018849Y016947D03*
X018849Y016697D03*
X018849Y016447D03*
X018849Y016197D03*
X018849Y015947D03*
X018849Y015697D03*
X018849Y015447D03*
X018849Y015197D03*
X018849Y014947D03*
X018849Y014697D03*
X018849Y014447D03*
X018849Y014197D03*
D11*
X033763Y015126D03*
D12*
X033763Y013451D03*
X033763Y016801D03*
D13*
X032523Y016801D03*
X032523Y013451D03*
D14*
X030767Y015635D03*
X030767Y016403D03*
D15*
X030078Y016216D03*
X030078Y015822D03*
X030078Y015429D03*
X031456Y015429D03*
X031456Y015822D03*
X031456Y016216D03*
X031456Y016610D03*
X030078Y016610D03*
D16*
X028231Y013024D03*
X027981Y013024D03*
X027731Y013024D03*
X027481Y013024D03*
X027231Y013024D03*
X026981Y013024D03*
X026731Y013024D03*
X026481Y013024D03*
X026231Y013024D03*
X025981Y013024D03*
X025981Y011164D03*
X026231Y011164D03*
X026481Y011164D03*
X026731Y011164D03*
X026981Y011164D03*
X027231Y011164D03*
X027481Y011164D03*
X027731Y011164D03*
X027981Y011164D03*
X028231Y011164D03*
D17*
X024870Y012582D03*
X024870Y013094D03*
X029291Y013901D03*
X029291Y014413D03*
X029303Y015708D03*
X029303Y016220D03*
X029523Y017889D03*
X029523Y018401D03*
X030114Y018397D03*
X030114Y017885D03*
X030858Y017874D03*
X030858Y018385D03*
X025130Y018299D03*
X025130Y017787D03*
X025106Y016905D03*
X025106Y016393D03*
X020571Y008004D03*
X020571Y007492D03*
X021389Y007661D03*
X021389Y007149D03*
X011712Y003307D03*
X011712Y002795D03*
D18*
X013039Y002909D03*
X013551Y002909D03*
X013606Y004114D03*
X013094Y004114D03*
X013043Y004767D03*
X013555Y004767D03*
X013574Y005409D03*
X013063Y005409D03*
X010405Y005228D03*
X009893Y005228D03*
X009854Y004244D03*
X010366Y004244D03*
X010366Y003515D03*
X009854Y003515D03*
X017240Y007720D03*
X017752Y007720D03*
X021181Y010421D03*
X021693Y010421D03*
X021823Y012228D03*
X021311Y012228D03*
X020027Y012968D03*
X019515Y012968D03*
X018645Y012362D03*
X018134Y012362D03*
X018248Y013362D03*
X017736Y013362D03*
X024677Y010240D03*
X025189Y010240D03*
X025204Y009374D03*
X024693Y009374D03*
X026307Y009370D03*
X026819Y009370D03*
X026819Y010118D03*
X026307Y010118D03*
X027173Y013937D03*
X027685Y013937D03*
X027504Y014846D03*
X026992Y014846D03*
X025700Y014807D03*
X025189Y014807D03*
X025177Y014145D03*
X025689Y014145D03*
X025697Y015547D03*
X025185Y015547D03*
X026496Y015846D03*
X027008Y015846D03*
X027019Y016433D03*
X026508Y016433D03*
X030421Y014303D03*
X030933Y014303D03*
D19*
X028210Y017238D03*
X028210Y017738D03*
X028210Y018238D03*
X028210Y018738D03*
X026270Y018738D03*
X026270Y018238D03*
X026270Y017738D03*
X026270Y017238D03*
D20*
X023807Y011824D03*
X023807Y010663D03*
D21*
X022447Y011200D03*
X021285Y011200D03*
D22*
X012106Y005420D03*
X011909Y005420D03*
X011712Y005420D03*
X011515Y005420D03*
X011515Y004280D03*
X011712Y004280D03*
X011909Y004280D03*
X012106Y004280D03*
D23*
X012381Y004555D03*
X012381Y004752D03*
X012381Y004948D03*
X012381Y005145D03*
X011241Y005145D03*
X011241Y004948D03*
X011241Y004752D03*
X011241Y004555D03*
D24*
X011811Y004850D03*
D25*
X024275Y007165D03*
X024275Y007362D03*
X024275Y007559D03*
X024275Y007756D03*
X024275Y007952D03*
X024275Y008149D03*
X024275Y008346D03*
X024275Y008543D03*
X024275Y008740D03*
X025653Y008149D03*
X025850Y008149D03*
X025850Y007559D03*
X026637Y007362D03*
X026834Y007362D03*
X026834Y007559D03*
X026834Y007756D03*
X026834Y008149D03*
X026834Y008346D03*
X026834Y008543D03*
X026637Y008543D03*
X026834Y008740D03*
X026834Y007165D03*
D26*
X023090Y007153D03*
X022185Y007153D03*
X022189Y008039D03*
X023094Y008039D03*
X023082Y008885D03*
X023086Y009759D03*
X022181Y009759D03*
X022177Y008885D03*
D27*
X020053Y008607D03*
X019797Y008607D03*
X019541Y008607D03*
X019285Y008607D03*
X019029Y008607D03*
X018773Y008607D03*
X018517Y008607D03*
X018261Y008607D03*
X018006Y008607D03*
X017750Y008607D03*
X017494Y008607D03*
X017238Y008607D03*
X017238Y011486D03*
X017494Y011486D03*
X017750Y011486D03*
X018006Y011486D03*
X018261Y011486D03*
X018517Y011486D03*
X018773Y011486D03*
X019029Y011486D03*
X019285Y011486D03*
X019541Y011486D03*
X019797Y011486D03*
X020053Y011486D03*
D28*
X018791Y005992D03*
X017492Y005992D03*
D29*
X017787Y004220D02*
X017787Y003480D01*
X018787Y003480D02*
X018787Y004220D01*
D30*
X009763Y000876D03*
X009763Y019876D03*
D31*
X010763Y019876D03*
X011763Y019876D03*
X012763Y019876D03*
X013763Y019876D03*
X014763Y019876D03*
X015763Y019876D03*
X016763Y019876D03*
X017763Y019876D03*
X018763Y019876D03*
X019763Y019876D03*
X020763Y019876D03*
X021763Y019876D03*
X022763Y019876D03*
X023763Y019876D03*
X024763Y019876D03*
X025763Y019876D03*
X026763Y019876D03*
X027763Y019876D03*
X028763Y019876D03*
X029763Y019876D03*
X030763Y019876D03*
X031763Y019876D03*
X031763Y020876D03*
X030763Y020876D03*
X029763Y020876D03*
X028763Y020876D03*
X027763Y020876D03*
X026763Y020876D03*
X025763Y020876D03*
X024763Y020876D03*
X023763Y020876D03*
X022763Y020876D03*
X021763Y020876D03*
X020763Y020876D03*
X019763Y020876D03*
X018763Y020876D03*
X017763Y020876D03*
X016763Y020876D03*
X015763Y020876D03*
X014763Y020876D03*
X013763Y020876D03*
X012763Y020876D03*
X011763Y020876D03*
X010763Y020876D03*
X009763Y020876D03*
X009763Y001876D03*
X010763Y001876D03*
X011763Y001876D03*
X012763Y001876D03*
X013763Y001876D03*
X014763Y001876D03*
X015763Y001876D03*
X016763Y001876D03*
X017763Y001876D03*
X018763Y001876D03*
X019763Y001876D03*
X020763Y001876D03*
X021763Y001876D03*
X022763Y001876D03*
X023763Y001876D03*
X024763Y001876D03*
X025763Y001876D03*
X026763Y001876D03*
X027763Y001876D03*
X028763Y001876D03*
X029763Y001876D03*
X030763Y001876D03*
X031763Y001876D03*
X031763Y000876D03*
X030763Y000876D03*
X029763Y000876D03*
X028763Y000876D03*
X027763Y000876D03*
X026763Y000876D03*
X025763Y000876D03*
X024763Y000876D03*
X023763Y000876D03*
X022763Y000876D03*
X021763Y000876D03*
X020763Y000876D03*
X019763Y000876D03*
X018763Y000876D03*
X017763Y000876D03*
X016763Y000876D03*
X015763Y000876D03*
X014763Y000876D03*
X013763Y000876D03*
X012763Y000876D03*
X011763Y000876D03*
X010763Y000876D03*
D32*
X023043Y005944D03*
X026043Y005944D03*
D33*
X027378Y004527D03*
X026799Y004027D03*
X027370Y003515D03*
X021378Y003527D03*
X021385Y004515D03*
D34*
X024378Y004027D03*
D35*
X020854Y004815D03*
D36*
X016054Y006380D03*
X016054Y006880D03*
X016054Y007380D03*
X016054Y007880D03*
X016054Y008380D03*
X016054Y008880D03*
X016054Y009380D03*
X016054Y009880D03*
X016054Y010380D03*
X016054Y010880D03*
X012094Y010880D03*
X012094Y010380D03*
X012094Y009880D03*
X012094Y009380D03*
X012094Y008880D03*
X012094Y008380D03*
X012094Y007880D03*
X012094Y007380D03*
X012094Y006880D03*
X012094Y006380D03*
D37*
X019817Y014209D03*
X020317Y014209D03*
X020817Y014209D03*
X021317Y014209D03*
X021817Y014209D03*
X022317Y014209D03*
X022817Y014209D03*
X023317Y014209D03*
X023817Y014209D03*
X024317Y014209D03*
X024317Y018169D03*
X023817Y018169D03*
X023317Y018169D03*
X022817Y018169D03*
X022317Y018169D03*
X021817Y018169D03*
X021317Y018169D03*
X020817Y018169D03*
X020317Y018169D03*
X019817Y018169D03*
X015576Y018484D03*
X015076Y018484D03*
X014576Y018484D03*
X014076Y018484D03*
X013576Y018484D03*
X013076Y018484D03*
X012576Y018484D03*
X012076Y018484D03*
X011576Y018484D03*
X011076Y018484D03*
X011076Y014524D03*
X011576Y014524D03*
X012076Y014524D03*
X012576Y014524D03*
X013076Y014524D03*
X013576Y014524D03*
X014076Y014524D03*
X014576Y014524D03*
X015076Y014524D03*
X015576Y014524D03*
D38*
X015143Y013886D03*
X015143Y013246D03*
X013303Y011246D03*
X014023Y010606D03*
X012983Y009006D03*
X012983Y008366D03*
X013143Y007406D03*
X013543Y007406D03*
X013863Y006846D03*
X012743Y005726D03*
X012423Y004206D03*
X016823Y006766D03*
X016823Y007166D03*
X016823Y007566D03*
X016823Y008206D03*
X018183Y007726D03*
X018903Y007646D03*
X019863Y006286D03*
X018743Y009166D03*
X019783Y009806D03*
X021143Y009166D03*
X020183Y010926D03*
X019063Y012046D03*
X017383Y010126D03*
X016663Y010126D03*
X017063Y009166D03*
X011463Y009806D03*
X011143Y010606D03*
X013623Y015166D03*
X014023Y015166D03*
X014583Y015726D03*
X013223Y015886D03*
X012583Y015639D03*
X011863Y015966D03*
X010503Y016148D03*
X010183Y016606D03*
X011543Y017326D03*
X017383Y019326D03*
X020903Y019006D03*
X022983Y019086D03*
X025463Y018686D03*
X026183Y019086D03*
X026903Y018686D03*
X026903Y017806D03*
X024583Y016686D03*
X024263Y017166D03*
X026103Y016126D03*
X026503Y015246D03*
X026983Y015326D03*
X026183Y014286D03*
X026583Y013726D03*
X026983Y012366D03*
X027623Y011886D03*
X025143Y010846D03*
X022183Y012606D03*
X024743Y014046D03*
X024823Y014526D03*
X024583Y014846D03*
X030023Y014286D03*
D39*
X029724Y015106D03*
X025551Y018256D03*
X022716Y017389D03*
X020610Y017389D03*
X018366Y015204D03*
X019271Y014948D03*
X018326Y014633D03*
X017400Y014947D03*
X016319Y014417D03*
X017323Y013807D03*
X016594Y013019D03*
X015905Y012527D03*
X015216Y011878D03*
X016693Y011641D03*
X015216Y010696D03*
X014842Y010401D03*
X014606Y009279D03*
X014153Y008885D03*
X014291Y007724D03*
X016909Y009535D03*
X017047Y010086D03*
X018641Y012881D03*
X025571Y011228D03*
X025728Y009515D03*
X024626Y007763D03*
X020590Y006779D03*
X015216Y003334D03*
X014606Y004240D03*
X014606Y005322D03*
X012401Y005874D03*
X012756Y003748D03*
M02*
