G04 Layer_Physical_Order=3*
G04 Layer_Color=128*
%FSLAX23Y23*%
%MOIN*%
G70*
G01*
G75*
%ADD32C,0.030*%
G04:AMPARAMS|DCode=44|XSize=99.37mil|YSize=99.37mil|CornerRadius=0mil|HoleSize=0mil|Usage=FLASHONLY|Rotation=0.000|XOffset=0mil|YOffset=0mil|HoleType=Round|Shape=Relief|Width=20mil|Gap=10mil|Entries=4|*
%AMTHD44*
7,0,0,0.099,0.079,0.020,45*
%
%ADD44THD44*%
%ADD45C,0.055*%
%ADD46C,0.063*%
G04:AMPARAMS|DCode=47|XSize=107.244mil|YSize=107.244mil|CornerRadius=0mil|HoleSize=0mil|Usage=FLASHONLY|Rotation=0.000|XOffset=0mil|YOffset=0mil|HoleType=Round|Shape=Relief|Width=20mil|Gap=10mil|Entries=4|*
%AMTHD47*
7,0,0,0.107,0.087,0.020,45*
%
%ADD47THD47*%
%ADD49C,0.028*%
%ADD50C,0.036*%
%ADD51C,0.154*%
D32*
X0Y0D02*
X1402D01*
Y3250D01*
X0D02*
X1402D01*
X0Y0D02*
Y3250D01*
D44*
X540Y74D02*
D03*
X202Y701D02*
D03*
X302D02*
D03*
D45*
X440Y74D02*
D03*
X288Y2764D02*
D03*
Y2664D02*
D03*
X160Y2304D02*
D03*
Y2204D02*
D03*
Y1781D02*
D03*
Y1681D02*
D03*
X802Y1301D02*
D03*
X202D02*
D03*
X302D02*
D03*
X902D02*
D03*
X1002D02*
D03*
X802Y701D02*
D03*
X902D02*
D03*
X1002D02*
D03*
X1202Y1301D02*
D03*
Y701D02*
D03*
D46*
X414Y247D02*
D03*
D47*
X564D02*
D03*
D49*
X1339Y3027D02*
D03*
Y2227D02*
D03*
Y1827D02*
D03*
Y1427D02*
D03*
Y1027D02*
D03*
Y627D02*
D03*
Y227D02*
D03*
X1139Y3027D02*
D03*
Y2627D02*
D03*
X1239Y2427D02*
D03*
X1139Y2227D02*
D03*
X1239Y2027D02*
D03*
X1139Y1827D02*
D03*
X1239Y1627D02*
D03*
X1139Y627D02*
D03*
X1239Y427D02*
D03*
X1139Y227D02*
D03*
X939Y3027D02*
D03*
X1039Y2427D02*
D03*
X939Y2227D02*
D03*
X1039Y2027D02*
D03*
Y1627D02*
D03*
Y1227D02*
D03*
Y827D02*
D03*
X939Y627D02*
D03*
X1039Y427D02*
D03*
X939Y227D02*
D03*
X739Y3027D02*
D03*
Y2627D02*
D03*
Y2227D02*
D03*
X839Y2027D02*
D03*
Y1627D02*
D03*
X739Y1427D02*
D03*
Y1027D02*
D03*
Y627D02*
D03*
X539Y3027D02*
D03*
Y2627D02*
D03*
Y2227D02*
D03*
X639Y2027D02*
D03*
X539Y1827D02*
D03*
Y1427D02*
D03*
X639Y1227D02*
D03*
X539Y1027D02*
D03*
X639Y827D02*
D03*
X539Y627D02*
D03*
X639Y427D02*
D03*
X339Y3027D02*
D03*
Y2627D02*
D03*
X439Y2427D02*
D03*
X339Y1827D02*
D03*
X439Y1627D02*
D03*
X339Y1427D02*
D03*
X439Y1227D02*
D03*
X339Y1027D02*
D03*
X439Y827D02*
D03*
X339Y227D02*
D03*
X239Y2427D02*
D03*
Y2027D02*
D03*
Y1627D02*
D03*
X139Y1427D02*
D03*
X239Y1227D02*
D03*
X139Y1027D02*
D03*
X239Y827D02*
D03*
X139Y627D02*
D03*
X239Y427D02*
D03*
X292Y2838D02*
D03*
X261D02*
D03*
X231Y2829D02*
D03*
X203Y2815D02*
D03*
X172D02*
D03*
X141D02*
D03*
X111Y2822D02*
D03*
X80Y2823D02*
D03*
X49D02*
D03*
X45Y2713D02*
D03*
X76D02*
D03*
X107D02*
D03*
X137Y2721D02*
D03*
X168D02*
D03*
X199D02*
D03*
X228Y2710D02*
D03*
X347Y2711D02*
D03*
X376Y2721D02*
D03*
X406Y2714D02*
D03*
X437Y2707D02*
D03*
X468Y2708D02*
D03*
X474Y2828D02*
D03*
X443Y2829D02*
D03*
X412Y2825D02*
D03*
X383Y2815D02*
D03*
X352Y2818D02*
D03*
X327Y2837D02*
D03*
X770Y2283D02*
D03*
X865Y2226D02*
D03*
X849Y2110D02*
D03*
X818Y2111D02*
D03*
X892Y2833D02*
D03*
X917Y2815D02*
D03*
X947Y2809D02*
D03*
X978D02*
D03*
X1009D02*
D03*
X1040D02*
D03*
X1071D02*
D03*
X1102D02*
D03*
X1133D02*
D03*
X1164D02*
D03*
X1195D02*
D03*
X1226D02*
D03*
X1257D02*
D03*
X1288Y2815D02*
D03*
X1319Y2817D02*
D03*
X1350D02*
D03*
X1366Y2707D02*
D03*
X1335D02*
D03*
X1304D02*
D03*
X1274Y2715D02*
D03*
X1243D02*
D03*
X1212D02*
D03*
X1181D02*
D03*
X1150D02*
D03*
X1119D02*
D03*
X1088D02*
D03*
X1057D02*
D03*
X1026D02*
D03*
X995D02*
D03*
X964D02*
D03*
X933D02*
D03*
X922Y2686D02*
D03*
Y2655D02*
D03*
Y2624D02*
D03*
Y2593D02*
D03*
Y2562D02*
D03*
Y2531D02*
D03*
X936Y2503D02*
D03*
X937Y2472D02*
D03*
Y2441D02*
D03*
Y2410D02*
D03*
X929Y2380D02*
D03*
X902Y2365D02*
D03*
X871Y2364D02*
D03*
X840D02*
D03*
X810Y2373D02*
D03*
X786Y2392D02*
D03*
X761Y2373D02*
D03*
X732Y2364D02*
D03*
X701D02*
D03*
X670Y2365D02*
D03*
X648Y2308D02*
D03*
X618Y2299D02*
D03*
X587D02*
D03*
X556Y2300D02*
D03*
X530Y2318D02*
D03*
X524Y2348D02*
D03*
Y2379D02*
D03*
X525Y2410D02*
D03*
X524Y2441D02*
D03*
Y2472D02*
D03*
X532Y2502D02*
D03*
X558Y2518D02*
D03*
X589Y2519D02*
D03*
X620D02*
D03*
X651Y2524D02*
D03*
X681Y2532D02*
D03*
X712D02*
D03*
X743Y2532D02*
D03*
X769Y2515D02*
D03*
X800Y2512D02*
D03*
X810Y2541D02*
D03*
Y2572D02*
D03*
X814Y2819D02*
D03*
X841Y2834D02*
D03*
X686Y2836D02*
D03*
X716Y2833D02*
D03*
X747Y2835D02*
D03*
X778Y2832D02*
D03*
X739Y2702D02*
D03*
X708Y2707D02*
D03*
X696Y2679D02*
D03*
X686Y2649D02*
D03*
X603Y2653D02*
D03*
X596Y2683D02*
D03*
X638Y2838D02*
D03*
X559Y2699D02*
D03*
X529Y2707D02*
D03*
X498D02*
D03*
X508Y2829D02*
D03*
X538Y2832D02*
D03*
X569Y2838D02*
D03*
X600D02*
D03*
D50*
X460Y1947D02*
D03*
X869Y1868D02*
D03*
X491Y1731D02*
D03*
X784Y1705D02*
D03*
D51*
X140Y140D02*
D03*
X1262D02*
D03*
Y3110D02*
D03*
X140D02*
D03*
M02*
