M48
;Layer_Color=9474304
;FILE_FORMAT=2:3
INCH,LZ
;TYPE=PLATED
T1F00S00C0.012
T2F00S00C0.020
T3F00S00C0.039
T4F00S00C0.047
T5F00S00C0.138
%
T01
X00339Y00227
X00939
X01139
X01339
X00239Y00427
X00139Y00627
X00239Y00827
X00139Y01027
X00239Y01227
X00139Y01427
X00239Y01627
X00439
X00539Y01827
X00339
Y01427
X00539
X00739
X00839Y01627
X0092Y01686
X01039Y01627
X01239
X01339Y01827
X01139
X00762Y01768
X00639Y01227
X00439
X00539Y01027
X00739
X00639Y00827
X00439
X00539Y00627
X00739
X00939
X01139
X01339
X01239Y00427
X01039
Y00827
Y01227
X01339Y01427
Y01027
X00339
X00639Y00427
Y02027
X00839
X00849Y0211
X00818Y02111
X00865Y02226
X00939Y02227
X00929Y0238
X00937Y0241
Y02441
Y02472
X00936Y02503
X00922Y02531
Y02562
Y02593
Y02624
Y02655
Y02686
X00933Y02715
X00964
X00995
X01026
X01057
X01088
X01119
X0115
X01181
X01212
X01243
X01274
X01304Y02707
X01335
X01366
X0135Y02817
X01319
X01288Y02815
X01257Y02809
X01226
X01195
X01164
X01133
X01102
X01071
X0104
X01009
X00978
X00947
X00917Y02815
X00892Y02833
X00841Y02834
X00814Y02819
X00778Y02832
X00747Y02835
X00716Y02833
X00686Y02836
X00638Y02838
X006
X00569
X00538Y02832
X00508Y02829
X00474Y02828
X00443Y02829
X00412Y02825
X00383Y02815
X00352Y02818
X00327Y02837
X00347Y02711
X00376Y02721
X00406Y02714
X00437Y02707
X00468Y02708
X00498Y02707
X00529
X00559Y02699
X00596Y02683
X00603Y02653
X00686Y02649
X00696Y02679
X00708Y02707
X00739Y02702
X00739Y02627
X00743Y02532
X00712Y02532
X00681
X00651Y02524
X0062Y02519
X00589
X00558Y02518
X00532Y02502
X00524Y02472
Y02441
X00525Y0241
X00524Y02379
Y02348
X0053Y02318
X00556Y023
X00587Y02299
X00618
X00648Y02308
X0067Y02365
X00701Y02364
X00732
X00761Y02373
X00786Y02392
X0081Y02373
X0084Y02364
X00871
X00902Y02365
X01039Y02427
X01239
X01339Y02227
X01139
X01095Y01975
X01039Y02027
X01239
X01139Y02627
X0081Y02572
Y02541
X008Y02512
X00769Y02515
X0077Y02283
X00739Y02227
X00539
X00439Y02427
X00539Y02627
X00339
Y03027
X00539
X00739
X00939
X01139
X01339
X00292Y02838
X00261
X00231Y02829
X00203Y02815
X00172
X00141
X00111Y02822
X0008Y02823
X00049
X00045Y02713
X00076
X00107
X00137Y02721
X00168
X00199
X00228Y0271
X00239Y02427
Y02027
T02
X00491Y01731
X00784Y01705
X00869Y01868
X0046Y01947
T03
X0044Y00074
X0054
X00302Y00701
X00202
Y01301
X00302
X0016Y01681
Y01781
X00802Y01301
X00902
X01002
X01202
Y00701
X01002
X00902
X00802
X0016Y02204
Y02304
X00288Y02664
Y02764
T04
X00414Y00247
X00564
T05
X01262Y0014
X0014
X01262Y0311
X0014
M30
