G04 Layer_Color=32896*
%FSLAX23Y23*%
%MOIN*%
G70*
G01*
G75*
%ADD77C,0.008*%
%ADD78C,0.012*%
D77*
X2835Y1925D02*
Y1945D01*
Y2105D02*
Y2125D01*
X2915Y2105D02*
Y2125D01*
Y1925D02*
Y1945D01*
X2835Y1925D02*
X2915D01*
X2835Y2125D02*
X2915D01*
X2815Y2105D02*
X2835D01*
X2815Y1945D02*
X2835D01*
X2820Y2105D02*
X2830D01*
X2820Y1945D02*
X2830D01*
X3025Y1925D02*
Y2125D01*
X2935Y1925D02*
Y1945D01*
Y2105D02*
Y2125D01*
X3025D01*
Y1925D02*
Y2125D01*
X2935Y1925D02*
X3025D01*
X2915Y2105D02*
X2935D01*
X2915Y1945D02*
X2935D01*
X2920Y2105D02*
X2930D01*
X2920Y1945D02*
X2930D01*
X2735Y1925D02*
Y1945D01*
Y2105D02*
Y2125D01*
X2815Y2105D02*
Y2125D01*
Y1925D02*
Y1945D01*
X2735Y1925D02*
X2815D01*
X2735Y2125D02*
X2815D01*
X2635Y1925D02*
Y1945D01*
Y2105D02*
Y2125D01*
X2715Y2105D02*
Y2125D01*
Y1925D02*
Y1945D01*
Y2105D02*
X2735D01*
X2715Y1945D02*
X2735D01*
X2635Y1925D02*
X2715D01*
X2635Y2125D02*
X2715D01*
X2720Y2105D02*
X2730D01*
X2720Y1945D02*
X2730D01*
X2535Y1925D02*
Y1945D01*
Y2105D02*
Y2125D01*
X2615Y2105D02*
Y2125D01*
Y1925D02*
Y1945D01*
Y2105D02*
X2635D01*
X2615Y1945D02*
X2635D01*
X2535Y1925D02*
X2615D01*
X2535Y2125D02*
X2615D01*
X2620Y2105D02*
X2630D01*
X2620Y1945D02*
X2630D01*
X2435Y1925D02*
Y1945D01*
Y2105D02*
Y2125D01*
X2515Y2105D02*
Y2125D01*
Y1925D02*
Y1945D01*
Y2105D02*
X2535D01*
X2515Y1945D02*
X2535D01*
X2435Y1925D02*
X2515D01*
X2435Y2125D02*
X2515D01*
X2520Y2105D02*
X2530D01*
X2520Y1945D02*
X2530D01*
X2335Y1925D02*
Y1945D01*
Y2105D02*
Y2125D01*
X2415Y2105D02*
Y2125D01*
Y1925D02*
Y1945D01*
Y2105D02*
X2435D01*
X2415Y1945D02*
X2435D01*
X2335Y1925D02*
X2415D01*
X2335Y2125D02*
X2415D01*
X2420Y2105D02*
X2430D01*
X2420Y1945D02*
X2430D01*
X2235Y1925D02*
Y1945D01*
Y2105D02*
Y2125D01*
X2315Y2105D02*
Y2125D01*
Y1925D02*
Y1945D01*
Y2105D02*
X2335D01*
X2315Y1945D02*
X2335D01*
X2235Y1925D02*
X2315D01*
X2235Y2125D02*
X2315D01*
X2320Y2105D02*
X2330D01*
X2320Y1945D02*
X2330D01*
X2135Y1925D02*
Y1945D01*
Y2105D02*
Y2125D01*
X2215Y2105D02*
Y2125D01*
Y1925D02*
Y1945D01*
Y2105D02*
X2235D01*
X2215Y1945D02*
X2235D01*
X2135Y1925D02*
X2215D01*
X2135Y2125D02*
X2215D01*
X2220Y2105D02*
X2230D01*
X2220Y1945D02*
X2230D01*
X2035Y1925D02*
Y1945D01*
Y2105D02*
Y2125D01*
X2115Y2105D02*
Y2125D01*
Y1925D02*
Y1945D01*
Y2105D02*
X2135D01*
X2115Y1945D02*
X2135D01*
X2035Y1925D02*
X2115D01*
X2035Y2125D02*
X2115D01*
X2120Y2105D02*
X2130D01*
X2120Y1945D02*
X2130D01*
X1935Y1925D02*
Y1945D01*
Y2105D02*
Y2125D01*
X2015Y2105D02*
Y2125D01*
Y1925D02*
Y1945D01*
Y2105D02*
X2035D01*
X2015Y1945D02*
X2035D01*
X1935Y1925D02*
X2015D01*
X1935Y2125D02*
X2015D01*
X2020Y2105D02*
X2030D01*
X2020Y1945D02*
X2030D01*
X1835Y1925D02*
Y1945D01*
Y2105D02*
Y2125D01*
X1915Y2105D02*
Y2125D01*
Y1925D02*
Y1945D01*
Y2105D02*
X1935D01*
X1915Y1945D02*
X1935D01*
X1835Y1925D02*
X1915D01*
X1835Y2125D02*
X1915D01*
X1920Y2105D02*
X1930D01*
X1920Y1945D02*
X1930D01*
X1735Y1925D02*
Y1945D01*
Y2105D02*
Y2125D01*
X1815Y2105D02*
Y2125D01*
Y1925D02*
Y1945D01*
Y2105D02*
X1835D01*
X1815Y1945D02*
X1835D01*
X1735Y1925D02*
X1815D01*
X1735Y2125D02*
X1815D01*
X1820Y2105D02*
X1830D01*
X1820Y1945D02*
X1830D01*
X1635Y1925D02*
Y1945D01*
Y2105D02*
Y2125D01*
X1715Y2105D02*
Y2125D01*
Y1925D02*
Y1945D01*
Y2105D02*
X1735D01*
X1715Y1945D02*
X1735D01*
X1635Y1925D02*
X1715D01*
X1635Y2125D02*
X1715D01*
X1720Y2105D02*
X1730D01*
X1720Y1945D02*
X1730D01*
X1535Y1925D02*
Y1945D01*
Y2105D02*
Y2125D01*
X1615Y2105D02*
Y2125D01*
Y1925D02*
Y1945D01*
Y2105D02*
X1635D01*
X1615Y1945D02*
X1635D01*
X1535Y1925D02*
X1615D01*
X1535Y2125D02*
X1615D01*
X1620Y2105D02*
X1630D01*
X1620Y1945D02*
X1630D01*
X1435Y1925D02*
Y1945D01*
Y2105D02*
Y2125D01*
X1515Y2105D02*
Y2125D01*
Y1925D02*
Y1945D01*
Y2105D02*
X1535D01*
X1515Y1945D02*
X1535D01*
X1435Y1925D02*
X1515D01*
X1435Y2125D02*
X1515D01*
X1520Y2105D02*
X1530D01*
X1520Y1945D02*
X1530D01*
X1335Y1925D02*
Y1945D01*
Y2105D02*
Y2125D01*
X1415Y2105D02*
Y2125D01*
Y1925D02*
Y1945D01*
Y2105D02*
X1435D01*
X1415Y1945D02*
X1435D01*
X1335Y1925D02*
X1415D01*
X1335Y2125D02*
X1415D01*
X1420Y2105D02*
X1430D01*
X1420Y1945D02*
X1430D01*
X1235Y1925D02*
Y1945D01*
Y2105D02*
Y2125D01*
X1315Y2105D02*
Y2125D01*
Y1925D02*
Y1945D01*
Y2105D02*
X1335D01*
X1315Y1945D02*
X1335D01*
X1235Y1925D02*
X1315D01*
X1235Y2125D02*
X1315D01*
X1320Y2105D02*
X1330D01*
X1320Y1945D02*
X1330D01*
X1135Y1925D02*
Y1945D01*
Y2105D02*
Y2125D01*
X1215Y2105D02*
Y2125D01*
Y1925D02*
Y1945D01*
Y2105D02*
X1235D01*
X1215Y1945D02*
X1235D01*
X1135Y1925D02*
X1215D01*
X1135Y2125D02*
X1215D01*
X1220Y2105D02*
X1230D01*
X1220Y1945D02*
X1230D01*
X1035Y1925D02*
Y1945D01*
Y2105D02*
Y2125D01*
X1115Y2105D02*
Y2125D01*
Y1925D02*
Y1945D01*
Y2105D02*
X1135D01*
X1115Y1945D02*
X1135D01*
X1035Y1925D02*
X1115D01*
X1035Y2125D02*
X1115D01*
X1120Y2105D02*
X1130D01*
X1120Y1945D02*
X1130D01*
X935Y1925D02*
Y1945D01*
Y2105D02*
Y2125D01*
X1015Y2105D02*
Y2125D01*
Y1925D02*
Y1945D01*
Y2105D02*
X1035D01*
X1015Y1945D02*
X1035D01*
X935Y1925D02*
X1015D01*
X935Y2125D02*
X1015D01*
X1020Y2105D02*
X1030D01*
X1020Y1945D02*
X1030D01*
X725Y1925D02*
Y2125D01*
X815Y2105D02*
Y2125D01*
Y1925D02*
Y1945D01*
Y2105D02*
X835D01*
X815Y1945D02*
X835D01*
Y1925D02*
Y1945D01*
Y2105D02*
Y2125D01*
X915Y2105D02*
Y2125D01*
Y1925D02*
Y1945D01*
Y2105D02*
X935D01*
X915Y1945D02*
X935D01*
X835Y1925D02*
X915D01*
X725D02*
X815D01*
X725Y2125D02*
X815D01*
X835D02*
X915D01*
X820Y2105D02*
X830D01*
X920D02*
X930D01*
X920Y1945D02*
X930D01*
X2835Y25D02*
Y45D01*
Y205D02*
Y225D01*
X2915Y205D02*
Y225D01*
Y25D02*
Y45D01*
X2835Y25D02*
X2915D01*
X2835Y225D02*
X2915D01*
X2815Y205D02*
X2835D01*
X2815Y45D02*
X2835D01*
X2820Y205D02*
X2830D01*
X2820Y45D02*
X2830D01*
X3025Y25D02*
Y225D01*
X2935Y25D02*
Y45D01*
Y205D02*
Y225D01*
X3025D01*
Y25D02*
Y225D01*
X2935Y25D02*
X3025D01*
X2915Y205D02*
X2935D01*
X2915Y45D02*
X2935D01*
X2920Y205D02*
X2930D01*
X2920Y45D02*
X2930D01*
X2735Y25D02*
Y45D01*
Y205D02*
Y225D01*
X2815Y205D02*
Y225D01*
Y25D02*
Y45D01*
X2735Y25D02*
X2815D01*
X2735Y225D02*
X2815D01*
X2635Y25D02*
Y45D01*
Y205D02*
Y225D01*
X2715Y205D02*
Y225D01*
Y25D02*
Y45D01*
Y205D02*
X2735D01*
X2715Y45D02*
X2735D01*
X2635Y25D02*
X2715D01*
X2635Y225D02*
X2715D01*
X2720Y205D02*
X2730D01*
X2720Y45D02*
X2730D01*
X2535Y25D02*
Y45D01*
Y205D02*
Y225D01*
X2615Y205D02*
Y225D01*
Y25D02*
Y45D01*
Y205D02*
X2635D01*
X2615Y45D02*
X2635D01*
X2535Y25D02*
X2615D01*
X2535Y225D02*
X2615D01*
X2620Y205D02*
X2630D01*
X2620Y45D02*
X2630D01*
X2435Y25D02*
Y45D01*
Y205D02*
Y225D01*
X2515Y205D02*
Y225D01*
Y25D02*
Y45D01*
Y205D02*
X2535D01*
X2515Y45D02*
X2535D01*
X2435Y25D02*
X2515D01*
X2435Y225D02*
X2515D01*
X2520Y205D02*
X2530D01*
X2520Y45D02*
X2530D01*
X2335Y25D02*
Y45D01*
Y205D02*
Y225D01*
X2415Y205D02*
Y225D01*
Y25D02*
Y45D01*
Y205D02*
X2435D01*
X2415Y45D02*
X2435D01*
X2335Y25D02*
X2415D01*
X2335Y225D02*
X2415D01*
X2420Y205D02*
X2430D01*
X2420Y45D02*
X2430D01*
X2235Y25D02*
Y45D01*
Y205D02*
Y225D01*
X2315Y205D02*
Y225D01*
Y25D02*
Y45D01*
Y205D02*
X2335D01*
X2315Y45D02*
X2335D01*
X2235Y25D02*
X2315D01*
X2235Y225D02*
X2315D01*
X2320Y205D02*
X2330D01*
X2320Y45D02*
X2330D01*
X2135Y25D02*
Y45D01*
Y205D02*
Y225D01*
X2215Y205D02*
Y225D01*
Y25D02*
Y45D01*
Y205D02*
X2235D01*
X2215Y45D02*
X2235D01*
X2135Y25D02*
X2215D01*
X2135Y225D02*
X2215D01*
X2220Y205D02*
X2230D01*
X2220Y45D02*
X2230D01*
X2035Y25D02*
Y45D01*
Y205D02*
Y225D01*
X2115Y205D02*
Y225D01*
Y25D02*
Y45D01*
Y205D02*
X2135D01*
X2115Y45D02*
X2135D01*
X2035Y25D02*
X2115D01*
X2035Y225D02*
X2115D01*
X2120Y205D02*
X2130D01*
X2120Y45D02*
X2130D01*
X1935Y25D02*
Y45D01*
Y205D02*
Y225D01*
X2015Y205D02*
Y225D01*
Y25D02*
Y45D01*
Y205D02*
X2035D01*
X2015Y45D02*
X2035D01*
X1935Y25D02*
X2015D01*
X1935Y225D02*
X2015D01*
X2020Y205D02*
X2030D01*
X2020Y45D02*
X2030D01*
X1835Y25D02*
Y45D01*
Y205D02*
Y225D01*
X1915Y205D02*
Y225D01*
Y25D02*
Y45D01*
Y205D02*
X1935D01*
X1915Y45D02*
X1935D01*
X1835Y25D02*
X1915D01*
X1835Y225D02*
X1915D01*
X1920Y205D02*
X1930D01*
X1920Y45D02*
X1930D01*
X1735Y25D02*
Y45D01*
Y205D02*
Y225D01*
X1815Y205D02*
Y225D01*
Y25D02*
Y45D01*
Y205D02*
X1835D01*
X1815Y45D02*
X1835D01*
X1735Y25D02*
X1815D01*
X1735Y225D02*
X1815D01*
X1820Y205D02*
X1830D01*
X1820Y45D02*
X1830D01*
X1635Y25D02*
Y45D01*
Y205D02*
Y225D01*
X1715Y205D02*
Y225D01*
Y25D02*
Y45D01*
Y205D02*
X1735D01*
X1715Y45D02*
X1735D01*
X1635Y25D02*
X1715D01*
X1635Y225D02*
X1715D01*
X1720Y205D02*
X1730D01*
X1720Y45D02*
X1730D01*
X1535Y25D02*
Y45D01*
Y205D02*
Y225D01*
X1615Y205D02*
Y225D01*
Y25D02*
Y45D01*
Y205D02*
X1635D01*
X1615Y45D02*
X1635D01*
X1535Y25D02*
X1615D01*
X1535Y225D02*
X1615D01*
X1620Y205D02*
X1630D01*
X1620Y45D02*
X1630D01*
X1435Y25D02*
Y45D01*
Y205D02*
Y225D01*
X1515Y205D02*
Y225D01*
Y25D02*
Y45D01*
Y205D02*
X1535D01*
X1515Y45D02*
X1535D01*
X1435Y25D02*
X1515D01*
X1435Y225D02*
X1515D01*
X1520Y205D02*
X1530D01*
X1520Y45D02*
X1530D01*
X1335Y25D02*
Y45D01*
Y205D02*
Y225D01*
X1415Y205D02*
Y225D01*
Y25D02*
Y45D01*
Y205D02*
X1435D01*
X1415Y45D02*
X1435D01*
X1335Y25D02*
X1415D01*
X1335Y225D02*
X1415D01*
X1420Y205D02*
X1430D01*
X1420Y45D02*
X1430D01*
X1235Y25D02*
Y45D01*
Y205D02*
Y225D01*
X1315Y205D02*
Y225D01*
Y25D02*
Y45D01*
Y205D02*
X1335D01*
X1315Y45D02*
X1335D01*
X1235Y25D02*
X1315D01*
X1235Y225D02*
X1315D01*
X1320Y205D02*
X1330D01*
X1320Y45D02*
X1330D01*
X1135Y25D02*
Y45D01*
Y205D02*
Y225D01*
X1215Y205D02*
Y225D01*
Y25D02*
Y45D01*
Y205D02*
X1235D01*
X1215Y45D02*
X1235D01*
X1135Y25D02*
X1215D01*
X1135Y225D02*
X1215D01*
X1220Y205D02*
X1230D01*
X1220Y45D02*
X1230D01*
X1035Y25D02*
Y45D01*
Y205D02*
Y225D01*
X1115Y205D02*
Y225D01*
Y25D02*
Y45D01*
Y205D02*
X1135D01*
X1115Y45D02*
X1135D01*
X1035Y25D02*
X1115D01*
X1035Y225D02*
X1115D01*
X1120Y205D02*
X1130D01*
X1120Y45D02*
X1130D01*
X935Y25D02*
Y45D01*
Y205D02*
Y225D01*
X1015Y205D02*
Y225D01*
Y25D02*
Y45D01*
Y205D02*
X1035D01*
X1015Y45D02*
X1035D01*
X935Y25D02*
X1015D01*
X935Y225D02*
X1015D01*
X1020Y205D02*
X1030D01*
X1020Y45D02*
X1030D01*
X725Y25D02*
Y225D01*
X815Y205D02*
Y225D01*
Y25D02*
Y45D01*
Y205D02*
X835D01*
X815Y45D02*
X835D01*
Y25D02*
Y45D01*
Y205D02*
Y225D01*
X915Y205D02*
Y225D01*
Y25D02*
Y45D01*
Y205D02*
X935D01*
X915Y45D02*
X935D01*
X835Y25D02*
X915D01*
X725D02*
X815D01*
X725Y225D02*
X815D01*
X835D02*
X915D01*
X820Y205D02*
X830D01*
X920D02*
X930D01*
X920Y45D02*
X930D01*
X683Y2066D02*
Y2064D01*
X685Y2059D01*
X687Y2057D01*
X692Y2055D01*
X701D01*
X705Y2057D01*
X707Y2059D01*
X710Y2064D01*
Y2068D01*
X707Y2073D01*
X703Y2079D01*
X680Y2102D01*
X712D01*
X3074Y1943D02*
X3051Y1975D01*
X3085D01*
X3074Y1943D02*
Y1991D01*
X3120Y1943D02*
X3098D01*
X3096Y1964D01*
X3098Y1961D01*
X3105Y1959D01*
X3111D01*
X3118Y1961D01*
X3123Y1966D01*
X3125Y1973D01*
Y1977D01*
X3123Y1984D01*
X3118Y1988D01*
X3111Y1991D01*
X3105D01*
X3098Y1988D01*
X3096Y1986D01*
X3093Y1982D01*
X3079Y2053D02*
X3056Y2084D01*
X3090D01*
X3079Y2053D02*
Y2100D01*
X3125Y2059D02*
X3123Y2055D01*
X3116Y2053D01*
X3112D01*
X3105Y2055D01*
X3101Y2062D01*
X3098Y2073D01*
Y2084D01*
X3101Y2093D01*
X3105Y2098D01*
X3112Y2100D01*
X3114D01*
X3121Y2098D01*
X3125Y2093D01*
X3128Y2086D01*
Y2084D01*
X3125Y2077D01*
X3121Y2073D01*
X3114Y2071D01*
X3112D01*
X3105Y2073D01*
X3101Y2077D01*
X3098Y2084D01*
X690Y1955D02*
X695Y1953D01*
X702Y1946D01*
Y1993D01*
X683Y166D02*
Y164D01*
X685Y159D01*
X687Y157D01*
X692Y155D01*
X701D01*
X705Y157D01*
X707Y159D01*
X710Y164D01*
Y168D01*
X707Y173D01*
X703Y179D01*
X680Y202D01*
X712D01*
X3074Y43D02*
X3051Y75D01*
X3085D01*
X3074Y43D02*
Y91D01*
X3120Y43D02*
X3098D01*
X3096Y64D01*
X3098Y61D01*
X3105Y59D01*
X3111D01*
X3118Y61D01*
X3123Y66D01*
X3125Y73D01*
Y77D01*
X3123Y84D01*
X3118Y88D01*
X3111Y91D01*
X3105D01*
X3098Y88D01*
X3096Y86D01*
X3093Y82D01*
X3079Y153D02*
X3056Y184D01*
X3090D01*
X3079Y153D02*
Y200D01*
X3125Y159D02*
X3123Y155D01*
X3116Y153D01*
X3112D01*
X3105Y155D01*
X3101Y162D01*
X3098Y173D01*
Y184D01*
X3101Y193D01*
X3105Y198D01*
X3112Y200D01*
X3114D01*
X3121Y198D01*
X3125Y193D01*
X3128Y186D01*
Y184D01*
X3125Y177D01*
X3121Y173D01*
X3114Y171D01*
X3112D01*
X3105Y173D01*
X3101Y177D01*
X3098Y184D01*
X690Y55D02*
X695Y53D01*
X702Y46D01*
Y93D01*
D78*
X782Y2148D02*
G03*
X782Y2148I-6J0D01*
G01*
Y248D02*
G03*
X782Y248I-6J0D01*
G01*
M02*
