G04 Layer_Physical_Order=3*
G04 Layer_Color=128*
%FSLAX23Y23*%
%MOIN*%
G70*
G01*
G75*
%ADD48C,0.015*%
%ADD50C,0.010*%
%ADD54C,0.030*%
%ADD65C,0.055*%
G04:AMPARAMS|DCode=66|XSize=99.37mil|YSize=99.37mil|CornerRadius=0mil|HoleSize=0mil|Usage=FLASHONLY|Rotation=0.000|XOffset=0mil|YOffset=0mil|HoleType=Round|Shape=Relief|Width=20mil|Gap=10mil|Entries=4|*
%AMTHD66*
7,0,0,0.099,0.079,0.020,45*
%
%ADD66THD66*%
G04:AMPARAMS|DCode=67|XSize=88mil|YSize=88mil|CornerRadius=0mil|HoleSize=0mil|Usage=FLASHONLY|Rotation=0.000|XOffset=0mil|YOffset=0mil|HoleType=Round|Shape=Relief|Width=20mil|Gap=10mil|Entries=4|*
%AMTHD67*
7,0,0,0.088,0.068,0.020,45*
%
%ADD67THD67*%
%ADD68C,0.044*%
%ADD69C,0.063*%
%ADD71C,0.028*%
%ADD72C,0.036*%
%ADD73C,0.008*%
D48*
X771Y697D02*
X813Y739D01*
Y-9D02*
Y178D01*
X771Y220D02*
X813Y178D01*
X2371Y-528D02*
Y-252D01*
X2776Y1726D02*
X2846Y1656D01*
X1961Y-189D02*
X1990Y-160D01*
X1961Y-539D02*
Y-189D01*
Y-539D02*
X2067Y-645D01*
X2074D01*
X2130Y-589D01*
X2246D01*
X2272Y-563D01*
X2336D01*
X2371Y-528D01*
Y-252D02*
X2456Y-167D01*
X2477D01*
X2625Y-19D01*
Y-17D01*
X2639Y-3D01*
X2757D01*
X2941Y181D01*
Y417D01*
X2913Y445D02*
X2941Y417D01*
X2913Y445D02*
Y527D01*
X2903Y537D02*
X2913Y527D01*
X2825Y537D02*
X2903D01*
X2804Y516D02*
X2825Y537D01*
X2804Y457D02*
Y516D01*
Y457D02*
X2846Y415D01*
Y332D02*
Y415D01*
Y332D02*
X2872Y306D01*
Y235D02*
Y306D01*
X2782Y145D02*
X2872Y235D01*
X2620Y145D02*
X2782D01*
X2461Y-14D02*
X2620Y145D01*
X2192Y-14D02*
X2461D01*
X2126Y-80D02*
X2192Y-14D01*
X2046Y-80D02*
X2126D01*
X1990Y-136D02*
X2046Y-80D01*
X1990Y-160D02*
Y-136D01*
X1219Y1196D02*
X1240D01*
X1268Y1168D02*
X1280D01*
X980Y1434D02*
X1066Y1348D01*
X951Y1434D02*
X980D01*
X925Y1460D02*
X951Y1434D01*
X2846Y1656D02*
X2981D01*
X3147Y1822D01*
Y1854D01*
X3102Y1899D02*
X3147Y1854D01*
X2981Y1899D02*
X3102D01*
X2935Y1945D02*
X2981Y1899D01*
X1969Y1945D02*
X2935D01*
X1937Y1977D02*
X1969Y1945D01*
X728Y1977D02*
X1937D01*
X650Y2055D02*
X728Y1977D01*
X650Y2055D02*
Y2066D01*
X647Y2069D02*
X650Y2066D01*
X119Y2069D02*
X647D01*
X0Y1950D02*
X119Y2069D01*
X0Y1510D02*
Y1950D01*
Y1510D02*
X850D01*
Y840D02*
Y1510D01*
Y840D02*
X861Y829D01*
Y787D02*
Y829D01*
X813Y739D02*
X861Y787D01*
X771Y220D02*
Y697D01*
X813Y-9D02*
X849Y-45D01*
X879D01*
X925Y1D01*
Y1460D01*
X1066Y1348D02*
X1219Y1196D01*
X1240D02*
X1268Y1168D01*
X1280D02*
X1344Y1104D01*
X1354D01*
X1379Y1079D01*
X1414D01*
X1441Y1106D01*
Y1133D01*
X1401Y1173D02*
X1441Y1133D01*
X1354Y1173D02*
X1401D01*
X1306Y1220D02*
X1354Y1173D01*
X1294Y1220D02*
X1306D01*
X979Y1535D02*
X1294Y1220D01*
X925Y1535D02*
X979D01*
X865Y1595D02*
X925Y1535D01*
X795Y1595D02*
X865D01*
X737Y1652D02*
X795Y1595D01*
X701Y1652D02*
X737D01*
X669Y1684D02*
X701Y1652D01*
X669Y1684D02*
Y1813D01*
X724Y1868D01*
X1934D01*
X1953Y1849D01*
X2529D01*
X2552Y1826D01*
X2676D01*
X2776Y1726D01*
X1599Y1174D02*
X1629Y1204D01*
X1546Y1174D02*
X1599D01*
X1506Y1213D02*
X1546Y1174D01*
X1506Y1213D02*
Y1363D01*
X1451Y1418D02*
X1506Y1363D01*
X1375Y1418D02*
X1451D01*
X1366Y1409D02*
X1375Y1418D01*
X1366Y1313D02*
Y1409D01*
X1342Y1289D02*
X1366Y1313D01*
X1276Y1289D02*
X1342D01*
X1248Y1317D02*
X1276Y1289D01*
X1248Y1317D02*
Y1440D01*
X1288Y1479D01*
Y1726D01*
X1285Y1729D02*
X1288Y1726D01*
X1285Y1729D02*
X1446D01*
X1547Y1628D01*
Y1379D02*
Y1628D01*
Y1379D02*
X1629Y1297D01*
Y1204D02*
Y1297D01*
D50*
X451Y-809D02*
X443Y-801D01*
X426D01*
X418Y-809D01*
Y-818D01*
X426Y-826D01*
X443D01*
X451Y-834D01*
Y-843D01*
X443Y-851D01*
X426D01*
X418Y-843D01*
X468Y-851D02*
Y-843D01*
X476D01*
Y-851D01*
X468D01*
X593Y-801D02*
X576D01*
X585D01*
Y-843D01*
X576Y-851D01*
X568D01*
X560Y-843D01*
X618Y-818D02*
X635D01*
X643Y-826D01*
Y-851D01*
X618D01*
X610Y-843D01*
X618Y-834D01*
X643D01*
X668Y-851D02*
Y-809D01*
Y-826D01*
X660D01*
X676D01*
X668D01*
Y-809D01*
X676Y-801D01*
X710Y-818D02*
X726D01*
X735Y-826D01*
Y-851D01*
X710D01*
X701Y-843D01*
X710Y-834D01*
X735D01*
X751Y-818D02*
Y-851D01*
Y-834D01*
X760Y-826D01*
X768Y-818D01*
X776D01*
D54*
X0Y-650D02*
G03*
X250Y-900I250J0D01*
G01*
X2900D02*
G03*
X3400Y-400I0J500D01*
G01*
Y1650D02*
G03*
X2900Y2150I-500J0D01*
G01*
X250D02*
G03*
X0Y1900I0J-250D01*
G01*
X250Y-900D02*
X2900D01*
X3400Y-400D02*
Y1650D01*
X0Y-650D02*
Y840D01*
Y1510D02*
Y1900D01*
Y1510D02*
X850D01*
Y840D02*
Y1510D01*
X0Y840D02*
X850D01*
X250Y2150D02*
X2900D01*
D65*
X2060Y-782D02*
D03*
X1860D02*
D03*
X1760D02*
D03*
X1660D02*
D03*
X1860Y-182D02*
D03*
X1760D02*
D03*
X1160D02*
D03*
X1060D02*
D03*
X1660D02*
D03*
X775Y1975D02*
D03*
X875D02*
D03*
X975D02*
D03*
X1075D02*
D03*
X1175D02*
D03*
X1275D02*
D03*
X1375D02*
D03*
X1475D02*
D03*
X1575D02*
D03*
X1675D02*
D03*
X1775D02*
D03*
X1875D02*
D03*
X1975D02*
D03*
X2075D02*
D03*
X2175D02*
D03*
X2275D02*
D03*
X2375D02*
D03*
X2475D02*
D03*
X2575D02*
D03*
X2675D02*
D03*
X2775D02*
D03*
X2875D02*
D03*
X2975D02*
D03*
X775Y2075D02*
D03*
X875D02*
D03*
X975D02*
D03*
X1075D02*
D03*
X1175D02*
D03*
X1275D02*
D03*
X1375D02*
D03*
X1475D02*
D03*
X1575D02*
D03*
X1675D02*
D03*
X1775D02*
D03*
X1875D02*
D03*
X1975D02*
D03*
X2075D02*
D03*
X2175D02*
D03*
X2275D02*
D03*
X2375D02*
D03*
X2475D02*
D03*
X2575D02*
D03*
X2675D02*
D03*
X2775D02*
D03*
X2875D02*
D03*
X2975Y2076D02*
D03*
X775Y75D02*
D03*
X1075D02*
D03*
X1175D02*
D03*
X1275D02*
D03*
X1375D02*
D03*
X1475D02*
D03*
X1575D02*
D03*
X1675D02*
D03*
X1775D02*
D03*
X1875D02*
D03*
X1975D02*
D03*
X2075D02*
D03*
X2175D02*
D03*
X2275D02*
D03*
X2375D02*
D03*
X2475D02*
D03*
X2575D02*
D03*
X2675D02*
D03*
X2775D02*
D03*
X2875D02*
D03*
X2975D02*
D03*
X775Y175D02*
D03*
X1075D02*
D03*
X1175D02*
D03*
X1275D02*
D03*
X1375D02*
D03*
X1475D02*
D03*
X1575D02*
D03*
X1675D02*
D03*
X1775D02*
D03*
X1875D02*
D03*
X1975D02*
D03*
X2075D02*
D03*
X2175D02*
D03*
X2275D02*
D03*
X2375D02*
D03*
X2475D02*
D03*
X2575D02*
D03*
X2675D02*
D03*
X2775D02*
D03*
X2875D02*
D03*
X2975Y176D02*
D03*
D66*
X2060Y-182D02*
D03*
X1160Y-782D02*
D03*
X1060D02*
D03*
X875Y75D02*
D03*
X975D02*
D03*
X875Y175D02*
D03*
X975D02*
D03*
D67*
X1875Y1089D02*
D03*
D68*
Y1189D02*
D03*
Y1139D02*
D03*
X1439Y1807D02*
D03*
X1539D02*
D03*
X1489D02*
D03*
D69*
X3152Y-351D02*
D03*
Y-201D02*
D03*
Y-501D02*
D03*
D71*
X2470Y-586D02*
D03*
X3188Y1563D02*
D03*
Y1063D02*
D03*
Y63D02*
D03*
X3063Y-187D02*
D03*
X3188Y-437D02*
D03*
X3063Y-687D02*
D03*
X2938Y1563D02*
D03*
X2813Y313D02*
D03*
Y-187D02*
D03*
X2938Y-437D02*
D03*
X2813Y-687D02*
D03*
X2563Y813D02*
D03*
X2688Y563D02*
D03*
X2563Y313D02*
D03*
Y-187D02*
D03*
X2688Y-437D02*
D03*
X2563Y-687D02*
D03*
X2313Y-187D02*
D03*
X1813Y1313D02*
D03*
X1938Y1063D02*
D03*
X1813Y813D02*
D03*
X1938Y-437D02*
D03*
X1688Y1063D02*
D03*
X1563Y-187D02*
D03*
Y-687D02*
D03*
X1313Y1813D02*
D03*
X1438Y1063D02*
D03*
X1313Y813D02*
D03*
Y313D02*
D03*
Y-187D02*
D03*
X1438Y-437D02*
D03*
X1313Y-687D02*
D03*
X1063Y1813D02*
D03*
Y813D02*
D03*
X1188Y563D02*
D03*
X1063Y313D02*
D03*
X1188Y-437D02*
D03*
X1063Y-687D02*
D03*
X813Y1813D02*
D03*
X938Y1063D02*
D03*
X813Y813D02*
D03*
Y313D02*
D03*
X938Y-437D02*
D03*
X813Y-687D02*
D03*
X563Y1813D02*
D03*
X688Y1563D02*
D03*
X563Y813D02*
D03*
X688Y563D02*
D03*
X563Y313D02*
D03*
X688Y63D02*
D03*
X563Y-187D02*
D03*
Y-687D02*
D03*
X438Y1563D02*
D03*
X313Y813D02*
D03*
X438Y563D02*
D03*
X313Y313D02*
D03*
X438Y63D02*
D03*
X313Y-187D02*
D03*
Y-687D02*
D03*
X63Y1813D02*
D03*
X188Y1563D02*
D03*
X63Y813D02*
D03*
X188Y563D02*
D03*
X63Y313D02*
D03*
X188Y63D02*
D03*
X63Y-187D02*
D03*
X188Y-437D02*
D03*
X63Y-687D02*
D03*
X943Y677D02*
D03*
X912Y677D02*
D03*
X1123Y972D02*
D03*
X1124Y941D02*
D03*
Y910D02*
D03*
Y879D02*
D03*
X1123Y848D02*
D03*
X1099Y760D02*
D03*
X1074Y740D02*
D03*
X1053Y719D02*
D03*
X1031Y697D02*
D03*
X1005Y679D02*
D03*
X974D02*
D03*
X882Y671D02*
D03*
X866Y645D02*
D03*
X865Y614D02*
D03*
Y583D02*
D03*
X870Y553D02*
D03*
X1042Y556D02*
D03*
X1053Y585D02*
D03*
X1074Y607D02*
D03*
X1096Y629D02*
D03*
X1118Y651D02*
D03*
X1149Y647D02*
D03*
X1180D02*
D03*
X1211Y647D02*
D03*
X1242Y647D02*
D03*
X1273D02*
D03*
X1302Y657D02*
D03*
X1315Y685D02*
D03*
X1316Y716D02*
D03*
X1316Y747D02*
D03*
X1303Y776D02*
D03*
X1275Y787D02*
D03*
X1244D02*
D03*
X1229Y815D02*
D03*
X1221Y845D02*
D03*
X1219Y876D02*
D03*
Y907D02*
D03*
Y938D02*
D03*
Y969D02*
D03*
X1538Y314D02*
D03*
X1539Y283D02*
D03*
X1557Y257D02*
D03*
X1587Y251D02*
D03*
X1618D02*
D03*
X1649Y252D02*
D03*
X1680Y251D02*
D03*
X1711D02*
D03*
X1741Y259D02*
D03*
X1661Y504D02*
D03*
X1353Y468D02*
D03*
X1340Y440D02*
D03*
X1340Y409D02*
D03*
Y378D02*
D03*
X1349Y348D02*
D03*
X1376Y333D02*
D03*
X1407Y333D02*
D03*
X1438D02*
D03*
X1469D02*
D03*
X1500Y338D02*
D03*
X1519Y362D02*
D03*
X1535Y388D02*
D03*
X1458Y679D02*
D03*
X1427D02*
D03*
X1396D02*
D03*
X1365Y676D02*
D03*
X1343Y654D02*
D03*
X1340Y623D02*
D03*
Y592D02*
D03*
X1342Y561D02*
D03*
X1355Y534D02*
D03*
X1549Y608D02*
D03*
X1527Y630D02*
D03*
X1491Y678D02*
D03*
X1742Y464D02*
D03*
X1713Y451D02*
D03*
X1684Y461D02*
D03*
X1756Y314D02*
D03*
X1778Y292D02*
D03*
X1807Y280D02*
D03*
X1838Y277D02*
D03*
X1869Y277D02*
D03*
X1900Y279D02*
D03*
X1931D02*
D03*
X1962Y276D02*
D03*
X1993Y276D02*
D03*
X2024D02*
D03*
X2055Y275D02*
D03*
X1821Y450D02*
D03*
X1796Y469D02*
D03*
X1949Y720D02*
D03*
X1919Y713D02*
D03*
X1676Y549D02*
D03*
X1707Y554D02*
D03*
X1737Y549D02*
D03*
X1767Y540D02*
D03*
X1798Y542D02*
D03*
X1966Y615D02*
D03*
X1954Y580D02*
D03*
X1979Y562D02*
D03*
X1913Y497D02*
D03*
X1998Y442D02*
D03*
X2087Y608D02*
D03*
X2066Y630D02*
D03*
X2085Y412D02*
D03*
X2082Y381D02*
D03*
X2082Y291D02*
D03*
X2109Y276D02*
D03*
X2140Y275D02*
D03*
X2171Y281D02*
D03*
X2190Y305D02*
D03*
X2192Y336D02*
D03*
X2190Y367D02*
D03*
X2180Y396D02*
D03*
X2187Y426D02*
D03*
X2218Y430D02*
D03*
X2242Y448D02*
D03*
X2264Y470D02*
D03*
X2286Y492D02*
D03*
X2316Y499D02*
D03*
X2338Y521D02*
D03*
X2342Y552D02*
D03*
X2341Y583D02*
D03*
X2354Y611D02*
D03*
X2037Y862D02*
D03*
X2006Y860D02*
D03*
X1982Y841D02*
D03*
X1976Y810D02*
D03*
Y779D02*
D03*
X1979Y748D02*
D03*
X2001Y726D02*
D03*
X2038Y725D02*
D03*
X2075D02*
D03*
X2346Y655D02*
D03*
X2355Y685D02*
D03*
X2361Y715D02*
D03*
X2391Y718D02*
D03*
X2422Y718D02*
D03*
X2453Y718D02*
D03*
X2484Y718D02*
D03*
X2513Y731D02*
D03*
X2524Y760D02*
D03*
Y791D02*
D03*
X2523Y822D02*
D03*
X2509Y849D02*
D03*
X2479Y859D02*
D03*
X2448D02*
D03*
X2078Y900D02*
D03*
X2081Y869D02*
D03*
X2410Y851D02*
D03*
X2423Y897D02*
D03*
X2424Y935D02*
D03*
X2426Y966D02*
D03*
X2271Y1178D02*
D03*
X2233Y1178D02*
D03*
X2616Y1149D02*
D03*
X2662Y1164D02*
D03*
X2775Y1266D02*
D03*
X2734Y1269D02*
D03*
X2628Y1250D02*
D03*
X2623Y1292D02*
D03*
X2622Y1395D02*
D03*
X2668D02*
D03*
X2703Y1402D02*
D03*
X2735Y1390D02*
D03*
X2772Y1395D02*
D03*
X2809Y1394D02*
D03*
X2300Y1246D02*
D03*
X2313Y1218D02*
D03*
X2333Y1193D02*
D03*
X2357Y1174D02*
D03*
X2385Y1161D02*
D03*
X2415Y1154D02*
D03*
X2446Y1153D02*
D03*
X2475Y1142D02*
D03*
X2506Y1141D02*
D03*
X2599Y1258D02*
D03*
X2568Y1260D02*
D03*
X2446Y1248D02*
D03*
X2876Y1402D02*
D03*
X2846Y1395D02*
D03*
X2834Y1247D02*
D03*
X2841Y1217D02*
D03*
X2924Y1213D02*
D03*
X2934Y1243D02*
D03*
X2946Y1271D02*
D03*
X2977Y1266D02*
D03*
X2985Y1399D02*
D03*
X2954Y1397D02*
D03*
X2924Y1400D02*
D03*
X1467Y1556D02*
D03*
X3056Y736D02*
D03*
X3087Y735D02*
D03*
X3103Y851D02*
D03*
X1564Y1447D02*
D03*
X1607Y1438D02*
D03*
X1611Y1503D02*
D03*
X2780Y886D02*
D03*
X2626Y1930D02*
D03*
X2279Y1904D02*
D03*
X2583Y1899D02*
D03*
X2552Y1895D02*
D03*
X2555Y-600D02*
D03*
X2693Y1714D02*
D03*
X2716Y1745D02*
D03*
X2749Y1790D02*
D03*
X2009Y1587D02*
D03*
Y1551D02*
D03*
X2639Y1705D02*
D03*
X2588Y1708D02*
D03*
X2613Y1678D02*
D03*
X2562Y1667D02*
D03*
X1581Y1391D02*
D03*
X2537Y1684D02*
D03*
X1753Y1472D02*
D03*
X1769Y1523D02*
D03*
X3154Y1565D02*
D03*
X3129Y1546D02*
D03*
X3104Y1565D02*
D03*
X3078Y1545D02*
D03*
X3052Y1565D02*
D03*
X1746Y1500D02*
D03*
X1746Y1551D02*
D03*
X1749Y1602D02*
D03*
X1753Y1653D02*
D03*
X1770Y1628D02*
D03*
X1769Y1573D02*
D03*
X3027Y1545D02*
D03*
X3002Y1561D02*
D03*
X2975Y1552D02*
D03*
X1615Y1352D02*
D03*
X682Y1613D02*
D03*
X779Y-430D02*
D03*
X737Y-408D02*
D03*
X2961Y-258D02*
D03*
X3002Y-215D02*
D03*
X2703Y-227D02*
D03*
X2764Y-273D02*
D03*
X3309Y-252D02*
D03*
X2399Y-384D02*
D03*
X2309Y-344D02*
D03*
X2559Y-351D02*
D03*
X1738Y642D02*
D03*
X1952Y326D02*
D03*
X1853D02*
D03*
X1964Y666D02*
D03*
X1032Y1593D02*
D03*
X1339Y1540D02*
D03*
X1343Y1577D02*
D03*
X1033Y1745D02*
D03*
X1951Y463D02*
D03*
X2025Y539D02*
D03*
X3008Y908D02*
D03*
X1918Y1640D02*
D03*
X2442Y1296D02*
D03*
X2310Y1276D02*
D03*
X2415Y1250D02*
D03*
D72*
X3189Y1945D02*
D03*
X3136Y1941D02*
D03*
X3092Y1909D02*
D03*
X3170Y1782D02*
D03*
X3167Y1733D02*
D03*
X3129Y1704D02*
D03*
X3081Y1706D02*
D03*
X3031Y1708D02*
D03*
D73*
X2633Y1180D02*
X2641Y1188D01*
X2633Y1123D02*
X2660Y1096D01*
X2633Y1123D02*
Y1180D01*
X2641Y1188D02*
Y1807D01*
X2741Y1616D02*
X2751Y1626D01*
Y1682D01*
X2800D01*
Y1635D02*
Y1682D01*
X2792Y1627D02*
X2800Y1635D01*
X2689Y1123D02*
X2690Y1124D01*
X2689Y1105D02*
Y1123D01*
X2680Y1096D02*
X2689Y1105D01*
X2660Y1096D02*
X2680D01*
X2641Y1807D02*
X2646Y1812D01*
X2667D01*
X2679Y1800D01*
Y1782D02*
Y1800D01*
X2672Y1775D02*
X2679Y1782D01*
X2672Y1547D02*
Y1775D01*
X2805Y1157D02*
X2809Y1161D01*
X2805Y1134D02*
Y1157D01*
X2795Y1124D02*
X2805Y1134D01*
X2690Y1124D02*
X2795D01*
X2672Y1142D02*
X2690Y1124D01*
X2672Y1142D02*
Y1547D01*
X2704Y1579D01*
X2704D01*
X2741Y1616D01*
X2741D01*
X2828Y1620D02*
Y1629D01*
X2738Y1539D02*
X2760Y1561D01*
X2769D01*
X2866Y1610D02*
Y1629D01*
X2843Y1588D02*
X2866Y1610D01*
X2776Y1539D02*
X2799Y1561D01*
X2817D01*
X2737Y1539D02*
X2738D01*
X2769Y1561D02*
X2828Y1620D01*
X2817Y1561D02*
X2843Y1588D01*
X2703Y1537D02*
X2792Y1626D01*
Y1627D01*
X2794Y1629D02*
X2881D01*
X2894Y1617D01*
Y1607D02*
Y1617D01*
Y1584D02*
Y1607D01*
X2842Y1532D02*
X2894Y1584D01*
X2809Y1532D02*
X2842D01*
X2703Y1161D02*
X2809D01*
Y1532D01*
X2776Y1161D02*
Y1539D01*
X2737Y1161D02*
Y1539D01*
X2703Y1161D02*
Y1537D01*
M02*
