G04 Layer_Color=32896*
%FSLAX23Y23*%
%MOIN*%
G70*
G01*
G75*
%ADD57C,0.004*%
D57*
X520Y74D02*
X540D01*
Y54D02*
Y74D01*
X560D01*
X540D02*
Y93D01*
X420Y74D02*
X440D01*
Y54D02*
Y74D01*
X460D01*
X440D02*
Y93D01*
X288Y2664D02*
Y2684D01*
X268Y2664D02*
X288D01*
Y2644D02*
Y2664D01*
X308D01*
X288Y2764D02*
Y2784D01*
X268Y2764D02*
X288D01*
Y2744D02*
Y2764D01*
X308D01*
X160Y2204D02*
Y2223D01*
X140Y2204D02*
X160D01*
Y2184D02*
Y2204D01*
X179D01*
X160Y2304D02*
Y2323D01*
X140Y2304D02*
X160D01*
Y2284D02*
Y2304D01*
X179D01*
X160Y1681D02*
Y1701D01*
X140Y1681D02*
X160D01*
Y1661D02*
Y1681D01*
X179D01*
X160Y1781D02*
Y1801D01*
X140Y1781D02*
X160D01*
Y1761D02*
Y1781D01*
X179D01*
X470Y247D02*
X489D01*
Y267D01*
Y227D02*
Y247D01*
X509D01*
X395D02*
X414D01*
Y267D01*
Y227D02*
Y247D01*
X434D01*
X545D02*
X564D01*
Y267D01*
Y227D02*
Y247D01*
X584D01*
X822Y203D02*
Y227D01*
X798Y203D02*
X822D01*
Y179D02*
Y203D01*
X846D01*
X805Y2691D02*
X825D01*
X785D02*
X805D01*
Y2711D01*
X772Y2613D02*
X838D01*
X772D02*
Y2719D01*
X787D01*
Y2794D01*
X823D01*
Y2719D02*
Y2794D01*
Y2719D02*
X838D01*
Y2613D02*
Y2719D01*
X728Y2794D02*
X764D01*
X728Y2743D02*
Y2794D01*
Y2743D02*
X764D01*
Y2794D01*
X846D02*
X882D01*
X846Y2743D02*
Y2794D01*
Y2743D02*
X882D01*
Y2794D01*
X805Y2666D02*
X825D01*
X785D02*
X805D01*
Y2646D02*
Y2666D01*
X746Y2768D02*
X766D01*
X726D02*
X746D01*
Y2788D01*
Y2749D02*
Y2768D01*
X805Y2757D02*
X825D01*
X785D02*
X805D01*
Y2776D01*
Y2737D02*
Y2757D01*
X864Y2768D02*
X884D01*
X844D02*
X864D01*
Y2788D01*
Y2749D02*
Y2768D01*
X1186Y2961D02*
X1378D01*
X1186Y2898D02*
Y2961D01*
Y2898D02*
X1378D01*
Y2961D01*
X1262Y2929D02*
X1282D01*
Y2910D02*
Y2929D01*
X1302D01*
X1282D02*
Y2949D01*
X1186Y2626D02*
X1378D01*
X1186Y2563D02*
Y2626D01*
Y2563D02*
X1378D01*
Y2626D01*
X1262Y2595D02*
X1282D01*
Y2575D02*
Y2595D01*
X1302D01*
X1282D02*
Y2614D01*
X1298Y2732D02*
Y2792D01*
Y2732D02*
X1390D01*
Y2792D01*
X1298D02*
X1390D01*
X1324Y2762D02*
X1344D01*
Y2742D02*
Y2762D01*
X1364D01*
X1344D02*
Y2782D01*
X778Y507D02*
Y527D01*
X758Y507D02*
X778D01*
Y487D02*
Y507D01*
X798D01*
X888D02*
Y527D01*
X868Y507D02*
X888D01*
Y487D02*
Y507D01*
X908D01*
X833Y411D02*
Y431D01*
X813Y411D02*
X833D01*
Y392D02*
Y411D01*
X853D01*
X760Y475D02*
X796D01*
X760D02*
Y538D01*
X796D01*
Y475D02*
Y538D01*
X870Y475D02*
X906D01*
X870D02*
Y538D01*
X906D01*
Y475D02*
Y538D01*
X859Y386D02*
Y437D01*
X807D02*
X859D01*
X807Y386D02*
Y437D01*
Y386D02*
X859D01*
X833Y462D02*
Y482D01*
X813Y462D02*
X833D01*
Y442D02*
Y462D01*
X853D01*
X702Y1001D02*
X722D01*
X702D02*
Y1021D01*
X683Y1001D02*
X702D01*
Y981D02*
Y1001D01*
X570Y2409D02*
X594D01*
Y2433D01*
Y2409D02*
X618D01*
X594Y2385D02*
Y2409D01*
X61Y2748D02*
Y2768D01*
X41D02*
X61D01*
Y2788D01*
Y2768D02*
X81D01*
X15Y2738D02*
X107D01*
X15D02*
Y2798D01*
X107D01*
Y2738D02*
Y2798D01*
X123Y2916D02*
Y2935D01*
X103D02*
X123D01*
Y2955D01*
Y2935D02*
X143D01*
X27Y2904D02*
Y2967D01*
X219D01*
Y2904D02*
Y2967D01*
X27Y2904D02*
X219D01*
X123Y2581D02*
Y2601D01*
X103D02*
X123D01*
Y2620D01*
Y2601D02*
X143D01*
X27Y2569D02*
Y2632D01*
X219D01*
Y2569D02*
Y2632D01*
X27Y2569D02*
X219D01*
X61Y2234D02*
Y2254D01*
X41D02*
X61D01*
Y2274D01*
Y2254D02*
X81D01*
X15Y2224D02*
X107D01*
X15D02*
Y2284D01*
X107D01*
Y2224D02*
Y2284D01*
X123Y2402D02*
Y2421D01*
X103D02*
X123D01*
Y2441D01*
Y2421D02*
X143D01*
X27Y2390D02*
Y2453D01*
X219D01*
Y2390D02*
Y2453D01*
X27Y2390D02*
X219D01*
X123Y2067D02*
Y2087D01*
X103D02*
X123D01*
Y2106D01*
Y2087D02*
X143D01*
X27Y2055D02*
Y2118D01*
X219D01*
Y2055D02*
Y2118D01*
X27Y2055D02*
X219D01*
X61Y1711D02*
Y1731D01*
X41D02*
X61D01*
Y1751D01*
Y1731D02*
X81D01*
X15Y1701D02*
X107D01*
X15D02*
Y1761D01*
X107D01*
Y1701D02*
Y1761D01*
X123Y1879D02*
Y1898D01*
X103D02*
X123D01*
Y1918D01*
Y1898D02*
X143D01*
X27Y1867D02*
Y1930D01*
X219D01*
Y1867D02*
Y1930D01*
X27Y1867D02*
X219D01*
X123Y1544D02*
Y1564D01*
X103D02*
X123D01*
Y1583D01*
Y1564D02*
X143D01*
X27Y1532D02*
Y1595D01*
X219D01*
Y1532D02*
Y1595D01*
X27Y1532D02*
X219D01*
X906Y1480D02*
X930D01*
X906D02*
Y1504D01*
X882Y1480D02*
X906D01*
Y1456D02*
Y1480D01*
X991Y179D02*
Y203D01*
X1015D01*
X991D02*
Y227D01*
X967Y203D02*
X991D01*
M02*
