G04 Layer_Physical_Order=4*
G04 Layer_Color=16711680*
%FSLAX23Y23*%
%MOIN*%
G70*
G01*
G75*
%ADD19R,0.193X0.063*%
%ADD30C,0.010*%
%ADD33C,0.020*%
%ADD38C,0.067*%
%ADD39C,0.075*%
%ADD40C,0.063*%
%ADD41C,0.177*%
%ADD42C,0.021*%
%ADD43C,0.035*%
G36*
X1391Y2970D02*
X1386Y2969D01*
X1386Y2969D01*
X1289D01*
Y2929D01*
Y2890D01*
X1386D01*
X1386Y2890D01*
X1391Y2888D01*
Y2636D01*
X1386Y2634D01*
X1386Y2634D01*
X1289D01*
Y2595D01*
Y2555D01*
X1386D01*
X1386Y2555D01*
X1391Y2554D01*
Y11D01*
X11D01*
Y3239D01*
X1391D01*
Y2970D01*
D02*
G37*
%LPC*%
G36*
X1270Y3206D02*
Y3118D01*
X1358D01*
X1357Y3129D01*
X1352Y3147D01*
X1343Y3164D01*
X1331Y3179D01*
X1316Y3191D01*
X1299Y3200D01*
X1281Y3205D01*
X1270Y3206D01*
D02*
G37*
G36*
X1255D02*
X1243Y3205D01*
X1225Y3200D01*
X1208Y3191D01*
X1193Y3179D01*
X1181Y3164D01*
X1172Y3147D01*
X1167Y3129D01*
X1166Y3118D01*
X1255D01*
Y3206D01*
D02*
G37*
G36*
X147D02*
Y3118D01*
X236D01*
X235Y3129D01*
X230Y3147D01*
X221Y3164D01*
X209Y3179D01*
X194Y3191D01*
X177Y3200D01*
X159Y3205D01*
X147Y3206D01*
D02*
G37*
G36*
X132D02*
X121Y3205D01*
X103Y3200D01*
X86Y3191D01*
X71Y3179D01*
X59Y3164D01*
X50Y3147D01*
X45Y3129D01*
X44Y3118D01*
X132D01*
Y3206D01*
D02*
G37*
G36*
X1358Y3102D02*
X1270D01*
Y3014D01*
X1281Y3015D01*
X1299Y3020D01*
X1316Y3029D01*
X1331Y3041D01*
X1343Y3056D01*
X1352Y3073D01*
X1357Y3091D01*
X1358Y3102D01*
D02*
G37*
G36*
X1255D02*
X1166D01*
X1167Y3091D01*
X1172Y3073D01*
X1181Y3056D01*
X1193Y3041D01*
X1208Y3029D01*
X1225Y3020D01*
X1243Y3015D01*
X1255Y3014D01*
Y3102D01*
D02*
G37*
G36*
X236D02*
X147D01*
Y3014D01*
X159Y3015D01*
X177Y3020D01*
X194Y3029D01*
X209Y3041D01*
X221Y3056D01*
X230Y3073D01*
X235Y3091D01*
X236Y3102D01*
D02*
G37*
G36*
X132D02*
X44D01*
X45Y3091D01*
X50Y3073D01*
X59Y3056D01*
X71Y3041D01*
X86Y3029D01*
X103Y3020D01*
X121Y3015D01*
X132Y3014D01*
Y3102D01*
D02*
G37*
G36*
X227Y2975D02*
X131D01*
Y2943D01*
X227D01*
Y2975D01*
D02*
G37*
G36*
X116D02*
X19D01*
Y2943D01*
X116D01*
Y2975D01*
D02*
G37*
G36*
X1274Y2969D02*
X1178D01*
Y2937D01*
X1274D01*
Y2969D01*
D02*
G37*
G36*
X227Y2928D02*
X131D01*
Y2896D01*
X227D01*
Y2928D01*
D02*
G37*
G36*
X116D02*
X19D01*
Y2896D01*
X116D01*
Y2928D01*
D02*
G37*
G36*
X1274Y2922D02*
X1178D01*
Y2890D01*
X1274D01*
Y2922D01*
D02*
G37*
G36*
X288Y2828D02*
X276Y2827D01*
X264Y2823D01*
X253Y2817D01*
X243Y2809D01*
X235Y2799D01*
X229Y2788D01*
X225Y2776D01*
X224Y2764D01*
X225Y2752D01*
X229Y2740D01*
X235Y2729D01*
X243Y2719D01*
X253Y2711D01*
X264Y2705D01*
X265Y2705D01*
X266Y2699D01*
X258Y2694D01*
X252Y2685D01*
X248Y2675D01*
X247Y2671D01*
X288D01*
X329D01*
X328Y2675D01*
X324Y2685D01*
X318Y2694D01*
X310Y2699D01*
X311Y2705D01*
X312Y2705D01*
X323Y2711D01*
X333Y2719D01*
X341Y2729D01*
X347Y2740D01*
X351Y2752D01*
X352Y2764D01*
X351Y2776D01*
X347Y2788D01*
X341Y2799D01*
X333Y2809D01*
X323Y2817D01*
X312Y2823D01*
X300Y2827D01*
X288Y2828D01*
D02*
G37*
G36*
X329Y2657D02*
X296D01*
Y2623D01*
X299Y2624D01*
X309Y2628D01*
X318Y2634D01*
X324Y2643D01*
X328Y2653D01*
X329Y2657D01*
D02*
G37*
G36*
X280D02*
X247D01*
X248Y2653D01*
X252Y2643D01*
X258Y2634D01*
X267Y2628D01*
X277Y2624D01*
X280Y2623D01*
Y2657D01*
D02*
G37*
G36*
X227Y2640D02*
X131D01*
Y2608D01*
X227D01*
Y2640D01*
D02*
G37*
G36*
X116D02*
X19D01*
Y2608D01*
X116D01*
Y2640D01*
D02*
G37*
G36*
X1274Y2634D02*
X1178D01*
Y2602D01*
X1274D01*
Y2634D01*
D02*
G37*
G36*
X227Y2593D02*
X131D01*
Y2561D01*
X227D01*
Y2593D01*
D02*
G37*
G36*
X116D02*
X19D01*
Y2561D01*
X116D01*
Y2593D01*
D02*
G37*
G36*
X1274Y2587D02*
X1178D01*
Y2555D01*
X1274D01*
Y2587D01*
D02*
G37*
G36*
X227Y2461D02*
X131D01*
Y2429D01*
X227D01*
Y2461D01*
D02*
G37*
G36*
X116D02*
X19D01*
Y2429D01*
X116D01*
Y2461D01*
D02*
G37*
G36*
X227Y2414D02*
X131D01*
Y2382D01*
X227D01*
Y2414D01*
D02*
G37*
G36*
X116D02*
X19D01*
Y2382D01*
X116D01*
Y2414D01*
D02*
G37*
G36*
X160Y2344D02*
X149Y2342D01*
X140Y2338D01*
X131Y2332D01*
X125Y2324D01*
X121Y2314D01*
X120Y2304D01*
X121Y2293D01*
X125Y2284D01*
X131Y2276D01*
X140Y2269D01*
X149Y2265D01*
X160Y2264D01*
X170Y2265D01*
X180Y2269D01*
X188Y2276D01*
X194Y2284D01*
X198Y2293D01*
X199Y2304D01*
X198Y2314D01*
X194Y2324D01*
X188Y2332D01*
X180Y2338D01*
X170Y2342D01*
X160Y2344D01*
D02*
G37*
G36*
X167Y2245D02*
Y2211D01*
X200D01*
X200Y2215D01*
X196Y2225D01*
X189Y2233D01*
X181Y2240D01*
X170Y2244D01*
X167Y2245D01*
D02*
G37*
G36*
X152D02*
X149Y2244D01*
X139Y2240D01*
X130Y2233D01*
X123Y2225D01*
X119Y2215D01*
X119Y2211D01*
X152D01*
Y2245D01*
D02*
G37*
G36*
X200Y2196D02*
X167D01*
Y2163D01*
X170Y2163D01*
X181Y2168D01*
X189Y2174D01*
X196Y2183D01*
X200Y2193D01*
X200Y2196D01*
D02*
G37*
G36*
X152D02*
X119D01*
X119Y2193D01*
X123Y2183D01*
X130Y2174D01*
X139Y2168D01*
X149Y2163D01*
X152Y2163D01*
Y2196D01*
D02*
G37*
G36*
X227Y2126D02*
X131D01*
Y2094D01*
X227D01*
Y2126D01*
D02*
G37*
G36*
X116D02*
X19D01*
Y2094D01*
X116D01*
Y2126D01*
D02*
G37*
G36*
X770Y2300D02*
X764Y2298D01*
X758Y2295D01*
X754Y2289D01*
X753Y2283D01*
X754Y2276D01*
X758Y2271D01*
X760Y2270D01*
X802Y2228D01*
Y2114D01*
X801Y2111D01*
X802Y2105D01*
X806Y2099D01*
X812Y2096D01*
X818Y2094D01*
X824Y2096D01*
X830Y2099D01*
X830Y2100D01*
X836D01*
X837Y2098D01*
X843Y2094D01*
X849Y2093D01*
X855Y2094D01*
X861Y2098D01*
X865Y2104D01*
X866Y2110D01*
X865Y2113D01*
Y2208D01*
X867Y2209D01*
X871Y2210D01*
X877Y2214D01*
X881Y2220D01*
X882Y2226D01*
X881Y2232D01*
X877Y2238D01*
X871Y2242D01*
X865Y2243D01*
X862Y2242D01*
X860D01*
X854Y2241D01*
X848Y2238D01*
X839Y2228D01*
X834Y2230D01*
Y2235D01*
X833Y2241D01*
X830Y2246D01*
X783Y2293D01*
X782Y2295D01*
X776Y2298D01*
X770Y2300D01*
D02*
G37*
G36*
X227Y2079D02*
X131D01*
Y2047D01*
X227D01*
Y2079D01*
D02*
G37*
G36*
X116D02*
X19D01*
Y2047D01*
X116D01*
Y2079D01*
D02*
G37*
G36*
X1095Y1992D02*
X1089Y1991D01*
X1083Y1987D01*
X1080Y1982D01*
X1078Y1975D01*
X1080Y1969D01*
X1083Y1963D01*
X1089Y1960D01*
X1095Y1958D01*
X1102Y1960D01*
X1107Y1963D01*
X1111Y1969D01*
X1112Y1975D01*
X1111Y1982D01*
X1107Y1987D01*
X1102Y1991D01*
X1095Y1992D01*
D02*
G37*
G36*
X227Y1938D02*
X131D01*
Y1906D01*
X227D01*
Y1938D01*
D02*
G37*
G36*
X116D02*
X19D01*
Y1906D01*
X116D01*
Y1938D01*
D02*
G37*
G36*
X227Y1891D02*
X131D01*
Y1859D01*
X227D01*
Y1891D01*
D02*
G37*
G36*
X116D02*
X19D01*
Y1859D01*
X116D01*
Y1891D01*
D02*
G37*
G36*
X460Y1971D02*
X451Y1969D01*
X443Y1964D01*
X438Y1956D01*
X436Y1947D01*
X438Y1938D01*
X443Y1930D01*
X449Y1926D01*
Y1918D01*
X449Y1918D01*
X450Y1914D01*
X452Y1910D01*
X477Y1885D01*
X477Y1885D01*
X481Y1883D01*
X485Y1882D01*
X844D01*
X847Y1878D01*
X847Y1877D01*
X845Y1868D01*
X847Y1859D01*
X852Y1851D01*
X860Y1846D01*
X869Y1844D01*
X878Y1846D01*
X886Y1851D01*
X891Y1859D01*
X893Y1868D01*
X891Y1877D01*
X886Y1885D01*
X878Y1890D01*
X869Y1892D01*
X867Y1892D01*
X858Y1901D01*
X854Y1903D01*
X850Y1904D01*
X850Y1904D01*
X490D01*
X472Y1922D01*
X473Y1927D01*
X477Y1930D01*
X482Y1938D01*
X484Y1947D01*
X482Y1956D01*
X477Y1964D01*
X469Y1969D01*
X460Y1971D01*
D02*
G37*
G36*
X762Y1785D02*
X756Y1784D01*
X750Y1780D01*
X746Y1774D01*
X745Y1768D01*
X746Y1762D01*
X750Y1756D01*
X756Y1752D01*
X762Y1751D01*
X768Y1752D01*
X774Y1756D01*
X778Y1762D01*
X779Y1768D01*
X778Y1774D01*
X774Y1780D01*
X768Y1784D01*
X762Y1785D01*
D02*
G37*
G36*
X160Y1821D02*
X149Y1819D01*
X140Y1815D01*
X131Y1809D01*
X125Y1801D01*
X121Y1791D01*
X120Y1781D01*
X121Y1771D01*
X125Y1761D01*
X131Y1753D01*
X140Y1747D01*
X149Y1743D01*
X160Y1741D01*
X170Y1743D01*
X180Y1747D01*
X188Y1753D01*
X194Y1761D01*
X198Y1771D01*
X199Y1781D01*
X198Y1791D01*
X194Y1801D01*
X188Y1809D01*
X180Y1815D01*
X170Y1819D01*
X160Y1821D01*
D02*
G37*
G36*
X167Y1722D02*
Y1689D01*
X200D01*
X200Y1692D01*
X196Y1702D01*
X189Y1711D01*
X181Y1717D01*
X170Y1721D01*
X167Y1722D01*
D02*
G37*
G36*
X152D02*
X149Y1721D01*
X139Y1717D01*
X130Y1711D01*
X123Y1702D01*
X119Y1692D01*
X119Y1689D01*
X152D01*
Y1722D01*
D02*
G37*
G36*
X491Y1755D02*
X482Y1753D01*
X474Y1748D01*
X469Y1740D01*
X467Y1731D01*
X469Y1722D01*
X474Y1714D01*
X482Y1709D01*
X491Y1707D01*
X498Y1708D01*
X509Y1697D01*
X509Y1697D01*
X513Y1695D01*
X517Y1694D01*
X517Y1694D01*
X763D01*
X767Y1688D01*
X775Y1683D01*
X784Y1681D01*
X793Y1683D01*
X801Y1688D01*
X806Y1696D01*
X808Y1705D01*
X806Y1714D01*
X801Y1722D01*
X793Y1727D01*
X784Y1729D01*
X775Y1727D01*
X767Y1722D01*
X763Y1716D01*
X522D01*
X514Y1724D01*
X515Y1731D01*
X513Y1740D01*
X508Y1748D01*
X500Y1753D01*
X491Y1755D01*
D02*
G37*
G36*
X920Y1703D02*
X914Y1702D01*
X908Y1698D01*
X904Y1692D01*
X903Y1686D01*
X904Y1680D01*
X908Y1674D01*
X914Y1670D01*
X920Y1669D01*
X926Y1670D01*
X932Y1674D01*
X936Y1680D01*
X937Y1686D01*
X936Y1692D01*
X932Y1698D01*
X926Y1702D01*
X920Y1703D01*
D02*
G37*
G36*
X152Y1673D02*
X119D01*
X119Y1670D01*
X123Y1660D01*
X130Y1651D01*
X139Y1645D01*
X149Y1641D01*
X152Y1640D01*
Y1673D01*
D02*
G37*
G36*
X200D02*
X167D01*
Y1640D01*
X170Y1641D01*
X181Y1645D01*
X189Y1651D01*
X196Y1660D01*
X200Y1670D01*
X200Y1673D01*
D02*
G37*
G36*
X227Y1603D02*
X131D01*
Y1571D01*
X227D01*
Y1603D01*
D02*
G37*
G36*
X116D02*
X19D01*
Y1571D01*
X116D01*
Y1603D01*
D02*
G37*
G36*
X227Y1556D02*
X131D01*
Y1524D01*
X227D01*
Y1556D01*
D02*
G37*
G36*
X116D02*
X19D01*
Y1524D01*
X116D01*
Y1556D01*
D02*
G37*
G36*
X1010Y1340D02*
Y1309D01*
X1041D01*
X1041Y1311D01*
X1037Y1321D01*
X1031Y1329D01*
X1022Y1336D01*
X1013Y1339D01*
X1010Y1340D01*
D02*
G37*
G36*
X995D02*
X992Y1339D01*
X983Y1336D01*
X974Y1329D01*
X968Y1321D01*
X964Y1311D01*
X964Y1309D01*
X995D01*
Y1340D01*
D02*
G37*
G36*
X310D02*
Y1309D01*
X341D01*
X341Y1311D01*
X337Y1321D01*
X331Y1329D01*
X322Y1336D01*
X313Y1339D01*
X310Y1340D01*
D02*
G37*
G36*
X210D02*
Y1309D01*
X241D01*
X241Y1311D01*
X237Y1321D01*
X231Y1329D01*
X222Y1336D01*
X213Y1339D01*
X210Y1340D01*
D02*
G37*
G36*
X295D02*
X292Y1339D01*
X283Y1336D01*
X274Y1329D01*
X268Y1321D01*
X264Y1311D01*
X264Y1309D01*
X295D01*
Y1340D01*
D02*
G37*
G36*
X195D02*
X192Y1339D01*
X183Y1336D01*
X174Y1329D01*
X168Y1321D01*
X164Y1311D01*
X164Y1309D01*
X195D01*
Y1340D01*
D02*
G37*
G36*
X902Y1339D02*
X893Y1338D01*
X884Y1334D01*
X876Y1328D01*
X870Y1320D01*
X866Y1311D01*
X865Y1301D01*
X866Y1291D01*
X870Y1282D01*
X876Y1274D01*
X884Y1268D01*
X893Y1264D01*
X902Y1263D01*
X912Y1264D01*
X921Y1268D01*
X929Y1274D01*
X935Y1282D01*
X939Y1291D01*
X940Y1301D01*
X939Y1311D01*
X935Y1320D01*
X929Y1328D01*
X921Y1334D01*
X912Y1338D01*
X902Y1339D01*
D02*
G37*
G36*
X802D02*
X793Y1338D01*
X784Y1334D01*
X776Y1328D01*
X770Y1320D01*
X766Y1311D01*
X765Y1301D01*
X766Y1291D01*
X770Y1282D01*
X776Y1274D01*
X784Y1268D01*
X793Y1264D01*
X802Y1263D01*
X812Y1264D01*
X821Y1268D01*
X829Y1274D01*
X835Y1282D01*
X839Y1291D01*
X840Y1301D01*
X839Y1311D01*
X835Y1320D01*
X829Y1328D01*
X821Y1334D01*
X812Y1338D01*
X802Y1339D01*
D02*
G37*
G36*
X341Y1293D02*
X310D01*
Y1262D01*
X313Y1263D01*
X322Y1266D01*
X331Y1273D01*
X337Y1281D01*
X341Y1291D01*
X341Y1293D01*
D02*
G37*
G36*
X241D02*
X210D01*
Y1262D01*
X213Y1263D01*
X222Y1266D01*
X231Y1273D01*
X237Y1281D01*
X241Y1291D01*
X241Y1293D01*
D02*
G37*
G36*
X995Y1293D02*
X964D01*
X964Y1291D01*
X968Y1281D01*
X974Y1273D01*
X983Y1266D01*
X992Y1263D01*
X995Y1262D01*
Y1293D01*
D02*
G37*
G36*
X1041D02*
X1010D01*
Y1262D01*
X1013Y1263D01*
X1022Y1266D01*
X1031Y1273D01*
X1037Y1281D01*
X1041Y1291D01*
X1041Y1293D01*
D02*
G37*
G36*
X295Y1293D02*
X264D01*
X264Y1291D01*
X268Y1281D01*
X274Y1273D01*
X283Y1266D01*
X292Y1263D01*
X295Y1262D01*
Y1293D01*
D02*
G37*
G36*
X195D02*
X164D01*
X164Y1291D01*
X168Y1281D01*
X174Y1273D01*
X183Y1266D01*
X192Y1263D01*
X195Y1262D01*
Y1293D01*
D02*
G37*
G36*
X1202Y1368D02*
X1189Y1367D01*
X1177Y1363D01*
X1165Y1357D01*
X1155Y1348D01*
X1147Y1338D01*
X1141Y1327D01*
X1137Y1314D01*
X1136Y1301D01*
X1137Y1288D01*
X1141Y1275D01*
X1147Y1264D01*
X1155Y1254D01*
X1165Y1245D01*
X1177Y1239D01*
X1189Y1235D01*
X1202Y1234D01*
X1216Y1235D01*
X1228Y1239D01*
X1240Y1245D01*
X1250Y1254D01*
X1258Y1264D01*
X1264Y1275D01*
X1268Y1288D01*
X1269Y1301D01*
X1268Y1314D01*
X1264Y1327D01*
X1258Y1338D01*
X1250Y1348D01*
X1240Y1357D01*
X1228Y1363D01*
X1216Y1367D01*
X1202Y1368D01*
D02*
G37*
G36*
X1010Y740D02*
Y709D01*
X1041D01*
X1041Y711D01*
X1037Y721D01*
X1031Y729D01*
X1022Y735D01*
X1013Y739D01*
X1010Y740D01*
D02*
G37*
G36*
X995D02*
X992Y739D01*
X983Y735D01*
X974Y729D01*
X968Y721D01*
X964Y711D01*
X964Y709D01*
X995D01*
Y740D01*
D02*
G37*
G36*
X902Y739D02*
X893Y738D01*
X884Y734D01*
X876Y728D01*
X870Y720D01*
X866Y711D01*
X865Y701D01*
X866Y691D01*
X870Y682D01*
X876Y674D01*
X884Y668D01*
X893Y664D01*
X902Y663D01*
X912Y664D01*
X921Y668D01*
X929Y674D01*
X935Y682D01*
X939Y691D01*
X940Y701D01*
X939Y711D01*
X935Y720D01*
X929Y728D01*
X921Y734D01*
X912Y738D01*
X902Y739D01*
D02*
G37*
G36*
X802D02*
X793Y738D01*
X784Y734D01*
X776Y728D01*
X770Y720D01*
X766Y711D01*
X765Y701D01*
X766Y691D01*
X770Y682D01*
X776Y674D01*
X784Y668D01*
X793Y664D01*
X802Y663D01*
X812Y664D01*
X821Y668D01*
X829Y674D01*
X835Y682D01*
X839Y691D01*
X840Y701D01*
X839Y711D01*
X835Y720D01*
X829Y728D01*
X821Y734D01*
X812Y738D01*
X802Y739D01*
D02*
G37*
G36*
X302D02*
X293Y738D01*
X284Y734D01*
X276Y728D01*
X270Y720D01*
X266Y711D01*
X265Y701D01*
X266Y691D01*
X270Y682D01*
X276Y674D01*
X284Y668D01*
X293Y664D01*
X302Y663D01*
X312Y664D01*
X321Y668D01*
X329Y674D01*
X335Y682D01*
X339Y691D01*
X340Y701D01*
X339Y711D01*
X335Y720D01*
X329Y728D01*
X321Y734D01*
X312Y738D01*
X302Y739D01*
D02*
G37*
G36*
X202D02*
X193Y738D01*
X184Y734D01*
X176Y728D01*
X170Y720D01*
X166Y711D01*
X165Y701D01*
X166Y691D01*
X170Y682D01*
X176Y674D01*
X184Y668D01*
X193Y664D01*
X202Y663D01*
X212Y664D01*
X221Y668D01*
X229Y674D01*
X235Y682D01*
X239Y691D01*
X240Y701D01*
X239Y711D01*
X235Y720D01*
X229Y728D01*
X221Y734D01*
X212Y738D01*
X202Y739D01*
D02*
G37*
G36*
X1041Y693D02*
X1010D01*
Y662D01*
X1013Y663D01*
X1022Y666D01*
X1031Y673D01*
X1037Y681D01*
X1041Y691D01*
X1041Y693D01*
D02*
G37*
G36*
X995D02*
X964D01*
X964Y691D01*
X968Y681D01*
X974Y673D01*
X983Y666D01*
X992Y663D01*
X995Y662D01*
Y693D01*
D02*
G37*
G36*
X1202Y768D02*
X1189Y767D01*
X1177Y763D01*
X1165Y757D01*
X1155Y748D01*
X1147Y738D01*
X1141Y727D01*
X1137Y714D01*
X1136Y701D01*
X1137Y688D01*
X1141Y675D01*
X1147Y664D01*
X1155Y654D01*
X1165Y645D01*
X1177Y639D01*
X1189Y635D01*
X1202Y634D01*
X1216Y635D01*
X1228Y639D01*
X1240Y645D01*
X1250Y654D01*
X1258Y664D01*
X1264Y675D01*
X1268Y688D01*
X1269Y701D01*
X1268Y714D01*
X1264Y727D01*
X1258Y738D01*
X1250Y748D01*
X1240Y757D01*
X1228Y763D01*
X1216Y767D01*
X1202Y768D01*
D02*
G37*
G36*
X422Y292D02*
Y255D01*
X459D01*
X459Y259D01*
X454Y270D01*
X447Y279D01*
X437Y287D01*
X426Y291D01*
X422Y292D01*
D02*
G37*
G36*
X407D02*
X403Y291D01*
X391Y287D01*
X382Y279D01*
X375Y270D01*
X370Y259D01*
X370Y255D01*
X407D01*
Y292D01*
D02*
G37*
G36*
X564Y291D02*
X553Y289D01*
X542Y285D01*
X533Y278D01*
X526Y269D01*
X522Y258D01*
X521Y247D01*
X522Y236D01*
X526Y225D01*
X533Y216D01*
X542Y209D01*
X553Y205D01*
X564Y203D01*
X576Y205D01*
X586Y209D01*
X595Y216D01*
X602Y225D01*
X607Y236D01*
X608Y247D01*
X607Y258D01*
X602Y269D01*
X595Y278D01*
X586Y285D01*
X576Y289D01*
X564Y291D01*
D02*
G37*
G36*
X459Y240D02*
X422D01*
Y202D01*
X426Y203D01*
X437Y207D01*
X447Y215D01*
X454Y224D01*
X459Y235D01*
X459Y240D01*
D02*
G37*
G36*
X407D02*
X370D01*
X370Y235D01*
X375Y224D01*
X382Y215D01*
X391Y207D01*
X403Y203D01*
X407Y202D01*
Y240D01*
D02*
G37*
G36*
X1270Y236D02*
Y147D01*
X1358D01*
X1357Y159D01*
X1352Y177D01*
X1343Y194D01*
X1331Y209D01*
X1316Y221D01*
X1299Y230D01*
X1281Y235D01*
X1270Y236D01*
D02*
G37*
G36*
X1255D02*
X1243Y235D01*
X1225Y230D01*
X1208Y221D01*
X1193Y209D01*
X1181Y194D01*
X1172Y177D01*
X1167Y159D01*
X1166Y147D01*
X1255D01*
Y236D01*
D02*
G37*
G36*
X147D02*
Y147D01*
X236D01*
X235Y159D01*
X230Y177D01*
X221Y194D01*
X209Y209D01*
X194Y221D01*
X177Y230D01*
X159Y235D01*
X147Y236D01*
D02*
G37*
G36*
X132D02*
X121Y235D01*
X103Y230D01*
X86Y221D01*
X71Y209D01*
X59Y194D01*
X50Y177D01*
X45Y159D01*
X44Y147D01*
X132D01*
Y236D01*
D02*
G37*
G36*
X447Y115D02*
Y81D01*
X481D01*
X480Y85D01*
X476Y95D01*
X470Y103D01*
X461Y110D01*
X451Y114D01*
X447Y115D01*
D02*
G37*
G36*
X433D02*
X429Y114D01*
X419Y110D01*
X410Y103D01*
X404Y95D01*
X400Y85D01*
X399Y81D01*
X433D01*
Y115D01*
D02*
G37*
G36*
X1358Y132D02*
X1270D01*
Y44D01*
X1281Y45D01*
X1299Y50D01*
X1316Y59D01*
X1331Y71D01*
X1343Y86D01*
X1352Y103D01*
X1357Y121D01*
X1358Y132D01*
D02*
G37*
G36*
X1255D02*
X1166D01*
X1167Y121D01*
X1172Y103D01*
X1181Y86D01*
X1193Y71D01*
X1208Y59D01*
X1225Y50D01*
X1243Y45D01*
X1255Y44D01*
Y132D01*
D02*
G37*
G36*
X236D02*
X147D01*
Y44D01*
X159Y45D01*
X177Y50D01*
X194Y59D01*
X209Y71D01*
X221Y86D01*
X230Y103D01*
X235Y121D01*
X236Y132D01*
D02*
G37*
G36*
X132D02*
X44D01*
X45Y121D01*
X50Y103D01*
X59Y86D01*
X71Y71D01*
X86Y59D01*
X103Y50D01*
X121Y45D01*
X132Y44D01*
Y132D01*
D02*
G37*
G36*
X540Y114D02*
X530Y112D01*
X520Y108D01*
X512Y102D01*
X506Y94D01*
X502Y84D01*
X500Y74D01*
X502Y63D01*
X506Y54D01*
X512Y46D01*
X520Y39D01*
X530Y35D01*
X540Y34D01*
X550Y35D01*
X560Y39D01*
X568Y46D01*
X574Y54D01*
X578Y63D01*
X580Y74D01*
X578Y84D01*
X574Y94D01*
X568Y102D01*
X560Y108D01*
X550Y112D01*
X540Y114D01*
D02*
G37*
G36*
X481Y66D02*
X447D01*
Y33D01*
X451Y33D01*
X461Y38D01*
X470Y44D01*
X476Y53D01*
X480Y63D01*
X481Y66D01*
D02*
G37*
G36*
X433D02*
X399D01*
X400Y63D01*
X404Y53D01*
X410Y44D01*
X419Y38D01*
X429Y33D01*
X433Y33D01*
Y66D01*
D02*
G37*
%LPD*%
D19*
X1282Y2929D02*
D03*
Y2595D02*
D03*
X123Y2935D02*
D03*
Y2601D02*
D03*
Y2421D02*
D03*
Y2087D02*
D03*
Y1898D02*
D03*
Y1564D02*
D03*
D30*
X460Y1918D02*
Y1947D01*
Y1918D02*
X485Y1893D01*
X850D01*
X869Y1874D01*
Y1868D02*
Y1874D01*
X491Y1731D02*
X517Y1705D01*
X784D01*
D33*
X849Y2215D02*
X860Y2226D01*
X770Y2283D02*
X818Y2235D01*
X860Y2226D02*
X865D01*
X849Y2110D02*
Y2215D01*
X818Y2111D02*
Y2235D01*
D38*
X440Y74D02*
D03*
X540D02*
D03*
X288Y2764D02*
D03*
Y2664D02*
D03*
X160Y2304D02*
D03*
Y2204D02*
D03*
Y1781D02*
D03*
Y1681D02*
D03*
D39*
X564Y247D02*
D03*
X414D02*
D03*
D40*
X802Y1301D02*
D03*
X202D02*
D03*
X302D02*
D03*
X902D02*
D03*
X1002D02*
D03*
X202Y701D02*
D03*
X302D02*
D03*
X802D02*
D03*
X902D02*
D03*
X1002D02*
D03*
X1202Y1301D02*
D03*
Y701D02*
D03*
D41*
X140Y140D02*
D03*
X1262D02*
D03*
Y3110D02*
D03*
X140D02*
D03*
D42*
X1339Y3027D02*
D03*
Y2227D02*
D03*
Y1827D02*
D03*
Y1427D02*
D03*
Y1027D02*
D03*
Y627D02*
D03*
Y227D02*
D03*
X1139Y3027D02*
D03*
Y2627D02*
D03*
X1239Y2427D02*
D03*
X1139Y2227D02*
D03*
X1239Y2027D02*
D03*
X1139Y1827D02*
D03*
X1239Y1627D02*
D03*
X1139Y627D02*
D03*
X1239Y427D02*
D03*
X1139Y227D02*
D03*
X939Y3027D02*
D03*
X1039Y2427D02*
D03*
X939Y2227D02*
D03*
X1039Y2027D02*
D03*
Y1627D02*
D03*
Y1227D02*
D03*
Y827D02*
D03*
X939Y627D02*
D03*
X1039Y427D02*
D03*
X939Y227D02*
D03*
X739Y3027D02*
D03*
Y2627D02*
D03*
Y2227D02*
D03*
X839Y2027D02*
D03*
Y1627D02*
D03*
X739Y1427D02*
D03*
Y1027D02*
D03*
Y627D02*
D03*
X539Y3027D02*
D03*
Y2627D02*
D03*
Y2227D02*
D03*
X639Y2027D02*
D03*
X539Y1827D02*
D03*
Y1427D02*
D03*
X639Y1227D02*
D03*
X539Y1027D02*
D03*
X639Y827D02*
D03*
X539Y627D02*
D03*
X639Y427D02*
D03*
X339Y3027D02*
D03*
Y2627D02*
D03*
X439Y2427D02*
D03*
X339Y1827D02*
D03*
X439Y1627D02*
D03*
X339Y1427D02*
D03*
X439Y1227D02*
D03*
X339Y1027D02*
D03*
X439Y827D02*
D03*
X339Y227D02*
D03*
X239Y2427D02*
D03*
Y2027D02*
D03*
Y1627D02*
D03*
X139Y1427D02*
D03*
X239Y1227D02*
D03*
X139Y1027D02*
D03*
X239Y827D02*
D03*
X139Y627D02*
D03*
X239Y427D02*
D03*
X292Y2838D02*
D03*
X261D02*
D03*
X231Y2829D02*
D03*
X203Y2815D02*
D03*
X172D02*
D03*
X141D02*
D03*
X111Y2822D02*
D03*
X80Y2823D02*
D03*
X49D02*
D03*
X45Y2713D02*
D03*
X76D02*
D03*
X107D02*
D03*
X137Y2721D02*
D03*
X168D02*
D03*
X199D02*
D03*
X228Y2710D02*
D03*
X347Y2711D02*
D03*
X376Y2721D02*
D03*
X406Y2714D02*
D03*
X437Y2707D02*
D03*
X468Y2708D02*
D03*
X474Y2828D02*
D03*
X443Y2829D02*
D03*
X412Y2825D02*
D03*
X383Y2815D02*
D03*
X352Y2818D02*
D03*
X327Y2837D02*
D03*
X770Y2283D02*
D03*
X920Y1686D02*
D03*
X762Y1768D02*
D03*
X865Y2226D02*
D03*
X849Y2110D02*
D03*
X818Y2111D02*
D03*
X1095Y1975D02*
D03*
X892Y2833D02*
D03*
X917Y2815D02*
D03*
X947Y2809D02*
D03*
X978D02*
D03*
X1009D02*
D03*
X1040D02*
D03*
X1071D02*
D03*
X1102D02*
D03*
X1133D02*
D03*
X1164D02*
D03*
X1195D02*
D03*
X1226D02*
D03*
X1257D02*
D03*
X1288Y2815D02*
D03*
X1319Y2817D02*
D03*
X1350D02*
D03*
X1366Y2707D02*
D03*
X1335D02*
D03*
X1304D02*
D03*
X1274Y2715D02*
D03*
X1243D02*
D03*
X1212D02*
D03*
X1181D02*
D03*
X1150D02*
D03*
X1119D02*
D03*
X1088D02*
D03*
X1057D02*
D03*
X1026D02*
D03*
X995D02*
D03*
X964D02*
D03*
X933D02*
D03*
X922Y2686D02*
D03*
Y2655D02*
D03*
Y2624D02*
D03*
Y2593D02*
D03*
Y2562D02*
D03*
Y2531D02*
D03*
X936Y2503D02*
D03*
X937Y2472D02*
D03*
Y2441D02*
D03*
Y2410D02*
D03*
X929Y2380D02*
D03*
X902Y2365D02*
D03*
X871Y2364D02*
D03*
X840D02*
D03*
X810Y2373D02*
D03*
X786Y2392D02*
D03*
X761Y2373D02*
D03*
X732Y2364D02*
D03*
X701D02*
D03*
X670Y2365D02*
D03*
X648Y2308D02*
D03*
X618Y2299D02*
D03*
X587D02*
D03*
X556Y2300D02*
D03*
X530Y2318D02*
D03*
X524Y2348D02*
D03*
Y2379D02*
D03*
X525Y2410D02*
D03*
X524Y2441D02*
D03*
Y2472D02*
D03*
X532Y2502D02*
D03*
X558Y2518D02*
D03*
X589Y2519D02*
D03*
X620D02*
D03*
X651Y2524D02*
D03*
X681Y2532D02*
D03*
X712D02*
D03*
X743Y2532D02*
D03*
X769Y2515D02*
D03*
X800Y2512D02*
D03*
X810Y2541D02*
D03*
Y2572D02*
D03*
X814Y2819D02*
D03*
X841Y2834D02*
D03*
X686Y2836D02*
D03*
X716Y2833D02*
D03*
X747Y2835D02*
D03*
X778Y2832D02*
D03*
X739Y2702D02*
D03*
X708Y2707D02*
D03*
X696Y2679D02*
D03*
X686Y2649D02*
D03*
X603Y2653D02*
D03*
X596Y2683D02*
D03*
X638Y2838D02*
D03*
X559Y2699D02*
D03*
X529Y2707D02*
D03*
X498D02*
D03*
X508Y2829D02*
D03*
X538Y2832D02*
D03*
X569Y2838D02*
D03*
X600D02*
D03*
D43*
X460Y1947D02*
D03*
X869Y1868D02*
D03*
X491Y1731D02*
D03*
X784Y1705D02*
D03*
M02*
