G04 Layer_Color=65535*
%FSLAX23Y23*%
%MOIN*%
G70*
G01*
G75*
%ADD50C,0.010*%
%ADD74C,0.010*%
%ADD75C,0.020*%
%ADD76C,0.024*%
%ADD77C,0.008*%
%ADD78C,0.012*%
%ADD79C,0.007*%
%ADD80C,0.005*%
%ADD81C,0.004*%
%ADD82C,0.006*%
%ADD83R,0.035X0.035*%
D50*
X3042Y711D02*
X3258D01*
X3042Y416D02*
Y711D01*
Y416D02*
X3258D01*
Y711D01*
X3239Y416D02*
X3258Y436D01*
X377Y620D02*
X394D01*
X385D01*
Y670D01*
X377Y662D01*
X419Y620D02*
Y628D01*
X427D01*
Y620D01*
X419D01*
X460Y662D02*
X469Y670D01*
X485D01*
X494Y662D01*
Y628D01*
X485Y620D01*
X469D01*
X460Y628D01*
Y662D01*
X292Y705D02*
Y755D01*
X309Y738D01*
X325Y755D01*
Y705D01*
X342Y755D02*
Y713D01*
X350Y705D01*
X367D01*
X375Y713D01*
Y755D01*
X392Y705D02*
Y755D01*
X417D01*
X425Y747D01*
Y730D01*
X417Y722D01*
X392D01*
X409D02*
X425Y705D01*
X475Y747D02*
X467Y755D01*
X450D01*
X442Y747D01*
Y713D01*
X450Y705D01*
X467D01*
X475Y713D01*
Y730D01*
X459D01*
X525Y755D02*
X492D01*
Y705D01*
X525D01*
X492Y730D02*
X509D01*
X542Y705D02*
Y755D01*
X575Y705D01*
Y755D01*
D74*
X2487Y1596D02*
G03*
X2487Y1596I-5J0D01*
G01*
X2926Y1594D02*
G03*
X2926Y1594I-5J0D01*
G01*
X2834Y1166D02*
G03*
X2834Y1166I-5J0D01*
G01*
X2401Y1334D02*
G03*
X2401Y1334I-5J0D01*
G01*
X1714Y1317D02*
G03*
X1714Y1317I-5J0D01*
G01*
X1079Y1626D02*
G03*
X1079Y1626I-5J0D01*
G01*
X872Y1611D02*
G03*
X872Y1611I-5J0D01*
G01*
X510Y1704D02*
G03*
X510Y1704I-5J0D01*
G01*
X287Y2021D02*
G03*
X287Y2021I-5J0D01*
G01*
X2757Y-120D02*
G03*
X2757Y-120I-5J0D01*
G01*
X612Y-571D02*
G03*
X612Y-571I-5J0D01*
G01*
X3140Y1338D02*
G03*
X3140Y1338I-5J0D01*
G01*
X2897Y863D02*
G03*
X2897Y863I-5J0D01*
G01*
X3161Y1122D02*
G03*
X3161Y1122I-5J0D01*
G01*
X1962Y599D02*
G03*
X1962Y599I-5J0D01*
G01*
X1342Y356D02*
G03*
X1342Y356I-5J0D01*
G01*
X1155Y1157D02*
G03*
X1155Y1157I-5J0D01*
G01*
X3132Y-750D02*
G03*
X3132Y-750I-5J0D01*
G01*
X2081Y1510D02*
G03*
X2081Y1510I-5J0D01*
G01*
D75*
X2547Y1698D02*
G03*
X2547Y1698I-10J0D01*
G01*
X2986Y1696D02*
G03*
X2986Y1696I-10J0D01*
G01*
X1605Y1351D02*
G03*
X1605Y1351I-10J0D01*
G01*
D76*
X2398Y1251D02*
G03*
X2398Y1251I-12J0D01*
G01*
D77*
X2498Y-448D02*
G03*
X2462Y-438I-15J16D01*
G01*
X2498Y-451D02*
G03*
X2460Y-438I-15J18D01*
G01*
X3061Y-536D02*
G03*
X3061Y-466I-47J35D01*
G01*
X3056Y-535D02*
G03*
X3056Y-467I-42J34D01*
G01*
X3257Y-525D02*
G03*
X3249Y-517I-8J0D01*
G01*
Y-485D02*
G03*
X3257Y-477I0J8D01*
G01*
X3059Y-536D02*
G03*
X3061Y-536I117J343D01*
G01*
X3059Y-466D02*
G03*
X3056Y-467I108J-317D01*
G01*
X3061Y-386D02*
G03*
X3061Y-316I-47J35D01*
G01*
X3056Y-385D02*
G03*
X3056Y-317I-42J34D01*
G01*
X3257Y-375D02*
G03*
X3249Y-367I-8J0D01*
G01*
Y-335D02*
G03*
X3257Y-327I0J8D01*
G01*
X3059Y-386D02*
G03*
X3061Y-386I117J343D01*
G01*
X3059Y-316D02*
G03*
X3056Y-317I108J-317D01*
G01*
X3061Y-236D02*
G03*
X3061Y-166I-47J35D01*
G01*
X3056Y-235D02*
G03*
X3056Y-167I-42J34D01*
G01*
X3257Y-225D02*
G03*
X3249Y-217I-8J0D01*
G01*
Y-185D02*
G03*
X3257Y-177I0J8D01*
G01*
X3059Y-236D02*
G03*
X3061Y-236I117J343D01*
G01*
X3059Y-166D02*
G03*
X3056Y-167I108J-317D01*
G01*
X2293Y-672D02*
X2347D01*
X1887Y980D02*
Y1028D01*
X2912Y583D02*
X2952D01*
X2912Y513D02*
X2952D01*
X1628Y1225D02*
Y1273D01*
X1394Y1166D02*
X1442D01*
X1541Y731D02*
X1595D01*
X1648Y294D02*
Y348D01*
X2271Y932D02*
X2318D01*
X2186Y932D02*
X2233D01*
X2086Y765D02*
Y818D01*
X2414Y762D02*
Y815D01*
X2498Y1658D02*
X2754D01*
X2498D02*
Y1802D01*
X2754D01*
Y1658D02*
Y1802D01*
X2937Y1656D02*
X3193D01*
X2937D02*
Y1800D01*
X3193D01*
Y1656D02*
Y1800D01*
X2845Y1204D02*
X2923D01*
X2845D02*
Y1226D01*
X2923D01*
Y1204D02*
Y1226D01*
X2805Y1034D02*
X2859D01*
X2855Y1309D02*
Y1356D01*
X2335Y1602D02*
X2383D01*
X2237Y1563D02*
Y1616D01*
X2079Y1290D02*
X2425D01*
X2079Y1164D02*
X2425D01*
Y1290D01*
X2079Y1164D02*
Y1290D01*
X1635Y1312D02*
Y1713D01*
X1457Y1312D02*
X1635D01*
X1457D02*
Y1713D01*
X1635D01*
X1194Y1648D02*
Y1794D01*
X1076Y1648D02*
Y1794D01*
X1068Y1407D02*
Y1461D01*
X987Y1633D02*
Y1778D01*
X869Y1633D02*
Y1778D01*
X551Y1578D02*
Y1693D01*
X589D01*
Y1578D02*
Y1693D01*
X551Y1578D02*
X589D01*
X345Y1793D02*
Y2037D01*
X557D01*
Y1793D02*
Y2037D01*
X345Y1793D02*
X557D01*
X416Y1824D02*
Y1860D01*
X486D01*
X486Y1824D02*
X486Y1860D01*
X416Y1874D02*
X486D01*
X416D02*
Y1910D01*
X486D01*
X486Y1874D02*
X486Y1910D01*
X416Y1924D02*
X486D01*
X416D02*
Y1960D01*
X486D01*
X486Y1924D02*
X486Y1960D01*
X416Y1974D02*
X486D01*
X416D02*
Y2010D01*
X486D01*
X486Y1974D02*
X486Y2010D01*
X416Y1824D02*
X486D01*
X1600Y1049D02*
Y1103D01*
X1206Y690D02*
Y744D01*
X931Y-895D02*
X2190D01*
X931D02*
Y-69D01*
X2190D01*
Y-895D02*
Y-69D01*
X2297Y-450D02*
X2343D01*
X2448Y-552D02*
X2512D01*
X2448D02*
Y-512D01*
Y-398D02*
X2512D01*
X2574Y-501D02*
Y-449D01*
X2467Y-438D02*
X2492Y-413D01*
X2488Y-438D02*
X2502Y-423D01*
X2448Y-438D02*
Y-398D01*
X2798Y-246D02*
X2832D01*
Y-132D01*
X2798D02*
X2832D01*
X2798Y-246D02*
Y-132D01*
X1907Y1164D02*
X1917Y1174D01*
X1907Y1164D02*
X1917Y1154D01*
Y1124D02*
Y1154D01*
X1907Y1114D02*
X1917Y1124D01*
X1907Y1114D02*
X1917Y1104D01*
Y1074D02*
Y1104D01*
Y1174D02*
Y1204D01*
X1907Y1214D02*
X1917Y1204D01*
X1907Y1064D02*
X1917Y1074D01*
X1843Y1214D02*
X1907D01*
X1833Y1074D02*
X1843Y1064D01*
X1833Y1204D02*
X1843Y1214D01*
X1833Y1174D02*
Y1204D01*
X1843Y1064D02*
X1907D01*
X1833Y1074D02*
Y1104D01*
X1843Y1114D01*
X1833Y1124D02*
X1843Y1114D01*
X1833Y1124D02*
Y1154D01*
X1843Y1164D01*
X1833Y1174D02*
X1843Y1164D01*
X1454Y1849D02*
X1464Y1839D01*
X1474Y1849D01*
X1504D01*
X1514Y1839D01*
X1524Y1849D01*
X1554D01*
X1424D02*
X1454D01*
X1414Y1839D02*
X1424Y1849D01*
X1554D02*
X1564Y1839D01*
X1414Y1775D02*
Y1839D01*
X1554Y1765D02*
X1564Y1775D01*
X1414D02*
X1424Y1765D01*
X1454D01*
X1564Y1775D02*
Y1839D01*
X1524Y1765D02*
X1554D01*
X1514Y1775D02*
X1524Y1765D01*
X1504D02*
X1514Y1775D01*
X1474Y1765D02*
X1504D01*
X1464Y1775D02*
X1474Y1765D01*
X1454D02*
X1464Y1775D01*
X727Y-550D02*
Y-404D01*
X609Y-550D02*
Y-404D01*
X3392Y1371D02*
Y1513D01*
X3457D01*
X3392Y1139D02*
X3457D01*
X3731Y1204D02*
X3739Y1431D01*
X3726Y1204D02*
X3739Y1431D01*
X3717Y1219D02*
X3739Y1431D01*
X3709Y1204D02*
X3731Y1448D01*
X3703Y1204D02*
X3726Y1448D01*
X3695Y1219D02*
X3717Y1433D01*
X3687Y1204D02*
X3709Y1448D01*
X3681Y1204D02*
X3703Y1448D01*
X3673Y1219D02*
X3695Y1433D01*
X3665Y1204D02*
X3687Y1448D01*
X3659Y1204D02*
X3681Y1448D01*
X3651Y1219D02*
X3673Y1433D01*
X3643Y1204D02*
X3665Y1448D01*
X3637Y1204D02*
X3659Y1448D01*
X3629Y1219D02*
X3651Y1433D01*
X3621Y1204D02*
X3643Y1448D01*
X3615Y1204D02*
X3637Y1448D01*
X3585Y1219D02*
X3599Y1448D01*
X3585Y1221D02*
X3593Y1448D01*
X3585Y1219D02*
X3607Y1433D01*
Y1219D02*
X3629Y1433D01*
X3599Y1204D02*
X3621Y1448D01*
X3593Y1204D02*
X3615Y1448D01*
X3457Y1423D02*
X3570D01*
X3739Y1431D02*
X3767D01*
Y1221D02*
Y1431D01*
X3739Y1221D02*
X3767D01*
X3457Y1230D02*
X3570D01*
Y1423D01*
Y1423D02*
X3585Y1431D01*
Y1219D02*
Y1433D01*
X3593Y1448D01*
X3599D01*
X3607Y1433D01*
X3615Y1448D01*
X3621D01*
X3629Y1433D01*
X3637Y1448D01*
X3643D01*
X3651Y1433D01*
X3659Y1448D01*
X3665D01*
X3673Y1433D01*
X3681Y1448D01*
X3687D01*
X3695Y1433D01*
X3703Y1448D01*
X3709D01*
X3717Y1433D01*
X3726Y1448D01*
X3731D01*
X3739Y1431D01*
Y1219D02*
Y1431D01*
X3731Y1204D02*
X3739Y1219D01*
X3726Y1204D02*
X3731D01*
X3717Y1219D02*
X3726Y1204D01*
X3709D02*
X3717Y1219D01*
X3703Y1204D02*
X3709D01*
X3695Y1219D02*
X3703Y1204D01*
X3687D02*
X3695Y1219D01*
X3681Y1204D02*
X3687D01*
X3673Y1219D02*
X3681Y1204D01*
X3665D02*
X3673Y1219D01*
X3659Y1204D02*
X3665D01*
X3651Y1219D02*
X3659Y1204D01*
X3643D02*
X3651Y1219D01*
X3637Y1204D02*
X3643D01*
X3629Y1219D02*
X3637Y1204D01*
X3621D02*
X3629Y1219D01*
X3615Y1204D02*
X3621D01*
X3607Y1219D02*
X3615Y1204D01*
X3599D02*
X3607Y1219D01*
X3593Y1204D02*
X3599D01*
X3585Y1219D02*
X3593Y1204D01*
X3570Y1230D02*
X3585Y1221D01*
X3392Y1139D02*
Y1281D01*
X3457Y1139D02*
Y1513D01*
X2954Y1206D02*
X2998D01*
X3088D02*
X3132D01*
X2954D02*
Y1304D01*
X3132Y1206D02*
Y1304D01*
X2887Y888D02*
Y1097D01*
X3001Y888D02*
Y1097D01*
X2887Y888D02*
X2898D01*
X2887Y1097D02*
X2898D01*
X2990Y888D02*
X3001D01*
X2990Y1097D02*
X3001D01*
X3161Y888D02*
Y1097D01*
X3047Y888D02*
Y1097D01*
X3150D02*
X3161D01*
X3150Y888D02*
X3161D01*
X3047Y1097D02*
X3058D01*
X3047Y888D02*
X3058D01*
X2830Y626D02*
X2948D01*
X2830Y823D02*
X2948D01*
X1751Y566D02*
X1947D01*
X1751Y444D02*
X1947D01*
Y566D01*
X1751Y444D02*
Y566D01*
X1650Y724D02*
X1697D01*
X1303Y650D02*
Y661D01*
X1083Y650D02*
Y661D01*
X1303Y351D02*
Y362D01*
X1083Y351D02*
Y362D01*
Y351D02*
X1303D01*
X1083Y661D02*
X1303D01*
X1239Y1305D02*
Y1315D01*
X1229D02*
X1239D01*
Y1197D02*
Y1207D01*
X1229Y1197D02*
X1239D01*
X1121Y1305D02*
Y1315D01*
X1131D01*
X1121Y1205D02*
Y1207D01*
Y1205D02*
X1129Y1197D01*
X1131D01*
X863Y-499D02*
Y-455D01*
X801Y-499D02*
Y-455D01*
X3034Y-99D02*
X3319D01*
X3306Y-568D02*
X3309D01*
X3056D02*
Y-535D01*
X3231Y-568D02*
Y-517D01*
X3056Y-434D02*
X3236D01*
X3061Y-568D02*
Y-536D01*
X3056Y-467D02*
Y-434D01*
X3061Y-466D02*
Y-434D01*
X3056Y-568D02*
X3236D01*
X3306D02*
Y-568D01*
Y-434D01*
X3309Y-568D02*
Y-568D01*
X3236Y-485D02*
Y-434D01*
X3257Y-452D02*
X3284Y-442D01*
Y-560D02*
Y-442D01*
X3257Y-550D02*
X3284Y-560D01*
X3236Y-568D02*
Y-517D01*
X3231Y-485D02*
X3249D01*
X3231Y-517D02*
X3249D01*
X3257Y-550D02*
Y-452D01*
X3231Y-485D02*
Y-434D01*
X3057Y-535D02*
X3059Y-536D01*
X3056Y-535D02*
X3057Y-535D01*
X3059Y-466D02*
X3060Y-466D01*
X3061Y-466D01*
X3309Y-434D02*
Y-434D01*
X3306Y-434D02*
Y-434D01*
X3309D01*
X3306Y-418D02*
X3309D01*
X3056D02*
Y-385D01*
X3231Y-418D02*
Y-367D01*
X3056Y-284D02*
X3236D01*
X3061Y-418D02*
Y-386D01*
X3056Y-317D02*
Y-284D01*
X3061Y-316D02*
Y-284D01*
X3056Y-418D02*
X3236D01*
X3124Y-419D02*
X3152Y-426D01*
X3124Y-433D02*
X3152Y-426D01*
X3306Y-418D02*
Y-418D01*
Y-284D01*
X3309Y-418D02*
Y-418D01*
X3236Y-335D02*
Y-284D01*
X3257Y-302D02*
X3284Y-292D01*
Y-410D02*
Y-292D01*
X3257Y-400D02*
X3284Y-410D01*
X3236Y-418D02*
Y-367D01*
X3231Y-335D02*
X3249D01*
X3231Y-367D02*
X3249D01*
X3257Y-400D02*
Y-302D01*
X3231Y-335D02*
Y-284D01*
X3124Y-433D02*
Y-419D01*
X3057Y-385D02*
X3059Y-386D01*
X3056Y-385D02*
X3057Y-385D01*
X3059Y-316D02*
X3060Y-316D01*
X3061Y-316D01*
X3309Y-284D02*
Y-284D01*
X3306Y-284D02*
Y-284D01*
X3309D01*
X3306Y-268D02*
X3309D01*
X3056D02*
Y-235D01*
X3231Y-268D02*
Y-217D01*
X3056Y-134D02*
X3236D01*
X3061Y-268D02*
Y-236D01*
X3056Y-167D02*
Y-134D01*
X3061Y-166D02*
Y-134D01*
X3056Y-268D02*
X3236D01*
X3124Y-269D02*
X3152Y-276D01*
X3124Y-283D02*
X3152Y-276D01*
X3306Y-268D02*
Y-268D01*
Y-134D01*
X3309Y-268D02*
Y-268D01*
X3236Y-185D02*
Y-134D01*
X3257Y-152D02*
X3284Y-142D01*
Y-260D02*
Y-142D01*
X3257Y-250D02*
X3284Y-260D01*
X3236Y-268D02*
Y-217D01*
X3231Y-185D02*
X3249D01*
X3231Y-217D02*
X3249D01*
X3257Y-250D02*
Y-152D01*
X3231Y-185D02*
Y-134D01*
X3124Y-283D02*
Y-269D01*
X3057Y-235D02*
X3059Y-236D01*
X3056Y-235D02*
X3057Y-235D01*
X3059Y-166D02*
X3060Y-166D01*
X3061Y-166D01*
X3309Y-134D02*
Y-134D01*
X3306Y-134D02*
Y-134D01*
X3309D01*
X3034Y-603D02*
X3319D01*
X3309D02*
Y-99D01*
X3034Y-603D02*
Y-99D01*
X3319Y-603D02*
Y-99D01*
X3052Y-734D02*
X3060D01*
X3052Y-766D02*
X3060D01*
X1993Y1635D02*
X2030D01*
X1993Y1521D02*
Y1635D01*
Y1521D02*
X2030D01*
Y1635D01*
X393Y2000D02*
X395Y1996D01*
X400Y1990D01*
X361D01*
X391Y1948D02*
X393D01*
X397Y1946D01*
X398Y1944D01*
X400Y1940D01*
Y1933D01*
X398Y1929D01*
X397Y1927D01*
X393Y1926D01*
X389D01*
X385Y1927D01*
X380Y1931D01*
X361Y1950D01*
Y1924D01*
X540Y2004D02*
X538Y2007D01*
X535Y2011D01*
X531Y2013D01*
X525Y2015D01*
X516D01*
X510Y2013D01*
X507Y2011D01*
X503Y2007D01*
X501Y2004D01*
Y1996D01*
X503Y1992D01*
X507Y1989D01*
X510Y1987D01*
X516Y1985D01*
X525D01*
X531Y1987D01*
X535Y1989D01*
X538Y1992D01*
X540Y1996D01*
Y2004D01*
Y1976D02*
X501D01*
X540D02*
X501Y1949D01*
X540D02*
X501D01*
X400Y1896D02*
Y1876D01*
X385Y1887D01*
Y1881D01*
X383Y1877D01*
X382Y1876D01*
X376Y1874D01*
X372D01*
X367Y1876D01*
X363Y1879D01*
X361Y1885D01*
Y1890D01*
X363Y1896D01*
X365Y1898D01*
X368Y1900D01*
X400Y1831D02*
X374Y1850D01*
Y1822D01*
X400Y1831D02*
X361D01*
X703Y1955D02*
X698Y1953D01*
X692Y1946D01*
Y1994D01*
X709Y2067D02*
Y2065D01*
X706Y2060D01*
X704Y2058D01*
X700Y2056D01*
X691D01*
X686Y2058D01*
X684Y2060D01*
X682Y2065D01*
Y2069D01*
X684Y2074D01*
X688Y2080D01*
X711Y2103D01*
X679D01*
X3107Y1943D02*
X3129Y1975D01*
X3095D01*
X3107Y1943D02*
Y1991D01*
X3060Y1943D02*
X3083D01*
X3085Y1964D01*
X3083Y1961D01*
X3076Y1959D01*
X3069D01*
X3062Y1961D01*
X3058Y1966D01*
X3056Y1973D01*
Y1977D01*
X3058Y1984D01*
X3062Y1988D01*
X3069Y1991D01*
X3076D01*
X3083Y1988D01*
X3085Y1986D01*
X3087Y1982D01*
X3107Y2053D02*
X3129Y2085D01*
X3095D01*
X3107Y2053D02*
Y2101D01*
X3060Y2060D02*
X3062Y2056D01*
X3069Y2053D01*
X3074D01*
X3080Y2056D01*
X3085Y2062D01*
X3087Y2074D01*
Y2085D01*
X3085Y2094D01*
X3080Y2098D01*
X3074Y2101D01*
X3071D01*
X3065Y2098D01*
X3060Y2094D01*
X3058Y2087D01*
Y2085D01*
X3060Y2078D01*
X3065Y2074D01*
X3071Y2071D01*
X3074D01*
X3080Y2074D01*
X3085Y2078D01*
X3087Y2085D01*
X703Y55D02*
X698Y53D01*
X692Y46D01*
Y94D01*
X709Y167D02*
Y165D01*
X706Y160D01*
X704Y158D01*
X700Y156D01*
X691D01*
X686Y158D01*
X684Y160D01*
X682Y165D01*
Y169D01*
X684Y174D01*
X688Y180D01*
X711Y203D01*
X679D01*
X3107Y43D02*
X3129Y75D01*
X3095D01*
X3107Y43D02*
Y91D01*
X3060Y43D02*
X3083D01*
X3085Y64D01*
X3083Y61D01*
X3076Y59D01*
X3069D01*
X3062Y61D01*
X3058Y66D01*
X3056Y73D01*
Y77D01*
X3058Y84D01*
X3062Y88D01*
X3069Y91D01*
X3076D01*
X3083Y88D01*
X3085Y86D01*
X3087Y82D01*
X3107Y153D02*
X3129Y185D01*
X3095D01*
X3107Y153D02*
Y200D01*
X3060Y160D02*
X3062Y156D01*
X3069Y153D01*
X3074D01*
X3080Y156D01*
X3085Y162D01*
X3087Y174D01*
Y185D01*
X3085Y194D01*
X3080Y198D01*
X3074Y200D01*
X3071D01*
X3065Y198D01*
X3060Y194D01*
X3058Y187D01*
Y185D01*
X3060Y178D01*
X3065Y174D01*
X3071Y171D01*
X3074D01*
X3080Y174D01*
X3085Y178D01*
X3087Y185D01*
D78*
X1822Y1060D02*
G03*
X1822Y1060I-4J0D01*
G01*
X1572Y1750D02*
G03*
X1572Y1750I-4J0D01*
G01*
D79*
X2316Y-792D02*
X2341D01*
X2329D01*
Y-829D01*
X2353D02*
Y-792D01*
X2372D01*
X2378Y-798D01*
Y-811D01*
X2372Y-817D01*
X2353D01*
X2390Y-829D02*
X2403D01*
X2396D01*
Y-792D01*
X2390Y-798D01*
X2421D02*
X2427Y-792D01*
X2440D01*
X2446Y-798D01*
Y-823D01*
X2440Y-829D01*
X2427D01*
X2421Y-823D01*
Y-798D01*
X1386Y1075D02*
Y1038D01*
X1411D01*
X1423Y1069D02*
X1430Y1075D01*
X1442D01*
X1448Y1069D01*
Y1063D01*
X1442Y1057D01*
X1448Y1051D01*
Y1044D01*
X1442Y1038D01*
X1430D01*
X1423Y1044D01*
Y1051D01*
X1430Y1057D01*
X1423Y1063D01*
Y1069D01*
X1430Y1057D02*
X1442D01*
X1591Y1187D02*
Y1150D01*
X1616D01*
X1628Y1187D02*
X1653D01*
Y1181D01*
X1628Y1156D01*
Y1150D01*
X1554Y1026D02*
X1579D01*
X1566D01*
Y989D01*
X1591D02*
Y1026D01*
X1609D01*
X1616Y1020D01*
Y1007D01*
X1609Y1001D01*
X1591D01*
X1628Y995D02*
X1634Y989D01*
X1646D01*
X1653Y995D01*
Y1020D01*
X1646Y1026D01*
X1634D01*
X1628Y1020D01*
Y1014D01*
X1634Y1007D01*
X1653D01*
X2935Y-49D02*
X2928Y-43D01*
X2916D01*
X2910Y-49D01*
Y-74D01*
X2916Y-80D01*
X2928D01*
X2935Y-74D01*
X2972Y-43D02*
X2947D01*
Y-62D01*
X2959Y-55D01*
X2965D01*
X2972Y-62D01*
Y-74D01*
X2965Y-80D01*
X2953D01*
X2947Y-74D01*
X3009Y-43D02*
X2996Y-49D01*
X2984Y-62D01*
Y-74D01*
X2990Y-80D01*
X3002D01*
X3009Y-74D01*
Y-68D01*
X3002Y-62D01*
X2984D01*
X2876Y-692D02*
Y-655D01*
X2895D01*
X2901Y-661D01*
Y-674D01*
X2895Y-680D01*
X2876D01*
X2888D02*
X2901Y-692D01*
X2938D02*
X2913D01*
X2938Y-667D01*
Y-661D01*
X2932Y-655D01*
X2919D01*
X2913Y-661D01*
X2969Y-692D02*
Y-655D01*
X2950Y-674D01*
X2975D01*
X3095Y-665D02*
Y-702D01*
X3120D01*
X3132Y-665D02*
Y-702D01*
X3150D01*
X3157Y-696D01*
Y-671D01*
X3150Y-665D01*
X3132D01*
X3169Y-702D02*
X3181D01*
X3175D01*
Y-665D01*
X3169Y-671D01*
X2738Y-47D02*
X2750D01*
X2744D01*
Y-84D01*
X2738D01*
X2750D01*
X2793Y-53D02*
X2787Y-47D01*
X2775D01*
X2769Y-53D01*
Y-78D01*
X2775Y-84D01*
X2787D01*
X2793Y-78D01*
X2806Y-84D02*
X2818D01*
X2812D01*
Y-47D01*
X2806Y-53D01*
X2837Y-84D02*
X2849D01*
X2843D01*
Y-47D01*
X2837Y-53D01*
X1399Y1909D02*
X1386D01*
X1392D01*
Y1878D01*
X1386Y1872D01*
X1380D01*
X1374Y1878D01*
X1411Y1897D02*
Y1878D01*
X1417Y1872D01*
X1436D01*
Y1897D01*
X1448Y1872D02*
Y1897D01*
X1454D01*
X1460Y1890D01*
Y1872D01*
Y1890D01*
X1466Y1897D01*
X1473Y1890D01*
Y1872D01*
X1485Y1860D02*
Y1897D01*
X1503D01*
X1510Y1890D01*
Y1878D01*
X1503Y1872D01*
X1485D01*
X1540D02*
X1528D01*
X1522Y1878D01*
Y1890D01*
X1528Y1897D01*
X1540D01*
X1547Y1890D01*
Y1884D01*
X1522D01*
X1559Y1897D02*
Y1872D01*
Y1884D01*
X1565Y1890D01*
X1571Y1897D01*
X1577D01*
X1621Y1872D02*
X1596D01*
X1621Y1897D01*
Y1903D01*
X1614Y1909D01*
X1602D01*
X1596Y1903D01*
X1752Y1044D02*
Y1031D01*
Y1037D01*
X1783D01*
X1789Y1031D01*
Y1025D01*
X1783Y1019D01*
X1764Y1056D02*
X1783D01*
X1789Y1062D01*
Y1081D01*
X1764D01*
X1789Y1093D02*
X1764D01*
Y1099D01*
X1771Y1105D01*
X1789D01*
X1771D01*
X1764Y1111D01*
X1771Y1118D01*
X1789D01*
X1801Y1130D02*
X1764D01*
Y1148D01*
X1771Y1155D01*
X1783D01*
X1789Y1148D01*
Y1130D01*
Y1185D02*
Y1173D01*
X1783Y1167D01*
X1771D01*
X1764Y1173D01*
Y1185D01*
X1771Y1192D01*
X1777D01*
Y1167D01*
X1764Y1204D02*
X1789D01*
X1777D01*
X1771Y1210D01*
X1764Y1216D01*
Y1222D01*
X1789Y1241D02*
Y1253D01*
Y1247D01*
X1752D01*
X1758Y1241D01*
X629Y-316D02*
X622Y-310D01*
X610D01*
X604Y-316D01*
Y-341D01*
X610Y-347D01*
X622D01*
X629Y-341D01*
X666Y-310D02*
X641D01*
Y-329D01*
X653Y-322D01*
X659D01*
X666Y-329D01*
Y-341D01*
X659Y-347D01*
X647D01*
X641Y-341D01*
X703Y-310D02*
X678D01*
Y-329D01*
X690Y-322D01*
X696D01*
X703Y-329D01*
Y-341D01*
X696Y-347D01*
X684D01*
X678Y-341D01*
X2158Y1674D02*
X2183D01*
X2170D01*
Y1637D01*
X2195D02*
Y1674D01*
X2213D01*
X2220Y1668D01*
Y1655D01*
X2213Y1649D01*
X2195D01*
X2250Y1637D02*
Y1674D01*
X2232Y1655D01*
X2257D01*
X2496Y810D02*
X2521D01*
X2508D01*
Y773D01*
X2533D02*
Y810D01*
X2551D01*
X2558Y804D01*
Y791D01*
X2551Y785D01*
X2533D01*
X2595Y773D02*
X2570D01*
X2595Y797D01*
Y804D01*
X2588Y810D01*
X2576D01*
X2570Y804D01*
X1904Y838D02*
X1929D01*
X1916D01*
Y801D01*
X1941D02*
Y838D01*
X1959D01*
X1966Y832D01*
Y819D01*
X1959Y813D01*
X1941D01*
X1978Y832D02*
X1984Y838D01*
X1996D01*
X2003Y832D01*
Y826D01*
X1996Y819D01*
X1990D01*
X1996D01*
X2003Y813D01*
Y807D01*
X1996Y801D01*
X1984D01*
X1978Y807D01*
X2700Y1051D02*
X2725D01*
X2712D01*
Y1014D01*
X2737D02*
Y1051D01*
X2755D01*
X2762Y1045D01*
Y1032D01*
X2755Y1026D01*
X2737D01*
X2774Y1014D02*
X2786D01*
X2780D01*
Y1051D01*
X2774Y1045D01*
X1499Y858D02*
X1524D01*
X1511D01*
Y821D01*
X1536D02*
Y858D01*
X1554D01*
X1561Y852D01*
Y839D01*
X1554Y833D01*
X1536D01*
X1598Y858D02*
X1573D01*
Y839D01*
X1585Y846D01*
X1591D01*
X1598Y839D01*
Y827D01*
X1591Y821D01*
X1579D01*
X1573Y827D01*
X1593Y277D02*
X1617D01*
X1605D01*
Y240D01*
X1630D02*
Y277D01*
X1648D01*
X1654Y271D01*
Y258D01*
X1648Y252D01*
X1630D01*
X1691Y277D02*
X1679Y271D01*
X1667Y258D01*
Y246D01*
X1673Y240D01*
X1685D01*
X1691Y246D01*
Y252D01*
X1685Y258D01*
X1667D01*
X1297Y737D02*
X1322D01*
X1310D01*
Y700D01*
X1334D02*
Y737D01*
X1353D01*
X1359Y731D01*
Y718D01*
X1353Y712D01*
X1334D01*
X1371Y737D02*
X1396D01*
Y731D01*
X1371Y706D01*
Y700D01*
X883Y1456D02*
X908D01*
X895D01*
Y1419D01*
X920D02*
Y1456D01*
X938D01*
X945Y1450D01*
Y1437D01*
X938Y1431D01*
X920D01*
X957Y1450D02*
X963Y1456D01*
X975D01*
X982Y1450D01*
Y1444D01*
X975Y1437D01*
X982Y1431D01*
Y1425D01*
X975Y1419D01*
X963D01*
X957Y1425D01*
Y1431D01*
X963Y1437D01*
X957Y1444D01*
Y1450D01*
X963Y1437D02*
X975D01*
X3148Y107D02*
Y144D01*
X3166D01*
X3173Y138D01*
Y125D01*
X3166Y119D01*
X3148D01*
X3185Y113D02*
X3191Y107D01*
X3203D01*
X3210Y113D01*
Y138D01*
X3203Y144D01*
X3191D01*
X3185Y138D01*
Y132D01*
X3191Y125D01*
X3210D01*
X3157Y1948D02*
Y1985D01*
X3175D01*
X3182Y1979D01*
Y1966D01*
X3175Y1960D01*
X3157D01*
X3194Y1979D02*
X3200Y1985D01*
X3212D01*
X3219Y1979D01*
Y1973D01*
X3212Y1966D01*
X3219Y1960D01*
Y1954D01*
X3212Y1948D01*
X3200D01*
X3194Y1954D01*
Y1960D01*
X3200Y1966D01*
X3194Y1973D01*
Y1979D01*
X3200Y1966D02*
X3212D01*
X971Y716D02*
X996D01*
X983D01*
Y679D01*
X1008D02*
Y716D01*
X1026D01*
X1033Y710D01*
Y697D01*
X1026Y691D01*
X1008D01*
X1020D02*
X1033Y679D01*
X1045D02*
X1057D01*
X1051D01*
Y716D01*
X1045Y710D01*
X374Y2089D02*
X367Y2095D01*
X355D01*
X349Y2089D01*
Y2083D01*
X355Y2076D01*
X367D01*
X374Y2070D01*
Y2064D01*
X367Y2058D01*
X355D01*
X349Y2064D01*
X386Y2095D02*
Y2058D01*
X398Y2070D01*
X411Y2058D01*
Y2095D01*
X423Y2089D02*
X429Y2095D01*
X441D01*
X448Y2089D01*
Y2083D01*
X441Y2076D01*
X435D01*
X441D01*
X448Y2070D01*
Y2064D01*
X441Y2058D01*
X429D01*
X423Y2064D01*
X105Y1567D02*
Y1604D01*
X124D01*
X130Y1598D01*
Y1585D01*
X124Y1579D01*
X105D01*
X118D02*
X130Y1567D01*
X167D02*
X142D01*
X167Y1592D01*
Y1598D01*
X161Y1604D01*
X148D01*
X142Y1598D01*
X179D02*
X185Y1604D01*
X198D01*
X204Y1598D01*
Y1592D01*
X198Y1585D01*
X192D01*
X198D01*
X204Y1579D01*
Y1573D01*
X198Y1567D01*
X185D01*
X179Y1573D01*
X105Y1623D02*
Y1660D01*
X124D01*
X130Y1654D01*
Y1641D01*
X124Y1635D01*
X105D01*
X118D02*
X130Y1623D01*
X167D02*
X142D01*
X167Y1648D01*
Y1654D01*
X161Y1660D01*
X148D01*
X142Y1654D01*
X204Y1623D02*
X179D01*
X204Y1648D01*
Y1654D01*
X198Y1660D01*
X185D01*
X179Y1654D01*
X105Y1681D02*
Y1718D01*
X124D01*
X130Y1712D01*
Y1699D01*
X124Y1693D01*
X105D01*
X118D02*
X130Y1681D01*
X167D02*
X142D01*
X167Y1705D01*
Y1712D01*
X161Y1718D01*
X148D01*
X142Y1712D01*
X179Y1681D02*
X192D01*
X185D01*
Y1718D01*
X179Y1712D01*
X105Y1736D02*
Y1773D01*
X124D01*
X130Y1767D01*
Y1754D01*
X124Y1748D01*
X105D01*
X118D02*
X130Y1736D01*
X167D02*
X142D01*
X167Y1761D01*
Y1767D01*
X161Y1773D01*
X148D01*
X142Y1767D01*
X179D02*
X185Y1773D01*
X198D01*
X204Y1767D01*
Y1742D01*
X198Y1736D01*
X185D01*
X179Y1742D01*
Y1767D01*
X1131Y1494D02*
Y1531D01*
X1149D01*
X1155Y1525D01*
Y1512D01*
X1149Y1506D01*
X1131D01*
X1143D02*
X1155Y1494D01*
X1168D02*
X1180D01*
X1174D01*
Y1531D01*
X1168Y1525D01*
X1199Y1500D02*
X1205Y1494D01*
X1217D01*
X1223Y1500D01*
Y1525D01*
X1217Y1531D01*
X1205D01*
X1199Y1525D01*
Y1519D01*
X1205Y1512D01*
X1223D01*
X2811Y1573D02*
Y1610D01*
X2829D01*
X2836Y1604D01*
Y1591D01*
X2829Y1585D01*
X2811D01*
X2823D02*
X2836Y1573D01*
X2848D02*
X2860D01*
X2854D01*
Y1610D01*
X2848Y1604D01*
X2879D02*
X2885Y1610D01*
X2897D01*
X2903Y1604D01*
Y1598D01*
X2897Y1591D01*
X2903Y1585D01*
Y1579D01*
X2897Y1573D01*
X2885D01*
X2879Y1579D01*
Y1585D01*
X2885Y1591D01*
X2879Y1598D01*
Y1604D01*
X2885Y1591D02*
X2897D01*
X1934Y250D02*
Y287D01*
X1952D01*
X1959Y281D01*
Y268D01*
X1952Y262D01*
X1934D01*
X1946D02*
X1959Y250D01*
X1971D02*
X1983D01*
X1977D01*
Y287D01*
X1971Y281D01*
X2002Y287D02*
X2026D01*
Y281D01*
X2002Y256D01*
Y250D01*
X1556Y319D02*
X1519D01*
Y337D01*
X1525Y344D01*
X1538D01*
X1544Y337D01*
Y319D01*
Y331D02*
X1556Y344D01*
Y356D02*
Y368D01*
Y362D01*
X1519D01*
X1525Y356D01*
X1519Y411D02*
X1525Y399D01*
X1538Y387D01*
X1550D01*
X1556Y393D01*
Y405D01*
X1550Y411D01*
X1544D01*
X1538Y405D01*
Y387D01*
X1086Y859D02*
Y896D01*
X1104D01*
X1111Y890D01*
Y877D01*
X1104Y871D01*
X1086D01*
X1098D02*
X1111Y859D01*
X1123D02*
X1135D01*
X1129D01*
Y896D01*
X1123Y890D01*
X1178Y896D02*
X1154D01*
Y877D01*
X1166Y884D01*
X1172D01*
X1178Y877D01*
Y865D01*
X1172Y859D01*
X1160D01*
X1154Y865D01*
X2431Y618D02*
X2394D01*
Y636D01*
X2400Y643D01*
X2413D01*
X2419Y636D01*
Y618D01*
Y630D02*
X2431Y643D01*
Y655D02*
Y667D01*
Y661D01*
X2394D01*
X2400Y655D01*
X2431Y704D02*
X2394D01*
X2413Y686D01*
Y710D01*
X2209Y471D02*
Y508D01*
X2227D01*
X2234Y502D01*
Y489D01*
X2227Y483D01*
X2209D01*
X2221D02*
X2234Y471D01*
X2246D02*
X2258D01*
X2252D01*
Y508D01*
X2246Y502D01*
X2277D02*
X2283Y508D01*
X2295D01*
X2301Y502D01*
Y496D01*
X2295Y489D01*
X2289D01*
X2295D01*
X2301Y483D01*
Y477D01*
X2295Y471D01*
X2283D01*
X2277Y477D01*
X2374Y617D02*
X2337D01*
Y635D01*
X2343Y642D01*
X2356D01*
X2362Y635D01*
Y617D01*
Y629D02*
X2374Y642D01*
Y654D02*
Y666D01*
Y660D01*
X2337D01*
X2343Y654D01*
X2374Y709D02*
Y685D01*
X2349Y709D01*
X2343D01*
X2337Y703D01*
Y691D01*
X2343Y685D01*
X1431Y700D02*
Y737D01*
X1449D01*
X1455Y731D01*
Y718D01*
X1449Y712D01*
X1431D01*
X1443D02*
X1455Y700D01*
X1468D02*
X1480D01*
X1474D01*
Y737D01*
X1468Y731D01*
X1499Y700D02*
X1511D01*
X1505D01*
Y737D01*
X1499Y731D01*
X1957Y699D02*
X1920D01*
Y717D01*
X1926Y724D01*
X1939D01*
X1945Y717D01*
Y699D01*
Y711D02*
X1957Y724D01*
Y736D02*
Y748D01*
Y742D01*
X1920D01*
X1926Y736D01*
Y767D02*
X1920Y773D01*
Y785D01*
X1926Y791D01*
X1951D01*
X1957Y785D01*
Y773D01*
X1951Y767D01*
X1926D01*
X1809Y1621D02*
Y1658D01*
X1827D01*
X1834Y1652D01*
Y1639D01*
X1827Y1633D01*
X1809D01*
X1821D02*
X1834Y1621D01*
X1846Y1627D02*
X1852Y1621D01*
X1864D01*
X1871Y1627D01*
Y1652D01*
X1864Y1658D01*
X1852D01*
X1846Y1652D01*
Y1646D01*
X1852Y1639D01*
X1871D01*
X1816Y1365D02*
Y1402D01*
X1834D01*
X1841Y1396D01*
Y1383D01*
X1834Y1377D01*
X1816D01*
X1828D02*
X1841Y1365D01*
X1853Y1396D02*
X1859Y1402D01*
X1871D01*
X1878Y1396D01*
Y1390D01*
X1871Y1383D01*
X1878Y1377D01*
Y1371D01*
X1871Y1365D01*
X1859D01*
X1853Y1371D01*
Y1377D01*
X1859Y1383D01*
X1853Y1390D01*
Y1396D01*
X1859Y1383D02*
X1871D01*
X1840Y1445D02*
Y1482D01*
X1858D01*
X1865Y1476D01*
Y1464D01*
X1858Y1457D01*
X1840D01*
X1852D02*
X1865Y1445D01*
X1877Y1482D02*
X1902D01*
Y1476D01*
X1877Y1451D01*
Y1445D01*
X2109Y1018D02*
Y1055D01*
X2128D01*
X2134Y1049D01*
Y1036D01*
X2128Y1030D01*
X2109D01*
X2122D02*
X2134Y1018D01*
X2171Y1055D02*
X2159Y1049D01*
X2146Y1036D01*
Y1024D01*
X2153Y1018D01*
X2165D01*
X2171Y1024D01*
Y1030D01*
X2165Y1036D01*
X2146D01*
X2537Y887D02*
Y924D01*
X2555D01*
X2562Y918D01*
Y905D01*
X2555Y899D01*
X2537D01*
X2549D02*
X2562Y887D01*
X2599Y924D02*
X2574D01*
Y905D01*
X2586Y912D01*
X2592D01*
X2599Y905D01*
Y893D01*
X2592Y887D01*
X2580D01*
X2574Y893D01*
X2355Y1011D02*
Y1048D01*
X2374D01*
X2380Y1042D01*
Y1029D01*
X2374Y1023D01*
X2355D01*
X2368D02*
X2380Y1011D01*
X2411D02*
Y1048D01*
X2392Y1029D01*
X2417D01*
X2568Y1354D02*
Y1391D01*
X2586D01*
X2593Y1385D01*
Y1372D01*
X2586Y1366D01*
X2568D01*
X2580D02*
X2593Y1354D01*
X2605Y1385D02*
X2611Y1391D01*
X2623D01*
X2630Y1385D01*
Y1379D01*
X2623Y1372D01*
X2617D01*
X2623D01*
X2630Y1366D01*
Y1360D01*
X2623Y1354D01*
X2611D01*
X2605Y1360D01*
X2439Y1016D02*
Y1053D01*
X2457D01*
X2464Y1047D01*
Y1034D01*
X2457Y1028D01*
X2439D01*
X2451D02*
X2464Y1016D01*
X2501D02*
X2476D01*
X2501Y1041D01*
Y1047D01*
X2494Y1053D01*
X2482D01*
X2476Y1047D01*
X2877Y689D02*
X2914D01*
Y670D01*
X2908Y664D01*
X2895D01*
X2889Y670D01*
Y689D01*
Y677D02*
X2877Y664D01*
Y652D02*
Y640D01*
Y646D01*
X2914D01*
X2908Y652D01*
X2458Y-363D02*
Y-326D01*
X2476D01*
X2483Y-332D01*
Y-345D01*
X2476Y-351D01*
X2458D01*
X2495Y-363D02*
X2507D01*
X2501D01*
Y-326D01*
X2495Y-332D01*
X532Y1765D02*
X520D01*
X514Y1759D01*
Y1735D01*
X520Y1728D01*
X532D01*
X539Y1735D01*
Y1759D01*
X532Y1765D01*
X576Y1759D02*
X569Y1765D01*
X557D01*
X551Y1759D01*
Y1753D01*
X557Y1747D01*
X569D01*
X576Y1741D01*
Y1735D01*
X569Y1728D01*
X557D01*
X551Y1735D01*
X613Y1759D02*
X606Y1765D01*
X594D01*
X588Y1759D01*
Y1735D01*
X594Y1728D01*
X606D01*
X613Y1735D01*
X625Y1728D02*
X637D01*
X631D01*
Y1765D01*
X625Y1759D01*
X1648Y833D02*
Y796D01*
X1673D01*
X1710Y833D02*
X1697Y827D01*
X1685Y814D01*
Y802D01*
X1691Y796D01*
X1703D01*
X1710Y802D01*
Y808D01*
X1703Y814D01*
X1685D01*
X1746Y976D02*
Y939D01*
X1771D01*
X1808Y976D02*
X1783D01*
Y957D01*
X1795Y964D01*
X1801D01*
X1808Y957D01*
Y945D01*
X1801Y939D01*
X1789D01*
X1783Y945D01*
X2186Y1069D02*
Y1032D01*
X2211D01*
X2241D02*
Y1069D01*
X2223Y1050D01*
X2248D01*
X2329Y1720D02*
Y1683D01*
X2354D01*
X2366Y1714D02*
X2372Y1720D01*
X2384D01*
X2391Y1714D01*
Y1707D01*
X2384Y1701D01*
X2378D01*
X2384D01*
X2391Y1695D01*
Y1689D01*
X2384Y1683D01*
X2372D01*
X2366Y1689D01*
X2266Y1069D02*
Y1032D01*
X2291D01*
X2328D02*
X2303D01*
X2328Y1057D01*
Y1063D01*
X2321Y1069D01*
X2309D01*
X2303Y1063D01*
X2836Y1421D02*
Y1384D01*
X2861D01*
X2873D02*
X2885D01*
X2879D01*
Y1421D01*
X2873Y1415D01*
X3130Y-37D02*
X3117D01*
X3123D01*
Y-68D01*
X3117Y-74D01*
X3111D01*
X3105Y-68D01*
X3167Y-74D02*
X3142D01*
X3167Y-49D01*
Y-43D01*
X3160Y-37D01*
X3148D01*
X3142Y-43D01*
X3338Y1587D02*
X3325D01*
X3331D01*
Y1556D01*
X3325Y1550D01*
X3319D01*
X3313Y1556D01*
X3350Y1550D02*
X3362D01*
X3356D01*
Y1587D01*
X3350Y1581D01*
X789Y-177D02*
X801D01*
X795D01*
Y-214D01*
X789D01*
X801D01*
X844Y-183D02*
X838Y-177D01*
X826D01*
X820Y-183D01*
Y-208D01*
X826Y-214D01*
X838D01*
X844Y-208D01*
X857Y-214D02*
X869D01*
X863D01*
Y-177D01*
X857Y-183D01*
X888D02*
X894Y-177D01*
X906D01*
X912Y-183D01*
Y-208D01*
X906Y-214D01*
X894D01*
X888Y-208D01*
Y-183D01*
X2388Y1777D02*
X2400D01*
X2394D01*
Y1740D01*
X2388D01*
X2400D01*
X2443Y1771D02*
X2437Y1777D01*
X2425D01*
X2419Y1771D01*
Y1746D01*
X2425Y1740D01*
X2437D01*
X2443Y1746D01*
X2456D02*
X2462Y1740D01*
X2474D01*
X2480Y1746D01*
Y1771D01*
X2474Y1777D01*
X2462D01*
X2456Y1771D01*
Y1765D01*
X2462Y1759D01*
X2480D01*
X1614Y1777D02*
X1626D01*
X1620D01*
Y1740D01*
X1614D01*
X1626D01*
X1669Y1771D02*
X1663Y1777D01*
X1651D01*
X1645Y1771D01*
Y1746D01*
X1651Y1740D01*
X1663D01*
X1669Y1746D01*
X1682Y1771D02*
X1688Y1777D01*
X1700D01*
X1706Y1771D01*
Y1765D01*
X1700Y1759D01*
X1706Y1753D01*
Y1746D01*
X1700Y1740D01*
X1688D01*
X1682Y1746D01*
Y1753D01*
X1688Y1759D01*
X1682Y1765D01*
Y1771D01*
X1688Y1759D02*
X1700D01*
X3222Y1765D02*
X3234D01*
X3228D01*
Y1728D01*
X3222D01*
X3234D01*
X3277Y1759D02*
X3271Y1765D01*
X3259D01*
X3253Y1759D01*
Y1734D01*
X3259Y1728D01*
X3271D01*
X3277Y1734D01*
X3290Y1765D02*
X3314D01*
Y1759D01*
X3290Y1734D01*
Y1728D01*
X1969Y457D02*
Y469D01*
Y463D01*
X2006D01*
Y457D01*
Y469D01*
X1975Y512D02*
X1969Y506D01*
Y494D01*
X1975Y488D01*
X2000D01*
X2006Y494D01*
Y506D01*
X2000Y512D01*
X1969Y549D02*
X1975Y537D01*
X1987Y525D01*
X2000D01*
X2006Y531D01*
Y543D01*
X2000Y549D01*
X1993D01*
X1987Y543D01*
Y525D01*
X1038Y1384D02*
X1051D01*
X1045D01*
Y1347D01*
X1038D01*
X1051D01*
X1094Y1378D02*
X1088Y1384D01*
X1075D01*
X1069Y1378D01*
Y1353D01*
X1075Y1347D01*
X1088D01*
X1094Y1353D01*
X1131Y1384D02*
X1106D01*
Y1366D01*
X1119Y1372D01*
X1125D01*
X1131Y1366D01*
Y1353D01*
X1125Y1347D01*
X1112D01*
X1106Y1353D01*
X1953Y1505D02*
X1965D01*
X1959D01*
Y1468D01*
X1953D01*
X1965D01*
X2008Y1499D02*
X2002Y1505D01*
X1990D01*
X1984Y1499D01*
Y1474D01*
X1990Y1468D01*
X2002D01*
X2008Y1474D01*
X2039Y1468D02*
Y1505D01*
X2021Y1486D01*
X2045D01*
X2428Y1137D02*
X2440D01*
X2434D01*
Y1100D01*
X2428D01*
X2440D01*
X2483Y1130D02*
X2477Y1137D01*
X2465D01*
X2459Y1130D01*
Y1106D01*
X2465Y1100D01*
X2477D01*
X2483Y1106D01*
X2496Y1130D02*
X2502Y1137D01*
X2514D01*
X2520Y1130D01*
Y1124D01*
X2514Y1118D01*
X2508D01*
X2514D01*
X2520Y1112D01*
Y1106D01*
X2514Y1100D01*
X2502D01*
X2496Y1106D01*
X3001Y1437D02*
X3013D01*
X3007D01*
Y1400D01*
X3001D01*
X3013D01*
X3057Y1431D02*
X3050Y1437D01*
X3038D01*
X3032Y1431D01*
Y1406D01*
X3038Y1400D01*
X3050D01*
X3057Y1406D01*
X3094Y1400D02*
X3069D01*
X3094Y1424D01*
Y1431D01*
X3087Y1437D01*
X3075D01*
X3069Y1431D01*
X3049Y396D02*
X3061D01*
X3055D01*
Y359D01*
X3049D01*
X3061D01*
X3104Y390D02*
X3098Y396D01*
X3086D01*
X3080Y390D01*
Y365D01*
X3086Y359D01*
X3098D01*
X3104Y365D01*
X3117Y359D02*
X3129D01*
X3123D01*
Y396D01*
X3117Y390D01*
X2750Y1263D02*
Y1226D01*
X2768D01*
X2775Y1232D01*
Y1257D01*
X2768Y1263D01*
X2750D01*
X2787Y1257D02*
X2793Y1263D01*
X2805D01*
X2812Y1257D01*
Y1250D01*
X2805Y1244D01*
X2799D01*
X2805D01*
X2812Y1238D01*
Y1232D01*
X2805Y1226D01*
X2793D01*
X2787Y1232D01*
X2807Y895D02*
Y858D01*
X2825D01*
X2832Y864D01*
Y889D01*
X2825Y895D01*
X2807D01*
X2869Y858D02*
X2844D01*
X2869Y883D01*
Y889D01*
X2862Y895D01*
X2850D01*
X2844Y889D01*
X3186Y913D02*
Y876D01*
X3204D01*
X3211Y882D01*
Y907D01*
X3204Y913D01*
X3186D01*
X3223Y876D02*
X3235D01*
X3229D01*
Y913D01*
X3223Y907D01*
X818Y-326D02*
X811Y-320D01*
X799D01*
X793Y-326D01*
Y-351D01*
X799Y-357D01*
X811D01*
X818Y-351D01*
X855Y-320D02*
X830D01*
Y-339D01*
X842Y-332D01*
X848D01*
X855Y-339D01*
Y-351D01*
X848Y-357D01*
X836D01*
X830Y-351D01*
X885Y-357D02*
Y-320D01*
X867Y-339D01*
X892D01*
X2255Y-538D02*
X2248Y-532D01*
X2236D01*
X2230Y-538D01*
Y-563D01*
X2236Y-569D01*
X2248D01*
X2255Y-563D01*
X2292Y-532D02*
X2267D01*
Y-551D01*
X2279Y-544D01*
X2285D01*
X2292Y-551D01*
Y-563D01*
X2285Y-569D01*
X2273D01*
X2267Y-563D01*
X2304Y-538D02*
X2310Y-532D01*
X2322D01*
X2329Y-538D01*
Y-544D01*
X2322Y-551D01*
X2316D01*
X2322D01*
X2329Y-557D01*
Y-563D01*
X2322Y-569D01*
X2310D01*
X2304Y-563D01*
X339Y1658D02*
X332Y1664D01*
X320D01*
X314Y1658D01*
Y1634D01*
X320Y1628D01*
X332D01*
X339Y1634D01*
X376Y1664D02*
X351D01*
Y1646D01*
X363Y1652D01*
X369D01*
X376Y1646D01*
Y1634D01*
X369Y1628D01*
X357D01*
X351Y1634D01*
X413Y1628D02*
X388D01*
X413Y1652D01*
Y1658D01*
X406Y1664D01*
X394D01*
X388Y1658D01*
X2279Y1836D02*
X2272Y1842D01*
X2260D01*
X2254Y1836D01*
Y1811D01*
X2260Y1805D01*
X2272D01*
X2279Y1811D01*
X2316Y1842D02*
X2291D01*
Y1823D01*
X2303Y1830D01*
X2309D01*
X2316Y1823D01*
Y1811D01*
X2309Y1805D01*
X2297D01*
X2291Y1811D01*
X2328Y1805D02*
X2340D01*
X2334D01*
Y1842D01*
X2328Y1836D01*
X1300Y1288D02*
X1293Y1294D01*
X1281D01*
X1275Y1288D01*
Y1263D01*
X1281Y1257D01*
X1293D01*
X1300Y1263D01*
X1337Y1294D02*
X1312D01*
Y1275D01*
X1324Y1282D01*
X1330D01*
X1337Y1275D01*
Y1263D01*
X1330Y1257D01*
X1318D01*
X1312Y1263D01*
X1349Y1288D02*
X1355Y1294D01*
X1367D01*
X1374Y1288D01*
Y1263D01*
X1367Y1257D01*
X1355D01*
X1349Y1263D01*
Y1288D01*
X1305Y1831D02*
X1299Y1824D01*
Y1812D01*
X1305Y1806D01*
X1330D01*
X1336Y1812D01*
Y1824D01*
X1330Y1831D01*
X1336Y1861D02*
X1299D01*
X1318Y1843D01*
Y1868D01*
X1330Y1880D02*
X1336Y1886D01*
Y1898D01*
X1330Y1905D01*
X1305D01*
X1299Y1898D01*
Y1886D01*
X1305Y1880D01*
X1311D01*
X1318Y1886D01*
Y1905D01*
X1473Y1156D02*
X1467Y1149D01*
Y1137D01*
X1473Y1131D01*
X1498D01*
X1504Y1137D01*
Y1149D01*
X1498Y1156D01*
X1504Y1186D02*
X1467D01*
X1486Y1168D01*
Y1193D01*
X1473Y1205D02*
X1467Y1211D01*
Y1223D01*
X1473Y1230D01*
X1479D01*
X1486Y1223D01*
X1492Y1230D01*
X1498D01*
X1504Y1223D01*
Y1211D01*
X1498Y1205D01*
X1492D01*
X1486Y1211D01*
X1479Y1205D01*
X1473D01*
X1486Y1211D02*
Y1223D01*
X1112Y1861D02*
X1106Y1867D01*
X1094D01*
X1087Y1861D01*
Y1836D01*
X1094Y1830D01*
X1106D01*
X1112Y1836D01*
X1143Y1830D02*
Y1867D01*
X1124Y1848D01*
X1149D01*
X1161Y1867D02*
X1186D01*
Y1861D01*
X1161Y1836D01*
Y1830D01*
X1227Y1792D02*
X1221Y1785D01*
Y1773D01*
X1227Y1767D01*
X1252D01*
X1258Y1773D01*
Y1785D01*
X1252Y1792D01*
X1258Y1822D02*
X1221D01*
X1239Y1804D01*
Y1829D01*
X1221Y1866D02*
X1227Y1853D01*
X1239Y1841D01*
X1252D01*
X1258Y1847D01*
Y1859D01*
X1252Y1866D01*
X1245D01*
X1239Y1859D01*
Y1841D01*
X1043Y1530D02*
X1036Y1537D01*
X1024D01*
X1018Y1530D01*
Y1506D01*
X1024Y1500D01*
X1036D01*
X1043Y1506D01*
X1073Y1500D02*
Y1537D01*
X1055Y1518D01*
X1080D01*
X1117Y1537D02*
X1092D01*
Y1518D01*
X1104Y1524D01*
X1110D01*
X1117Y1518D01*
Y1506D01*
X1110Y1500D01*
X1098D01*
X1092Y1506D01*
X1267Y1607D02*
X1260Y1613D01*
X1248D01*
X1242Y1607D01*
Y1582D01*
X1248Y1576D01*
X1260D01*
X1267Y1582D01*
X1297Y1576D02*
Y1613D01*
X1279Y1594D01*
X1304D01*
X1334Y1576D02*
Y1613D01*
X1316Y1594D01*
X1341D01*
X2822Y1891D02*
X2815Y1897D01*
X2803D01*
X2797Y1891D01*
Y1866D01*
X2803Y1860D01*
X2815D01*
X2822Y1866D01*
X2852Y1860D02*
Y1897D01*
X2834Y1878D01*
X2859D01*
X2871Y1891D02*
X2877Y1897D01*
X2889D01*
X2896Y1891D01*
Y1885D01*
X2889Y1878D01*
X2883D01*
X2889D01*
X2896Y1872D01*
Y1866D01*
X2889Y1860D01*
X2877D01*
X2871Y1866D01*
X744Y1718D02*
X737Y1724D01*
X725D01*
X719Y1718D01*
Y1693D01*
X725Y1687D01*
X737D01*
X744Y1693D01*
X774Y1687D02*
Y1724D01*
X756Y1705D01*
X781D01*
X818Y1687D02*
X793D01*
X818Y1712D01*
Y1718D01*
X811Y1724D01*
X799D01*
X793Y1718D01*
X1021Y1580D02*
X1014Y1586D01*
X1002D01*
X996Y1580D01*
Y1555D01*
X1002Y1549D01*
X1014D01*
X1021Y1555D01*
X1051Y1549D02*
Y1586D01*
X1033Y1567D01*
X1058D01*
X1070Y1549D02*
X1082D01*
X1076D01*
Y1586D01*
X1070Y1580D01*
X904Y1851D02*
X897Y1857D01*
X885D01*
X879Y1851D01*
Y1826D01*
X885Y1820D01*
X897D01*
X904Y1826D01*
X934Y1820D02*
Y1857D01*
X916Y1838D01*
X941D01*
X953Y1851D02*
X959Y1857D01*
X971D01*
X978Y1851D01*
Y1826D01*
X971Y1820D01*
X959D01*
X953Y1826D01*
Y1851D01*
X747Y1836D02*
X740Y1842D01*
X728D01*
X722Y1836D01*
Y1811D01*
X728Y1805D01*
X740D01*
X747Y1811D01*
X759Y1836D02*
X765Y1842D01*
X777D01*
X784Y1836D01*
Y1830D01*
X777Y1823D01*
X771D01*
X777D01*
X784Y1817D01*
Y1811D01*
X777Y1805D01*
X765D01*
X759Y1811D01*
X796D02*
X802Y1805D01*
X814D01*
X821Y1811D01*
Y1836D01*
X814Y1842D01*
X802D01*
X796Y1836D01*
Y1830D01*
X802Y1823D01*
X821D01*
X2087Y281D02*
X2081Y287D01*
X2069D01*
X2063Y281D01*
Y256D01*
X2069Y250D01*
X2081D01*
X2087Y256D01*
X2100Y281D02*
X2106Y287D01*
X2118D01*
X2124Y281D01*
Y275D01*
X2118Y268D01*
X2112D01*
X2118D01*
X2124Y262D01*
Y256D01*
X2118Y250D01*
X2106D01*
X2100Y256D01*
X2137Y281D02*
X2143Y287D01*
X2155D01*
X2161Y281D01*
Y275D01*
X2155Y268D01*
X2161Y262D01*
Y256D01*
X2155Y250D01*
X2143D01*
X2137Y256D01*
Y262D01*
X2143Y268D01*
X2137Y275D01*
Y281D01*
X2143Y268D02*
X2155D01*
X933Y958D02*
X926Y964D01*
X914D01*
X908Y958D01*
Y933D01*
X914Y927D01*
X926D01*
X933Y933D01*
X945Y958D02*
X951Y964D01*
X963D01*
X970Y958D01*
Y952D01*
X963Y945D01*
X957D01*
X963D01*
X970Y939D01*
Y933D01*
X963Y927D01*
X951D01*
X945Y933D01*
X982Y964D02*
X1007D01*
Y958D01*
X982Y933D01*
Y927D01*
X933Y1024D02*
X926Y1030D01*
X914D01*
X908Y1024D01*
Y999D01*
X914Y993D01*
X926D01*
X933Y999D01*
X945Y1024D02*
X951Y1030D01*
X963D01*
X970Y1024D01*
Y1018D01*
X963Y1011D01*
X957D01*
X963D01*
X970Y1005D01*
Y999D01*
X963Y993D01*
X951D01*
X945Y999D01*
X1007Y1030D02*
X994Y1024D01*
X982Y1011D01*
Y999D01*
X988Y993D01*
X1000D01*
X1007Y999D01*
Y1005D01*
X1000Y1011D01*
X982D01*
X933Y1090D02*
X926Y1096D01*
X914D01*
X908Y1090D01*
Y1065D01*
X914Y1059D01*
X926D01*
X933Y1065D01*
X945Y1090D02*
X951Y1096D01*
X963D01*
X970Y1090D01*
Y1084D01*
X963Y1077D01*
X957D01*
X963D01*
X970Y1071D01*
Y1065D01*
X963Y1059D01*
X951D01*
X945Y1065D01*
X1007Y1096D02*
X982D01*
Y1077D01*
X994Y1084D01*
X1000D01*
X1007Y1077D01*
Y1065D01*
X1000Y1059D01*
X988D01*
X982Y1065D01*
X1067Y970D02*
X1061Y976D01*
X1049D01*
X1043Y970D01*
Y945D01*
X1049Y939D01*
X1061D01*
X1067Y945D01*
X1080Y970D02*
X1086Y976D01*
X1098D01*
X1104Y970D01*
Y964D01*
X1098Y957D01*
X1092D01*
X1098D01*
X1104Y951D01*
Y945D01*
X1098Y939D01*
X1086D01*
X1080Y945D01*
X1135Y939D02*
Y976D01*
X1117Y957D01*
X1141D01*
X933Y892D02*
X926Y898D01*
X914D01*
X908Y892D01*
Y867D01*
X914Y861D01*
X926D01*
X933Y867D01*
X945Y892D02*
X951Y898D01*
X963D01*
X970Y892D01*
Y886D01*
X963Y879D01*
X957D01*
X963D01*
X970Y873D01*
Y867D01*
X963Y861D01*
X951D01*
X945Y867D01*
X982Y892D02*
X988Y898D01*
X1000D01*
X1007Y892D01*
Y886D01*
X1000Y879D01*
X994D01*
X1000D01*
X1007Y873D01*
Y867D01*
X1000Y861D01*
X988D01*
X982Y867D01*
X1653Y468D02*
X1647Y462D01*
Y450D01*
X1653Y443D01*
X1678D01*
X1684Y450D01*
Y462D01*
X1678Y468D01*
X1653Y480D02*
X1647Y487D01*
Y499D01*
X1653Y505D01*
X1659D01*
X1666Y499D01*
Y493D01*
Y499D01*
X1672Y505D01*
X1678D01*
X1684Y499D01*
Y487D01*
X1678Y480D01*
X1684Y542D02*
Y517D01*
X1659Y542D01*
X1653D01*
X1647Y536D01*
Y524D01*
X1653Y517D01*
X1250Y974D02*
X1243Y980D01*
X1231D01*
X1225Y974D01*
Y949D01*
X1231Y943D01*
X1243D01*
X1250Y949D01*
X1262Y974D02*
X1268Y980D01*
X1280D01*
X1287Y974D01*
Y968D01*
X1280Y961D01*
X1274D01*
X1280D01*
X1287Y955D01*
Y949D01*
X1280Y943D01*
X1268D01*
X1262Y949D01*
X1299Y943D02*
X1311D01*
X1305D01*
Y980D01*
X1299Y974D01*
X1842Y881D02*
X1835Y887D01*
X1823D01*
X1817Y881D01*
Y856D01*
X1823Y850D01*
X1835D01*
X1842Y856D01*
X1854Y881D02*
X1860Y887D01*
X1872D01*
X1879Y881D01*
Y875D01*
X1872Y868D01*
X1866D01*
X1872D01*
X1879Y862D01*
Y856D01*
X1872Y850D01*
X1860D01*
X1854Y856D01*
X1891Y881D02*
X1897Y887D01*
X1909D01*
X1916Y881D01*
Y856D01*
X1909Y850D01*
X1897D01*
X1891Y856D01*
Y881D01*
X2086Y421D02*
X2080Y427D01*
X2068D01*
X2062Y421D01*
Y396D01*
X2068Y390D01*
X2080D01*
X2086Y396D01*
X2123Y390D02*
X2099D01*
X2123Y415D01*
Y421D01*
X2117Y427D01*
X2105D01*
X2099Y421D01*
X2136Y396D02*
X2142Y390D01*
X2154D01*
X2160Y396D01*
Y421D01*
X2154Y427D01*
X2142D01*
X2136Y421D01*
Y415D01*
X2142Y408D01*
X2160D01*
X1195Y1154D02*
X1189Y1160D01*
X1176D01*
X1170Y1154D01*
Y1129D01*
X1176Y1123D01*
X1189D01*
X1195Y1129D01*
X1232Y1123D02*
X1207D01*
X1232Y1148D01*
Y1154D01*
X1226Y1160D01*
X1213D01*
X1207Y1154D01*
X1244D02*
X1250Y1160D01*
X1263D01*
X1269Y1154D01*
Y1148D01*
X1263Y1141D01*
X1269Y1135D01*
Y1129D01*
X1263Y1123D01*
X1250D01*
X1244Y1129D01*
Y1135D01*
X1250Y1141D01*
X1244Y1148D01*
Y1154D01*
X1250Y1141D02*
X1263D01*
X2078Y618D02*
X2071Y624D01*
X2059D01*
X2053Y618D01*
Y593D01*
X2059Y587D01*
X2071D01*
X2078Y593D01*
X2115Y587D02*
X2090D01*
X2115Y612D01*
Y618D01*
X2108Y624D01*
X2096D01*
X2090Y618D01*
X2127Y624D02*
X2152D01*
Y618D01*
X2127Y593D01*
Y587D01*
X1704Y497D02*
X1698Y490D01*
Y478D01*
X1704Y472D01*
X1729D01*
X1735Y478D01*
Y490D01*
X1729Y497D01*
X1735Y534D02*
Y509D01*
X1710Y534D01*
X1704D01*
X1698Y527D01*
Y515D01*
X1704Y509D01*
X1698Y571D02*
X1704Y558D01*
X1717Y546D01*
X1729D01*
X1735Y552D01*
Y564D01*
X1729Y571D01*
X1723D01*
X1717Y564D01*
Y546D01*
X1716Y882D02*
X1709Y888D01*
X1697D01*
X1691Y882D01*
Y857D01*
X1697Y851D01*
X1709D01*
X1716Y857D01*
X1753Y851D02*
X1728D01*
X1753Y876D01*
Y882D01*
X1746Y888D01*
X1734D01*
X1728Y882D01*
X1790Y888D02*
X1765D01*
Y869D01*
X1777Y876D01*
X1783D01*
X1790Y869D01*
Y857D01*
X1783Y851D01*
X1771D01*
X1765Y857D01*
X1788Y826D02*
X1781Y832D01*
X1769D01*
X1763Y826D01*
Y801D01*
X1769Y795D01*
X1781D01*
X1788Y801D01*
X1825Y795D02*
X1800D01*
X1825Y820D01*
Y826D01*
X1818Y832D01*
X1806D01*
X1800Y826D01*
X1855Y795D02*
Y832D01*
X1837Y813D01*
X1862D01*
X2044Y748D02*
X2037Y754D01*
X2025D01*
X2019Y748D01*
Y723D01*
X2025Y717D01*
X2037D01*
X2044Y723D01*
X2081Y717D02*
X2056D01*
X2081Y742D01*
Y748D01*
X2074Y754D01*
X2062D01*
X2056Y748D01*
X2093D02*
X2099Y754D01*
X2111D01*
X2118Y748D01*
Y742D01*
X2111Y735D01*
X2105D01*
X2111D01*
X2118Y729D01*
Y723D01*
X2111Y717D01*
X2099D01*
X2093Y723D01*
X1993Y1765D02*
X1986Y1771D01*
X1974D01*
X1968Y1765D01*
Y1740D01*
X1974Y1734D01*
X1986D01*
X1993Y1740D01*
X2030Y1734D02*
X2005D01*
X2030Y1759D01*
Y1765D01*
X2023Y1771D01*
X2011D01*
X2005Y1765D01*
X2067Y1734D02*
X2042D01*
X2067Y1759D01*
Y1765D01*
X2060Y1771D01*
X2048D01*
X2042Y1765D01*
X1930Y1428D02*
X1923Y1434D01*
X1911D01*
X1905Y1428D01*
Y1403D01*
X1911Y1397D01*
X1923D01*
X1930Y1403D01*
X1967Y1397D02*
X1942D01*
X1967Y1422D01*
Y1428D01*
X1960Y1434D01*
X1948D01*
X1942Y1428D01*
X1979Y1397D02*
X1991D01*
X1985D01*
Y1434D01*
X1979Y1428D01*
X1858Y1264D02*
X1852Y1270D01*
X1839D01*
X1833Y1264D01*
Y1239D01*
X1839Y1233D01*
X1852D01*
X1858Y1239D01*
X1895Y1233D02*
X1870D01*
X1895Y1258D01*
Y1264D01*
X1889Y1270D01*
X1876D01*
X1870Y1264D01*
X1907D02*
X1913Y1270D01*
X1926D01*
X1932Y1264D01*
Y1239D01*
X1926Y1233D01*
X1913D01*
X1907Y1239D01*
Y1264D01*
X1998Y1145D02*
X1991Y1151D01*
X1979D01*
X1973Y1145D01*
Y1120D01*
X1979Y1114D01*
X1991D01*
X1998Y1120D01*
X2010Y1114D02*
X2022D01*
X2016D01*
Y1151D01*
X2010Y1145D01*
X2041Y1120D02*
X2047Y1114D01*
X2059D01*
X2065Y1120D01*
Y1145D01*
X2059Y1151D01*
X2047D01*
X2041Y1145D01*
Y1139D01*
X2047Y1132D01*
X2065D01*
X1785Y1325D02*
X1779Y1331D01*
X1767D01*
X1761Y1325D01*
Y1300D01*
X1767Y1294D01*
X1779D01*
X1785Y1300D01*
X1798Y1294D02*
X1810D01*
X1804D01*
Y1331D01*
X1798Y1325D01*
X1828D02*
X1835Y1331D01*
X1847D01*
X1853Y1325D01*
Y1319D01*
X1847Y1312D01*
X1853Y1306D01*
Y1300D01*
X1847Y1294D01*
X1835D01*
X1828Y1300D01*
Y1306D01*
X1835Y1312D01*
X1828Y1319D01*
Y1325D01*
X1835Y1312D02*
X1847D01*
X2047Y1085D02*
X2041Y1091D01*
X2029D01*
X2023Y1085D01*
Y1060D01*
X2029Y1054D01*
X2041D01*
X2047Y1060D01*
X2060Y1054D02*
X2072D01*
X2066D01*
Y1091D01*
X2060Y1085D01*
X2091Y1091D02*
X2115D01*
Y1085D01*
X2091Y1060D01*
Y1054D01*
X1936Y883D02*
X1930Y876D01*
Y864D01*
X1936Y858D01*
X1961D01*
X1967Y864D01*
Y876D01*
X1961Y883D01*
X1967Y895D02*
Y907D01*
Y901D01*
X1930D01*
X1936Y895D01*
X1930Y950D02*
X1936Y938D01*
X1949Y926D01*
X1961D01*
X1967Y932D01*
Y944D01*
X1961Y950D01*
X1955D01*
X1949Y944D01*
Y926D01*
X2193Y1541D02*
X2186Y1547D01*
X2174D01*
X2168Y1541D01*
Y1516D01*
X2174Y1510D01*
X2186D01*
X2193Y1516D01*
X2205Y1510D02*
X2217D01*
X2211D01*
Y1547D01*
X2205Y1541D01*
X2260Y1547D02*
X2236D01*
Y1528D01*
X2248Y1535D01*
X2254D01*
X2260Y1528D01*
Y1516D01*
X2254Y1510D01*
X2242D01*
X2236Y1516D01*
X2083Y1478D02*
X2077Y1484D01*
X2065D01*
X2058Y1478D01*
Y1453D01*
X2065Y1447D01*
X2077D01*
X2083Y1453D01*
X2095Y1447D02*
X2108D01*
X2102D01*
Y1484D01*
X2095Y1478D01*
X2145Y1447D02*
Y1484D01*
X2126Y1465D01*
X2151D01*
X2096Y862D02*
X2089Y868D01*
X2077D01*
X2071Y862D01*
Y837D01*
X2077Y831D01*
X2089D01*
X2096Y837D01*
X2108Y831D02*
X2120D01*
X2114D01*
Y868D01*
X2108Y862D01*
X2139D02*
X2145Y868D01*
X2157D01*
X2163Y862D01*
Y856D01*
X2157Y849D01*
X2151D01*
X2157D01*
X2163Y843D01*
Y837D01*
X2157Y831D01*
X2145D01*
X2139Y837D01*
X2513Y1510D02*
X2506Y1516D01*
X2494D01*
X2488Y1510D01*
Y1485D01*
X2494Y1479D01*
X2506D01*
X2513Y1485D01*
X2525Y1479D02*
X2537D01*
X2531D01*
Y1516D01*
X2525Y1510D01*
X2580Y1479D02*
X2556D01*
X2580Y1504D01*
Y1510D01*
X2574Y1516D01*
X2562D01*
X2556Y1510D01*
X2521Y1565D02*
X2514Y1572D01*
X2502D01*
X2496Y1565D01*
Y1541D01*
X2502Y1535D01*
X2514D01*
X2521Y1541D01*
X2533Y1535D02*
X2545D01*
X2539D01*
Y1572D01*
X2533Y1565D01*
X2564Y1535D02*
X2576D01*
X2570D01*
Y1572D01*
X2564Y1565D01*
X2369Y860D02*
X2362Y866D01*
X2350D01*
X2344Y860D01*
Y835D01*
X2350Y829D01*
X2362D01*
X2369Y835D01*
X2381Y829D02*
X2393D01*
X2387D01*
Y866D01*
X2381Y860D01*
X2412D02*
X2418Y866D01*
X2430D01*
X2436Y860D01*
Y835D01*
X2430Y829D01*
X2418D01*
X2412Y835D01*
Y860D01*
X2590Y1270D02*
X2583Y1276D01*
X2571D01*
X2565Y1270D01*
Y1245D01*
X2571Y1239D01*
X2583D01*
X2590Y1245D01*
X2602D02*
X2608Y1239D01*
X2620D01*
X2627Y1245D01*
Y1270D01*
X2620Y1276D01*
X2608D01*
X2602Y1270D01*
Y1264D01*
X2608Y1257D01*
X2627D01*
X2591Y1321D02*
X2584Y1327D01*
X2572D01*
X2566Y1321D01*
Y1296D01*
X2572Y1290D01*
X2584D01*
X2591Y1296D01*
X2603Y1321D02*
X2609Y1327D01*
X2621D01*
X2628Y1321D01*
Y1315D01*
X2621Y1309D01*
X2628Y1302D01*
Y1296D01*
X2621Y1290D01*
X2609D01*
X2603Y1296D01*
Y1302D01*
X2609Y1309D01*
X2603Y1315D01*
Y1321D01*
X2609Y1309D02*
X2621D01*
X2724Y1410D02*
X2717Y1416D01*
X2705D01*
X2699Y1410D01*
Y1385D01*
X2705Y1379D01*
X2717D01*
X2724Y1385D01*
X2736Y1416D02*
X2761D01*
Y1410D01*
X2736Y1385D01*
Y1379D01*
X2498Y1419D02*
X2492Y1413D01*
Y1401D01*
X2498Y1394D01*
X2523D01*
X2529Y1401D01*
Y1413D01*
X2523Y1419D01*
X2492Y1456D02*
X2498Y1444D01*
X2510Y1431D01*
X2523D01*
X2529Y1438D01*
Y1450D01*
X2523Y1456D01*
X2517D01*
X2510Y1450D01*
Y1431D01*
X3212Y296D02*
X3219Y290D01*
X3231D01*
X3237Y296D01*
Y321D01*
X3231Y327D01*
X3219D01*
X3212Y321D01*
X3175Y290D02*
X3200D01*
Y309D01*
X3188Y302D01*
X3182D01*
X3175Y309D01*
Y321D01*
X3182Y327D01*
X3194D01*
X3200Y321D01*
X2685Y679D02*
X2678Y685D01*
X2666D01*
X2660Y679D01*
Y654D01*
X2666Y648D01*
X2678D01*
X2685Y654D01*
X2715Y648D02*
Y685D01*
X2697Y666D01*
X2722D01*
X3155Y850D02*
X3149Y856D01*
X3137D01*
X3131Y850D01*
Y825D01*
X3137Y819D01*
X3149D01*
X3155Y825D01*
X3168Y850D02*
X3174Y856D01*
X3186D01*
X3192Y850D01*
Y844D01*
X3186Y838D01*
X3180D01*
X3186D01*
X3192Y832D01*
Y825D01*
X3186Y819D01*
X3174D01*
X3168Y825D01*
X3330Y432D02*
X3323Y438D01*
X3311D01*
X3305Y432D01*
Y408D01*
X3311Y401D01*
X3323D01*
X3330Y408D01*
X3367Y401D02*
X3342D01*
X3367Y426D01*
Y432D01*
X3360Y438D01*
X3348D01*
X3342Y432D01*
X2933Y395D02*
X2926Y401D01*
X2914D01*
X2908Y395D01*
Y370D01*
X2914Y364D01*
X2926D01*
X2933Y370D01*
X2945Y364D02*
X2957D01*
X2951D01*
Y401D01*
X2945Y395D01*
X90Y473D02*
Y498D01*
X96D01*
X102Y491D01*
Y473D01*
Y491D01*
X108Y498D01*
X115Y491D01*
Y473D01*
X127Y498D02*
Y479D01*
X133Y473D01*
X152D01*
Y498D01*
X164D02*
Y473D01*
Y485D01*
X170Y491D01*
X176Y498D01*
X182D01*
X213Y461D02*
X219D01*
X226Y467D01*
Y498D01*
X207D01*
X201Y491D01*
Y479D01*
X207Y473D01*
X226D01*
X256D02*
X244D01*
X238Y479D01*
Y491D01*
X244Y498D01*
X256D01*
X263Y491D01*
Y485D01*
X238D01*
X275Y473D02*
Y498D01*
X293D01*
X300Y491D01*
Y473D01*
X330Y485D02*
Y491D01*
X324D01*
Y485D01*
X330D01*
X337Y491D01*
Y504D01*
X330Y510D01*
X318D01*
X312Y504D01*
Y479D01*
X318Y473D01*
X337D01*
X367D02*
X355D01*
X349Y479D01*
Y491D01*
X355Y498D01*
X367D01*
X374Y491D01*
Y485D01*
X349D01*
X411Y498D02*
X392D01*
X386Y491D01*
Y479D01*
X392Y473D01*
X411D01*
X423Y510D02*
Y473D01*
Y491D01*
X429Y498D01*
X441D01*
X448Y491D01*
Y473D01*
X466D02*
X478D01*
X485Y479D01*
Y491D01*
X478Y498D01*
X466D01*
X460Y491D01*
Y479D01*
X466Y473D01*
X497Y461D02*
Y498D01*
X515D01*
X522Y491D01*
Y479D01*
X515Y473D01*
X497D01*
X552D02*
X540D01*
X534Y479D01*
Y491D01*
X540Y498D01*
X552D01*
X559Y491D01*
Y485D01*
X534D01*
X571Y473D02*
Y498D01*
X589D01*
X596Y491D01*
Y473D01*
X608D02*
Y479D01*
X614D01*
Y473D01*
X608D01*
X645D02*
X657D01*
X663Y479D01*
Y491D01*
X657Y498D01*
X645D01*
X639Y491D01*
Y479D01*
X645Y473D01*
X676Y498D02*
Y473D01*
Y485D01*
X682Y491D01*
X688Y498D01*
X694D01*
X725Y461D02*
X731D01*
X737Y467D01*
Y498D01*
X719D01*
X713Y491D01*
Y479D01*
X719Y473D01*
X737D01*
D80*
X1018Y-682D02*
Y-679D01*
X1021Y-675D01*
X1023Y-672D01*
X1028Y-670D01*
X1037D01*
X1042Y-672D01*
X1045Y-675D01*
X1047Y-679D01*
Y-684D01*
X1045Y-689D01*
X1040Y-696D01*
X1016Y-720D01*
X1049D01*
X1065Y-670D02*
X1091D01*
X1077Y-689D01*
X1084D01*
X1089Y-691D01*
X1091Y-694D01*
X1094Y-701D01*
Y-706D01*
X1091Y-713D01*
X1087Y-717D01*
X1080Y-720D01*
X1072D01*
X1065Y-717D01*
X1063Y-715D01*
X1061Y-710D01*
X1132Y-685D02*
Y-682D01*
X1134Y-678D01*
X1136Y-675D01*
X1141Y-673D01*
X1151D01*
X1155Y-675D01*
X1158Y-678D01*
X1160Y-682D01*
Y-687D01*
X1158Y-692D01*
X1153Y-699D01*
X1129Y-723D01*
X1163D01*
X1176Y-685D02*
Y-682D01*
X1178Y-678D01*
X1181Y-675D01*
X1186Y-673D01*
X1195D01*
X1200Y-675D01*
X1202Y-678D01*
X1205Y-682D01*
Y-687D01*
X1202Y-692D01*
X1197Y-699D01*
X1174Y-723D01*
X1207D01*
X1626Y-681D02*
X1631Y-679D01*
X1638Y-672D01*
Y-722D01*
X1696Y-672D02*
X1672Y-722D01*
X1663Y-672D02*
X1696D01*
X2028Y-688D02*
X2033Y-686D01*
X2040Y-679D01*
Y-729D01*
X2069Y-679D02*
X2095D01*
X2081Y-698D01*
X2088D01*
X2093Y-700D01*
X2095Y-702D01*
X2098Y-710D01*
Y-714D01*
X2095Y-722D01*
X2091Y-726D01*
X2083Y-729D01*
X2076D01*
X2069Y-726D01*
X2067Y-724D01*
X2064Y-719D01*
X2025Y-244D02*
X2030Y-242D01*
X2037Y-235D01*
Y-285D01*
X2064Y-247D02*
Y-244D01*
X2066Y-240D01*
X2069Y-237D01*
X2073Y-235D01*
X2083D01*
X2088Y-237D01*
X2090Y-240D01*
X2092Y-244D01*
Y-249D01*
X2090Y-254D01*
X2085Y-261D01*
X2062Y-285D01*
X2095D01*
X1829Y-244D02*
X1834Y-242D01*
X1841Y-235D01*
Y-285D01*
X1880Y-235D02*
X1873Y-237D01*
X1868Y-244D01*
X1866Y-256D01*
Y-263D01*
X1868Y-275D01*
X1873Y-282D01*
X1880Y-285D01*
X1885D01*
X1892Y-282D01*
X1897Y-275D01*
X1899Y-263D01*
Y-256D01*
X1897Y-244D01*
X1892Y-237D01*
X1885Y-235D01*
X1880D01*
X1774Y-251D02*
X1772Y-259D01*
X1767Y-263D01*
X1760Y-266D01*
X1758D01*
X1750Y-263D01*
X1746Y-259D01*
X1743Y-251D01*
Y-249D01*
X1746Y-242D01*
X1750Y-237D01*
X1758Y-235D01*
X1760D01*
X1767Y-237D01*
X1772Y-242D01*
X1774Y-251D01*
Y-263D01*
X1772Y-275D01*
X1767Y-282D01*
X1760Y-285D01*
X1755D01*
X1748Y-282D01*
X1746Y-278D01*
X1654Y-238D02*
X1647Y-240D01*
X1644Y-245D01*
Y-250D01*
X1647Y-254D01*
X1651Y-257D01*
X1661Y-259D01*
X1668Y-262D01*
X1673Y-266D01*
X1675Y-271D01*
Y-278D01*
X1673Y-283D01*
X1671Y-285D01*
X1663Y-288D01*
X1654D01*
X1647Y-285D01*
X1644Y-283D01*
X1642Y-278D01*
Y-271D01*
X1644Y-266D01*
X1649Y-262D01*
X1656Y-259D01*
X1666Y-257D01*
X1671Y-254D01*
X1673Y-250D01*
Y-245D01*
X1671Y-240D01*
X1663Y-238D01*
X1654D01*
X1824Y-680D02*
X1829Y-678D01*
X1836Y-671D01*
Y-721D01*
X1889Y-671D02*
X1865D01*
X1863Y-692D01*
X1865Y-690D01*
X1873Y-687D01*
X1880D01*
X1887Y-690D01*
X1892Y-695D01*
X1894Y-702D01*
Y-706D01*
X1892Y-714D01*
X1887Y-718D01*
X1880Y-721D01*
X1873D01*
X1865Y-718D01*
X1863Y-716D01*
X1861Y-711D01*
X1729Y-679D02*
X1733Y-677D01*
X1740Y-670D01*
Y-720D01*
X1794Y-677D02*
X1791Y-672D01*
X1784Y-670D01*
X1780D01*
X1772Y-672D01*
X1768Y-679D01*
X1765Y-691D01*
Y-703D01*
X1768Y-713D01*
X1772Y-717D01*
X1780Y-720D01*
X1782D01*
X1789Y-717D01*
X1794Y-713D01*
X1796Y-706D01*
Y-703D01*
X1794Y-696D01*
X1789Y-691D01*
X1782Y-689D01*
X1780D01*
X1772Y-691D01*
X1768Y-696D01*
X1765Y-703D01*
X1046Y-243D02*
Y-240D01*
X1049Y-235D01*
X1051Y-233D01*
X1056Y-231D01*
X1065D01*
X1070Y-233D01*
X1073Y-235D01*
X1075Y-240D01*
Y-245D01*
X1073Y-250D01*
X1068Y-257D01*
X1044Y-281D01*
X1077D01*
X1147Y-230D02*
X1173D01*
X1159Y-249D01*
X1166D01*
X1171Y-251D01*
X1173Y-253D01*
X1176Y-261D01*
Y-265D01*
X1173Y-272D01*
X1169Y-277D01*
X1161Y-280D01*
X1154D01*
X1147Y-277D01*
X1145Y-275D01*
X1142Y-270D01*
D81*
X3281Y432D02*
X3273D01*
X3269Y436D01*
X3273Y439D01*
X3281D01*
X3275D01*
Y432D01*
X3235Y398D02*
Y402D01*
Y400D01*
X3223D01*
X3225Y398D01*
X3235Y725D02*
Y729D01*
Y727D01*
X3223D01*
X3225Y725D01*
X3281Y688D02*
X3269D01*
Y694D01*
X3271Y696D01*
X3275D01*
X3277Y694D01*
Y688D01*
D82*
X3365Y-190D02*
X3367Y-194D01*
X3372Y-200D01*
X3333D01*
X3363Y-342D02*
X3365D01*
X3369Y-344D01*
X3371Y-346D01*
X3372Y-350D01*
Y-357D01*
X3371Y-361D01*
X3369Y-363D01*
X3365Y-365D01*
X3361D01*
X3357Y-363D01*
X3352Y-359D01*
X3333Y-340D01*
Y-366D01*
X3372Y-494D02*
Y-515D01*
X3357Y-503D01*
Y-509D01*
X3356Y-513D01*
X3354Y-515D01*
X3348Y-516D01*
X3344D01*
X3339Y-515D01*
X3335Y-511D01*
X3333Y-505D01*
Y-500D01*
X3335Y-494D01*
X3337Y-492D01*
X3341Y-490D01*
D83*
X433Y1842D02*
D03*
Y1892D02*
D03*
Y1942D02*
D03*
Y1992D02*
D03*
M02*
