M48
;Layer_Color=9474304
;FILE_FORMAT=2:3
INCH,LZ
;TYPE=PLATED
T1F00S00C0.012
T2F00S00C0.020
T3F00S00C0.028
T4F00S00C0.039
T5F00S00C0.047
%
T01
X00063Y-00687
X00313
X00563
X00738Y-00522
X00737Y-00408
X00563Y-00187
X00313
X00063
X00188Y00063
X00438
X00688
X00563Y00313
X00313
X00063
X00188Y00563
X00438
X00688
X00188Y-00437
X00779Y-0043
X00775Y-00543
X00813Y-00687
X01063
X01313
X01563
X01438Y-00437
X01188
X00938
X01313Y-00187
X01563
X01557Y00257
X01587Y00251
X01618
X01649Y00252
X0168Y00251
X01711
X01741Y00259
X01756Y00314
X01778Y00292
X01807Y0028
X01838Y00277
X01869Y00277
X019Y00279
X01931
X01962Y00276
X01993Y00276
X02024
X02055Y00275
X02082Y00291
X02109Y00276
X0214Y00275
X02171Y00281
X0219Y00305
X02192Y00336
X0219Y00367
X0218Y00396
X02187Y00426
X02218Y0043
X02242Y00448
X02264Y0047
X02286Y00492
X02085Y00412
X02082Y00381
X01998Y00442
X01951Y00463
X01913Y00497
X01954Y0058
X01979Y00562
X01966Y00615
X01964Y00666
X01949Y0072
X01919Y00713
X02001Y00726
X02038Y00725
X02075
X02066Y0063
X02087Y00608
X02025Y00539
X01798Y00542
X01767Y0054
X01737Y00549
X01707Y00554
X01676Y00549
X01661Y00504
X01684Y00461
X01713Y00451
X01742Y00464
X01796Y00469
X01821Y0045
X01853Y00326
X01952
X01538Y00314
X01539Y00283
X015Y00338
X01469Y00333
X01438
X01407
X01376Y00333
X01349Y00348
X0134Y00378
Y00409
X0134Y0044
X01353Y00468
X01355Y00534
X01342Y00561
X0134Y00592
Y00623
X01343Y00654
X01365Y00676
X01396Y00679
X01427
X01458
X01491Y00678
X01527Y0063
X01549Y00608
X01738Y00642
X01979Y00748
X01316Y00747
X01316Y00716
X01315Y00685
X01302Y00657
X01273Y00647
X01242
X01211Y00647
X0118Y00647
X01149
X01118Y00651
X01096Y00629
X01074Y00607
X01053Y00585
X01042Y00556
X01031Y00697
X01005Y00679
X00974
X00943Y00677
X00912Y00677
X00882Y00671
X00866Y00645
X00865Y00614
Y00583
X0087Y00553
X00813Y00313
X01063
X01313
X01519Y00362
X01535Y00388
X01188Y00563
X01053Y00719
X01074Y0074
X0206Y-00258
Y-00317
Y-00383
X0206Y-0046
X0206Y-00548
X02169Y-00485
X02248
X02309Y-00344
X01938Y-00437
X02399Y-00384
X02559Y-00351
X02563Y-00187
X02703Y-00227
X02764Y-00273
X02813Y-00187
X02948Y-00108
X03001Y-00139
X03002Y-00215
X02961Y-00258
X03063Y-00187
X03309Y-00252
X03188Y-00437
X02938
X02688
X02555Y-006
X02563Y-00687
X0247Y-00586
X02813Y-00687
X03063
X03188Y00063
X03158Y00311
X03Y00393
X02813Y00313
X02563
X02688Y00563
X02513Y00731
X02484Y00718
X02453Y00718
X02422Y00718
X02391Y00718
X02361Y00715
X02355Y00685
X02346Y00655
X02354Y00611
X02341Y00583
X02342Y00552
X02338Y00521
X02316Y00499
X02313Y-00187
X03056Y00736
X03087Y00735
X03333Y006
X03103Y00851
X03008Y00908
X0278Y00886
X02784Y01141
X02791Y01198
X02754Y01179
X02719Y01181
X02662Y01164
X02663Y01122
X02616Y01149
X02603Y01086
X02506Y01141
X02475Y01142
X02446Y01153
X02415Y01154
X02385Y01161
X02357Y01174
X02333Y01193
X02313Y01218
X02415Y0125
X02446Y01248
X02442Y01296
X02568Y0126
X02599Y01258
X02628Y0125
X02623Y01292
X02622Y01395
X02668
X02703Y01402
X02735Y0139
X02772Y01395
X02809Y01394
X02846Y01395
X02876Y01402
X02924Y014
X02954Y01397
X02985Y01399
X02977Y01266
X02946Y01271
X02934Y01243
X02924Y01213
X02841Y01217
X02834Y01247
X02775Y01266
X02734Y01269
X028Y01613
X02835Y01602
X0286Y01578
X02938Y01563
X02975Y01552
X03002Y01561
X03027Y01545
X03052Y01565
X03078Y01545
X03104Y01565
X03129Y01546
X03154Y01565
X03188Y01563
Y01063
X02426Y00966
X02424Y00935
X02423Y00897
X0241Y00851
X02448Y00859
X02479
X02509Y00849
X02523Y00822
X02524Y00791
Y0076
X02563Y00813
X02562Y01667
X02537Y01684
X02588Y01708
X02639Y01705
X02613Y01678
X02693Y01714
X02716Y01745
X02749Y0179
X02664Y01794
X02626Y0193
X02583Y01899
X02552Y01895
X02424Y01874
X02415Y01649
X02777Y01665
X02831Y01745
X02863Y01872
X02279Y01904
X02297Y0165
X02112Y01672
X02009Y01587
Y01551
X01918Y0164
X0177Y01628
X01753Y01653
X01749Y01602
X01769Y01573
X01746Y01551
X01769Y01523
X01746Y015
X01753Y01472
X01812Y01472
X01813Y01313
X01722Y0125
X01663Y01305
X01615Y01352
X01581Y01391
X01607Y01438
X01564Y01447
X01611Y01503
X01467Y01556
X01339Y0154
X01343Y01577
X01326Y01649
X01313Y01813
X01063
X01033Y01745
X01032Y01593
X00955Y01385
X01034Y01261
Y01234
X00958Y011
X00938Y01063
X01038Y01014
X01123Y00972
X01124Y00941
Y0091
Y00879
X01123Y00848
X01063Y00813
X01099Y0076
X01244Y00787
X01275
X01303Y00776
X01313Y00813
X01229Y00815
X01221Y00845
X01219Y00876
Y00907
Y00938
Y00969
X01234Y01166
X01365Y01152
X01438Y01063
X01688
X01834Y01059
X018Y01004
X01852Y00946
X01813Y00813
X0174Y00824
X01674Y00838
X01625Y00823
X01976Y0081
Y00779
X01982Y00841
X02006Y0086
X02037Y00862
X02081Y00869
X02078Y009
X01938Y01063
X01663Y0119
X01569Y01199
X01534Y01235
X01539Y01292
X0157Y01308
X01273Y01343
X00813Y01813
Y00813
X02233Y01178
X02271Y01178
X023Y01246
X0231Y01276
X00688Y01563
X00682Y01613
X00438Y01563
X00405Y01704
X00454Y01746
X00563Y01813
X00139Y01752
X00063Y01813
X00188Y01563
X00313Y00813
X00563
X00063
T02
X02855Y00477
X03031Y01708
X03081Y01706
X03129Y01704
X03167Y01733
X0317Y01782
X03189Y01945
X03136Y01941
X03092Y01909
T03
X01875Y01089
Y01139
Y01189
X01539Y01807
X01489
X01439
T04
X0106Y-00782
X0116
X0166
X0176
X0186
X0206
Y-00182
X0186
X0176
X0166
X01675Y00075
X01775
X01875
X01975
Y00175
X01875
X01775
X01675
X01575
X01575Y00075
X01475
X01375
X01275
X01175
Y00175
X01075
X00975
X00975Y00075
X01075
X00875
X00775
Y00175
X00875
X01275
X01375
X01475
X02075
Y00075
X02175
X02275
Y00175
X02175
X0116Y-00182
X0106
X02375Y00075
X02475
X02575
X02675
X02775
X02875
Y00175
X02775
X02675
X02575
X02475
X02375
X02975Y00176
Y00075
Y01975
X02875
X02775
X02675
X02575
Y02075
X02475
X02475Y01975
X02375
Y02075
X02675
X02775
X02875
X02975Y02076
X02275Y02075
Y01975
X02175
X02075
Y02075
X02175
X01975
X01875
X01875Y01975
X01975
X01775
X01675
Y02075
X01575
X01575Y01975
X01475
X01375
X01275
X01175
Y02075
X01075
X00975
X00975Y01975
X01075
X00875
X00775
Y02075
X00875
X01275
X01375
X01475
X01775
T05
X03152Y-00501
Y-00351
Y-00201
M30
