G04 Layer_Color=8388736*
%FSLAX23Y23*%
%MOIN*%
G70*
G01*
G75*
%ADD84R,0.067X0.067*%
%ADD85R,0.045X0.047*%
%ADD86R,0.053X0.065*%
%ADD87R,0.053X0.079*%
%ADD88R,0.047X0.045*%
%ADD89R,0.047X0.043*%
%ADD90R,0.065X0.053*%
%ADD91R,0.067X0.067*%
%ADD92R,0.043X0.047*%
%ADD93R,0.026X0.067*%
%ADD94R,0.026X0.043*%
%ADD95O,0.026X0.065*%
%ADD96R,0.031X0.032*%
%ADD97R,0.081X0.026*%
%ADD98R,0.097X0.079*%
%ADD99R,0.051X0.030*%
%ADD100R,0.069X0.030*%
%ADD101R,0.059X0.059*%
%ADD102R,0.071X0.043*%
%ADD103R,0.051X0.032*%
%ADD104R,0.201X0.071*%
%ADD105R,0.101X0.036*%
%ADD106R,0.075X0.114*%
%ADD107R,0.043X0.059*%
%ADD108R,0.043X0.083*%
%ADD109R,0.069X0.095*%
%ADD110R,0.067X0.221*%
%ADD111R,0.019X0.019*%
%ADD112R,0.032X0.069*%
%ADD113R,0.108X0.073*%
%ADD114R,0.077X0.077*%
%ADD115O,0.039X0.020*%
%ADD116O,0.020X0.039*%
%ADD117R,0.079X0.053*%
%ADD118R,0.039X0.039*%
%ADD119C,0.071*%
%ADD120C,0.075*%
%ADD121C,0.048*%
%ADD122C,0.083*%
%ADD123C,0.029*%
%ADD124C,0.043*%
D84*
X2320Y-633D02*
D03*
Y-711D02*
D03*
X1568Y692D02*
D03*
Y770D02*
D03*
X2832Y1073D02*
D03*
Y995D02*
D03*
D85*
X1141Y1581D02*
D03*
X1203D02*
D03*
X1419Y1272D02*
D03*
X1481D02*
D03*
X2070Y683D02*
D03*
X2132D02*
D03*
X2073Y540D02*
D03*
X2135D02*
D03*
X2073Y473D02*
D03*
X2135D02*
D03*
X2070Y336D02*
D03*
X2132D02*
D03*
X2440Y1820D02*
D03*
X2378D02*
D03*
X2881Y1817D02*
D03*
X2819D02*
D03*
X2321Y1410D02*
D03*
X2383D02*
D03*
X2321Y1474D02*
D03*
X2383D02*
D03*
X2686Y1332D02*
D03*
X2748D02*
D03*
X2186Y1412D02*
D03*
X2249D02*
D03*
X2186Y1475D02*
D03*
X2249D02*
D03*
X2093Y1410D02*
D03*
X2030D02*
D03*
X1898Y1314D02*
D03*
X1961D02*
D03*
X802Y1763D02*
D03*
X740D02*
D03*
X802Y1649D02*
D03*
X740D02*
D03*
X3146Y780D02*
D03*
X3209D02*
D03*
X3159Y361D02*
D03*
X3221D02*
D03*
X2999Y439D02*
D03*
X2937D02*
D03*
X1607Y546D02*
D03*
X1545D02*
D03*
X1607Y464D02*
D03*
X1545D02*
D03*
X994Y1343D02*
D03*
X932D02*
D03*
X994Y1278D02*
D03*
X932D02*
D03*
X994Y1213D02*
D03*
X932D02*
D03*
X994Y1148D02*
D03*
X932D02*
D03*
X2054Y1676D02*
D03*
X1991D02*
D03*
D86*
X1852Y1004D02*
D03*
X1923D02*
D03*
X1663Y1249D02*
D03*
X1593D02*
D03*
X2820Y1332D02*
D03*
X2890D02*
D03*
D87*
X2875Y548D02*
D03*
X2989D02*
D03*
D88*
X1311Y1327D02*
D03*
Y1389D02*
D03*
X2294Y762D02*
D03*
Y825D02*
D03*
X2209Y762D02*
D03*
Y825D02*
D03*
X1811Y689D02*
D03*
Y751D02*
D03*
X2074Y942D02*
D03*
Y1005D02*
D03*
X2010D02*
D03*
Y942D02*
D03*
X2445Y1474D02*
D03*
Y1411D02*
D03*
X2503Y1201D02*
D03*
Y1263D02*
D03*
X2566Y1200D02*
D03*
Y1138D02*
D03*
X2037Y1251D02*
D03*
Y1188D02*
D03*
X1975D02*
D03*
Y1251D02*
D03*
X1318Y1693D02*
D03*
Y1756D02*
D03*
X1239Y1648D02*
D03*
Y1711D02*
D03*
X1031Y1699D02*
D03*
Y1636D02*
D03*
X454Y1704D02*
D03*
Y1642D02*
D03*
X1172Y1081D02*
D03*
Y1019D02*
D03*
X1251Y1083D02*
D03*
Y1020D02*
D03*
X1089Y1083D02*
D03*
Y1020D02*
D03*
X3333Y552D02*
D03*
Y489D02*
D03*
X1874Y751D02*
D03*
Y689D02*
D03*
X1749Y751D02*
D03*
Y689D02*
D03*
X1266Y1456D02*
D03*
Y1518D02*
D03*
X2946Y-215D02*
D03*
Y-152D02*
D03*
D89*
X1190Y1455D02*
D03*
Y1393D02*
D03*
X2006Y685D02*
D03*
Y623D02*
D03*
X2005Y335D02*
D03*
Y397D02*
D03*
X2210Y634D02*
D03*
Y697D02*
D03*
X2294Y634D02*
D03*
Y697D02*
D03*
X2365Y964D02*
D03*
Y901D02*
D03*
X2138Y964D02*
D03*
Y901D02*
D03*
X2882Y1727D02*
D03*
Y1665D02*
D03*
D90*
X1418Y1201D02*
D03*
Y1131D02*
D03*
X2294Y897D02*
D03*
Y968D02*
D03*
X2210Y897D02*
D03*
Y968D02*
D03*
X2359Y1566D02*
D03*
Y1637D02*
D03*
X2320Y-485D02*
D03*
Y-415D02*
D03*
X1673Y759D02*
D03*
Y689D02*
D03*
D91*
X1609Y321D02*
D03*
X1687D02*
D03*
X2047Y791D02*
D03*
X2126D02*
D03*
X2375Y788D02*
D03*
X2453D02*
D03*
X2198Y1589D02*
D03*
X2276D02*
D03*
X1029Y1434D02*
D03*
X1107D02*
D03*
X1561Y1076D02*
D03*
X1639D02*
D03*
X1167Y717D02*
D03*
X1245D02*
D03*
D92*
X2221Y556D02*
D03*
X2283D02*
D03*
X2529Y1343D02*
D03*
X2466D02*
D03*
X1812Y1517D02*
D03*
X1875D02*
D03*
Y1578D02*
D03*
X1812D02*
D03*
X187Y1814D02*
D03*
X124D02*
D03*
X187Y1883D02*
D03*
X124D02*
D03*
X187Y1951D02*
D03*
X124D02*
D03*
X2961Y-750D02*
D03*
X2898D02*
D03*
X2540Y1033D02*
D03*
X2602D02*
D03*
X2540Y967D02*
D03*
X2602D02*
D03*
X1608Y610D02*
D03*
X1670D02*
D03*
X1608Y400D02*
D03*
X1670D02*
D03*
X1170Y801D02*
D03*
X1108D02*
D03*
X187Y2019D02*
D03*
X124D02*
D03*
D93*
X2511Y1844D02*
D03*
X2537D02*
D03*
X2562D02*
D03*
X2588D02*
D03*
X2613D02*
D03*
X2639D02*
D03*
X2665D02*
D03*
X2690D02*
D03*
X2716D02*
D03*
X2741D02*
D03*
Y1616D02*
D03*
X2716D02*
D03*
X2690D02*
D03*
X2665D02*
D03*
X2639D02*
D03*
X2613D02*
D03*
X2588D02*
D03*
X2562D02*
D03*
X2537D02*
D03*
X2511D02*
D03*
X2950Y1842D02*
D03*
X2975D02*
D03*
X3001D02*
D03*
X3027D02*
D03*
X3052D02*
D03*
X3078D02*
D03*
X3103D02*
D03*
X3129D02*
D03*
X3155D02*
D03*
X3180D02*
D03*
Y1614D02*
D03*
X3155D02*
D03*
X3129D02*
D03*
X3103D02*
D03*
X3078D02*
D03*
X3052D02*
D03*
X3027D02*
D03*
X3001D02*
D03*
X2975D02*
D03*
X2950D02*
D03*
D94*
X2884Y1256D02*
D03*
X2910Y1174D02*
D03*
X2858D02*
D03*
D95*
X2365Y1334D02*
D03*
X2340D02*
D03*
X2315D02*
D03*
X2290D02*
D03*
X2265D02*
D03*
X2239D02*
D03*
X2214D02*
D03*
X2189D02*
D03*
X2164D02*
D03*
X2139D02*
D03*
X2365Y1120D02*
D03*
X2340D02*
D03*
X2315D02*
D03*
X2290D02*
D03*
X2265D02*
D03*
X2239D02*
D03*
X2214D02*
D03*
X2189D02*
D03*
X2164D02*
D03*
X2139D02*
D03*
D96*
X1962Y1365D02*
D03*
X1925D02*
D03*
D97*
X1408Y1346D02*
D03*
Y1372D02*
D03*
Y1397D02*
D03*
Y1423D02*
D03*
Y1448D02*
D03*
Y1474D02*
D03*
Y1500D02*
D03*
Y1525D02*
D03*
Y1551D02*
D03*
Y1576D02*
D03*
Y1602D02*
D03*
Y1628D02*
D03*
Y1653D02*
D03*
Y1679D02*
D03*
X1684D02*
D03*
Y1653D02*
D03*
Y1628D02*
D03*
Y1602D02*
D03*
Y1576D02*
D03*
Y1551D02*
D03*
Y1525D02*
D03*
Y1500D02*
D03*
Y1474D02*
D03*
Y1448D02*
D03*
Y1423D02*
D03*
Y1397D02*
D03*
Y1372D02*
D03*
Y1346D02*
D03*
D98*
X1135Y1778D02*
D03*
Y1664D02*
D03*
X928Y1762D02*
D03*
Y1648D02*
D03*
X668Y-420D02*
D03*
Y-534D02*
D03*
D99*
X623Y1673D02*
D03*
Y1636D02*
D03*
Y1598D02*
D03*
X517D02*
D03*
Y1636D02*
D03*
Y1673D02*
D03*
X2064Y1541D02*
D03*
Y1578D02*
D03*
Y1616D02*
D03*
X1958D02*
D03*
Y1578D02*
D03*
Y1541D02*
D03*
D100*
X601Y1990D02*
D03*
Y1940D02*
D03*
Y1890D02*
D03*
Y1840D02*
D03*
X301D02*
D03*
Y1890D02*
D03*
Y1940D02*
D03*
Y1990D02*
D03*
D101*
X2460Y-475D02*
D03*
D102*
X2556Y-420D02*
D03*
Y-530D02*
D03*
D103*
X2764Y-152D02*
D03*
Y-189D02*
D03*
Y-227D02*
D03*
X2866D02*
D03*
Y-152D02*
D03*
D104*
X3280Y1159D02*
D03*
Y1493D02*
D03*
D105*
X3342Y1326D02*
D03*
D106*
X3043Y1230D02*
D03*
D107*
X2984Y1332D02*
D03*
X3102D02*
D03*
D108*
X3043Y1321D02*
D03*
D109*
X2944Y912D02*
D03*
Y1073D02*
D03*
X3104Y1073D02*
D03*
Y912D02*
D03*
D110*
X2787Y725D02*
D03*
X2991D02*
D03*
D111*
X3209Y455D02*
D03*
X3111Y436D02*
D03*
X3091D02*
D03*
X3130D02*
D03*
X3170D02*
D03*
X3189D02*
D03*
X3209D02*
D03*
X3229D02*
D03*
X3071D02*
D03*
X3091Y455D02*
D03*
X3170Y534D02*
D03*
X3111D02*
D03*
X3170Y554D02*
D03*
X3229Y691D02*
D03*
X3209D02*
D03*
X3189D02*
D03*
X3170D02*
D03*
X3150D02*
D03*
X3130D02*
D03*
X3111D02*
D03*
X3091D02*
D03*
X3071D02*
D03*
D112*
X1924Y611D02*
D03*
X1874D02*
D03*
X1824D02*
D03*
X1774D02*
D03*
X1924Y399D02*
D03*
X1874D02*
D03*
X1824D02*
D03*
X1774D02*
D03*
D113*
X1431Y406D02*
D03*
Y506D02*
D03*
Y606D02*
D03*
X956D02*
D03*
Y506D02*
D03*
Y406D02*
D03*
D114*
X1180Y1256D02*
D03*
D115*
X1121Y1226D02*
D03*
Y1246D02*
D03*
Y1266D02*
D03*
Y1285D02*
D03*
X1239D02*
D03*
Y1266D02*
D03*
Y1246D02*
D03*
Y1226D02*
D03*
D116*
X1150Y1315D02*
D03*
X1170D02*
D03*
X1190D02*
D03*
X1210D02*
D03*
Y1197D02*
D03*
X1190D02*
D03*
X1170D02*
D03*
X1150D02*
D03*
D117*
X832Y-536D02*
D03*
Y-418D02*
D03*
D118*
X3088Y-750D02*
D03*
X3025D02*
D03*
D119*
X2060Y-782D02*
D03*
Y-182D02*
D03*
X1860Y-782D02*
D03*
X1760D02*
D03*
X1660D02*
D03*
X1160D02*
D03*
X1060D02*
D03*
X1860Y-182D02*
D03*
X1760D02*
D03*
X1160D02*
D03*
X1060D02*
D03*
X1660D02*
D03*
D120*
X775Y1975D02*
D03*
X875D02*
D03*
X975D02*
D03*
X1075D02*
D03*
X1175D02*
D03*
X1275D02*
D03*
X1375D02*
D03*
X1475D02*
D03*
X1575D02*
D03*
X1675D02*
D03*
X1775D02*
D03*
X1875D02*
D03*
X1975D02*
D03*
X2075D02*
D03*
X2175D02*
D03*
X2275D02*
D03*
X2375D02*
D03*
X2475D02*
D03*
X2575D02*
D03*
X2675D02*
D03*
X2775D02*
D03*
X2875D02*
D03*
X2975D02*
D03*
X775Y2075D02*
D03*
X875D02*
D03*
X975D02*
D03*
X1075D02*
D03*
X1175D02*
D03*
X1275D02*
D03*
X1375D02*
D03*
X1475D02*
D03*
X1575D02*
D03*
X1675D02*
D03*
X1775D02*
D03*
X1875D02*
D03*
X1975D02*
D03*
X2075D02*
D03*
X2175D02*
D03*
X2275D02*
D03*
X2375D02*
D03*
X2475D02*
D03*
X2575D02*
D03*
X2675D02*
D03*
X2775D02*
D03*
X2875D02*
D03*
X2975Y2076D02*
D03*
X775Y75D02*
D03*
X875D02*
D03*
X975D02*
D03*
X1075D02*
D03*
X1175D02*
D03*
X1275D02*
D03*
X1375D02*
D03*
X1475D02*
D03*
X1575D02*
D03*
X1675D02*
D03*
X1775D02*
D03*
X1875D02*
D03*
X1975D02*
D03*
X2075D02*
D03*
X2175D02*
D03*
X2275D02*
D03*
X2375D02*
D03*
X2475D02*
D03*
X2575D02*
D03*
X2675D02*
D03*
X2775D02*
D03*
X2875D02*
D03*
X2975D02*
D03*
X775Y175D02*
D03*
X875D02*
D03*
X975D02*
D03*
X1075D02*
D03*
X1175D02*
D03*
X1275D02*
D03*
X1375D02*
D03*
X1475D02*
D03*
X1575D02*
D03*
X1675D02*
D03*
X1775D02*
D03*
X1875D02*
D03*
X1975D02*
D03*
X2075D02*
D03*
X2175D02*
D03*
X2275D02*
D03*
X2375D02*
D03*
X2475D02*
D03*
X2575D02*
D03*
X2675D02*
D03*
X2775D02*
D03*
X2875D02*
D03*
X2975Y176D02*
D03*
D121*
X1875Y1189D02*
D03*
Y1089D02*
D03*
Y1139D02*
D03*
X1439Y1807D02*
D03*
X1539D02*
D03*
X1489D02*
D03*
D122*
X3152Y-351D02*
D03*
Y-201D02*
D03*
Y-501D02*
D03*
D123*
X2470Y-586D02*
D03*
X3188Y1563D02*
D03*
Y1063D02*
D03*
Y63D02*
D03*
X3063Y-187D02*
D03*
X3188Y-437D02*
D03*
X3063Y-687D02*
D03*
X2938Y1563D02*
D03*
X2813Y313D02*
D03*
Y-187D02*
D03*
X2938Y-437D02*
D03*
X2813Y-687D02*
D03*
X2563Y813D02*
D03*
X2688Y563D02*
D03*
X2563Y313D02*
D03*
Y-187D02*
D03*
X2688Y-437D02*
D03*
X2563Y-687D02*
D03*
X2313Y-187D02*
D03*
X1813Y1313D02*
D03*
X1938Y1063D02*
D03*
X1813Y813D02*
D03*
X1938Y-437D02*
D03*
X1688Y1063D02*
D03*
X1563Y-187D02*
D03*
Y-687D02*
D03*
X1313Y1813D02*
D03*
X1438Y1063D02*
D03*
X1313Y813D02*
D03*
Y313D02*
D03*
Y-187D02*
D03*
X1438Y-437D02*
D03*
X1313Y-687D02*
D03*
X1063Y1813D02*
D03*
Y813D02*
D03*
X1188Y563D02*
D03*
X1063Y313D02*
D03*
X1188Y-437D02*
D03*
X1063Y-687D02*
D03*
X813Y1813D02*
D03*
X938Y1063D02*
D03*
X813Y813D02*
D03*
Y313D02*
D03*
X938Y-437D02*
D03*
X813Y-687D02*
D03*
X563Y1813D02*
D03*
X688Y1563D02*
D03*
X563Y813D02*
D03*
X688Y563D02*
D03*
X563Y313D02*
D03*
X688Y63D02*
D03*
X563Y-187D02*
D03*
Y-687D02*
D03*
X438Y1563D02*
D03*
X313Y813D02*
D03*
X438Y563D02*
D03*
X313Y313D02*
D03*
X438Y63D02*
D03*
X313Y-187D02*
D03*
Y-687D02*
D03*
X63Y1813D02*
D03*
X188Y1563D02*
D03*
X63Y813D02*
D03*
X188Y563D02*
D03*
X63Y313D02*
D03*
X188Y63D02*
D03*
X63Y-187D02*
D03*
X188Y-437D02*
D03*
X63Y-687D02*
D03*
X943Y677D02*
D03*
X912Y677D02*
D03*
X1123Y972D02*
D03*
X1124Y941D02*
D03*
Y910D02*
D03*
Y879D02*
D03*
X1123Y848D02*
D03*
X1099Y760D02*
D03*
X1074Y740D02*
D03*
X1053Y719D02*
D03*
X1031Y697D02*
D03*
X1005Y679D02*
D03*
X974D02*
D03*
X882Y671D02*
D03*
X866Y645D02*
D03*
X865Y614D02*
D03*
Y583D02*
D03*
X870Y553D02*
D03*
X1042Y556D02*
D03*
X1053Y585D02*
D03*
X1074Y607D02*
D03*
X1096Y629D02*
D03*
X1118Y651D02*
D03*
X1149Y647D02*
D03*
X1180D02*
D03*
X1211Y647D02*
D03*
X1242Y647D02*
D03*
X1273D02*
D03*
X1302Y657D02*
D03*
X1315Y685D02*
D03*
X1316Y716D02*
D03*
X1316Y747D02*
D03*
X1303Y776D02*
D03*
X1275Y787D02*
D03*
X1244D02*
D03*
X1229Y815D02*
D03*
X1221Y845D02*
D03*
X1219Y876D02*
D03*
Y907D02*
D03*
Y938D02*
D03*
Y969D02*
D03*
X1538Y314D02*
D03*
X1539Y283D02*
D03*
X1557Y257D02*
D03*
X1587Y251D02*
D03*
X1618D02*
D03*
X1649Y252D02*
D03*
X1680Y251D02*
D03*
X1711D02*
D03*
X1741Y259D02*
D03*
X1661Y504D02*
D03*
X1353Y468D02*
D03*
X1340Y440D02*
D03*
X1340Y409D02*
D03*
Y378D02*
D03*
X1349Y348D02*
D03*
X1376Y333D02*
D03*
X1407Y333D02*
D03*
X1438D02*
D03*
X1469D02*
D03*
X1500Y338D02*
D03*
X1519Y362D02*
D03*
X1535Y388D02*
D03*
X1458Y679D02*
D03*
X1427D02*
D03*
X1396D02*
D03*
X1365Y676D02*
D03*
X1343Y654D02*
D03*
X1340Y623D02*
D03*
Y592D02*
D03*
X1342Y561D02*
D03*
X1355Y534D02*
D03*
X1549Y608D02*
D03*
X1527Y630D02*
D03*
X1491Y678D02*
D03*
X1742Y464D02*
D03*
X1713Y451D02*
D03*
X1684Y461D02*
D03*
X1756Y314D02*
D03*
X1778Y292D02*
D03*
X1807Y280D02*
D03*
X1838Y277D02*
D03*
X1869Y277D02*
D03*
X1900Y279D02*
D03*
X1931D02*
D03*
X1962Y276D02*
D03*
X1993Y276D02*
D03*
X2024D02*
D03*
X2055Y275D02*
D03*
X1821Y450D02*
D03*
X1796Y469D02*
D03*
X1949Y720D02*
D03*
X1919Y713D02*
D03*
X1676Y549D02*
D03*
X1707Y554D02*
D03*
X1737Y549D02*
D03*
X1767Y540D02*
D03*
X1798Y542D02*
D03*
X1966Y615D02*
D03*
X1954Y580D02*
D03*
X1979Y562D02*
D03*
X1913Y497D02*
D03*
X1998Y442D02*
D03*
X2087Y608D02*
D03*
X2066Y630D02*
D03*
X2085Y412D02*
D03*
X2082Y381D02*
D03*
X2082Y291D02*
D03*
X2109Y276D02*
D03*
X2140Y275D02*
D03*
X2171Y281D02*
D03*
X2190Y305D02*
D03*
X2192Y336D02*
D03*
X2190Y367D02*
D03*
X2180Y396D02*
D03*
X2187Y426D02*
D03*
X2218Y430D02*
D03*
X2242Y448D02*
D03*
X2264Y470D02*
D03*
X2286Y492D02*
D03*
X2316Y499D02*
D03*
X2338Y521D02*
D03*
X2342Y552D02*
D03*
X2341Y583D02*
D03*
X2354Y611D02*
D03*
X2037Y862D02*
D03*
X2006Y860D02*
D03*
X1982Y841D02*
D03*
X1976Y810D02*
D03*
Y779D02*
D03*
X1979Y748D02*
D03*
X2001Y726D02*
D03*
X2038Y725D02*
D03*
X2075D02*
D03*
X2346Y655D02*
D03*
X2355Y685D02*
D03*
X2361Y715D02*
D03*
X2391Y718D02*
D03*
X2422Y718D02*
D03*
X2453Y718D02*
D03*
X2484Y718D02*
D03*
X2513Y731D02*
D03*
X2524Y760D02*
D03*
Y791D02*
D03*
X2523Y822D02*
D03*
X2509Y849D02*
D03*
X2479Y859D02*
D03*
X2448D02*
D03*
X2078Y900D02*
D03*
X2081Y869D02*
D03*
X2410Y851D02*
D03*
X2423Y897D02*
D03*
X2424Y935D02*
D03*
X2426Y966D02*
D03*
X2271Y1178D02*
D03*
X2233Y1178D02*
D03*
X2616Y1149D02*
D03*
X2662Y1164D02*
D03*
X2775Y1266D02*
D03*
X2734Y1269D02*
D03*
X2628Y1250D02*
D03*
X2623Y1292D02*
D03*
X2622Y1395D02*
D03*
X2668D02*
D03*
X2703Y1402D02*
D03*
X2735Y1390D02*
D03*
X2772Y1395D02*
D03*
X2809Y1394D02*
D03*
X2300Y1246D02*
D03*
X2313Y1218D02*
D03*
X2333Y1193D02*
D03*
X2357Y1174D02*
D03*
X2385Y1161D02*
D03*
X2415Y1154D02*
D03*
X2446Y1153D02*
D03*
X2475Y1142D02*
D03*
X2506Y1141D02*
D03*
X2599Y1258D02*
D03*
X2568Y1260D02*
D03*
X2446Y1248D02*
D03*
X2876Y1402D02*
D03*
X2846Y1395D02*
D03*
X2834Y1247D02*
D03*
X2841Y1217D02*
D03*
X2924Y1213D02*
D03*
X2934Y1243D02*
D03*
X2946Y1271D02*
D03*
X2977Y1266D02*
D03*
X2985Y1399D02*
D03*
X2954Y1397D02*
D03*
X2924Y1400D02*
D03*
X3333Y600D02*
D03*
X1467Y1556D02*
D03*
X3056Y736D02*
D03*
X3087Y735D02*
D03*
X3103Y851D02*
D03*
X2777Y1665D02*
D03*
X1564Y1447D02*
D03*
X1607Y1438D02*
D03*
X1611Y1503D02*
D03*
X3000Y393D02*
D03*
X2663Y1122D02*
D03*
X2784Y1141D02*
D03*
X2780Y886D02*
D03*
X2791Y1198D02*
D03*
X2719Y1181D02*
D03*
X2860Y1578D02*
D03*
X2835Y1602D02*
D03*
X2800Y1613D02*
D03*
X2754Y1179D02*
D03*
X2626Y1930D02*
D03*
X2279Y1904D02*
D03*
X2583Y1899D02*
D03*
X2552Y1895D02*
D03*
X2415Y1649D02*
D03*
X2297Y1650D02*
D03*
X2555Y-600D02*
D03*
X2693Y1714D02*
D03*
X2716Y1745D02*
D03*
X2749Y1790D02*
D03*
X2009Y1587D02*
D03*
X2664Y1794D02*
D03*
X2009Y1551D02*
D03*
X1625Y823D02*
D03*
X1740Y824D02*
D03*
X1674Y838D02*
D03*
X2639Y1705D02*
D03*
X2588Y1708D02*
D03*
X2613Y1678D02*
D03*
X2562Y1667D02*
D03*
X1581Y1391D02*
D03*
X2537Y1684D02*
D03*
X1753Y1472D02*
D03*
X1812Y1472D02*
D03*
X1769Y1523D02*
D03*
X3154Y1565D02*
D03*
X3129Y1546D02*
D03*
X3104Y1565D02*
D03*
X3078Y1545D02*
D03*
X3052Y1565D02*
D03*
X1746Y1500D02*
D03*
X1746Y1551D02*
D03*
X1749Y1602D02*
D03*
X1753Y1653D02*
D03*
X1770Y1628D02*
D03*
X1769Y1573D02*
D03*
X3027Y1545D02*
D03*
X3002Y1561D02*
D03*
X2975Y1552D02*
D03*
X1615Y1352D02*
D03*
X682Y1613D02*
D03*
X2424Y1874D02*
D03*
X1539Y1292D02*
D03*
X454Y1746D02*
D03*
X405Y1704D02*
D03*
X779Y-430D02*
D03*
X737Y-408D02*
D03*
X2961Y-258D02*
D03*
X3002Y-215D02*
D03*
X2703Y-227D02*
D03*
X2764Y-273D02*
D03*
X3309Y-252D02*
D03*
X2399Y-384D02*
D03*
X2309Y-344D02*
D03*
X2559Y-351D02*
D03*
X2169Y-485D02*
D03*
X2248D02*
D03*
X2060Y-460D02*
D03*
X2060Y-383D02*
D03*
Y-317D02*
D03*
Y-258D02*
D03*
Y-548D02*
D03*
X775Y-543D02*
D03*
X738Y-522D02*
D03*
X2948Y-108D02*
D03*
X3001Y-139D02*
D03*
X1234Y1166D02*
D03*
X1038Y1014D02*
D03*
X958Y1100D02*
D03*
X955Y1385D02*
D03*
X1034Y1261D02*
D03*
Y1234D02*
D03*
X1663Y1305D02*
D03*
X1663Y1190D02*
D03*
X1722Y1250D02*
D03*
X1834Y1059D02*
D03*
X1800Y1004D02*
D03*
X1852Y946D02*
D03*
X2603Y1086D02*
D03*
X3158Y311D02*
D03*
X2831Y1745D02*
D03*
X2863Y1872D02*
D03*
X139Y1752D02*
D03*
X1365Y1152D02*
D03*
X1273Y1343D02*
D03*
X1326Y1649D02*
D03*
X1569Y1199D02*
D03*
X1570Y1308D02*
D03*
X1534Y1235D02*
D03*
X1738Y642D02*
D03*
X1952Y326D02*
D03*
X1853D02*
D03*
X1964Y666D02*
D03*
X1032Y1593D02*
D03*
X1339Y1540D02*
D03*
X1343Y1577D02*
D03*
X1033Y1745D02*
D03*
X1951Y463D02*
D03*
X2025Y539D02*
D03*
X3008Y908D02*
D03*
X1918Y1640D02*
D03*
X2442Y1296D02*
D03*
X2310Y1276D02*
D03*
X2415Y1250D02*
D03*
X2112Y1672D02*
D03*
D124*
X3189Y1945D02*
D03*
X3136Y1941D02*
D03*
X3092Y1909D02*
D03*
X3170Y1782D02*
D03*
X3167Y1733D02*
D03*
X3129Y1704D02*
D03*
X3081Y1706D02*
D03*
X3031Y1708D02*
D03*
X2855Y477D02*
D03*
M02*
